<?xml version="1.0" encoding="UTF-8"?>
<svg id="Layer_1" data-name="Layer 1" xmlns="http://www.w3.org/2000/svg" version="1.1" viewBox="0 0 2364 1761">
  <defs>
    <style>
      .cls-1 {
        fill: #f5f5f5;
      }

      .cls-1, .cls-2, .cls-3, .cls-4, .cls-5, .cls-6, .cls-7, .cls-8, .cls-9, .cls-10 {
        stroke-width: 0px;
      }

      .cls-2, .cls-7 {
        fill: #407bff;
      }

      .cls-3 {
        fill: #ebebeb;
      }

      .cls-4 {
        fill: #263238;
      }

      .cls-5 {
        fill: #e0e0e0;
      }

      .cls-6 {
        fill: #f0f0f0;
      }

      .cls-7, .cls-9 {
        opacity: .3;
      }

      .cls-7, .cls-9, .cls-10 {
        isolation: isolate;
      }

      .cls-8, .cls-9 {
        fill: #ffffff;
      }

      .cls-10 {
        fill: #000;
        opacity: .2;
      }

      #gear1, #gear2, #gear3, #gear4, #gear5, #gear6, #gear7, #gear8, #gear9 {
        animation: spin 10s linear infinite;
      }

      #error {
        animation: glow 1s ease-in-out infinite alternatE;
      }

      @keyframes spin {
        from {
          transform: rotate(0deg);
        }
        to {
          transform: rotate(360deg);
        }
      }

      @keyframes glow {
        from {
          filter: drop-shadow(0 0 5px #407bff);
        }
        to {
          filter: drop-shadow(0 0 35px #407bff);
        }
      }
    </style>
  </defs>
  <path class="cls-3" d="M2363.4,1547.5H0v1.2h2363.4v-1.2Z"/>
  <path class="cls-3" d="M2126.6,1623.6h-102.5v1.2h102.5v-1.2Z"/>
  <path class="cls-3" d="M1629.2,1599.1h-161.2v1.2h161.2v-1.2Z"/>
  <path class="cls-3" d="M2085.1,1579.7h-210.5v1.2h210.5v-1.2Z"/>
  <path class="cls-3" d="M817.8,1603.6h-52.7v1.2h52.7v-1.2Z"/>
  <path class="cls-3" d="M723.1,1603.6h-181.5v1.2h181.5v-1.2Z"/>
  <path class="cls-3" d="M444.4,1583.6h-130.9v1.2h130.9v-1.2Z"/>
  <path class="cls-3" d="M1120.2,1336.7H207.6c-7.2,0-14-2.9-19.1-7.9-5.1-5.1-7.9-11.9-7.9-19.1V26.8c0-7.1,2.9-13.9,8-18.9C193.6,2.8,200.4,0,207.6,0h912.7c7.2,0,14,2.8,19.1,7.9,5.1,5.1,7.9,11.9,7.9,19.1v1282.8c0,7.2-2.8,14-7.9,19.1-5.1,5.1-11.9,7.9-19.1,7.9ZM207.6.9c-6.8,0-13.4,2.7-18.2,7.6-4.8,4.8-7.5,11.4-7.5,18.2v1283c0,6.8,2.7,13.4,7.5,18.2,4.8,4.8,11.4,7.6,18.2,7.6h912.7c6.8,0,13.4-2.7,18.2-7.6,4.8-4.8,7.6-11.4,7.6-18.2V26.8c0-6.8-2.7-13.4-7.6-18.2-4.8-4.8-11.4-7.6-18.2-7.6H207.6Z"/>
  <path class="cls-3" d="M2142.7,1336.7h-912.7c-7.2,0-14-2.9-19.1-7.9s-7.9-11.9-7.9-19.1V26.8c0-7.1,3-13.9,8-18.9,5.1-5,11.9-7.8,19-7.8h912.7c7.1,0,13.9,2.8,18.9,7.9,5,5,7.9,11.8,8,18.9v1283c0,7.1-2.8,14-7.9,19.1-5,5.1-11.9,7.9-19,7.9ZM1229.9.9c-6.8,0-13.4,2.7-18.2,7.6-4.8,4.8-7.6,11.4-7.6,18.2v1283c0,6.8,2.7,13.4,7.6,18.2,4.8,4.8,11.4,7.6,18.2,7.6h912.7c6.8,0,13.4-2.7,18.2-7.6,4.8-4.8,7.6-11.4,7.6-18.2V26.8c0-6.8-2.7-13.4-7.6-18.2-4.8-4.8-11.4-7.6-18.2-7.6h-912.7Z"/>
  <path id="gear5" class="cls-3" d="M1021.3,689.5l2.1-62.1-38.1-12.5c-1.6-21-5.1-41.9-10.2-62.4l32.3-23.6-21.9-58.3-40,3.2c-9.5-18.8-20.5-36.7-33.1-53.6l20.7-34.6-42.5-45.4-35.7,18.3c-16.1-13.7-33.2-26.1-51.3-37.1l5.8-39.7-56.7-25.7-26,30.4c-20.1-6.4-40.6-11.2-61.4-14.2l-9.5-38.9-62.3-2.1-12.3,38.1c-21,1.7-41.9,5.1-62.3,10.2l-24-32.1-58.3,21.8,3.2,40c-18.8,9.6-36.7,20.8-53.6,33.4l-34.8-21.2-45.6,42.5,18.3,35.9c-13.7,16-26.1,33.1-36.9,51.2l-39.7-6-25.9,56.7,30.6,26c-6.5,20-11.2,40.6-14.2,61.4l-39.4,9.9-2.1,62.1,38.3,12.5c1.6,21,5,41.9,10.2,62.3l-32.3,23.6,22,58.4,40-3.2c9.5,18.8,20.5,36.8,33.1,53.6l-20.8,34.6,42.5,45.4,35.7-18.3c16,13.7,33.2,26.1,51.2,37l-6,39.7,56.7,25.8,26.1-30.4c20.1,6.5,40.6,11.3,61.4,14.4l9.5,38.9,62.3,2.1,12.3-38.2c21-1.7,41.9-5.1,62.4-10.2l23.6,32.1,58.3-21.8-3-40c18.7-9.7,36.7-20.9,53.6-33.4l34.4,20.7,45.6-42.5-18.3-35.9c13.7-16,26.1-33.1,36.9-51.2l39.7,6,25.9-56.7-30.6-26c6.6-20,11.4-40.6,14.4-61.4l39.7-9.5ZM601.6,890.8c-48.7-1.6-95.9-17.7-135.5-46.2-39.6-28.5-69.9-68-87-113.7-17.1-45.7-20.3-95.4-9.2-142.9,11.1-47.5,36.1-90.6,71.8-123.9,35.6-33.3,80.4-55.3,128.5-63.1,48.1-7.9,97.5-1.3,141.9,18.9,44.4,20.2,81.8,53.1,107.5,94.6,25.7,41.5,38.5,89.6,36.8,138.3-2.2,65.3-30.3,127.1-78.1,171.7-47.8,44.6-111.3,68.4-176.6,66.2Z"/>
  <path id="gear1" class="cls-3" d="M2084.5,484.1l15.6-14.6-6.2-12.3c4.7-5.5,9-11.4,12.7-17.7l13.7,2,8.8-19.6-10.5-8.9c2.3-6.9,3.9-14,5-21.2l13.5-3.4.7-21.5-13.1-4.3c-.6-7.3-1.8-14.5-3.5-21.6l11.1-8.3-7.6-20.1-13.8,1.1c-3.3-6.5-7.2-12.7-11.5-18.5l7.1-11.8-14.7-15.7-12.3,6.3c-5.5-4.7-11.4-9-17.7-12.7l2-13.7-19.5-8.9-9,10.5c-6.9-2.2-14-3.7-21.2-4.7l-3.3-13.4-21.5-.8-4.3,13.2c-7.2.6-14.4,1.7-21.5,3.5l-8.2-11.1-20.1,7.5,1.1,13.8c-6.5,3.3-12.7,7.1-18.5,11.5l-11.9-7.1-15.7,14.6,6.1,12.1c-4.8,5.5-9,11.4-12.8,17.7l-13.7-2-8.9,19.6,10.5,9c-2.2,6.9-3.8,14-4.7,21.2l-13.5,3.4-.7,21.5,13.2,4.3c.5,7.3,1.7,14.5,3.4,21.6l-11.2,8.2,7.6,20.1,13.8-1c3.3,6.5,7.2,12.7,11.5,18.5l-7.1,11.8,14.7,15.7,12.3-6.3c5.5,4.7,11.4,9,17.7,12.7l-2,13.7,19.6,8.9,9-10.5c6.9,2.1,14,3.7,21.2,4.7l3.4,13.4,21.5.8,4.3-13.2c7.2-.5,14.4-1.7,21.5-3.5l8.2,11.1,20.1-7.5-1.1-13.8c6.5-3.3,12.7-7.1,18.5-11.5l11.9,7.4ZM1972.8,393.7c-4.1-4.4-6.8-10-7.8-15.9-1-6-.2-12.1,2.3-17.6,2.5-5.5,6.6-10.1,11.7-13.3,5.1-3.2,11.1-4.8,17.2-4.6,6,.2,11.9,2.2,16.8,5.7,4.9,3.5,8.7,8.4,10.8,14.1s2.5,11.8,1.1,17.7c-1.4,5.9-4.5,11.2-8.9,15.4-2.9,2.8-6.4,4.9-10.2,6.4-3.8,1.4-7.8,2.1-11.8,1.9-4-.1-8-1.1-11.7-2.8-3.7-1.7-7-4.1-9.7-7h.2Z"/>
  <path id="gear4" class="cls-3" d="M1512.6,1121.8l-48.9-33.8c-4.8-17.6-11.4-34.7-19.7-50.9l12.5-49.2-70.9-75.9-49.9,9.1c-15.7-9.4-32.2-17.1-49.5-23.1l-30.3-51.1-104-3.5-33.8,48.9c-17.6,4.8-34.6,11.4-50.9,19.6l-49.2-12.5-75.9,70.9,9.1,49.8c-9.4,15.7-17.1,32.3-23.1,49.6l-51.1,30.4-3.5,104,48.9,33.8c4.7,17.7,11.3,34.8,19.6,51.1l-12.7,48.7,70.9,75.9,49.6-9.1c15.8,9.4,32.5,17.2,49.8,23.2l30.3,51,104,3.6,33.7-48.9c17.7-4.8,34.9-11.4,51.3-19.7l48.9,12.5,76-70.9-9.1-49.8c9.4-15.7,17.1-32.3,23.1-49.6l51.1-30.3,3.5-103.7ZM1189,1279.7c-23.1-.8-45.4-8.4-64.2-21.9s-33.1-32.2-41.2-53.9c-8.1-21.6-9.6-45.2-4.3-67.7,5.3-22.5,17.1-42.9,34-58.7s38.1-26.2,60.8-29.9c22.8-3.7,46.2-.6,67.2,8.9,21,9.6,38.8,25.1,50.9,44.8,12.2,19.6,18.3,42.4,17.5,65.5-1.1,31-14.4,60.2-37.1,81.4-22.6,21.1-52.8,32.4-83.7,31.4h0Z"/>
  <g id="gear2">
    <path class="cls-3" d="M1623.9,827.2h-.3l-81.9-2.8c-1.7,0-3.3-.5-4.7-1.3-1.4-.8-2.6-2-3.5-3.4l-22.1-37.1c-11.9-4.4-23.4-9.7-34.4-16l-35.3,6.1c-1.6.3-3.3.2-4.9-.3-1.6-.5-3-1.5-4.1-2.7l-55.9-59.8c-1.2-1.2-2-2.8-2.4-4.4-.4-1.7-.4-3.4,0-5l8.9-35c-5.5-11.3-10.1-23.2-13.5-35.3l-35.6-24.6c-1.4-.9-2.5-2.2-3.2-3.7-.8-1.5-1.1-3.2-1.1-4.8l2.8-81.9c0-1.7.5-3.3,1.3-4.7.8-1.4,2-2.6,3.4-3.5l37.2-22.1c4.3-11.9,9.6-23.3,15.9-34.3l-6.5-35.6c-.3-1.7-.2-3.4.3-4.9.5-1.6,1.4-3,2.7-4.2l59.8-55.9c1.2-1.2,2.8-2,4.4-2.4,1.7-.4,3.4-.4,5.1,0l35.2,9c11.3-5.5,23.1-10.1,35.2-13.6l24.6-35.6c.9-1.4,2.2-2.6,3.7-3.3,1.5-.8,3.2-1.1,4.9-1l81.8,2.8c1.7,0,3.3.5,4.7,1.3,1.4.8,2.7,2,3.5,3.4l22.1,37.2c11.8,4.3,23.2,9.7,34.1,16l35.7-6.6c1.6-.3,3.3-.2,4.9.3,1.6.5,3,1.5,4.2,2.7l55.9,59.8c1.2,1.2,2,2.8,2.4,4.4.4,1.7.4,3.4,0,5l-9,35.1c5.5,11.3,10.1,23.1,13.6,35.2l35.5,24.6c1.4.9,2.5,2.2,3.2,3.7.8,1.5,1.1,3.2,1.1,4.8l-2.8,81.8c0,1.7-.5,3.3-1.3,4.7-.8,1.4-2,2.7-3.4,3.6l-37.2,22.1c-4.3,11.8-9.7,23.3-15.9,34.2l6.5,35.6c.3,1.6.2,3.3-.3,4.9-.5,1.6-1.5,3-2.7,4.1l-60.2,55.9c-1.2,1.2-2.8,2-4.4,2.4-1.7.4-3.4.4-5,0l-35-8.9c-11.4,5.5-23.2,10.1-35.4,13.6l-24.3,35.5c-.9,1.4-2.1,2.6-3.5,3.4-1.4.8-3,1.3-4.7,1.3ZM1547.8,804.6l70.9,2.4,23.6-34c1.3-2,3.3-3.4,5.6-4,13.3-3.6,26.2-8.6,38.5-14.8,2.1-1,4.6-1.3,6.9-.7l33.1,8.5,52-48.4-6-34.2c-.5-2.4,0-4.9,1.2-6.9,7-11.7,12.8-24.1,17.3-37,.8-2.3,2.3-4.3,4.4-5.6l35.6-21.1,2.4-70.9-34-23.6c-1.8-1.2-3.1-3-3.8-5.1v-.8c-3.6-13.1-8.6-25.7-14.8-37.8-1.1-2.2-1.4-4.6-.8-7l8.5-33.5-48.4-52-34,6.2c-2.4.4-4.8,0-6.9-1.2-11.7-7-24.2-12.8-37.1-17.3-.7-.2-1.4-.6-2.1-.9-1.4-.9-2.5-2-3.3-3.4l-21.3-35.7-70.9-2.5-23.6,34.1c-1.4,2-3.5,3.4-5.9,4-13.2,3.6-25.9,8.5-38.1,14.7-2.1,1.1-4.6,1.4-6.9.8l-33.5-8.5-52,48.4,6.2,33.9c.4,2.1,0,4.3-.9,6.3l-.5.8c-7,11.7-12.8,24.2-17.2,37.2-.8,2.2-2.3,4.1-4.4,5.3l-35.6,21.1-2.4,70.9,34.1,23.6c1.9,1.3,3.3,3.3,4,5.6,3.5,13.3,8.5,26.1,14.7,38.4.3.7.6,1.4.8,2.2.4,1.6.4,3.2,0,4.7l-8.5,33.1,48.4,52,33.7-6.2c2.4-.4,4.8,0,6.9,1.2,11.8,7,24.3,12.8,37.3,17.3,2.3.7,4.3,2.3,5.5,4.4l21.1,36ZM1591.6,715h-5.2c-39.3-.7-76.7-16.9-104.1-45-27.4-28.2-42.6-66-42.3-105.3.3-39.3,16.2-76.9,44.1-104.5,27.9-27.7,65.6-43.2,104.9-43.2s77,15.5,104.9,43.2c27.9,27.7,43.8,65.2,44.1,104.5.3,39.3-14.9,77.1-42.3,105.3-27.4,28.2-64.8,44.3-104.1,45ZM1591.6,435.7c-34.3.6-67.1,14.7-91,39.3-24,24.6-37.2,57.7-36.9,92,.3,34.3,14.1,67.2,38.5,91.4,24.4,24.2,57.3,37.7,91.7,37.7s67.3-13.6,91.7-37.7c24.4-24.2,38.2-57,38.5-91.4.3-34.3-13-67.4-36.9-92-24-24.6-56.7-38.7-91-39.3h-4.5Z"/>
  </g>
  <path class="cls-5" d="M1812.4,237.9l-33.9-9.1-9.1-33.9,13.3-13.2,14,29,29,14-13.3,13.2Z"/>
  <path class="cls-5" d="M1814.5,215.2c1.5-1.5,2.6-3.2,3.4-5.1.8-1.9,1.2-4,1.2-6.1s-.4-4.1-1.2-6.1c-.8-1.9-2-3.7-3.4-5.1s-3.2-2.6-5.1-3.4c-1.9-.8-4-1.2-6.1-1.2s-4.1.4-6,1.2c-1.9.8-3.7,2-5.1,3.4l16.9-25.3,22.6,11.4,5,23.6-22.1,12.6Z"/>
  <path class="cls-6" d="M1780,184.3l24.9-24.9,33.8,9,9.1,33.9-24.9,24.9-33.9-9.1-9.1-33.8ZM1825.1,204.7c2.2-2.2,3.7-5,4.3-8.1.6-3.1.3-6.3-.9-9.1-1.2-2.9-3.2-5.4-5.8-7.1-2.6-1.7-5.7-2.7-8.8-2.7s-6.2.9-8.8,2.7c-2.6,1.7-4.6,4.2-5.8,7.1-1.2,2.9-1.5,6.1-.9,9.1.6,3.1,2.1,5.9,4.3,8.1,3,2.9,7,4.6,11.2,4.6,4.2,0,8.2-1.7,11.2-4.7h0Z"/>
  <path class="cls-5" d="M426.4,1142.5l18.2-4.9,4.9-18.2-7.1-7.1-7.5,15.5-15.6,7.5,7.1,7.1Z"/>
  <path class="cls-5" d="M425.4,1130.3c-1.4-1.6-2.2-3.7-2.1-5.9,0-2.2,1-4.2,2.5-5.7,1.5-1.5,3.6-2.4,5.7-2.5,2.2,0,4.3.7,5.9,2.1l-9-13.6-12.4,6.1-2.6,12.8,12.1,6.8Z"/>
  <path class="cls-6" d="M443.8,1113.7l-13.3-13.3-18.2,4.7-4.7,18.2,13.1,13.5,18.2-4.7,5-18.3ZM419.6,1124.6c-.9-.8-1.6-1.7-2.1-2.8s-.8-2.2-.8-3.4c0-1.2.2-2.3.6-3.4.4-1.1,1.1-2.1,1.9-2.9.8-.8,1.8-1.5,2.9-1.9,1.1-.4,2.2-.6,3.4-.6,1.2,0,2.3.3,3.4.8,1.1.5,2,1.2,2.8,2.1,1.4,1.6,2.2,3.7,2.1,5.9,0,2.2-1,4.2-2.5,5.7-1.5,1.5-3.6,2.4-5.7,2.5-2.2,0-4.3-.7-5.9-2.1Z"/>
  <path class="cls-6" d="M360.9,144.9l15.1,15.1c1.9,1.9,4.4,2.9,7.1,2.9s5.2-1,7.1-2.9c1.8-1.9,2.9-4.4,2.9-7.1s-1-5.2-2.9-7.1l-15.1-15.1c-1.9-1.8-4.4-2.9-7.1-2.9s-5.2,1-7.1,2.9c-1.9,1.9-2.9,4.4-2.9,7.1s1,5.2,2.9,7.1Z"/>
  <path class="cls-5" d="M350.3,107.3c3.9-1.1,8.1-1,12,.2,3.9,1.2,7.4,3.6,9.9,6.8,2.6,3.2,4.2,7,4.6,11.1.4,4.1-.4,8.2-2.3,11.8-1.9,3.6-4.8,6.6-8.4,8.6-3.6,2-7.7,2.9-11.7,2.6-4.1-.3-8-1.7-11.3-4.2-3.3-2.5-5.7-5.8-7.1-9.7-.9-2.7-1.2-5.6-1-8.4.2-2.9,1-5.6,2.4-8.2s3.1-4.8,5.3-6.6c2.2-1.8,4.7-3.2,7.5-4.1Z"/>
  <path class="cls-6" d="M333.9,132.1l2.2,6.1,44.9-16.1-2.2-6.1-44.9,16.1Z"/>
  <path class="cls-1" d="M1181.7,1761c506.2,0,916.5-24,916.5-53.5s-410.3-53.5-916.5-53.5-916.5,23.9-916.5,53.5,410.3,53.5,916.5,53.5Z"/>
  <path class="cls-4" d="M409.9,310.3c-4.7-20.8-2.6-38.3,6.3-52.6,9-14.3,23.6-23.6,44.5-28.4,20.8-4.7,38.9-2.8,52.9,6,14.1,8.8,23.6,23.6,28.4,44,3.3,12.5,3.6,25.7.8,38.4-2.7,10.5-8.6,20-16.7,27.2-9.7,8.1-21.2,13.6-33.7,16-12.2,3.2-24.9,3.7-37.2,1.3-10.7-2.6-20.5-8.4-27.9-16.5-8.9-10-14.9-22.2-17.4-35.3ZM449.3,301.5c2.9,12.9,7.4,21.6,13.5,26.1,3.1,2.1,6.6,3.5,10.3,4.2,3.7.7,7.5.6,11.1-.2,3.7-.8,7.1-2.4,10.2-4.5,3.1-2.2,5.6-5,7.6-8.2,3.4-6.6,3.5-17,.2-31.2-2.7-12-7.2-20.2-13.3-24.7-3.1-2.2-6.6-3.7-10.3-4.4-3.7-.7-7.6-.5-11.2.5-3.7.7-7.1,2.2-10.1,4.4-3,2.2-5.4,5.1-7.2,8.4-3.5,6.9-3.8,16.4-.9,29.6Z"/>
  <path class="cls-4" d="M560.5,294.7c-1.7-6.4-2-13.2-.9-19.7,1.1-6.6,3.6-12.8,7.3-18.4,4.1-5.9,9.4-10.9,15.5-14.8,6.1-3.9,12.9-6.5,19.9-7.7,18.5-4.2,33.7-2,45.6,6.6,10,7.8,16.8,18.9,19.1,31.3,2.3,12.4,0,25.3-6.6,36.1-7.4,11.2-19.4,18.8-36,22.5-12.8,3.6-26.5,2.5-38.6-3.1-6.5-3.2-12.1-7.8-16.5-13.5-4.4-5.7-7.4-12.3-8.8-19.4ZM596,286.5c1,6.6,4.2,12.7,9.1,17.2,2,1.5,4.2,2.5,6.6,3,2.4.5,4.9.5,7.3,0,2.4-.5,4.7-1.6,6.6-3.1,2-1.5,3.6-3.4,4.7-5.6,2.5-6.3,2.7-13.4.7-19.9-1-6.5-4.2-12.4-9-16.7-1.9-1.5-4.1-2.6-6.4-3.1-2.4-.5-4.8-.5-7.2,0-2.5.5-4.8,1.6-6.7,3.1-2,1.5-3.6,3.5-4.7,5.7-2.5,6.1-2.9,13-.9,19.3Z"/>
  <path class="cls-4" d="M702.3,347.7l-29-127.6,33.1-7.6,3.1,13.7c2.3-5.4,5.7-10.4,10-14.5,4.7-4,10.2-6.7,16.2-8,5.5-1.5,11.3-1.6,16.9-.3,5.6,1.3,10.7,4.1,14.9,7.9,9.3,8.7,15.7,20.2,18.1,32.8,3.5,15.4,2.5,27.9-3,37.8-2.6,4.7-6.2,8.8-10.6,12-4.3,3.2-9.3,5.4-14.6,6.5-5.1,1.2-10.4,1.4-15.6.6-5-.9-9.7-2.8-13.9-5.5l10,44.1-35.7,8.1ZM719.4,258.6c.9,5.9,3.8,11.3,8.3,15.2,1.8,1.4,3.9,2.3,6.1,2.8,2.2.5,4.5.4,6.7-.1,2-.4,4-1.3,5.6-2.6,1.6-1.3,3-2.9,3.8-4.8,2-5.9,2-12.3,0-18.2-.9-5.9-3.7-11.4-8.1-15.5-1.6-1.3-3.5-2.3-5.6-2.8-2-.5-4.2-.5-6.2,0-2.2.5-4.2,1.4-6,2.8-1.8,1.4-3.2,3.1-4.2,5.1-2.3,5.8-2.5,12.3-.6,18.2Z"/>
  <path class="cls-4" d="M800.9,261.4l34.4-11.3c1.8,3.3,4.7,6,8.1,7.6,3.7,1.1,7.6,1.2,11.4.2,3.8-.9,7.2-2.8,10-5.4.8-.8,1.4-1.8,1.7-2.9.3-1.1.3-2.3,0-3.4-.3-1.3-.9-2.4-1.9-3.3-1-.9-2.2-1.5-3.4-1.7-5.3-.6-10.7-.6-16.1,0-9,.8-18,.8-26.9,0-5.2-.8-10.2-3-14.2-6.5-4.3-3.7-7.2-8.7-8.4-14.2-1.2-5.5-.5-11.3,1.9-16.4,2.8-5.5,7-10.1,12.3-13.2,7.5-4.3,15.7-7.3,24.2-8.9,8.1-2.2,16.5-3.2,25-3,5.3.3,10.4,2,14.9,4.7,4.8,3.2,8.9,7.5,12,12.4l-33.1,10.9c-1.2-2.5-3.3-4.4-5.8-5.5-3.4-1.2-7.2-1.4-10.7-.5-3.1.4-6,1.9-8.3,4.1-.7.8-1.2,1.7-1.5,2.7-.3,1-.3,2.1,0,3.1.3,1.1.8,2.1,1.7,2.9.8.8,1.9,1.3,3,1.4,5.3.6,10.6.5,15.9-.3,9.1-1.3,18.4-1.4,27.5-.4,5.8.8,11.1,3.3,15.5,7.1,3.9,3.6,6.7,8.3,7.8,13.5,1.2,5.6.8,11.4-1.3,16.7-2.5,6.3-6.9,11.7-12.5,15.5-8.3,5.4-17.6,9.1-27.3,10.9-16.9,3.8-29.5,4.2-37.8,1-8.1-3.2-14.7-9.6-18.2-17.6Z"/>
  <path class="cls-4" d="M916.3,144.5h38.8v29.8l-7.1,59.9h-24l-7.7-59.8v-29.9ZM918.2,243.2h36.2v32h-36.2v-32Z"/>
  <path class="cls-4" d="M608.2,551h-.9c-21.3-8.3-34-16.3-40.6-26-5.2,1-10.5.3-15.3-2.1-5.5-2.7-10.1-7-13.2-12.4-1.6,1.2-3.5,2-5.5,2.3-2,.3-4,.1-5.9-.6-5.8-2.2-10.8-6.2-14.2-11.4-2.1,1.6-4.7,2.3-7.4,2-14.2-1.1-33.1-29.1-34.5-58.9,0-.6.2-1.2.6-1.7.4-.5,1-.8,1.6-.8.3,0,.6,0,.9.1.3.1.6.3.8.5.2.2.4.5.5.7s.2.6.2.9c1.3,28.4,19.4,53.6,30.2,54.4.8,0,1.6,0,2.3-.2.8-.2,1.5-.6,2.1-1.1-3.7-6.7-6-14.1-6.8-21.8-.8-7.6,0-15.4,2.1-22.7,4.1-14.2,7.7-19.8,12-18.9,8.1,2,7,33.1,2.7,53.4-.7,3.7-2,7.2-4,10.3,2.8,4.7,7,8.3,12,10.4,1.3.5,2.8.6,4.2.3,1.4-.3,2.7-1,3.7-2-3.7-9.1-4.7-21.6.6-37.5,6.6-20.9,9.5-21.5,10.9-21.9.6-.1,1.1,0,1.7.1.5.2,1,.5,1.4.9,4.4,5-.9,37.5-6.3,53.6-.6,1.9-1.5,3.8-2.6,5.5,2.5,5.1,6.7,9.3,11.8,11.8,3.3,1.6,7.1,2.3,10.8,2-.4-.9-.8-1.8-1.2-2.7-3.7-10.2-1.9-21.8,5.6-35.8,5-9.2,9-13.6,12.8-13.6,1,0,2,.3,2.8.9.8.6,1.5,1.3,1.9,2.3,4.1,7.6,1.1,32.7-7,45.2-1.9,2.9-4.5,5.1-7.7,6.6,6.3,8.3,18.4,15.6,37.8,23.1.3.1.6.3.8.5.2.2.4.5.5.7.1.3.2.6.2.9,0,.3,0,.6-.2.9-.2.5-.5.9-1,1.2-.4.3-1,.4-1.5.4ZM581.4,473.2s-2.7,0-8.6,11.1c-6.9,12.7-8.6,23.1-5.3,31.9.4,1.1.9,2.1,1.4,3.2,2.6-1.1,4.7-2.9,6.2-5.2,6.6-10.1,9.8-30.9,7.3-39-.3-1.7-1-1.9-1-1.9ZM547.5,453.3c-2.6,5.4-4.7,11-6.3,16.7-3.6,9.9-4.2,20.7-1.8,31l.4-1.2c5-15,7.6-30.6,7.8-46.4h-.1ZM516.4,438.4c-.8.7-3.1,3.7-6.4,15.2-3.9,12.9-2.6,26.9,3.4,38.9,1-2.1,1.7-4.3,2.1-6.6,5.1-23.2,3.6-44.2,1-47.6h-.1Z"/>
  <path class="cls-4" d="M788,798.8c-7.6,0-15-1.9-21.6-5.6-.5-.3-.9-.8-1.1-1.5-.2-.6,0-1.3.2-1.8.2-.3.4-.5.6-.7s.5-.3.8-.4c.3,0,.6,0,.9,0,.3,0,.6.2.9.3,16.9,9.9,38.7,3,43.2-4.3.3-.5.6-1,.7-1.5.1-.5.1-1.1,0-1.7-8.6.5-17.2-1.9-24.2-6.9-12.1-7.5-13-9.8-12.9-11.6,0-.5.2-1,.5-1.4.3-.4.7-.8,1.1-1,4.7-2.4,26,7.4,34.9,13.3,1.1.7,2,1.5,2.9,2.5,3.5-.8,6.6-2.7,9-5.4,1.3-1.5,2.3-3.4,2.8-5.3h-.9c-7.6.8-15.1-2.5-23.2-10-5.6-5.1-7.7-8.7-7-11.4.2-.8.7-1.5,1.3-2,.6-.5,1.3-.9,2.2-1,6.5-1.7,22.7,5.2,29.3,12.5,1.5,1.6,2.5,3.5,3,5.6,6.2-2.9,12.7-9.5,20.4-20.2.2-.3.4-.5.7-.6.3-.2.6-.3.9-.3.3,0,.6,0,.9,0,.3,0,.6.2.8.4.5.4.8.9,1,1.5.1.6,0,1.3-.4,1.8-8.9,12.5-16.4,19.6-23.9,22.5-.4,3.5-1.8,6.8-4.1,9.5-2.7,3.2-6.3,5.5-10.3,6.7.2,1.1.2,2.3,0,3.4s-.7,2.2-1.3,3.2c-4,6.8-15.4,11.8-28,11.8ZM783.7,766c1.6,1.2,3.9,2.7,7.1,4.7,5.1,3.4,10.9,5.6,17,6.2-7.6-4.6-15.7-8.2-24.2-11ZM800.2,745.9c1.4,2.6,3.2,4.8,5.5,6.6,7,6.5,13.4,9.5,19.5,8.7h1.5c-.3-1.5-1.1-2.8-2.1-3.9-6.6-7.5-21.2-12.1-24.5-11.3Z"/>
  <path class="cls-2" d="M850.5,792.3l-73.6,13.4-66.9-365-142.1,25.8-231.6,411.2,24.9,135.7,297.1-53.9,20.3,111,142.1-25.9-20.3-111,73.6-13.4-23.4-127.9ZM477.8,860.3l122.9-215.4,34.3,186.9-157.2,28.5Z"/>
  <path class="cls-2" d="M1443.7,416c-2.2-22.9-7.3-45.5-15.1-67.2-8-20.8-19.2-40.2-33.1-57.6-16.4-20.3-36.9-36.9-60-49-25.2-13.8-58.6-23.5-100.3-28.9-86.5-11.3-153.9,4.1-202.2,46-48.3,42-80.1,122.3-95.5,241.1-6.1,44.4-7.7,89.3-4.7,134,3.2,41,10.7,73.9,22.6,98.9,15.2,33.7,39.1,62.7,69.2,84,29.8,21,70.8,34.8,122.9,41.5,92.6,12.1,161.2-5.7,205.9-53.4,44.7-47.6,74.3-128.2,88.9-241.5,6.4-49.1,6.9-98.8,1.4-148Z"/>
  <path class="cls-4" d="M1190.1,810.3c-11.4-.4-23.6-1.4-36-3-43.3-5.6-76.8-16.6-99.5-32.6-22.7-16-40.7-37.9-52-63.3l-.2-.5c-9.1-18.9-15-46.1-17.6-80.4-2.8-41.2-1.3-82.5,4.3-123.4,16.9-131,51.7-185.7,77.9-208.5,30.6-26.6,72-38.6,126.3-36.7,11.2.4,23,1.4,35.1,2.9,34.9,4.7,62.5,12.3,82.1,23,16.9,8.7,31.9,20.8,44,35.4,10.6,13.2,19.1,28,25.3,43.8,6.3,17.6,10.4,36,12.1,54.6,5,45.1,4.6,90.7-1.4,135.8-13.1,101.8-38.4,173.4-75.2,212.7-27.3,29.1-68.3,42.5-125.3,40.4v-.2Z"/>
  <path id="gear7" class="cls-2" d="M1282.6,417.3l.6-17.9-11-3.6c-.5-6.1-1.5-12.1-2.9-18l9.5-6.9-6.3-16.8-11.5.9c-2.7-5.4-5.9-10.6-9.5-15.5l6-10-12.3-13.1-10.3,5.3c-4.6-4-9.5-7.5-14.7-10.7l1.7-11.4-16.3-7.4-7.5,8.8c-5.8-1.9-11.7-3.3-17.7-4.2l-2.8-11.2-18-.6-3.5,11c-6.1.5-12.1,1.5-18,2.9l-6.9-9.5-16.8,6.3.9,11.5c-5.4,2.7-10.6,5.9-15.4,9.5l-9.9-6-13.1,12.2,5.3,10.4c-4,4.6-7.5,9.6-10.6,14.8l-11.4-1.7-7.5,16.4,8.8,7.5c-1.9,5.8-3.3,11.7-4.2,17.8l-11.2,2.8-.6,17.9,11,3.6c.5,6.1,1.4,12.1,2.9,18l-9.4,6.9,6.3,16.8,11.5-.9c2.7,5.4,5.8,10.6,9.4,15.5l-6,10,12.3,13.1,10.3-5.2c4.6,3.9,9.6,7.5,14.8,10.6l-1.7,11.4,16.3,7.4,7.5-8.7c5.8,1.9,11.7,3.2,17.8,4.1l2.8,11.2,17.9.6,3.6-11c6.1-.5,12.1-1.4,18-2.9l6.8,9.5,16.8-6.3-.9-11.5c5.4-2.7,10.5-5.9,15.5-9.5l9.9,6,13.1-12.2-5.2-10.4c4-4.6,7.5-9.5,10.6-14.7l11.4,1.7,7.5-16.4-8.8-7.5c1.9-5.8,3.3-11.7,4.1-17.7l11.3-2.8ZM1161.6,475.3c-14-.5-27.5-5.2-38.9-13.4-11.4-8.2-20-19.6-24.9-32.7-4.9-13.1-5.8-27.4-2.6-41,3.2-13.6,10.4-26,20.6-35.6s23.1-15.9,36.9-18.1c13.8-2.3,28-.4,40.8,5.4,12.8,5.8,23.5,15.2,30.9,27.1,7.4,11.9,11.1,25.7,10.7,39.7-.3,9.3-2.4,18.5-6.3,27s-9.3,16.2-16.2,22.5c-6.8,6.4-14.8,11.3-23.6,14.6-8.8,3.3-18.1,4.8-27.4,4.4Z"/>
  <path id="gear8" class="cls-7" d="M1357.2,746.2l1.3-12.1-7.3-2.9c0-4.1-.4-8.2-1-12.3l6.6-4.2-3.4-11.7h-7.8c-1.6-3.8-3.4-7.5-5.6-10.9l4.4-6.4-7.6-9.5-7.2,3c-2.9-2.9-6.1-5.6-9.5-7.9l1.8-7.7-10.6-5.9-5.6,5.6c-3.8-1.6-7.7-2.8-11.7-3.7l-1.3-7.7-12-1.4-3,7.3c-4.1,0-8.2.4-12.2,1.1l-4.2-6.7-11.7,3.5v7.8c-3.8,1.6-7.5,3.5-10.9,5.7l-6.4-4.7-9.5,7.6,3,7.2c-2.9,2.9-5.5,6.1-7.9,9.5l-7.7-1.7-5.8,10.6,5.6,5.5c-1.6,3.8-2.8,7.7-3.7,11.8l-7.8,1.3-1.3,12.1,7.2,3c0,4.1.4,8.2,1.1,12.2l-6.7,4.2,3.4,11.7h7.9c1.6,3.8,3.5,7.4,5.7,10.9l-4.7,6.4,7.6,9.5,7.3-3.1c2.9,2.9,6.1,5.6,9.5,7.9l-1.7,7.8,10.6,5.8,5.5-5.5c3.8,1.5,7.7,2.7,11.7,3.6l1.4,7.8,12.1,1.3,2.9-7.2c4.2,0,8.3-.4,12.5-1l4.2,6.7,11.6-3.4v-7.8c3.8-1.6,7.5-3.5,11-5.7l6.3,4.7,9.4-7.6-3.1-7.2c2.9-2.9,5.6-6.1,8-9.5l7.6,1.7,5.9-10.6-5.6-5.5c1.5-3.8,2.7-7.7,3.6-11.7l7.7-1.4ZM1296.3,741.5c-2,3.7-5,6.6-8.7,8.6-3.7,1.9-7.9,2.7-12,2.3-4.2-.4-8.1-2.1-11.3-4.8-3.2-2.7-5.5-6.2-6.7-10.2-1.2-4-1.1-8.3.1-12.2s3.7-7.5,6.9-10.1c3.2-2.6,7.2-4.2,11.4-4.6,4.2-.4,8.3.5,12,2.5,4.9,2.7,8.5,7.2,10.1,12.6,1.6,5.4.9,11.1-1.7,16Z"/>
  <path id="gear6" class="cls-8" d="M1424.1,541.9l-14.2-9.7c-1.4-5.1-3.3-10-5.7-14.7l3.6-14.2-20.4-21.9-14.2,2.6c-4.5-2.7-9.2-4.9-14.2-6.7l-8.7-14.7-29.9-1-9.7,14.2c-5.1,1.4-10,3.3-14.7,5.7l-14.2-3.6-21.9,20.5,2.7,14.2c-2.7,4.5-4.9,9.2-6.7,14.2l-14.7,8.7-1,29.9,14.2,9.7c1.4,5.1,3.3,10,5.7,14.7l-3.6,14.2,20.4,21.9,14.2-2.6c4.5,2.7,9.2,4.9,14.2,6.7l8.7,14.7,30,1,9.7-14.2c5.1-1.4,10.1-3.3,14.8-5.7l14.2,3.6,21.9-20.4-2.6-14.2c2.7-4.5,4.9-9.2,6.7-14.2l14.7-8.7.9-30.1ZM1330.9,587.4c-6.7-.2-13.1-2.4-18.5-6.3-5.4-3.9-9.5-9.3-11.9-15.5-2.3-6.2-2.8-13-1.2-19.5,1.5-6.5,4.9-12.4,9.8-16.9,4.9-4.5,11-7.5,17.5-8.6,6.6-1.1,13.3-.2,19.4,2.6,6.1,2.8,11.2,7.3,14.7,12.9,3.5,5.7,5.2,12.2,5,18.9-.3,8.9-4.2,17.3-10.7,23.4-6.5,6.1-15.2,9.3-24.1,9Z"/>
  <path id="gear3" class="cls-2" d="M1526.7,303.1l2.5-5.9c1.7-.9,3.2-2,4.7-3.3h5.5l6.4-9.5-2.1-5.1c.8-1.7,1.4-3.4,1.9-5.2l4.7-4.3-2-11.1-6-2.5c-.9-1.7-2-3.3-3.3-4.7v-5.5l-9.2-6.4-5.1,2.1c-1.9-.7-3.8-1.1-5.8-1.3l-4.3-4.7-11.1,2-2.5,6c-1.8.9-3.4,2-5,3.2h-5.4l-6.4,9.5,2.1,5.1c-.6,1.9-1.1,3.8-1.3,5.8l-4.7,4.4,2,11.1,6,2.5c.9,1.7,2,3.3,3.2,4.7v5.4l9.4,6.4,5.1-2.1c1.9.6,3.8,1,5.8,1.3l4.3,4.7,10.5-2.5ZM1503.1,272.4c-.4-2.5-.2-5,.8-7.3,1-2.3,2.7-4.2,4.8-5.6,2.1-1.4,4.6-2.1,7.1-2,2.5,0,4.9.8,7,2.3,2.1,1.4,3.6,3.4,4.6,5.8.9,2.3,1.1,4.9.6,7.3-.5,2.4-1.8,4.7-3.6,6.4-1.8,1.7-4.1,2.9-6.5,3.3-3.3.6-6.7-.2-9.5-2.1-2.8-1.9-4.6-4.8-5.2-8.1Z"/>
  <path class="cls-2" d="M1397.3,271.7l-3.6-3.1c7.8-9.7,17.4-17.7,28.4-23.6l2.2,4.2c-10.4,5.7-19.5,13.3-26.9,22.5Z"/>
  <path class="cls-2" d="M1435,244.8l-1.8-4.3c17.5-7.6,36.5-10.6,55.5-8.9l-.5,4.7c-18.2-1.7-36.5,1.2-53.2,8.5Z"/>
  <path class="cls-2" d="M1426.1,277.6l-3.9-2.6c11.4-15.4,28-26.1,46.7-30.2l.9,4.7c-17.5,3.8-33,13.8-43.7,28.1Z"/>
  <path id="gear9" class="cls-8" d="M1112.4,732.6c-.6,0-1.2-.3-1.7-.8l-9.9-10.2c-5-.5-10-1.4-14.9-2.7l-15.5,6.8c-.3.2-.7.3-1.1.3s-.8,0-1.1-.3l-25.9-17.2c-.3-.2-.6-.5-.8-.9-.2-.4-.3-.8-.3-1.2v-16.8c-3.2-4-5.9-8.2-8.3-12.7l-13.3-5.1c-.4-.1-.7-.4-1-.7-.3-.3-.4-.7-.5-1.1l-6.1-30.4c0-.4,0-.8,0-1.2.1-.4.3-.7.6-1l10.2-9.9c.5-5,1.4-10,2.7-14.9l-6.8-15.5c-.2-.3-.3-.7-.3-1.1s0-.8.3-1.1l17.2-25.9c.2-.3.5-.6.9-.8.4-.2.8-.3,1.2-.2l16.8.2c3.9-3.2,8.2-6,12.7-8.3l5.2-13.3c.1-.4.4-.7.7-1,.3-.3.7-.4,1-.5l30.4-6.1c.4,0,.8,0,1.2,0,.4.1.7.3,1,.6l9.9,10.2c5,.5,10,1.4,14.9,2.7l15.4-6.8c.3-.2.7-.3,1.1-.3s.8,0,1.1.3l25.8,17.2c.3.2.6.5.8.9.2.4.3.7.3,1.1l-.3,16.8c3.2,4,6,8.2,8.4,12.7l13.2,5.2c.4.1.7.4.9.7.3.3.4.7.5,1l6.2,30.4c0,.4,0,.8,0,1.2-.1.4-.3.7-.6,1l-10.2,9.9c-.5,5-1.4,10-2.8,14.8l6.8,15.5c.2.3.3.7.3,1.1s0,.8-.3,1.1l-16.9,25.7c-.2.3-.5.6-.9.8-.3.2-.7.3-1.1.3l-16.9-.2c-4,3.1-8.2,5.9-12.6,8.3l-5.1,13.3c-.1.4-.4.7-.7,1-.3.3-.7.4-1.1.5l-30.4,6.4h-.5ZM1085.8,713.7c.2,0,.4,0,.7,0,5.1,1.5,10.4,2.5,15.7,2.9.6,0,1.1.3,1.5.7l9.5,9.9,27.9-5.6,5-13c.2-.5.6-1,1.1-1.2,4.7-2.4,9.2-5.4,13.3-8.7.4-.4,1-.6,1.6-.5l16.4.2,15.7-23.6-6.6-15c-.2-.5-.2-1.1,0-1.6,1.5-5.1,2.4-10.3,2.9-15.6,0-.6.3-1.1.7-1.5l9.9-9.5-5.6-27.9-12.9-5c-.6-.2-1-.6-1.3-1.1-2.4-4.7-5.4-9.2-8.7-13.3-.3-.4-.5-1-.5-1.5v-16.5l-23.6-15.7-15,6.6c-.5.2-1.1.2-1.7,0-5.1-1.5-10.4-2.4-15.7-2.9-.6,0-1.1-.3-1.5-.7l-9.4-9.9-27.9,5.7-5,13.1c-.2.5-.6,1-1.1,1.3-4.7,2.4-9.2,5.4-13.3,8.7-.2.2-.4.3-.7.4-.3,0-.5.1-.8.1l-16.4-.2-15.7,23.6,6.6,15c.2.3.2.7.2,1s0,.7-.2,1c-1.4,5-2.3,10.1-2.7,15.3,0,.6-.3,1.1-.7,1.5l-9.9,9.5,5.7,27.9,12.9,5c.6.2,1,.7,1.3,1.2,2.4,4.7,5.3,9.1,8.7,13.2.4.4.5,1,.5,1.5v16.4l23.6,15.7,15-6.6c.2-.2.5-.3.8-.3ZM1109,698.4c-11.4,0-22.5-3.1-32.3-9-9.8-5.8-17.8-14.2-23.1-24.3-5.4-10-7.9-21.3-7.4-32.7.5-11.4,4.1-22.4,10.4-31.9,6-9.1,14.3-16.5,24-21.4,9.7-4.9,20.6-7.3,31.5-6.8,10.9.5,21.5,3.8,30.7,9.6,9.2,5.8,16.8,13.9,21.9,23.5,5.2,9.6,7.7,20.4,7.5,31.3-.3,10.9-3.4,21.5-9,30.9-5.6,9.4-13.6,17.1-23,22.4-9.5,5.4-20.2,8.2-31.1,8.1ZM1060.5,603.3c-6.4,9.6-9.7,20.9-9.7,32.4,0,11.5,3.5,22.8,9.9,32.3,6.4,9.6,15.5,17,26.2,21.4s22.4,5.5,33.7,3.2c11.3-2.3,21.7-7.9,29.8-16,8.1-8.2,13.6-18.6,15.8-29.9,2.2-11.3,1-23-3.4-33.6-4.4-10.6-11.9-19.7-21.5-26.1-6.4-4.3-13.5-7.2-21-8.7-7.5-1.5-15.2-1.5-22.8,0-7.5,1.5-14.6,4.5-21,8.8s-11.8,9.8-16,16.2Z"/>
  <path class="cls-2" d="M2012.8,835l-74.2-10,49.1-367.8-143.1-19.3-347.2,319.6-18.2,136.7,299.2,40.4-14.9,111.9,143.1,19.3,14.9-111.8,74.2,10,17.2-129ZM1637.4,784.3l183.2-167-25.1,188.3-158.1-21.3Z"/>
  <path class="cls-4" d="M1863,1062.3h-.6c-.6-.1-1.2-.5-1.5-1-.3-.5-.5-1.2-.4-1.8l110.6-604.7c.1-.6.5-1.1,1-1.5.5-.4,1.1-.5,1.8-.4.6.1,1.2.5,1.5,1,.3.5.5,1.1.4,1.8l-110.4,604.7c-.1.6-.4,1-.8,1.4-.4.4-1,.6-1.5.6Z"/>
  <path class="cls-4" d="M1960.8,465c0,1-.5,2-1.2,2.7-.8.7-1.8,1.1-2.8,1-1,0-2-.5-2.7-1.2-.7-.8-1.1-1.8-1-2.8,0-1,.5-2,1.2-2.7.8-.7,1.8-1.1,2.8-1,1,0,2,.5,2.7,1.2.7.8,1.1,1.8,1,2.8Z"/>
  <path class="cls-4" d="M1945.1,546.7c0,.8-.3,1.5-.7,2.1-.4.6-1.1,1.1-1.8,1.4-.7.3-1.5.3-2.2.1-.7-.2-1.4-.6-1.9-1.1-.5-.6-.9-1.3-1-2-.1-.8,0-1.5.3-2.2.3-.7.8-1.3,1.5-1.7.7-.4,1.4-.6,2.2-.6.5,0,1,.1,1.5.3.5.2.9.5,1.2.9.3.4.6.8.8,1.3.2.5.3,1,.2,1.5Z"/>
  <path class="cls-4" d="M1929.3,628.7c0,.5-.1,1-.3,1.5-.2.5-.5.9-.9,1.2-.4.3-.8.6-1.3.8-.5.2-1,.3-1.5.2-.5,0-1-.1-1.5-.3-.5-.2-.9-.5-1.2-.9-.3-.4-.6-.8-.8-1.3-.2-.5-.3-1-.2-1.5,0-.5.1-1,.3-1.5.2-.5.5-.9.9-1.2.4-.4.8-.6,1.3-.8.5-.2,1-.3,1.5-.2,1,0,2,.5,2.7,1.2.7.8,1.1,1.7,1,2.8Z"/>
  <path class="cls-4" d="M1898.3,713.7c-.1.9-.6,1.8-1.3,2.5-.7.6-1.6,1-2.6,1s-1.9-.4-2.6-1c-.7-.6-1.2-1.5-1.3-2.5,0-.5,0-1.1.2-1.6.2-.5.4-1,.8-1.4.4-.4.8-.7,1.3-1,.5-.2,1-.3,1.6-.3s1.1.1,1.6.3c.5.2.9.5,1.3,1,.4.4.6.9.8,1.4.2.5.2,1.1.2,1.6Z"/>
  <path class="cls-4" d="M1897.8,792.1c0,.5-.1,1-.3,1.5-.2.5-.5.9-.9,1.2-.4.3-.8.6-1.3.8s-1,.3-1.5.2c-.8,0-1.5-.3-2.1-.7-.6-.5-1.1-1.1-1.4-1.8-.3-.7-.3-1.5-.1-2.2.2-.7.6-1.4,1.1-1.9.6-.5,1.3-.9,2-1,.8-.1,1.5,0,2.2.3.7.3,1.3.8,1.7,1.5.4.7.6,1.4.6,2.2Z"/>
  <path class="cls-4" d="M1882.1,873.8c0,.8-.3,1.5-.7,2.1-.4.6-1.1,1.1-1.8,1.4-.7.3-1.5.3-2.2.2s-1.4-.6-2-1.1c-.5-.6-.9-1.3-1-2-.1-.8,0-1.5.3-2.2.3-.7.8-1.3,1.5-1.7.7-.4,1.4-.6,2.2-.6,1,0,2,.5,2.7,1.2.7.7,1.1,1.7,1.1,2.8Z"/>
  <path class="cls-4" d="M1866.3,955.6c0,1-.5,2-1.2,2.7-.8.7-1.8,1.1-2.8,1.1-.5,0-1-.1-1.5-.3-.5-.2-.9-.5-1.2-.9-.3-.4-.6-.8-.8-1.3-.2-.5-.3-1-.2-1.5,0-.5.1-1,.3-1.5.2-.5.5-.9.9-1.2s.8-.6,1.3-.8c.5-.2,1-.3,1.5-.2.5,0,1,.1,1.5.3.5.2.9.5,1.2.9.3.4.6.8.8,1.3.2.5.3,1,.2,1.5Z"/>
  <path class="cls-4" d="M1850.5,1037.4c0,.8-.3,1.5-.7,2.1-.5.6-1.1,1.1-1.8,1.4-.7.3-1.5.3-2.2.1-.8-.2-1.4-.6-1.9-1.1-.5-.6-.9-1.3-1-2-.1-.8,0-1.5.3-2.2.3-.7.8-1.3,1.5-1.7.7-.4,1.4-.6,2.2-.6.5,0,1,.1,1.5.3.5.2.9.5,1.2.9.3.4.6.8.8,1.3.2.5.2,1,.2,1.5Z"/>
  <path class="cls-4" d="M1894.4,715.9c-.5,0-1-.2-1.5-.5-.4-.3-.7-.8-.8-1.3,0-.3,0-.6,0-.9,0-.3.2-.6.3-.9.2-.3.4-.5.6-.7.2-.2.5-.3.8-.4l11.7-2.5c.3,0,.6,0,.9,0,.3,0,.6.2.9.3.3.2.5.4.7.7.2.3.3.6.4.9,0,.3,0,.6,0,.9,0,.3-.2.6-.3.9-.2.3-.4.5-.7.7-.3.2-.6.3-.8.4l-11.7,2.5h-.5Z"/>
  <path class="cls-4" d="M1933.6,672.3c-5.6,14.5-10.3,29.2-14.2,44.2-3.5,16.7-3.7,54-3.7,54"/>
  <path class="cls-4" d="M1915.7,773c-.6,0-1.2-.3-1.7-.7-.4-.4-.7-1-.7-1.7,0-1.5.3-37.8,3.8-54.5,3.8-15.1,8.6-30,14.2-44.6,0-.3.2-.6.5-.8.2-.2.5-.4.8-.6.3-.1.6-.2.9-.2.3,0,.7,0,1,.2.3.1.6.3.8.5.2.2.4.5.5.8.1.3.2.6.2.9,0,.3,0,.6-.2.9-5.6,14.4-10.3,29-14.2,43.9-3.4,16.3-3.7,53.1-3.7,53.5,0,.6-.2,1.2-.6,1.6-.4.4-.9.7-1.5.8Z"/>
  <path class="cls-4" d="M1051.5,1180.9c6.6-105.9-5.5-298.4,193.6-272.9,213.3,27.3,152.3,276.8,152.3,276.8l-345.8-3.9Z"/>
  <path class="cls-8" d="M1188.8,1117.3c48,0,86.9-38.9,86.9-86.9s-38.9-86.9-86.9-86.9-86.9,38.9-86.9,86.9,38.9,86.9,86.9,86.9Z"/>
  <path class="cls-4" d="M1200.3,943.7c-41.2-7-85.1,23.3-89.5,54l163.1,15c-5.8-35-41-63.5-73.6-69.1Z"/>
  <path class="cls-4" d="M1255.3,1028.3c-1.2,22.7-13.6,40.6-27.6,39.8-14.1-.8-24.6-19.7-23.6-42.5.9-22.8,13.6-40.6,27.6-39.8,14.1.8,24.8,19.9,23.6,42.5Z"/>
  <path class="cls-2" d="M1188.8,1122c-18.1,0-35.8-5.4-50.9-15.4-15.1-10.1-26.8-24.4-33.7-41.1-6.9-16.7-8.7-35.2-5.2-52.9,3.5-17.8,12.3-34.1,25.1-46.9,12.8-12.8,29.1-21.5,46.9-25.1,17.8-3.5,36.2-1.7,52.9,5.2,16.7,6.9,31.1,18.7,41.1,33.7,10.1,15.1,15.4,32.8,15.4,50.9,0,24.3-9.7,47.6-26.9,64.8s-40.5,26.8-64.7,26.9ZM1188.8,948.3c-16.2,0-32.1,4.8-45.6,13.8-13.5,9-24,21.9-30.3,36.9-6.2,15-7.8,31.5-4.7,47.5,3.2,15.9,11,30.6,22.5,42.1,11.5,11.5,26.1,19.3,42.1,22.5,15.9,3.2,32.5,1.5,47.5-4.7,15-6.2,27.8-16.8,36.9-30.3,9-13.5,13.8-29.4,13.8-45.6,0-21.8-8.7-42.7-24.1-58-15.4-15.4-36.3-24-58.1-24.1Z"/>
  <path class="cls-9" d="M1373.1,1178.3h-.6c-.3,0-.6-.2-.8-.4-.2-.2-.5-.4-.6-.7-.2-.3-.3-.6-.3-.9,0-.3,0-.6,0-.9,0-.6,15.2-64.7-.4-129.5-.1-.6,0-1.3.3-1.8.3-.5.9-.9,1.5-1.1.6-.2,1.3,0,1.8.3.6.3.9.9,1.1,1.5,15.9,66.2.6,131.1.4,131.7-.1.5-.5,1-.9,1.3-.4.3-1,.5-1.5.4Z"/>
  <path class="cls-9" d="M1359.9,1010.4c-.5,0-.9-.1-1.3-.4-.4-.2-.7-.6-.9-1-5.9-13-13.4-25.2-22.4-36.2-.4-.5-.6-1.1-.5-1.7,0-.6.4-1.2.8-1.6.2-.2.5-.4.8-.4.3,0,.6-.1.9,0,.3,0,.6.1.9.3.3.1.5.4.7.6,9.2,11.4,16.9,23.9,23,37.2.1.3.2.6.2.9,0,.3,0,.6-.1.9-.1.3-.3.6-.5.8s-.5.4-.8.5c-.3.1-.7.2-1,.2Z"/>
  <path class="cls-4" d="M608.5,1677.6h-1.7c-6.3-.2-12.2-2.8-16.5-7.4-4.3-4.6-6.6-10.6-6.5-16.9.2-6.3,2.8-12.2,7.4-16.5,4.6-4.3,10.6-6.6,16.9-6.5h.4c13.7,0,46.5-16.6,115.2-124.9,1.8-2.9,4.2-5.3,7.1-7.2,2.9-1.8,6.1-3.1,9.5-3.6,3.4-.5,6.8-.2,10.1.7,3.3,1,6.3,2.6,8.9,4.9,54,46.4,112.8,86.8,175.6,120.4,2.9,1.3,5.5,3.2,7.7,5.6,2.2,2.3,3.8,5.1,4.9,8.1s1.5,6.2,1.3,9.4c-.2,3.2-1.1,6.3-2.5,9.1-1.4,2.8-3.4,5.4-5.9,7.4-2.4,2.1-5.3,3.6-8.3,4.5-3.1.9-6.3,1.2-9.4.9-3.2-.3-6.2-1.3-9-2.9-58.3-31-113.4-67.6-164.5-109.4-57.6,86.7-100.3,124.2-140.4,124.2Z"/>
  <path class="cls-4" d="M754.7,1496h-2c-3.7-.5-7.1-2.5-9.3-5.5-2.2-3-3.2-6.8-2.7-10.5,3.4-23.6-.8-111.7-30.6-180.2-1.3-3-1.5-6.4-.6-9.6.9-3.2,2.9-5.9,5.6-7.8,64.8-44.1,202.7-49.4,208.5-49.6,1.9,0,3.7.2,5.5.9,1.7.7,3.3,1.6,4.7,2.9,1.4,1.3,2.5,2.8,3.2,4.5.8,1.7,1.2,3.5,1.3,5.4s-.2,3.7-.9,5.5c-.7,1.7-1.6,3.3-2.9,4.7s-2.8,2.5-4.5,3.2c-1.7.8-3.5,1.2-5.4,1.3-1.3,0-121.9,4.7-183.8,38.8,26.4,68.2,32.4,153.3,28,184.1-.5,3.3-2.2,6.4-4.8,8.6-2.6,2.2-5.9,3.4-9.3,3.4Z"/>
  <path class="cls-2" d="M778.5,1477.7c-9.5-22.3-52-19.8-76.9-.7-13.3,10.2-31.4,40.8-33.1,52-.6,2.7-.5,5.4.2,8,.7,2.6,2.1,5,3.9,7,1.9,2,4.2,3.5,6.7,4.3,2.6.9,5.3,1.1,8,.7,16.3-1.4,38.7-25.1,38.7-25.1-14.9,14.6,4.3,24.9,33.1,3.8,15.7-11.8,29.9-25.1,19.3-50Z"/>
  <path class="cls-4" d="M1591.6,1187.2c-.2,0-.5,0-.7,0-.3,0-.6-.2-.8-.4-.2-.2-.5-.4-.6-.7-.1-.3-.2-.6-.3-.9,0-.3,0-.6,0-.9,6.3-21.9,13.1-35.3,22.2-42.5-1.4-5.1-1.1-10.5.8-15.4,2.2-5.7,6.1-10.7,11.2-14.2-1.4-1.5-2.4-3.3-2.8-5.3-.5-2-.5-4,0-6,1.7-5.9,5.2-11.2,10.1-14.9-1.8-2-2.7-4.5-2.7-7.1,0-14.2,26-35.6,55.6-39.6.6,0,1.3,0,1.8.4.5.4.8.9.9,1.6,0,.6,0,1.3-.5,1.8-.4.5-1,.8-1.6.9-28.1,3.8-51.6,24.2-51.5,34.9,0,1.6.6,3.1,1.7,4.3,6.4-4.3,13.5-7.3,21-8.8,7.5-1.5,15.3-1.5,22.8,0,14.5,2.8,20.4,5.9,19.8,10.2-1.3,8.3-32.2,10-52.9,7.6-3.7-.3-7.3-1.4-10.6-3.1-4.4,3.2-7.8,7.7-9.4,12.9-.4,1.4-.4,2.8,0,4.2.4,1.4,1.2,2.6,2.3,3.5,8.8-4.7,21.1-6.4,37.4-2.8,21.4,4.7,22.2,7.3,22.7,8.9.2.6.2,1.1,0,1.7-.1.5-.4,1.1-.8,1.5-4.5,4.7-37.3,2.5-53.8-1.6-2-.5-3.9-1.2-5.7-2.1-4.9,3-8.6,7.5-10.7,12.8-1.4,3.4-1.7,7.2-1.1,10.9.8-.5,1.7-1,2.6-1.4,9.8-4.7,21.6-3.9,36.2,2.4,9.5,4.1,14.2,7.8,14.7,11.5,0,1-.2,1.9-.7,2.7-.5.8-1.2,1.5-2,2-7.2,4.7-32.5,4.1-45.6-2.9-3-1.6-5.5-4.1-7.3-7-7.7,7.1-13.9,19.7-19.6,39.5-.2.4-.5.8-.8,1.1-.4.3-.8.4-1.3.4ZM1617.2,1143.1c1.3,2.4,3.3,4.5,5.8,5.8,10.7,5.7,31.7,6.9,39.5,3.8,1.6-.7,1.8-1.2,1.8-1.2,0,0-.2-2.6-11.8-7.6-13.2-5.7-23.6-6.5-32.3-2.5-1,.5-2,1.1-3,1.7ZM1632.9,1112l1.2.3c15.4,3.5,31.2,4.7,47,3.5-5.6-2.1-11.3-3.7-17.2-4.7-10.2-2.8-20.9-2.5-31,.8ZM1638.9,1085.4c2.2.8,4.4,1.3,6.8,1.5,23.6,2.8,44.4-.5,47.3-3.4-.8-.7-4-2.7-15.7-5-13.2-2.6-26.9-.2-38.3,6.9Z"/>
  <path class="cls-4" d="M976.2,1669.7c3.1-1,2.1-4-1.4-4h-64c-121.9-12.9-207,4.4-153.3,8.5,53.6,4.1-3.8,3.2-43,18.1-39.2,14.8,291.4,18.6,321.4,0,27.6-17.1-102.9-8.7-59.7-22.5Z"/>
  <path class="cls-2" d="M1434.4,1688.6l-556.8-18.5-23.1-539.9,657.5,14.7-77.6,543.7Z"/>
  <path class="cls-4" d="M1051.5,1678.2c-.6,0-1.2-.2-1.6-.6-.4-.4-.7-1-.8-1.5l-44.6-542.3c0-.6.2-1.2.6-1.7.4-.5,1-.8,1.6-.8.6,0,1.2.2,1.7.6.5.4.8,1,.9,1.6l44.9,542.2c0,.3,0,.6-.1.9,0,.3-.2.6-.4.8s-.4.4-.7.6c-.3.1-.6.2-.9.2h-.4Z"/>
  <path class="cls-2" d="M1434.4,1688.6l149.6-22.8,47.1-502-119.2-18.9-77.6,543.7Z"/>
  <path class="cls-10" d="M1434.4,1688.6l149.6-22.8,47.1-502-119.2-18.9-77.6,543.7Z"/>
  <path class="cls-4" d="M925.2,1566.1l-13.7-320.8c-.3-7.9,1-15.8,3.8-23.2,2.8-7.4,7.2-14.2,12.7-19.8,5.6-5.7,12.2-10.1,19.6-13.1,7.3-3,15.2-4.4,23.2-4.3l416.2,9.4c8.2.2,16.3,2.1,23.7,5.6,7.4,3.5,14,8.6,19.3,14.8,5.3,6.2,9.2,13.6,11.5,21.4,2.3,7.9,2.8,16.1,1.7,24.3l-46.1,323c-2,14.2-9.2,27.1-20.1,36.3-10.9,9.2-24.9,14-39.1,13.6l-356.3-11.8c-14.6-.4-28.5-6.4-39-16.7-10.4-10.3-16.6-24.1-17.2-38.7Z"/>
  <g id="error">
    <path class="cls-8" d="M970.2,1283.3l64.4,2-.5,16.6-40.3-1.3-.4,12.4,37.4,1.2-.5,15.9-37.4-1.2-.5,15.4,41.5,1.3-.6,17.6-65.6-2.1,2.5-77.8Z"/>
    <path class="cls-8" d="M1046.5,1363.5l2.5-77.8,40.1,1.3c5.8,0,11.5.8,17,2.5,3.9,1.3,7.2,3.9,9.5,7.4,1.6,2.5,2.8,5.4,3.2,8.3.5,3,.4,6-.3,8.9s-2.1,5.7-3.9,8c-1.8,2.4-4.1,4.4-6.8,5.8-2.7,1.4-5.6,2.3-8.6,2.8,2.2.7,4.3,1.7,6.2,3,1.4,1.3,2.6,2.7,3.7,4.2,1.2,1.5,2.3,3.1,3.2,4.7l10.9,22.9-27.1-.9-12.1-24.2c-1-2.3-2.4-4.4-4.2-6.1-1.7-1.2-3.7-1.9-5.8-2h-2.1l-1,31.5-24.3-.6ZM1072.1,1318.1l10.1.3c2.2-.1,4.3-.4,6.4-.9,1.6-.2,3-1.1,4-2.3,1-1.3,1.6-2.8,1.7-4.4,0-1.1,0-2.2-.5-3.2-.4-1-1-1.9-1.8-2.7-2.6-1.7-5.8-2.5-8.9-2.3l-10.6-.3-.5,15.8Z"/>
    <path class="cls-8" d="M1131,1366l2.5-77.8,40,1.3c5.8,0,11.5.8,17,2.5,3.9,1.3,7.2,3.9,9.5,7.4,2.4,3.8,3.5,8.2,3.2,12.7,0,3.8-1,7.5-2.9,10.7-1.9,3.2-4.7,5.9-8,7.7-2.7,1.4-5.6,2.3-8.6,2.8,2.2.7,4.3,1.7,6.1,3,1.4,1.2,2.7,2.7,3.7,4.2,1.2,1.5,2.3,3.1,3.2,4.7l10.9,22.9-27.1-.8-12.1-24.2c-1-2.3-2.4-4.4-4.2-6.1-1.7-1.3-3.7-2-5.9-2h-2.1l-1,31.6-24.3-.6ZM1156.6,1320.6l10.2.3c2.2,0,4.3-.4,6.4-.8,1.6-.2,3-1.1,4-2.3,1.1-1.2,1.7-2.8,1.7-4.5,0-1.1,0-2.2-.4-3.2-.4-1-1-1.9-1.8-2.7-2.6-1.7-5.8-2.6-8.9-2.3l-10.5-.3-.5,15.8Z"/>
    <path class="cls-8" d="M1211.6,1329.9c-.4-5.4.5-10.9,2.5-15.9,2-5.1,5.1-9.6,9-13.3,3.9-3.7,8.7-6.5,13.9-8.2,5.2-1.7,10.6-2.2,16-1.5,5.4-.2,10.9.7,16,2.7,5.1,1.9,9.7,4.9,13.6,8.7,3.5,4,6.1,8.7,7.8,13.8,1.6,5.1,2.2,10.4,1.7,15.7,0,7.7-1.8,15.3-5.3,22.2-3.2,5.6-7.9,10.2-13.7,13.1-6.8,3.2-14.3,4.7-21.8,4.2-7.5,0-14.9-1.6-21.7-4.7-5.8-3.1-10.5-7.9-13.5-13.7-3.6-7.1-5.1-15.1-4.5-23ZM1235.6,1330.8c-.7,6,.7,12,3.8,17.1,1.5,1.7,3.3,3,5.3,4,2,.9,4.2,1.5,6.4,1.6,2.2,0,4.5-.3,6.5-1.1,2.1-.8,4-2,5.6-3.6,3.5-5.3,5.2-11.6,4.7-18,.6-5.7-.8-11.4-3.9-16.2-1.4-1.7-3.2-3-5.2-3.9-2-.9-4.2-1.4-6.3-1.4-2.2-.2-4.4.2-6.5,1-2.1.8-3.9,2.1-5.4,3.7-3.6,4.8-5.4,10.7-5.2,16.7Z"/>
    <path class="cls-8" d="M1304.2,1371.8l2.5-77.8,40,1.3c5.8,0,11.5.8,17,2.5,3.9,1.3,7.2,3.9,9.5,7.4,2.4,3.8,3.5,8.2,3.2,12.7,0,3.8-1,7.5-2.9,10.8-1.9,3.3-4.7,5.9-8,7.7-2.7,1.3-5.6,2.3-8.6,2.8,2.2.7,4.2,1.8,6.1,3.1,1.4,1.2,2.7,2.7,3.7,4.2,1.2,1.5,2.3,3.1,3.2,4.7l10.9,22.9-27.1-.8-12.1-24.2c-1-2.3-2.4-4.4-4.2-6.1-1.7-1.3-3.8-2-5.9-2h-2.1l-1,31.6-24.3-.6ZM1329.7,1326.2l10.2.3c2.2,0,4.3-.4,6.4-.9,1.6-.2,3-1.1,4-2.3,1.1-1.3,1.7-3,1.7-4.7,0-1.1,0-2.2-.4-3.2-.4-1-1-1.9-1.8-2.7-2.6-1.7-5.8-2.6-8.9-2.3l-10.5-.3-.5,16Z"/>
  </g>
  <path class="cls-8" d="M1342.4,1503.9c-.9,0-1.8-.2-2.6-.5-.8-.3-1.5-.9-2.1-1.5l-40.5-44.3-43.7,39.9c-1.2,1.1-2.8,1.7-4.5,1.6-1.6,0-3.2-.8-4.3-2l-40.5-44.3-43.7,39.9c-1.2,1.1-2.8,1.7-4.5,1.6-1.6,0-3.2-.8-4.3-2l-40.5-44.3-43.6,39.9c-.6.6-1.4,1-2.2,1.3-.8.3-1.7.4-2.5.3-1.6,0-3.2-.8-4.3-2l-40.5-44.2-43.6,39.8c-1.2,1.1-2.8,1.7-4.5,1.6-1.6,0-3.2-.8-4.3-2-.6-.6-1-1.3-1.3-2.1-.3-.8-.4-1.6-.4-2.4,0-.8.2-1.6.6-2.3.4-.7.8-1.4,1.5-1.9l48.2-44.1c1.2-1.1,2.8-1.7,4.5-1.6,1.6,0,3.2.8,4.3,2l40.5,44.3,43.6-39.9c1.2-1.1,2.8-1.7,4.5-1.6,1.7,0,3.2.8,4.3,2l40.5,44.3,43.7-39.9c.6-.6,1.3-1,2.1-1.3.8-.3,1.6-.4,2.4-.4.8,0,1.6.2,2.3.6.7.3,1.4.8,2,1.4l40.5,44.3,43.7-39.9c1.2-1.1,2.8-1.7,4.5-1.6,1.6,0,3.2.8,4.3,2l45.2,49.1c.8.9,1.3,2,1.5,3.2.2,1.2,0,2.4-.5,3.5-.5,1.1-1.3,2-2.3,2.7-1,.7-2.2,1-3.4,1v-.2Z"/>
  <path class="cls-2" d="M594.4,1700.1l-29.6-14.1-26.4-128.4,14.3-15.7,41.6,158.3Z"/>
  <path class="cls-2" d="M594.4,1700.1l39.3-23-33.7-105.8-47.3-29.5,41.6,158.3Z"/>
  <path class="cls-10" d="M594.4,1700.1l39.3-23-33.7-105.8-47.3-29.5,41.6,158.3Z"/>
  <path class="cls-4" d="M1238.4,1723.4h-3.3c-6.3-.2-12.2-2.8-16.5-7.4-4.3-4.6-6.6-10.6-6.5-16.9.2-6.3,2.8-12.2,7.4-16.5,4.5-4.3,10.6-6.6,16.9-6.5,36.4,1.2,113.4-21.2,157.5-63.9,2.7-2.6,5.9-4.6,9.4-5.7,74.6-22.4,102.4,22.8,103.5,24.8l-40.7,24.1c.1.3.3.6.5.8-.4-.6-11-14.2-44.7-5.9-55.2,50.4-140,73-183.7,73Z"/>
  <path class="cls-2" d="M1235.5,1754.8l-86.1-5.4-6.8-158.7,115.7,4.3-22.8,159.8Z"/>
  <path class="cls-2" d="M1235.5,1754.8l20.1-20,12.5-98.9-9.8-40.8-22.8,159.8Z"/>
  <path class="cls-10" d="M1235.5,1754.8l20.1-20,12.5-98.9-9.8-40.8-22.8,159.8Z"/>
  <path class="cls-4" d="M1734.3,1694.7c-3.1,0-6.1-1-8.6-2.9-49.2-37.3-115.6-103.7-141.1-167.6-.4-.9-.6-1.9-.8-2.9-12.4-73.9-24.3-229.5-24.8-236-.1-1.9,0-3.7.7-5.5.6-1.8,1.5-3.4,2.7-4.8,2.5-2.9,6-4.6,9.7-4.9,3.8-.3,7.5.9,10.3,3.4,2.9,2.5,4.6,6,4.9,9.7,0,1.6,12.1,158.6,24.2,231.9,25.4,62.2,94.5,126.1,131.3,154.1,2.4,1.8,4.1,4.3,5,7.1.9,2.8.8,5.9-.1,8.7-1,2.8-2.8,5.3-5.2,7-2.4,1.7-5.3,2.7-8.3,2.7h0Z"/>
  <path class="cls-4" d="M1799.8,1701.9c-11,0-23.4-5-37-14.8-3.1-2.2-5.1-5.5-5.7-9.2-.6-3.7.3-7.5,2.5-10.6,2.2-3,5.5-5.1,9.2-5.7,3.7-.6,7.5.3,10.6,2.5,11.7,8.5,18.1,9.4,20.3,9.4,3.8,0,7.4,1.5,10,4.2s4.2,6.3,4.2,10-1.5,7.4-4.2,10c-2.7,2.7-6.3,4.1-10,4.1h0Z"/>
  <path class="cls-2" d="M1766.9,1686.7c15.2-45,77.4-36.2,98.8-29.4,18.3,5.3,35.9,12.9,52.3,22.7,11.6,7.6,11.8,20.3-3.7,27.5-18.9,8.9-66.9,1-66.9,1,24.8,10.8,0,28.4-43.5,11.2-14.1-5.6-42.3-16.3-37-32.9Z"/>
  <path class="cls-4" d="M1615.9,1304.6c-5.6,38.3-37.3,66.5-63.2,62.7-25.8-3.8-26.8-37.8-21.2-76.3,5.6-38.5,15.8-66.2,41.6-62.4,25.8,3.8,48.3,37.8,42.7,76Z"/>
  <path class="cls-4" d="M992.1,1151.9c2.1,0,3.9-1.7,3.9-3.9s-1.7-3.9-3.9-3.9-3.9,1.7-3.9,3.9,1.7,3.9,3.9,3.9Z"/>
  <path class="cls-4" d="M1031.4,1175.9c0,.8-.2,1.5-.7,2.2-.4.6-1,1.1-1.7,1.4-.7.3-1.5.4-2.2.2-.8-.2-1.4-.5-2-1.1-.5-.5-.9-1.2-1.1-2s0-1.5.2-2.2c.3-.7.8-1.3,1.4-1.7.6-.4,1.4-.6,2.2-.6s2,.4,2.7,1.1c.7.7,1.1,1.7,1.1,2.7Z"/>
  <path class="cls-4" d="M1035.8,1633.9c0,.8-.2,1.5-.7,2.2-.4.6-1,1.1-1.7,1.4-.7.3-1.5.4-2.2.2s-1.4-.5-2-1.1c-.5-.5-.9-1.2-1.1-2s0-1.5.2-2.2c.3-.7.8-1.3,1.4-1.7.6-.4,1.4-.7,2.2-.7s2,.4,2.7,1.1c.7.7,1.1,1.7,1.1,2.7Z"/>
  <path class="cls-4" d="M1071.3,1661.9c0,.8-.2,1.5-.7,2.2-.4.6-1,1.1-1.7,1.4-.7.3-1.5.4-2.2.2-.8-.2-1.4-.5-2-1.1-.6-.5-.9-1.2-1.1-2-.1-.8,0-1.5.2-2.2.3-.7.8-1.3,1.4-1.7.6-.4,1.4-.7,2.2-.7s2,.4,2.7,1.1c.7.7,1.1,1.7,1.1,2.7Z"/>
  <path class="cls-4" d="M390,1708.3c-6.8-.3-13.5-2.2-19.4-5.4-6-3.2-11.2-7.8-15.2-13.3-.2-.2-.3-.5-.4-.9,0-.3,0-.6,0-.9,0-.3.2-.6.3-.9.2-.3.4-.5.7-.7.3-.2.6-.3.9-.4.3,0,.6,0,1,0,.3,0,.6.2.9.4.3.2.5.4.7.7,8.8,12.8,28.4,19.5,36.9,15.5.9-.4,1.6-.9,2.2-1.6-4.3-1.9-8.1-4.8-11-8.5-2.9-3.7-4.8-8.1-5.7-12.7-1.1-6-1.9-14.2,3-15.2,6.8-1.5,15.7,14.9,18.9,27.3.6,2.1.8,4.2.6,6.3,2.7.8,5.6,1,8.4.7,1.3,0,2.5-.5,3.6-1.1,1.1-.6,2.1-1.4,2.9-2.4-3.1-2.4-5.7-5.3-7.6-8.7-1.9-3.4-3-7.2-3.3-11.1-1.8-12.9-.4-15.2,1-16.3.5-.4,1-.6,1.6-.6.6,0,1.2,0,1.7.3,5.1,2.1,11.2,20.5,12.3,30.9.1,1.1.1,2.2,0,3.3,2,.8,4.2,1.2,6.4,1.2,4,.2,8-.9,11.4-3-.7-.4-1.3-.9-1.9-1.4-4.7-4.2-6.9-10.9-6.1-20.5.7-7.4,2.3-11.5,5.3-12.8,1-.4,2-.5,3-.3,1,.2,2,.7,2.7,1.4,3.2,3.5,5.6,7.7,7,12.2,1.4,4.5,1.8,9.3,1.2,14-.4,2-1.2,3.8-2.4,5.4,8.7,1.5,20.9-.9,31.4-3.5.3,0,.6,0,.9,0,.3,0,.6.2.9.3.3.2.5.4.7.6.2.3.3.6.4.9,0,.3,0,.6,0,1,0,.3-.2.6-.3.9-.2.3-.4.5-.6.7-.3.2-.6.3-.9.4-12.8,3.2-26.6,5.8-36.3,2.9-4.8,3.6-10.6,5.5-16.5,5.5-2.6,0-5.3-.5-7.8-1.5-1.1,1.7-2.6,3.1-4.3,4.2-1.7,1-3.7,1.7-5.7,1.8-3.6.4-7.2.2-10.6-.9-1.1,1.9-2.8,3.3-4.7,4.2-2.5,1-5.3,1.5-8,1.4ZM385.9,1669.2c-.7,3.2-.5,6.5.4,9.7.7,3.8,2.2,7.3,4.6,10.4,2.3,3,5.4,5.5,8.9,7.1,0-1.1-.3-2.2-.6-3.3-3.7-13.5-10.8-22.8-13.2-23.9ZM412.3,1665.1c0,3.3.3,6.5.8,9.7.5,5.8,3.1,11.2,7.2,15.2-1.2-8.7-3.9-17.2-8-25ZM442,1661s-1.8.9-2.5,8.8c-.7,7.9.7,13.3,4.4,16.5.9.7,1.8,1.3,2.8,1.8,1.2-1.3,2.1-3,2.6-4.7.8-7.4-1.2-14.9-5.6-20.9-1-1.2-1.6-1.4-1.7-1.4Z"/>
  <path class="cls-4" d="M1081.8,1744.1l12.8-22.2-12.8-22.2h-13.7l7.8,22.2-7.8,22.2h13.7Z"/>
  <path class="cls-4" d="M1069,1733.4c-1.6.1-3.2-.1-4.7-.7-1.5-.5-2.8-1.4-4-2.5-1.2-1.1-2.1-2.4-2.7-3.8-.6-1.5-1-3-1-4.6s.3-3.2,1-4.6c.6-1.5,1.5-2.8,2.7-3.8,1.2-1.1,2.5-1.9,4-2.5,1.5-.5,3.1-.8,4.7-.7l-21.7-4.3-5.8,17.6,9.7,14.8,17.8-5Z"/>
  <path class="cls-2" d="M1070.9,1699.6h-25.7l-12.8,22.2,12.8,22.2h25.7l12.8-22.2-12.8-22.2ZM1058.1,1733.4c-2.3,0-4.5-.7-6.4-1.9-1.9-1.3-3.4-3.1-4.3-5.2-.9-2.1-1.1-4.4-.7-6.7.4-2.2,1.5-4.3,3.2-5.9,1.6-1.6,3.7-2.7,5.9-3.2s4.6-.2,6.7.7c2.1.9,3.9,2.4,5.2,4.3,1.3,1.9,2,4.1,2,6.4s-1.2,6-3.4,8.2c-2.2,2.2-5.1,3.4-8.2,3.4Z"/>
  <path class="cls-2" d="M1975.3,1698.1l-9.5-16.5,9.5-16.5h10.2l-5.7,16.5,5.7,16.5h-10.2Z"/>
  <path class="cls-2" d="M1984.8,1690.2c1.2,0,2.4,0,3.5-.5,1.1-.4,2.1-1,3-1.8.9-.8,1.6-1.8,2-2.9.5-1.1.7-2.3.7-3.4s-.2-2.3-.7-3.4c-.5-1.1-1.2-2.1-2-2.9-.9-.8-1.9-1.4-3-1.8-1.1-.4-2.3-.6-3.5-.5l16.2-3.2,4.3,13-7.2,11-13.3-3.7Z"/>
  <path class="cls-4" d="M1983.4,1665.1h18.9l9.4,16.5-9.4,16.5h-18.9l-9.5-16.5,9.5-16.5ZM1992.8,1690.2c1.7,0,3.4-.5,4.8-1.4,1.4-.9,2.5-2.3,3.2-3.9.7-1.6.8-3.3.5-5-.3-1.7-1.1-3.2-2.3-4.4-1.2-1.2-2.7-2-4.4-2.4-1.7-.3-3.4-.2-5,.5-1.6.6-2.9,1.8-3.9,3.2-.9,1.4-1.5,3.1-1.5,4.8s.2,2.2.6,3.3c.4,1,1.1,2,1.9,2.8.8.8,1.8,1.4,2.8,1.9,1,.4,2.2.7,3.3.6h0Z"/>
  <path class="cls-4" d="M1621.3,1720.1h21.4c2.7,0,5.2-1.1,7.1-3,1.9-1.9,2.9-4.5,2.9-7.1s-1.1-5.2-2.9-7.1c-1.9-1.9-4.4-3-7.1-3h-21.4c-2.7,0-5.3,1.1-7.2,3-1.9,1.9-3,4.5-3,7.1s1.1,5.2,3,7.2c1.9,1.9,4.5,3,7.2,3Z"/>
  <path class="cls-2" d="M1586.9,1701c2-3.6,5-6.5,8.6-8.5,3.6-1.9,7.8-2.7,11.8-2.3,4.1.4,8,2,11.2,4.5,3.2,2.6,5.6,6,6.9,10,1.3,3.9,1.4,8.1.3,12.1-1.1,4-3.3,7.5-6.4,10.2-3.1,2.7-6.9,4.5-11,5-4.1.6-8.2,0-11.9-1.8-5.1-2.6-9-7.2-10.8-12.7s-1.3-11.4,1.3-16.6Z"/>
  <path class="cls-4" d="M1592.7,1730.2l5.9,2.8,20.3-43.2-5.8-2.8-20.4,43.2Z"/>
</svg>