<?xml version="1.0" encoding="UTF-8"?>
<svg id="Layer_1" data-name="Layer 1" xmlns="http://www.w3.org/2000/svg" version="1.1" viewBox="0 0 1895 1512">
  <defs>
    <style>
      .cls-1 {
        fill: #FFFFFF;
      }

      .cls-1, .cls-2, .cls-3, .cls-4, .cls-5, .cls-6, .cls-7, .cls-8, .cls-9, .cls-10, .cls-11, .cls-12, .cls-13, .cls-14, .cls-15, .cls-16, .cls-17, .cls-18, .cls-19, .cls-20, .cls-21, .cls-22, .cls-23 {
        stroke-width: 0px;
      }

      .cls-2 {
        fill: #f5f5f5;
      }

      .cls-3 {
        fill: #407bff;
      }

      .cls-4 {
        fill: #ebebeb;
      }

      .cls-5 {
        fill: #012E71;
      }

      .cls-6, .cls-7, .cls-9, .cls-10, .cls-12, .cls-13, .cls-14, .cls-16, .cls-18, .cls-19, .cls-21, .cls-22, .cls-23 {
        isolation: isolate;
      }

      .cls-6, .cls-7, .cls-9, .cls-10, .cls-12, .cls-14, .cls-18, .cls-20, .cls-21, .cls-23 {
        fill: #fff;
      }

      .cls-6, .cls-24, .cls-22 {
        opacity: .2;
      }

      .cls-7 {
        opacity: .9;
      }

      .cls-8 {
        fill: #e0e0e0;
      }

      .cls-9, .cls-16, .cls-25 {
        opacity: .5;
      }

      .cls-10 {
        opacity: .6;
      }

      .cls-11 {
        fill: #ffffff;
      }

      .cls-12 {
        opacity: .8;
      }

      .cls-13, .cls-15, .cls-16, .cls-19, .cls-22 {
        fill: #012E7F;
      }

      .cls-13, .cls-18 {
        opacity: .1;
      }

      .cls-14 {
        opacity: .7;
      }

      .cls-17 {
        fill: #BBD9FF;
      }

      .cls-19, .cls-21 {
        opacity: .3;
      }

      .cls-23 {
        opacity: .4;
      }

      @keyframes glow {
        0% { filter: drop-shadow(0 0 5px #407bff); }
        50% { filter: drop-shadow(0 0 20px #407bff); }
        100% { filter: drop-shadow(0 0 5px #407bff); }
      }

      @keyframes moveUpDown {
        0%, 100% { transform: translateY(0); }
        50% { transform: translateY(-20px); }
      }

      @keyframes moveLeftRight {
        0%, 100% { transform: translateX(0); }
        50% { transform: translateX(100px); }
      }

      #error404 {
        animation: glow 1.5s infinite;
      }

      #planet1, #planet2, #planet3, #planet4, #planet5 {
        animation: moveUpDown 2s infinite;
      }

      #space-shuttle {
        animation: moveLeftRight 4s infinite linear;
      }

    </style>
  </defs>
  <path class="cls-4" d="M1894.8,1240.7H0v1h1894.8v-1Z"/>
  <path class="cls-4" d="M1704.9,1301.7h-125.5v.9h125.5v-.9Z"/>
  <path class="cls-4" d="M1255.2,1312h-32.9v1h32.9v-1Z"/>
  <path class="cls-4" d="M1575.6,1266.5h-72.7v.9h72.7v-.9Z"/>
  <path class="cls-4" d="M362.5,1272.9h-163.7v.9h163.7v-.9Z"/>
  <path class="cls-4" d="M420.2,1272.9h-24v.9h24v-.9Z"/>
  <path class="cls-4" d="M853.2,1288.9h-355v1h355v-1Z"/>
  <path class="cls-4" d="M898.1,1071.7H166.4c-5.7,0-11.2-2.3-15.3-6.4-4.1-4-6.3-9.5-6.3-15.3V21.4c0-5.7,2.3-11.1,6.4-15.2,4-4,9.5-6.3,15.2-6.3h731.7c5.7,0,11.2,2.3,15.3,6.3,4.1,4.1,6.3,9.6,6.3,15.3v1028.4c0,5.7-2.3,11.2-6.3,15.3-4.1,4.1-9.6,6.3-15.3,6.3v.2ZM166.4.8c-5.5,0-10.7,2.2-14.6,6.1-3.9,3.9-6,9.1-6,14.6v1028.6c0,5.5,2.2,10.7,6,14.6s9.1,6.1,14.6,6.1h731.7c5.5,0,10.7-2.2,14.6-6.1,3.9-3.9,6.1-9.1,6.1-14.6V21.4c0-5.5-2.2-10.7-6.1-14.6-3.9-3.9-9.1-6.1-14.6-6.1H166.4Z"/>
  <path class="cls-4" d="M1717.8,1071.7h-731.8c-5.7,0-11.2-2.3-15.3-6.3-4.1-4.1-6.3-9.6-6.3-15.3V21.4c0-5.7,2.4-11.2,6.4-15.2s9.5-6.3,15.2-6.3h731.8c5.7,0,11.2,2.3,15.2,6.3,4,4,6.3,9.5,6.4,15.2v1028.6c0,5.7-2.3,11.2-6.3,15.3-4,4.1-9.5,6.3-15.2,6.4h0ZM986.1.8c-5.5,0-10.7,2.2-14.6,6.1-3.9,3.9-6.1,9.1-6.1,14.6v1028.6c0,5.5,2.2,10.7,6.1,14.6,3.9,3.9,9.1,6.1,14.6,6.1h731.8c5.5,0,10.7-2.2,14.6-6.1s6.1-9.1,6.1-14.6V21.4c0-5.5-2.2-10.7-6.1-14.6-3.9-3.9-9.1-6.1-14.6-6.1h-731.8,0Z"/>
  <path class="cls-4" d="M1502.7,208.6l20.2,3.3-20.2,3.3-3.4,20.2-3.3-20.2-20.2-3.3,20.2-3.3,3.3-20.2,3.4,20.2Z"/>
  <path class="cls-4" d="M1504.1,211.9l12,16.7-16.7-11.9-16.7,11.9,12-16.7-12-16.7,16.7,12,16.7-12-12,16.7Z"/>
  <path class="cls-8" d="M1504,211.9c0,1.2-.5,2.4-1.4,3.3-.9.9-2.1,1.4-3.3,1.4s-2.4-.5-3.3-1.4-1.4-2.1-1.4-3.3.5-2.4,1.4-3.3c.9-.9,2.1-1.4,3.3-1.4s2.4.5,3.3,1.4,1.4,2.1,1.4,3.3Z"/>
  <path class="cls-4" d="M1644.6,991.6l20.3,3.3-20.3,3.3-3.3,20.2-3.3-20.2-20.2-3.3,20.2-3.3,3.3-20.3,3.3,20.3Z"/>
  <path class="cls-4" d="M1646,995l11.9,16.7-16.7-12-16.7,12,12-16.7-12-16.7,16.7,11.9,16.7-11.9-11.9,16.7Z"/>
  <path class="cls-8" d="M1645.9,995c0,.9-.3,1.8-.8,2.6s-1.2,1.4-2.1,1.7c-.9.4-1.8.4-2.7.3-.9-.2-1.8-.6-2.4-1.3-.7-.7-1.1-1.5-1.3-2.4-.2-.9,0-1.9.3-2.7.4-.9,1-1.6,1.7-2.1.8-.5,1.7-.8,2.6-.8s2.4.5,3.3,1.4,1.4,2.1,1.4,3.3Z"/>
  <path class="cls-4" d="M522.6,1283.4l20.2,3.3-20.2,3.3-3.3,20.2-3.3-20.2-20.3-3.3,20.3-3.3,3.3-20.3,3.3,20.3Z"/>
  <path class="cls-4" d="M524,1286.7l12,16.7-16.7-12-16.7,12,11.9-16.7-11.9-16.7,16.7,11.9,16.7-11.9-12,16.7Z"/>
  <path class="cls-8" d="M523.9,1286.7c0,.9-.3,1.8-.8,2.6-.5.8-1.3,1.4-2.1,1.7-.9.3-1.8.4-2.7.3-.9-.2-1.7-.6-2.4-1.3-.7-.7-1.1-1.5-1.3-2.4s0-1.9.3-2.7c.4-.9,1-1.6,1.7-2.1.8-.5,1.7-.8,2.6-.8s2.4.5,3.3,1.4c.9.9,1.4,2.1,1.4,3.3Z"/>
  <path class="cls-4" d="M1247.3,124.9l20.3,3.3-20.3,3.3-3.3,20.3-3.3-20.3-20.2-3.3,20.2-3.3,3.3-20.2s3.3,20.2,3.3,20.2Z"/>
  <path class="cls-4" d="M1248.7,128.2l11.9,16.7-16.7-11.9-16.7,11.9,12-16.7-12-16.7,16.7,12,16.7-12-11.9,16.7Z"/>
  <path class="cls-8" d="M1248.7,128.2c0,1.2-.5,2.4-1.4,3.3-.9.9-2.1,1.4-3.3,1.4s-2.4-.5-3.3-1.4-1.4-2.1-1.4-3.3.5-2.4,1.4-3.3,2.1-1.4,3.3-1.4,2.4.5,3.3,1.4,1.4,2.1,1.4,3.3Z"/>
  <path class="cls-4" d="M1406.3,474.7l20.2,3.3-20.2,3.3-3.3,20.2-3.3-20.2-20.2-3.3,20.2-3.3,3.3-20.2,3.3,20.2Z"/>
  <path class="cls-4" d="M1407.7,478.1l12,16.7-16.7-11.9-16.7,11.9,12-16.7-12-16.7,16.7,12,16.7-12-12,16.7Z"/>
  <path class="cls-8" d="M1407.7,478.1c0,.9-.3,1.8-.8,2.6-.5.8-1.2,1.4-2.1,1.7-.9.4-1.8.4-2.7.3-.9-.2-1.8-.6-2.4-1.3-.7-.7-1.1-1.5-1.3-2.4-.2-.9,0-1.9.3-2.7.3-.9.9-1.6,1.7-2.1.8-.5,1.7-.8,2.6-.8s2.4.5,3.3,1.4,1.4,2.1,1.4,3.3Z"/>
  <path class="cls-4" d="M1403.9,1244.7l20.2,3.3-20.2,3.3-3.3,20.2-3.3-20.2-20.2-3.3,20.2-3.3,3.3-20.3,3.3,20.3Z"/>
  <path class="cls-4" d="M1405.3,1248.1l12,16.7-16.7-12-16.7,12,11.9-16.7-11.9-16.7,16.7,11.9,16.7-11.9-12,16.7Z"/>
  <path class="cls-8" d="M1405.3,1248.1c0,1.2-.5,2.4-1.4,3.3s-2.1,1.4-3.3,1.4-2.4-.5-3.3-1.4-1.4-2.1-1.4-3.3.5-2.4,1.4-3.3,2.1-1.4,3.3-1.4,2.4.5,3.3,1.4,1.4,2.1,1.4,3.3Z"/>
  <path class="cls-4" d="M227,811.3l17.2,2.8-17.2,2.8-2.8,17.2-2.8-17.2-17.2-2.8,17.2-2.8,2.8-17.2,2.8,17.2Z"/>
  <path class="cls-4" d="M228.2,814.1l10.1,14.1-14.1-10.2-14.1,10.2,10.2-14.1-10.2-14.1,14.1,10.1,14.1-10.1-10.1,14.1Z"/>
  <path class="cls-8" d="M228.2,814.1c0,.8-.2,1.6-.6,2.3-.4.7-1,1.2-1.7,1.5s-1.5.4-2.3.3c-.8,0-1.5-.5-2.1-1s-1-1.3-1.1-2c-.2-.8-.1-1.6.2-2.3s.8-1.4,1.5-1.8c.7-.4,1.4-.7,2.2-.7s1,0,1.5.2.9.5,1.3.8c.4.4.7.8.9,1.3s.3,1,.3,1.5h0Z"/>
  <path class="cls-4" d="M1474.4,824.1l17.2,2.8-17.2,2.8-2.8,17.2-2.8-17.2-17.2-2.8,17.2-2.8,2.8-17.1,2.8,17.1Z"/>
  <path class="cls-4" d="M1475.5,826.9l10.1,14.1-14.1-10.2-14.1,10.2,10.1-14.1-10.1-14.1,14.1,10.2,14.1-10.2-10.1,14.1Z"/>
  <path class="cls-8" d="M1471.6,830.9c2.2,0,4-1.8,4-4s-1.8-4-4-4-4,1.8-4,4,1.8,4,4,4Z"/>
  <path class="cls-4" d="M1657.5,479l17.2,2.8-17.2,2.8-2.8,17.2-2.8-17.2-17.2-2.8,17.2-2.8,2.8-17.2,2.8,17.2Z"/>
  <path class="cls-4" d="M1658.7,481.8l10.1,14.1-14.1-10.1-14.1,10.1,10.2-14.1-10.2-14.1,14.1,10.2,14.1-10.2-10.1,14.1Z"/>
  <path class="cls-8" d="M1654.6,485.7c2.2,0,4-1.8,4-4s-1.8-4-4-4-4,1.8-4,4,1.8,4,4,4Z"/>
  <path class="cls-4" d="M464.8,136l17.2,2.8-17.2,2.8-2.8,17.1-2.8-17.1-17.2-2.8,17.2-2.8,2.8-17.2,2.8,17.2Z"/>
  <path class="cls-4" d="M466,138.8l10.1,14.1-14.1-10.2-14.1,10.2,10.2-14.1-10.2-14.1,14.1,10.1,14.1-10.1-10.1,14.1Z"/>
  <path class="cls-8" d="M461.9,142.8c2.2,0,4-1.8,4-4s-1.8-4-4-4-4,1.8-4,4,1.8,4,4,4Z"/>
  <path class="cls-4" d="M574.5,920.7l17.1,2.8-17.1,2.8-2.8,17.2-2.8-17.2-17.2-2.8,17.2-2.8,2.8-17.1,2.8,17.1Z"/>
  <path class="cls-4" d="M575.7,923.6l10.1,14.1-14.1-10.2-14.1,10.2,10.2-14.1-10.2-14.1,14.1,10.1,14.1-10.1-10.1,14.1Z"/>
  <path class="cls-8" d="M571.7,927.5c2.2,0,4-1.8,4-4s-1.8-4-4-4-4,1.8-4,4,1.8,4,4,4Z"/>
  <path class="cls-4" d="M937.8,1229l17.2,2.8-17.2,2.8-2.8,17.1-2.8-17.1-17.1-2.8,17.1-2.8,2.8-17.2,2.8,17.2Z"/>
  <path class="cls-4" d="M939,1231.8l10.1,14.1-14.1-10.1-14.1,10.1,10.2-14.1-10.2-14.1,14.1,10.2,14.1-10.2-10.1,14.1Z"/>
  <path class="cls-8" d="M938.9,1231.8c0,.8-.2,1.6-.7,2.2-.4.7-1.1,1.2-1.8,1.5s-1.5.4-2.3.2c-.8-.2-1.5-.5-2-1.1-.6-.6-.9-1.3-1.1-2-.2-.8,0-1.6.2-2.3.3-.7.8-1.3,1.5-1.8.7-.4,1.4-.7,2.2-.7s1.1,0,1.6.2.9.5,1.3.9c.4.4.7.8.9,1.3s.3,1,.2,1.6h0Z"/>
  <path class="cls-4" d="M1115.8,433.2l17.2,2.8-17.2,2.8-2.8,17.2-2.8-17.2-17.2-2.8,17.2-2.8,2.8-17.2,2.8,17.2Z"/>
  <path class="cls-4" d="M1116.9,436l10.1,14.1-14.1-10.1-14.1,10.1,10.2-14.1-10.2-14.1,14.1,10.2,14.1-10.2-10.1,14.1Z"/>
  <path class="cls-8" d="M1116.9,436c0,.8-.2,1.6-.7,2.2-.4.7-1.1,1.2-1.8,1.5-.7.3-1.5.4-2.3.2-.8-.2-1.5-.5-2-1.1s-.9-1.3-1.1-2c-.2-.8,0-1.6.2-2.3.3-.7.8-1.3,1.5-1.8.7-.4,1.4-.7,2.2-.7s1,0,1.5.2.9.5,1.3.9.7.8.9,1.3c.2.5.3,1,.2,1.6h.1Z"/>
  <path class="cls-4" d="M332,348.2l20.2,3.3-20.2,3.3-3.3,20.3-3.3-20.3-20.2-3.3,20.2-3.3,3.3-20.3,3.3,20.3Z"/>
  <path class="cls-4" d="M333.3,351.5l12,16.7-16.7-12-16.7,12,11.9-16.7-11.9-16.7,16.7,12,16.7-12-12,16.7Z"/>
  <path class="cls-8" d="M333.5,351.5c0,.9-.3,1.8-.8,2.6-.5.8-1.2,1.4-2.1,1.7-.9.4-1.8.5-2.7.3s-1.8-.6-2.4-1.3c-.7-.7-1.1-1.5-1.3-2.4-.2-.9,0-1.9.3-2.7.4-.9,1-1.6,1.7-2.1.8-.5,1.7-.8,2.6-.8s2.4.5,3.3,1.4,1.4,2.1,1.4,3.3Z"/>
  <path class="cls-4" d="M811.6,91.6l20.2,3.3-20.2,3.3-3.3,20.3-3.3-20.3-20.2-3.3,20.2-3.3,3.3-20.2s3.3,20.2,3.3,20.2Z"/>
  <path class="cls-4" d="M813,94.9l12,16.7-16.7-11.9-16.7,11.9,12-16.7-12-16.7,16.7,12,16.7-12s-12,16.7-12,16.7Z"/>
  <path class="cls-8" d="M813,94.9c0,1.2-.5,2.4-1.4,3.3s-2.1,1.4-3.3,1.4-2.4-.5-3.3-1.4c-.9-.9-1.4-2.1-1.4-3.3s.5-2.4,1.4-3.3,2.1-1.4,3.3-1.4,2.4.5,3.3,1.4c.9.9,1.4,2.1,1.4,3.3Z"/>
  <path class="cls-4" d="M682.3,514.5l20.2,3.3-20.2,3.3-3.3,20.2-3.4-20.2-20.2-3.3,20.2-3.3,3.4-20.2,3.3,20.2Z"/>
  <path class="cls-4" d="M683.7,517.9l11.9,16.7-16.6-11.9-16.7,11.9,11.9-16.7-11.9-16.7,16.7,12,16.6-12-11.9,16.7Z"/>
  <path class="cls-8" d="M683.7,517.9c0,.9-.3,1.8-.8,2.6s-1.3,1.4-2.1,1.7c-.9.4-1.8.4-2.7.3-.9-.2-1.8-.6-2.4-1.3-.7-.7-1.1-1.5-1.3-2.4s0-1.9.3-2.7c.4-.9,1-1.6,1.7-2.1.8-.5,1.7-.8,2.6-.8s1.2,0,1.8.4c.6.2,1.1.6,1.5,1s.8,1,1,1.5c.2.6.3,1.2.3,1.8h.1Z"/>
  <path class="cls-4" d="M370.2,1154.7l20.2,3.3-20.2,3.3-3.3,20.2-3.3-20.2-20.2-3.3,20.2-3.3,3.3-20.2,3.3,20.2Z"/>
  <path class="cls-4" d="M371.5,1158l12,16.7-16.7-11.9-16.7,11.9,11.9-16.7-11.9-16.7,16.7,12,16.7-12-12,16.7Z"/>
  <path class="cls-8" d="M371.4,1158c0,.9-.3,1.8-.8,2.6-.5.8-1.2,1.4-2.1,1.7-.9.4-1.8.5-2.7.3-.9-.2-1.7-.6-2.4-1.3-.7-.6-1.1-1.5-1.3-2.4-.2-.9,0-1.9.3-2.7.4-.9,1-1.6,1.7-2.1.8-.5,1.7-.8,2.6-.8s2.4.5,3.3,1.4,1.4,2.1,1.4,3.3Z"/>
  <path class="cls-4" d="M1188.2,903.5l20.2,3.3-20.2,3.3-3.3,20.2-3.3-20.2-20.3-3.3,20.3-3.3,3.3-20.2,3.3,20.2Z"/>
  <path class="cls-4" d="M1189.5,906.9l12,16.7-16.7-12-16.7,12,11.9-16.7-11.9-16.7,16.7,11.9,16.7-11.9-12,16.7Z"/>
  <path class="cls-8" d="M1189.5,906.9c0,1.2-.5,2.4-1.4,3.3-.9.9-2.1,1.4-3.3,1.4s-2.4-.5-3.3-1.4-1.4-2.1-1.4-3.3.5-2.4,1.4-3.3c.9-.9,2.1-1.4,3.3-1.4s2.4.5,3.3,1.4,1.4,2.1,1.4,3.3Z"/>
  <path class="cls-2" d="M699.6,222.3c5.7-35.2-18.2-68.3-53.3-74-35.2-5.7-68.3,18.2-74,53.3-5.7,35.2,18.2,68.3,53.3,74,35.2,5.7,68.3-18.2,74-53.3Z"/>
  <path class="cls-2" d="M1656.5,691.5c8.2-34.7-13.3-69.4-48-77.6-34.7-8.2-69.4,13.3-77.6,48s13.3,69.4,48,77.6c34.7,8.2,69.4-13.3,77.6-48Z"/>
  <path class="cls-2" d="M1072.6,1385.1c35.6,0,64.5-28.9,64.5-64.5s-28.9-64.5-64.5-64.5-64.5,28.9-64.5,64.5,28.9,64.5,64.5,64.5Z"/>
  <path class="cls-2" d="M1387.6,263c4.7-19.9-7.6-39.8-27.5-44.4-19.9-4.7-39.8,7.6-44.4,27.5-4.7,19.9,7.6,39.8,27.5,44.4,19.9,4.7,39.8-7.6,44.4-27.5Z"/>
  <path class="cls-2" d="M927.7,1022.8c20.4,0,36.9-16.5,36.9-37s-16.5-36.9-36.9-36.9-36.9,16.5-36.9,36.9,16.5,37,36.9,37Z"/>
  <path class="cls-2" d="M408.5,886c14.4-14.4,14.4-37.8,0-52.3-14.4-14.4-37.8-14.4-52.3,0-14.4,14.4-14.4,37.8,0,52.3,14.4,14.4,37.8,14.4,52.3,0Z"/>
  <path class="cls-5" d="M892.1,92.1c318.3-9.4,732,311.4,731.4,779.2-.3,252.8-386.5,638.5-775.2,587.9-388.7-50.6-571.4-378.1-596.8-643.1C226,551,409.8,106.3,892.1,92.1Z"/>
  <path class="cls-18" d="M1043,213.5c-214.7-33.9-427.5,84.7-421.9,111.3,5.7,26.6,56.2,6.2,86.4,5.9,30.2-.3-129.6,107.4-145.7,169-16,61.6,151.8-121.9,303.2-151.6,151.3-29.6,85.6-44.1,75.1-68.2-10.6-24.1,150.1-51.6,275.1,11.6,125.1,63.1,199.4,154.2,233.8,208.4,0-.2-82.8-235.4-406-286.4h0Z"/>
  <path class="cls-18" d="M986.3,483c10.1-50.7,139.5-59.6,235.9,6.6,96.5,66.2,111,138.2,89.6,135.9-21.3-2.3,88.4,57.2,127.5,200.4,39,143.1-2.2,309.3-127.5,402.1,0,0,82.3-84.8,67.4-239.9-14.9-155-191.1-186.1-226.9-228.5s-7.9-106.1,57.1-116.3,9.8-89.8-60.6-91.9-125.1,14.7-134.7,1.3c-9.7-13.4-186.9,17.2-222.2,152.8-35.2,135.6-86.1,96.3-54.7,0,31.5-96.3,236.5-191.8,274.9-199,38.4-7.2-28.2-11.7-25.9-23.5h.1Z"/>
  <path class="cls-18" d="M560.9,691.3c70.8-33.4-4.5,141.2,17.8,306.3s223.6,299.4,368.8,283.4,235.1-212.2,123.2-286.9c0,0,113.7,5.6,138.9,123.3,25.2,117.7-34.1,223.3-120.4,229.4-86.3,6.1-131.4,61.7-163.9,60.9-32.5-.8,11.8-17.9-6.4-41.3s-147.5-2.4-303.7-75.8-189.7-148.7-219-253.9c-29.2-105.2,33.8,16.6,66.2-3.4,32.4-20,2.5-72.5,6.4-123.9s26.5-100.6,57.2-66.3c30.7,34.3.6-135.7,34.8-151.7h.1Z"/>
  <path class="cls-5" d="M471.1,1085.8l3.4-4.7-4.7,3.4-.9-5.7-.9,5.7-4.7-3.4,3.4,4.7-5.7,1,5.7.9-3.4,4.7,4.7-3.4.9,5.7.9-5.7,4.7,3.4-3.4-4.7,5.7-.9-5.7-1Z"/>
  <path class="cls-5" d="M1484.1,977.1l3.4-4.7-4.7,3.4-.9-5.7-1,5.7-4.7-3.4,3.4,4.7-5.7.9,5.7.9-3.4,4.7,4.7-3.4,1,5.7.9-5.7,4.7,3.4-3.4-4.7,5.7-.9-5.7-.9Z"/>
  <path class="cls-5" d="M982.9,1164.1l3.4-4.7-4.7,3.4-.9-5.7-.9,5.7-4.7-3.4,3.4,4.7-5.7,1,5.7.9-3.4,4.7,4.7-3.4.9,5.8.9-5.8,4.7,3.4-3.4-4.7,5.7-.9-5.7-1Z"/>
  <path class="cls-5" d="M507.4,946.7l5.8-8.1-8.1,5.8-1.6-9.9-1.6,9.9-8.1-5.8,5.8,8.1-9.9,1.6,9.9,1.6-5.8,8.1,8.1-5.8,1.6,9.9,1.6-9.9,8.1,5.8-5.8-8.1,9.9-1.6-9.9-1.6h0Z"/>
  <path class="cls-5" d="M377.1,690.5l5.8-8.1-8.1,5.8-1.6-9.9-1.6,9.9-8.1-5.8,5.8,8.1-9.9,1.6,9.9,1.6-5.8,8.1,8.1-5.8,1.6,9.9,1.6-9.9,8.1,5.8-5.8-8.1,9.9-1.6-9.9-1.6Z"/>
  <path class="cls-5" d="M1044.7,219.3l5.8-8.1-8.1,5.8-1.6-9.9-1.6,9.9-8.1-5.8,5.8,8.1-9.9,1.6,9.9,1.6-5.8,8.1,8.1-5.8,1.6,9.9,1.6-9.9,8.1,5.8-5.8-8.1,9.8-1.6-9.8-1.6Z"/>
  <path class="cls-5" d="M1164.3,689.6l5.8-8.1-8.1,5.8-1.6-9.9-1.6,9.9-8.2-5.8,5.8,8.1-9.8,1.6,9.8,1.6-5.8,8.1,8.2-5.8,1.6,9.9,1.6-9.9,8.1,5.8-5.8-8.1,9.9-1.6-9.9-1.6Z"/>
  <path class="cls-5" d="M866,235.4l5.8-8.1-8.1,5.8-1.6-9.9-1.6,9.9-8.1-5.8,5.8,8.1-9.9,1.6,9.9,1.6-5.8,8.1,8.1-5.8,1.6,9.9,1.6-9.9,8.1,5.8-5.8-8.1,9.9-1.6-9.9-1.6Z"/>
  <path class="cls-5" d="M881.7,997.8l10-13.9-13.9,10-2.8-16.9-2.8,16.9-13.9-10,10,13.9-16.9,2.8,16.9,2.8-10,13.9,13.9-10,2.8,16.9,2.8-16.9,13.9,10-10-13.9,16.9-2.8-16.9-2.8h0Z"/>
  <path class="cls-5" d="M1372.2,338l-16.9-2.8,10-13.9-13.9,10-2.8-16.9-2.8,16.9-13.9-10,10,13.9-16.9,2.8,16.9,2.8-10,13.9,13.9-10,2.8,16.9,2.8-16.9,13.9,10-10-13.9,16.9-2.8Z"/>
  <path class="cls-5" d="M842,449.1l10-13.9-13.9,10-2.8-16.9-2.8,16.9-13.9-10,10,13.9-16.9,2.8,16.9,2.8-10,13.9,13.9-10,2.8,16.9,2.8-16.9,13.9,10-10-13.9,16.9-2.8-16.9-2.8Z"/>
  <path class="cls-5" d="M1335.3,1118.1l10-13.9-13.9,10-2.8-16.9-2.8,16.9-13.9-10,10,13.9-16.9,2.8,16.9,2.8-10,13.9,13.9-10,2.8,16.9,2.8-16.9,13.9,10-10-13.9,16.9-2.8-16.9-2.8Z"/>
  <path class="cls-5" d="M558,385.2l-16.9-2.8,10-13.9-13.9,10-2.8-16.9-2.8,16.9-13.9-10,10,13.9-16.9,2.8,16.9,2.8-10,13.9,13.9-10,2.8,16.9,2.8-16.9,13.9,10-10-13.9,16.9-2.8Z"/>
  <path class="cls-6" d="M469.9,1085.6l6.9,1.1-6.9,1.1-1.1,6.9-1.1-6.9-6.9-1.1,6.9-1.1,1.1-6.9,1.1,6.9Z"/>
  <path class="cls-6" d="M470.4,1086.8l4.1,5.6-5.6-4.1-5.6,4.1,4.1-5.6-4.1-5.7,5.6,4.1,5.6-4.1-4.1,5.7Z"/>
  <path class="cls-20" d="M470.4,1086.8c0,.3,0,.6-.3.9s-.4.5-.7.6c-.3,0-.6.2-.9,0-.3,0-.6-.2-.8-.4-.2-.2-.4-.5-.4-.8v-.9c.1-.3.3-.5.6-.7.3-.2.6-.3.9-.3s.8.2,1.1.5c.3.3.5.7.5,1.1h0Z"/>
  <path class="cls-6" d="M1482.9,976.9l6.9,1.1-6.9,1.1-1.1,6.9-1.1-6.9-6.9-1.1,6.9-1.1,1.1-6.9,1.1,6.9Z"/>
  <path class="cls-6" d="M1483.4,978l4.1,5.6-5.7-4.1-5.7,4.1,4.1-5.6-4.1-5.7,5.7,4.1,5.7-4.1-4.1,5.7Z"/>
  <path class="cls-20" d="M1483.4,978c0,.4-.2.8-.5,1.1s-.7.5-1.1.5-.8-.2-1.1-.5c-.3-.3-.5-.7-.5-1.1s.2-.8.5-1.1.7-.5,1.1-.5.8.2,1.1.5c.3.3.5.7.5,1.1Z"/>
  <path class="cls-6" d="M981.8,1163.9l6.9,1.1-6.9,1.1-1.1,6.9-1.1-6.9-6.9-1.1,6.9-1.1,1.1-6.9,1.1,6.9Z"/>
  <path class="cls-6" d="M982.3,1165.1l4.1,5.7-5.6-4.1-5.7,4.1,4.1-5.7-4.1-5.7,5.7,4.1,5.6-4.1-4.1,5.7Z"/>
  <path class="cls-20" d="M982.3,1165.1c0,.4-.2.8-.5,1.1-.3.3-.7.5-1.1.5s-.8-.2-1.1-.5-.5-.7-.5-1.1,0-.4,0-.6c0-.2.2-.4.3-.5s.3-.3.5-.3.4,0,.6,0,.4,0,.6,0c.2,0,.4.2.5.3,0,0,.3.3.3.5s0,.4,0,.6h.2Z"/>
  <path class="cls-6" d="M505.4,946.4l11.9,1.9-11.9,2-1.9,11.8-1.9-11.8-11.9-2,11.9-1.9,1.9-11.8,1.9,11.8Z"/>
  <path class="cls-6" d="M506.2,948.3l7,9.7-9.7-7-9.7,7,7-9.7-7-9.7,9.7,7,9.7-7-7,9.7Z"/>
  <path class="cls-20" d="M503.5,951.1c1.5,0,2.7-1.2,2.7-2.7s-1.2-2.7-2.7-2.7-2.7,1.2-2.7,2.7,1.2,2.7,2.7,2.7Z"/>
  <path class="cls-6" d="M375.1,690.2l11.8,2-11.8,1.9-2,11.8-1.9-11.8-11.8-1.9,11.8-2,1.9-11.8,2,11.8Z"/>
  <path class="cls-6" d="M375.9,692.2l7,9.7-9.7-7-9.7,7,7-9.7-7-9.8,9.7,7,9.7-7-7,9.8Z"/>
  <path class="cls-20" d="M375.9,692.2c0,.7-.3,1.4-.8,1.9s-1.2.8-1.9.8-1.4-.3-1.9-.8-.8-1.2-.8-1.9.3-1.4.8-1.9,1.2-.8,1.9-.8,1.4.3,2,.8c.5.5.8,1.2.8,2h-.1Z"/>
  <path class="cls-6" d="M1042.7,219l11.9,2-11.9,1.9-1.9,11.8-1.9-11.8-11.9-1.9,11.9-2,1.9-11.8,1.9,11.8Z"/>
  <path class="cls-6" d="M1043.5,220.9l7,9.7-9.7-7-9.7,7,7-9.7-7-9.8,9.7,7,9.7-7-7,9.8Z"/>
  <path class="cls-20" d="M1040.7,223.7c1.5,0,2.7-1.2,2.7-2.7s-1.2-2.7-2.7-2.7-2.7,1.2-2.7,2.7,1.2,2.7,2.7,2.7Z"/>
  <path class="cls-6" d="M1162.4,689.2l11.9,2-11.9,1.9-1.9,11.8-2-11.8-11.8-1.9,11.8-2,2-11.8,1.9,11.8Z"/>
  <path class="cls-6" d="M1163.2,691.2l7,9.7-9.7-7-9.8,7,7-9.7-7-9.8,9.8,7,9.7-7-7,9.8Z"/>
  <path class="cls-20" d="M1160.4,693.9c1.5,0,2.7-1.2,2.7-2.7s-1.2-2.7-2.7-2.7-2.7,1.2-2.7,2.7,1.2,2.7,2.7,2.7Z"/>
  <path class="cls-6" d="M864.1,235l11.9,2-11.9,1.9-1.9,11.9-1.9-11.9-11.9-1.9,11.9-2,1.9-11.8,1.9,11.8Z"/>
  <path class="cls-6" d="M864.9,237l7,9.7-9.7-7-9.7,7,7-9.7-7-9.7,9.7,7,9.7-7-7,9.7Z"/>
  <path class="cls-20" d="M862.1,239.7c1.5,0,2.7-1.2,2.7-2.7s-1.2-2.7-2.7-2.7-2.7,1.2-2.7,2.7,1.2,2.7,2.7,2.7Z"/>
  <path class="cls-6" d="M878.3,997.2l20.2,3.3-20.2,3.3-3.3,20.2-3.3-20.2-20.2-3.3,20.2-3.3,3.3-20.2,3.3,20.2Z"/>
  <path class="cls-6" d="M879.7,1000.5l11.9,16.7-16.7-12-16.7,12,12-16.7-12-16.7,16.7,11.9,16.7-11.9-11.9,16.7Z"/>
  <path class="cls-20" d="M879.7,1000.4c0,.9-.3,1.8-.8,2.6s-1.2,1.4-2.1,1.7c-.9.4-1.8.4-2.7.3-.9-.2-1.7-.6-2.4-1.3s-1.1-1.5-1.3-2.4,0-1.9.3-2.7c.4-.9,1-1.6,1.7-2.1.8-.5,1.7-.8,2.6-.8s2.4.5,3.3,1.4c.9.9,1.4,2.1,1.4,3.3Z"/>
  <path class="cls-6" d="M1352,334.7l20.2,3.3-20.2,3.3-3.3,20.2-3.3-20.2-20.2-3.3,20.2-3.3,3.3-20.2,3.3,20.2Z"/>
  <path class="cls-6" d="M1353.4,338l12,16.7-16.7-11.9-16.7,11.9,12-16.7-12-16.7,16.7,12,16.7-12-12,16.7Z"/>
  <path class="cls-20" d="M1353.4,338c0,.9-.3,1.8-.8,2.6-.5.8-1.2,1.4-2.1,1.7-.9.4-1.8.4-2.7.3-.9-.2-1.8-.6-2.4-1.3-.7-.7-1.1-1.5-1.3-2.4-.2-.9,0-1.9.3-2.7.4-.9,1-1.6,1.7-2.1.8-.5,1.7-.8,2.6-.8s2.4.5,3.3,1.4,1.4,2.1,1.4,3.3Z"/>
  <path class="cls-6" d="M838.6,448.5l20.2,3.3-20.2,3.3-3.3,20.2-3.3-20.2-20.2-3.3,20.2-3.3,3.3-20.2,3.3,20.2Z"/>
  <path class="cls-6" d="M840,451.9l11.9,16.7-16.7-12-16.7,12,12-16.7-12-16.7,16.7,11.9,16.7-11.9-11.9,16.7Z"/>
  <path class="cls-20" d="M840,451.9c0,.9-.3,1.8-.8,2.6-.5.8-1.2,1.4-2.1,1.7-.9.4-1.8.4-2.7.3-.9-.2-1.7-.6-2.4-1.3-.7-.7-1.1-1.5-1.3-2.4s0-1.9.3-2.7c.4-.9,1-1.6,1.7-2.1.8-.5,1.7-.8,2.6-.8s2.4.5,3.3,1.4c.9.9,1.4,2.1,1.4,3.3Z"/>
  <path class="cls-6" d="M1331.9,1117.6l20.3,3.3-20.3,3.3-3.3,20.2-3.3-20.2-20.2-3.3,20.2-3.3,3.3-20.2,3.3,20.2Z"/>
  <path class="cls-6" d="M1333.3,1120.9l11.9,16.7-16.7-11.9-16.7,11.9,12-16.7-12-16.7,16.7,12,16.7-12-11.9,16.7Z"/>
  <path class="cls-20" d="M1333.3,1120.9c0,1.2-.5,2.4-1.4,3.3s-2.1,1.4-3.3,1.4-2.4-.5-3.3-1.4-1.4-2.1-1.4-3.3.5-2.4,1.4-3.3,2.1-1.4,3.3-1.4,2.4.5,3.3,1.4,1.4,2.1,1.4,3.3Z"/>
  <path class="cls-6" d="M537.8,381.9l20.3,3.3-20.3,3.3-3.3,20.2-3.3-20.2-20.3-3.3,20.3-3.3,3.3-20.2,3.3,20.2Z"/>
  <path class="cls-6" d="M539.2,385.2l12,16.7-16.7-12-16.7,12,12-16.7-12-16.7,16.7,11.9,16.7-11.9-12,16.7Z"/>
  <path class="cls-20" d="M539.1,385.2c0,.9-.3,1.8-.8,2.6-.5.8-1.3,1.4-2.1,1.7-.9.4-1.8.4-2.7.3-.9-.2-1.8-.6-2.4-1.3-.7-.7-1.1-1.5-1.3-2.4s0-1.9.3-2.7c.4-.9,1-1.6,1.7-2.1.8-.5,1.7-.8,2.6-.8s2.4.5,3.3,1.4c.9.9,1.4,2.1,1.4,3.3Z"/>
  <path class="cls-5" d="M1061.3,1350.4l-16.9-2.8,10-13.9-13.9,10-2.8-16.9-2.8,16.9-13.9-10,10,13.9-16.9,2.8,16.9,2.8-10,13.9,13.9-10,2.8,16.9,2.8-16.9,13.9,10-10-13.9,16.9-2.8Z"/>
  <path class="cls-6" d="M1041.1,1347.1l20.2,3.3-20.2,3.3-3.3,20.2-3.3-20.2-20.2-3.3,20.2-3.3,3.3-20.2,3.3,20.2Z"/>
  <path class="cls-6" d="M1042.4,1350.4l12,16.7-16.7-12-16.7,12,11.9-16.7-11.9-16.7,16.7,11.9,16.7-11.9-12,16.7h0Z"/>
  <path class="cls-20" d="M1042.4,1350.4c0,1.2-.5,2.4-1.4,3.3s-2.1,1.4-3.3,1.4-2.4-.5-3.3-1.4-1.4-2.1-1.4-3.3.5-2.4,1.4-3.3,2.1-1.4,3.3-1.4,2.4.5,3.3,1.4,1.4,2.1,1.4,3.3Z"/>
  <path class="cls-5" d="M319.4,896.2l3.4-4.7-4.7,3.4-.9-5.7-.9,5.7-4.7-3.4,3.4,4.7-5.7.9,5.7.9-3.4,4.7,4.7-3.4.9,5.7.9-5.7,4.7,3.4-3.4-4.7,5.8-.9-5.8-.9Z"/>
  <path class="cls-6" d="M318.2,896l6.9,1.1-6.9,1.1-1.1,6.9-1.1-6.9-6.9-1.1,6.9-1.1,1.1-6.9,1.1,6.9Z"/>
  <path class="cls-6" d="M318.7,897.2l4.1,5.6-5.7-4.1-5.6,4.1,4.1-5.6-4.1-5.7,5.6,4.1,5.7-4.1-4.1,5.7Z"/>
  <path class="cls-20" d="M318.7,897.2c0,.4-.2.8-.5,1.1s-.7.5-1.1.5-.8-.2-1.1-.5c-.3-.3-.5-.7-.5-1.1s.2-.8.5-1.1.7-.5,1.1-.5.8.2,1.1.5c.3.3.5.7.5,1.1Z"/>
  <path class="cls-5" d="M774.4,805.2l3.4-4.7-4.7,3.4-.9-5.7-.9,5.7-4.7-3.4,3.4,4.7-5.7.9,5.7.9-3.4,4.7,4.7-3.4.9,5.8.9-5.8,4.7,3.4-3.4-4.7,5.7-.9-5.7-.9Z"/>
  <path class="cls-6" d="M773.3,805.1l6.9,1.1-6.9,1.1-1.1,6.9-1.1-6.9-6.9-1.1,6.9-1.1,1.1-6.9,1.1,6.9Z"/>
  <path class="cls-6" d="M773.8,806.2l4.1,5.7-5.6-4.1-5.6,4.1,4.1-5.7-4.1-5.6,5.6,4.1,5.6-4.1-4.1,5.6Z"/>
  <path class="cls-20" d="M773.8,806.2c0,.4-.2.8-.5,1.1s-.7.5-1.1.5-.8-.2-1.1-.5-.5-.7-.5-1.1.2-.8.5-1.1.7-.5,1.1-.5.8.2,1.1.5.5.7.5,1.1Z"/>
  <path class="cls-5" d="M618.9,600.5l3.4-4.7-4.7,3.4-.9-5.7-.9,5.7-4.7-3.4,3.4,4.7-5.7.9,5.7.9-3.4,4.7,4.7-3.4.9,5.7.9-5.7,4.7,3.4-3.4-4.7,5.7-.9-5.7-.9Z"/>
  <path class="cls-6" d="M617.8,600.3l6.9,1.1-6.9,1.1-1.1,6.9-1.1-6.9-6.9-1.1,6.9-1.1,1.1-6.9,1.1,6.9Z"/>
  <path class="cls-6" d="M618.3,601.4l4.1,5.6-5.7-4.1-5.6,4.1,4.1-5.6-4.1-5.6,5.6,4.1,5.7-4.1-4.1,5.6Z"/>
  <path class="cls-20" d="M618.3,601.4c0,.4-.2.8-.5,1.1s-.7.5-1.1.5-.8-.2-1.1-.5-.5-.7-.5-1.1.2-.8.5-1.1.7-.5,1.1-.5.8.2,1.1.5.5.7.5,1.1Z"/>
  <g id="planet5">
    <path class="cls-3" d="M579.3,264.5c26.6,0,48.2-21.6,48.2-48.2s-21.6-48.2-48.2-48.2-48.2,21.6-48.2,48.2,21.6,48.2,48.2,48.2Z"/>
    <path class="cls-6" d="M579.3,264.5c26.6,0,48.2-21.6,48.2-48.2s-21.6-48.2-48.2-48.2-48.2,21.6-48.2,48.2,21.6,48.2,48.2,48.2Z"/>
    <path class="cls-9" d="M531.3,219.8c6-2.9,8.9-5.2,8.3-2-.4,2.8-.4,5.7,0,8.5,0,0,1,1.9,3.8,1.1,2.8-.8,2.7-1.2,3.8-1.2s9.4.2,6.9,3.3-1.5,4.5-3.8,5.2c-2.3.6-3.1,3.8-3.3,4.4-.7,1-1.5,1.9-2.5,2.7l-5.2,2c1.7,2.4,3.5,4.7,5.6,6.7,1.2,1.2,2.5,2.3,3.8,3.4,1.4-.9,3-1.4,4.6-1.5,2.7,0,3.1,1.5,4.4,2,1.3.5,1.2,0,1.2,0,0,0,1.3,1.6,2.6.8,2.3-.3,4.7-.3,7,0,.8,0,4.6-1.7,6.3-.5s2.1.9,2.3,2.3c0,2.6-.6,5.2-2.1,7.3,5.1.5,10.2.1,15.2-1.1-2-1.2-1.1-8.9-2.7-12.3-1.7-3.3-1.7-4.2-1.1-5.6.6-1.4,1.9,0,2.9,0,.9-.1,1.6-.6,2.2-1.2.6-.6.9-1.5.9-2.3.2-1.6.5-3.2,1-4.8,0,0,1.9-3.5,2.7-3.5,1.4.1,2.8,0,4.2-.2.8-.4.8-1,1.2-2.1s.6-6-.4-5.8c-1.1,0-2.2-.3-3.1-.8-1.2-.4-2.5-.6-3.8-.8-.6,0-.8-1.9-.8-1.9,0,0,3.8-2.3,3.8-3.1s-1.4-1-1.6-3.5c-.2-2.5,1.9-2.5,4.1-2,2.3.5,0,1,0,3s.2,1.8,2.7,0,1.9,0,2.5,0c1.3.1,2.5.3,3.8.6,0,0-.2,5.1,0,10.3s7.9.2,10.2-1.7c1.1-.9,4.3-.5,7.3,1.1,1.4-6.5,1.4-13.1,0-19.6-1.3-6.5-3.9-12.6-7.7-18h-.6c-.9-.4-3.8.4-4.4,0-.6-.4-3.3.6-4.7,0-.8-.5-1.4-1.1-1.9-1.9-.4-.8-.7-1.7-.7-2.6-.4-2.6-1.1-5.2-2.2-7.6-.3-.9-.4-1.3,0-1.4-5.8-3.5-12.2-5.8-18.9-6.6s-13.5-.3-20,1.6c1.8,3,3.1,6.5,1.3,8-3.8,2.9-1.6,5.4.9,7.6.4.3.7.7.9,1.1.2.5.3.9.3,1.4s0,1-.3,1.4-.5.8-.9,1.1c-.8.8-2.3,2.9-.9,3.8,1.4.9,4.4,2.3,2.2,3.5-2.1,1.3-.9,4.4-4.4,1.7-3.6-2.7-2.3-5.2-5-5.2s-3.1,3.1-6.7,4.2c-3.6,1.1-3.8.8-4.8.4-1-.5-1-3.1-3.3-5.4-.3-.4-.8-.7-1.3-.9s-1-.2-1.5-.2-1,.2-1.4.5-.8.7-1,1.1c-.4,1.1-1.1,5.9,0,6.5s0,3.8-2.3,4.5c-2.3.8-4.1-2.7-4.9-.5v.7c-1,4.5-1.3,9.2-.9,13.8v.2ZM580.9,243.2c-3.3.8,0,0-3.5-3.8s2-1.2,2-1.2c.6-1.9,1.1-3.9,1.5-5.8.4-2.5,3.5,0,5.3,0s3.5,2.5,1.4,5.8c0,0,0,2.1-1.4,1.7-1.4-.4-1.9,2.3-5.3,3.2v.2h0ZM579.3,248.9c1-.6,3.4.8,3,3.5l-3.1.8c-1.1-.8-2.1-1.7-3-2.7-.9-1.4,2.2-1.3,3.1-1.9v.2h0ZM553.8,211.8c0-2.1.6-3.8,2.3-3.8,2.7-.6,3.3,1.9,5.7,2.1,2.4.2,1.4,6.6,1.4,6.6,0,0,.8,3.2-3.4,2.2-4.3-1-6.6-.2-7-1.8s1-3.4,1-5.5v.2Z"/>
  </g>
  <g>
    <path class="cls-3" d="M656.2,196c0,1.5-.4,2.9-1.2,4.1-.8,1.2-2,2.2-3.3,2.7-1.3.6-2.8.7-4.3.4-1.4-.3-2.7-1-3.8-2-1-1-1.7-2.3-2-3.8-.3-1.4,0-2.9.4-4.3.6-1.3,1.5-2.5,2.7-3.3s2.6-1.2,4.1-1.2,3.8.8,5.2,2.1c1.4,1.4,2.1,3.2,2.1,5.2h0Z"/>
    <path class="cls-10" d="M656.2,196c0,1.5-.4,2.9-1.2,4.1-.8,1.2-2,2.2-3.3,2.7-1.3.6-2.8.7-4.3.4-1.4-.3-2.7-1-3.8-2-1-1-1.7-2.3-2-3.8-.3-1.4,0-2.9.4-4.3.6-1.3,1.5-2.5,2.7-3.3s2.6-1.2,4.1-1.2,3.8.8,5.2,2.1c1.4,1.4,2.1,3.2,2.1,5.2h0Z"/>
    <path class="cls-13" d="M645.2,200.1c.8,0,1.5-.7,1.5-1.5s-.7-1.5-1.5-1.5-1.5.7-1.5,1.5.7,1.5,1.5,1.5Z"/>
    <path class="cls-13" d="M652.3,195.6v.2h-.4v-.4h.2c.1,0,0,0,0,0h0c0,.1.1.2.1.2Z"/>
    <path class="cls-13" d="M648.3,201.5v.2h-.4v-.4h.4v.2Z"/>
    <path class="cls-13" d="M650.9,189.9h0v.2h-.4v-.4h.4s0,.1,0,.2h-.1Z"/>
    <path class="cls-13" d="M655.6,196.3s0,.1,0,.2h-.4v-.4c0,0,0,0,.2-.1h.2v.2h0Z"/>
    <path class="cls-13" d="M644.2,194v.2h-.4v-.4h.2c.1,0,0,0,0,0s0,0,0,0h0c0,.1.1.2.1.2Z"/>
    <path class="cls-13" d="M648,192c0,.3,0,.5-.3.7-.2.2-.4.3-.7.3s-.5,0-.7-.3c-.2-.2-.3-.4-.3-.7s0-.5.3-.7.4-.3.7-.3.5,0,.7.3c.2.2.3.4.3.7Z"/>
    <path class="cls-13" d="M653.3,200.6c0,.2,0,.4-.2.5,0,.2-.3.3-.4.3h-.5c-.2,0-.4-.1-.5-.3,0-.1-.2-.3-.3-.5v-.5c0-.1.2-.3.3-.4.2-.1.3-.2.5-.2s.5.1.7.3.3.4.3.7h.1Z"/>
  </g>
  <g id="planet3">
    <path class="cls-3" d="M1616.8,743.5c6-1.3,12.3-.9,18.1,1.3,5.8,2.2,10.7,6.1,14.3,11.2,3.6,5.1,5.5,11,5.7,17.2s-1.6,12.2-4.9,17.5c-3.3,5.2-8.1,9.3-13.8,11.8-5.7,2.5-11.9,3.2-18,2.2-6.1-1.1-11.7-3.9-16.2-8.2-4.4-4.3-7.5-9.8-8.9-15.8-1.8-8.1-.3-16.5,4.2-23.5,4.4-7,11.4-11.9,19.5-13.7h0Z"/>
    <path class="cls-9" d="M1616.8,743.5c6-1.3,12.3-.9,18.1,1.3,5.8,2.2,10.7,6.1,14.3,11.2,3.6,5.1,5.5,11,5.7,17.2s-1.6,12.2-4.9,17.5c-3.3,5.2-8.1,9.3-13.8,11.8-5.7,2.5-11.9,3.2-18,2.2-6.1-1.1-11.7-3.9-16.2-8.2-4.4-4.3-7.5-9.8-8.9-15.8-1.8-8.1-.3-16.5,4.2-23.5,4.4-7,11.4-11.9,19.5-13.7h0Z"/>
    <path class="cls-13" d="M1651.5,760.2c-.6.9-1.1-.3-3.1.7-2,.9-4.1,1.4-6.2,1.5l-.5.9c-.4.9-4.2-.6-4.2-2s0,0,3-.9c2.9-.9,0,0,.3-2.1s-.8-1.2-2-2.7c-.2-.2-.4-.4-.6-.5s-.5-.2-.7-.3h-.8c-.2,0-.5.2-.7.3-.9.5-.8,1.6-1.7,1.8-.9.2-.5.8-.9,1-.4.3-1,0-1.5,0s-1.1-.4-1.4,0-.2.5-.3.8h-1c-.2,0-.5-.3-.5-.5v-.4c.2-.4.4-.7.7-1,0-.2.3-.3.5-.3h.6v-.5c0-.2-.2-.3-.3-.5h1.2c.3,0,1.2-2.5,1.2-2.9v-.5c0,0-.2-.3-.3-.3-.3-.2-.8,0-1.2,0s-1.3-1.2-2.1-1.1c-.2,0-.4,0-.6.3l-.9.7c-.2,0-.3.2-.4.3v.6s0,.2,0,.2c0,0,0,0-.2,0,.7,0-.3.7-.4.8-.8.3-2.2-.3-3.1-.3h-.5v-.3c-.2-.5-.4-1.1-.6-1.6s-.6-2.5.3-3,2,0,2.3-1c0,0,0-.2.2-.3.3-.2.6.3.5.7,0,.6,0,1.2,0,1.8.2.6,1,1,1.5.6-.3-.5.3-1,.8-1s1.1.3,1.6,0c.2,0,.4-.3.5-.6,0-.2,0-.5,0-.7,0-.5-.3-1-.6-1.4-.3,0-.7.2-1,0-.3,0-.7-.2-.9-.4-.5-.3-.9-.9-1.4-.7.2-.2.4-.5.6-.8-.3-.2-.7-.3-1.1-.5-.3-.2-.7-.6-.5-.9,0,0,.2-.2.3-.3,2,0,4,.4,5.9.9-.6,1.1-.8,3.2,2.1,4.2,4.1,1.5,0,0,3.8-2,3,1.4,5.7,3.3,8.1,5.6l-1.7,1.2c-1.7,1.2.6,1.8.6,1.8h2.4c1.3,0,1.2,0,1.2-.3,1.5,1.7,2.8,3.6,3.9,5.6h-.1Z"/>
    <path class="cls-22" d="M1604.8,762.2v.5c-.2.8-1.4.5-2.2.8-1.7.5-1.2,3.4-2.9,4.2-.8.3-1.7,0-2.5.3-.5.4-1,.8-1.4,1.3-.4.4-.9.7-1.5.8-.5.2-1.1.2-1.7,0,.7-5.9,3-11.4,6.8-16h.9c.3,0,.6.3.7.5.2.2.3.5.4.8,0,.6,0,1.3,0,1.9l1.2-.9c0,0,.2.2.3.3,0,0,.2.3.2.4v.5c0,.2,0,.3-.2.4-.4.5-1.1.6-1.8.7-.7,0-1.4.5-1.5,1.1,0,.6.4,1,.7,1.4.3.4.7,1.1.4,1.5l2.7-1.6c.2,0,.3-.2.5-.2s.5,0,.6.3c.2.2.3.4.3.6v.4Z"/>
    <path class="cls-22" d="M1606.8,758.1l-.2.7c.7.2,1.4.2,2.1,0,.2,0,.4-.2.6-.4.3-.4.4-.8.5-1.2v-1.7c0-.3,0-.6-.3-.8-.2-.2-.4-.4-.6-.6-.2,0-.6-.2-.8,0-.3,0-.5.3-.7.5-.2.5,0,1.1-.3,1.6s-.8.6-.9,1v.3c0,0,0,.2,0,.3l.2.2h.3Z"/>
    <path class="cls-22" d="M1620,745.3c-.9.8-2.5-.3-3.6.3-1.1.5-.9,1.1-1.6,1.2h-1.1c-.4,0-.8.3-.7.6,0,.2,0,.3.3.4l.9.9c0,0,.2.2.3.4v.6s0,.2-.2.2c0,0-.2,0-.3,0-.4,0-.9,0-1.3,0-.3,0-.5,0-.8-.2-.2,0-.4-.5-.2-.7l.3-.3c0,0,.2-.3.3-.4v-.5c0-.2,0-.3-.2-.5,0,0-.3-.2-.5-.2l-.5.2-1.6,1c-.8.4-1.7.9-2.5.5h-.2s0,0,0-.2v-1.1c3.1-2,6.5-3.4,10-4.2,1.2-.3,2.3-.5,3.5-.6.2.9.3,1.9-.3,2.3v.2Z"/>
    <path class="cls-22" d="M1613.6,753.2h-.3c0,0-.2,0-.3,0,0,0-.2,0-.2.2v.3l.4.6v-.3c0,.3.4.7.7.4,0,0,.2-.3.2-.5s0-.4-.2-.5l-.2-.2h0Z"/>
    <path class="cls-22" d="M1627.3,762.2c-.5-.5-1.4-.3-2.1-.3s-1.7-.3-1.7-1,.8-.9,1.4-.9c0-.3,0-.5,0-.8s-.2-.5-.4-.7c-.2-.2-.4-.3-.7-.4-.2,0-.5,0-.8,0,0,.3.2.6.2.9s0,.6-.2.9c0,0-.2.3-.3.4s-.2.2-.4.2h-.5c-.2,0-.3,0-.5,0-.9-.7.2-2.6-.7-3.4-.2,0-.5-.2-.8-.2s-.5,0-.8.2c-1.8.4-3.8,1.1-4.5,2.8,0,.2-1.5,0-2,0s-.7,1.4-.8,1.9v.8c0,.3.5.6.3.9-.2.3-.4.2-.5.4-.2.2,1,1.9,1.4,2.1.4.2,1.4,0,2.2.3.3.2.5.5.6.8s0,.6,0,.9h-.7c.2.5.2,1,0,1.4s-.4.9-.8,1.2h1.5c.5,0,.9.4,1.2.8,0,0,.3.4.6.4s.3,0,.4-.2c.4-.2.7-.5,1-.9s.5-.8.6-1.2h.8c0-.4,0-1.1-.5-.9-.5.2,0,0-.3.2s-1,0-1-.6.2-1,.5-1.4c.2-.2.3-.5.5-.8.3-.6.9-1.1,1.6-1.3,1.2-.3,2.1,1,2.7,2,.2.5.3,1.2,0,1.3s-.5-.2-.7,0,0,.6-.4.8-.4,0-.6,0-.4.9,0,1.3c.4.5.6-.3.9-.5s1.4.3,2.1,0,.6-.6.8-.8c.3-.3,2.1-.9,2.2-1.9s-.4-1.1-.5-1.6c0-.6.3-2.5-.5-3.2l.3.3Z"/>
    <path class="cls-13" d="M1605,769.5h.9c.5,0,1.9.4,1.3,1.3-.6.8-1.6-.9-2.3-.5.5,0,.4.9.2,1.3-.2.5-.5,1-.2,1.4.6-.3,1.2.3,1.9.5.7.2,1.7-.5,2.6-.3v-1c0-.3.7-.3.9-.5.3-.2.7-.5,1-.3s0-.8,0-1.1c-.3-.3-.6-.6-.8-.9-.2-.3,0-.9.2-1s.7,0,1,0,.2-.2.3-.3v-1.3h-.7v.4c0,0-.2.2-.4.3h-.9c0-.9,0-1.8-.3-2.6h-.9c0,.4-.4.6-.8.6s-.7-.2-1-.5c-.2-.2-.4-.4-.7-.3-.3,0-.5.5-.5.9,0,1.4-.6,1-1.1,1.8-.2.3-.4.7-.3,1.1,0,.4.2.7.5,1h.1Z"/>
    <path class="cls-13" d="M1605.6,782.7c-.8,0-1.5,0-2.2-.3-.3-.2-.7-.4-1-.2,0,0-.3.2-.3.4v.5c0,.3.3.6.5.9.2.4.3.9.3,1.4s0,1-.3,1.4c-.7,0-1.5,0-2.2,0-.7-.2-1.4-.5-2-.9,0,0-.2-.3-.3-.4-.3-.6.6-1.3.4-1.9-.2-.6-1.3-1.1-1-1.6.4-.6.7-.2,1.1-.4,0,0,.2,0,.3-.2,0,0,0-.2.2-.3v-.6c-.4-.2-.9-.2-1.4,0-.5,0-.9.4-1.1.8-.6,0-.8-.9-.9-1.6,0-.6-.4-1.5-1.1-1.3,0,0-.2,0-.3.2,0,0,0,.2,0,.3-.5,1.4.7,2.8,1.7,3.8.3.2.5.5.5.9s-.2.8-.6.7l1.3,1.5c0,0,.2.3.2.5v.3c-.4.5-.7,1-1,1.5-1.3-2.4-2.2-4.9-2.7-7.6-.5-2.4-.8-4.9-.7-7.3.2-.3.5-.6.8-.8.4,0,.9,0,1.3-.2.9-.3,1.4-1.5,2.3-1.9.4,0,.8,0,1.2,0,.4,0,.7.3,1,.6.2.3.4.7.5,1.1v1.2c-.2.6-.3,1.3-.2,1.9.4,1.1,1.8,1.2,2.9,1.2,0,.3,0,.7,0,1,.2.3.4.6.7.7h.5c.2,0,.3,0,.5-.2,0,0,.3-.2.3-.4s0-.3.2-.5c.7,0,1.6.5,1.6,1.2,0,.5-.4.9-.8,1.1-.3.4-.6.9-.3,1.3.3.4,1.3,0,1.6.6.3.6-.5,1.2-1,1.3l-.5.4Z"/>
    <path class="cls-22" d="M1630.3,804.4h-1c0-.3,0-.6,0-.9s0-.6.3-.9c.4-.6,1.2-1,1.5-1.7.2-.5.4-.9.6-1.3.6-1,2.2-.9,3.4-.8,0,0,0-.3,0-.4v-.5c0,0,0-.3.2-.4,0,0,.2-.2.4-.3.6-.2,1.2-.3,1.9-.3h.9c.3,0,.6-.2.8-.4,0-.2.3-.5.5-.5h.5l3.4.4c0-.8-.9-1.3-1.7-1.4-.8,0-1.8,0-2.1-.8-.4.7-1.1,1.3-1.9,1.5-.8.3-1.6.3-2.4,0h-.4c-.3-.5.8-1,.5-1.4l-1.6-.6c-.2,0-.5-.2-.6-.4s0-.8.3-1.3c.3-.4-.2-1.7-.4-2.5-.2-.8,0-2,1-2h.6c.2,0,.4-.6.5-.9.2-1,1.3-1.6,2.1-2.2.2-.2.5-.4.7-.7.8-.8,1.3-1.8,1.4-3-.7.5-1.4,1.1-1.9,1.8-.6.7-1.5,1.2-2.3.8,0,.5,0,1.1-.3,1.5-.3.5-.7.8-1.2,1-.5,0-1.1,0-1.5-.2-.5-.2-.8-.7-1-1.2,0,0,0-.3,0-.5s0-.3,0-.5h1c.5,0,1,0,1.4-.3.4-.2.8-.6,1.1-1-.6,0-1.2,0-1.7-.4-.5-.3-1-.7-1.3-1.1-.3-.5-.4-1.1-.2-1.7,0-.6.5-1.1,1-1.4h-.8c0-.5.3-.9.7-1.2.3-.3.8-.5,1.3-.6h1.4c.2,0,.4-.2.6-.3.2-.2.2-.4.3-.6-.3-.2-.5-.4-.6-.7s-.2-.6-.2-.9.2-.5.4-.7c.2-.2.4-.4.6-.5,0,0-.3,0-.4,0,0,0-.2-.2-.2-.3,0-.2,0-.4.2-.5,0-.2.3-.3.5-.3h1.2c1,0,2,.5,2.7,1.3.3.7.5,1.4.4,2.2v3c0,.5,0,1,0,1.4,0,.5.4.9.7,1.2.5.3,1,.4,1.5.4,1.6,0,3.2-.3,4.6-.9.8-.3,1.4-.8,1.9-1.5.3-.7.5-1.5.4-2.3,0-1.6.3-4.1-1.3-5.1-.2,0-.5-.2-.8-.2s-.5,0-.8.2-.5.6-.9.7c-.3,0-1.1-.2-1.6,0-.4.2-.4.5-.6.8,0,.2-.2.3-.4.4h-.5c-.3-.2,0-.8,0-1.2s-.7-1.6-.5-2.5c.2-.8.9-1.3,1.5-1.9.5-.6.9-1.2,1.2-1.9.5-.2,1.1,0,1.5.5.2.2.5.3.7.4h.8c.4.5-.2,1.5.4,1.9h.3v.6c0,.8.4,1.7,1.1,1.9h.3v-1.7c0-.5-.3-.9-.6-1.4,0-.2-.2-.4-.3-.6v-.6c0-.2,0-.4.2-.6v-.4c.3-.2.6,0,.9,0s.6-.2.8-.3c.2,0,.4,0,.6,0s.4,0,.6,0c.3.9.5,1.9.8,2.8,1.8,8,.4,16.4-3.9,23.4s-11.2,12-19.2,13.9v-.3Z"/>
    <path class="cls-22" d="M1625.7,794.6c0,.6,0,1.3,0,1.9-.7.4-1.6.6-2.4.4-.3.8-.3,1.6,0,2.4.3.8.9,1.4,1.6,1.8-.2.2-.5.3-.9.4h-.9c-.6-.3-1.1-.6-1.6-1.1l-3.8-2.9c-.6.2-.2,1.2.4,1.5s1.3.3,1.6.9c.3.6,0,1.7.3,2.3.3.2.6.4,1,.6.3.2.5.5.6.8s0,.7,0,1v.5c-4.8-.2-9.4-1.6-13.6-4v-.7c0-1.1,1.1-1.9,1.9-2.6.5-.3.9-.7,1.2-1.2.3-.5.5-1,.5-1.6-1.5.4-2,2.2-3.3,3-.3.2-.7.4-1.1.5-.6.3-1.2.7-1.8,1.1-3.1-2.1-5.7-4.7-7.8-7.8.6-.8.9-1.8.8-2.8.3-.4.9.3,1.4.4.5,0,.9-.7,1.4-.8.6,0,.8,1.6,1.7,1.9.9.3,1.1-.5,1.8-.6.6,0,1.3.5,2,.3,2.1-.6.5-2.9.8-4.2.2-.6.9-.7,1.4-1,.4-.2.7-.6.8-1,.2-.4.3-.8.3-1.2,0-.8-.2-1.7-.4-2.5-.2-.4-.2-.8-.2-1.2s.2-.8.4-1.2c.8-.9,2.3-.3,3.5-.9,1.1-.6,1.1-1.6,1.9-2.2.7-.5,1.6-.8,2.5-.7h.7c.4.2.3.9.3,1.3-.3,1.3-.7,2.6-1.2,3.8,1,.5,2.3.9,3.1,0,0-.2.3-.5.5-.6s.4-.2.6-.2.4,0,.6.2c.3.8.7,1.5,1.1,2.2-.9,0-1.9.2-2.7.7-.8.5-1.4,1.3-1.7,2.2,0,.3,0,.5-.3.8,0,.2-.3.3-.5.3s-.4,0-.6,0c-1.2-.2-2.4-.6-3.6-1.2-1.2-.4-2.9,0-3.2,1.1,1-.3,1.8.7,2.8,1.1.6.2,1.1.3,1.7.3,1.4,0,2.8.5,4.1,1.1.5-.2.9-.5,1.2-.9.3-.4.5-.9.5-1.4.5.6,1.1,1.2,1.8,1.5.7.4,1.5.6,2.3.6-.4,1.2-.4,2.6,0,3.8.5.9,1.4,1.7,1.3,2.8-.2,0-.4.2-.6.4s-.3.4-.3.7v-.2Z"/>
  </g>
  <g id="planet4">
    <path class="cls-3" d="M1168.2,142.7c6.4-1.4,13.2-.9,19.3,1.5,6.2,2.4,11.5,6.5,15.3,11.9s5.9,11.8,6.1,18.4c.2,6.6-1.7,13.1-5.2,18.7-3.5,5.6-8.6,10-14.7,12.6-6,2.7-12.7,3.5-19.2,2.4s-12.5-4.2-17.3-8.7c-4.8-4.6-8.1-10.4-9.5-16.9-1-4.3-1.1-8.7-.3-13,.8-4.3,2.4-8.4,4.7-12.2,2.4-3.7,5.4-6.9,9-9.4s7.6-4.3,11.9-5.3h-.1Z"/>
    <path class="cls-22" d="M1200.2,165.6c.7,0,1.4-.2,1.9-.6.6-.4,1-.9,1.3-1.5s.3-1.3.2-2-.5-1.3-.9-1.8c-.5-.5-1.1-.8-1.8-.9-.7-.1-1.4,0-2,.2-.6.3-1.2.7-1.5,1.3-.4.6-.6,1.2-.6,1.9s.4,1.8,1,2.4c.6.6,1.5,1,2.4,1h0Z"/>
    <path class="cls-22" d="M1188.9,148.9c0,.8.5,1.6,1.1,2.2.6.6,1.4.9,2.3.9s1.7-.3,2.3-.9c.6-.6,1-1.4,1.1-2.2-1.5-1.1-3.1-2.1-4.7-3-.6.2-1.1.7-1.5,1.2s-.6,1.2-.6,1.8h0Z"/>
    <path class="cls-22" d="M1152,180.8c-1,0-2.1.3-2.9.9-.9.6-1.5,1.4-1.9,2.4s-.5,2-.3,3,.7,2,1.4,2.7,1.7,1.2,2.7,1.4,2.1,0,3-.3c1-.4,1.8-1.1,2.4-1.9.6-.9.9-1.9.9-2.9s-.6-2.7-1.6-3.7-2.3-1.5-3.7-1.6h0Z"/>
    <path class="cls-22" d="M1207.3,165.2c-.5-1.6-1.2-3.3-1.9-4.8v.7c0,.8.2,1.6.5,2.3s.8,1.3,1.4,1.8Z"/>
    <path class="cls-22" d="M1149.7,164.8c0-1.1-.4-2.2-1.1-3.1-.7-.9-1.6-1.6-2.7-1.9-1.6,3.1-2.8,6.5-3.4,10,.6.2,1.2.3,1.8.3s1.4-.1,2-.4c.7-.3,1.2-.7,1.7-1.1.5-.5.9-1.1,1.2-1.7.3-.6.4-1.3.4-2h0Z"/>
    <path class="cls-22" d="M1203.6,179.5c0,1.1.4,2.3,1,3.2.7.9,1.6,1.6,2.8,1.9,1-3.3,1.5-6.8,1.4-10.3-1.4,0-2.7.5-3.7,1.5s-1.5,2.3-1.5,3.7h0Z"/>
    <path class="cls-22" d="M1171,157.6c0-1-.3-2-.9-2.9s-1.4-1.5-2.3-1.9c-1-.4-2-.5-3-.3s-1.9.7-2.7,1.4c-.7.7-1.2,1.6-1.5,2.7-.2,1,0,2.1.2,3s1,1.8,1.9,2.4c.8.6,1.8.9,2.9,1,.7,0,1.4-.1,2.1-.4.7-.3,1.2-.6,1.8-1.1.5-.5.9-1.1,1.2-1.7.3-.7.4-1.3.4-2.1h0Z"/>
    <path class="cls-22" d="M1188.5,191.9c1.9,0,3.4-1.5,3.4-3.4s-1.5-3.4-3.4-3.4-3.4,1.5-3.4,3.4,1.5,3.4,3.4,3.4Z"/>
    <path class="cls-22" d="M1201.3,190.2c0,.7.2,1.4.7,2,.4.6,1,1,1.7,1.2,1.2-1.9,2.2-3.8,3.1-5.9-.5-.4-1.1-.6-1.7-.7-.6,0-1.3,0-1.8.3-.6.3-1.1.7-1.4,1.3-.3.5-.5,1.2-.5,1.8h0Z"/>
    <path class="cls-22" d="M1192.3,203.1v.9c3.7-2.2,7-5.1,9.6-8.5-1.2-.3-2.4-.4-3.6-.2s-2.3.7-3.2,1.5c-1,.7-1.7,1.7-2.2,2.8s-.8,2.3-.7,3.5h0,0Z"/>
    <path class="cls-22" d="M1145.8,177.8c0-1.3-.3-2.5-.9-3.6s-1.4-2.1-2.5-2.8c-.4,3.7-.2,7.5.6,11.1,0,.3,0,.7.3,1,.8-.7,1.5-1.6,1.9-2.6.5-1,.7-2.1.7-3.1h0Z"/>
    <path class="cls-22" d="M1161.4,145.5v-.4c-5.6,2.6-10.4,6.8-13.8,11.9h2.1c3.1,0,6-1.2,8.2-3.4s3.4-5.1,3.5-8.1h0Z"/>
    <path class="cls-22" d="M1177.3,147.2c1.4,0,2.8-.4,4-1.1,1.2-.7,2.2-1.8,2.9-3-4.6-1.2-9.4-1.4-14.1-.6.6,1.4,1.6,2.7,2.8,3.5,1.3.9,2.8,1.3,4.3,1.3h0Z"/>
    <path class="cls-22" d="M1175.5,199.7c-.7,0-1.4.2-1.9.6-.6.4-1,.9-1.3,1.5s-.3,1.3-.2,2c0,.7.5,1.3.9,1.8.5.5,1.1.8,1.8.9.7.1,1.4,0,2-.2.6-.3,1.2-.7,1.5-1.3.4-.6.6-1.2.6-1.9s-.4-1.8-1-2.4c-.6-.6-1.5-1-2.4-1h0Z"/>
    <path class="cls-22" d="M1168.1,205.9c-.5,0-1,.1-1.4.3s-.8.5-1.1.9c1.9.6,3.8,1,5.8,1.2-.2-.7-.6-1.3-1.2-1.8-.6-.4-1.3-.7-2-.7h-.1Z"/>
    <path class="cls-22" d="M1154.6,197.9c-.5,0-.9.1-1.4.3-.4.2-.8.5-1.1.9,1.6,1.6,3.3,3,5.2,4.2.5-.6.7-1.3.7-2s-.4-1.8-1-2.4c-.7-.6-1.5-1-2.4-1h0Z"/>
    <path class="cls-22" d="M1193.9,169.4c.2,0,.3,0,.4-.1,0,0,.2-.2.3-.4v-.5c0-.2,0-.3-.2-.4,0-.1-.2-.2-.4-.2h-.5c0,0-.3.2-.3.3s0,.3,0,.4c0,.2,0,.4.2.6s.3.2.6.2h0Z"/>
    <path class="cls-22" d="M1198.5,156.6c.2,0,.4,0,.6-.2.2-.1.2-.4.2-.6s0-.4-.2-.6-.3-.2-.6-.2h-.3s-.2.1-.2.2c0,0,0,.2-.2.3v.3c0,.2,0,.4.2.6s.3.2.5.2Z"/>
    <path class="cls-22" d="M1204.6,169.4c0,0,.3,0,.4-.1,0,0,.2-.2.3-.4v-.5c0-.2,0-.3-.2-.4,0-.1-.2-.2-.4-.2h-.5c0,0-.3.2-.4.3,0,.1,0,.3,0,.4s0,.4.2.6c.2.1.4.2.6.2h0Z"/>
    <path class="cls-22" d="M1177.2,149.8c.2,0,.4,0,.5-.2,0-.1.2-.3.2-.5v-.3s0-.2-.2-.3c0,0-.2-.1-.2-.2h-.3c-.2,0-.4,0-.6.2-.2.1-.2.4-.2.6v.3s0,.2.2.3c0,0,.2.1.3.2h.3,0Z"/>
    <path class="cls-22" d="M1167.2,164h-.3s-.2,0-.2.2c0,0,0,.2-.2.2v.6s0,.2.2.3c0,0,.2.1.2.2h.3c.2,0,.4,0,.6-.2.2-.1.2-.4.2-.6v-.3s0-.2-.2-.3c0,0-.2-.1-.3-.2h-.3,0Z"/>
    <path class="cls-22" d="M1161.8,186v-.3s0-.2-.2-.2c0,0-.2-.1-.3-.2h-.3c-.2,0-.4,0-.5.2-.2.1-.2.3-.2.5v.3s0,.2.2.3c0,0,.2.1.2.2h.3c.2,0,.4,0,.6-.2,0-.1.2-.4.2-.6h0Z"/>
    <path class="cls-22" d="M1148.9,177.1c0,.2,0,.3,0,.4,0,.1.2.2.4.3h.5c.2,0,.3-.1.4-.2,0-.1.2-.3.2-.4v-.5c0-.1-.2-.3-.3-.4,0,0-.3-.1-.4-.1s-.4,0-.6.2-.2.4-.2.6h0Z"/>
    <path class="cls-22" d="M1183.2,180.8c0,.2,0,.3,0,.4,0,.1.2.2.4.3h.5c.2,0,.3-.1.4-.2,0-.1.2-.3.2-.4v-.5c0-.1-.2-.3-.3-.4,0,0-.3-.1-.4-.1-.2,0-.4,0-.6.2s-.2.4-.2.6h0Z"/>
    <path class="cls-22" d="M1183.2,172c.4,0,.8-.4.8-.8s-.4-.8-.8-.8-.8.4-.8.8.4.8.8.8Z"/>
    <path class="cls-22" d="M1190.3,195.3h-.3c0,0-.2,0-.2.2,0,0,0,.2-.2.3v.6s0,.2.2.2c0,0,0,.1.2.2h.6s.2,0,.3-.2c0,0,0-.2.2-.3v-.3c0-.2,0-.4-.2-.6-.2-.2-.3-.2-.6-.2h0Z"/>
    <path class="cls-22" d="M1155.4,159.5c.2,0,.4,0,.6-.2.2-.1.2-.4.2-.6s0-.4-.2-.6-.3-.2-.6-.2-.4,0-.6.2c0,.1-.2.4-.2.6s0,.4.2.6c.2.1.4.2.6.2Z"/>
    <path class="cls-22" d="M1172.1,158.4h.3s.2,0,.3-.2c0,0,0-.2.2-.3v-.3c0-.2,0-.4-.2-.6-.2-.1-.3-.2-.6-.2h-.3s-.2,0-.2.2c0,0,0,.2-.2.3v.3c0,.2,0,.4.2.5s.3.2.5.2h0Z"/>
    <path class="cls-22" d="M1171.3,197.9c-.2,0-.3,0-.5.1,0,0-.2.2-.3.3v.5c0,.2,0,.3.2.4,0,.1.2.2.4.2h.5c.2,0,.3-.2.4-.3,0-.1,0-.3,0-.4s0-.4-.2-.5c0-.1-.3-.2-.5-.2h0Z"/>
    <path class="cls-22" d="M1169.5,188.5h-.3s-.2,0-.3.2c0,0,0,.2-.2.3v.3c0,.2,0,.4.2.6s.3.2.6.2h.3s.2,0,.3-.2c0,0,0-.2.2-.3v-.3c0-.2,0-.4-.2-.5s-.3-.2-.5-.2h0Z"/>
    <path class="cls-22" d="M1150.4,192.9h-.3s-.2,0-.2.2c0,0,0,.2-.2.3v.3c0,.2,0,.4.2.5,0,.1.3.2.5.2h.3s.2,0,.3-.2c0,0,0-.2.2-.2v-.3c0-.2,0-.4-.2-.6s-.3-.2-.6-.2h0Z"/>
    <path class="cls-22" d="M1180.8,205.7c-.2,0-.3,0-.4.1,0,0-.2.2-.3.4v.5c0,.2,0,.3.2.4,0,.1.2.2.4.2h.5c0,0,.3-.2.4-.3,0-.1,0-.3,0-.4s0-.4-.2-.6c-.2-.2-.4-.2-.6-.2h0Z"/>
    <path class="cls-22" d="M1185.1,159.4c.4,0,.7-.1,1-.3s.5-.5.7-.8c0-.3.2-.7,0-1.1,0-.4-.2-.7-.5-.9-.3-.3-.6-.4-.9-.5-.4,0-.7,0-1.1.1-.3.1-.6.4-.8.7-.2.3-.3.7-.3,1s0,.5,0,.7c0,.2.2.4.4.6.2.2.4.3.6.4.2,0,.4.1.7.1h.1Z"/>
    <path class="cls-22" d="M1185.1,150.8c.4,0,.7-.1,1-.3s.5-.5.7-.8c0-.3.2-.7,0-1.1,0-.4-.2-.7-.5-.9s-.6-.4-.9-.5c-.4,0-.7,0-1.1.1-.3.1-.6.4-.8.7-.2.3-.3.7-.3,1s0,.5,0,.7c0,.2.2.4.4.6.2.2.4.3.6.4.2,0,.4.1.7.1h.1Z"/>
    <path class="cls-22" d="M1165.6,150.8c.5,0,1-.2,1.3-.6.4-.4.6-.8.6-1.3s-.2-1-.6-1.3c-.3-.4-.8-.6-1.3-.6s-1,.2-1.3.6c-.3.4-.5.8-.5,1.3s.2,1,.5,1.3c.4.4.8.6,1.3.6Z"/>
    <path class="cls-22" d="M1180.8,197.9c0-.4,0-.7-.3-1-.2-.3-.5-.5-.8-.7-.3-.1-.7-.2-1.1-.1-.3,0-.7.2-.9.5-.2.3-.4.6-.5.9v1.1c0,.3.4.6.7.8.3.2.6.3,1,.3s.5,0,.7-.1c.2,0,.4-.2.6-.4s.3-.4.4-.6c0-.2,0-.5,0-.7h.1Z"/>
    <path class="cls-22" d="M1161.8,199.5c-.4,0-.7.1-1,.3s-.5.5-.7.8c0,.3-.2.7,0,1.1,0,.4.2.7.5.9.3.3.6.4.9.5.4,0,.7,0,1.1-.1.3-.1.6-.4.8-.7.2-.3.3-.7.3-1s0-.5,0-.7c0-.2-.2-.4-.4-.6-.2-.2-.4-.3-.6-.4-.2,0-.5-.1-.7-.1h0Z"/>
    <path class="cls-22" d="M1155.4,196.3c1,0,1.8-.8,1.8-1.8s-.8-1.8-1.8-1.8-1.8.8-1.8,1.8.8,1.8,1.8,1.8Z"/>
    <path class="cls-22" d="M1185.1,201.3c-.4,0-.7,0-1,.3-.3.2-.5.5-.7.8s-.2.7,0,1.1c0,.4.2.7.5.9.3.3.6.4.9.5.4,0,.7,0,1.1-.1.3-.1.6-.4.8-.7.2-.3.3-.7.3-1,0-.5-.2-.9-.5-1.3-.3-.3-.8-.5-1.3-.5h0Z"/>
    <path class="cls-22" d="M1172.9,178.9c.4,0,.7-.1,1-.3s.5-.5.7-.8c0-.3.2-.7,0-1.1,0-.4-.2-.7-.5-.9-.2-.3-.6-.4-.9-.5-.3,0-.7,0-1,.1s-.6.4-.8.7c-.2.3-.3.7-.3,1,0,.5.2.9.5,1.3.3.3.8.5,1.3.5h0Z"/>
    <path class="cls-22" d="M1198.5,184.4c.4,0,.7,0,1-.3.3-.2.5-.5.7-.8s.2-.7,0-1.1c0-.4-.2-.7-.5-.9-.2-.3-.6-.4-.9-.5-.3,0-.7,0-1.1.1-.3.1-.6.4-.8.7-.2.3-.3.7-.3,1,0,.5.2.9.5,1.3.3.3.8.5,1.3.5h0Z"/>
    <path class="cls-22" d="M1157.2,174.3c-.4,0-.7,0-1,.3-.3.2-.5.5-.7.8,0,.3-.2.7,0,1.1,0,.4.2.7.5.9.3.3.6.4.9.5.4,0,.7,0,1.1-.1.3-.1.6-.4.8-.7.2-.3.3-.7.3-1s-.2-.9-.5-1.3c-.3-.3-.8-.5-1.3-.5h0Z"/>
    <path class="cls-22" d="M1149.7,173.7c1,0,1.8-.8,1.8-1.8s-.8-1.8-1.8-1.8-1.8.8-1.8,1.8.8,1.8,1.8,1.8Z"/>
  </g>
  <g id="planet2">
    <path class="cls-3" d="M511.2,1193.7c4.9-14.9,11.5-29.1,19.9-42.4,3.7-6.1,7.8-11.9,12.2-17.5,11.4-14.8,24.8-27.8,39.9-38.8,3-2.1,5.8-4.1,8.8-6.1,6.3-4.3,13-8.1,19.8-11.4,4.3-2.3,8.7-4.3,13.3-6.1,6.5-2.7,13.1-5.1,19.9-7.1,9-2.6,18.1-4.6,27.4-6,11.5-1.6,23.1-2.3,34.7-2,34.3.6,67.8,10.2,97.4,27.6h.3c8.5,5,16.6,10.6,24.3,16.9,3.6,2.9,7,5.9,10.4,9s6.8,6.6,10.1,10.1c2.3,2.3,4.5,4.9,6.7,7.6,2.8,3.3,5.5,6.7,8,10.3,5.6,7.4,10.7,15.2,15.2,23.4,1.2,2.3,2.4,4.5,3.5,6.8,3.7,7.5,7,15.1,9.7,23,1.1,3.2,2.2,6.3,3.1,9.6,4.3,14.8,6.8,30.1,7.6,45.5.3,5.4.5,10.8.3,16.3,0,2.8,0,5.5-.4,8.2-.3,4.3-.7,8.6-1.2,12.9-1.1,8.7-2.8,17.2-5.1,25.7-1.4,5.5-3.1,10.9-5.1,16.2-2.2,6.4-4.7,12.6-7.6,18.7-5.3,11-11.5,21.6-18.8,31.4-4.2,5.9-8.7,11.5-13.6,16.9-5.6,6.2-11.6,12.1-17.9,17.5-6.6,5.7-13.6,10.9-20.8,15.8-9.2,6.1-18.8,11.4-28.9,15.8-7.5,3.4-15.3,6.3-23.2,8.7-6.2,1.9-12.6,3.5-18.9,4.8h-.2c-40.3,8.1-82,3.6-119.7-12.8-5.3-2.3-10.5-4.9-15.5-7.6-3.6-1.9-7.1-4-10.5-6.1-4.3-2.6-8.3-5.4-12.3-8.3-2-1.6-4.1-3.1-6.1-4.7-7.3-5.7-14.1-11.9-20.5-18.6-21.6-22.5-37.6-49.8-46.8-79.6-4.6-14.6-7.5-29.8-8.6-45.1-.4-6.4-.6-12.9-.4-19.4.1-6.1.6-12.2,1.4-18.3,1.4-13.8,4.3-27.4,8.6-40.5l-.4-.3Z"/>
    <path class="cls-6" d="M511.2,1193.7c4.9-14.9,11.5-29.1,19.9-42.4,3.7-6.1,7.8-11.9,12.2-17.5,11.4-14.8,24.8-27.8,39.9-38.8,3-2.1,5.8-4.1,8.8-6.1,6.3-4.3,13-8.1,19.8-11.4,4.3-2.3,8.7-4.3,13.3-6.1,6.5-2.7,13.1-5.1,19.9-7.1,9-2.6,18.1-4.6,27.4-6,11.5-1.6,23.1-2.3,34.7-2,34.3.6,67.8,10.2,97.4,27.6h.3c8.5,5,16.6,10.6,24.3,16.9,3.6,2.9,7,5.9,10.4,9s6.8,6.6,10.1,10.1c2.3,2.3,4.5,4.9,6.7,7.6,2.8,3.3,5.5,6.7,8,10.3,5.6,7.4,10.7,15.2,15.2,23.4,1.2,2.3,2.4,4.5,3.5,6.8,3.7,7.5,7,15.1,9.7,23,1.1,3.2,2.2,6.3,3.1,9.6,4.3,14.8,6.8,30.1,7.6,45.5.3,5.4.5,10.8.3,16.3,0,2.8,0,5.5-.4,8.2-.3,4.3-.7,8.6-1.2,12.9-1.1,8.7-2.8,17.2-5.1,25.7-1.4,5.5-3.1,10.9-5.1,16.2-2.2,6.4-4.7,12.6-7.6,18.7-5.3,11-11.5,21.6-18.8,31.4-4.2,5.9-8.7,11.5-13.6,16.9-5.6,6.2-11.6,12.1-17.9,17.5-6.6,5.7-13.6,10.9-20.8,15.8-9.2,6.1-18.8,11.4-28.9,15.8-7.5,3.4-15.3,6.3-23.2,8.7-6.2,1.9-12.6,3.5-18.9,4.8h-.2c-40.3,8.1-82,3.6-119.7-12.8-5.3-2.3-10.5-4.9-15.5-7.6-3.6-1.9-7.1-4-10.5-6.1-4.3-2.6-8.3-5.4-12.3-8.3-2-1.6-4.1-3.1-6.1-4.7-7.3-5.7-14.1-11.9-20.5-18.6-21.6-22.5-37.6-49.8-46.8-79.6-4.6-14.6-7.5-29.8-8.6-45.1-.4-6.4-.6-12.9-.4-19.4.1-6.1.6-12.2,1.4-18.3,1.4-13.8,4.3-27.4,8.6-40.5l-.4-.3Z"/>
    <path class="cls-22" d="M511.2,1193.7c6.4,0,12.7.7,18.9,2,8.9,1.9,17.5,5.2,26.5,6.9,11.4,2.1,23.2,1.4,34.6,2.7,11.5,1.3,23.5,4.9,31.2,13.7-28.1,1.4-56.1,4.6-83.7,9.5-12.1,2.2-24.2,4.4-36.3,5.5,1.4-13.7,4.3-27.3,8.8-40.4h0Z"/>
    <path class="cls-22" d="M828.2,1272.3c17.1-2.5,34.3-3.7,51.6-3.8,7.8,0,15.6.7,23.3,1.7-.3,4.3-.7,8.6-1.2,12.9h-1.9c-24.4,1.2-48.8-2.5-71.8-10.8h0Z"/>
    <path class="cls-22" d="M732.6,1208.6c3.2-.9,6.4-1,9.7-.5,13,.9,26.1.7,39-.7,11.4-.9,22.5-2.2,33.7-3.3,8.7-.7,17.3-2.1,25.8-4.5,4.6-1.7,9.3-3.1,14.1-4.2,6-.5,12-.2,17.8,1.1,7.6,1.3,15.2,2.5,22.7,3.8,4.3,14.8,6.8,30.1,7.6,45.5-5.2,0-10.3-.7-15.4-1.9-8.6-2-16.9-5.7-25.8-6.7-7.9-.8-15.9.5-23.8,0-8.4-.8-16.7-2.4-24.8-4.7-28.4-6.5-58.2-6.5-85.5-16.4-.3-1.7,0-3.4,1-4.8.9-1.4,2.3-2.4,4-2.9v.2Z"/>
    <path class="cls-22" d="M583.2,1094.7c3-2.1,5.8-4.1,8.8-6.1,6.3-4.2,13-8.1,19.8-11.4,4.3-2.3,8.7-4.3,13.3-6.1.9,0,1.8.4,2.7.7,45,12.1,90.8,20.8,137.1,26,24.8,2.8,50.6,4.9,74.4,11.9,3.5,3.3,6.8,6.6,10.1,10.1-25.3-6.3-51.2-10.6-77.2-12.7-22.2-1.4-44.5-.4-66.5-2.5-20-1.8-39.8-6.4-59.8-5.3-4.4.3-8.9.7-13.3,1-14.9.5-29.9-1-44.4-4.5-1.6-.3-3.3-.7-4.9-1.1h0Z"/>
    <path class="cls-22" d="M705.8,1125.9c19.7-4,40.2-2.2,60.3-.3,23,2.7,46.2,3.6,69.4,2.8,6.9-.3,13.7-1.1,20.7-1.2,2.8,3.3,5.5,6.7,8,10.3,5.6,7.4,10.7,15.2,15.2,23.4,1.2,2.3,2.4,4.5,3.5,6.8-2.1-.3-4.1-.5-6-.7-11.8-.9-23.6-1.8-35.3-3.6-8.9-1.3-17.8-3.2-26.5-5.5-7-1.8-13.9-4.2-20.5-7-5.6-2.4-10.9-5.3-16.5-7.6-6.6-2.6-13.3-4.9-20.1-6.8-17-5.1-34.3-10.2-52-10.7h-.2Z"/>
    <path class="cls-22" d="M811.8,1144.4c9-2.1,18.4,0,27.4-1.8,3.4-.7,6.7-1.9,10.1-2.8,4.9-1.3,9.9-2.1,14.9-2.4,5.6,7.4,10.7,15.2,15.2,23.4-11.3-.9-22.6-2.5-33.8-4.7-6.2-1.2-12.4-2.6-18.5-3.8-3.5-.8-15.8-1.7-17.8-4.2-1.3-1.4.9-3.2,2.7-3.7h-.2Z"/>
    <path class="cls-22" d="M543.3,1133.6c6.1-7.8,12.7-15.2,19.9-22.1,10,1,19.8,2.8,29.5,5.5,7.7,2.2,15.7,3.8,23.7,4.7,10.5.6,20.9-1.6,31.4-1.8,10.5-.2,21.8,1.7,29.1,9.3-13.6.8-27.2,1.7-40.7,2.5-23.6,1.4-47.2,2.3-70.9,2.2-7.3,0-14.6,0-21.9-.4h0Z"/>
    <path class="cls-22" d="M597.8,1090.1c-1.4-.5-3.5-1-5.8-1.5,6.3-4.2,13-8.1,19.8-11.4,10,2.6,20.1,4.3,30.3,5.4,17,1.8,35.2,1.8,49.3,11.8l-22-2.4c-14.6-2.2-29.4-2.6-44.1-1.3-5.4,1-10.9,1.6-16.4,1.6-3.7-.3-7.4-1.1-11-2.2h0Z"/>
    <path class="cls-22" d="M645,1064c9-2.6,18.1-4.6,27.4-6,11.5-1.6,23.1-2.3,34.7-2,34.3.7,67.9,10.3,97.4,27.9h.3c8.5,5,16.6,10.6,24.3,16.9-13.4,0-31.3-5.2-37.1-6.2-15.2-2.6-30.6-5.3-45.8-8.1-33.8-6.4-67.7-14-101-22.4h-.2Z"/>
    <path class="cls-22" d="M672.5,1057.9c11.5-1.6,23.1-2.3,34.7-2.1,34.3.8,67.8,10.4,97.3,28-2.6-.7-5.4-1.1-8.1-1-2.6,0-5.2.9-7.9,1.3-3.4.2-6.8,0-10.1-.2-12.8-.8-25.4-2.7-37.9-5.6-11.4-2.9-21.9-7.6-32.9-11.4-11.5-3.9-23.2-6.9-35.1-9h0Z"/>
    <path class="cls-22" d="M577.3,1303c1.4-2.4,4.6-3,7.3-3.8,11.1-2.8,20.5-10.2,30.9-14.9,16.7-7.6,35.6-8.2,53.9-8.8,10.2-.5,20.5-.3,30.7.4,8.9,1.1,17.8,2.7,26.5,4.8,18.9,4.4,37.5,9.7,56.1,15.2,34.1,10,68.2,20.5,103.2,27.2,2,.4,4,1,5.9,1.6-2.2,6.4-4.7,12.6-7.6,18.7-11.4.4-23.8-1.9-34.1-2.1-31.1-.9-61.7,6.9-91.5,16-8.6,3-17.5,5-26.5,5.9-12.2.7-24.3-2.8-36-6.2-13.6-4.1-27.3-8.2-40.8-12.4-7.2-2.1-14.2-4.7-20.9-8-5.7-3.1-11-6.8-16.5-10.2-9-5.3-18.7-9.2-28.8-11.6-3.2-.5-6.3-1.6-9.1-3.4-1.4-.9-2.5-2.2-2.9-3.8-.5-1.6-.4-3.3.3-4.8v.2Z"/>
    <path class="cls-22" d="M761.9,1339.8c-12.4,2.6-25,3.5-37.6,2.5-16.3.2-32.6-1.4-48.5-4.7-12.1-3.4-24-7.7-35.4-13-6.9-3-14.3-6.3-18.3-12.7,37.7-22.7,85.6-19.2,128.5-9,26.3,6.2,52,14.6,77.7,23-2.3-.8-13.8,5.5-16.9,6.2-4.7.8-9.5.8-14.1,0-12.8-.8-23.3,4.5-35.4,7.7Z"/>
    <path class="cls-22" d="M510,1316.6c4.6.3,9.2.9,13.7,1.8,7.9,1.6,17.2,6.4,16.6,14.5,18.9-.3,39.5-.2,55.1,10.5-7.4,1.8-14.7,3.6-22.1,5.5l188.8,29.9c5.5,1.2,11.1,1.6,16.8,1.2,11.9-1.1,22.1-8.4,33.7-11.4,14.2-3.4,36.3-.3,52.8,6.3-4.2,5.9-8.7,11.5-13.6,16.9-5.6,6.2-11.6,12.1-17.9,17.5-6.6,5.7-13.6,10.9-20.8,15.8-40.6-3.5-80.3-14.6-119.7-25.6,14.6-1.3,29.2-2.6,43.8-3.8,8-.8,16.7-1.6,22.7-6.9-23.7-4.2-47.6-7.5-71.5-9.7-13.6-1.2-27.2-2.1-40.9-3-23.4-1.4-46.8-2.9-70.3-4.5-2.2-.4-4.4,0-6.4.7-1,.5-1.7,1.3-2.1,2.4-.4,1-.3,2.2.2,3.2.5.5,1.1,1,1.7,1.3.7.3,1.4.5,2.1.5l21.9,5c6.7,1.5,15.2,5.9,13.1,12.4-12.4,0-25-.4-37.5-.7-4.4,0-8.9,0-13.4-.4-21.6-22.5-37.6-49.7-46.8-79.4h0Z"/>
    <path class="cls-22" d="M577.3,1414.8c10.5-1.6,21.1-2,31.7-1.2,23.6,1.5,46.8,6.9,70,11.6,6.2,1.5,12.6,2.3,18.9,2.3,7.1-.2,14.1-2.3,21.3-2.4,11.2,0,21.7,4.5,32.2,8.3,6.3,2.2,21.1,4,32.9,7.6-7.5,3.4-15.3,6.3-23.2,8.7-.2,0-.4,0-.6-.2-14.4-5.3-29.4-8.7-44.6-10.2-33.1-4.7-66.4-9.3-99.7-6.9-3.2.2-6.4.7-9.6,1.5-3.6-1.9-7.1-4-10.5-6.1-4.3-2.6-8.3-5.4-12.3-8.3-2.2-1.6-4.3-3.1-6.3-4.7h-.2Z"/>
    <path class="cls-22" d="M792.8,1398.7c17.7-9.2,38.7-8.9,58.9-6.8-5.6,6.2-11.6,12.1-17.9,17.5-14.1-1.9-27.8-5.5-41-10.8h0Z"/>
    <path class="cls-22" d="M621.8,1441.6c29.6-5.1,60-1.7,89,5.4,10.3,2,20.6,4.5,30.7,7.6-40.3,8.1-82,3.6-119.7-12.9h0Z"/>
    <path class="cls-22" d="M583.4,1419.5c2-.4,4-.5,6-.7,13.9-1.2,28.3-2.4,41.7,1.2-9.6-2.4-22.7,3-35.5,7.8-4.2-2.6-8.2-5.4-12.2-8.3Z"/>
  </g>
  <path class="cls-22" d="M502.3,1233.9c-.8,6.1-1.2,12.2-1.4,18.3,0,6.5,0,13,.4,19.4,4.8.8,9.6,1,14.4.4,22.5-1.6,45-3.2,67.6-4.8-7.2-7.9-19.4-8.3-30.1-7.1-10.6,1.1-22.1,3.1-31.6-1.8,15.9-10.8,34.8-16.3,54.1-15.7,13.2.4,26.3,3.8,39.3,2.4,11.4-1.1,22.7-5.8,34.1-4.5,5.5.9,10.9,2.3,16.2,4.1,57.5,16.6,122.2-15.2,178.1,6.4-34.6,3.9-69.2,7.7-103.8,11.4,14.5,13.1,36.3,12.3,55.6,14.7,21.3,2.7,41.8,10,60,21.6,6,4.6,12.8,8.1,20.1,10.3,5.6.9,11.4.9,17,0,1.5,0,3-.3,4.5-.5,2.2-8.4,3.9-17,5.1-25.7.5-4.2.9-8.6,1.2-12.9.2-2.7.3-5.4.4-8.2.2-5.5,0-10.8-.3-16.3-.8-15.4-3.3-30.7-7.6-45.5-.9-3.2-1.9-6.4-3.1-9.6-13.9,0-28,1.7-41.7-.9-5.7-1.1-11.4-2.8-16.9-3.8-6.4-1-12.8-1.4-19.2-1.4l-129.3-2.9c-17.9-.4-35.7-.8-53.5-2.9,39.7-9.8,80.6-13.6,121.5-11,6.4.4,13.2.8,18.6-2.5-19.4-14.1-46.2-8.7-70.1-11.4-10.8-1.1-21.3-4-32.2-3.8-9.9.2-19.7,2.9-29.5,4-10.7,1-21.4,1.1-32.1.3-25.6-1.1-51.2-2.3-76.9-3.5-8.4,13.4-15.2,27.7-20.1,42.8-4.4,13-7.4,26.5-8.9,40.2v.4ZM598.7,1168.1c8.1-2.2,16.4-3.3,24.7-3.5l3,3c-13.4,5.6-28.2,6.9-42.4,3.8,4.8-1.2,9.6-2.2,14.7-3.3Z"/>
  <g id="planet1">
    <path class="cls-3" d="M1309.4,1267.9c-63.6,29.3-107.1,70.3-97.2,91.7,9.9,21.4,69.3,14.9,132.9-14.4,63.5-29.3,107-70.4,97.2-91.7-9.9-21.3-69.3-14.9-132.9,14.4ZM1340.7,1335.9c-55.6,25.6-107.1,32.2-115.2,14.8-8-17.4,30.5-52.3,86.1-77.9s107.1-32.3,115.2-14.9-30.5,52.3-86.1,78Z"/>
    <path class="cls-10" d="M1309.4,1267.9c-63.6,29.3-107.1,70.3-97.2,91.7,9.9,21.4,69.3,14.9,132.9-14.4,63.5-29.3,107-70.4,97.2-91.7-9.9-21.3-69.3-14.9-132.9,14.4ZM1340.7,1335.9c-55.6,25.6-107.1,32.2-115.2,14.8-8-17.4,30.5-52.3,86.1-77.9s107.1-32.3,115.2-14.9-30.5,52.3-86.1,78Z"/>
    <path class="cls-3" d="M1310.9,1271.2c-51.3,23.7-86.6,56.2-79,72.8,7.7,16.6,55.4,10.8,106.6-12.8,51.3-23.7,86.6-56.2,79-72.8-7.7-16.6-55.4-10.8-106.6,12.8ZM1335.2,1323.9c-44.8,20.7-86.2,26.5-92.5,13-6.3-13.6,25.1-41.2,69.9-61.9,44.8-20.7,86.2-26.5,92.5-13,6.2,13.6-25.1,41.2-69.9,61.9Z"/>
    <path class="cls-9" d="M1310.9,1271.2c-51.3,23.7-86.6,56.2-79,72.8,7.7,16.6,55.4,10.8,106.6-12.8,51.3-23.7,86.6-56.2,79-72.8-7.7-16.6-55.4-10.8-106.6,12.8ZM1335.2,1323.9c-44.8,20.7-86.2,26.5-92.5,13-6.3-13.6,25.1-41.2,69.9-61.9,44.8-20.7,86.2-26.5,92.5-13,6.2,13.6-25.1,41.2-69.9,61.9Z"/>
    <path class="cls-3" d="M1312.4,1274.5c-40.2,18.6-68,44.2-61.8,57.2,6.1,13,43.5,8.5,83.8-10.1,40.2-18.6,68-44.1,62-57.1s-43.7-8.5-83.9,10h0ZM1331.3,1315.9c-35.2,16.2-67.7,20.8-72.6,10.2s19.7-32.4,54.9-48.6c35.2-16.2,67.7-20.8,72.6-10.2s-19.5,32.5-54.7,48.6h-.2Z"/>
    <path class="cls-14" d="M1312.4,1274.5c-40.2,18.6-68,44.2-61.8,57.2,6.1,13,43.5,8.5,83.8-10.1,40.2-18.6,68-44.1,62-57.1s-43.7-8.5-83.9,10h0ZM1331.3,1315.9c-35.2,16.2-67.7,20.8-72.6,10.2s19.7-32.4,54.9-48.6c35.2-16.2,67.7-20.8,72.6-10.2s-19.5,32.5-54.7,48.6h-.2Z"/>
    <path class="cls-3" d="M1384.3,1326.4c10.9-31.6-5.8-66-37.4-76.9s-66,5.8-76.9,37.4,5.8,66,37.4,76.9,66-5.8,76.9-37.4Z"/>
    <path class="cls-6" d="M1283.2,1265.1c6.3-6.7,14-11.8,22.6-15s17.8-4.5,26.9-3.6c1.4,0,2.9.3,4.3.6,13.9,2.3,26.6,9.4,35.8,20,1,1.2,2,2.4,2.9,3.8,2.8,3.8,5.1,7.8,7,12.1,1,2.2,1.8,4.5,2.5,6.9,2.1,6.9,2.8,14.1,2.3,21.3v1.1c-.2,1.8-.4,3.5-.7,5.2-1,5.9-3,11.5-5.7,16.8-1,2-2.1,3.9-3.3,5.7-6,9.1-14.4,16.5-24.3,21.2s-20.8,6.7-31.7,5.8c-6.6-.6-13-2.3-18.9-5-.5-.2-1-.4-1.4-.7-5.7-2.6-10.9-6.2-15.5-10.6l-.5-.5c-4.8-4.6-8.8-9.9-11.8-15.9-.8-1.3-1.4-2.7-1.9-4.1-.6-1.3-1.2-2.6-1.6-4-.7-2.2-1.3-4.4-1.8-6.6-1.4-6-1.8-12.2-1.2-18.4,1.1-13.5,6.8-26.2,16.1-36.1h-.1Z"/>
    <g class="cls-24">
      <path class="cls-20" d="M1377.2,1340.6c-6.1,9-14.4,16.1-24.2,20.7-9.8,4.6-20.6,6.5-31.3,5.5-5.9-.5-11.7-1.9-17.2-4.2,19.3-1.3,47.7-4.5,72.7-22.1h0Z"/>
      <path class="cls-20" d="M1328.3,1294.8c12.9-5,39-10.8,50.7-19.1.5.8,1,1.6,1.4,2.5-6.5,4.5-12.6,9.6-18.2,15.2-13,11.8-19.4,22.7-41,23.6-21.5.8-7.3-16.4,7-22.1h0Z"/>
      <path class="cls-20" d="M1290.4,1354.7c18.9-2.4,64.6-10.5,95.9-35.2-.5,2.2-1.1,4.2-1.8,6.4-19.9,10.1-56.8,29.7-88,32.9-2.1-1.2-4.2-2.6-6.1-4h0Z"/>
      <path class="cls-20" d="M1276,1338.7c12.2-1.7,24.4-4.3,36.3-7.6,24.4-7.3,58.2-24.5,73.9-37.9.8,3.5,1.3,7,1.4,10.5-19.5,13-66.5,41.7-105.7,42.7-2.2-2.4-4.1-5-5.8-7.7h-.1Z"/>
      <path class="cls-20" d="M1275.1,1276.1c.8-1.6,1.8-3,2.8-4.5,18.3-5.4,53.4-13.8,69.5-22,2.4.8,4.8,1.8,7.1,3-20,4.6-61.4,19.3-79.3,23.5h0Z"/>
      <path class="cls-20" d="M1270.4,1285.8c13.9-4.5,28.2-7.3,42.8-8.5,9.8,0,38.7-11.4,49-20.1.8.5,1.6,1.1,2.3,1.8-25.1,10.6-55.7,36.7-69.8,44.3-8.7,4.7-17.8,8.6-27.3,11.6-.7-4.6-.8-9.2-.4-13.9.5-5.2,1.6-10.3,3.4-15.3h0Z"/>
    </g>
    <path class="cls-22" d="M1268.1,1319.4c4.4-1,8.8-2.3,13-3.8,16.6-5.6,46.4-29.8,72.8-40.9,9.9-4.1,15.6-6.5,18.9-7.8,1,1.2,2,2.4,2.9,3.8-7.6,4.4-15.4,8.3-23.5,11.8-16.8,7-34.8,16.6-45.1,25.2-7.9,6.6-27.9,15.2-37.2,18.3-.8-2.2-1.4-4.4-1.8-6.7h0Z"/>
    <path class="cls-22" d="M1271.5,1330.1c15.2-3.8,30.7-6.6,46.3-8.5,26.2-3,36.2-14.7,46.9-25.7,5.3-5.2,11.4-9.6,18.1-12.9,1,2.2,1.8,4.5,2.5,6.9-12.1,10-25.4,18.5-39.6,25.1-24.8,11.6-59.3,17.3-72.2,19.1-.7-1.3-1.4-2.6-1.9-4h-.1Z"/>
    <path class="cls-22" d="M1285.2,1350c22.7-2.9,44.8-9.6,65.4-19.6,16.9-8.3,28.9-14.9,36.9-19.4v1.1c-.2,1.8-.4,3.5-.7,5.2-19,10.1-62.8,31-101,33.1-.3,0-.4-.3-.6-.4h0Z"/>
    <path class="cls-22" d="M1283.2,1265.1c6.3-6.6,14-11.8,22.6-15s17.8-4.5,26.9-3.6c1.4,0,2.9.3,4.3.6-12.9,6-36.8,15.8-53.8,18.1h0Z"/>
    <path class="cls-22" d="M1301.1,1361.1c15.2-3.6,53.9-13.3,70.4-22.4,3.1-1.7,6.2-3.3,9.5-4.6-1,2-2.1,3.9-3.3,5.7-11.8,5.2-34.6,14.6-47.4,16.7-11.4,1.8-21.5,3.8-27.6,5.3-.5-.2-1-.4-1.5-.7h0Z"/>
    <path class="cls-22" d="M1352.3,1257.5s-22.2,13.7-32.1,15.4c-6.1,1-12.2,1.6-18.3,1.7,0,0,32.1-16.4,50.4-17.1Z"/>
    <path class="cls-3" d="M1418.8,1251c3.5,1.3,6.3,3.8,8,7.1,8,17.4-30.5,52.3-86.1,77.9s-107.1,32.2-115.2,14.8c-1.4-3.4-1.4-7.2,0-10.6l-13.6,6.3c-1.5,4.3-1.4,9,.3,13.3,9.8,21.4,69.3,14.9,132.9-14.4,63.5-29.3,107.1-70.4,97.2-91.7-2.1-4.1-5.6-7.2-9.9-8.8l-13.6,6.1h0Z"/>
    <path class="cls-10" d="M1418.8,1251c3.5,1.3,6.3,3.8,8,7.1,8,17.4-30.5,52.3-86.1,77.9s-107.1,32.2-115.2,14.8c-1.4-3.4-1.4-7.2,0-10.6l-13.6,6.3c-1.5,4.3-1.4,9,.3,13.3,9.8,21.4,69.3,14.9,132.9-14.4,63.5-29.3,107.1-70.4,97.2-91.7-2.1-4.1-5.6-7.2-9.9-8.8l-13.6,6.1h0Z"/>
    <path class="cls-3" d="M1402.1,1258.6c1.2.9,2.2,2.1,2.8,3.4,6.2,13.5-25.1,41.2-69.9,61.9-44.8,20.7-86.2,26.5-92.5,13-.6-1.4-.9-2.9-.8-4.4l-11,5.1c-.3,2.2,0,4.4.9,6.4,7.6,16.6,55.4,10.8,106.6-12.8,51.3-23.7,86.6-56.2,79-72.8-1-2-2.4-3.7-4.3-4.9l-11,5.1h.2Z"/>
    <path class="cls-9" d="M1402.1,1258.6c1.2.9,2.2,2.1,2.8,3.4,6.2,13.5-25.1,41.2-69.9,61.9-44.8,20.7-86.2,26.5-92.5,13-.6-1.4-.9-2.9-.8-4.4l-11,5.1c-.3,2.2,0,4.4.9,6.4,7.6,16.6,55.4,10.8,106.6-12.8,51.3-23.7,86.6-56.2,79-72.8-1-2-2.4-3.7-4.3-4.9l-11,5.1h.2Z"/>
    <path class="cls-3" d="M1385.7,1266.3c.3.3.5.7.7,1.1,4.9,10.6-19.7,32.4-54.9,48.6-35.2,16.2-67.7,20.8-72.6,10.2,0-.4-.2-.8-.3-1.2l-8.9,4.1c0,1,.3,1.9.7,2.8,6,13,43.5,8.5,83.8-10.1,40.2-18.6,68-44.1,62-57.1-.4-.8-1-1.6-1.6-2.3l-8.9,4.1v-.2Z"/>
    <path class="cls-14" d="M1385.7,1266.3c.3.3.5.7.7,1.1,4.9,10.6-19.7,32.4-54.9,48.6-35.2,16.2-67.7,20.8-72.6,10.2,0-.4-.2-.8-.3-1.2l-8.9,4.1c0,1,.3,1.9.7,2.8,6,13,43.5,8.5,83.8-10.1,40.2-18.6,68-44.1,62-57.1-.4-.8-1-1.6-1.6-2.3l-8.9,4.1v-.2Z"/>
  </g>
  <g id="space-shuttle">
    <path class="cls-3" d="M216.5,733.1l-14.2,5.9c-.6,3.3-.5,6.8.2,10.1s2.1,6.4,4.1,9.2c1.9,2.3,4.2,4.2,6.8,5.6,2.6,1.4,5.5,2.2,8.5,2.3l9.9-18.9-15.3-14.1h0Z"/>
    <path class="cls-21" d="M231.9,747.2l-9.9,18.9c-4.3-.2-8.3-1.8-11.7-4.5-1.4-1-2.7-2.1-3.8-3.4-2-2.8-3.3-5.9-4.1-9.2-.7-3.3-.8-6.7-.1-10.1l14.2-5.7,15.3,14h.1Z"/>
    <path class="cls-13" d="M231.9,747.2l-9.9,18.9c-4.3-.2-8.3-1.8-11.7-4.5l21.6-14.5h0Z"/>
    <path class="cls-3" d="M229.9,750.9l-12.8,14.6s3,12,14.7,12.7,16.1-5.1,16.1-5.1l.6-16.6-18.6-5.6h0Z"/>
    <path class="cls-21" d="M229.9,750.9l-12.8,14.6s3,12,14.7,12.7,16.1-5.1,16.1-5.1l.6-16.6-18.6-5.6h0Z"/>
    <path class="cls-3" d="M307.9,691.5c-16.5,16.9-38.4,79.2-37.4,87.7,1,8.4-24,23-24,23l-9.9-123.8s16.9-14.7,24.2-16.9,22.7,14.9,35.3,4.4c12.6-10.5,11.8,25.7,11.8,25.7h0Z"/>
    <path class="cls-9" d="M270.5,779.2c.6,4.7-6.9,11.4-13.7,16.2-5.3,3.8-10.2,6.7-10.2,6.7l-10-123.8s8-7,15.4-12.1c2.7-2,5.7-3.6,8.8-4.8,7.3-2.2,22.7,14.9,35.3,4.4,1-.9,2.2-1.5,3.4-1.9,4.5-.9,6.7,5.8,7.6,12.8.6,4.9.9,9.8.8,14.7-16.5,16.9-38.4,79.3-37.4,87.7h0Z"/>
    <path class="cls-13" d="M270.5,779.2c.6,4.7-6.9,11.4-13.7,16.2,8.3-8.7,7.2-17.1,8.9-35,1.7-17.9,12.1-53.1,12.1-53.1-1-9.7-4.5-19-10-26.9-5.9-9.1-11.4-13.2-15.8-14,2.7-2,5.7-3.6,8.8-4.8,7.3-2.2,22.7,14.9,35.3,4.4,1-.9,2.2-1.5,3.4-1.9l7.6,12.8c.6,4.9.9,9.8.8,14.7-16.5,16.9-38.4,79.2-37.4,87.7h0Z"/>
    <path class="cls-3" d="M216.5,733.1s87.2-93.4,99-100.6,20.5-4.7,20.5-4.7c0,0,16-3.8,21-.3,5,3.4,1.1,9.6-9.5,24.1-19.7,27-102.8,108.9-102.8,108.9,0,0-27.7-5.3-28.1-27.4h0Z"/>
    <path class="cls-14" d="M351.7,645.5c-1.3,1.9-2.7,3.8-4.3,6.1-19.7,27-102.8,109-102.8,109,0,0-27.7-5.3-28.1-27.4,0,0,87.2-93.3,99-100.5,3.8-2.4,8.1-4.1,12.6-4.9,2.6-.5,5.3-.5,7.8,0l1.9-.5c1.2-.2,2.9-.6,4.8-.9,5-.7,11.4-1.1,14.3.9,4.2,3.2,2,7.9-5.2,18.2h0Z"/>
    <path class="cls-16" d="M322.7,650.7l-2-1.5c-.4-.3-.7-.6-.9-1-.2-.4-.4-.9-.4-1.3s0-.9.1-1.4c.1-.4.4-.9.7-1.2,3.2-3.8,8.4-10.8,7.9-16.5,2.6-.5,5.3-.5,7.8,0l1.9-.5c1.5,8-6.5,18.3-10.5,22.7-.5.7-1.3,1.2-2.2,1.3-.9,0-1.8,0-2.5-.6h.1Z"/>
    <path class="cls-13" d="M351.7,645.5c-2.8-2.3-5.1-5.2-6.6-8.5-1.6-3.3-2.4-6.8-2.5-10.5,5-.7,11.4-1.1,14.3.9,4.2,3.1,2,7.8-5.2,18h0Z"/>
    <g class="cls-24">
      <path class="cls-15" d="M252.7,740.2l-.5-1.3c1.3,0,2.6-.7,3.5-1.7,1.4-1.4,1.4-2.5.7-3.1-1.9-1.9-5.4,4.1-8.4,1.2-1.2-1.2-1.3-3.1.7-5.2.9-.9,2-1.6,3.2-1.9l.5,1.3c-1.1.2-2,.8-2.8,1.6-1.3,1.3-1.4,2.5-.6,3.1,1.9,1.9,5.5-4.1,8.3-1.2,1.3,1.2,1.3,3.2-.8,5.3-1,1.1-2.5,1.9-4,2h.2Z"/>
      <path class="cls-15" d="M263.5,720.7c.4.4.7.9.9,1.4.2.5.3,1.1.2,1.7,0,.6-.2,1.1-.5,1.6s-.7.9-1.1,1.3l-1.9,1.9,2.4,2.4-1.1,1.1-7.9-7.8,3-3.1c.3-.5.8-.9,1.3-1.1.5-.3,1-.5,1.6-.5s1.1,0,1.7.2c.5.2,1,.5,1.5.9h-.1ZM262.4,721.8c-1.1-1.1-2.5-1-3.8.5l-1.9,1.9,3.6,3.5,1.9-1.9c1.3-1.5,1.3-2.8.2-4h0Z"/>
      <path class="cls-15" d="M274,716.2l-4.2,4.2,1.1,2.8-1.1,1.2-4.4-11.4,1.1-1.1,11.4,4.2-1.2,1.2-2.7-1.1h0ZM272.7,715.7l-5.6-2.1,2.2,5.5,3.4-3.4Z"/>
      <path class="cls-15" d="M275.6,710.7c-.6-.5-1-1.2-1.3-1.9s-.5-1.5-.5-2.2.2-1.5.5-2.2.7-1.3,1.3-1.9c.5-.6,1.2-1.1,1.9-1.4.7-.3,1.5-.5,2.3-.5v1.4c-.6,0-1.2,0-1.7.3s-1,.6-1.4,1-.8.9-1,1.4-.4,1.1-.4,1.7,0,1.2.3,1.7c.2.5.6,1,1,1.4s.9.7,1.5.9c.5.2,1.1.3,1.7.3s1.2-.2,1.7-.4c.5-.3,1-.6,1.4-1.1.4-.4.8-.9,1-1.5.2-.5.3-1.1.3-1.7h1.4c0,.8,0,1.6-.4,2.3-.3.7-.8,1.4-1.4,1.9-.5.6-1.1,1-1.8,1.3-.7.3-1.4.5-2.2.5s-1.5,0-2.2-.4c-.7-.3-1.3-.7-1.9-1.2v.3Z"/>
      <path class="cls-15" d="M294.1,697.9l1,1-5.7,5.8-7.9-7.8,5.5-5.6,1,1-4.4,4.5,2.5,2.4,3.8-4,.9.9-3.8,4,2.6,2.5,4.5-4.7h0Z"/>
      <path class="cls-15" d="M300.4,688.7c.3.4.6.8.8,1.3.2.5.2,1,.2,1.5s-.2,1-.4,1.5c-.2.5-.6.8-1,1.2-1,1.1-2.3,1.8-3.8,2l-.4-1.4c1.2,0,2.4-.7,3.2-1.6,1.2-1.2,1.3-2.4.5-3.3-.8-.8-2-.9-3.8,1l-1.8,1.8-3.8-4.5,4.4-4.5,1,1-3.5,3.5,2,2.3.9-.9c2.3-2.4,4.2-2.3,5.6-1h-.1Z"/>
      <path class="cls-15" d="M302.4,675.5l.8.8,4,10.3-1.2,1.2-3.8-10-3.6,3.8,1.4,1.4-1.1,1.1-2.4-2.4,5.8-6.2h.1Z"/>
    </g>
    <path class="cls-13" d="M308.6,659.6l2.7-2.8c.6-.6,1.4-1,2.2-1s1.7.2,2.3.8l8,6.6c.4.3.6.7.9,1.1.2.4.3.9.3,1.3s0,.9-.2,1.4c-.2.4-.4.8-.8,1.2l-3,3c-.6.6-1.5.9-2.3.9s-1.7-.3-2.3-.9l-7.6-6.9c-.6-.6-1-1.4-1.1-2.2,0-.9.2-1.7.7-2.4h.2Z"/>
  </g>
  <g id="error404">
    <path class="cls-3" d="M690.5,889.7l-39,10.5,13.6,50.4-28.4,7.6-13.6-50.4-114,30.9-5.5-20.5,68.6-162.5,31.6-8.6-65.4,156.7,78.8-21.3-12.1-44.5,27.6-7.6,12.1,44.5,39-10.5,6.7,25.3h0Z"/>
    <path class="cls-3" d="M694,832.8c-18.1-66.8,7.4-114.6,55.4-127.6,48.1-13,93.8,15.5,111.9,82.3s-7.4,114.6-55.1,127.5c-47.8,12.9-94.1-15.4-112.2-82.2h0ZM832,795.5c-14.2-52.4-43.8-72.8-75.6-64.1s-47.4,41.1-33.2,93.6c14.2,52.4,43.6,72.8,75.8,64.1s47.1-41.1,32.9-93.6h0Z"/>
    <path class="cls-3" d="M1081.9,783.8l-38.9,10.6,13.6,50.4-28.4,7.6-13.6-50.4-114,30.8-5.6-20.5,68.6-162.6,31.6-8.6-65.4,156.7,78.8-21.4-12-44.4,27.5-7.6,12,44.8,38.9-10.6,6.8,25v.2Z"/>
    <path class="cls-3" d="M566.3,668.2l5,18.3-76.5,20.7-26.8-98.9,74.7-20.2,5,18.3-52,14.1,5.8,21.5,45.9-12.4,4.8,17.8-45.9,12.4,6.2,22.7,53.8-14.4h0Z"/>
    <path class="cls-3" d="M652.5,664.6l-26.5-22.4-1.1.3-19.9,5.5,7.6,27.6-22.7,6.2-26.8-98.9,42.8-11.4c26.5-7.2,46.7,2.1,52.6,24.3,2.1,6.6,2,13.7,0,20.2s-6.2,12.3-11.8,16.4l30.8,25.8-24.9,6.4h0ZM609.3,590.2l-18.6,5,9.3,34.4,18.6-5c14-3.8,19.3-12.2,16.4-22.9-2.9-10.7-11.7-15.3-25.7-11.5Z"/>
    <path class="cls-3" d="M756.3,636.6l-26.5-22.4-1.1.3-20,5.3,7.6,27.5-22.7,6.2-26.8-98.9,42.8-11.6c26.5-7.1,46.6,2.1,52.6,24.3,2.1,6.6,2,13.7,0,20.2-2.1,6.6-6.2,12.3-11.8,16.5l30.8,25.8-24.8,6.8h0ZM713.1,562.2l-18.6,5,9.3,34.5,18.6-5c14-3.8,19.3-12.2,16.4-22.9-2.9-10.7-11.7-15.5-25.7-11.7h0Z"/>
    <path class="cls-3" d="M777.5,577.7c-8-29.4,9.1-57.3,40.2-65.7s60,7,67.9,36.5c8,29.5-9.2,57.4-40.2,65.8-31,8.4-60-7.1-67.9-36.5h0ZM862.5,554.7c-1.8-6.1-5.3-11.4-10.2-15.5-4.8-4.1-10.8-6.6-17-7.3-6.3-.7-12.6.5-18.2,3.4-5.6,2.9-10.2,7.4-13.3,12.9s-4.5,11.8-4,18.1,2.8,12.3,6.7,17.3,9.1,8.7,15.1,10.7,12.4,2.2,18.5.5c4.2-1,8.1-2.9,11.5-5.5s6.3-5.9,8.4-9.6c2.1-3.8,3.4-7.9,3.8-12.2s0-8.6-1.4-12.7h.1Z"/>
    <path class="cls-3" d="M979.3,576l-26.5-22.4-1.1.3-19.9,5.4,7.6,27.5-22.7,6.2-26.8-98.9,42.5-11.4c26.5-7.1,46.7,2.1,52.6,24.3,2.1,6.6,2.1,13.7,0,20.3s-6.2,12.3-11.8,16.5l30.8,25.8-24.5,6.5h-.2ZM936,501.7l-18.6,5.1,9.3,34.4,18.6-5c14-3.8,19.3-12.2,16.4-22.9-2.9-10.7-11.6-15.3-25.7-11.6h0Z"/>
  </g>
  <path class="cls-3" d="M1242.2,1188.5h-162c-4.4,0-8.8-.9-12.8-2.6-4.1-1.7-7.8-4.2-10.9-7.3-3.1-3.1-5.6-6.8-7.3-10.9-1.7-4.1-2.5-8.4-2.5-12.8v-56.8c0-8.9,3.5-17.4,9.8-23.7,6.3-6.3,14.8-9.8,23.7-9.8h107.6l26.5-33.7-3.8,33.7h31.8c4.4,0,8.8.8,12.8,2.5,4.1,1.7,7.8,4.1,10.9,7.2s5.6,6.8,7.3,10.9c1.7,4.1,2.6,8.4,2.6,12.8v56.8c0,4.4-.9,8.8-2.6,12.9s-4.2,7.8-7.3,10.9c-3.1,3.1-6.8,5.6-10.9,7.3-4.1,1.7-8.5,2.5-12.9,2.5h0Z"/>
  <path class="cls-20" d="M1088.1,1123.8c0-3.8.9-7.6,2.9-10.9s5-5.8,8.4-7.4c3.5-1.6,7.4-2.1,11.1-1.4,3.8.7,7.3,2.4,10,5.1,2.8,2.7,4.7,6.1,5.5,9.8.8,3.7.5,7.6-.9,11.2s-3.9,6.6-7,8.8c-3.2,2.2-6.9,3.3-10.7,3.3-2.5,0-5-.3-7.3-1.2-2.3-.9-4.5-2.2-6.3-3.9-1.8-1.7-3.2-3.8-4.2-6.1-1-2.3-1.5-4.8-1.5-7.3ZM1121.4,1123.8c0-2.8-.8-5.5-2.3-7.9-1.5-2.3-3.7-4.2-6.3-5.2-2.6-1.1-5.4-1.4-8.1-.9s-5.3,1.9-7.2,3.8c-2,2-3.3,4.5-3.9,7.2s-.3,5.6.8,8.2c1.1,2.6,2.9,4.8,5.2,6.3,2.3,1.6,5.1,2.4,7.9,2.3,1.8,0,3.7-.3,5.4-.9,1.7-.7,3.3-1.7,4.6-3,1.3-1.3,2.3-2.9,3-4.6s1-3.6,1-5.4h0Z"/>
  <path class="cls-20" d="M1131.2,1128.2c0-2.8.8-5.6,2.3-8s3.7-4.2,6.3-5.3c2.6-1.1,5.5-1.4,8.2-.9,2.8.5,5.3,1.8,7.3,3.8s3.4,4.5,4,7.3.3,5.6-.8,8.2c-1.1,2.6-2.9,4.8-5.2,6.4-2.3,1.6-5.1,2.4-7.9,2.4s-3.8-.2-5.5-.9c-1.8-.7-3.3-1.7-4.7-3-1.3-1.3-2.4-2.9-3.1-4.6s-1-3.6-1-5.5h0ZM1154.6,1128.2c0-2.4-1-4.8-2.7-6.5s-4.1-2.7-6.5-2.7-4.8,1-6.5,2.7-2.7,4.1-2.7,6.5,1,4.8,2.7,6.5,4.1,2.7,6.5,2.7,4.8-1,6.5-2.7,2.7-4.1,2.7-6.5Z"/>
  <path class="cls-20" d="M1194.9,1128.2c0,1.9-.2,3.7-.8,5.4-.7,1.7-1.7,3.3-3,4.6-1.3,1.3-2.9,2.3-4.6,3s-3.6,1-5.4.9c-1.8,0-3.6-.3-5.3-1.1-1.7-.8-3.1-1.9-4.2-3.4v14.3h-5v-37.5h4.8v4.4c1.1-1.5,2.6-2.7,4.3-3.5,1.7-.8,3.6-1.2,5.4-1.1,1.8,0,3.7.2,5.4.9,1.7.7,3.3,1.7,4.6,3,1.3,1.3,2.3,2.9,3,4.6s.9,3.6.9,5.4h-.1ZM1189.8,1128.2c0-1.8-.7-3.5-1.8-5-1.1-1.4-2.5-2.6-4.2-3.2s-3.5-.8-5.3-.3c-1.8.4-3.3,1.3-4.6,2.6-1.2,1.3-2.1,2.9-2.4,4.7-.3,1.8,0,3.6.6,5.2.7,1.7,1.9,3.1,3.4,4.1s3.3,1.5,5.1,1.5,2.5-.2,3.7-.7,2.2-1.2,3.1-2.1,1.6-2,2-3.2.6-2.5.5-3.7h0Z"/>
  <path class="cls-20" d="M1198.3,1139l2.1-3.8c2.8,1.9,6.2,2.9,9.6,2.8,4.6,0,6.5-1.4,6.5-3.8,0-6.1-17.3-.8-17.3-11.7s4.3-8.2,11.4-8.2,6.9.8,10,2.5l-2.1,3.8c-2.4-1.5-5.1-2.2-7.9-2.2-4.3,0-6.4,1.6-6.4,3.8,0,6.5,17.3,1.2,17.3,11.8s-4.6,8.1-11.8,8.1c-4,0-7.9-1-11.3-3.2h0Z"/>
  <path class="cls-20" d="M1226.4,1138.9c0-.4,0-.9.3-1.3.2-.4.4-.8.8-1.1.3-.3.7-.6,1.1-.7.4-.2.9-.2,1.3-.2.9,0,1.7.4,2.3,1,.6.6,1,1.5,1,2.3s-.3,1.7-1,2.3c-.6.6-1.4,1-2.3,1s-.9,0-1.3-.2-.8-.4-1.1-.7-.6-.7-.8-1.1c-.2-.4-.3-.8-.3-1.3h0ZM1226.9,1105.7h5.8l-.9,24.8h-3.8l-1.1-24.8Z"/>
  <path class="cls-3" d="M1318.3,726.8l121-8.8,1.1-4.7c3.8-18.6,18.1-88.7,15.9-133.2-.2-7.9-1.4-15.8-3.6-23.4-14.8-45.9-159.8-138.5-159.8-138.5l-7.1,55.6,85.3,106.8c-26.2,59-52.7,146.3-52.7,146.3h-.1Z"/>
  <path class="cls-14" d="M1318.3,726.8l121-8.8,1.1-4.7c3.8-18.6,18.1-88.7,15.9-133.2-.2-7.9-1.4-15.8-3.6-23.4-14.8-45.9-159.8-138.5-159.8-138.5l-7.1,55.6,85.3,106.8c-26.2,59-52.7,146.3-52.7,146.3h-.1Z"/>
  <path class="cls-3" d="M1220.8,879.6c-15.2,10.3-30.3,21.4-45.5,32.1-7.6,5.4-15.2,10.6-22.4,15.7-7.3,5.1-14.9,10-21.5,13.9-1.6,1-3.2,1.9-4.4,2.6-1.2.7-2.2,1.1-1.9,1.2h1.7-1.1l-3.1.6-6.4,1.2c-8.7,1.6-17.8,2.9-27,4.4-18.3,2.9-37.2,5.8-55.9,9.9h-.3c-3.8.9-7.2,3-9.6,6-2.5,3-3.8,6.8-3.9,10.7,0,3.9,1.2,7.7,3.6,10.8,2.4,3.1,5.7,5.3,9.5,6.3,19.1,4.7,38.6,7.9,58.2,9.7,9.8.9,19.7,1.4,30,1.6h14.5c1.6-.2,3.3-.5,4.9-.8,3.9-.9,7.7-2.1,11.4-3.6,3.2-1.2,5.8-2.4,8.5-3.5,10.4-4.7,19-9.6,28-14.6s17-10.2,25.3-15.4c16.5-10.7,32.3-21.5,47.9-33.6,3.7-2.6,6.7-5.9,9.1-9.8,2.4-3.8,4-8.1,4.7-12.5s.6-9-.5-13.3c-1-4.4-2.9-8.5-5.5-12.1s-5.9-6.7-9.8-9.1c-3.8-2.4-8.1-4-12.5-4.7s-9-.6-13.3.5-8.5,2.9-12.1,5.5l-.4.4h-.2Z"/>
  <path class="cls-14" d="M1220.8,879.6c-15.2,10.3-30.3,21.4-45.5,32.1-7.6,5.4-15.2,10.6-22.4,15.7-7.3,5.1-14.9,10-21.5,13.9-1.6,1-3.2,1.9-4.4,2.6-1.2.7-2.2,1.1-1.9,1.2h1.7-1.1l-3.1.6-6.4,1.2c-8.7,1.6-17.8,2.9-27,4.4-18.3,2.9-37.2,5.8-55.9,9.9h-.3c-3.8.9-7.2,3-9.6,6-2.5,3-3.8,6.8-3.9,10.7,0,3.9,1.2,7.7,3.6,10.8,2.4,3.1,5.7,5.3,9.5,6.3,19.1,4.7,38.6,7.9,58.2,9.7,9.8.9,19.7,1.4,30,1.6h14.5c1.6-.2,3.3-.5,4.9-.8,3.9-.9,7.7-2.1,11.4-3.6,3.2-1.2,5.8-2.4,8.5-3.5,10.4-4.7,19-9.6,28-14.6s17-10.2,25.3-15.4c16.5-10.7,32.3-21.5,47.9-33.6,3.7-2.6,6.7-5.9,9.1-9.8,2.4-3.8,4-8.1,4.7-12.5s.6-9-.5-13.3c-1-4.4-2.9-8.5-5.5-12.1s-5.9-6.7-9.8-9.1c-3.8-2.4-8.1-4-12.5-4.7s-9-.6-13.3.5-8.5,2.9-12.1,5.5l-.4.4h-.2Z"/>
  <path class="cls-3" d="M1125.2,945.1s24.5,36.9,19,59l7.6-2.5s-2.1-40.6-24.5-57.7l-2,1.2h0Z"/>
  <path class="cls-3" d="M1025.9,963l-32.9,4.1,19.8,30.9s29.1-5.4,25.7-20.3l-12.6-14.7Z"/>
  <path class="cls-3" d="M967.4,987.5l26.1,20.8,19.4-10.3-19.8-30.9-25.7,20.4Z"/>
  <g class="cls-25">
    <path class="cls-20" d="M1025.9,963l-32.9,4.1,19.8,30.9s29.1-5.4,25.7-20.3l-12.6-14.7Z"/>
    <path class="cls-20" d="M967.4,987.5l26.1,20.8,19.4-10.3-19.8-30.9-25.7,20.4Z"/>
  </g>
  <path class="cls-3" d="M1025.9,963s13.4,16.4,2.3,30.3l4.4,1.8s17.8-11.4.8-33.8l-7.5,1.7h0Z"/>
  <path class="cls-23" d="M1125.2,945.1s24.5,36.9,19,59l7.6-2.5s-2.1-40.6-24.5-57.7l-2,1.2h0Z"/>
  <path class="cls-23" d="M1025.9,963s13.4,16.4,2.3,30.3l4.4,1.8s17.8-11.4.8-33.8l-7.5,1.7h0Z"/>
  <path class="cls-3" d="M1299.8,436.8l-5.5,32.2c0,1.6-6.9,5-8.6,4.9l-36.5-2c-1.9-.2-3.6-1.2-4.8-2.7-1.2-1.5-1.7-3.4-1.5-5.3,2.2-15.9,3.8-23.4,6.5-43.5,1.5-12.4,3.3-36.9,8-53.5s21-11.4,20.4-4.1c-1.2,17.6,7.3,42.8,15,55.4,1.4,2.2,7.5,16.1,7,18.6Z"/>
  <path class="cls-9" d="M1303.1,438.8l-11.1,33c0,1.6-4.5,2.1-6.1,2l-36.5-2c-1.9-.2-3.6-1.2-4.8-2.7-1.2-1.5-1.8-3.4-1.5-5.3,2.2-15.9,3.8-23.4,6.5-43.5,1.5-12.4,3.3-36.9,8-53.5s21-11.4,20.4-4.1c-1.2,17.6,7.3,42.8,15,55.4,1.3,2.2,10.5,18.1,10.2,20.7h0Z"/>
  <path class="cls-13" d="M1440.4,713.3c3.8-18.6,18.1-88.7,15.9-133.2-10.8,18.3-35.2,64.2-39,111.4-2.1,23.5,8.6,28.3,23.1,21.8Z"/>
  <path class="cls-3" d="M1325.5,745.9s10-72,85.6-85.2c0,0,54.5-69.5,123-139.2l-36.6-190.9,39.6-19.8s84.1,143.1,71.7,236.6-150.8,226.1-150.8,226.1l-132.4-27.6h0Z"/>
  <path class="cls-14" d="M1325.5,745.9s10-72,85.6-85.2c0,0,54.5-69.5,123-139.2l-36.6-190.9,39.6-19.8s84.1,143.1,71.7,236.6-150.8,226.1-150.8,226.1l-132.4-27.6h0Z"/>
  <path class="cls-3" d="M1452.1,671.2c0,6.5-2.5,12.8-7,17.6s-10.6,7.7-17.1,8.1l-90.9,6.3c-5.8.4-11.6-1.1-16.4-4.4-4.8-3.3-8.4-8.1-10.1-13.6-.6-1.9-1-3.9-1.1-6v-1.8c0-6.5,2.5-12.8,6.9-17.6,4.5-4.8,10.6-7.7,17.1-8.1l90.9-6.3c6.8-.5,13.6,1.8,18.8,6.3,5.2,4.5,8.3,10.9,8.8,17.7,0,.6,0,1.3,0,1.8h0Z"/>
  <path class="cls-6" d="M1447.6,663.2c0,6.5-2.5,12.8-7,17.6s-10.6,7.7-17.1,8.2l-90.9,6.3c-4.2.3-8.4-.4-12.3-2.2-3.8-1.7-7.2-4.3-9.8-7.7-.6-1.9-1-3.9-1.1-6v-1.8c0-6.5,2.5-12.8,6.9-17.6,4.5-4.8,10.6-7.7,17.1-8.1l90.9-6.3c4.2-.3,8.4.5,12.3,2.2,3.8,1.7,7.2,4.3,9.8,7.7.6,1.9,1,3.9,1.1,6v1.8h0Z"/>
  <path class="cls-3" d="M1465.9,780.7c-.2-13.7-4.8-27-13.1-38-8.3-11-19.8-19-32.9-23-47.5-16.3-40.6,42.8-40.6,42.8l84.7,21.8,2-3.5h0Z"/>
  <path class="cls-23" d="M1465.9,780.7c-.2-13.7-4.8-27-13.1-38-8.3-11-19.8-19-32.9-23-47.5-16.3-40.6,42.8-40.6,42.8l84.7,21.8,2-3.5h0Z"/>
  <path class="cls-3" d="M1405.5,723.2s47.9,11.4,57.5,50.6c9.7,39.2-57.4,125.1-85.4,140.2-27.9,15.2-139.6,29.8-152.8,13.9-45.7-54.9,52.3-144.1,86-166.1s94.7-38.5,94.7-38.5h0Z"/>
  <path class="cls-14" d="M1224.8,927.9c.6.7,1.4,1.4,2.2,1.9,8.7,5.5,32.7,6.1,59.4,3.8,33.6-2.9,71.5-10.3,88.5-18.2l2.7-1.3c21.6-11.8,66.5-65.7,81.4-107.7,4.4-12.4,6.1-23.7,3.8-32.6-9.7-39.1-57.5-50.6-57.5-50.6,0,0-61,16.8-94.7,38.7-33.8,21.9-131.5,111-85.8,166.1h0Z"/>
  <path class="cls-13" d="M1227,929.8c8.7,5.5,32.7,6.1,59.4,3.8,55.2-59.4,23.7-105,23.7-105-46.4-4.2-79,59.6-83.1,101.2Z"/>
  <path class="cls-3" d="M1440.4,713.3s-7.9-41.4-17.4-46.3c-9.5-4.9-110.7,4.1-123.7,8.9-13,4.9-83,66.1-87.7,83.4-4.7,17.2,16.5,62.1,16.5,62.1,0,0,72.4,14.5,102,2.2s102.6-87.6,110.2-110.2h0Z"/>
  <path class="cls-9" d="M1228.1,821.3s72.4,14.4,102,2.1c29.6-12.3,102.7-87.5,110.2-110.2,0,0-8.1-41.4-17.3-46.5-9.3-5.1-110.7,4.1-123.7,8.9-13,4.9-83,66.2-87.7,83.4-1,5.3-.9,10.7.4,15.9,3.8,20.1,16.1,46.3,16.1,46.3h0Z"/>
  <path class="cls-6" d="M1212,775.1c9.8,1.9,73.5,13.3,100.8,1.9,29.5-12.4,102.6-87.3,110.2-110-9.3-5-110.7,4.1-123.7,8.9-13,4.9-83,66.2-87.7,83.4-1,5.2-.9,10.6.4,15.8h0Z"/>
  <path class="cls-5" d="M1277.1,921c39.3-34.3,43.3-94,9-133.3s-94-43.3-133.3-9-43.3,94-9,133.3,94,43.3,133.2,9h.1Z"/>
  <path class="cls-14" d="M1277.1,921c39.3-34.3,43.3-94,9-133.3s-94-43.3-133.3-9-43.3,94-9,133.3,94,43.3,133.2,9h.1Z"/>
  <path class="cls-22" d="M1246.8,934.7c16.8-6.3,31.3-17.4,41.8-32s16.4-31.9,17-49.8c.6-17.9-4.1-35.6-13.5-50.9-9.5-15.2-23.2-27.3-39.5-34.8-16.3-7.4-34.5-9.8-52.2-6.9-17.7,2.9-34.1,11-47.2,23.2s-22.3,28.1-26.4,45.6-2.9,35.7,3.4,52.5c8.4,22.5,25.5,40.7,47.3,50.7,21.9,9.9,46.8,10.8,69.3,2.4h0Z"/>
  <path class="cls-19" d="M1307.7,875.5c9.1-36.5-5.6-71.6-32.9-78.4-27.2-6.8-56.7,17.3-65.8,53.8-9.1,36.5,5.6,71.6,32.9,78.4,27.3,6.8,56.7-17.3,65.8-53.8Z"/>
  <path class="cls-5" d="M1227.8,897.2s17.7,17.4,22.9,13c5.3-4.4,15.5,9.1,24,1.4s25.2-29.9,16.8-50.8c-8.5-20.9-61.8,5-63.7,36.3h0Z"/>
  <path class="cls-12" d="M1227.8,897.2s17.7,17.4,22.9,13c.8-.5,1.7-.9,2.7-.9s1.9,0,2.8.5c5.4,1.9,12.4,7.3,18.5,1.8,8.5-7.6,25.2-29.9,16.8-50.8-3.6-9-15.5-9.3-28.1-4.4-3.4,1.4-6.7,3-9.8,4.9-12.8,7.8-24.2,20.4-25.7,34.1,0,.6,0,1.2,0,1.7h0Z"/>
  <path class="cls-22" d="M1227.8,897.2s17.7,17.4,22.9,13c.8-.5,1.7-.9,2.7-.9s1.9,0,2.8.5c21-12.6,11.4-42.7,7.2-53.3-3.4,1.4-6.7,3-9.8,4.9-9.8,10.4-18.4,21.8-25.7,34.1,0,.6,0,1.2,0,1.7Z"/>
  <path class="cls-5" d="M1189.9,895.8h1.9c18.1-.9,13.1-37.1,4.3-57.9-3.8-9.2-9.2-13.4-14-13.6-6.1-.3-11.4,5.6-12.5,15.8-.7,6.8,3.8,16.2,3,20.7s1.1,33.5,17.3,34.9h0Z"/>
  <path class="cls-7" d="M1189.9,895.8h1.9c18.1-.9,13.1-37.1,4.3-57.9-3.8-9.2-9.2-13.4-14-13.6-6.1-.3-11.4,5.6-12.5,15.8-.7,6.8,3.8,16.2,3,20.7s1.1,33.5,17.3,34.9h0Z"/>
  <path class="cls-22" d="M1189.9,895.8h1.9c18.1-.9,13.1-37.1,4.3-57.9-3.8-9.2-9.2-13.4-14-13.6-1.3,1-2.6,2.1-3.8,3.3-6,5.9,0,29.1,0,35.1-.4,5.6,1.7,24.1,11.6,33.1h0Z"/>
  <path class="cls-17" d="M1254.8,834.5c7,27.4,12.4,43,3.3,61-13.8,27.1-51.1,25.1-66.1.3-13.5-22.3-22.7-63.3.3-82.2,5.1-4.2,11.2-7,17.6-8.2,6.5-1.2,13.2-.7,19.4,1.3,6.2,2.1,11.9,5.7,16.3,10.5,4.5,4.8,7.6,10.7,9.2,17.1v.2Z"/>
  <path class="cls-5" d="M1216.4,854.7c.7,2.2,0,4.3-1.3,4.8s-3.2-.9-3.8-3.1c-.6-2.2,0-4.3,1.3-4.8s2.9,1.1,3.8,3.1Z"/>
  <path class="cls-5" d="M1191.5,862.4c.7,2.2,0,4.3-1.3,4.8s-3.2-1-3.8-3.2c-.6-2.2,0-4.3,1.3-4.7s3.1,1,3.8,3.1h0Z"/>
  <path class="cls-11" d="M1199.7,861c-.6,7.3-2.3,14.5-4.8,21.3,1.8.5,3.8.7,5.7.4,1.9-.3,3.7-.9,5.3-1.9l-6.1-19.9h0Z"/>
  <path class="cls-5" d="M1209.2,840.2c.2,0,.4-.2.7-.2s.5,0,.7.2c1.4,1,3,1.6,4.7,1.9,1.7.2,3.4,0,5-.4.3,0,.7,0,1,0s.6.4.7.7c0,.2,0,.3,0,.5v.5c0,.2-.2.3-.3.4,0,0-.3.2-.4.3-2,.7-4.2.9-6.3.6-2.1-.3-4.2-1.1-5.9-2.3-.3-.2-.5-.5-.6-.9,0-.3,0-.7.2-1,0-.2.3-.3.5-.4h0Z"/>
  <path class="cls-5" d="M1183.9,846.1h.8c.2,0,.3,0,.5.2,0,0,.2.2.3.4,0,.2,0,.3.2.5s0,.4,0,.5c-.6,2.1-1.6,3.9-3.1,5.5s-3.2,2.8-5.3,3.5c-.3,0-.7,0-1,0-.3-.2-.5-.4-.7-.8v-.5c0-.2,0-.3.2-.5,0-.2.2-.3.3-.4s.3-.2.5-.2c1.6-.6,3-1.5,4.2-2.8,1.1-1.3,2-2.8,2.4-4.4,0-.2.2-.4.3-.6.2-.2.3-.3.6-.3h-.2Z"/>
  <path class="cls-5" d="M1226.4,894.5c-.6.4-1.3.8-2,1.2l-13.3-6.7s.5-.8,1.3-1.9c2.7-3.8,9.3-11.9,15.2-11.4.7,0,1.3.3,2,.5,2.4.7,4.4,2.3,5.7,4.4,1.8,3.4.6,8-8.9,13.8h0Z"/>
  <path class="cls-20" d="M1229.7,876.4l-15.5,11.4-1.7-.6c2.7-3.8,9.3-11.9,15.2-11.4.7,0,1.4.3,2,.6Z"/>
  <path class="cls-1" d="M1226.4,894.5c-2.5-5.6,4.4-11,8.9-13.6,1.7,3.2.5,7.8-8.9,13.6Z"/>
  <path class="cls-5" d="M1223.3,910.4l-1.2-3.6c3.5-1.2,13.2-4.9,16.3-8.3,5.5-7.9,10.3-16.2,14.6-24.7l3.4,1.8c-.4.8-10.9,20.9-15.2,25.5-4.2,4.6-17.3,9.1-18,9.3h0Z"/>
  <path class="cls-5" d="M1223.5,911.2l4-1.5c.7-.2,1.2-.7,1.5-1.4.3-.6.3-1.4,0-2.1-.3-.7-.8-1.2-1.4-1.5-.7-.3-1.4-.3-2.1,0l-4,1.5c-.7.3-1.2.8-1.5,1.4-.3.6-.3,1.4,0,2,.2.7.8,1.2,1.4,1.5.7.3,1.4.3,2.1,0h0Z"/>
  <path class="cls-17" d="M1272.3,853.5c0,3.5-.7,7-2,10.3s-3.3,6.2-5.8,8.7c-6.7,6.6-14.7,1.6-16.6-7.1-1.8-7.8-.4-20.7,8.2-24,1.9-.7,3.9-.9,5.9-.6,2,.3,3.9,1.1,5.5,2.3s2.9,2.8,3.8,4.6,1.2,3.8,1.1,5.8h0Z"/>
  <path class="cls-5" d="M1193.1,823.2c8.3-2.7,30.1-6.3,35-1.9,4.8,4.4,15,57.5,25.8,60.6s29.9-14.7,28.3-30.7c-.7-9.1-4.8-17.7-11.6-23.9,0,0-2.9-42.2-46.9-39-44,3.3-54.7,39.3-54.1,51.8,5.8-8,14-14,23.4-17h0Z"/>
  <path class="cls-7" d="M1193.1,823.2c8.3-2.7,30.1-6.3,35-1.9,4.8,4.4,15,57.5,25.8,60.6s29.9-14.7,28.3-30.7c-.7-9.1-4.8-17.7-11.6-23.9,0,0-2.9-42.2-46.9-39-44,3.3-54.7,39.3-54.1,51.8,5.8-8,14-14,23.4-17h0Z"/>
  <path class="cls-3" d="M1159.2,769.8l5.8-1.6c16.7-10.3,35.8-15.8,55.3-16.1,33.9-1,83.8,29.7,92.2,89.1.3,2.3.6,4.4.7,6.3.2,1.7.3,3.5.3,5.2v.2c0,2.2,0,4.3-.3,6.5-3.1,35.7-32.8,62.6-32.8,62.6-11.2,10.5-24.3,18.6-38.7,24l-6.5-4c60.9-24.5,51.6-91.2,51.6-91.2l-20.7-39.1s-55.4-62.9-120.7-25.9l-2.7-2.3c5-5,10.4-9.6,16.2-13.6h.3Z"/>
  <path class="cls-14" d="M1142.8,783.5l2.7,2.3c65.3-37,120.7,25.9,120.7,25.9l20.7,39.1s9.2,66.7-51.5,91.2l6.7,4c6-2.3,11.8-5,17.4-8.3,7.7-4.3,14.9-9.6,21.3-15.8,0,0,29.7-26.9,32.8-62.6.3-2.1.4-4.3.3-6.5v-.2c0-1.8-.2-3.5-.4-5.2-.2-1.7-.4-4-.7-6.3-8.4-59.5-58.4-90.2-92.2-89.1-19.4.3-38.4,5.8-55,15.9l-.3.2-5.8,1.6c-5.9,4-11.4,8.6-16.5,13.6l-.2.2Z"/>
  <path class="cls-22" d="M1142.8,783.5l2.7,2.3c65.3-37,120.7,25.9,120.7,25.9l20.7,39.1s9.2,66.7-51.5,91.2l6.7,4c6-2.3,11.8-5,17.4-8.3,16.4-14.6,43.5-60.1,31.4-84.8-7.4-14.8-13.3-30.4-17.6-46.4,0,0-48.9-53.6-108-38.5-2,.5-4.1,1.1-6.2,1.8-5.8,4-11.3,8.6-16.3,13.6h0Z"/>
  <path class="cls-3" d="M1269.9,807.2c6.5-2.4,14.1.2,20.5,6.2,6.2,3.3,11,8.8,13.5,15.4,2.5,6.6,2.4,13.9,0,20.5-.9,8.7-4.9,15.6-11.4,18.1-11,4.1-24.9-6-31.1-22.7s-2.3-33.1,8.6-37.3v-.2Z"/>
  <path class="cls-9" d="M1269.9,807.2c6.5-2.4,14.1.2,20.5,6.2,6.2,3.3,11,8.8,13.5,15.4,2.5,6.6,2.4,13.9,0,20.5-.9,8.7-4.9,15.6-11.4,18.1-11,4.1-24.9-6-31.1-22.7s-2.3-33.1,8.6-37.3v-.2Z"/>
  <path class="cls-6" d="M1276.4,839.1c4.3,11.4,13.9,18.5,21.5,15.6s10.2-14.4,6-25.9c-4.3-11.5-13.9-18.5-21.5-15.6-7.6,2.8-10.3,14.4-6,25.9Z"/>
  <path class="cls-6" d="M1142,810.1c6.7.9,13.2,2.4,19.7,4.3,8-11,17.8-20.7,29-28.5,0,0-10.2-4.8-29.6-.3-7.8,6.9-14.3,15.2-19.1,24.5Z"/>
  <path class="cls-6" d="M1137.4,880.8c1.7-21.6,8.7-42.4,20.3-60.6-6.2-2.7-12.2-5.2-17.1-7.1-8.3,18-14.4,42.7-3.2,67.8h0Z"/>
  <path class="cls-3" d="M1541.1,318.7l-38.7,24.9c-.3.2-.7.4-1,.5-.4,0-.8.1-1.1,0-.4,0-.7-.2-1.1-.4-.3-.2-.6-.5-.8-.8l-21.6-29.4c-1-1.6-1.4-3.5-1-5.4s1.5-3.5,3.1-4.6c13.6-8.5,20.6-11.9,37.9-22.7,10.5-6.7,30.5-21,46.3-27.9s22.2,8.9,16.2,13.2c-14.4,10.3-28.3,32.9-33.2,46.8-.9,2.4-2.6,4.5-4.9,5.8h-.1Z"/>
  <path class="cls-9" d="M1541.1,318.7l-38.7,24.9c-.3.2-.7.4-1,.5-.4,0-.8.1-1.1,0-.4,0-.7-.2-1.1-.4-.3-.2-.6-.5-.8-.8l-21.6-29.4c-1-1.6-1.4-3.5-1-5.4s1.5-3.5,3.1-4.6c13.6-8.5,20.6-11.9,37.9-22.7,10.5-6.7,30.5-21,46.3-27.9s22.2,8.9,16.2,13.2c-14.4,10.3-28.3,32.9-33.2,46.8-.9,2.4-2.6,4.5-4.9,5.8h-.1Z"/>
  <path class="cls-3" d="M1544.8,314.8l3,7.9-49.5,24.6-2.5-6.6,49.1-25.9h0Z"/>
  <path class="cls-3" d="M1292.2,416.9s11.6,37.3-8.8,58.2l7,4.4s25-25.5,9.9-58.3l-8.1-4.4h0Z"/>
  <path class="cls-3" d="M1531.6,523.9l1.5-7.6s32.6-22.2,76.7,1.8v16.2s-37.1-26.1-78.2-10.5h0Z"/>
  <path class="cls-3" d="M1448.9,546.6s-40.4,54.2-79.6,37.9l-1.3-7.6s35.4,13.1,73.2-39.8l7.7,9.5h0Z"/>
  <path class="cls-13" d="M1374.9,915.4l2.7-1.3c21.6-11.8,66.5-65.7,81.4-107.7-22.7,6.1-80.9,22.9-98.9,40.1-21.4,20.3-11,62.2,14.8,68.9Z"/>
  <path class="cls-23" d="M1292.2,416.9s11.6,37.3-8.8,58.2l7,4.4s25-25.5,9.9-58.3l-8.1-4.4h0Z"/>
  <path class="cls-23" d="M1448.9,546.6s-40.4,54.2-79.6,37.9l-1.3-7.6s35.4,13.1,73.2-39.8l7.7,9.5h0Z"/>
  <path class="cls-23" d="M1544.8,314.8l3,7.9-49.5,24.6-2.5-6.6,49.1-25.9h0Z"/>
  <path class="cls-23" d="M1531.6,523.9l1.5-7.6s32.6-22.2,76.7,1.8v16.2s-37.1-26.1-78.2-10.5h0Z"/>
  <path class="cls-3" d="M1440.4,857.1c-1.3,0-2.5-.4-3.5-1.2s-1.7-1.8-2-3.1c-.3-1.2-.2-2.5.3-3.7s1.3-2.1,2.4-2.7c13.9-7.6,21.3-17.4,22.7-29.7,4.4-37.5-47.9-85.3-48.5-85.8s-1.2-1.1-1.5-1.8c-.4-.7-.6-1.4-.7-2.2,0-.8,0-1.6.3-2.3.2-.8.6-1.4,1.2-2,.5-.6,1.2-1.1,1.9-1.4.7-.3,1.5-.5,2.3-.5s1.6.2,2.3.5c.7.3,1.4.8,1.9,1.4,2.4,2.1,57.2,52.2,52.2,95.5-1.9,16-11.4,29-28.6,38.4-.8.5-1.7.7-2.7.7h0Z"/>
  <path class="cls-3" d="M1433.7,879.2c-1,0-2-.3-2.9-.8s-1.6-1.3-2.1-2.2-.7-1.9-.7-2.9.3-2,.9-2.9c37.1-57.3-32.6-108.2-35.6-110.4-.6-.4-1.1-1-1.5-1.6s-.7-1.3-.8-2.1c0-.7,0-1.5,0-2.2.2-.7.5-1.4.9-2s1-1.1,1.6-1.5,1.3-.7,2.1-.8c.7,0,1.5,0,2.2,0,.7.2,1.4.5,2,.9.8.6,81.5,59.4,38.5,125.8-.5.8-1.2,1.5-2,1.9-.8.5-1.8.7-2.7.7h0Z"/>
  <path class="cls-3" d="M1377.5,912.4c17.9-4.1,36.2-8.7,54-13,8.9-2.2,17.8-4.3,26.5-6.3s17.5-3.8,25.1-5c1.8-.3,3.8-.6,5.1-.7,1.3-.2,2.4-.2,2.2-.5-.4,0-.8,0-1.1-.2h-.3,1.2l3.1.6,6.4,1.3c8.6,1.7,17.6,3.8,26.5,5.9,18.1,4.1,36.7,8.4,55.6,11.4h.3c3.8.6,7.8,0,11.2-2s6.1-4.9,7.5-8.5c1.5-3.6,1.7-7.6.7-11.3s-3.3-7-6.5-9.3c-16-11.4-32.9-21.6-50.5-30.5-8.8-4.5-17.8-8.7-27.2-12.6-2.4-1-4.7-2-7.3-2.8l-3.8-1.4-.9-.3h-.5l-1.2-.3c-1.6-.4-3.2-.7-4.8-1-4-.6-8-.9-12-.9h-9.2c-11.4.5-21.3,1.8-31.4,3.1-10,1.3-19.6,3.1-29.3,4.9-19.3,3.8-37.9,8-56.8,13.5-8.8,2.2-16.3,7.9-20.9,15.7s-5.9,17.1-3.7,25.8c2.2,8.8,7.9,16.3,15.7,20.9,7.8,4.6,17.1,5.9,25.9,3.7h.4v-.2Z"/>
  <path class="cls-14" d="M1377.5,912.4c17.9-4.1,36.2-8.7,54-13,8.9-2.2,17.8-4.3,26.5-6.3s17.5-3.8,25.1-5c1.8-.3,3.8-.6,5.1-.7,1.3-.2,2.4-.2,2.2-.5-.4,0-.8,0-1.1-.2h-.3,1.2l3.1.6,6.4,1.3c8.6,1.7,17.6,3.8,26.5,5.9,18.1,4.1,36.7,8.4,55.6,11.4h.3c3.8.6,7.8,0,11.2-2s6.1-4.9,7.5-8.5c1.5-3.6,1.7-7.6.7-11.3s-3.3-7-6.5-9.3c-16-11.4-32.9-21.6-50.5-30.5-8.8-4.5-17.8-8.7-27.2-12.6-2.4-1-4.7-2-7.3-2.8l-3.8-1.4-.9-.3h-.5l-1.2-.3c-1.6-.4-3.2-.7-4.8-1-4-.6-8-.9-12-.9h-9.2c-11.4.5-21.3,1.8-31.4,3.1-10,1.3-19.6,3.1-29.3,4.9-19.3,3.8-37.9,8-56.8,13.5-8.8,2.2-16.3,7.9-20.9,15.7s-5.9,17.1-3.7,25.8c2.2,8.8,7.9,16.3,15.7,20.9,7.8,4.6,17.1,5.9,25.9,3.7h.4v-.2Z"/>
  <path class="cls-3" d="M1589.3,879.2l33-3-12.7,34.4s-29.6.9-29.4-14.3l9.2-17.1h0Z"/>
  <path class="cls-3" d="M1651.7,890.5l-21,25.9-21.2-5.9,12.7-34.4,29.5,14.4Z"/>
  <g class="cls-25">
    <path class="cls-20" d="M1589.3,879.2l33-3-12.7,34.4s-29.6.9-29.4-14.3l9.2-17.1h0Z"/>
    <path class="cls-20" d="M1651.7,890.5l-21,25.9-21.2-5.9,12.7-34.4,29.5,14.4Z"/>
  </g>
  <path class="cls-3" d="M1599.4,878.1s-18.1,9.5-12.7,28l-7.6-.6s-9.2-18.2,16.1-30.6l4.2,3.3h0Z"/>
  <path class="cls-3" d="M1368,843.4s-50.5,41.3,5.3,69.8l-6.6,2.5s-30.5-1.4-31.2-35.4c-.8-33.1,32.5-36.9,32.5-36.9h0Z"/>
  <path class="cls-3" d="M1498.8,825.7s-17.4,22.5-8.3,61.3l-4.6.8c-2.9-10.4-3.8-21.3-2.5-32.1s4.7-21.1,10.1-30.6l5.3.6Z"/>
  <path class="cls-23" d="M1599.4,878.1s-18.1,9.5-12.7,28l-7.6-.6s-9.2-18.2,16.1-30.6l4.2,3.3h0Z"/>
  <path class="cls-23" d="M1368,843.4s-50.5,41.3,5.3,69.8l-6.6,2.5s-30.5-1.4-31.2-35.4c-.8-33.1,32.5-36.9,32.5-36.9h0Z"/>
  <path class="cls-23" d="M1498.8,825.7s-17.4,22.5-8.3,61.3l-4.6.8c-2.9-10.4-3.8-21.3-2.5-32.1s4.7-21.1,10.1-30.6l5.3.6Z"/>
  <path class="cls-3" d="M1393.6,681.9l-76.7,73.5h-26.8l77.9-73.5s15.5-10.1,25.6,0Z"/>
  <path class="cls-6" d="M1393.6,681.9l-76.7,73.5c-3.7-3.3-8.4-5.2-13.4-5.2s-9.7,1.9-13.4,5.2l77.9-73.5s15.5-10.1,25.6,0Z"/>
  <path class="cls-5" d="M1308.6,688.4c-1.2.8-2.5,1.5-3.8,2.1-2.3,1-4.7,1.5-7.1,1.6-2.8,0-4.9-.8-5.6-2.4-.7-1.6.8-4.9,3.8-7.2,1.4-1,2.9-1.9,4.5-2.5,2-.9,4.1-1.4,6.3-1.6,3.2-.3,5.6.6,6.4,2.4.8,1.8-1,5.1-4.4,7.6h-.1Z"/>
  <path class="cls-20" d="M1115.8,401l-.3-1.9s8.9-1.5,11.8-6.5l1.6.9c-3.4,5.8-12.8,7.4-13.1,7.5Z"/>
  <path class="cls-20" d="M1116.1,405.5l-1-1.6c7.4-4.4,15.6-7.2,24.2-8.1v1.9c-8.2,1-16.1,3.6-23.2,7.8h0Z"/>
  <path class="cls-20" d="M1116.1,406.9l-.8-1.7c11.8-5.6,17.1-2.8,17.3-2.7l-.9,1.7s-4.8-2.4-15.6,2.8h0Z"/>
  <path class="cls-5" d="M1308.6,688.4c-1.2.8-2.5,1.5-3.8,2.1-2.3,1-4.7,1.5-7.1,1.6-.3-2.5-.9-5.8-1.7-9.6-2.4-12.3-8.1-23.8-16.4-33.2-25.3-25.8-55.7-27.9-87.8-30-30.7-2-62.5-4.2-91.3-27.3-29.3-23.6-44-67.9-37.4-112.8,5.9-40.3,27.2-71.5,57-83.7l4.3,10.5c-26,10.6-44.8,38.6-50.1,74.8-6,41,7.1,81.1,33.3,102.3,26.2,21.2,54.6,22.7,84.9,24.8,32.8,2.2,66.8,4.5,95.2,33.4,9.5,10.5,16,23.3,19,37.1.9,3.6,1.5,7.1,2,9.9h0Z"/>
  <g class="cls-25">
    <path class="cls-20" d="M1308.6,688.4c-1.2.8-2.5,1.5-3.8,2.1-2.3,1-4.7,1.5-7.1,1.6-.3-2.5-.9-5.8-1.7-9.6-2.4-12.3-8.1-23.8-16.4-33.2-25.3-25.8-55.7-27.9-87.8-30-30.7-2-62.5-4.2-91.3-27.3-29.3-23.6-44-67.9-37.4-112.8,5.9-40.3,27.2-71.5,57-83.7l4.3,10.5c-26,10.6-44.8,38.6-50.1,74.8-6,41,7.1,81.1,33.3,102.3,26.2,21.2,54.6,22.7,84.9,24.8,32.8,2.2,66.8,4.5,95.2,33.4,9.5,10.5,16,23.3,19,37.1.9,3.6,1.5,7.1,2,9.9h0Z"/>
  </g>
</svg>