<?xml version="1.0" encoding="UTF-8"?>
<svg id="Layer_1" data-name="Layer 1" xmlns="http://www.w3.org/2000/svg" xmlns:xlink="http://www.w3.org/1999/xlink" version="1.1" viewBox="0 0 1611 1700">
  <defs>
    <style>
      .cls-1 {
        fill: #f5f5f5;
      }

      .cls-1, .cls-2, .cls-3, .cls-4, .cls-5, .cls-6, .cls-7, .cls-8, .cls-9, .cls-10, .cls-11 {
        stroke-width: 0px;
      }

      .cls-2, .cls-5 {
        fill: #407bff;
      }

      .cls-3 {
        fill: #ebebeb;
      }

      .cls-12 {
        mask: url(#mask);
      }

      .cls-4 {
        fill: #012E71;
      }

      .cls-5, .cls-6, .cls-7, .cls-9, .cls-11 {
        isolation: isolate;
      }

      .cls-5, .cls-13 {
        opacity: .5;
      }

      .cls-6, .cls-7 {
        opacity: .1;
      }

      .cls-6, .cls-11 {
        fill: #012E71;
      }

      .cls-7, .cls-8, .cls-9 {
        fill: #ffff;
      }

      .cls-9 {
        opacity: .3;
      }

      .cls-10 {
        fill: #e6e6e6;
      }

      .cls-14 {
        mask: url(#mask-2);
      }

      .cls-15 {
        mask: url(#mask-1);
      }

      .cls-11 {
        opacity: .2;
      }

      #crack1, #crack2, #crack3, #crack4 {
        animation: growCracks 1s infinite alternate;
        transform-origin: center;
      }

      #bat1, #bat2, #bat3, #bat4 {
        animation: moveBats 1s infinite alternate;
      }

      @keyframes growCracks {
        0% {
          transform: scale(0.985);
        }
        100% {
          transform: scale(1);
        }
      }

      @keyframes moveBats {
        0% {
          transform: translateY(0);
        }
        100% {
          transform: translateY(-35px);
        }
      }
   
    <mask id="mask" x="649.7" y="560.6" width="423.5" height="203.2" maskUnits="userSpaceOnUse">
      <g id="mask0_9_6516" data-name="mask0 9 6516">
        <path class="cls-8" d="M667.3,560.6c42.9,57.9,131.8,67.7,219.2,76.3,87.5,8.6,174.7,0,186.7-29.7-6.7,63-27.2,156.7-222.7,124.9-215.7-35.2-183.2-171.4-183.2-171.4Z"/>
      </g>
    </mask>
    <mask id="mask-1" x="623.9" y="156.3" width="213" height="241.3" maskUnits="userSpaceOnUse">
      <g id="mask1_9_6516" data-name="mask1 9 6516">
        <path class="cls-8" d="M792.2,350.9c-7.7,22.2-35.6,44.1-72.2,46.7-20.8-8.7-68.5-88-61.5-133.2,7-45.2,96.5-104.9,114.4-108,16.4-2.9-54.6,70.1-51.1,108.8,3.5,38.7,70.4,85.7,70.4,85.7Z"/>
      </g>
    </mask>
    <mask id="mask-2" x="957.6" y="253.9" width="211.6" height="207.7" maskUnits="userSpaceOnUse">
      <g id="mask2_9_6516" data-name="mask2 9 6516">
        <path class="cls-8" d="M1004,397.7c-.9,19.2,13.9,44.3,41.1,57.3,18.4-.4,78.7-46.7,87-83.3s-34.9-97.6-54.9-116.9c-10.7-10.4,20.7,69.9,6.4,98.5-14.3,28.6-79.6,44.4-79.6,44.4Z"/>
      </g>
    </mask>
    </style>
  </defs>
  <path class="cls-3" d="M1695.8,1382.9H-84.8v.9h1780.6v-.9Z"/>
  <path class="cls-3" d="M220,1416.8h-117.9v.9h117.9v-.9Z"/>
  <path class="cls-3" d="M676.1,1407.1h-151.5v.9h151.5v-.9Z"/>
  <path class="cls-3" d="M316.4,1429.3h-68.3v.9h68.3v-.9Z"/>
  <path class="cls-3" d="M1517.4,1443.9h-54.2v.9h54.2v-.9Z"/>
  <path class="cls-3" d="M1431.4,1443.9h-122.1v.9h122.1v-.9Z"/>
  <path class="cls-3" d="M1096.9,1418.2h-84.9v.9h84.9v-.9Z"/>
  <path class="cls-3" d="M759.2,1224H71.6c-5.4,0-10.5-2.2-14.4-6-3.8-3.8-5.9-9-5.9-14.4V237.1c0-5.4,2.2-10.5,6-14.3s8.9-5.9,14.3-5.9h687.6c5.4,0,10.6,2.1,14.4,6,3.8,3.8,6,9,6,14.4v966.4c0,5.4-2.1,10.6-6,14.4-3.8,3.8-9,6-14.4,6ZM71.6,217.6c-5.2,0-10.1,2.1-13.7,5.7-3.6,3.6-5.7,8.6-5.7,13.7v966.6c0,5.2,2,10.1,5.7,13.7,3.6,3.6,8.6,5.7,13.7,5.7h687.6c5.2,0,10.1-2.1,13.7-5.7,3.6-3.6,5.7-8.6,5.7-13.7V237.1c0-5.2-2.1-10.1-5.7-13.7-3.6-3.6-8.6-5.7-13.7-5.7H71.6Z"/>
  <path class="cls-3" d="M1529.5,1224h-687.7c-5.4,0-10.6-2.1-14.4-6-3.8-3.8-6-9-6-14.4V237.1c0-5.4,2.2-10.5,6-14.3,3.8-3.8,8.9-5.9,14.3-5.9h687.7c5.3,0,10.5,2.1,14.3,5.9,3.8,3.8,5.9,8.9,6,14.2v966.6c0,5.4-2.1,10.5-5.9,14.4-3.8,3.8-9,6-14.3,6ZM841.9,217.6c-5.2,0-10.1,2.1-13.7,5.7-3.6,3.6-5.7,8.6-5.7,13.7v966.6c0,5.2,2.1,10.1,5.7,13.7,3.6,3.6,8.6,5.7,13.7,5.7h687.7c5.2,0,10.1-2.1,13.7-5.7,3.6-3.6,5.7-8.6,5.7-13.7V237.1c0-5.2-2.1-10.1-5.7-13.7-3.6-3.6-8.6-5.7-13.7-5.7h-687.7Z"/>
  <path id="bat1" class="cls-10" d="M282.5,527.1s15.2-16.3,36.8-17c15.1-14,43.1-11.6,49.2-2.4,22.1-14.7,46.6-19.4,68.5,8.2-3-30.5-36.5-93.9-140.2-40.9-9.4-8.5-12.3-11.3-12.3-11.3,0,0-4.2-12.2-6.9-12.8-2.7-.6,0,13.5,0,13.5-2.7-.6-5.4-.6-8.1,0-2.7.6-5.2,1.7-7.4,3.2,0,0-3.1-14-5.4-12.4-2.3,1.6-1.3,14.5-1.3,14.5,0,0-1.6,3.6-6.8,15.2-116.2-7.1-121.6,64.1-112.2,93.4,9-34.1,33.3-39.5,59.5-34.9,2-10.9,26.7-24.3,46.1-17.5,20.1-7.9,40.5.9,40.5.9Z"/>
  <path id="bat3" class="cls-10" d="M435.5,360.5c8.8-3.5,18.5-3.8,27.4-.7,13.1-4.7,29.9,4.3,31.3,11.7,17.8-3.2,34.2.4,40.4,23.5,6.3-19.8,2.5-68.2-76.2-63-3.6-7.8-4.6-10.3-4.6-10.3,0,0,.6-8.7-.9-9.8-1.5-1.1-3.5,8.4-3.5,8.4-1.5-1-3.2-1.8-5-2.2-1.8-.3-3.7-.3-5.5,0,0,0,1.8-9.5,0-9.2-1.8.4-4.7,8.7-4.7,8.7,0,0-2,1.9-8.3,7.7-70.3-35.6-92.9,7.4-94.8,28,14.7-18.8,31.3-15.6,46.3-5.7,4.1-6.2,23.1-7.9,33.3,1.5,9.4.8,18.1,4.9,24.8,11.5Z"/>
  <path id="bat2" class="cls-10" d="M1381.6,605.4c8.8-3.5,18.5-3.8,27.4-.7,13.1-4.7,29.9,4.3,31.2,11.7,17.8-3.2,34.2.4,40.4,23.5,6.3-19.7,2.5-68.2-76.2-63-3.6-7.8-4.6-10.3-4.6-10.3,0,0,.6-8.8-.9-9.8-1.6-1.1-3.6,8.4-3.6,8.4-1.5-1.1-3.3-1.8-5.1-2.2-1.8-.4-3.7-.4-5.6,0,0,0,1.8-9.5,0-9.1-1.8.4-4.7,8.7-4.7,8.7,0,0-2,1.9-8.3,7.7-70.4-35.6-92.9,7.4-94.8,28,14.7-18.8,31.3-15.7,46.3-5.7,4.1-6.3,23.1-7.9,33.3,1.5,9.5.7,18.4,4.7,25.1,11.4Z"/>
  <path id="bat4" class="cls-10" d="M185.2,287.1c3.3-2.7,7.5-4.1,11.8-3.9,5.1-3.6,13.5-2.1,15.1,1,7.1-3.6,14.9-4.3,20.5,4.8,0-9.4-7.9-29.8-41.2-17.2-2.6-2.9-3.3-3.8-3.3-3.8,0,0-.9-3.8-1.7-4.1-.8-.3-.4,4.1-.4,4.1-.8-.2-1.6-.3-2.5-.3-.8,0-1.6.3-2.4.7,0,0-.5-4.3-1.2-3.9-.7.4-1.1,4.3-1.1,4.3,0,0-.6,1.1-2.6,4.4-35.1-6.2-39.2,15.4-37.3,24.6,3.9-10,11.5-10.9,19.3-8.6,1-3.2,9-6.5,14.6-3.6,4.2-1,8.6-.5,12.4,1.5Z"/>
  <path class="cls-10" d="M1318.5,332.6c-33.7,30.6-94.4,55.9-108.4-8.8,15.6,3.6,31.4,6.3,47.3,7.9-1.5,6.1,6.3,16.4,18.8,15.8,10.9-.5,17.3-8.2,12.2-13.9,10.1.2,20.2-.1,30.2-1Z"/>
  <path class="cls-10" d="M1349.4,325.9c9.5-3.4,18.8-7.3,27.8-11.7-2.2,7.1,6.8,11.5,16.9,7.5,11.6-4.7,14.2-17.4,10.5-22.3,13.8-8.1,27-17.1,39.6-26.9,14.4,64.6-51.4,67-94.8,53.4Z"/>
  <path class="cls-3" d="M1184.9,373.9l-6,23c-10.7-14.5-16.7-29-17-40.7,6.5,7.3,14.3,13.3,23,17.7Z"/>
  <path class="cls-3" d="M1224.2,388.2l-29,27c-4.9-4.6-9.4-9.5-13.6-14.8l6.5-24.9c11.4,5.8,23.6,10,36.1,12.7Z"/>
  <path class="cls-3" d="M1250.6,392.1l24.9,65.9c-28.8-6.8-55.4-20.7-77.5-40.4l30.6-28.5c7.3,1.4,14.6,2.3,22,3Z"/>
  <path class="cls-3" d="M1316,389.4l-32.8,70.3-3.6-.7-24.9-66.6c20.5,1.2,41,.2,61.3-3Z"/>
  <path class="cls-3" d="M1332.1,386.7l49.9,68.8-2.1.5c-30.3,8.2-62,9.7-93,4.4l33.4-71.7c3.8-.6,7.8-1.3,11.8-2.1Z"/>
  <path class="cls-3" d="M1402.4,366.2l-17.3,87.6-49.2-67.9c4.8-.9,9.7-2,14.7-3.2,17.7-4,35-9.6,51.7-16.6Z"/>
  <path class="cls-3" d="M1411.3,362.2l61.8,41.1c-18.3,21.6-46,39.2-84.3,50.3l17.6-89c1.7-.8,3.3-1.6,5-2.3Z"/>
  <path class="cls-3" d="M1457.2,331.7l24.4,60.2c-2,2.9-4,5.8-6.3,8.6l-60.3-40.1c15.4-7.4,29.6-17.1,42.2-28.7Z"/>
  <path class="cls-3" d="M1500.6,307.1l-27.8,6.6c7.5-10.5,12.7-22.4,15.2-35l8,2.5c2.1,8.5,3.6,17.2,4.5,25.9Z"/>
  <path class="cls-3" d="M1483.9,388.2l-23.9-59.2c3.4-3.4,6.6-6.9,9.5-10.7l31.4-7.4c2.1,28.1-3.1,54.5-17,77.3Z"/>
  <path class="cls-1" d="M805.5,1543.7c381.3,0,690.5-18.1,690.5-40.3s-309.1-40.3-690.5-40.3-690.5,18-690.5,40.3,309.1,40.3,690.5,40.3Z"/>
  <path class="cls-2" d="M655.9,1472.7l-56.3,4.2-1.6-20.8,50.7-3.6-1.6-21.4-50.7,3.6-1.2-16.7,54.7-4-1.6-22.5-87.4,6.4,5.8,79.7h89.5l-.2-4.9Z"/>
  <path class="cls-2" d="M761.3,1458.2c-1.5-2.2-3.2-4.3-5.1-6.2-1.7-1.9-3.6-3.7-5.6-5.2-2.8-1.5-5.7-2.6-8.8-3.3,4-1.1,7.7-2.8,11.1-5,4.1-2.8,7.4-6.6,9.5-11.1,2.3-4.8,3.2-10.2,2.6-15.5-.2-6.1-2.3-11.9-6-16.7-3.4-4.3-8.2-7.4-13.6-8.7-7.7-1.5-15.5-1.8-23.3-.9l-54.3,4,6.5,88h32.9l-2.1-27.7,2.9-.2c2.9-.2,5.7.4,8.2,1.9,2.7,2.1,4.9,4.7,6.5,7.7l11.7,18.3h38.8l-12.1-19.5ZM731,1423.3c-1.2,1.8-3,3-5,3.6-2.8,1-5.6,1.7-8.5,2.1l-13.7,1-1.6-21.4,14.2-1c4.2-.7,8.6,0,12.4,1.9,1.2.9,2.1,2,2.8,3.3.7,1.3,1,2.8,1,4.2.2,2.2-.3,4.4-1.5,6.3Z"/>
  <path class="cls-2" d="M876,1449.8c-1.5-2.2-3.2-4.3-5.1-6.2-1.6-2-3.5-3.7-5.6-5.2-2.7-1.5-5.7-2.6-8.8-3.3,3.9-1.1,7.7-2.8,11.1-5,4.3-2.9,7.7-6.9,9.8-11.6,2.2-4.7,3-9.9,2.4-15-.3-6.1-2.4-11.9-6.2-16.7-3.4-4.3-8.2-7.3-13.6-8.7-7.7-1.5-15.5-1.8-23.3-.9l-54.4,4.1,7.1,96.4h32.9l-2.7-36.3,2.9-.2c2.8-.3,5.7.4,8.2,1.9,2.7,2.1,4.9,4.7,6.5,7.7l17.1,26.8h38.6l-17-28ZM845.7,1414.9c-1.2,1.8-3,3-5.1,3.6-2.8.9-5.6,1.6-8.5,2.1l-13.8,1-1.6-21.4,14.2-1.1c4.2-.7,8.5,0,12.4,1.9,1.2.9,2.1,2,2.8,3.4.7,1.3,1,2.8,1,4.3.2,2.2-.3,4.5-1.5,6.3Z"/>
  <path class="cls-2" d="M1054.5,1413c-1.3-17-7-29.9-17.2-38.6-10.1-8.7-24.1-12.5-41.6-11.2-17.6,1.3-30.2,7.1-39.2,17.4-9,10.3-12.7,24.1-11.4,41.3.4,10.8,3.7,21.2,9.5,30.3,5,7.4,12,13.2,20.3,16.6,9.6,3.4,19.8,4.7,30,3.6,10.2-.4,20.2-3.4,28.9-8.8,7.4-4.8,13.2-11.7,16.6-19.8,3.9-9.8,5.3-20.4,4.1-30.8ZM1017.9,1439.9c-1.9,2.3-4.3,4.2-7.1,5.6-2.7,1.4-5.7,2.2-8.7,2.4-3,.2-6.1-.2-8.9-1.2-2.9-1-5.5-2.6-7.8-4.6-4.3-4.3-6.8-11.9-7.6-22.5-.8-10.6.6-18.6,4.3-23.5,1.8-2.4,4.1-4.4,6.7-5.9,2.7-1.4,5.6-2.2,8.6-2.3,3.1-.4,6.2,0,9.1.9,2.9,1,5.6,2.6,7.8,4.8,4.3,4.3,6.9,11.4,7.6,21.4.9,11.8-.5,20.1-4,24.9Z"/>
  <path class="cls-2" d="M1167.8,1427.2c3.1-4.7,5-10.2,5.3-15.9.4-5.7-.8-11.3-3.3-16.4-2.7-4.8-6.8-8.6-11.9-10.7-7.3-2.8-15-4.4-22.8-4.9l-54.2-5.3-10.3,103.6h33l3.8-38.2,2.8.3c2.9.3,5.6,1.4,7.7,3.3,2.3,2.5,4,5.5,5.1,8.7l10.9,25.9h35.6l-8.1-20.5c-1.1-2.5-2.4-4.9-3.9-7.1-1.3-2.2-2.8-4.2-4.6-6.1-2.5-2-5.2-3.6-8.1-4.7,4.1-.4,8.1-1.4,11.9-3.1,4.4-2,8.2-5.1,11.1-9ZM1140.3,1411.8c-.2,2.2-1.1,4.3-2.6,5.9-1.5,1.6-3.5,2.6-5.6,2.8-2.9.5-5.8.6-8.8.5l-13.7-1.3,2.1-21.4,14.2,1.4c4.3,0,8.4,1.4,11.9,3.9,1,1.1,1.7,2.4,2.2,3.8.4,1.4.6,2.9.3,4.4Z"/>
  <g class="cls-13">
    <path class="cls-8" d="M655.9,1472.7l-56.3,4.2-1.6-20.8,50.7-3.6-1.6-21.4-50.7,3.6-1.2-16.7,54.7-4-1.6-22.5-87.4,6.4,5.8,79.7h89.5l-.2-4.9Z"/>
    <path class="cls-8" d="M761.3,1458.2c-1.5-2.2-3.2-4.3-5.1-6.2-1.7-1.9-3.6-3.7-5.6-5.2-2.8-1.5-5.7-2.6-8.8-3.3,4-1.1,7.7-2.8,11.1-5,4.1-2.8,7.4-6.6,9.5-11.1,2.3-4.8,3.2-10.2,2.6-15.5-.2-6.1-2.3-11.9-6-16.7-3.4-4.3-8.2-7.4-13.6-8.7-7.7-1.5-15.5-1.8-23.3-.9l-54.3,4,6.5,88h32.9l-2.1-27.7,2.9-.2c2.9-.2,5.7.4,8.2,1.9,2.7,2.1,4.9,4.7,6.5,7.7l11.7,18.3h38.8l-12.1-19.5ZM731,1423.3c-1.2,1.8-3,3-5,3.6-2.8,1-5.6,1.7-8.5,2.1l-13.7,1-1.6-21.4,14.2-1c4.2-.7,8.6,0,12.4,1.9,1.2.9,2.1,2,2.8,3.3.7,1.3,1,2.8,1,4.2.2,2.2-.3,4.4-1.5,6.3Z"/>
    <path class="cls-8" d="M876,1449.8c-1.5-2.2-3.2-4.3-5.1-6.2-1.6-2-3.5-3.7-5.6-5.2-2.7-1.5-5.7-2.6-8.8-3.3,3.9-1.1,7.7-2.8,11.1-5,4.3-2.9,7.7-6.9,9.8-11.6,2.2-4.7,3-9.9,2.4-15-.3-6.1-2.4-11.9-6.2-16.7-3.4-4.3-8.2-7.3-13.6-8.7-7.7-1.5-15.5-1.8-23.3-.9l-54.4,4.1,7.1,96.4h32.9l-2.7-36.3,2.9-.2c2.8-.3,5.7.4,8.2,1.9,2.7,2.1,4.9,4.7,6.5,7.7l17.1,26.8h38.6l-17-28ZM845.7,1414.9c-1.2,1.8-3,3-5.1,3.6-2.8.9-5.6,1.6-8.5,2.1l-13.8,1-1.6-21.4,14.2-1.1c4.2-.7,8.5,0,12.4,1.9,1.2.9,2.1,2,2.8,3.4.7,1.3,1,2.8,1,4.3.2,2.2-.3,4.5-1.5,6.3Z"/>
    <path class="cls-8" d="M1054.5,1413c-1.3-17-7-29.9-17.2-38.6-10.1-8.7-24.1-12.5-41.6-11.2-17.6,1.3-30.2,7.1-39.2,17.4-9,10.3-12.7,24.1-11.4,41.3.4,10.8,3.7,21.2,9.5,30.3,5,7.4,12,13.2,20.3,16.6,9.6,3.4,19.8,4.7,30,3.6,10.2-.4,20.2-3.4,28.9-8.8,7.4-4.8,13.2-11.7,16.6-19.8,3.9-9.8,5.3-20.4,4.1-30.8ZM1017.9,1439.9c-1.9,2.3-4.3,4.2-7.1,5.6-2.7,1.4-5.7,2.2-8.7,2.4-3,.2-6.1-.2-8.9-1.2-2.9-1-5.5-2.6-7.8-4.6-4.3-4.3-6.8-11.9-7.6-22.5-.8-10.6.6-18.6,4.3-23.5,1.8-2.4,4.1-4.4,6.7-5.9,2.7-1.4,5.6-2.2,8.6-2.3,3.1-.4,6.2,0,9.1.9,2.9,1,5.6,2.6,7.8,4.8,4.3,4.3,6.9,11.4,7.6,21.4.9,11.8-.5,20.1-4,24.9Z"/>
    <path class="cls-8" d="M1167.8,1427.2c3.1-4.7,5-10.2,5.3-15.9.4-5.7-.8-11.3-3.3-16.4-2.7-4.8-6.8-8.6-11.9-10.7-7.3-2.8-15-4.4-22.8-4.9l-54.2-5.3-10.3,103.6h33l3.8-38.2,2.8.3c2.9.3,5.6,1.4,7.7,3.3,2.3,2.5,4,5.5,5.1,8.7l10.9,25.9h35.6l-8.1-20.5c-1.1-2.5-2.4-4.9-3.9-7.1-1.3-2.2-2.8-4.2-4.6-6.1-2.5-2-5.2-3.6-8.1-4.7,4.1-.4,8.1-1.4,11.9-3.1,4.4-2,8.2-5.1,11.1-9ZM1140.3,1411.8c-.2,2.2-1.1,4.3-2.6,5.9-1.5,1.6-3.5,2.6-5.6,2.8-2.9.5-5.8.6-8.8.5l-13.7-1.3,2.1-21.4,14.2,1.4c4.3,0,8.4,1.4,11.9,3.9,1,1.1,1.7,2.4,2.2,3.8.4,1.4.6,2.9.3,4.4Z"/>
  </g>
  <path class="cls-2" d="M1009.5,1220.3c7.1,9.5,11.8,32.4,0,35.1-11.8,2.7-7.1-34.5-7.1-34.5-3.3-3.2-.6-11.1,7.1-.6Z"/>
  <path class="cls-2" d="M983.3,1415.2c7.5,5.3,16.7,20.9,8.6,25.9-8.1,5-13.9-23.6-13.9-23.6-3.1-1.6-3-8,5.2-2.3Z"/>
  <path class="cls-2" d="M846,1421.7c-.5,9.2-8.9,25.3-17.5,21-8.5-4.3,12.7-24.3,12.7-24.3-.2-3.5,5.2-6.8,4.7,3.2Z"/>
  <path class="cls-2" d="M1005.7,1205c12,1.6,27.2,14.6,14.9,25.6-12.3,11-22.9-19.7-22.9-19.7-4.8,0-5.2-7.7,8-5.9Z"/>
  <path class="cls-2" d="M1005.6,1216.9c11,61.4-23.2,130.3-13.1,196.4,2.7,18.2-26.3-.9-26.3-.9,0,0-67.7-6.6-85.8.5-3.1,17.1-51.2,28.5-54.1-4.2-2.9-32.7-5.6-114-5.6-114,0,0,133.9-92.3,185-77.7Z"/>
  <path class="cls-11" d="M843.9,1279.4c-14.2,9-23.3,15.2-23.3,15.2,0,0,.8,23.7,2,50.6,31.3-19.1,57.9-49.9,57.9-49.9-11.4-7-23.7-12.3-36.6-15.9Z"/>
  <path class="cls-2" d="M840.9,1416.1c-2.5,32.6-32.8,78.9-21.9,92.6,10.9,13.7,189.7,12.5,213.7,0,23.9-12.5-54.5-64.1-53.2-107.3-136-35.4-138.6,14.7-138.6,14.7Z"/>
  <path class="cls-4" d="M841.6,1496.5c-16-16-43.6.4-47.8,19.6,31.8,6.7,53.7-2.9,53.7-2.9.2-3-.2-6.1-1.2-9-1-2.9-2.6-5.5-4.6-7.7Z"/>
  <path class="cls-4" d="M1015.3,1492.4c16-16,43.6.4,47.8,19.6-31.7,6.7-53.7-2.9-53.7-2.9-.2-3,.2-6.1,1.2-9,1-2.9,2.6-5.5,4.7-7.7Z"/>
  <path class="cls-4" d="M976.9,1496c15.1-19.2,41.2.5,45.2,23.5-30,8-50.7-3.6-50.7-3.6-.4-7.1,1.5-14.1,5.5-20Z"/>
  <path class="cls-4" d="M942.1,1493.6c35.1-5,40.8,10.7,27.4,30.5-37.5.6-43.3-8-43.3-8,0,0-8.9-18.9,15.9-22.5Z"/>
  <path class="cls-2" d="M508.5,1105.1c-11.4,2.9-29.7,17.5-22.2,27.2,7.5,9.7,27.5-22.1,27.5-22.1,4.4-.5,7.3-8.3-5.3-5.1Z"/>
  <path class="cls-2" d="M418,1264.1c-8.9,2.1-23.3,13.3-17.6,20.9,5.7,7.7,21.6-16.9,21.6-16.9,3.4-.3,5.9-6.4-4-4Z"/>
  <path class="cls-2" d="M531.8,1352c-5.9,7.1-10.7,24.5-1.6,27.2,9,2.7,7.1-26.4,7.1-26.4,2.7-2.3,1.2-8.5-5.5-.8Z"/>
  <path class="cls-2" d="M623.5,1268.1c-6.7,6.3-13.8,23-5,26.9,8.8,3.8,10.5-25.3,10.5-25.3,2.8-2,2.1-8.4-5.5-1.6Z"/>
  <path class="cls-2" d="M521.1,1095.7c-10.3-6.3-30.3-6-27.8,10.3,2.5,16.3,30.2-.7,30.2-.7,3.7,3.1,8.9-2.7-2.4-9.6Z"/>
  <path class="cls-2" d="M557.8,1067.3c-47.6,40.3-90.1,143.7-140,188.3-13.7,12.3,20.9,16,20.9,16,0,0,64.6,29.8,74.1,46.8-8.5,15.1,21.4,54.5,44.4,31.2,23-23.3,76.9-84.3,76.9-84.3,0,0-27.7-176.8-76.4-198Z"/>
  <path class="cls-4" d="M323.6,1374.7c-13.1-18.4-43.1-6.7-50.4,11.6,30.2,11.8,53.4,5.9,53.4,5.9.7-3,.8-6,.3-9-.5-3-1.6-5.9-3.3-8.4Z"/>
  <path class="cls-2" d="M536.9,1349.7c-21.4,24.9-5.8,113.3-22.2,119.7-16.4,6.4-279-41.9-184.3-107.9,22.1-15.4,72.5-57.4,87.2-97.9,139.5,17.1,119.3,86.1,119.3,86.1Z"/>
  <path class="cls-4" d="M506,1447.5c19.8,11,11.6,42.1-5.7,51.4-15.2-28.7-12-52.4-12-52.4,2.9-1,5.9-1.5,8.9-1.3,3,.2,6,1,8.7,2.3Z"/>
  <path class="cls-4" d="M344.9,1396.1c-13.8-27.8-49.3-9-59.4,11.2,21.8,22.1,54.1,8.9,54.1,8.9,0,0,10.1-10.6,5.3-20.1Z"/>
  <path class="cls-4" d="M373.5,1412.1c-29.1-20.3-53.7,3.2-50.6,26.9,33.2,17.5,54.7.3,54.7.3,0,0,16.5-12.9-4.1-27.2Z"/>
  <path class="cls-2" d="M742.9,1315.5c182.7,31.4,308.4-85,446.2-369.5,76.7-158.3-16.6-267.1-67.7-287.5,23.2-51.1-.2-129.7-33.8-163.4,12.6,10.7,32.3-.4,32.3-.4-24.9-13.6-58.4-136.3-207.7-165.3-136.1-26.5-204.7,49.6-254.4,77.5,0,0,11,20.1,33.8,20.2-42.9,20.6-82.8,77.3-86.4,142.8-55,2-166.8,72.6-159.8,248.4,12.7,315.9,114.6,465.8,297.3,497.2Z"/>
  <path class="cls-6" d="M694,529.2c47.7-6.4,95.2,7.4,117.5,27.4-46.9-19.4-117.5-27.4-117.5-27.4Z"/>
  <path class="cls-6" d="M915.6,590.4c40.8-8.5,82.8.3,103.6,16.2-41.9-13.7-103.6-16.2-103.6-16.2Z"/>
  <path class="cls-6" d="M749.9,556.6c18.2-9.7,38.6-7.9,52.9,4.6-17.5-2.9-35.2-4.5-52.9-4.6Z"/>
  <path class="cls-11" d="M445.4,813.8c33.1-38.6,60.2-92.2,65.2-125.2-16.2,1.1-32.1,3.8-47.7,8.2-11.9,32.1-18.8,70.9-17.5,117Z"/>
  <path class="cls-11" d="M1217.5,810.7c-11.8-6.4-24.2-11.8-36.9-16.2-3.2,28.8,5.6,76.7,22.3,118.8,12.2-32.8,17.2-67.7,14.6-102.6Z"/>
  <path class="cls-6" d="M704.1,560.7c-8-16.6-22.9-27.2-39-26.6-11.7.4-45,1.9-20.7,57.6,27,61.8,94,39.5,59.6-31Z"/>
  <path class="cls-6" d="M1066,586.7c13.7-6.1,25.9-3.6,31.1,7.9,3.8,8.3,14.2,32.1-30.9,54.4-50.1,24.8-58.7-36.4-.2-62.3Z"/>
  <path class="cls-8" d="M847.1,536c-2.5,5.9-6.3,11.1-11,15.3-2.4,2.1-5.4,3.3-8.5,3.4-3.1.1-6.2-.9-8.7-2.8-21-14.9-45.2-24.7-70.7-28.5-2.1-.3-4.1-1.2-5.9-2.4-1.7-1.3-3.2-2.9-4.1-4.8-1-1.9-1.5-4-1.5-6.2s.5-4.3,1.4-6.2c28.2-54.6,130.8-19.8,109,32.2Z"/>
  <path class="cls-4" d="M804.3,501c17.2-20.8,50.9,5.7,39.2,25.8-13.5,22.7-60.5,0-39.2-25.8Z"/>
  <path class="cls-8" d="M1005.8,586.7c-29.9-4.5-60.1-5.7-90.2-3.6-5,.4-9.9-.6-14.3-2.9s-8.1-5.8-10.6-10.1c-3.3-5.7-5.6-12-6.8-18.5-12.3-73.9,130.8-87.2,150.4-8.5,1.3,5,2.1,10,2.6,15.1.3,4-.3,8.1-1.8,11.9-1.5,3.8-3.8,7.1-6.8,9.9-3,2.7-6.6,4.8-10.4,5.9-3.9,1.2-8,1.4-12,.8Z"/>
  <path class="cls-4" d="M934.2,530.9c-8.3-11.9-31.3-.4-24.5,11.1,6.8,11.5,35.5,4.5,24.5-11.1Z"/>
  <path class="cls-4" d="M667.3,560.6c42.9,57.9,131.8,67.7,219.2,76.3,87.5,8.6,174.7,0,186.7-29.7-6.7,63-27.2,156.7-222.7,124.9-215.7-35.2-183.2-171.4-183.2-171.4Z"/>
  <g class="cls-12">
    <g>
      <path class="cls-5" d="M649.7,673.8c50.7-29.1,126.2-33.3,207.6,16,47.3-15.8,146.5-27.5,178.7,63.8-211.3,46.2-386.3-79.8-386.3-79.8Z"/>
      <path class="cls-8" d="M865.3,630.2c-4.6,17-24.6,29.6-40.8,25.6-7.4-1.5-14-5.7-18.6-11.7-4.6-6-6.8-13.5-6.4-21l65.8,7.1Z"/>
      <path class="cls-8" d="M783.8,619.3c-6.8,14.2-28,20.8-40.1,16.2-16-6.1-16.8-32.7-16.8-32.7l56.9,16.5Z"/>
      <path class="cls-8" d="M725,596.6c-8.8,9.1-25.9,10.1-34.6,1.9-4.1-3.5-6.8-8.5-7.6-13.8-.8-5.4.4-10.9,3.3-15.5l39,27.4Z"/>
      <path class="cls-8" d="M884.9,633.2c1.6,15.7,17.6,26,32.4,28.5,13.4,2.4,26.8-25.2,26.8-25.2l-59.2-3.2Z"/>
      <path class="cls-8" d="M963.3,632.9c3.1,12.3,12.9,22,20,19.8,11.9-3.8,9.4-22.3,9.4-22.3l-29.3,2.5Z"/>
      <path class="cls-8" d="M1014.7,629.7c1.6,3.9,4.6,7,8.4,8.9,3.8,1.9,8.1,2.3,12.1,1.3,3.4-1.1,6.3-3.4,8.2-6.4,1.9-3.1,2.6-6.7,2-10.2l-30.7,6.5Z"/>
      <path class="cls-8" d="M831.2,740.4c4.5-17,24.4-29.8,40.7-25.9,7.4,1.5,14,5.6,18.6,11.5,4.6,6,6.9,13.4,6.5,20.9l-65.8-6.6Z"/>
      <path class="cls-8" d="M926.6,748.7c.5-15.8,17.3-30.3,30.2-30.9,17.1-.7,28.5,23.3,28.5,23.3l-58.7,7.6Z"/>
      <path class="cls-8" d="M999.4,732c-.4-17,6.1-32.8,13.3-32.1,12.1,1.2,14.6,26.2,14.6,26.2l-27.9,5.9Z"/>
      <path class="cls-8" d="M796.3,729.4c3.6-19.7-8.6-36.6-22.2-43.9-12.4-6.6-34.8,23.7-34.8,23.7l57,20.2Z"/>
      <path class="cls-8" d="M719.1,687.7c4.6-11.8,2.2-25.4-4.9-27.7-11.9-3.8-20.5,12.8-20.5,12.8l25.4,14.9Z"/>
      <path class="cls-8" d="M700.8,673.1c2.3-3.5,3.3-7.7,2.7-11.9-.5-4.2-2.6-8-5.7-10.8-2.8-2.2-6.3-3.4-9.9-3.3-3.6.1-7,1.6-9.6,4l22.5,21.9Z"/>
    </g>
  </g>
  <path class="cls-2" d="M638.5,474.4c-20.5,27.7-38.5,49.2-47.7,53.4,19.3,9.3,31.5,1.8,31.5,1.8,0,0,38.7-85.5,16.2-55.2Z"/>
  <path class="cls-2" d="M964.6,344.9c-25.7-21.1-87.9-14.6-129.3-55.3-7.4,20.1,8.8,34.7,8.8,34.7,0,0,149.8,44.7,120.6,20.7Z"/>
  <path class="cls-2" d="M966.1,345.1c-15.7-20.3-55.1-12.3-80.2-51.8-1.6,5.7-2,11.7-1.2,17.7.8,5.9,2.8,11.6,5.8,16.7,0,0,93.4,40.5,75.6,17.5Z"/>
  <path class="cls-2" d="M288.8,703.1c-30.7,12.6-54.6,70.3-110.1,87.5,14.2,16,34.7,8.8,34.7,8.8,0,0,110.4-110.6,75.4-96.3Z"/>
  <path class="cls-2" d="M219.2,984.8c0,74.4,43.1,76.4,41.4,134.5,19.7-8.2,25.3-32.1,25.3-32.1,0,0-66.7-140.3-66.7-102.5Z"/>
  <path class="cls-2" d="M1395.5,841c19.7,26.7,36.9,73.3,79.3,134.7-18.4,10.9-35.6-13.7-35.6-13.7,0,0-66.1-151.4-43.7-121Z"/>
  <path class="cls-2" d="M291.8,697.7c-24.1,8.7-63.1,71.5-109.8,74.8,4.3,4.2,9.3,7.4,14.9,9.6,5.6,2.1,11.5,3.2,17.4,2.9,0,0,61.1-28.4,77.5-87.3Z"/>
  <path class="cls-2" d="M369,876.5c20.9,14.9,14.2,54.5,54.8,78.1-5.7,1.8-11.7,2.5-17.6,1.9-5.9-.6-11.7-2.3-16.9-5.2,0,0-44.2-91.8-20.3-74.9Z"/>
  <path class="cls-4" d="M792.2,350.9c-7.7,22.2-35.6,44.1-72.2,46.7-20.8-8.7-68.5-88-61.5-133.2,7-45.2,96.5-104.9,114.4-108,16.4-2.9-54.6,70.1-51.1,108.8,3.5,38.7,70.4,85.7,70.4,85.7Z"/>
  <path class="cls-4" d="M1004,397.7c-.9,19.2,13.9,44.3,41.1,57.3,18.4-.4,78.7-46.7,87-83.3s-34.9-97.6-54.9-116.9c-10.7-10.4,20.7,69.9,6.4,98.5-14.3,28.6-79.6,44.4-79.6,44.4Z"/>
  <g class="cls-15">
    <path class="cls-9" d="M693.3,391.9c-1.3,0-2.6-.5-3.6-1.3-1.4-1.3-2.2-3-2.3-4.8-.3-3.8.3-7.7,1.8-11.2,1.5-3.5,3.8-6.7,6.8-9.1,4.8-4.1,10.1-7.5,15.8-10.2l2.7-1.4c13.9-7.5,26.9-16.5,38.8-27,5.1-4.5,9.8-9.4,10.7-15.6.2-.8,0-1.6-.3-2.3-.8-.6-1.7-.9-2.7-.9-17.5-1.3-34.2,8.5-46.8,17.3-2.3,1.6-4.5,3.2-6.8,4.8-11.9,8.4-24.1,17.2-38.4,21-5,1.6-10.3,1.8-15.3.4-2.7-.8-5-2.3-6.8-4.5-1.7-2.1-2.8-4.8-2.9-7.5,0-5.7,4.1-10.7,12.3-14.8,9.5-4.6,19.3-8.5,29.4-11.6,4.6-1.5,9.1-3,13.6-4.7,12.1-4.5,27.5-11.3,38-23.7,2.1-2.5,4.4-6.2,3.2-9.3-.8-1.5-2-2.8-3.6-3.6-5.4-3.3-12.7-4.2-22.1-2.5-14.5,2.5-28.1,9-39.2,18.8-2,1.8-4,3.6-5.9,5.6-4.7,5.1-10.2,9.4-16.3,12.8-9,4.5-22,3.6-27.3-5.2-4.5-7.5-1.4-17,4-22.6,5.8-5.4,13-9,20.7-10.7,9.1-2.5,18.6-4.2,27.8-5.8,14.7-2,29.1-5.7,42.9-11.1,4.7-1.9,9.1-4.6,12.8-8,.9-.7,1.5-1.7,1.8-2.8,0-.3,0-.6,0-.9,0-.3-.3-.6-.5-.8-2-1.5-4.4-2.3-6.9-2.2-20.5-.4-41.4-.4-61.9,0-7.7.2-12.6-2.6-13-7.1-.2-3.1,1.6-5.9,5.7-8.8,12-8.3,26-13,40.5-13.6,9.1-.1,18.2.6,27.1,2.1,10.4,1.9,20.9,2.4,31.4,1.6,1.5,0,2.9-.4,4.3-1,1.3-.6,2.5-1.5,3.5-2.6,2.4-3.6-.8-8.9-4.9-12.1-8.3-6.3-18.3-9.2-28.9-12.1-6.7-1.7-13.2-3.8-19.6-6.4-1.4-.6-2.6-1.4-3.6-2.5-1-1.1-1.8-2.3-2.2-3.7-.1-.7-.1-1.3,0-2,.2-.7.5-1.2,1-1.7,1-.9,2.2-1.5,3.6-1.8,17.6-4,35.9-1.4,51.8,7.1,7.9,4.3,12.2,9.7,12.5,15.5,0,.2,0,.4,0,.6,0,.2-.2.3-.3.5-.1.1-.3.3-.4.3-.2,0-.4.1-.5.1-.2,0-.4,0-.5,0-.2,0-.3-.2-.5-.3-.1-.1-.2-.3-.3-.4,0-.2-.1-.4-.1-.5-.3-6.1-6.2-10.5-11-13.1-15.3-8.2-33-10.6-49.9-6.7-.8,0-1.6.4-2.2.9-.2.2-.3.4-.4.6,0,.2,0,.5,0,.7.4.9,1,1.8,1.7,2.5.7.7,1.6,1.3,2.5,1.7,6.2,2.6,12.7,4.7,19.2,6.4,10.4,2.9,21.1,5.9,29.8,12.6,5.3,4.1,9,10.7,5.6,15.9-1.2,1.4-2.7,2.6-4.4,3.4-1.7.8-3.5,1.2-5.4,1.3-10.7.8-21.5.2-32.1-1.6-8.8-1.5-17.7-2.2-26.6-2.1-14,.6-27.6,5.2-39.2,13.1-3.2,2.2-4.7,4.2-4.5,6.2.4,4.5,8.5,4.6,10.1,4.6,20.5-.3,41.3-.3,61.9,0,3.3-.1,6.5,1,9,3.2.5.5.8,1.1,1.1,1.8.2.7.3,1.4.2,2.1-.3,1.8-1.3,3.4-2.6,4.5-4,3.7-8.6,6.6-13.7,8.6-14,5.5-28.6,9.3-43.6,11.3-9.1,1.6-18.6,3.3-27.5,5.7-7.2,1.5-13.9,4.9-19.4,9.9-4.5,4.7-7.3,13-3.6,19.2,4.5,7.5,15.8,8,23.7,4.1,5.9-3.3,11.2-7.4,15.8-12.4,2-1.9,4-3.8,6-5.6,11.5-10.1,25.5-16.7,40.5-19.3,10.1-1.7,18-.8,24,2.9,2,1.1,3.6,2.8,4.6,4.9,1.4,3.6,0,7.7-3.6,12.1-11,12.9-26.7,19.9-39.2,24.5-4.5,1.7-9,3.2-13.6,4.7-10,3.1-19.8,6.9-29.2,11.4-7.1,3.6-10.7,7.8-10.7,12.4.2,2.2,1,4.2,2.4,5.9,1.4,1.7,3.2,2.9,5.3,3.5,4.5,1.2,9.3,1.1,13.7-.4,13.8-3.6,25.8-12.3,37.5-20.5,2.2-1.6,4.5-3.2,6.8-4.8,13-9,30.2-19.1,48.6-17.8.9,0,1.8.1,2.6.5.8.3,1.6.9,2.2,1.5.4.6.7,1.3.9,2.1.2.7.2,1.5,0,2.2-.8,7.1-6,12.5-11.4,17.3-12,10.6-25.1,19.8-39.2,27.3l-2.7,1.4c-5.5,2.6-10.6,5.9-15.2,9.8-2.6,2.1-4.7,4.9-6,8-1.3,3.1-1.9,6.5-1.6,9.8,0,1.2.5,2.3,1.4,3.1,2.2,1.8,6.1-.9,7.7-2.1l8.2-6.5c17.2-14.3,35.4-27.5,54.4-39.4,25.4-15.1,50.1-23.3,73.4-24.4.4,0,.7.1,1,.4.3.3.4.6.5,1,0,.2,0,.4,0,.5,0,.2-.2.3-.3.5-.1.1-.3.2-.4.3-.2,0-.4.1-.5.1-22.8,1.1-47,9.1-72.1,24-18.9,11.9-36.9,24.9-54.1,39.2l-8.2,6.5c-2.2,1.9-5,3.1-7.9,3.2Z"/>
  </g>
  <g class="cls-14">
    <path class="cls-9" d="M1081.7,461.6c-2.8-.4-5.4-1.8-7.3-4l-.9-.7c-3.5-2.8-7.3-5.3-11.2-7.6-13.2-8.2-29.8-18.3-39.6-46.3-7.1-20.4-33.5-28.5-56.8-35.3l-7.4-2.1c-.4-.1-.6-.4-.8-.7-.2-.3-.2-.7-.1-1.1.1-.4.4-.7.7-.8.3-.2.7-.2,1.1,0l7.1,2.2c23.9,7.1,51,15.3,58.6,37.1,9.5,26.9,25.5,36.8,38.4,44.7,4,2.3,7.9,5,11.5,7.8l.9.8c2.1,1.8,4.4,3.8,6.4,3.1.8-.4,1.5-1.2,1.9-2,2.1-4.5.7-10.5-3.6-16.1-3.7-4.4-7.9-8.4-12.5-11.8l-2.4-1.9c-11.8-9.6-22.5-20.4-32.1-32.3-4.2-5.3-8-11.1-7.3-17.2,0-.7.2-1.4.6-2,.3-.6.8-1.2,1.4-1.6,1.6-.8,3.3-.9,5-.4,18,3.6,32.4,16.3,42.9,26.9,1.9,1.9,3.6,3.6,5.5,5.6,9.5,9.8,19.2,19.8,31.8,26.4,4,2.4,8.5,3.7,13.2,4,4,0,8.4-1.9,9.4-5.3,1.2-4.4-3.6-9.2-7.7-12.5-8.2-6.2-16.8-11.8-25.7-16.8-4.1-2.4-8.1-4.8-12.1-7.4-11-7.1-24.7-16.7-32.5-30-3.6-6-2.4-9.4-.8-11.1,1.5-1.5,3.5-2.5,5.6-2.8,8.2-1.2,16.5.2,23.9,4,13.6,5.7,25.6,14.7,34.9,26.2,1.6,2,3.1,4.1,4.6,6.1,3.4,5.3,7.6,10,12.4,14,6.8,5.3,18.1,7.7,23.9,2.9,4.8-4,3.9-11.1.6-16-4.5-5.6-10.2-10.1-16.7-13.1-8.2-4.3-16.9-8.1-25.4-11.8-13.9-5.5-27.1-12.3-39.6-20.4-4.3-2.9-8.1-6.4-11.3-10.5-1.1-1.3-1.7-2.9-1.6-4.6,0-.6.3-1.1.6-1.6.3-.5.7-.9,1.2-1.2,3.1-1.4,6.5-1.6,9.7-.5,19.9,5,40,10.4,59.8,16,4.7,1.3,9.8,1.6,10.7-.9.5-1.4-.5-3.3-3-5.9-9.8-9.6-21.8-16.8-34.9-20.8-8.5-2.4-17.1-4.1-25.9-5.3-10.7-1.3-21.2-3.7-31.3-7.1-3.5-1-6.5-3.2-8.4-6.3-.4-.8-.6-1.7-.6-2.6s.2-1.8.6-2.6c2-3.3,5.2-5.7,8.9-6.7,9.9-3.1,20.9-2.8,31.5-2.5,6.6.4,13.3.3,19.9-.2,1.9,0,3.6-.9,4.9-2.2,0-.1.1-.2.1-.4s0-.3-.1-.4c-.5-.6-1.2-1.1-2-1.4-15.4-7.5-32.7-10.2-49.7-7.5-5.2.9-11.8,2.9-13.4,7.6-.1.4-.4.6-.7.8-.3.2-.7.2-1.1,0-.4-.1-.6-.4-.8-.7-.2-.3-.2-.7,0-1.1,1.6-4.8,6.9-8,15.6-9.5,17.5-2.7,35.5,0,51.4,7.8,1.2.5,2.3,1.3,3.1,2.4.4.5.6,1.1.6,1.7,0,.6,0,1.3-.3,1.8-.8,1.1-1.9,2.1-3.1,2.7-1.2.7-2.6,1-4,1.1-6.8.5-13.5.6-20.3.2-10.7-.4-21.1-.7-30.6,2.3-2.9.8-5.5,2.6-7.1,5.2-.2.4-.3.9-.3,1.4s.1,1,.3,1.4c1.6,2.4,4,4.1,6.8,4.8,10,3.3,20.3,5.6,30.8,6.8,9,1.1,17.9,2.9,26.6,5.3,13.6,4.1,26,11.5,36.1,21.4,1.2,1.3,5.1,5.1,3.6,8.9-1.5,3.8-6.7,4.7-14.2,2.6-19.8-5.6-39.9-11-59.7-16-2.4-.9-5-.9-7.4,0-.2,0-.3.2-.4.4-.1.1-.2.3-.2.5,0,.9.5,1.8,1.1,2.5,3,3.8,6.6,7.2,10.7,9.8,12.3,8,25.5,14.8,39.2,20.2,8.5,3.6,17.3,7.5,25.5,11.9,7,3.2,13.1,7.9,17.8,14,4,6,4.9,14.7-1.1,19.8-7.1,5.8-19.7,3.1-27.4-2.8-5-4.2-9.4-9.1-12.9-14.6-1.5-2-2.9-4.1-4.5-6-9-11.1-20.6-19.8-33.8-25.4-6.8-3.4-14.5-4.7-22-3.6-1.5.2-2.9.9-4,1.9-1.7,2-.4,5.4,1.1,7.9,7.4,12.8,20.8,22.2,31.5,29,4,2.5,8,4.9,12.1,7.3,9,5.1,17.7,10.8,26,17.1,7.1,5.6,10,10.7,8.7,15.5-1,2.4-2.7,4.4-4.8,5.7-2.2,1.3-4.7,1.9-7.3,1.7-5.1-.2-10.1-1.7-14.5-4.3-12.9-6.8-22.9-17-32.5-26.9-1.8-1.9-3.6-3.6-5.5-5.6-10.3-10.3-24.3-22.6-41.5-26.2-.9-.3-1.9-.3-2.9,0-.4.2-.6.7-.6,1.5-.6,5.1,2.8,10.3,6.7,15.1,9.4,11.8,20,22.5,31.7,32.1l2.3,1.9c4.8,3.6,9.2,7.7,13,12.3,5,6.5,6.3,13.6,3.8,19-.3.8-.8,1.5-1.4,2.2-.6.6-1.4,1.1-2.2,1.4-.7.2-1.5.3-2.3.2Z"/>
  </g>
  <path class="cls-4" d="M757.1,474.1c85.8,33,94.1,56.4,102.6,47.3,8.5-9.2,4.2-48.8-15.8-65-19.9-16.2-28.5-8.1-23.1-1.7-28.8-20.9-61.3-23.8-71.2-20.5s1.6,10.3,1.6,10.3c0,0-60,4.2,5.9,29.6Z"/>
  <path class="cls-4" d="M1021.8,525.6c-117.3-1.9-136.4,16.8-143.2,4.9-6.9-11.9,13.5-47.2,43.9-54.7,30.5-7.5,38,3.6,28.8,7.1,43.1-8.6,83.9,1.2,94.9,8,11.1,6.9-5.8,9.1-5.8,9.1,0,0,71.4,27-18.6,25.5Z"/>
  <path class="cls-2" d="M787,350.2c-4.7-10.7-4.3-34.2,8-34.2,12.3,0-.7,35.3-.7,35.3,2.3,3.8-2.1,10.9-7.2-1Z"/>
  <path class="cls-2" d="M609.9,582.2c-10.4-5.7-24.3-24.5-14.6-32.1,9.7-7.6,20.9,28.5,20.9,28.5,4.1,1.5,5,9.8-6.3,3.6Z"/>
  <path class="cls-2" d="M788.7,357.5c-10.7-4.8-26.4-22.2-17.4-30.6,9-8.4,23.5,26.4,23.5,26.4,4.2,1.2,5.7,9.6-6.1,4.2Z"/>
  <path class="cls-2" d="M1010.4,404c15.9-4.3,41-25.2,30.3-38.6-10.7-13.4-37.7,31.6-37.7,31.6-6.2.8-10,11.8,7.4,7Z"/>
  <path class="cls-7" d="M839.5,761.8c176.2,26.3,236,109.2,224,177.6-9.7,55.1-33.2,15.1-33.2,15.1,0,0,7.1,130.2-68.3,195.9-24,20.8-19.4-9.9-19.4-9.9,0,0-74.2,128.6-164.8,116.3-132.4-18.1-137.9-155.7-137.9-155.7,0,0-25.6,38.8-46.7-17-23.2-61.4-23.7-142.4,6.1-203-41.8,25.4-50.4-162.8,240.2-119.3Z"/>
  <path class="cls-7" d="M846,774.5c-136.3-25.1-201,13.9-209.2,60.8-6.6,37.7,20.7,17.8,20.7,17.8,0,0-37.8,81.9,1.5,142.1,12.5,19.1,16.8-1.7,16.8-1.7,0,0,22.5,100.5,92.2,114.2,102,20,130.8-69.9,130.8-69.9,0,0,16.8,40.2,45.1,3.6,28.3-36.7,48.8-99,49.2-132.4,24.5,26.1,77.7-92.8-147-134.3Z"/>
  <path class="cls-2" d="M604.6,728.4c-.8,1.7-1.5,2-2.2,2h-2.1l-4.2-.2h-8.4l-8.4.4c-2.8.2-5.7.6-8.5.8-11.6,1.3-23.1,3.6-34.3,6.8-24,7-47.1,17.1-68.6,29.9-23.1,13.7-44.8,29.7-64.7,47.6-20.8,18.3-39.9,38.4-57.4,59.9l17.4-50,2.6,20.2,3.3,19.6c1.4,6.3,2.7,12.6,4.2,18.7,1.5,6.1,3.1,12,5,17.5,3.1,10.2,7.2,20.1,12.3,29.5,1,1.9,2.1,3.7,3.3,5.4.5.8,1,1.5,1.6,2.2.5.6,1,1.3,1.5,1.9l1.3,1.3c.4.3.7.3.9.5.2.2,0-.2,0-.3,0-.2,0-.4,0-.5-.2-.5-.5-1-.7-1.4l-1.2-1.7-.7-.9-1.4-1.6-1.6-1.7c9.6,9.1,17.2,20,22.5,32.1,5.3,12.1,8.1,25.1,8.2,38.3.1,13.2-2.4,26.3-7.4,38.5-5,12.2-12.4,23.3-21.8,32.6-9.4,9.3-20.5,16.7-32.7,21.6-12.2,4.9-25.4,7.4-38.6,7.2-13.2-.2-26.2-3.1-38.3-8.4-12.1-5.3-23-13-32-22.6l-2.1-2.2-1.9-2.1-1.6-2c-1-1.2-2.3-2.8-3.1-3.9-1.5-2-2.9-4-4.3-6.1-1.4-2-2.2-3.6-3.3-5.3-1.1-1.8-2.2-3.6-3-5.1-1.7-3.2-3.6-6.4-5-9.5l-4.1-9c-1.4-3-2.4-5.7-3.6-8.6-1.2-2.9-2.3-5.7-3.1-8.4-1.8-5.4-3.8-11-5.1-16.2-5.6-19.7-9.4-39.9-11.4-60.3-1.2-9.8-1.6-19-2.2-28.5-.6-9.5-.5-18.4-.6-27.6-.1-9.2.4-18,.7-26.9l1.7-26.3.8-12.4c1-14.1,6.8-27.4,16.6-37.7,22.5-29.1,47.5-56.3,74.5-81.2,27.7-25.5,57.9-48.1,90.1-67.7,33.7-20.6,70-36.6,108-47.5,19.8-5.7,40.1-9.7,60.5-12.1,5.2-.5,10.4-1.1,15.6-1.5,5.2-.4,10.4-.6,15.7-.8,5.2-.2,10.7,0,15.8,0l7.9.3h4c.8,0,1.5.2,2.2.6.7.4,1.2.9,1.6,1.6,12.3,17.6,19.7,38.2,21.4,59.6,1.7,21.4-2.4,42.9-11.9,62.2l-19.5,39.6Z"/>
  <path class="cls-2" d="M1115.1,655.6c.4-.5,1-.9,1.6-1.1s1.3-.2,1.9,0l3.2.8,6.4,1.7,12.9,3.6c8.5,2.6,17.1,5.3,25.6,8.3,17.1,6,33.9,12.9,50.2,20.6,33.5,15.8,64.9,35.5,93.6,58.9,29.1,23.8,55,51.3,77,81.9,21.8,30.5,39.5,63.8,52.5,99l1,2.8c5.6,15.2,6.1,31.8,1.4,47.3-2.4,11.1-5.6,22-9.6,32.6-3.8,9.8-8.1,19.4-13.1,28.7-4.8,8.9-9.9,17.3-15.2,25.4-5.3,8-10.7,15.5-16.5,22.7-11,13.9-22.9,27.2-35.6,39.6-6.2,6.1-12.6,12-19.2,17.8-3.3,2.9-6.7,5.7-10.2,8.6l-5.4,4.4-3,2.2c-1.2.9-1.8,1.4-4.1,2.9-11.1,6.7-23.4,11.2-36.3,13.2-12.8,2-25.9,1.4-38.5-1.7-12.6-3.1-24.5-8.7-34.9-16.3-10.5-7.7-19.3-17.4-26-28.5-13.6-22.4-17.7-49.3-11.4-74.8,6.3-25.5,22.4-47.4,44.8-61-.9.6,0,.2.2.2.2,0,.8-.3,1.3-.5l3-1.4c2.1-1,4.3-2.1,6.6-3.2,4.4-2.3,8.9-4.8,13.2-7.4,8.4-5,16.5-10.5,24.2-16.4,3.6-2.8,7.1-5.7,10.2-8.4,3.1-2.8,5.9-5.5,8.5-8.1,2.6-2.6,4.6-5.1,6.6-7.1l4.6-5.8,2.5,50.1c-8.6-21.6-20-42.1-33.9-60.8-13.8-18.7-30-35.4-48.1-49.9-18.6-14.8-39-27.4-60.5-37.4-11.1-5.2-22.5-9.8-34-13.8-5.8-2.1-11.8-3.9-17.8-5.7l-9-2.5-4.6-1.2-2.3-.6c-.8-.2-1.5-.7-1.8-2.5l-4.9-24.1c-4.9-24-3.5-48.8,4.1-72.1,7.5-23.3,21-44.3,38.9-60.9Z"/>
  <path class="cls-6" d="M598.3,593.8c-1.5,7.1-12.6,11.1-24.9,8.6-12.3-2.6-20.8-10.7-19.3-17.8,1.5-7.1,12.6-11.1,24.9-8.6,12.3,2.6,20.8,10.5,19.3,17.8Z"/>
  <path class="cls-6" d="M549.7,608.1c0,4.8-6.9,8.5-15,8.2-8.1-.3-14.5-4.6-14.2-9.4.2-4.8,6.9-8.5,15-8.2,8.1.3,14.5,4.6,14.2,9.4Z"/>
  <path class="cls-6" d="M962.8,358.6c-2.5,2.6-9.3.2-15.1-5.3-5.9-5.6-8.7-12.2-6.2-14.8,2.5-2.6,9.3-.2,15.1,5.3,5.9,5.6,8.6,12.2,6.2,14.8Z"/>
  <path class="cls-6" d="M867.5,454c-5.4,1.7-12.1-4.2-15-13.2-2.9-9-.8-17.8,4.6-19.4,5.4-1.6,12.1,4.2,15,13.2,2.9,9,.8,17.7-4.6,19.4Z"/>
  <path class="cls-6" d="M839.8,427c-3.3,1.7-8.2-1.4-11-6.9-2.8-5.5-2.4-11.3.9-13,3.3-1.7,8.2,1.4,11,6.9,2.8,5.5,2.4,11.4-.9,13Z"/>
  <path class="cls-6" d="M379.6,937.6c-4.2,2.4-10.9-1.5-14.8-8.5-3.9-7.1-3.6-14.7.5-17.1,4.1-2.4,10.7,1.4,14.8,8.5,4.1,7.1,3.7,14.7-.5,17.1Z"/>
  <path class="cls-6" d="M347.9,911.4c-3.1.5-6.2-3.2-7.1-8.3-.9-5.1,1-9.6,4.1-10.1,3.1-.5,6.2,3.2,7.1,8.3,1,5.1-1,9.6-4.1,10.1Z"/>
  <path class="cls-6" d="M300,705c-2.4-2-1.6-6.8,1.6-10.7,3.3-3.9,7.9-5.6,10.3-3.6,2.4,2,1.6,6.8-1.6,10.7-3.3,3.9-7.9,5.5-10.3,3.6Z"/>
  <path class="cls-6" d="M264.2,1049.8c-8,3.8-19.7-3.9-26-17.3-6.3-13.4-5.1-27.2,3-31.1,8-3.8,19.6,3.9,26,17.3,6.4,13.4,5.1,27.2-3,31.1Z"/>
  <path class="cls-6" d="M567.5,807.3c-4.6-5.4-2.6-14.7,4.5-20.6,7.1-5.9,16.5-6.3,21-.9,4.6,5.4,2.6,14.7-4.5,20.6-7,5.9-16.5,6.3-21.1.9Z"/>
  <path class="cls-6" d="M570.5,768.9c-.7-4.2,3.2-8.4,8.7-9.3,5.5-.9,10.5,1.9,11.1,6.1.7,4.2-3.2,8.4-8.7,9.3-5.5.9-10.6-1.7-11.1-6.1Z"/>
  <path class="cls-6" d="M617.8,777.6c-1.2-.3-2.4-.9-3.2-1.9-.8-.9-1.4-2.1-1.5-3.4-.1-1.3.1-2.5.7-3.6.6-1.1,1.6-2,2.7-2.5,1.1-.5,2.4-.7,3.7-.5,1.2.2,2.4.8,3.3,1.7.9.9,1.5,2.1,1.7,3.3.2,1.3,0,2.5-.6,3.7-.5,1.3-1.5,2.4-2.7,3-1.3.6-2.7.7-4,.2Z"/>
  <path class="cls-6" d="M1404.1,1011.4c3.2,4.2,1.6,13.4-3.6,20.5-5.2,7.2-12,9.6-15.2,5.4-3.2-4.2-1.6-13.3,3.6-20.5,5.2-7.2,12-9.6,15.2-5.5Z"/>
  <path class="cls-6" d="M1401.3,1040.3c2.4,2.2,2.1,8.3-.6,13.6-2.7,5.3-6.9,7.9-9.3,5.7-2.4-2.2-2.1-8.3.6-13.6,2.8-5.3,6.9-7.9,9.3-5.7Z"/>
  <path class="cls-6" d="M442.8,1273.2c2.6,4.6-.4,13.4-6.6,19.8-6.2,6.3-13.3,7.8-15.9,3.2-2.6-4.6.4-13.4,6.6-19.8,6.2-6.3,13.3-7.7,15.9-3.2Z"/>
  <path class="cls-6" d="M435.8,1301.4c2.1,2.5.9,8.5-2.6,13.4-3.5,4.9-8,6.8-10.1,4.2-2.1-2.5-.9-8.5,2.6-13.4,3.5-4.9,8-6.8,10.1-4.2Z"/>
  <path class="cls-6" d="M1307.6,1148.6c0,5.1-7.1,11.3-16,13.9-8.8,2.6-16.2.7-16.3-4.3-.1-5,7.1-11.3,16-13.9,8.8-2.6,16.1-.7,16.3,4.3Z"/>
  <path class="cls-6" d="M964.7,1387.1c4.9,1.3,8.9,9.9,8.9,19.2,0,9.3-3.9,15.8-8.8,14.5-4.9-1.3-8.9-9.9-8.9-19.2,0-9.3,3.9-15.8,8.8-14.5Z"/>
  <path class="cls-6" d="M1052.2,823.7c5.7-2.4,14.2,2.1,19.3,10,5.1,7.9,4.3,16.2-1.4,18.6-5.7,2.4-14.4-2.1-19.4-10-5-7.9-4.3-16.2,1.4-18.6Z"/>
  <path class="cls-6" d="M940,1427c8.6-.3,20.3,9.7,26,22.3,5.7,12.6,3.6,23-5.2,23.4-8.7.3-20.3-9.7-26-22.3-5.8-12.6-3.4-23,5.2-23.4Z"/>
  <path class="cls-6" d="M1429.8,986.1c1.4,1.7.6,7.1-1.7,12-2.4,4.9-5.4,7.5-6.8,5.9-1.4-1.7-.6-7.1,1.8-12,2.4-4.9,5.4-7.4,6.8-5.9Z"/>
  <path class="cls-6" d="M1223.3,710.4c4-3.6,14.2-1.8,22.9,3.7,8.7,5.5,12.3,12.9,8.3,16.3-4,3.5-14.2,1.8-22.9-3.7-8.7-5.6-12.3-12.8-8.3-16.3Z"/>
  <path class="cls-8" d="M474.3,1204.3l-169.9,5.9-2.8-77.6,162.4-210.4,81.3-2.8,7.4,208.8,42.1-1.5,2.7,73.2-42.1,1.5,2.3,63.5-81.3,2.8-2.1-63.5ZM471.6,1131.1l-3.9-106.8-86,110,89.9-3.1Z"/>
  <path class="cls-2" d="M476.6,1269.6c-.5,0-.9-.2-1.2-.5-.3-.3-.5-.7-.5-1.2l-2.3-61.7-168.1,5.9c-.5,0-.9-.2-1.3-.5-.3-.3-.6-.8-.6-1.2l-2.8-77.6c0-.4,0-.8.4-1.2l162.4-210.3c.2-.2.4-.4.6-.5.2-.1.5-.2.7-.2l81.3-2.8c.5,0,.9.2,1.3.5.3.3.6.8.6,1.2l7.6,207,40.3-1.4c.2,0,.5,0,.7.1.2,0,.4.2.6.4.2.2.3.3.4.6,0,.2.2.4.2.7l2.7,73.2c0,.2,0,.5-.1.7,0,.2-.2.4-.4.6-.3.3-.8.5-1.2.6l-40.3,1.4,2.3,61.7c0,.2,0,.5-.1.7,0,.2-.2.4-.4.6-.2.2-.3.3-.5.4-.2,0-.4.2-.7.2l-81.3,2.8h0ZM474.3,1202.6c.5,0,.9.2,1.2.5.3.3.5.7.5,1.2l2.3,61.7,77.7-2.7-2.2-61.7c0-.2,0-.5.1-.7,0-.2.2-.4.4-.6.3-.3.8-.5,1.2-.6l40.3-1.4-2.6-69.7-40.3,1.4c-.2,0-.5,0-.7-.1-.2,0-.4-.2-.6-.4-.2-.2-.3-.3-.4-.6,0-.2-.2-.4-.2-.7l-7.6-207-78.7,2.8-161.4,209.2,2.8,75.2,168.1-5.9h0ZM381.7,1136c-.3,0-.7,0-.9-.3-.3-.2-.5-.4-.7-.7-.2-.3-.2-.6-.2-1,0-.3.2-.7.4-.9l85.9-110.1c.2-.3.5-.5.9-.6.3-.1.7,0,1.1,0,.3.1.6.3.9.6.2.3.3.6.4,1l3.9,106.8c0,.2,0,.5-.1.7,0,.2-.2.4-.4.6-.3.3-.8.5-1.2.6l-89.7,3.1h0ZM465.9,1029.2l-80.5,103.3,84.2-3-3.7-100.3Z"/>
  <path class="cls-8" d="M622.7,1091.2c-2.4-64.6,7.5-110.1,29.5-136.8,22-26.6,56.5-40.8,103.4-42.4,22.6-.8,41.2,1.4,55.9,6.5,13.4,4.4,25.7,11.4,36.3,20.8,8.9,8,16.6,17.4,22.7,27.7,6.1,10.9,10.8,22.4,14,34.4,7.3,25.7,11.4,52.2,12.3,78.9,2.4,61.6-6.3,107.1-25.9,136.4-19.7,29.3-54.6,44.9-104.9,46.6-28.3.9-51.2-2.8-68.9-11.3-17.9-8.7-33.2-22-44.3-38.6-8.6-12.2-15.5-29.1-20.8-50.7-5.5-23.5-8.6-47.5-9.3-71.7ZM715.3,1088.2c1.6,43.3,6.4,72.7,14.6,88.2,8.1,15.6,19.4,23.1,33.7,22.6,4.6-.1,9.1-1.1,13.2-3,4.2-1.9,7.9-4.6,11-7.9,6.7-7,11.4-17.8,14.2-32.4,2.8-14.6,3.6-37.3,2.4-68.1-1.6-45.1-6.5-75.3-14.7-90.6-8.1-15.3-19.8-22.6-34.8-22.1-15.4.5-26.3,8.8-32.5,24.9-6.3,16.1-8.7,45.5-7.3,88.3h.1Z"/>
  <path class="cls-2" d="M757.5,1265.4c-24.5,0-45-3.9-61.1-11.6-18.2-8.8-33.7-22.4-45-39.2-8.6-12.3-15.7-29.6-21-51.2-5.6-23.6-8.7-47.8-9.4-72-2.4-64.7,7.7-111.1,29.9-138,22.2-26.8,57.5-41.4,104.8-43.1,22.7-.7,41.7,1.5,56.6,6.6,13.6,4.4,26.2,11.6,36.9,21.1,9.1,8.2,16.8,17.7,23,28.2,6.2,11,10.9,22.7,14.2,34.8,7.3,25.9,11.4,52.5,12.3,79.3,2.3,61.7-6.6,108-26.2,137.5-19.7,29.5-55.6,45.6-106.2,47.4-3.1,0-5.9.1-8.8.1ZM624.5,1091.2c.7,24,3.8,47.9,9.3,71.2,5.2,21.4,12.1,38.1,20.5,50.1,10.9,16.3,25.9,29.5,43.6,38,17.4,8.3,40.3,12.1,68.1,11.1,49.5-1.7,84.3-17.2,103.5-45.8,19.1-28.7,27.9-74.4,25.7-135.3-.9-26.5-5-52.8-12.3-78.3-3.2-11.9-7.8-23.3-13.8-34-6-10.2-13.5-19.4-22.3-27.3-10.4-9.2-22.5-16.1-35.6-20.4-14.2-5-33-7.1-55.3-6.4-46.3,1.6-80.7,15.7-102.2,41.7-21.6,26.1-31.5,71.7-29.1,135.5ZM762.2,1200.9c-14.2,0-25.8-7.9-34-23.6-8.2-15.6-13.2-45.7-14.8-89-1.6-42.7.9-72.8,7.1-89,6.3-16.2,18-25.5,34.2-26.1,16.1-.6,28.1,7.1,36.5,23,8.4,15.9,13.2,46.3,14.9,91.3,1.1,30.7.3,53.8-2.5,68.4-2.7,14.7-7.7,26.1-14.6,33.3-3.3,3.5-7.2,6.4-11.6,8.3-4.4,2-9.1,3.1-13.9,3.2h-1.3ZM717,1088.1c1.6,42.7,6.4,72.2,14.2,87.5,7.8,15.2,18.3,22.2,32.1,21.7,4.3-.1,8.6-1.1,12.6-2.9,4-1.8,7.5-4.3,10.5-7.5,6.4-6.7,11-17.3,13.7-31.5,2.7-14.2,3.6-37.2,2.4-67.7-1.6-44.6-6.5-74.8-14.5-89.8s-18.7-21.7-33.2-21.2-24.9,8.3-31,23.8c-6.1,15.5-8.5,45.2-6.9,87.6h.2Z"/>
  <g id="crack1">
    <path class="cls-2" d="M683.9,928l23.1,16.1c.1,0,.2.2.3.3,0,.1,0,.3,0,.4l-1.5,15.4v-.3l8.9,7.1-9.4-6.6s0-.1,0-.2,0-.1,0-.2l.5-15.5.4.8-24.1-14.6,1.7-2.8Z"/>
    <path class="cls-2" d="M699.8,940.3l-6.9,9.6h-.2l-9.7,5.1,8.9-6.4-.2.2,5.1-10.7,3,2.1Z"/>
  </g>
  <g id="crack3">
    <path class="cls-2" d="M788.1,1188.1l13.5,16.2v.2c0,.1.1.2.2.4l4.5,19.1-7.1-18.3.4.5-15.9-13.5,4.5-4.6Z"/>
    <path class="cls-2" d="M794.4,1197.3l26.8-5.2-25.9,8.7-.9-3.5Z"/>
  </g>
  <path class="cls-8" d="M1099.6,1182.4l-169.8,5.9-2.8-77.5,162.4-210.4,81.3-2.8,7.7,208.8,42.1-1.5,2.7,73.2-42.1,1.5,2.4,63.5-81.3,2.8-2.4-63.5ZM1096.9,1109.1l-3.9-106.8-85.8,110,89.7-3.2Z"/>
  <path class="cls-2" d="M1102,1247.6c-.5,0-.9-.2-1.2-.5-.3-.3-.5-.8-.5-1.2l-2.3-61.7-168.1,5.9c-.2,0-.5,0-.7-.1-.2,0-.4-.2-.6-.4-.2-.2-.3-.3-.4-.6,0-.2-.1-.4-.1-.7l-2.8-77.6c0-.4.1-.8.4-1.1l162.4-210.3c.2-.2.4-.4.6-.5.2-.1.5-.2.8-.2l81.3-2.8c.2,0,.5,0,.7.1.2,0,.4.2.6.4.2.2.3.4.4.6,0,.2.2.4.2.7l7.6,207,40.3-1.4c.2,0,.5,0,.7.1.2,0,.4.2.6.4.2.2.3.3.4.6,0,.2.2.4.2.7l2.7,73.2c0,.2,0,.5,0,.7,0,.2-.2.4-.4.6-.3.3-.8.5-1.2.6l-40.3,1.4,2.3,61.7c0,.5-.2.9-.5,1.3-.2.2-.3.3-.6.4-.2,0-.5.2-.7.1l-81.3,2.8h0ZM1099.6,1180.6c.5,0,.9.2,1.2.5.3.3.5.8.5,1.2l2.3,61.7,77.7-2.7-2.3-61.7c0-.5.2-.9.5-1.3.3-.3.8-.5,1.3-.6l40.3-1.4-2.6-69.7-40.3,1.4c-.2,0-.5,0-.7-.1-.2,0-.4-.2-.6-.4-.2-.2-.3-.4-.4-.6,0-.2-.2-.4-.2-.7l-7.7-207-78.7,2.7-161.4,209.2,2.8,75.2,168.1-5.9h0ZM1007.2,1114.1c-.3,0-.7,0-.9-.3-.3-.2-.5-.4-.7-.7-.2-.3-.2-.6-.2-1,0-.3.2-.7.4-.9l85.8-110c.2-.3.5-.5.9-.6.3-.1.7-.1,1.1,0,.4.1.7.3.9.6.2.3.4.6.4,1l3.9,106.8c0,.5-.2.9-.5,1.3-.3.3-.8.5-1.2.6l-89.8,3.1h0ZM1091.4,1007.2l-80.5,103.3,84.2-3-3.7-100.3Z"/>
  <g id="crack2">
    <path class="cls-2" d="M303,1209.1l27.4-32.1c.1-.2.3-.3.5-.3.2,0,.4,0,.6,0l19.7,3.1h-.5l21.7-12.1v.2l9.6-33.7-8.9,33.9s0,0,0,.1c0,0,0,0-.1,0l-21.4,13c-.2,0-.4,0-.5,0l-19.8-2.4,1.1-.4-26.5,32.8-2.8-2.1Z"/>
    <path class="cls-2" d="M383.5,1134.7l-10.1,33.6v-.7l10.7,16.3h-.3l26.7.4-26.7.4c0,0-.1,0-.2,0s-.1,0-.1-.1l-11.4-15.8c0-.1,0-.2,0-.3s0-.2,0-.3l8.4-34.1,3.1.7Z"/>
  </g>
  <g id="crack4">
    <path class="cls-2" d="M1092.4,1006.9l21.4-10.4-.6,1.3-3.1-20.4c0-.2,0-.3,0-.5,0-.1.2-.3.3-.4l26.6-18.6-.2.3-1.4-26.1,2.1,26.1c0,.1,0,.2,0,.3l-26,19.4.4-.9,3.7,20.3c0,.2,0,.5-.1.7-.1.2-.3.4-.5.5l-21.1,11.4-1.5-3.2Z"/>
    <path class="cls-2" d="M1117.3,972.9l-6.7-10h.2l-9.6-3.2,9.8,2.5,8.8,8.1-2.5,2.6Z"/>
  </g>
  <path class="cls-4" d="M382.8,959.9c7.1-16.2,56.7-1.1,67.7,19-17,1.7-41,16.5-59.9,11.7-10.9-2.7-12.6-19.3-7.7-30.7Z"/>
  <path class="cls-4" d="M371.4,985.3c12.7-15.2,61.4,17,66.7,42.2-18.8-3.6-49.4,4.6-68.3-6.7-10.8-6.4-7.3-24.8,1.6-35.5Z"/>
  <path class="cls-4" d="M354.9,1023.3c17.6-9.3,50.2,39.2,45.5,64.5-16-10.7-47.4-14.6-60.5-32.3-7.5-10.1,2.7-25.7,15.1-32.2Z"/>
  <path class="cls-4" d="M321.2,1055.9c15.6,1.1,17.4,47.2,3.6,62.2-6.3-13.7-25.7-29.6-27.2-46.9-.9-9.9,12.5-16.1,23.6-15.3Z"/>
  <path class="cls-4" d="M1222.2,1016.3c0-17.8-51.7-23.3-69.7-9,15,8.2,31.2,31.2,50.6,34.3,11.2,1.6,19.1-12.6,19.1-25.2Z"/>
  <path class="cls-4" d="M1218.6,1057.2c-7.7-18.3-63.7-1.8-76.1,20.7,19.1,2,45.8,18.9,67.2,13.7,12.2-3,14.2-21.5,8.9-34.4Z"/>
  <path class="cls-4" d="M1223,1085.5c-12.5-15.4-61.6,16.3-67.1,41.5,18.9-3.6,49.4,5.1,68.3-5.9,10.9-6.3,7.6-24.5-1.2-35.5Z"/>
  <path class="cls-4" d="M1244.6,1143.7c-8.9-12.9-45.5,5.1-55.3,24.1,15.1-1.6,38.6,11.6,54.2,4,9-4.4,7.4-19,1.1-28.1Z"/>
</svg>