<?xml version="1.0" encoding="UTF-8"?>
<svg id="Layer_1" data-name="Layer 1" xmlns="http://www.w3.org/2000/svg" version="1.1" viewBox="0 0 2461 1834">
  <defs>
    <style>
      .cls-1 {
        fill: #BBD9FF;
      }

      .cls-1, .cls-2, .cls-3, .cls-4, .cls-5, .cls-6, .cls-7, .cls-8, .cls-9, .cls-10, .cls-11, .cls-12, .cls-13, .cls-14, .cls-15, .cls-16, .cls-17, .cls-18, .cls-19, .cls-20, .cls-21 {
        stroke-width: 0px;
      }

      .cls-2 {
        fill: #f5f5f5;
      }

      .cls-3 {
        fill: #407bff;
      }

      .cls-4 {
        fill: #ebebeb;
      }

      .cls-5 {
        fill: #012E71;
      }

      .cls-6, .cls-9, .cls-11, .cls-12, .cls-16, .cls-18, .cls-20, .cls-21 {
        isolation: isolate;
      }

      .cls-6, .cls-9, .cls-12, .cls-16, .cls-17, .cls-18, .cls-21 {
        fill: #fff;
      }

      .cls-6, .cls-22, .cls-20 {
        opacity: .2;
      }

      .cls-7 {
        fill: #fafafa;
      }

      .cls-8 {
        fill: #e0e0e0;
      }

      .cls-9 {
        opacity: .5;
      }

      .cls-10 {
        fill: #BBD9FF;
      }

      .cls-11, .cls-13, .cls-20 {
        fill: #BBD9FF;
      }

      .cls-11, .cls-16 {
        opacity: .1;
      }

      .cls-12 {
        opacity: .7;
      }

      .cls-14 {
        fill: #f0f0f0;
      }

      .cls-15 {
        fill: #EEF4FC;
      }

      .cls-18 {
        opacity: .3;
      }

      .cls-19 {
        fill: #BBD9FF;
      }

      .cls-21 {
        opacity: .4;
      }

      @keyframes headMovement {
        0%, 100% {
          transform: translateY(0);
        }
        50% {
          transform: translateY(-20px);
        }
      }

      @keyframes blink {
        0%, 100% {
          opacity: 1;
        }
        50% {
          opacity: 0;
        }
      }

      @keyframes glow {
        0%, 100% {
          filter: drop-shadow(0 0 5px #407bff);
        }
        50% {
          filter: drop-shadow(0 0 20px #407bff);
        }
      }

      #head {
        animation: headMovement 3s infinite;
      }

      #oops {
        animation: blink 3s infinite;
      }

      #error404 {
        animation: glow 3s infinite;
      }
    </style>
  </defs>
  <path class="cls-17" d="M-7136-21631H2316c138.1,0,250,111.9,250,250V3636c0,138.1-111.9,250-250,250H-7136c-138.1,0-250-111.9-250-250v-25017c0-138.1,111.9-250,250-250Z"/>
  <path class="cls-4" d="M2461,1611.5H0v1.2h2461v-1.2Z"/>
  <path class="cls-4" d="M2214.4,1690.7h-163v1.2h163v-1.2Z"/>
  <path class="cls-4" d="M1630.3,1704h-42.8v1.2h42.8v-1.2Z"/>
  <path class="cls-4" d="M2046.5,1645h-94.4v1.2h94.4v-1.2Z"/>
  <path class="cls-4" d="M470.8,1653.2h-212.6v1.2h212.6v-1.2Z"/>
  <path class="cls-4" d="M545.8,1653.2h-31.2v1.2h31.2v-1.2Z"/>
  <path class="cls-4" d="M1108.2,1674h-461.1v1.2h461.1v-1.2Z"/>
  <path class="cls-4" d="M1166.5,1391.9H216.1c-7.4,0-14.6-3-19.8-8.2-5.3-5.3-8.2-12.4-8.2-19.8V27.9c0-7.4,3-14.5,8.3-19.7C201.6,2.9,208.7,0,216.1,0h950.4c7.5,0,14.6,3,19.9,8.2,5.3,5.3,8.2,12.4,8.2,19.9v1335.7c0,7.5-3,14.6-8.2,19.9s-12.4,8.2-19.9,8.2ZM216.1,1c-7.1,0-13.9,2.9-19,7.9-5,5-7.9,11.9-7.9,19v1336c0,7.1,2.8,13.9,7.9,19,5,5,11.9,7.9,19,7.9h950.4c7.1,0,14-2.8,19-7.9,5-5,7.9-11.9,7.9-19V27.9c0-7.1-2.8-14-7.9-19-5-5-11.9-7.9-19-7.9H216.1Z"/>
  <path class="cls-4" d="M2231.2,1391.9h-950.4c-7.4,0-14.6-3-19.8-8.2-5.3-5.3-8.2-12.4-8.2-19.9V27.9c0-7.4,3.1-14.5,8.3-19.7,5.3-5.2,12.4-8.1,19.8-8.2h950.4c7.4,0,14.5,3,19.7,8.2,5.2,5.2,8.2,12.3,8.3,19.7v1336c0,7.4-2.9,14.6-8.2,19.8-5.2,5.3-12.4,8.2-19.8,8.3ZM1280.8,1c-7.1,0-13.9,2.8-19,7.9-5,5-7.9,11.9-7.9,19v1336c0,7.1,2.8,14,7.9,19,5,5,11.9,7.9,19,7.9h950.4c7.1,0,13.9-2.8,19-7.9,5-5,7.9-11.9,7.9-19V27.9c0-7.1-2.9-14-7.9-19-5-5-11.9-7.9-19-7.9h-950.4Z"/>
  <path class="cls-7" d="M1767.1,898.3h-109.8v46.7h109.8v-46.7Z"/>
  <path class="cls-7" d="M1634.2,898.3h-109.8v46.7h109.8v-46.7Z"/>
  <path class="cls-7" d="M1501.5,898.3h-109.8v46.7h109.8v-46.7Z"/>
  <path class="cls-7" d="M1833.4,963.3h-109.8v46.7h109.8v-46.7Z"/>
  <path class="cls-7" d="M1700.7,963.3h-109.8v46.7h109.8v-46.7Z"/>
  <path class="cls-7" d="M1567.8,963.3h-109.8v46.7h109.8v-46.7Z"/>
  <path class="cls-7" d="M1435.1,963.3h-109.8v46.7h109.8v-46.7Z"/>
  <path class="cls-7" d="M2047.5,1028.3h-109.8v46.7h109.8v-46.7Z"/>
  <path class="cls-7" d="M1914.7,1028.3h-109.8v46.7h109.8v-46.7Z"/>
  <path class="cls-7" d="M1634.2,1028.3h-109.8v46.7h109.8v-46.7Z"/>
  <path class="cls-7" d="M1501.5,1028.3h-109.8v46.7h109.8v-46.7Z"/>
  <path class="cls-7" d="M1368.7,1028.3h-109.8v46.7h109.8v-46.7Z"/>
  <path class="cls-7" d="M1981.1,1093.3h-109.8v46.7h109.8v-46.7Z"/>
  <path class="cls-7" d="M1700.7,1093.3h-109.8v46.7h109.8v-46.7Z"/>
  <path class="cls-7" d="M1567.8,1093.3h-109.8v46.7h109.8v-46.7Z"/>
  <path class="cls-7" d="M1435.1,1093.3h-109.8v46.7h109.8v-46.7Z"/>
  <path class="cls-7" d="M917,236.1h-109.8v46.7h109.8v-46.7Z"/>
  <path class="cls-7" d="M784.2,236.1h-109.8v46.7h109.8v-46.7Z"/>
  <path class="cls-7" d="M983.4,301.1h-109.8v46.7h109.8v-46.7Z"/>
  <path class="cls-7" d="M850.6,301.1h-109.8v46.7h109.8v-46.7Z"/>
  <path class="cls-7" d="M585,301.1h-109.8v46.7h109.8v-46.7Z"/>
  <path class="cls-7" d="M452.2,301.1h-109.8v46.7h109.8v-46.7Z"/>
  <path class="cls-7" d="M784.2,366.1h-109.8v46.7h109.8v-46.7Z"/>
  <path class="cls-7" d="M1993.1,616.5h-109.8v46.7h109.8v-46.7Z"/>
  <path class="cls-7" d="M1761.9,616.5h-109.8v46.7h109.8v-46.7Z"/>
  <path class="cls-7" d="M2059.6,681.5h-109.8v46.7h109.8v-46.7Z"/>
  <path class="cls-7" d="M1926.7,681.5h-109.8v46.7h109.8v-46.7Z"/>
  <path class="cls-7" d="M793.6,551h-109.8v46.7h109.8v-46.7Z"/>
  <path class="cls-7" d="M513.1,551h-109.8v46.7h109.8v-46.7Z"/>
  <path class="cls-7" d="M860,615.9h-109.8v46.7h109.8v-46.7Z"/>
  <path class="cls-7" d="M678,615.9h-109.8v46.7h109.8v-46.7Z"/>
  <path class="cls-7" d="M1993.1,746.6h-109.8v46.7h109.8v-46.7Z"/>
  <path class="cls-7" d="M1761.9,746.6h-109.8v46.7h109.8v-46.7Z"/>
  <path class="cls-7" d="M518.6,366.1h-109.8v46.7h109.8v-46.7Z"/>
  <path class="cls-7" d="M2073.6,237.8h-109.8v46.7h109.8v-46.7Z"/>
  <path class="cls-7" d="M1940.8,237.8h-109.8v46.7h109.8v-46.7Z"/>
  <path class="cls-7" d="M2007.2,302.8h-109.8v46.7h109.8v-46.7Z"/>
  <path class="cls-7" d="M1478.7,238.9h-109.8v46.7h109.8v-46.7Z"/>
  <path class="cls-7" d="M1345.9,238.9h-109.8v46.7h109.8v-46.7Z"/>
  <path class="cls-7" d="M1545.1,303.8h-109.8v46.7h109.8v-46.7Z"/>
  <path class="cls-7" d="M1412.3,303.8h-109.8v46.7h109.8v-46.7Z"/>
  <path class="cls-7" d="M1279.5,303.8h-109.8v46.7h109.8v-46.7Z"/>
  <path class="cls-7" d="M1611.5,368.9h-109.8v46.7h109.8v-46.7Z"/>
  <path class="cls-7" d="M1478.7,368.9h-109.8v46.7h109.8v-46.7Z"/>
  <path class="cls-7" d="M1345.9,368.9h-109.8v46.7h109.8v-46.7Z"/>
  <path class="cls-7" d="M1545.1,433.9h-109.8v46.7h109.8v-46.7Z"/>
  <path class="cls-7" d="M1412.3,433.9h-109.8v46.7h109.8v-46.7Z"/>
  <path class="cls-7" d="M652.5,880.7h-109.8v46.7h109.8v-46.7Z"/>
  <path class="cls-7" d="M519.6,880.7h-109.8v46.7h109.8v-46.7Z"/>
  <path class="cls-7" d="M1033.7,886.6h-109.8v46.7h109.8v-46.7Z"/>
  <path class="cls-7" d="M718.9,945.7h-109.8v46.7h109.8v-46.7Z"/>
  <path class="cls-7" d="M586,945.7h-109.8v46.7h109.8v-46.7Z"/>
  <path class="cls-7" d="M1100.1,951.6h-109.8v46.7h109.8v-46.7Z"/>
  <path class="cls-7" d="M967.3,951.6h-109.8v46.7h109.8v-46.7Z"/>
  <path class="cls-7" d="M1319.7,741.4h-109.8v46.7h109.8v-46.7Z"/>
  <path class="cls-7" d="M631.1,710.5h-109.8v46.7h109.8v-46.7Z"/>
  <path class="cls-7" d="M1170,511h-109.8v46.7h109.8v-46.7Z"/>
  <path class="cls-7" d="M1253.3,676.5h-109.8v46.7h109.8v-46.7Z"/>
  <path class="cls-7" d="M1386.1,676.5h-109.8v46.7h109.8v-46.7Z"/>
  <path class="cls-7" d="M1884.6,1563.9h-109.8v46.7h109.8v-46.7Z"/>
  <path class="cls-7" d="M1951,1498.9h-109.8v46.7h109.8v-46.7Z"/>
  <path class="cls-7" d="M652.5,1010.7h-109.8v46.7h109.8v-46.7Z"/>
  <path class="cls-7" d="M519.6,1010.7h-109.8v46.7h109.8v-46.7Z"/>
  <path class="cls-7" d="M718.9,1075.7h-109.8v46.7h109.8v-46.7Z"/>
  <path class="cls-7" d="M586,1075.7h-109.8v46.7h109.8v-46.7Z"/>
  <path class="cls-7" d="M860.9,1255.5h-109.8v46.7h109.8v-46.7Z"/>
  <path class="cls-7" d="M728.1,1255.5h-109.8v46.7h109.8v-46.7Z"/>
  <path class="cls-7" d="M595.2,1255.5h-109.8v46.7h109.8v-46.7Z"/>
  <path class="cls-7" d="M462.4,1255.5h-109.8v46.7h109.8v-46.7Z"/>
  <path class="cls-7" d="M927.3,1320.5h-109.8v46.7h109.8v-46.7Z"/>
  <path class="cls-7" d="M794.5,1320.5h-109.8v46.7h109.8v-46.7Z"/>
  <path class="cls-7" d="M528.8,1320.5h-109.8v46.7h109.8v-46.7Z"/>
  <path class="cls-7" d="M993.7,1385.5h-109.8v46.7h109.8v-46.7Z"/>
  <path class="cls-7" d="M860.9,1385.5h-109.8v46.7h109.8v-46.7Z"/>
  <path class="cls-7" d="M728.1,1385.5h-109.8v46.7h109.8v-46.7Z"/>
  <path class="cls-7" d="M927.3,1450.5h-109.8v46.7h109.8v-46.7Z"/>
  <path class="cls-7" d="M794.5,1450.5h-109.8v46.7h109.8v-46.7Z"/>
  <path class="cls-7" d="M661.7,1450.5h-109.8v46.7h109.8v-46.7Z"/>
  <path class="cls-7" d="M1759.3,1252.5h-109.8v46.7h109.8v-46.7Z"/>
  <path class="cls-7" d="M1478.8,1252.5h-109.8v46.7h109.8v-46.7Z"/>
  <path class="cls-7" d="M1346,1252.5h-109.8v46.7h109.8v-46.7Z"/>
  <path class="cls-7" d="M1825.7,1317.5h-109.8v46.7h109.8v-46.7Z"/>
  <path class="cls-7" d="M1545.2,1317.5h-109.8v46.7h109.8v-46.7Z"/>
  <path class="cls-7" d="M1412.4,1317.5h-109.8v46.7h109.8v-46.7Z"/>
  <path class="cls-7" d="M1279.6,1317.5h-109.8v46.7h109.8v-46.7Z"/>
  <path class="cls-7" d="M1892.1,1382.5h-109.8v46.7h109.8v-46.7Z"/>
  <path class="cls-7" d="M1759.3,1382.5h-109.8v46.7h109.8v-46.7Z"/>
  <path class="cls-7" d="M1478.8,1382.5h-109.8v46.7h109.8v-46.7Z"/>
  <path class="cls-7" d="M1346,1382.5h-109.8v46.7h109.8v-46.7Z"/>
  <path class="cls-7" d="M1678,1447.5h-109.8v46.7h109.8v-46.7Z"/>
  <path class="cls-7" d="M1545.2,1447.5h-109.8v46.7h109.8v-46.7Z"/>
  <path class="cls-7" d="M1412.4,1447.5h-109.8v46.7h109.8v-46.7Z"/>
  <path class="cls-7" d="M1279.6,1447.5h-109.8v46.7h109.8v-46.7Z"/>
  <path class="cls-8" d="M1521.1,1035.1h474.1V492.8h-474.1v542.3Z"/>
  <path class="cls-8" d="M1521.9,1035.1h455.8V492.8h-455.8v542.3Z"/>
  <path class="cls-14" d="M1506.2,1035.1h474.1V492.8h-474.1v542.3Z"/>
  <path class="cls-17" d="M1527.8,1010.1h431.9v-500.1h-431.9v500.1Z"/>
  <path class="cls-8" d="M1527.8,1010.1h13.5v-500.1h-13.5v500.1Z"/>
  <path class="cls-8" d="M1539.8,869.7v13.5h421v-13.5h-421Z"/>
  <path class="cls-14" d="M1527.8,869.6h439.1v-22.6h-439.1v22.6Z"/>
  <path class="cls-8" d="M521.2,1035.1h474.1V492.8h-474.1v542.3Z"/>
  <path class="cls-8" d="M522.2,1035.1h455.8V492.8h-455.8v542.3Z"/>
  <path class="cls-14" d="M506.5,1035.1h474.1V492.8h-474.1v542.3Z"/>
  <path class="cls-17" d="M528,1010.1h431.9v-500.1h-431.9v500.1Z"/>
  <path class="cls-8" d="M528,1010.1h13.5v-500.1h-13.5v500.1Z"/>
  <path class="cls-8" d="M540,869.6v13.5h421v-13.5h-421Z"/>
  <path class="cls-14" d="M528,869.6h439.1v-22.6h-439.1v22.6Z"/>
  <path class="cls-2" d="M1230.5,1833.7c527.1,0,954.3-24.9,954.3-55.7s-427.3-55.7-954.3-55.7-954.3,24.9-954.3,55.7,427.3,55.7,954.3,55.7Z"/>
  <path class="cls-5" d="M439.9,1650.9s-6.8-50.1-38.8-55.5c-32-5.5-22.4-29.5-30.7-39.1-8.3-9.6-30.1,18.3-11.5,45.1,18.7,26.8,3.4,18.4,11.5,43.3,8.1,24.9,72.6,47.8,69.5,6.2Z"/>
  <path class="cls-6" d="M439.9,1650.9s-6.8-50.1-38.8-55.5c-32-5.5-22.4-29.5-30.7-39.1-8.3-9.6-30.1,18.3-11.5,45.1,18.7,26.8,3.4,18.4,11.5,43.3,8.1,24.9,72.6,47.8,69.5,6.2Z"/>
  <path class="cls-5" d="M438.6,1685.6c-.4,0-.8-.1-1.2-.3-.4-.2-.6-.5-.8-.9,0-.5-24.6-52.6-11.8-135.6,4.1-23.7,10.7-47,19.7-69.4,15.5-42.2,27.7-75.6-.2-136.5-8.9-19.3-17.9-37.3-26.7-54.6-32.9-65.3-58.8-116.8-39.4-169,.2-.5.6-1,1.2-1.2s1.1-.2,1.7,0c.3,0,.5.2.8.4.2.2.4.4.5.7.1.3.2.6.2.8,0,.3,0,.6-.2.9-18.7,50.4,6.9,101.2,39.4,165.5,8.8,17.4,17.8,35.4,26.7,54.8,28.7,62.6,15.6,98.4.4,139.9-9,22.1-15.6,45.1-19.7,68.5-12.6,81.5,11.2,132.4,11.5,132.9.3.5.3,1.1,0,1.7-.2.6-.6,1-1.1,1.3-.3.2-.6.3-1,.3Z"/>
  <path class="cls-5" d="M420.1,1673.5s-20.7-31.2,9.2-47.2c29.9-16,35.9-3.1,54.1-14.8,18.3-11.7,32.5-39.4,35.6-21.6,3.2,17.8-18.2,28.1-10.6,36.3,7.5,8.2-50.1,61.3-88.3,47.3Z"/>
  <path class="cls-5" d="M371.3,1146.1s-20.1-61.3,25.7-62.6c45.9-1.3-4.7,56-25.7,62.6Z"/>
  <path class="cls-5" d="M411.1,1193.2s13.7-55.8,46.2-44c32.5,11.8-13.8,45-46.2,44Z"/>
  <path class="cls-5" d="M355.9,1198.1s4.9-44.3-29.5-45.4c-34.5-1.1-19.3,38.4,29.5,45.4Z"/>
  <path class="cls-5" d="M379,1288.8s-46.4-41.3-63.1-10.6c-16.7,30.8,34.9,37.2,63.1,10.6Z"/>
  <path class="cls-5" d="M460.9,1281.4s8.7-68.9,46.2-47.1c37.5,21.8-13.5,54-46.2,47.1Z"/>
  <path class="cls-5" d="M493.9,1379.7s-27.7-69.3,23.7-61.5c51.4,7.8,12.6,44.7-23.7,61.5Z"/>
  <path class="cls-5" d="M415,1404.5s-43.4-50.9-76.5-34.9c-33.2,16-6.1,67,76.5,34.9Z"/>
  <path class="cls-5" d="M454.4,1517.8s37-82.1,69.8-54.4c32.9,27.7-21,69-69.8,54.4Z"/>
  <path class="cls-5" d="M400.7,1512.9s9.8-63.7-26.8-58.6-27,44.1,26.8,58.6Z"/>
  <g class="cls-22">
    <path class="cls-17" d="M371.3,1146.1s-20.1-61.3,25.7-62.6c45.9-1.3-4.7,56-25.7,62.6Z"/>
    <path class="cls-17" d="M411.1,1193.2s13.7-55.8,46.2-44c32.5,11.8-13.8,45-46.2,44Z"/>
    <path class="cls-17" d="M355.9,1198.1s4.9-44.3-29.5-45.4c-34.5-1.1-19.3,38.4,29.5,45.4Z"/>
    <path class="cls-17" d="M379,1288.8s-46.4-41.3-63.1-10.6c-16.7,30.8,34.9,37.2,63.1,10.6Z"/>
    <path class="cls-17" d="M460.9,1281.4s8.7-68.9,46.2-47.1c37.5,21.8-13.5,54-46.2,47.1Z"/>
    <path class="cls-17" d="M493.9,1379.7s-27.7-69.3,23.7-61.5c51.4,7.8,12.6,44.7-23.7,61.5Z"/>
    <path class="cls-17" d="M415,1404.5s-43.4-50.9-76.5-34.9c-33.2,16-6.1,67,76.5,34.9Z"/>
    <path class="cls-17" d="M454.4,1517.8s37-82.1,69.8-54.4c32.9,27.7-21,69-69.8,54.4Z"/>
    <path class="cls-17" d="M400.7,1512.9s9.8-63.7-26.8-58.6-27,44.1,26.8,58.6Z"/>
  </g>
  <path class="cls-5" d="M391.2,1230.1c-.4,0-.7,0-1.1-.2-27.2-15.2-46.7-43.9-47.5-45.1-.2-.2-.3-.5-.3-.8,0-.3,0-.6,0-.9,0-.3.2-.6.3-.8.2-.2.4-.4.6-.6.5-.3,1.1-.4,1.7-.3s1.1.4,1.4.9c11.8,16.9,26.7,31.4,44,42.6,4.1-7.7,19-34.2,31.5-41.6.5-.3,1.1-.4,1.7-.3.3,0,.5.2.8.4.2.2.4.4.6.6.2.2.3.5.3.8,0,.3,0,.6,0,.9,0,.3-.2.6-.4.8-.2.2-.4.4-.6.6-13.2,7.9-30.8,41.6-31,41.9-.1.3-.3.5-.6.7-.2.2-.5.3-.8.4-.2,0-.4.1-.6,0Z"/>
  <path class="cls-5" d="M433.1,1315.3c-.5,0-1-.2-1.3-.5-38.6-29.2-88-27.9-88.6-27.9-.6,0-1.1-.2-1.6-.6-.4-.4-.7-1-.7-1.5,0-.3,0-.6.1-.8s.3-.5.5-.7c.2-.2.4-.4.7-.5.3-.1.6-.2.8-.2.5,0,49.8-1.3,89.3,27.4,5.2-8.2,25-38.1,50.5-53.1.5-.3,1.1-.4,1.7-.2.6.1,1.1.5,1.4,1,.3.5.4,1.1.2,1.7-.1.6-.5,1.1-1,1.4-28.1,16.5-50,53.3-50.2,53.7-.2.3-.4.5-.6.7-.3.2-.5.3-.8.4h-.3Z"/>
  <path class="cls-5" d="M460,1427.9c-.4,0-.8,0-1.1-.3-.5-.3-57-32.8-97.8-33.6-.5,0-1-.3-1.4-.8-.4-.4-.6-.9-.6-1.5s.2-1.1.6-1.5c.4-.4.8-.7,1.4-.8,38.9.8,89.5,28.3,98.4,33.4,26.2-22.1,47-76.3,47.2-76.8,0-.3.2-.6.4-.8.2-.2.4-.4.7-.5.3-.1.6-.2.9-.2.3,0,.6,0,.9.1.3.1.5.3.8.5.2.2.4.5.5.7.1.3.2.6.2.9,0,.3,0,.6-.2.9-.9,2.3-22.1,57.5-49.7,79.7-.3.3-.7.4-1.1.5Z"/>
  <path class="cls-5" d="M427.3,1544.2c-.4,0-.8-.1-1.1-.3-21.3-12.2-48.9-65.6-50-67.9-.3-.5-.3-1.1-.2-1.7.2-.6.6-1,1.1-1.3.5-.3,1.1-.3,1.7-.2.6.2,1,.6,1.3,1.1,0,.5,26.6,51.7,46.7,65.1,16.3-19,37.9-32.8,62-39.6.6-.2,1.2-.1,1.7.2.5.3.9.7,1.1,1.3.2.6.1,1.2-.2,1.7-.3.5-.7.9-1.3,1.1-23.9,6.6-45.1,20.3-60.9,39.4-.2.3-.5.6-.8.8-.3.2-.7.3-1,.3Z"/>
  <path class="cls-5" d="M423.3,1666s-17.8-28.2-37.8-32.3c-20-4-28.7-27.1-36.1-13.2s13,60,73.9,45.5Z"/>
  <path class="cls-3" d="M351,1776.9h148.1l9.9-119.6h-167.8l9.9,119.6Z"/>
  <path class="cls-3" d="M337.6,1680h174.8l2.3-25.3h-179.3l2.2,25.3Z"/>
  <path class="cls-18" d="M337.6,1680h174.8l2.3-25.3h-179.3l2.2,25.3Z"/>
  <path class="cls-3" d="M1380.5,755.1l-7.5,1.4c-.6,0-1.2,0-1.7-.4-.5-.3-.9-.7-1.2-1.2-.3-.5-.4-1.1-.3-1.7,0-.6.3-1.1.7-1.6h.3c-2.1.9-4.2,1.9-6.5,2.7-.2,3.3-.2,6.6,0,9.8l48.3,249.7-179.8,34.9c0,.4,0,.7,0,1.1,0,.8-.4,1.5-1,2-.6.5-1.4.8-2.2.7-2.9-.5-5.9-1.1-8.8-1.5l-238.1,46.2c0,.4-.2.8-.4,1.2-.9,1.5-1.9,3-3,4.3.1.9,0,1.8-.3,2.6-1.8,5.5-4.2,10.8-7.1,15.9-.9,1.3-2.3,2.3-3.9,2.6-1,.2-2.1.1-3.1-.2-1.1,2.4-2,5-2.5,7.6l381.5-73.8.3-.4c2.2-2.1,4.9-3.7,7.7-4.7,2.9-1,5.9-1.4,9-1.2,2.2-2.5,4.8-4.7,7.6-6.4,1.3-.9,2.8-1.4,4.3-1.5,1.5-.1,3.1.1,4.5.8,1.9,1.1,3.3,2.9,4.1,4.9,3.8-.5,7.5-.7,11.3-.8l54.1-10.5-52.9-272.8c-5.2-2-9.9-5.3-13.6-9.5Z"/>
  <path class="cls-3" d="M887.2,398.2l1.8.3,35.6-6.9c3.9-1.7,7.8-3.5,11.6-5.2,7.2-3.4,14.9-5.5,22.7-6.3,4.7-.2,9.4.5,13.8,2.1l306-59.3,28.4,146.4c.3-.5.8-.8,1.3-1.1.5-.2,1.1-.3,1.7-.2.6.1,1.1.4,1.5.8.4.4.7.9.9,1.5,1.7,6.4,2.5,13,2.7,19.7-.2,3.2-.9,6.3-2.2,9.3l48.3,249.2c2.9-1.1,5.8-2.3,8.6-3.5.3-1.7.9-3.4,1.8-4.8.9-1.5,2.2-2.7,3.6-3.7,2.1-1,4.4-1.2,6.6-.5,1.1-2.6,2-5.3,2.5-8.1.7-3.4,1-6.8.9-10.3l-1.9-10.1c0-.5-.5-1-.7-1.5-.2-.4-.3-.8-.3-1.2s0-.9.3-1.2l-50.8-261.9c-.3,0-.6,0-.9,0-1.8.2-3.6-.1-5.2-.9-1.6-.8-3-1.9-4-3.4-1.4-2.9-1.8-6.1-1.2-9.3.5-3.7,1.4-7.3,2.2-11,.8-3.2,1-6.5.7-9.8-.1-.6,0-1.1.2-1.7.2-.5.6-1,1.1-1.2l-22.5-116.2-441.4,85.9c-8.2,4.8-17.5,7.2-27,7-.4,0-.9-.2-1.3-.4-.4-.2-.7-.6-.9-1l-219,42.5c-.1.6-.4,1.1-.8,1.5-.4.4-.9.7-1.5.9l-11.5,2.2c0,1.7-.6,3.5-1.5,4.9,0,.7-.4,1.3-.9,1.8-.8.6-1.5,1.3-2.2,2-1.3,1.2-2.6,2.6-4,3.7-.5.4-1,.8-1.7.9-.5,0-1,0-1.5-.1-.5-.2-.9-.5-1.3-.9-.5-.6-.8-1.4-.7-2.2,0-.3,0-.6,0-.8-1.8,0-3.5,0-5.3-.4-.8,0-1.5-.5-2-1.1-.5-.6-.8-1.4-.7-2.1,0-.8.4-1.5,1-2,.6-.5,1.4-.8,2.1-.7,1.9.3,3.7.4,5.6.4h1.5c.2,0,.4,0,.6,0-1.4-.2-2.8-.9-3.7-2,0-.1,0-.3,0-.4l-126.8,24.6c.6,0,1.2.2,1.7.4.6.4,1.1,1.1,1.2,1.9.1.8,0,1.6-.4,2.2-1,1.3-2.2,2.6-3.4,3.7l-.3.4c.3,0,0-.2,0,0-.2.2-.4.5-.6.8v.5c0,.2,0,.3,0,.5,0,0,0,.2,0,.3,0,.5-.3,1-.6,1.4-.3.4-.7.7-1.2,1-.5.2-1,.3-1.5.3-.5,0-1-.2-1.4-.4-.3-.1-.5-.2-.8-.3-.3-.1-.6-.2-.9-.3,0,1.4-.4,2.7-1.1,3.9-.3.4-.7.7-1.1.9-.5.2-.9.3-1.4.2-.5,2.8-1.4,5.4-2.8,7.9-1.5,2.5-3.5,4.7-5.9,6.4.5.6.9,1.3,1.2,2.1l188.5-36.5v-.3c.8-1.3,1.8-2.5,3.1-3.5.8-.6,1.7-1,2.7-1.2,1-.2,2-.1,3,.1,1.5.5,3,1.2,4.3,2.2l244.1-47.3c.3-.7.8-1.2,1.4-1.5.6-.3,1.4-.4,2.1-.2Z"/>
  <path class="cls-3" d="M559,1179.5l-44.3-228.1c-.4.4-.9.8-1.5.9-.6.1-1.2.1-1.7,0-.7-.3-1.3-.8-1.7-1.5-.3-.7-.4-1.5-.1-2.2.7-2.2,1.9-4.2,3.3-6l-58-299.8-.5-.9c-1.2-2.4-2-5-2.5-7.7-1,0-2,0-3.1,0-.4,0-.9,0-1.3,0-.4-.1-.8-.3-1.2-.7-.3-.3-.6-.7-.8-1.1-.2-.4-.2-.9-.2-1.3,0-5.7,1.4-11.3,4.2-16.2l-23.5-121.3c-.4-.6-.7-1.3-1-2l-1.2-2.2c-.5,0-1-.2-1.4-.4-.4-.3-.7-.6-1-1.1-.3-.7-.4-1.5-.1-2.2.2-.7.8-1.3,1.5-1.7,1.2-.5,2.4-1.2,3.3-2.1.7-.8,1.2-1.6,1.6-2.6.8-2.1,1.2-4.3,1.2-6.5-.7-1-1.3-2.1-1.6-3.3-.2-1.7,0-3.3.4-4.9.1-.4.3-.8.6-1.1,0-1.9-.3-3.7-.4-5.6l-37.7,7.3,107.4,554.3c.5-.3,1.2-.4,1.8-.2.6.1,1.1.5,1.4,1,2.8,3,4.3,7,4.3,11.1-.1.8-.4,1.6-.7,2.4.5.4.9.9,1,1.5s.2,1.2,0,1.8c-1.4,2.8-1.9,6-1.3,9.2.6,2.9,1.5,5.8,2.5,8.6,1.9,4.7,2.1,9.9.7,14.8l28.1,144.9,8-1.6c4.5-1.5,9.1-2.7,13.7-3.6,0-.3,0-.7,0-1,0-.3.2-.7.4-.9,1.2-1.3,2.4-2.6,3.7-3.8-.1-.5-.1-1,0-1.5.8-3.4,2.7-6.5,5.5-8.7,2.5-1.8,5.5-2.7,8.6-2.4,2.9.4,5.8,1.4,8.3,3,2.5,1.6,4.6,3.7,6.2,6.2,8.1-2,16.8-4.9,24.6-.9l306-59.1c0-.8.3-1.6.5-2.4,1.2-4,3.6-7.6,6.7-10.3.5-.4,1.1-.7,1.7-.7.6,0,1.2.1,1.8.4.2-.4.6-.7,1-.9.4-.2.8-.3,1.3-.3s.9.1,1.3.3c.4.2.7.6,1,.9l1.2,1.5.5.5.9.6,1,.5c-.9-2.8-.9-5.9,0-8.8.6-1.6,1.5-3.1,2.6-4.3,1.2-1.2,2.6-2.2,4.1-2.9-.3-.4-.5-.9-.5-1.3,0-.5,0-1,.2-1.4s.5-.9.8-1.2c.4-.3.8-.5,1.3-.6.6,0,1.3,0,1.9.4.6.3,1,.8,1.3,1.4s.3,1.2.2,1.9c-.1.6-.5,1.2-1,1.6l.3.4c.3.7.4,1.5.1,2.2-.2.7-.8,1.3-1.5,1.7l-1.1.5-.6.3-.3.2-.8.7-.3.3-.5.7v.3c-.1.2-.2.5-.3.8,1-1.3,2.1-2.4,3.4-3.4.9-.6,1.8-1.1,2.8-1.4,2.4-5.3,4.7-10.7,6.9-16.1l-399.5,77.4Z"/>
  <g id="error404">
    <path class="cls-3" d="M631.7,949.9c.5-.6,1.1-1.1,1.8-1.4l88.9-175.6-40.9,7.9-35.8,70.1c.2,0,.4.1.6.2.6.4,1.1,1.1,1.2,1.9.1.8,0,1.5-.4,2.2-.8,1.2-1.5,2.6-2.2,3.8.6.4,1.2.9,1.9,1.2.5.3.9.8,1.1,1.3.2.5.3,1.1.2,1.7-.1.6-.4,1.1-.8,1.5-.4.4-.9.7-1.5.8l-1,.5h-.5l-1.9.9h-.4l-.7.5-1.5,1.3-.8.8-.3.4-1.4,1.8c-1,1.3-1.9,2.7-2.8,4.1-.5.6-1.1,1.1-1.9,1.2l-52.4,102.7,4.9,26.5,23.3-4.5c.7-2.2,2-4.2,3.6-5.9.8-.7,1.6-1.4,2.6-1.9,0-.2,0-.4,0-.5,1.1-11.9,5-23.4,11.3-33.6-.3-.5-.5-1.1-.5-1.6s.2-1.2.5-1.6c.8-1.4,1.1-3,.9-4.6,0-.6.2-1.2.5-1.7.3-.5.8-.9,1.3-1.1.5-.2,1.1-.3,1.7-.2.6,0,1.1.4,1.6.8Z"/>
    <path class="cls-3" d="M784.9,934.3c0,.7-.3,1.5-.6,2.1-1.5,2.9-3.8,5.1-6.7,6.5-.6.9-1.2,1.7-1.8,2.6-.3.4-.8.8-1.3,1,0,.4-.3.9-.4,1.4-.1.4-.3.7-.6,1-.3.3-.6.6-.9.7-.4.2-.7.3-1.1.3-.4,0-.8,0-1.2-.2-.4-.1-.7-.3-1-.6-.3-.3-.5-.6-.7-1s-.3-.8-.3-1.2c0-.4,0-.8.2-1.2.5-1.7,1.1-3.3,1.9-4.9l-2.8.5c-.8.1-1.5,0-2.2-.5-.6-.4-1.1-1.1-1.3-1.8,0-.2,0-.5,0-.7l-1.7.3-11.1-57.8-35.5,6.9,11.1,57.5-88,17c-.6.3-1.1.7-1.7,1.1v.4c.2.6.2,1.3,0,2-.2.6-.7,1.2-1.2,1.5-.6.3-1.2.5-1.9.4-.7,0-1.3-.4-1.7-.9-1.6,1.4-3.1,3-4.5,4.7.5-.1,1.1-.1,1.6,0,.5.1,1,.4,1.3.8.3.3.5.6.6.9.1.4.2.7.2,1.1s0,.8-.2,1.1c-.1.4-.4.7-.6.9l-2.4,2c.3.5.5,1.1.5,1.6s-.2,1.2-.5,1.6v.3c0,.2,0,.4,0,.5v2.2c-.1,1.3-.7,2.6-1.6,3.5-1.1.9-2.4,1.5-3.8,1.7h-.3c.1,1.5.4,2.9.6,4.4.7,1.3,1.2,2.7,1.6,4.2l107.7-20.9,12.1,65.7,36.7-7.1-12.6-65.1,50.3-9.8-6.3-32.5-27.8,5.4Z"/>
    <path class="cls-3" d="M998.2,757.2l-2.4,2.1c-1.1,1-2.2,2-3.2,3l-1.3,1.5-.7.9c-.8,1.2-2.1,2.1-3.5,2.5-1.4.4-3,.2-4.3-.5-1.3-.7-2.4-1.8-2.9-3.2-.6-1.4-.6-2.9-.1-4.3l1.4-5.2s-.4-.4-.5-.7c-.4-.7-.6-1.6-.6-2.4,0-.8,0-1.6.3-2.4,0-.6.4-1.2.7-1.8-1.1-1-2-2.3-2.7-3.6v-.4c-20.8-10.9-44.7-14.2-67.6-9.3-62,12-98.4,70.1-81.9,156.3,16.5,86.2,72.4,126.5,134.4,114.4,5.6-1.1,11.1-2.6,16.4-4.5,1.7-2.5,3.4-4.9,4.9-7.3.6-.8,1.4-1.5,2.3-2,.9-.5,1.9-.7,3-.6,1,0,2,.3,2.9.9.9.5,1.6,1.3,2.1,2.2,41.7-23.2,63.3-74.8,49.8-144.9-7.7-40.7-24.4-71.2-46.2-90.7ZM956.5,970.5c-41.6,8.1-76.9-20.4-90.1-88.1-13.1-67.7,9-107.3,50.6-115.3,10.9-2.4,22.3-1.7,32.9,1.9,10.6,3.6,20,10,27.2,18.5.7-.5,1.5-.9,2.3-1.1,1.6-.3,3.3,0,4.6,1,1.4.9,2.3,2.3,2.6,3.9.5,3.1.6,6.3.2,9.5,9.8,16.7,16.4,35.1,19.7,54.1,13.2,68-8.9,107.6-50.1,115.6Z"/>
    <path class="cls-3" d="M1267.7,840.8l-11.1-57.5-35.6,6.9,11.2,57.5-101.7,19.7,97.3-192.3-40.8,7.9-36.6,71.7c-.3,8.9-2.2,17.8-5.4,26.1-.2.6-.6,1-1.1,1.4-.5.3-1.1.5-1.7.5s-1.2-.2-1.7-.5c-.5-.3-.9-.8-1.1-1.4-1,7.6-4.6,14.7-10.1,20-.4.3-.8.6-1.3.7-.5,0-1,0-1.5-.1l-41.4,81.1,4.9,26.5,61.2-11.9c5.2-4.2,11.4-6.9,18-8.1,5.8-1.3,11.7-2.1,17.6-2.3,4.4-.3,8.9,0,13.2,1l37.1-7.2,12.6,65,36.7-7.1-12.6-65,50.3-9.8-6.3-32.5-50.1,9.8Z"/>
    <path class="cls-3" d="M591.1,683.2l-5.8-29.9,60-11.6-4.5-23.3-60,11.6-5.4-28.1,68-13.1-4.9-24-97.7,19,8.4,43.1c1.5.8,2.8,1.8,3.9,3.1,1.9,2.3,3,5.2,3.2,8.2.6,6.2-.9,12.5,0,18.5.1.5,0,1,0,1.5s-.5.9-.9,1.2l10.8,53.7,100.1-19.4-4.6-24.2-70.4,13.8Z"/>
    <path class="cls-3" d="M767.4,630.9c7.3-4.6,13-11.3,16.3-19.2,3.4-7.9,4.3-16.7,2.6-25.1-.5.5-1.2.9-1.9.9-.6,0-1.2,0-1.7-.4-.5-.3-.9-.7-1.2-1.2-.7-1.6-1.1-3.2-1.3-4.9v-.7c-.9-1.2-1.6-2.5-1.9-3.9-.1-.8,0-1.6.5-2.2.4-.6,1.1-1.1,1.9-1.3.3,0,.6,0,.9,0,.3,0,.6.2.9.3-9.4-21-32-30.4-61.7-24.6l-56,10.8,7.6,39c.6.3,1.1.7,1.3,1.3,4.8,9.7,7.7,20.1,8.8,30.9.1.8,0,1.6-.5,2.2-.4.6-1.1,1.1-1.9,1.3-.3,0-.6,0-.8,0l10.6,55,29.9-5.8-7-36,27.5-5.4,31.9,31.2,32.1-6.3-37.1-36ZM732.7,618.6l-24.6,4.9-8.8-45,24.6-4.9c18.3-3.5,29.1,3,31.9,17.2,2.8,14.2-4.8,24.5-23.1,27.9Z"/>
    <path class="cls-3" d="M903.2,604.5c7.5-4.8,13.3-11.8,16.7-20,3.3-8.2,4-17.3,2-26-5.6-29-30.7-42.7-65.2-36l-56,10.9,25.1,129.3,29.9-5.8-7-36,27.5-5.4,31.9,31.2,32.1-6.3-37.1-35.9ZM868.5,592.3l-24.6,4.9-8.7-45.1,24.4-4.9c1.5-.3,3-.5,4.4-.6l.9-.8c0-.7.3-1.5.5-2.2.3-.9.9-1.6,1.7-2.1.8-.5,1.7-.8,2.6-.7,1.7.2,3.4.7,4.9,1.7.3-.3.6-.6.9-.7,0-.9.1-1.9.3-2.8.3-.7.8-1.3,1.5-1.6.7-.3,1.5-.3,2.2,0,.7.3,1.3.8,1.6,1.5.3.7.4,1.5.2,2.2-.6,2.3.5,4.3.3,6.6,0,.6-.2,1.1-.5,1.6,2.8,1.6,5.1,3.8,6.9,6.5,1.8,2.7,2.9,5.7,3.3,8.9,3,14-4.6,24.3-22.9,27.9Z"/>
    <path class="cls-3" d="M1044.8,497.6l-1.5.4c-.4.1-.7.3-1,.5-.2,0-.3.2-.4.3-.4.5-1,.9-1.7,1.1-.4,0-.8,0-1.1,0-.4,0-.7-.2-1.1-.5-.3-.2-.6-.5-.8-.8-.2-.3-.4-.7-.4-1.1-.2-.8,0-1.6.4-2.2,0,0,.3-.2.4-.4-12.6-4-26-4.7-39-2.1-40.9,7.9-65.2,42.2-57.8,80.6,7.4,38.4,42.9,61.1,83.7,53.2,40.8-7.9,65.3-42,57.8-80.6-1.8-10.5-6.2-20.4-12.7-28.8-6.5-8.4-15-15.1-24.7-19.6ZM1019.6,600.9c-11,2.1-22.3-.2-31.6-6.4-9.3-6.3-15.7-15.9-17.8-26.9-2.1-11,.2-22.3,6.4-31.6,6.3-9.3,15.9-15.7,26.9-17.8,5.5-1.1,11.2-1.1,16.7,0,0-.7.4-1.4.7-2,.2-.7.7-1.2,1.3-1.6.6-.3,1.3-.5,2.1-.3.5,0,1,.4,1.4.8.4.4.7.9.7,1.5l1.7-.4c.4-1.2.8-2.4,1.1-3.6.3-1.2.4-1.4.5-2.1,0-.3.2-.7.2-1v-.3l.3-1.8v-.6c-.3-2,1.8-4.3,3.9-3.3l5.8,2.8c.7.3,1.3.8,1.6,1.5.3.7.4,1.5.1,2.2-.4.7-.7,1.5-.9,2.3,0,.2,0,.5-.2.8,0,0,0,0,0,.3,0,1.2,0,2.4,0,3.5.1,2.8,0,5.6-.5,8.4.1.3.2.7.2,1s0,.7-.2,1c0,.3-.3.6-.5.9,6.4,6.4,10.8,14.6,12.3,23.5,1.3,5.4,1.6,11,.6,16.5-.9,5.5-3,10.7-6.1,15.3-3.1,4.6-7.1,8.6-11.7,11.6-4.7,3-9.9,5-15.4,5.9Z"/>
    <path class="cls-3" d="M1214.1,505.7c-.2,0-.3,0-.5,0-1.2-.4-2.3-1-3.2-1.9-.4.8-1,1.5-1.5,2.2-.4.6-1.1,1.1-1.9,1.2-.8.1-1.5,0-2.2-.4-.7-.4-1.1-1.1-1.2-1.9-.2-.8,0-1.6.4-2.2,2.9-4,4.7-8.6,5.3-13.5-9.9-20-32.1-28.7-60.9-23.1l-56,10.8,24.9,129.2,29.9-5.8-7-36,27.5-5.3,31.9,31.2,32.1-6.2-37.1-35.9c7-4.4,12.5-10.8,15.9-18.3,3.4-7.5,4.6-15.9,3.3-24ZM1160.2,535.8l-24.6,4.9-8.4-45.3,24.6-4.9c18.3-3.5,29.1,3,31.9,17.2,2.8,14.2-5.2,24.5-23.5,28.1Z"/>
  </g>
  <g id="oops">
    <path class="cls-3" d="M953.7,1287.9h210.4c5.7,0,11.4,1.1,16.7,3.3,5.3,2.2,10.1,5.4,14.1,9.4,4,4,7.2,8.8,9.4,14.1,2.2,5.3,3.3,10.9,3.3,16.7v73.8c0,5.7-1.1,11.4-3.3,16.7-2.2,5.3-5.4,10.1-9.4,14.1-4,4-8.8,7.2-14.1,9.4-5.3,2.2-10.9,3.3-16.7,3.3h-139.8l-64,68.4,34.5-68.4h-41.2c-11.6,0-22.6-4.6-30.8-12.8-8.2-8.2-12.8-19.2-12.8-30.8v-73.8c0-5.7,1.1-11.4,3.3-16.7,2.2-5.3,5.4-10.1,9.5-14.2,4.1-4,8.9-7.2,14.2-9.4,5.3-2.2,11-3.3,16.7-3.3Z"/>
    <path class="cls-12" d="M953.7,1287.9h210.4c5.7,0,11.4,1.1,16.7,3.3,5.3,2.2,10.1,5.4,14.1,9.4,4,4,7.2,8.8,9.4,14.1,2.2,5.3,3.3,10.9,3.3,16.7v73.8c0,5.7-1.1,11.4-3.3,16.7-2.2,5.3-5.4,10.1-9.4,14.1-4,4-8.8,7.2-14.1,9.4-5.3,2.2-10.9,3.3-16.7,3.3h-139.8l-64,68.4,34.5-68.4h-41.2c-11.6,0-22.6-4.6-30.8-12.8-8.2-8.2-12.8-19.2-12.8-30.8v-73.8c0-5.7,1.1-11.4,3.3-16.7,2.2-5.3,5.4-10.1,9.5-14.2,4.1-4,8.9-7.2,14.2-9.4,5.3-2.2,11-3.3,16.7-3.3Z"/>
    <path class="cls-3" d="M964,1364.3c-.2-5,1.1-9.9,3.7-14.1,2.6-4.2,6.5-7.6,11-9.6,4.5-2,9.6-2.7,14.5-1.8s9.4,3.1,13,6.6c3.6,3.4,6.1,7.9,7.1,12.7,1,4.9.6,9.9-1.2,14.5-1.8,4.6-5,8.6-9.2,11.4-4.1,2.8-9,4.3-13.9,4.3-3.2.2-6.5-.3-9.5-1.5-3-1.1-5.8-2.9-8.2-5.1-2.3-2.2-4.2-5-5.5-7.9-1.3-3-1.9-6.2-1.9-9.5ZM1007.2,1364.3c0-3.6-1-7.2-3-10.2-2-3-4.8-5.4-8.2-6.8s-7-1.8-10.6-1.1c-3.6.7-6.8,2.4-9.4,5-2.6,2.5-4.3,5.8-5,9.4-.7,3.6-.3,7.2,1,10.6,1.4,3.3,3.7,6.2,6.8,8.2,3,2,6.6,3.1,10.2,3,2.4,0,4.8-.3,7-1.2,2.2-.9,4.3-2.2,6-3.9,1.7-1.7,3-3.7,3.9-5.9.9-2.2,1.3-4.6,1.3-7Z"/>
    <path class="cls-3" d="M1019.9,1370c0-3.7.9-7.3,2.9-10.4,2-3.1,4.8-5.6,8.2-7,3.4-1.5,7.1-1.9,10.7-1.3s7,2.4,9.6,4.9c2.6,2.6,4.5,5.9,5.2,9.4.8,3.6.4,7.3-.9,10.8s-3.7,6.3-6.8,8.4c-3,2.1-6.6,3.2-10.3,3.2-2.4.1-4.9-.2-7.1-1.1-2.3-.8-4.4-2.2-6.1-3.8-1.7-1.7-3.1-3.7-4-6-.9-2.2-1.4-4.6-1.3-7.1ZM1050.4,1370c.1-1.6-.1-3.3-.7-4.8-.5-1.5-1.4-3-2.5-4.2-1.1-1.2-2.5-2.2-4-2.8-1.5-.6-3.1-1-4.8-1s-3.3.3-4.8,1c-1.5.7-2.9,1.6-4,2.8-1.1,1.2-2,2.6-2.5,4.2-.6,1.5-.8,3.2-.7,4.8-.1,1.6.1,3.3.7,4.8.6,1.5,1.4,3,2.5,4.2,1.1,1.2,2.5,2.2,4,2.8,1.5.7,3.1,1,4.8,1s3.3-.3,4.8-1c1.5-.7,2.9-1.6,4-2.8,1.1-1.2,2-2.6,2.5-4.2.6-1.5.8-3.2.7-4.8Z"/>
    <path class="cls-3" d="M1102.5,1370c.1,2.4-.2,4.8-1.1,7.1-.9,2.3-2.2,4.3-3.9,6-1.7,1.7-3.7,3.1-6,3.9-2.2.9-4.6,1.3-7,1.2-2.4,0-4.7-.4-6.9-1.4-2.2-1-4-2.5-5.5-4.4v18.4h-6.5v-48.6h6.2v5.7c1.5-1.9,3.4-3.5,5.6-4.6,2.2-1,4.6-1.5,7.1-1.4,2.4,0,4.8.3,7,1.2,2.2.9,4.3,2.2,6,3.9,1.7,1.7,3,3.7,3.9,6,.9,2.2,1.2,4.6,1.1,7ZM1096,1370c-.1-2.3-.9-4.6-2.3-6.5-1.4-1.9-3.3-3.3-5.5-4.2-2.2-.8-4.6-1-6.8-.4-2.3.5-4.3,1.7-6,3.4-1.6,1.7-2.7,3.8-3.1,6.1-.4,2.3-.2,4.7.8,6.8.9,2.2,2.4,4,4.4,5.3,1.9,1.3,4.2,2,6.6,2,1.6,0,3.3-.2,4.8-.9,1.5-.6,2.9-1.6,4-2.7,1.1-1.2,2-2.6,2.6-4.1.6-1.5.8-3.2.7-4.8h0Z"/>
    <path class="cls-3" d="M1107.1,1384l2.6-4.9c3.7,2.4,8.1,3.6,12.5,3.6s8.4-1.8,8.4-4.9c0-8-22.4-1-22.4-15.2s5.7-10.7,14.8-10.7c4.5,0,9,1,13,3.2l-2.8,4.9c-3.1-1.9-6.6-2.9-10.2-2.8-5.7,0-8.4,2.1-8.4,4.9,0,8.4,22.5,1.5,22.5,15.4s-5.9,10.5-15.4,10.5c-5.2.2-10.3-1.3-14.6-4.1Z"/>
    <path class="cls-3" d="M1143.7,1383.9c0-.6.1-1.1.3-1.7.2-.5.5-1,1-1.4.4-.4.9-.7,1.4-.9.5-.2,1.1-.3,1.7-.3.6,0,1.1,0,1.7.3s1,.5,1.4.9c.4.4.7.9.9,1.4.2.5.3,1.1.3,1.7,0,.6,0,1.1-.3,1.7-.2.5-.5,1-.9,1.4-.4.4-.9.7-1.4.9-.5.2-1.1.3-1.7.3-.6,0-1.2,0-1.7-.3-.5-.2-1-.5-1.4-.9-.4-.4-.7-.9-1-1.4-.2-.5-.3-1.1-.3-1.7ZM1144.3,1340.8h7.5l-1.3,32.1h-4.9l-1.3-32.1Z"/>
  </g>
  <path class="cls-5" d="M2180.4,520.7c0,16-87.8,29.8-213.5,35.9l-10.1.5-13.6.5c-18.9.7-38.4,1.3-58.6,1.7h-14c-15.5.2-31.3.3-47.4.3-29.1,0-57.4-.4-84.6-1.1l-19.7-.6c-49.5-1.6-94.4-4.4-132.2-8.1-74.2-7.2-121-17.7-121-29.5,0-17.7,106.3-32.5,252.6-37.5l11.5-.4c10.2-.3,20.5-.5,31-.7,12.7-.2,25.6-.4,38.6-.5h23.8c36.8,0,72.3.6,105.8,1.8l15.9.5,20.6.9,5.4.3,13.7.7c115.8,6.8,195.8,19.9,195.8,35.2Z"/>
  <path class="cls-21" d="M2180.4,520.7c0,16-87.8,29.8-213.5,35.9l-10.1.5-13.6.5c-18.9.7-38.4,1.3-58.6,1.7h-14c-15.5.2-31.3.3-47.4.3-29.1,0-57.4-.4-84.6-1.1l-19.7-.6c-49.5-1.6-94.4-4.4-132.2-8.1-74.2-7.2-121-17.7-121-29.5s9.3-10.2,26.2-14.8c31.2,7.3,62.9,12.2,94.8,14.8,37.8,3.6,82.7,6.4,132.2,8.1l19.7.6c27.1.7,55.4,1.1,84.6,1.1s31.9,0,47.4-.3h14c20.2-.4,39.8-1,58.6-1.7l13.6-.5,10.1-.5c84.8-4.1,152.3-11.7,187.3-21.1,16.6,4.6,26.2,9.5,26.2,14.8Z"/>
  <path class="cls-19" d="M1799,481.6c-.4,5.9-2.6,11.5-6.3,16-4.1,4.9-7.6,8.7-11.6,12.7-2.4,2.4-4.9,4.9-7.1,7.1-1.6,1.6-3.2,3.2-4.9,4.6-8.3,7.7-17.1,14.9-26.4,21.5l-1.6,1.1-4.3,2.9c-5.9,3.9-12.1,7.5-18.4,10.6-2.4,1.2-4.9,2.3-7.3,3.4-5.9,2.5-12,4.5-18.2,6.1-5.5,1.5-10.8,2.8-16,3.8-7.3,1.6-14.8,3.1-21.8,4.4-13.4,2.6-26.8,4.9-40.3,6.9-11.5,1.7-22.9,3.3-34.5,4.9-9.3,1.1-18.5,2.1-27.9,2.9-1,.1-2.1.1-3.1,0-3.1-.4-6-1.9-8.2-4.2-2.2-2.3-3.5-5.2-3.8-8.4,0-.6,0-1.2,0-1.9.1-2.7,1.1-5.3,2.7-7.5,1.6-2.2,3.9-3.9,6.4-4.8l1.2-.4c12.8-4.6,25.5-8.9,38.4-13.1l19.4-6.3c19.7-6.4,39.4-12.4,58.5-18.8,4.9-1.6,9.5-3.2,13.9-4.9,3.8-1.2,7.4-2.9,10.8-4.9,2.2-1.3,4.4-2.7,6.7-4.2,5-3.3,9.7-6.9,14.3-10.8,6.5-5.4,13-11.3,19.3-17.4,10.2-.3,20.6-.5,31.1-.7,12.8-.5,25.7-.6,38.7-.7Z"/>
  <path class="cls-3" d="M1799.6,501.5c-.3,1-.7,2-1.1,3-.4,1-.8,2-1.3,3-.4,1-.9,1.9-1.5,2.8l-1.6,2.8v.2c-1.1,1.7-2.3,3.4-3.5,4.9-1.3,1.7-2.7,3.4-4.2,4.9l-1.4,1.5c-2.1,2.3-4.4,4.5-6.8,6.5-.8.7-1.6,1.4-2.5,2.1-.3.3-.6.6-.9.8-7.4,5.9-15.3,11.1-23.6,15.5l-3,1.5-3,1.5-1.1.5-3.6-3.1-3.1-2.8-6.9-6.1-34.5-30.4-2.6-2.3s10.5-11.8,24.6-25.5l11.5-.4c10.2-.3,20.6-.5,31.1-.7,12.6-.2,25.5-.4,38.6-.5h2.8c.7,6.9-.1,13.8-2.4,20.3Z"/>
  <path class="cls-12" d="M1799.6,501.5c-.3,1-.7,2-1.2,3-.4,1-.8,2-1.3,3-.4,1-.9,1.9-1.5,2.8l-1.6,2.8v.2c-1.1,1.7-2.3,3.4-3.5,4.9-1.3,1.7-2.7,3.4-4.2,4.9l-1.4,1.5c-2.1,2.3-4.4,4.5-6.8,6.5-.8.7-1.6,1.4-2.5,2.1-.3.3-.6.6-.9.8-7.4,5.9-15.3,11.1-23.6,15.5l-3,1.5-3,1.5-1.1.5-3.6-3.1-3.1-2.8-6.9-6.1-34.5-30.4-2.6-2.3s10.5-11.8,24.6-25.5l11.5-.4c10.2-.3,20.6-.5,31.1-.7,12.6-.2,25.5-.4,38.6-.5h2.9c.7,6.9-.1,13.8-2.4,20.3Z"/>
  <path class="cls-11" d="M1774.4,534.3c-9.5,7.6-19.8,14-30.9,19l-13.5-12c7.1-21.1,19.9-39.9,37-54.1,6.2,11.4,8.1,35.3,7.4,47.1Z"/>
  <path class="cls-15" d="M1551.8,563.7l-45.7-7,.3,40.5s31.3,9.4,47.9-11.9l-2.6-21.6Z"/>
  <path class="cls-15" d="M1475,567.7l7.5,30.1,23.9-.5-.4-40.5-31.1,10.9Z"/>
  <path class="cls-3" d="M1965,484.7c-.4,1-.8,2.1-1.2,3.2-1.2,3-2.3,6.1-3.4,9.1-.7,1.9-1.3,3.7-2,5.7-.6,1.9-1.3,3.8-1.9,5.8-1.8,5.7-3.6,11.5-5.3,17.3,0,.3-.1.6-.2.9-1.9,6.5-3.5,13.1-5.2,19.7v.8c-.8,3.4-1.7,6.9-2.5,10.4-.4,1.6-.7,3.1-1.1,4.7-1.3,6.1-2.6,12.2-3.8,18.2-.4,2.3-.9,4.5-1.3,6.7-.4,2.2-.9,4.9-1.3,7,0,.5,0,1-.2,1.5-.2,1.3-.5,2.6-.7,3.8-.6,3.6-1.2,7.1-1.8,10.6,0,.5,0,1-.2,1.6l-.6,3.7c-1.2,7.2-2.2,14.2-3.2,21.1,0,.4,0,.8,0,1.2-1,7.5-1.9,14.8-2.7,21.8-.3,2.9-.7,5.8-1,8.6-.4,3.9-.8,7.7-1.2,11.4-.3,2.7-.5,5.4-.8,7.9-.2,2.6-.4,4.9-.6,7-.2,2.1-.4,4.5-.6,6.6-.5,6-.9,11.4-1.2,16.1,0,2.1-.2,3.9-.4,5.7-.4,6.5-.6,11.1-.7,13.2v1.3l-87.3-8h-1.3l-14.8-1.4-22.2-2.1-27.3-2.3-6.4-.6-32.6-3c0-3.1-.3-6.1-.4-9.2v-2.5c-.9-26.9-.4-51.5,1-73.8.8-11.7,1.8-22.8,3-33.3,1.8-15.2,4-29.1,6.5-41.9.5-2.9,1.1-5.8,1.7-8.5.4-1.9.8-3.7,1.2-5.6,3.3-14.8,7.4-29.4,12.2-43.7,2.4-6.9,4.9-13.1,7-18.8,12.6-.2,25.5-.4,38.6-.5h23.8c36.8,0,72.3.6,105.8,1.8l15.9.5,20.7.2Z"/>
  <path class="cls-12" d="M1965,484.7c-.4,1-.8,2.1-1.2,3.2-1.2,3-2.3,6.1-3.4,9.1-.7,1.9-1.3,3.7-2,5.7-.6,1.9-1.3,3.8-1.9,5.8v.3c-1.8,5.6-3.5,11.2-5.2,17,0,.3-.1.6-.2.9-2.4,8.4-4.6,16.9-6.6,25.4-.4,1.8-.8,3.7-1.2,5.5-.4,1.8-.7,3.1-1.1,4.7-1.3,6.1-2.6,12.2-3.8,18.2-.5,2.3-.9,4.5-1.3,6.8-.4,2.3-.9,4.7-1.3,7,0,.5,0,1-.3,1.5-.2,1.3-.5,2.6-.7,3.8-.6,3.6-1.2,7.1-1.8,10.6,0,.5,0,1-.2,1.6l-.6,3.7c-1.1,7.2-2.2,14.2-3.1,21.1,0,.4,0,.8,0,1.2-1,7.5-1.9,14.8-2.7,21.8-.3,2.9-.7,5.8-1,8.6-.4,3.9-.8,7.7-1.2,11.4-.3,2.7-.5,5.4-.8,7.9-.2,2.6-.4,4.9-.6,7-.2,2.1-.4,4.5-.6,6.6-.5,6-.9,11.4-1.2,16.1,0,2.1-.2,3.9-.4,5.7-.4,6.5-.6,11.1-.7,13.2v1.3l-87.3-8h-1.3l-14.8-1.4-22.2-2.1-27.2-2.4-6.4-.6-32.6-3c0-3.1-.3-6.1-.4-9.2v-2.5c-.9-26.9-.4-51.5,1-73.8.8-11.7,1.8-22.8,3-33.3,1.8-15.2,4-29.1,6.5-41.9.5-2.9,1.1-5.8,1.7-8.5.4-1.9.8-3.7,1.2-5.6,3.3-14.8,7.4-29.4,12.2-43.7,2.4-6.9,4.9-13.1,7-18.8,12.6-.2,25.5-.4,38.6-.5h23.8c36.8,0,72.3.6,105.8,1.8l15.9.5,20.7.2Z"/>
  <path class="cls-13" d="M1493.8,1138s61.5-25.6,63.6-50.9c0-.6.2-1.2.4-1.8.3-.5.6-1,1.1-1.4s1-.7,1.6-.9c.6-.2,1.2-.2,1.8-.2l47,2.9c1.1,0,2.2.5,3.1,1.1.9.6,1.6,1.5,2.1,2.5l18.8,43.5-13,1.8-5.5-5.9-4.9,7.4c-70.7,9.8-101.3,13-115.9,10.6-2.7-6-.2-8.6-.2-8.6Z"/>
  <path class="cls-5" d="M1782.2,882.4c-2.7-.6-4.2-1-4.2-1l-221.5-27.7,65.9,234.5-67,6.4s-153-295.1-90.5-337.6c62.5-42.6,256.3,4.4,256.3,4.4l7.6-58.4,192.7,14.4c31,192.6-112.8,170.6-139.3,165Z"/>
  <path class="cls-13" d="M1718.4,1559.9s66.3-6.4,75.8-30.2c.2-.6.5-1.1.9-1.5.4-.4.9-.8,1.4-1,.5-.2,1.1-.4,1.7-.4.6,0,1.2,0,1.7.3l44.3,16.4c1,.4,1.9,1.1,2.6,1.9.7.9,1.1,1.9,1.3,3l5.3,47.1-13-2.1-3.6-7.3-6.7,5.7c-70.4-11.4-100.7-17-113.9-23.7-1.2-6.5,2.1-8.2,2.1-8.2Z"/>
  <path class="cls-5" d="M1923.5,787.1c-.3,1.2-8.3,38.1-18.8,91-.6,3-1.2,6.2-1.8,9.3-4.9,25.2-10.3,53.5-15.7,82.9-6.5,35.9-12.9,73.8-18.4,109.6-7.3,44.8-12.1,90-14.3,135.4-2.6,114-7.3,339.1-7.3,339.1l-61.4-9.9s-33.9-240-33.5-356.2c.3-73.8,18.6-226,31.1-320.6,6.3-48.5,11.1-82,11.1-82l69.6.6,59.4.7Z"/>
  <path class="cls-5" d="M1918.6,736.1l4.1.3-.2-13.3-3.6-.2-.3,13.2Z"/>
  <path class="cls-5" d="M1767.2,724.3l82.2,6.4.4-13.2-81.9-6.3-.7,13.1Z"/>
  <path class="cls-5" d="M1761.5,710.7l-34.8-2.7-1.2,13.1,35.2,2.8.8-13.1Z"/>
  <path class="cls-5" d="M1912.6,722.4l-56.5-4.4-.2,13.2,56.4,4.4.4-13.2Z"/>
  <g class="cls-22">
    <path class="cls-17" d="M1918.7,736.1l4.1.3-.2-13.3-3.6-.2-.3,13.2Z"/>
    <path class="cls-17" d="M1767.2,724.3l82.2,6.4.4-13.2-81.9-6.3-.7,13.1Z"/>
    <path class="cls-17" d="M1761.5,710.7l-34.8-2.7-1.2,13.1,35.2,2.8.8-13.1Z"/>
    <path class="cls-17" d="M1912.6,722.4l-56.5-4.4-.2,13.2,56.4,4.4.4-13.2Z"/>
  </g>
  <path class="cls-17" d="M1815.4,729.8h-.4l-20.5-1.9c-1.1,0-2.1-.6-2.8-1.4-.7-.8-1.1-1.9-1-2.9l.3-8c0-.6.2-1.1.4-1.6.2-.5.6-1,1-1.3.4-.4.9-.7,1.4-.9.5-.2,1.1-.2,1.7-.2l20.4,1.6c1.1,0,2.1.6,2.8,1.4.7.8,1.1,1.8,1.1,2.9v8.4c0,.6-.1,1.1-.4,1.6-.2.5-.6,1-1,1.4-.8.7-1.9,1.1-3,1ZM1795.2,715.1c-.1,0-.3,0-.4,0,0,0,0,.1,0,.2s0,.2,0,.2l-.3,8c0,0,0,.2,0,.2,0,0,0,.1.1.2,0,0,.1.1.2.1,0,0,.2,0,.2,0l20.5,1.9c0,0,.2,0,.2,0s.2,0,.2,0c0-.1,0-.3,0-.4v-8.4c0-.2,0-.3-.2-.4-.1-.1-.3-.2-.4-.2l-20.4-1.6h.2Z"/>
  <path class="cls-17" d="M1815.1,723l-6.2-.6c-.5,0-.9-.3-1.2-.7-.3-.4-.5-.8-.4-1.3,0-.5.3-.9.6-1.2.4-.3.8-.4,1.3-.4l6.2.6c.5,0,.9.2,1.2.5.3.3.5.8.5,1.3s-.2.9-.5,1.3c-.3.3-.8.5-1.2.5h-.3Z"/>
  <path class="cls-11" d="M1950.9,526.7c-2.4,8.4-4.6,16.9-6.6,25.4-.8,3.4-1.6,6.8-2.3,10.2-3.7,16.7-6.8,33.4-9.4,49.6l-.6,3.7c-33.8,10.9-68.9,3.4-67.8-29.2,1.6-43.7,38.8-64,38.8-64,16.6-9.1,34-5.6,47.9,4.3Z"/>
  <path class="cls-5" d="M1620.1,1776.9h45.5l-148.1-1170h-45.5l148.1,1170Z"/>
  <path class="cls-21" d="M1620.1,1776.9h45.5l-148.1-1170h-45.5l148.1,1170Z"/>
  <path class="cls-5" d="M1524.9,780.3h144.8c1.8,0,3.5-.7,5-1.8,1.5-1,2.6-2.5,3.3-4.2l9.2-19.7h-179.8l9.2,19.7c.7,1.7,1.8,3.1,3.3,4.2,1.5,1,3.2,1.7,5,1.8Z"/>
  <path class="cls-21" d="M1524.9,780.3h144.8c1.8,0,3.5-.7,5-1.8,1.5-1,2.6-2.5,3.3-4.2l9.2-19.7h-179.8l9.2,19.7c.7,1.7,1.8,3.1,3.3,4.2,1.5,1,3.2,1.7,5,1.8Z"/>
  <path class="cls-5" d="M1509.8,764.2h174.9c5.2,0,9.4-4.2,9.4-9.4v-2.1c0-5.2-4.2-9.4-9.4-9.4h-174.9c-5.2,0-9.4,4.2-9.4,9.4v2.1c0,5.2,4.2,9.4,9.4,9.4Z"/>
  <path class="cls-16" d="M1509.8,764.2h174.9c5.2,0,9.4-4.2,9.4-9.4v-2.1c0-5.2-4.2-9.4-9.4-9.4h-174.9c-5.2,0-9.4,4.2-9.4,9.4v2.1c0,5.2,4.2,9.4,9.4,9.4Z"/>
  <path class="cls-5" d="M1551.4,947.6h144.7c1.8,0,3.6-.7,5-1.8,1.5-1.1,2.6-2.5,3.3-4.2l9.2-19.4h-179.8l9.2,19.4c.7,1.7,1.8,3.2,3.3,4.2,1.5,1.1,3.2,1.7,5.1,1.8Z"/>
  <path class="cls-21" d="M1551.4,947.6h144.7c1.8,0,3.6-.7,5-1.8,1.5-1.1,2.6-2.5,3.3-4.2l9.2-19.4h-179.8l9.2,19.4c.7,1.7,1.8,3.2,3.3,4.2,1.5,1.1,3.2,1.7,5.1,1.8Z"/>
  <path class="cls-5" d="M1536.2,931.4h174.9c5.2,0,9.4-4.2,9.4-9.4v-2.1c0-5.2-4.2-9.4-9.4-9.4h-174.9c-5.2,0-9.4,4.2-9.4,9.4v2.1c0,5.2,4.2,9.4,9.4,9.4Z"/>
  <path class="cls-16" d="M1536.2,931.4h174.9c5.2,0,9.4-4.2,9.4-9.4v-2.1c0-5.2-4.2-9.4-9.4-9.4h-174.9c-5.2,0-9.4,4.2-9.4,9.4v2.1c0,5.2,4.2,9.4,9.4,9.4Z"/>
  <path class="cls-5" d="M1577.8,1168.9h144.9c1.8,0,3.6-.7,5.1-1.7,1.5-1,2.6-2.5,3.3-4.2l9.2-19.7h-179.9l9.2,19.7c.7,1.7,1.8,3.1,3.3,4.2,1.5,1,3.2,1.7,5,1.7Z"/>
  <path class="cls-21" d="M1577.8,1168.9h144.9c1.8,0,3.6-.7,5.1-1.7,1.5-1,2.6-2.5,3.3-4.2l9.2-19.7h-179.9l9.2,19.7c.7,1.7,1.8,3.1,3.3,4.2,1.5,1,3.2,1.7,5,1.7Z"/>
  <path class="cls-5" d="M1562.6,1152.8h174.9c5.2,0,9.4-4.2,9.4-9.4v-2.1c0-5.2-4.2-9.4-9.4-9.4h-174.9c-5.2,0-9.4,4.2-9.4,9.4v2.1c0,5.2,4.2,9.4,9.4,9.4Z"/>
  <path class="cls-16" d="M1562.6,1152.8h174.9c5.2,0,9.4-4.2,9.4-9.4v-2.1c0-5.2-4.2-9.4-9.4-9.4h-174.9c-5.2,0-9.4,4.2-9.4,9.4v2.1c0,5.2,4.2,9.4,9.4,9.4Z"/>
  <path class="cls-5" d="M1604.1,1390.3h144.8c1.8,0,3.6-.7,5-1.7,1.5-1,2.6-2.5,3.3-4.2l9.2-19.7h-179.8l9.2,19.7c.7,1.7,1.8,3.1,3.3,4.2,1.5,1.1,3.2,1.7,5,1.7Z"/>
  <path class="cls-21" d="M1604.1,1390.3h144.8c1.8,0,3.6-.7,5-1.7,1.5-1,2.6-2.5,3.3-4.2l9.2-19.7h-179.8l9.2,19.7c.7,1.7,1.8,3.1,3.3,4.2,1.5,1.1,3.2,1.7,5,1.7Z"/>
  <path class="cls-5" d="M1589,1374.2h174.9c5.2,0,9.4-4.2,9.4-9.4v-2.1c0-5.2-4.2-9.4-9.4-9.4h-174.9c-5.2,0-9.4,4.2-9.4,9.4v2.1c0,5.2,4.2,9.4,9.4,9.4Z"/>
  <path class="cls-16" d="M1589,1374.2h174.9c5.2,0,9.4-4.2,9.4-9.4v-2.1c0-5.2-4.2-9.4-9.4-9.4h-174.9c-5.2,0-9.4,4.2-9.4,9.4v2.1c0,5.2,4.2,9.4,9.4,9.4Z"/>
  <path class="cls-5" d="M1630.6,1611.7h144.7c1.8,0,3.5-.7,5-1.7,1.5-1,2.6-2.5,3.3-4.2l9.2-19.7h-179.8l9.2,19.7c.7,1.7,1.8,3.1,3.3,4.2,1.5,1.1,3.2,1.6,5.1,1.7Z"/>
  <path class="cls-21" d="M1630.6,1611.7h144.7c1.8,0,3.5-.7,5-1.7,1.5-1,2.6-2.5,3.3-4.2l9.2-19.7h-179.8l9.2,19.7c.7,1.7,1.8,3.1,3.3,4.2,1.5,1.1,3.2,1.6,5.1,1.7Z"/>
  <path class="cls-5" d="M1615.4,1595.6h174.9c5.2,0,9.4-4.2,9.4-9.4v-2.1c0-5.2-4.2-9.4-9.4-9.4h-174.9c-5.2,0-9.4,4.2-9.4,9.4v2.1c0,5.2,4.2,9.4,9.4,9.4Z"/>
  <path class="cls-16" d="M1615.4,1595.6h174.9c5.2,0,9.4-4.2,9.4-9.4v-2.1c0-5.2-4.2-9.4-9.4-9.4h-174.9c-5.2,0-9.4,4.2-9.4,9.4v2.1c0,5.2,4.2,9.4,9.4,9.4Z"/>
  <path class="cls-5" d="M1795.9,1776.9h45.5l-148.1-1170h-45.5l148.1,1170Z"/>
  <path class="cls-12" d="M1795.9,1776.9h45.5l-148.1-1170h-45.5l148.1,1170Z"/>
  <path class="cls-5" d="M1317.9,1776.9h-45.5l148-1170h45.5l-148,1170Z"/>
  <path class="cls-21" d="M1317.9,1776.9h-45.5l148-1170h45.5l-148,1170Z"/>
  <path class="cls-5" d="M1588.8,780.3h-144.7c-1.8,0-3.6-.7-5-1.7-1.5-1-2.6-2.5-3.3-4.2l-9.2-19.7h179.8l-9.2,19.7c-.7,1.7-1.8,3.1-3.3,4.2-1.5,1-3.2,1.6-5,1.7Z"/>
  <path class="cls-9" d="M1588.8,780.3h-144.7c-1.8,0-3.6-.7-5-1.7-1.5-1-2.6-2.5-3.3-4.2l-9.2-19.7h179.8l-9.2,19.7c-.7,1.7-1.8,3.1-3.3,4.2-1.5,1-3.2,1.6-5,1.7Z"/>
  <path class="cls-5" d="M1603.9,743.3h-174.9c-5.2,0-9.4,4.2-9.4,9.4v2.1c0,5.2,4.2,9.4,9.4,9.4h174.9c5.2,0,9.4-4.2,9.4-9.4v-2.1c0-5.2-4.2-9.4-9.4-9.4Z"/>
  <path class="cls-6" d="M1603.9,743.3h-174.9c-5.2,0-9.4,4.2-9.4,9.4v2.1c0,5.2,4.2,9.4,9.4,9.4h174.9c5.2,0,9.4-4.2,9.4-9.4v-2.1c0-5.2-4.2-9.4-9.4-9.4Z"/>
  <path class="cls-5" d="M1562.4,947.6h-144.9c-1.8,0-3.6-.7-5-1.8-1.5-1.1-2.6-2.5-3.3-4.2l-9.2-19.4h179.9l-9.2,19.4c-.7,1.7-1.8,3.1-3.3,4.2-1.5,1.1-3.2,1.7-5,1.8Z"/>
  <path class="cls-9" d="M1562.4,947.6h-144.9c-1.8,0-3.6-.7-5-1.8-1.5-1.1-2.6-2.5-3.3-4.2l-9.2-19.4h179.9l-9.2,19.4c-.7,1.7-1.8,3.1-3.3,4.2-1.5,1.1-3.2,1.7-5,1.8Z"/>
  <path class="cls-5" d="M1577.6,910.5h-174.9c-5.2,0-9.4,4.2-9.4,9.4v2.1c0,5.2,4.2,9.4,9.4,9.4h174.9c5.2,0,9.4-4.2,9.4-9.4v-2.1c0-5.2-4.2-9.4-9.4-9.4Z"/>
  <path class="cls-6" d="M1577.6,910.5h-174.9c-5.2,0-9.4,4.2-9.4,9.4v2.1c0,5.2,4.2,9.4,9.4,9.4h174.9c5.2,0,9.4-4.2,9.4-9.4v-2.1c0-5.2-4.2-9.4-9.4-9.4Z"/>
  <path class="cls-5" d="M1536,1168.9h-144.7c-1.8,0-3.6-.7-5-1.7-1.5-1-2.6-2.5-3.3-4.2l-9.2-19.7h179.8l-9.2,19.7c-.7,1.7-1.8,3.1-3.3,4.2-1.5,1.1-3.2,1.7-5.1,1.7Z"/>
  <path class="cls-9" d="M1536,1168.9h-144.7c-1.8,0-3.6-.7-5-1.7-1.5-1-2.6-2.5-3.3-4.2l-9.2-19.7h179.8l-9.2,19.7c-.7,1.7-1.8,3.1-3.3,4.2-1.5,1.1-3.2,1.7-5.1,1.7Z"/>
  <path class="cls-5" d="M1551.1,1131.9h-174.9c-5.2,0-9.4,4.2-9.4,9.4v2.1c0,5.2,4.2,9.4,9.4,9.4h174.9c5.2,0,9.4-4.2,9.4-9.4v-2.1c0-5.2-4.2-9.4-9.4-9.4Z"/>
  <path class="cls-6" d="M1551.1,1131.9h-174.9c-5.2,0-9.4,4.2-9.4,9.4v2.1c0,5.2,4.2,9.4,9.4,9.4h174.9c5.2,0,9.4-4.2,9.4-9.4v-2.1c0-5.2-4.2-9.4-9.4-9.4Z"/>
  <path class="cls-5" d="M1509.6,1390.3h-144.7c-1.8,0-3.6-.7-5.1-1.7-1.5-1-2.6-2.5-3.3-4.2l-9.2-19.7h179.8l-9.2,19.7c-.7,1.7-1.8,3.1-3.3,4.2-1.5,1.1-3.2,1.7-5,1.7Z"/>
  <path class="cls-9" d="M1509.6,1390.3h-144.7c-1.8,0-3.6-.7-5.1-1.7-1.5-1-2.6-2.5-3.3-4.2l-9.2-19.7h179.8l-9.2,19.7c-.7,1.7-1.8,3.1-3.3,4.2-1.5,1.1-3.2,1.7-5,1.7Z"/>
  <path class="cls-5" d="M1524.7,1353.3h-174.9c-5.2,0-9.4,4.2-9.4,9.4v2.1c0,5.2,4.2,9.4,9.4,9.4h174.9c5.2,0,9.4-4.2,9.4-9.4v-2.1c0-5.2-4.2-9.4-9.4-9.4Z"/>
  <path class="cls-6" d="M1524.7,1353.3h-174.9c-5.2,0-9.4,4.2-9.4,9.4v2.1c0,5.2,4.2,9.4,9.4,9.4h174.9c5.2,0,9.4-4.2,9.4-9.4v-2.1c0-5.2-4.2-9.4-9.4-9.4Z"/>
  <path class="cls-5" d="M1483.2,1611.7h-144.8c-1.8,0-3.6-.7-5-1.7-1.5-1-2.6-2.5-3.3-4.2l-9.2-19.7h179.8l-9.2,19.7c-.7,1.7-1.8,3.1-3.3,4.2-1.5,1.1-3.2,1.7-5,1.7Z"/>
  <path class="cls-9" d="M1483.2,1611.7h-144.8c-1.8,0-3.6-.7-5-1.7-1.5-1-2.6-2.5-3.3-4.2l-9.2-19.7h179.8l-9.2,19.7c-.7,1.7-1.8,3.1-3.3,4.2-1.5,1.1-3.2,1.7-5,1.7Z"/>
  <path class="cls-5" d="M1498.4,1574.7h-174.9c-5.2,0-9.4,4.2-9.4,9.4v2.1c0,5.2,4.2,9.4,9.4,9.4h174.9c5.2,0,9.4-4.2,9.4-9.4v-2.1c0-5.2-4.2-9.4-9.4-9.4Z"/>
  <path class="cls-6" d="M1498.4,1574.7h-174.9c-5.2,0-9.4,4.2-9.4,9.4v2.1c0,5.2,4.2,9.4,9.4,9.4h174.9c5.2,0,9.4-4.2,9.4-9.4v-2.1c0-5.2-4.2-9.4-9.4-9.4Z"/>
  <path class="cls-5" d="M1493.6,1776.9h-45.5l148.1-1170h45.5l-148.1,1170Z"/>
  <path class="cls-12" d="M1493.6,1776.9h-45.5l148.1-1170h45.5l-148.1,1170Z"/>
  <path class="cls-5" d="M1700.7,612.9h-288.5c-1.8,0-3.5-.7-5-1.7-1.5-1-2.6-2.5-3.3-4.2l-9.2-19.7h323.6l-9.2,19.7c-.7,1.7-1.9,3.1-3.4,4.1-1.5,1-3.2,1.7-5,1.8Z"/>
  <path class="cls-9" d="M1700.7,612.9h-288.5c-1.8,0-3.5-.7-5-1.7-1.5-1-2.6-2.5-3.3-4.2l-9.2-19.7h323.6l-9.2,19.7c-.7,1.7-1.9,3.1-3.4,4.1-1.5,1-3.2,1.7-5,1.8Z"/>
  <path class="cls-5" d="M1715.8,575.9h-318.7c-5.2,0-9.4,4.2-9.4,9.4v2.1c0,5.2,4.2,9.4,9.4,9.4h318.7c5.2,0,9.4-4.2,9.4-9.4v-2.1c0-5.2-4.2-9.4-9.4-9.4Z"/>
  <path class="cls-6" d="M1715.8,575.9h-318.7c-5.2,0-9.4,4.2-9.4,9.4v2.1c0,5.2,4.2,9.4,9.4,9.4h318.7c5.2,0,9.4-4.2,9.4-9.4v-2.1c0-5.2-4.2-9.4-9.4-9.4Z"/>
  <path class="cls-15" d="M1720.8,608l-37.8-26.7-17.7,36.4s23.8,22.3,48.1,10.7l7.4-20.4Z"/>
  <path class="cls-15" d="M1650.3,577.3l-6.7,30.3,21.7,10.2,17.7-36.4-32.7-4.1Z"/>
  <path class="cls-19" d="M1979.6,523.8c-7.4,11.5-15,22.4-22.9,33.2-6,7.9-12.1,15.8-18.5,23.4-1.9,2.4-3.9,4.7-5.9,7-3.9,4.5-7.8,9-12,13.4-4.9,5.5-10.5,10.9-16.2,16.2l-3.3,3c-4.3,4-8.8,7.7-13.5,11.2-7,5.3-14.7,9.5-22.9,12.7-2.4.9-4.9,1.7-7.4,2.3-2.4.6-4.5.9-6.7,1.3-3.9.5-7.8.9-11.8,1-7.4.2-14.4,0-21.2-.3-13.6-.7-26.7-2.6-39.6-4.5-16.5-2.6-32.8-5.9-48.9-9.8-6-1.4-11.9-2.9-17.8-4.5l-9.4-2.6c-3-.9-5.6-2.8-7.4-5.3-1.8-2.6-2.7-5.7-2.4-8.8,0-1,.2-2,.5-3,.7-2.6,2.2-4.9,4.1-6.6,2-1.7,4.5-2.9,7.1-3.2.8,0,1.7,0,2.5,0h3.7c7.4.2,14.8.5,22.3.7,16.6.6,33.1,1,49.2,1.3,12.4,0,24.6,0,36.5-.4,5.9-.2,11.7-.7,16.9-1.5,3.9-.3,7.7-1.2,11.3-2.8,3.4-2,6.6-4.3,9.5-6.9,3-2.6,6.1-5.4,9.1-8.5.9-.8,1.7-1.7,2.6-2.6,1.7-1.8,3.4-3.6,4.9-5.5,4.2-4.6,8.3-9.5,12.4-14.4,1.8-2.3,3.7-4.5,5.5-6.8,8.9-11.2,17.7-22.9,26.2-34.8,5.8-8,11.5-16.1,17-24.1l.3-.5c2.7-4,6.5-7.2,10.9-9.3l20.6.9,5.4.3c.6.3,1.1.7,1.6,1,5.9,4.1,10.1,10.4,11.5,17.4,1.4,7.1,0,14.4-3.9,20.5Z"/>
  <path class="cls-3" d="M1966.7,556.5c-9.3,13.4-19.7,26-31.2,37.7-3.1,3.2-6.3,6.4-9.8,9.8l-5.5-3.1-48.3-27.2-4.5-2.5s3.2-4.9,7.8-11.8c5.9-8.9,14.2-21.5,21.9-33.4,6-9.4,11.6-18.3,15.3-24.6,4.1-7,9.5-13.2,15.9-18.2l15.9.5,20.6.9,5.4.3,13.7.7c6.3,14.7,5,37.9-17.3,70.8Z"/>
  <path class="cls-12" d="M1966.7,556.5c-9.3,13.4-19.7,26-31.2,37.7-3.1,3.2-6.3,6.4-9.8,9.8l-5.5-3.1-48.3-27.2-4.5-2.5s3.2-4.9,7.8-11.8c5.9-8.9,14.2-21.5,21.9-33.4,6-9.4,11.6-18.3,15.3-24.6,4.1-7,9.5-13.2,15.9-18.2l15.9.5,20.6.9,5.4.3,13.7.7c6.3,14.7,5,37.9-17.3,70.8Z"/>
  <path class="cls-5" d="M1246.9,1776.1c0,.3,0,.6,0,.8,0,.1,0,.3,0,.4,0,.2-.1.5-.2.7-.1.3-.3.7-.5.9-.2.4-.5.7-.7,1-2.3,2.3-5.1,4.1-8.1,5.3l-2.4,1c-2.4,1-4.9,1.9-8,2.9-1.9.6-3.8,1.1-6,1.7-34.4,9.3-100.6,16.8-183.9,20.9l-9.8.5-16.1.7-16.6.6-11.5.4c-9.1.2-18.3.5-27.7.6h-15.9c-8.6,0-17.3,0-26.1.3h-23.8c-28.7,0-56.8-.3-83.7-1.1l-11.9-.4c-3.4,0-6.9,0-10.3-.3l-15.8-.5-20.6-.9-5.4-.3-13.7-.7c-22.6-1.3-43.8-2.8-63.3-4.5-46.7-4.1-83.7-9.5-106.6-15.7l-2-.5-2.2-.6c-3.7-1.1-6.9-2.2-9.8-3.3-1-.4-2-.8-2.9-1.3-1.5-.7-2.9-1.5-4.3-2.3-.5-.3-.9-.6-1.3-.9l-1.1-.8-1-1c-.3-.3-.5-.6-.7-.9-.4-.5-.6-1.1-.8-1.7v-.5c0-.2,0-.5,0-.7,0-16,87.8-29.8,213.5-35.9l10.1-.5,13.6-.5,20.9-.7,11.3-.3,26.5-.6h14.2c7.8,0,15.6,0,23.5-.2h23.9c29.1,0,57.4.4,84.6,1.1l19.7.6,8.4.3h.8l9.2.3,6,.2,15.6.7,14.8.7c28.2,1.5,54.2,3.4,77.6,5.7,74,7.3,120.8,17.8,120.8,29.5Z"/>
  <path class="cls-21" d="M532.1,1776.1c0-16,87.8-29.8,213.5-35.9l10.1-.5,13.6-.5c18.9-.7,38.4-1.3,58.6-1.7h14.2c15.5-.2,31.4-.4,47.4-.4,29.1,0,57.4.4,84.6,1.1l19.7.6c49.5,1.6,94.4,4.4,132.2,8.1,74.2,7.2,121,17.7,121,29.5s-9.3,10.2-26.2,14.8c-31.2-7.3-62.9-12.2-94.8-14.8-37.8-3.6-82.7-6.5-132.2-8.1l-19.7-.6c-27.1-.7-55.4-1.1-84.6-1.1s-31.9,0-47.4.3h-14.4c-20.2.4-39.8,1-58.6,1.7l-13.6.5-10.1.5c-84.8,4.1-152.3,11.7-187,21.1-16.9-4.6-26.3-9.5-26.3-14.8Z"/>
  <path class="cls-19" d="M859.4,1757.9c-2.7,3.2-5.2,6.1-7.7,8.8-1.3,1.3-2.5,2.7-3.8,4-2.4,2.4-4.7,4.9-7.1,7.1-1.6,1.6-3.2,3.1-4.9,4.6-8.3,7.7-17.2,14.9-26.4,21.5l-1.6,1.1c-1.4,1-2.8,1.9-4.3,2.9-3.1,2.1-6.3,4.1-9.8,6-3.4,0-6.9,0-10.3-.3l-15.8-.5-20.6-.9-5.4-.3-13.7-.7c-22.6-1.3-43.8-2.8-63.3-4.5l7.7-2.5c19.7-6.4,39.4-12.4,58.6-18.7,4.9-1.6,9.5-3.2,13.9-4.9,3.8-1.3,7.4-2.9,10.8-4.9,2.2-1.3,4.4-2.7,6.7-4.2,1.2-.8,2.4-1.6,3.6-2.6,3.5-2.5,7.1-5.3,10.6-8.2,7.1-5.8,14-12.2,20.9-18.8l3.7-3.6c2.2-2.1,4.4-4.2,6.5-6.4l9.8-9.8.6-.6c3-3.1,6.6-5.4,10.6-6.9,4-1.5,8.3-2,12.6-1.5,6.2.7,12,3.5,16.4,7.9,4.4,4.4,7.2,10.2,7.9,16.4.4,3.7.1,7.5-.9,11-1,3.6-2.8,6.9-5.1,9.8Z"/>
  <path class="cls-3" d="M848.4,1701.4c-27.5-.6-88.6,67.6-88.6,67.6l50.5,44.7s45-19.7,56.1-51.9c11-32.2-17.9-60.4-17.9-60.4Z"/>
  <path class="cls-12" d="M866.3,1761.8c-5.2,13.1-14,24.4-25.2,32.9-9.5,7.6-19.8,14-30.9,19l-13.5-12-36.9-32.7s61.1-68.3,88.6-67.6c0,0,29.1,27.9,18,60.4Z"/>
  <path class="cls-11" d="M841.2,1794.7c-9.5,7.6-19.8,14-30.9,19l-13.5-12c7.2-21,20-39.7,37.2-53.9,6,11.2,8,35.1,7.2,46.9Z"/>
  <path class="cls-3" d="M1038.1,1730.2c-.3.6-.6,1.2-.8,1.9-.8,1.7-1.5,3.4-2.3,5.2-.4.9-.8,1.8-1.2,2.8-.1.2-.2.4-.2.6-.4.7-.7,1.5-.9,2.3-.8,2-1.6,4-2.4,6-.8,2.1-1.9,5.2-2.8,7.8v.3c-.7,1.9-1.3,3.7-2,5.7s-1.3,3.8-1.9,5.8c0,.2,0,.4,0,.6-.6,1.8-1.2,3.6-1.7,5.3-1.1,3.7-2.3,7.5-3.4,11.3l-.3,1c-2.4,8.4-4.6,16.9-6.7,25.4,0,.2,0,.4,0,.5l-16.6.6-11.5.4c-9.1.2-18.3.5-27.7.6h-15.9c-8.6,0-17.3,0-26.1.3h-23.8c-28.7,0-56.8-.3-83.7-1.1l.7-3.6c0-.8.3-1.5.5-2.3.2-.7.3-1.5.5-2.2,0-.4.2-.7.2-1.1,2.2-9.8,4.5-18.8,6.9-26.9.9-2.8,1.7-5.6,2.5-8.3.3-.8.5-1.7.8-2.5.6-2,1.3-3.9,1.9-5.8l1-3c.5-1.5,1.1-3.1,1.6-4.5.5-1.4,1.2-3.4,1.8-4.9l1.6-4.1,3-7.1c2.3-5.4,4.5-10.1,6.5-14.3.4-.7.7-1.4,1.1-2.1l2.1-4,2.4-4.4c.2-.2.3-.5.4-.7.8-1.5,1.7-2.9,2.4-4.1l1.9-3.1,2.3-3.3c14.6-1.4,29.3-1.9,44-1.4,3.1,0,6.3.2,9.5.4,3.2.2,6.1.5,9.5.9,7,.8,14.8,1.9,23,3.2l15.5,2.7c5.2.9,10.3,1.9,15.2,2.8l2.6.5c3.9.7,7.7,1.5,11.2,2.3,2.4.5,4.9,1,7.2,1.6,1.2.3,2.4.5,3.6.9l3.6.9c4.5,1.1,8.9,2.4,13.1,3.5l4.1,1.2,7.6,2.4,6.7,2.2c7.6,2.5,12.7,4.4,13.4,4.6l-.2.2Z"/>
  <path class="cls-12" d="M1038.2,1730.2c-.3.6-.6,1.2-.8,1.9-.8,1.7-1.6,3.4-2.3,5.2-.5.9-.9,1.8-1.2,2.8,0,.2,0,.4,0,.6-.4.7-.7,1.5-.9,2.3-.8,2-1.6,4-2.4,6-.8,2.1-2,5.2-2.9,7.8v.3c-.7,1.9-1.3,3.7-2,5.7-.6,1.9-1.3,3.8-1.9,5.8v.3c-.6,1.8-1.2,3.5-1.7,5.3-1.1,3.7-2.3,7.5-3.3,11.3l-.3,1c-2.4,8.4-4.6,16.9-6.6,25.4,0,.2,0,.4,0,.6l-16.6.6-11.5.4c-9.1.2-18.3.5-27.7.6h-15.9c-8.6,0-17.3,0-26.1.3h-23.8c-28.7,0-56.8-.3-83.7-1.1l.7-3.6c.3-1.6.6-3.1,1-4.5,0-.4.2-.7.2-1.1,2.2-9.8,4.5-18.8,6.9-26.9.9-2.9,1.7-5.6,2.5-8.3.3-.8.5-1.7.8-2.5.6-2,1.3-3.9,1.9-5.8l1-3c.5-1.5,1.1-3.1,1.6-4.5.5-1.4,1.2-3.4,1.8-4.9l1.6-4.1,3-7.1c2.3-5.4,4.5-10.1,6.5-14.3.4-.7.7-1.4,1.1-2.1l2.1-4,2.4-4.4c.1-.2.3-.5.4-.7l2.4-4.1,1.9-3.1,2.3-3.3c14.6-1.4,29.3-1.9,44-1.4,3.1,0,6.3.2,9.5.4,3.2.2,6.1.5,9.5.9,7,.8,14.8,1.9,23,3.2l15.5,2.7c5.2.9,10.3,1.9,15.2,2.9l2.6.5c3.9.7,7.7,1.5,11.2,2.3,2.4.5,4.9,1,7.2,1.6,1.2.3,2.4.5,3.6.9l3.6.8c4.5,1.1,8.9,2.4,13.1,3.6l4.1,1.2,7.6,2.4,6.7,2.2c7.6,2.5,12.7,4.4,13.4,4.6l-.3.4Z"/>
  <path class="cls-15" d="M949.1,1641.2s1.5,52.4,6.5,60.2c5,7.8,22.9,11.4,22.9,11.4,0,0-43.2,21.5-63.3,17.4-20.2-4-29.9-30.4-29.9-30.4,0,0,14.1.5,17.5-1.4,3.4-1.9-2.7-36.6-2.7-36.6l49-20.6Z"/>
  <path class="cls-20" d="M904.3,1674.9l-1.8,2.5c-1.1-8.1-2.4-15.6-2.4-15.6l48.9-20.6s1.3,42.2,4.9,56.5c-19.8,2.1-42.9-12.6-49.7-22.8Z"/>
  <g id="head">
    <path class="cls-5" d="M932.4,1553.3c13.4,7,32.5,29.5,11.6,37.1-21,7.5-34.6-49-11.6-37.1Z"/>
    <path class="cls-15" d="M872.9,1640.4c10.3,12.5,21.5,24.3,33.5,35.2,8.6,7.3,19.2,11.9,30.5,13.2,39.4,4.9,64.9-37,49-71.6-1.8-4-3.9-7.8-6.2-11.6-17.3-28.5-50.5-58.3-83.4-48.6-8.3,2.5-15.8,7-21.9,13.1-6.1,6.2-10.5,13.8-12.8,22.1-2.3,8.3-2.5,17.1-.5,25.5,2,8.4,6.1,16.2,11.9,22.6Z"/>
    <path class="cls-5" d="M889.1,1638l1.8,5.9c3.5,11.4,8.7,22.1,15.7,31.8,8.6,7.3,19.2,11.9,30.5,13.2,39.4,4.9,64.9-37,49-71.6-1.8-4-3.9-7.8-6.2-11.6,0,0,3,13.9.4,20.3,0,0-14.8-3.8-22,2.3,0,0-15.7-4.3-28.9,12.3-6.1,4-13.3,5.9-20.5,5.4-7.2-.5-14.1-3.3-19.6-8Z"/>
    <path class="cls-9" d="M889.1,1638l1.8,5.9c3.5,11.4,8.7,22.1,15.7,31.8,8.6,7.3,19.2,11.9,30.5,13.2,39.4,4.9,64.9-37,49-71.6-1.8-4-3.9-7.8-6.2-11.6,0,0,3,13.9.4,20.3,0,0-14.8-3.8-22,2.3,0,0-15.7-4.3-28.9,12.3-6.1,4-13.3,5.9-20.5,5.4-7.2-.5-14.1-3.3-19.6-8Z"/>
    <path class="cls-5" d="M831.8,1622c-17.9-15-.9-36.7,17.8-44.3,2-.8,3.7-2.2,4.9-4l22.2,34.1c-2,.9-4,1.9-6,2.6,0,0,25.9,22.9,23.4,45.8-36.2,10.2-71.2-8.4-62.4-34.2Z"/>
    <path class="cls-15" d="M880.7,1673.5c3.8,2.6,8.1,4.4,12.6,5.3,4.5.9,9.1.9,13.6,0,.9-.2,1.7-.4,2.6-.7,7.5-7-14.8-31.8-15.8-33.1-2.4-.7-4.9-.9-7.4-.6-2.5.3-4.8,1.2-6.9,2.5-2.1,1.6-3.8,3.6-4.9,6-1.1,2.4-1.7,5-1.5,7.6.1,2.6.9,5.2,2.3,7.4,1.4,2.3,3.2,4.1,5.5,5.5Z"/>
    <path class="cls-5" d="M923.2,1613.4c1.8,2.4,4.6,3.3,6.2,2.1s1.3-4.2-.6-6.6c-1.9-2.4-4.6-3.3-6.2-2.1s-1.3,4.2.6,6.5Z"/>
    <path class="cls-5" d="M949.9,1592.1c1.8,2.4,4.6,3.3,6.2,2.1,1.6-1.2,1.3-4.1-.6-6.5-1.9-2.4-4.6-3.3-6.2-2s-1.4,4.2.6,6.5Z"/>
    <path class="cls-10" d="M942.2,1600.1c8.4,4.7,17.4,8.2,26.8,10.4-1.2,7-9.8,10.9-9.8,10.9l-16.9-21.3Z"/>
    <path class="cls-5" d="M912.6,1595.1c-.3.2-.5.4-.7.6-.2.3-.2.6-.2.9,0,2.2-.5,4.4-1.4,6.4-1,2-2.4,3.8-4.2,5.1-.4.3-.6.7-.7,1.1-.1.5,0,.9.2,1.3.1.2.3.4.5.5.2.1.4.2.6.3.2,0,.5,0,.7,0,.2,0,.5-.1.6-.2,2.3-1.7,4.1-3.9,5.4-6.5,1.3-2.6,1.9-5.4,1.8-8.3,0-.5-.2-.9-.5-1.2-.3-.3-.8-.5-1.2-.5-.3,0-.6.2-.9.4Z"/>
    <path class="cls-5" d="M954.1,1572.9c.3-.2.5-.5.6-.8.2-.4.1-.9,0-1.4-.2-.4-.5-.8-1-.9-2.6-1-5.4-1.4-8.2-1.1-2.8.3-5.5,1.3-7.8,2.9-.3.3-.5.7-.5,1.1,0,.4,0,.8.4,1.2.3.3.6.6,1.1.7.4,0,.9,0,1.2-.2,1.9-1.2,4-2,6.2-2.2,2.2-.2,4.4,0,6.5.9.3,0,.6.1.8,0,.3,0,.6-.1.8-.3Z"/>
    <path class="cls-5" d="M959,1653.8c1-.4,1.9-.8,2.8-1.3l2.4-19.4h-3c-6.1,0-19.7,1.4-23.3,8.4-.4.8-.7,1.6-.9,2.5-.9,3.1-.7,6.5.6,9.4,2.2,4.1,8.1,6.3,21.4.3Z"/>
    <path class="cls-17" d="M937,1643.9l23.7-8.6.6-2.3c-6.1,0-19.7,1.4-23.3,8.4-.4.8-.7,1.6-.9,2.5Z"/>
    <path class="cls-1" d="M959,1653.8c-4.1-6.9-15.2-3.3-21.4-.3,2.2,4.1,8.1,6.2,21.4.3Z"/>
    <path class="cls-5" d="M831.8,1622c-7.3-5.6-17.9-20.7-3.6-36.5,14.3-15.8,31.2-23.5,23.2-34.9-8-11.4,6.2-21.1,16.1-13.7,0,0,23.4-38.2,40-8.8,0,0,16.3-11.2,26.3.8,10,12.1,12.1,25-1.1,29.5-13.1,4.6-14.4,6-12.1,13.6,2.3,7.6-9.2,13.9-9.2,13.9,0,0,7.1-4.5,3.1-9.8-.7,3.4-2.4,6.5-4.8,8.9-2.4,2.4-5.5,4.1-8.9,4.8-12.7,4-6.8,16.4-6.8,16.4,0,0-6.8,2.7-8.3-7.1,0,0-5.3,21.8-19.7,27.2-14.4,5.4-23.2,4.1-34.1-4.3Z"/>
  </g>
  <path class="cls-11" d="M1017.7,1786.9c-2.4,8.4-4.6,16.9-6.6,25.4,0,.2,0,.4,0,.5l-16.6.6-11.5.4c-9.1.2-18.3.5-27.7.6h-15.9c6-11.2,14.4-21,24.6-28.5,1.8-1.4,3.7-2.7,5.7-3.8,4.1-2.2,8.5-3.8,13.1-4.6,12.4-1.6,24.9,1.8,34.8,9.2Z"/>
  <path class="cls-19" d="M1050.8,1770.6c-.2,4.8-1.8,9.5-4.4,13.5-6.2,9.8-12.6,19-19.2,28l-16.1.7-16.6.6-11.5.4c-9.1.2-18.3.5-27.7.6.5-.6,1-1.2,1.5-1.8,8.9-11.2,17.7-22.9,26.2-34.8,2.4-3.3,4.9-6.6,7.1-9.8,3.4-4.9,6.6-9.4,9.8-14.1l.3-.5c3.5-5.1,8.6-8.8,14.4-10.7,5.9-1.9,12.2-1.7,17.9.4,2.2.8,4.3,1.9,6.2,3.2,3.9,2.7,7,6.3,9.1,10.5,2.1,4.2,3.1,8.9,2.8,13.6Z"/>
  <path class="cls-3" d="M1053.6,1770.8c-2.6,14.7-8.3,28.6-16.7,40.9l-9.8.5-16.1.7-16.6.6-11.5.4c-9.1.2-18.3.5-27.7.6h-9.7c5.5-8.3,12.2-18.6,18.6-28.4,4.3-6.8,8.5-13.3,11.8-18.8l3.5-5.8c5.5-9.5,13.4-17.4,22.8-22.9,10.9-6.2,23.3-9.1,35.8-8.6,4.2,2.7,7.7,6.4,10.3,10.6,5.3,9.1,7.2,19.7,5.3,30Z"/>
  <path class="cls-12" d="M1053.6,1770.8c-2.6,14.7-8.3,28.6-16.7,40.9l-9.8.5-16.1.7-16.6.6-11.5.4c-9.1.2-18.3.5-27.7.6h-9.7c5.5-8.3,12.2-18.6,18.6-28.4,4.3-6.8,8.5-13.3,11.8-18.8l3.5-5.8c5.5-9.5,13.4-17.4,22.8-22.9,10.9-6.2,23.3-9.1,35.8-8.6,4.2,2.7,7.7,6.4,10.3,10.6,5.3,9.1,7.2,19.7,5.3,30Z"/>
  <path class="cls-4" d="M9.2,1571.9h-2212.2v1.1H9.2v-1.1Z"/>
</svg>