<?xml version="1.0" encoding="UTF-8"?>
<svg id="Layer_1" xmlns="http://www.w3.org/2000/svg" version="1.1" viewBox="0 0 2284 1701">
  <!-- Generator: Adobe Illustrator 29.0.0, SVG Export Plug-In . SVG Version: 2.1.0 Build 186)  -->
  <defs>
    <style>
      .st0 {
        fill: #e0e0e0;
      }

      .st1, .st2 {
        fill: #407bff;
      }

      .st3, .st4, .st5, .st6, .st7, .st2, .st8, .st9, .st10, .st11, .st12 {
        isolation: isolate;
      }

      .st3, .st2, .st9 {
        opacity: .3;
      }

      .st4 {
        opacity: .1;
      }

      .st5, .st12 {
        opacity: .4;
      }

      .st6, .st11 {
        opacity: .6;
      }

      .st7, .st13, .st10 {
        opacity: .2;
      }

      .st14 {
        fill: #e6e6e6;
      }

      .st15 {
        fill: #b97964;
      }

      .st16 {
        fill: #ebebeb;
      }

      .st17 {
        fill: #a24e3f;
      }

      .st18 {
        fill: #263238;
      }

      .st19 {
        fill: #e4897b;
      }

      .st20, .st8, .st9, .st10, .st11, .st12 {
        fill: #fff;
      }

      .st21 {
        fill: #f0f0f0;
      }

      .st22 {
        fill: #fafafa;
      }

      .st23 {
        fill: #eec1bb;
      }

      .st24, .st8 {
        opacity: .7;
      }

      .st25 {
        opacity: .5;
      }

      .st26 {
        fill: #ebb376;
      }

      .st27 {
        fill: #f5f5f5;
      }

      .st28 {
        fill: #d4827d;
      }

      .st29 {
        fill: #de5753;
      }

      .st30 {
        fill: #d58745;
      }

#character {
  animation: bounce 1s ease-in-out infinite;
}

@keyframes bounce {
  0%, 100% {
    transform: translateY(0);
  }
  50% {
    transform: translateY(-5px);
  }
}

/* Speech bubble appears after character bounce */
#speech-bubble {
  opacity: 0;
  animation: fadeIn 2s ease-in-out forwards;
  animation-delay: 2s; /* Appears after the character bounces */
}

@keyframes fadeIn {
  0% {
    opacity: 0;
  }
  100% {
    opacity: 1;
  }
}

/* Friends appear one after another */
#friend1, #friend2, #friend3, #friend4 {
  opacity: 0;
  animation: fadeIn 2s ease-in-out forwards;
}

#friend1 {
  animation-delay: 3s; /* Appears after the speech bubble */
}

#friend2 {
  animation-delay: 4s; /* Appears after friend1 */
}

#friend3 {
  animation-delay: 5s; /* Appears after friend2 */
}

#friend4 {
  animation-delay: 6s; /* Appears after friend3 */
}

/* Device shake animation */
#device {
  animation: shake 0.5s ease-in-out forwards;
  animation-delay: 7s; /* Shakes after all friends appear */
}

@keyframes shake {
  0%, 100% {
    transform: translateX(0);
  }
  25%, 75% {
    transform: translateX(-5px);
  }
  50% {
    transform: translateX(5px);
  }
}
    </style>
  </defs>
  <g id="background">
    <path id="Vector" class="st16" d="M2283.6,1494.8H.8v1.1h2282.9v-1.1Z"/>
    <path id="Vector_2" class="st16" d="M2054.9,1568.3h-151.2v1.1h151.2v-1.1Z"/>
    <path id="Vector_3" class="st16" d="M1513,1580.7h-39.7v1.1h39.7v-1.1Z"/>
    <path id="Vector_4" class="st16" d="M1899.1,1525.9h-87.6v1.1h87.6v-1.1Z"/>
    <path id="Vector_5" class="st16" d="M437.5,1533.6h-197.2v1.2h197.2v-1.2Z"/>
    <path id="Vector_6" class="st16" d="M507.1,1533.6h-28.9v1.2h28.9v-1.2Z"/>
    <path id="Vector_7" class="st16" d="M1028.8,1552.8h-427.7v1.1h427.7v-1.1Z"/>
    <path id="Vector_8" class="st16" d="M1082.9,1291.2H201.3c-6.9,0-13.5-2.8-18.4-7.7-4.9-4.9-7.6-11.5-7.6-18.4V25.8c0-6.9,2.8-13.4,7.7-18.3C187.8,2.7,194.4,0,201.3,0h881.6c6.9,0,13.5,2.7,18.4,7.6,4.9,4.9,7.6,11.5,7.6,18.4v1239c0,6.9-2.8,13.6-7.6,18.4-4.9,4.9-11.5,7.6-18.4,7.6ZM201.3.9c-6.6,0-12.9,2.6-17.6,7.3-4.7,4.7-7.3,11-7.3,17.6v1239.3c0,6.6,2.6,12.9,7.3,17.6,4.7,4.7,11,7.3,17.6,7.3h881.6c6.6,0,12.9-2.6,17.6-7.3,4.7-4.7,7.3-11,7.3-17.6V25.8c0-6.6-2.6-12.9-7.3-17.6-4.7-4.7-11-7.3-17.6-7.3H201.3Z"/>
    <path id="Vector_9" class="st16" d="M2070.5,1291.2h-881.6c-6.9,0-13.5-2.8-18.4-7.7s-7.6-11.5-7.6-18.4V25.8c0-6.9,2.8-13.4,7.7-18.3,4.9-4.8,11.5-7.6,18.3-7.6h881.6c6.9,0,13.4,2.7,18.3,7.6,4.9,4.8,7.6,11.4,7.7,18.3v1239.3c0,6.9-2.7,13.5-7.6,18.4-4.9,4.9-11.5,7.7-18.4,7.7ZM1188.8.9c-6.6,0-12.9,2.6-17.6,7.3-4.7,4.7-7.3,11-7.3,17.6v1239.3c0,6.6,2.6,12.9,7.3,17.6,4.7,4.7,11,7.3,17.6,7.3h881.6c6.6,0,12.9-2.6,17.6-7.3,4.7-4.7,7.3-11,7.3-17.6V25.8c0-6.6-2.6-12.9-7.3-17.6-4.7-4.7-11-7.3-17.6-7.3h-881.6Z"/>
    <path id="Vector_10" class="st0" d="M453.7,961.6c0-1,3.4-98.9,19.3-114.5,15.9-15.5,33.3-.5,34,0l1.6-1.9s-20.3-16.6-37.3,0c-17.1,16.6-19.9,112.1-20,116.2l2.5.2Z"/>
    <path id="Vector_11" class="st0" d="M452.3,980.9c0-1.2,10.9-117.6-31.6-166.4l-1.9,1.6c41.8,48,31.1,163.4,31,164.4l2.5.5Z"/>
    <path id="Vector_12" class="st0" d="M453.9,968.6h2.5c0-1.3-8.3-132.4,22.8-161.1l-1.7-1.8c-32,29.3-24,157.7-23.6,162.9Z"/>
    <path id="Vector_13" class="st0" d="M449.8,968.5h2.5c0-3.6-1-88.5-25.2-102.4-2.3-1.5-4.9-2.4-7.6-2.6-2.7-.3-5.5.1-8,1.1-14.6,6-21.8,32-22.1,33.1l2.4.6c0-.3,7.2-25.9,20.7-31.5,2.2-.9,4.5-1.2,6.9-.9,2.3.2,4.6,1,6.5,2.3,22.9,13.1,23.9,99.3,23.9,100.2Z"/>
    <path id="Vector_14" class="st0" d="M459.2,968.6h2.5c0-.7-3.7-67.1,14.3-90.5,1.5-2.4,3.5-4.4,6-5.8,2.5-1.4,5.2-2.2,8.1-2.2,11.7.8,21.6,18,21.7,18.3l2.2-1.2c-.5-.8-10.6-18.5-23.7-19.5-3.3,0-6.5.8-9.3,2.4-2.8,1.6-5.2,3.9-6.9,6.7-18.5,23.8-15,89.1-14.8,91.9Z"/>
    <path id="Vector_15" class="st0" d="M455.3,977.6c.5-6.4,11.7-158.2-8.1-184.9l-2,1.5c19.2,26,7.7,181.6,7.6,183.2l2.5.2Z"/>
    <path id="Vector_16" class="st16" d="M406.2,880s11.9,4.3,8.4,14.7c-3.5,10.3-41.1,27.4-41.1,27.4,0,0-15.7-14.4-1.3-37.8,14.4-23.4,33.7-11.6,34-4.2Z"/>
    <path id="Vector_17" class="st16" d="M457.7,860.3s-12.6-.5-13.3,10.4c-.7,10.9,27.4,41.1,27.4,41.1,0,0,20-7.3,15.7-34.4-4.3-27.2-26.6-23.6-29.8-17Z"/>
    <path id="Vector_18" class="st16" d="M468.4,808.1s-8.4-.9-7.7-6c.7-5.2,32.7-18.3,51.6,3,0,0-12.1,20.8-29.6,21.1-17.5.3-14.3-18.1-14.3-18.1Z"/>
    <path id="Vector_19" class="st16" d="M452.8,795.8s7.6,3.7,9.7-1c2.1-4.7-18.3-32.8-45.4-24.7,0,0-.7,24.1,14,33.6,14.7,9.5,21.7-7.8,21.7-7.8Z"/>
    <path id="Vector_20" class="st16" d="M492.6,875.8s-5.8-4.6.5-7c6.3-2.4,37-1.6,37.3,28.8,0,0-35.8,6-40.3-5.6-4.4-11.6,2.5-16.2,2.5-16.2Z"/>
    <path id="Vector_21" class="st16" d="M419.5,807.5s5.8-4.6-.5-7c-6.3-2.4-37-1.6-37.3,28.8,0,0,35.8,6,40.3-5.6,4.4-11.6-2.5-16.2-2.5-16.2Z"/>
    <path id="Vector_22" class="st16" d="M438.5,832s.5-5.7-4.1-3.5c-4.6,2.2-20.6,19.5-4,36,0,0,22.4-16.6,18.3-25.2-4.1-8.6-10.2-7.3-10.2-7.3Z"/>
    <path id="Vector_23" class="st16" d="M497.8,840.1s-3.5-4.6,1.6-5.1c5.1-.5,27.9,5.5,22.6,28.3,0,0-27.8-2.1-28.9-11.6-1.2-9.5,4.7-11.6,4.7-11.6Z"/>
    <path id="Vector_24" class="st21" d="M404,1052.9h95.2l10.3-104.3h-115.8l10.3,104.3Z"/>
    <path id="Vector_25" class="st14" d="M388.6,960.1h126v-23h-126v23Z"/>
    <path id="Vector_26" class="st27" d="M1526.4,1468.2h-89.5l47-456.6c2-19.3,16.8-35,33-35h390.4l-57.2,491.6h-323.8Z"/>
    <path id="Vector_27" class="st21" d="M1810.2,1468.2h89.5l47-456.6c2-19.3-9.5-35-25.8-35h-30.8c-16.2,0-31,15.7-33,35l-47,456.6Z"/>
    <path id="Vector_28" class="st14" d="M1777.2,1467.7l16.2-220.9c0-4.4,1.6-8.7,4.4-12.2,2.8-3.5,6.6-5.9,11-6.9l6.7-1c11.1-1.7,19.6-12.3,20.6-25.6l2.9-40.3c1.2-16.5-9.7-30.7-23.6-30.7h149.6c13.7,0,24.8,14.2,23.6,30.7l-3,40.3c-1,13.2-9.5,23.9-20.6,25.6l-6.7,1c-4.3,1-8.2,3.4-11,6.9-2.8,3.5-4.3,7.8-4.4,12.2l-16.2,220.9c-1.2,16.1-12.5,28.5-26,28.5h-149.6c13.6,0,24.9-12.3,26.1-28.5Z"/>
    <path id="Vector_29" class="st14" d="M1365.7,1191.7c-2.6-34.7-26.9-61.3-56.1-61.3h130.2c29.2,0,53.6,26.6,56.2,61.3l12.8,175.1h-130.2l-12.9-175.1Z"/>
    <path id="Vector_30" class="st21" d="M1251.8,1130.1h57.8c29.2,0,53.6,26.6,56.1,61.3l12.9,175.1h310.1l12.8-174.9c2.5-34.7,26.9-61.3,56.1-61.3h57.8c13.9,0,24.8,14.2,23.6,30.7l-2.9,40.3c-1,13.2-9.5,23.9-20.6,25.6l-6.7,1c-4.3,1-8.2,3.4-11,6.9-2.8,3.5-4.3,7.8-4.4,12.2l-16.2,220.9c-1.2,16.1-12.5,28.5-26.1,28.5h-435.2c-13.7,0-24.8-12.4-26-28.5l-16.2-220.9c0-4.4-1.6-8.7-4.4-12.2-2.8-3.5-6.7-5.9-11-6.9l-6.7-1c-11.1-1.7-19.6-12.3-20.6-25.6l-3-40.3c-1.2-16.7,9.7-31,23.7-31Z"/>
    <path id="Vector_31" class="st14" d="M391,1447.8h346.1v-372.5h-346.1v372.5Z"/>
    <path id="Vector_32" class="st14" d="M338.2,1496.1h43.5v-448.6h-43.5v448.6Z"/>
    <path id="Vector_33" class="st22" d="M653.7,1243.8h28.4v-139.2h-28.4v139.2Z"/>
    <path id="Vector_34" class="st27" d="M536.1,1243.8h28.4v-139.2h-28.4v139.2Z"/>
    <path id="Vector_35" class="st27" d="M625.4,1243.8h28.4v-129.4h-28.4v129.4Z"/>
    <path id="Vector_36" class="st22" d="M564.5,1243.8h28.4v-129.4h-28.4v129.4Z"/>
    <path id="Vector_37" class="st16" d="M592.9,1243.8h18.3v-139.2h-18.3v139.2Z"/>
    <path id="Vector_38" class="st22" d="M611.1,1243.8h14.2v-129.4h-14.2v129.4Z"/>
    <path id="Vector_39" class="st16" d="M507.8,1243.8h28.4v-139.2h-28.4v139.2Z"/>
    <path id="Vector_40" class="st14" d="M479.4,1243.8h28.4v-129.4h-28.4v129.4Z"/>
    <path id="Vector_41" class="st14" d="M418.5,1243.8h28.4v-129.4h-28.4v129.4Z"/>
    <path id="Vector_42" class="st22" d="M446.9,1243.8h18.3v-139.2h-18.3v139.2Z"/>
    <path id="Vector_43" class="st16" d="M465.2,1243.8h14.2v-129.4h-14.2v129.4Z"/>
    <path id="Vector_44" class="st22" d="M404.3,1243.8h14.2v-135.9h-14.2v135.9Z"/>
    <path id="Vector_45" class="st22" d="M432.7,1291.2h-28.4v139.2h28.4v-139.2Z"/>
    <path id="Vector_46" class="st22" d="M550.3,1291.2h-28.4v139.2h28.4v-139.2Z"/>
    <path id="Vector_47" class="st21" d="M461.1,1301h-28.4v129.4h28.4v-129.4Z"/>
    <path id="Vector_48" class="st16" d="M521.9,1301h-28.4v129.4h28.4v-129.4Z"/>
    <path id="Vector_49" class="st22" d="M493.6,1291.2h-18.3v139.2h18.3v-139.2Z"/>
    <path id="Vector_50" class="st27" d="M475.3,1301h-14.2v129.4h14.2v-129.4Z"/>
    <path id="Vector_51" class="st16" d="M578.7,1291.2h-28.4v139.2h28.4v-139.2Z"/>
    <path id="Vector_52" class="st27" d="M607,1301h-28.4v129.4h28.4v-129.4Z"/>
    <path id="Vector_53" class="st14" d="M667.9,1301h-28.4v129.4h28.4v-129.4Z"/>
    <path id="Vector_54" class="st22" d="M639.5,1291.2h-18.3v139.2h18.3v-139.2Z"/>
    <path id="Vector_55" class="st22" d="M700.4,1291.2h-18.3v139.2h18.3v-139.2Z"/>
    <path id="Vector_56" class="st16" d="M621.2,1301h-14.2v129.4h14.2v-129.4Z"/>
    <path id="Vector_57" class="st21" d="M682.1,1294.5h-14.2v135.9h14.2v-135.9Z"/>
    <path id="Vector_58" class="st21" d="M381.2,1047.6v448.6h23.2v-25.2h343.7v-423.4h-366.9ZM404.4,1267.2h321.8v163.2h-321.8v-163.2ZM404.4,1088.2h321.8v155.8h-321.8v-155.8Z"/>
    <path id="Vector_59" class="st14" d="M1083.9,1075.3h-346.1v372.5h346.1v-372.5Z"/>
    <path id="Vector_60" class="st14" d="M1070.5,1466.4h-43.5v29.7h43.5v-29.7Z"/>
    <path id="Vector_61" class="st22" d="M777.7,1104.6h-28.4v139.2h28.4v-139.2Z"/>
    <path id="Vector_62" class="st27" d="M895.3,1104.6h-28.4v139.2h28.4v-139.2Z"/>
    <path id="Vector_63" class="st27" d="M806.1,1114.3h-28.4v129.4h28.4v-129.4Z"/>
    <path id="Vector_64" class="st22" d="M866.9,1114.3h-28.4v129.4h28.4v-129.4Z"/>
    <path id="Vector_65" class="st16" d="M838.6,1104.6h-18.3v139.2h18.3v-139.2Z"/>
    <path id="Vector_66" class="st22" d="M820.3,1114.3h-14.2v129.4h14.2v-129.4Z"/>
    <path id="Vector_67" class="st16" d="M905,1104.6h-28.4v139.2h28.4v-139.2Z"/>
    <path id="Vector_68" class="st14" d="M933.3,1114.3h-28.4v129.4h28.4v-129.4Z"/>
    <path id="Vector_69" class="st14" d="M994.2,1114.3h-28.4v129.4h28.4v-129.4Z"/>
    <path id="Vector_70" class="st22" d="M965.8,1104.6h-18.3v139.2h18.3v-139.2Z"/>
    <path id="Vector_71" class="st16" d="M947.5,1114.3h-14.2v129.4h14.2v-129.4Z"/>
    <path id="Vector_72" class="st27" d="M1008.4,1107.9h-14.2v135.9h14.2v-135.9Z"/>
    <path id="Vector_73" class="st22" d="M993.3,1430.3h28.3v-139.2h-28.3v139.2Z"/>
    <path id="Vector_74" class="st22" d="M875.8,1430.3h28.4v-139.2h-28.4v139.2Z"/>
    <path id="Vector_75" class="st27" d="M965,1430.4h28.4v-129.4h-28.4v129.4Z"/>
    <path id="Vector_76" class="st16" d="M904.2,1430.4h28.4v-129.4h-28.4v129.4Z"/>
    <path id="Vector_77" class="st22" d="M932.5,1430.3h18.3v-139.2h-18.3v139.2Z"/>
    <path id="Vector_78" class="st27" d="M950.8,1430.4h14.2v-129.4h-14.2v129.4Z"/>
    <path id="Vector_79" class="st16" d="M866.1,1430.3h28.4v-139.2h-28.4v139.2Z"/>
    <path id="Vector_80" class="st27" d="M837.7,1430.4h28.4v-129.4h-28.4v129.4Z"/>
    <path id="Vector_81" class="st14" d="M776.9,1430.4h28.4v-129.4h-28.4v129.4Z"/>
    <path id="Vector_82" class="st22" d="M805.2,1430.3h18.3v-139.2h-18.3v139.2Z"/>
    <path id="Vector_83" class="st22" d="M748.1,1430.3h18.3v-139.2h-18.3v139.2Z"/>
    <path id="Vector_84" class="st16" d="M823.5,1430.4h14.2v-129.4h-14.2v129.4Z"/>
    <path id="Vector_85" class="st16" d="M762.7,1430.4h14.2v-135.9h-14.2v135.9Z"/>
    <path id="Vector_86" class="st21" d="M1082.1,1047.6h-355.3v423.4h343.7v25.2h23.2v-448.6h-11.6ZM1070.5,1430.4h-321.8v-163.2h321.8v163.2ZM1070.5,1243.9h-321.8v-155.8h321.8v155.8Z"/>
    <path id="Vector_87" class="st0" d="M1399.1,755.3h512.2V188.7h-512.2v566.5Z"/>
    <path id="Vector_88" class="st21" d="M1382.7,755.3h531.3V188.7h-531.3v566.5Z"/>
    <path id="Vector_89" class="st20" d="M1405.2,729.2h487.2V206.8h-487.2v522.4Z"/>
    <path id="Vector_90" class="st0" d="M1405.2,729.2h14.1V206.8h-14.1v522.4Z"/>
    <path id="Vector_91" class="st0" d="M1417.8,582.5v14.1h475.8v-14.1h-475.8Z"/>
    <path id="Vector_92" class="st21" d="M1405.2,582.5h494.7v-23.7h-494.7v23.7Z"/>
    <path id="Vector_93" class="st0" d="M577,353.4v-141.6h-200.3v141.6h200.3Z"/>
    <path id="Vector_94" class="st16" d="M567.5,344.2v-123.1h-181.5v123.1h181.5Z"/>
    <path id="Vector_95" class="st0" d="M646.4,531.3v-141.6h-200.3v141.6h200.3Z"/>
    <path id="Vector_96" class="st16" d="M637,522v-123.1h-181.5v123.1h181.5Z"/>
    <path id="Vector_97" class="st0" d="M742.4,173.1h-127.5v180.3h127.5v-180.3Z"/>
    <path id="Vector_98" class="st16" d="M734.1,181.6h-110.9v163.4h110.9v-163.4Z"/>
    <path id="Vector_99" class="st0" d="M814.9,389.7h-141.5v200.3h141.5v-200.3Z"/>
    <path id="Vector_100" class="st16" d="M805.7,399.1h-123.1v181.5h123.1v-181.5Z"/>
    <path id="Vector_101" class="st0" d="M785.7,242.6v110.9h156.8v-110.9h-156.8Z"/>
    <path id="Vector_102" class="st16" d="M793,249.8v96.4h142.1v-96.4h-142.1Z"/>
  </g>
  <g id="shadow">
    <path id="path" class="st27" d="M1142.2,1701c488.9,0,885.2-23.1,885.2-51.7s-396.3-51.7-885.2-51.7-885.2,23.1-885.2,51.7,396.3,51.7,885.2,51.7Z"/>
  </g>
  <g id="plant">
    <path id="Vector_103" class="st18" d="M1789.4,1559.5s6.2-45.3,35.1-50.2c28.9-4.9,20.2-26.8,27.8-35.3,7.5-8.5,27.4,16.5,10.4,40.8-17,24.2-3.1,16.6-10.4,39.1-7.3,22.6-65.5,43.2-62.9,5.7Z"/>
    <path id="Vector_104" class="st10" d="M1789.4,1559.5s6.2-45.3,35.1-50.2c28.9-4.9,20.2-26.8,27.8-35.3,7.5-8.5,27.4,16.5,10.4,40.8-17,24.2-3.1,16.6-10.4,39.1-7.3,22.6-65.5,43.2-62.9,5.7Z"/>
    <path id="Vector_105" class="st18" d="M1799,1590.7h-.8c-.3,0-.5-.3-.8-.5-.2-.2-.4-.5-.5-.7-.1-.3-.2-.6-.2-.9,0-.3,0-.6.2-.9,0-.4,17.9-48,.7-120.5-5.4-20.8-12.9-41-22.5-60.3-16.7-36.5-31.2-67.7-9.7-126.3,6.6-18.3,13.5-35,20.1-51.3,24.5-60.5,43.9-107.9,23.3-151.8-.2-.6-.3-1.2,0-1.8.2-.6.6-1,1.2-1.3.3-.1.6-.2.9-.2.3,0,.6,0,.9.1.3.1.5.3.8.5.2.2.4.4.5.7,21.2,45.7,1.6,94.1-23.4,155.2-6.6,16.3-13.5,33.2-20.1,51.2-20.8,56.8-7.3,85.9,9.6,122.8,9.7,19.5,17.3,40,22.8,61.1,17.6,74,0,121.2-.9,123.3-.2.4-.4.8-.8,1-.3.3-.8.4-1.2.4Z"/>
    <path id="Vector_106" class="st18" d="M1807.3,1579.7s18.7-28.2-8.3-42.7c-27-14.5-32.4-2.8-49.1-13.2-16.7-10.4-29.4-35.3-32.4-19.4s16.4,25.3,9.6,32.7c-6.8,7.4,45.6,55.4,80.2,42.6Z"/>
    <path id="Vector_107" class="st18" d="M1820.9,1099.4s13.7-56.7-27.7-54.5c-41.4,2.2,8.3,50.1,27.7,54.5Z"/>
    <path id="Vector_108" class="st18" d="M1788.4,1144.7s-16.3-49.2-44.8-36.5c-28.5,12.7,15.7,39.8,44.8,36.5Z"/>
    <path id="Vector_109" class="st18" d="M1838.5,1145.1s-7.6-39.7,23.4-43c31-3.3,19.9,33-23.4,43Z"/>
    <path id="Vector_110" class="st18" d="M1824.3,1228.5s38.8-40.6,56-14.1c17.2,26.5-28.8,36-56,14.1Z"/>
    <path id="Vector_111" class="st18" d="M1749.9,1227.8s-12.8-61.2-45-39.1c-32.2,22.1,16.1,47.6,45,39.1Z"/>
    <path id="Vector_112" class="st18" d="M1727.3,1318.8s19.9-64.5-25.8-53.7-8.1,41.2,25.8,53.7Z"/>
    <path id="Vector_113" class="st18" d="M1800.1,1335.4s35.4-49.2,66.4-37c31,12.2,10.3,59.9-66.4,37Z"/>
    <path id="Vector_114" class="st18" d="M1772.8,1440.2s-39.3-71.3-66.9-44c-27.6,27.3,23.9,60.7,66.9,44Z"/>
    <path id="Vector_115" class="st18" d="M1820.9,1432s-13.4-56.7,20-54.8c33.3,1.9,27.3,38.1-20,54.8Z"/>
    <g id="Group" class="st13">
      <path id="Vector_116" class="st20" d="M1820.9,1099.4s13.7-56.7-27.7-54.5c-41.4,2.1,8.3,50.1,27.7,54.5Z"/>
      <path id="Vector_117" class="st20" d="M1788.4,1144.7s-16.3-49.2-44.8-36.5c-28.5,12.7,15.7,39.8,44.8,36.5Z"/>
      <path id="Vector_118" class="st20" d="M1838.5,1145.1s-7.6-39.7,23.4-43c31-3.3,19.9,33-23.4,43Z"/>
      <path id="Vector_119" class="st20" d="M1824.3,1228.5s38.8-40.6,56-14.1c17.2,26.5-28.8,36-56,14.1Z"/>
      <path id="Vector_120" class="st20" d="M1749.9,1227.8s-12.8-61.2-45-39.1c-32.2,22.1,16.1,47.6,45,39.1Z"/>
      <path id="Vector_121" class="st20" d="M1727.3,1318.8s19.9-64.5-25.9-53.7-8.1,41.2,25.9,53.7Z"/>
      <path id="Vector_122" class="st20" d="M1800.1,1335.4s35.4-49.2,66.4-37c31,12.2,10.3,59.9-66.4,37Z"/>
      <path id="Vector_123" class="st20" d="M1772.8,1440.2s-39.3-71.3-66.9-44c-27.6,27.3,23.9,60.7,66.9,44Z"/>
      <path id="Vector_124" class="st20" d="M1820.9,1432s-13.4-56.7,20-54.8c33.3,1.9,27.3,38.1-20,54.8Z"/>
    </g>
    <path id="Vector_125" class="st18" d="M1808.8,1176.8h-.5c-.3,0-.6-.2-.8-.4-.2-.2-.5-.4-.6-.6,0-.3-18.3-29.3-30.8-35.5-.3-.1-.6-.3-.8-.5-.2-.2-.4-.5-.5-.8-.1-.3-.2-.6-.2-.9,0-.3,0-.6.2-.9.1-.3.3-.5.6-.8.2-.2.5-.3.9-.4.3,0,.6,0,1,0,.3,0,.6.2.9.3,11.7,5.8,26.9,28.2,31.4,35.1,14.6-11.3,26.9-25.2,36.2-41.1.3-.5.8-.9,1.4-1.1.6-.2,1.2,0,1.8.2.5.3.9.8,1.1,1.4.2.6,0,1.2-.2,1.7-.7,1.2-16.2,28.5-39.6,44.2-.4.2-.8.2-1.3.1Z"/>
    <path id="Vector_126" class="st18" d="M1777.2,1256.6h-.3c-.3,0-.6-.1-.9-.3-.3-.2-.5-.4-.7-.7-.2-.3-22.6-31.7-49-44.6-.3-.1-.5-.3-.7-.5-.2-.2-.4-.5-.5-.8,0-.3-.1-.6-.1-.9,0-.3,0-.6.2-.8.1-.3.3-.5.5-.7.2-.2.5-.4.8-.5.3,0,.6-.2.9-.1.3,0,.6,0,.9.2,23.8,11.6,43.7,36.5,49.2,44.1,33.6-28.5,76.6-30.9,78.5-31,.3,0,.6,0,.9.1.3,0,.6.2.8.5.2.2.4.4.5.7.1.3.2.6.2.9,0,.3,0,.6-.1.9s-.2.5-.4.8c-.2.2-.4.4-.7.5-.3.1-.6.2-.9.2-.5,0-45,2.5-77.6,31.5-.4.3-.9.5-1.4.6Z"/>
    <path id="Vector_127" class="st18" d="M1761.2,1359.9c-.5,0-.9-.1-1.3-.4-26.6-18-49.7-66.3-50.7-68.5-.2-.5-.2-1.1,0-1.7.2-.5.6-1,1.1-1.2.5-.2,1.1-.3,1.7-.1.5.2,1,.5,1.3,1,.2.5,22.8,47.6,47.9,65.7,8.2-5.6,51.6-33.7,86.4-37.2.3,0,.6,0,.9,0,.3,0,.6.2.8.4.2.2.4.4.6.7.1.3.2.6.3.9,0,.3,0,.6,0,.9,0,.3-.2.6-.4.8-.2.2-.4.4-.7.6-.3.1-.6.2-.9.3-36.5,3.7-85.1,36.9-85.6,37.3-.4.3-.8.5-1.3.5Z"/>
    <path id="Vector_128" class="st18" d="M1799,1462.5c-.3,0-.7,0-1-.2-.3-.1-.6-.3-.8-.6-15.6-16-35.7-26.9-57.6-31.2-.6-.1-1.1-.5-1.5-1-.3-.5-.5-1.2-.3-1.8.1-.6.5-1.1,1-1.5.5-.3,1.2-.4,1.8-.3,22.2,4.4,42.6,15.2,58.7,31.1,17-13.7,36.9-61.2,37.1-61.7.1-.3.3-.5.5-.7.2-.2.5-.4.7-.5.3-.1.6-.2.9-.2s.6,0,.9.2c.3.1.5.3.7.5.2.2.4.5.5.7.1.3.2.6.2.9,0,.3,0,.6-.2.9-.9,2.1-21.9,52.3-40.3,64.9-.4.3-.8.5-1.3.5Z"/>
    <path id="Vector_129" class="st18" d="M1804.2,1573.1s16.1-25.5,34.2-29.2c18.1-3.6,25.9-24.5,32.6-12,6.7,12.6-11.6,54.2-66.8,41.1Z"/>
    <path id="Vector_130" class="st1" d="M1830.3,1652.6h-62.3c-13.3,0-26.1-5.3-35.5-14.7-9.4-9.4-14.7-22.2-14.7-35.5v-6.8h162.8v6.6c0,6.6-1.3,13.2-3.8,19.3-2.5,6.1-6.2,11.7-10.9,16.3-4.7,4.7-10.2,8.4-16.3,10.9-6.1,2.5-12.7,3.8-19.2,3.8Z"/>
    <path id="Vector_131" class="st1" d="M1715.6,1613.9h166.9c10.6,0,19.2-8.6,19.2-19.2v-12.4c0-10.6-8.6-19.2-19.2-19.2h-166.9c-10.6,0-19.2,8.6-19.2,19.2v12.4c0,10.6,8.6,19.2,19.2,19.2Z"/>
    <path id="Vector_132" class="st10" d="M1715.6,1613.9h166.9c10.6,0,19.2-8.6,19.2-19.2v-12.4c0-10.6-8.6-19.2-19.2-19.2h-166.9c-10.6,0-19.2,8.6-19.2,19.2v12.4c0,10.6,8.6,19.2,19.2,19.2Z"/>
  </g>
  <g id="device">
    <path id="Vector_133" class="st1" d="M1526.5,1660.2h-653.6c-6.1,0-12.2-1.1-17.8-3.5-5.6-2.4-10.7-6-14.8-10.5-4.1-4.5-7.3-9.8-9.2-15.6-2-5.8-2.7-11.9-2.1-18l98.3-1310.4c1.1-12.8,6.8-24.8,16.2-33.6,9.3-8.8,21.6-13.9,34.5-14.2h654c6.1,0,12.2,1.1,17.8,3.5,5.6,2.4,10.7,6,14.8,10.5,4.1,4.5,7.3,9.8,9.2,15.6,2,5.8,2.7,11.9,2.1,18l-98.3,1310.4c-1.1,12.9-6.9,24.9-16.3,33.8-9.4,8.8-21.8,13.8-34.8,14Z"/>
    <path id="Vector_134" class="st1" d="M1499.1,1660.2h-653.6c-6.1,0-12.2-1.1-17.8-3.5-5.6-2.4-10.7-6-14.8-10.5-4.1-4.5-7.3-9.8-9.2-15.6-2-5.8-2.7-11.9-2.1-18l98.3-1310.4c1.1-12.8,6.8-24.8,16.2-33.6,9.3-8.8,21.6-13.9,34.5-14.2h654c6.1,0,12.2,1.1,17.8,3.5,5.6,2.4,10.7,6,14.8,10.5,4.2,4.5,7.3,9.8,9.2,15.6,2,5.8,2.7,11.9,2.1,18l-98.3,1310.4c-1,12.9-6.9,24.9-16.3,33.8-9.4,8.8-21.8,13.8-34.8,14Z"/>
    <path id="Vector_135" class="st12" d="M1499.1,1660.2h-653.6c-6.1,0-12.2-1.1-17.8-3.5-5.6-2.4-10.7-6-14.8-10.5-4.1-4.5-7.3-9.8-9.2-15.6-2-5.8-2.7-11.9-2.1-18l98.3-1310.4c1.1-12.8,6.8-24.8,16.2-33.6,9.3-8.8,21.6-13.9,34.5-14.2h654c6.1,0,12.2,1.1,17.8,3.5,5.6,2.4,10.7,6,14.8,10.5,4.2,4.5,7.3,9.8,9.2,15.6,2,5.8,2.7,11.9,2.1,18l-98.3,1310.4c-1,12.9-6.9,24.9-16.3,33.8-9.4,8.8-21.8,13.8-34.8,14Z"/>
    <path id="Vector_136" class="st18" d="M1623.3,299.7l-98.5,1312.9c-.5,5-2.8,9.6-6.5,13-3.7,3.4-8.5,5.3-13.5,5.3h-663.1c-2.2,0-4.3-.4-6.3-1.2-2-.8-3.8-2.1-5.2-3.7-1.5-1.6-2.5-3.5-3.2-5.6-.7-2.1-.9-4.2-.6-6.4l98.7-1315.9c.2-4,1.9-7.8,4.7-10.7,2.8-2.9,6.7-4.5,10.7-4.7h165.8c2.3,0,4.5.7,6.3,2.1,1.8,1.3,3.2,3.2,3.8,5.4l5.6,16.9c.7,2.1,2,4,3.8,5.3,1.8,1.3,4,2,6.2,2h282.2c2.4,0,4.7-.7,6.6-2,2-1.3,3.6-3.1,4.6-5.2l8.2-17c1-2.2,2.6-4,4.6-5.3,2-1.3,4.3-2.1,6.7-2.1h163.4c2.1,0,4.3.5,6.2,1.4,1.9.9,3.7,2.2,5.1,3.8,1.4,1.6,2.5,3.5,3.1,5.5.6,2,.8,4.2.6,6.3Z"/>
    <path id="Vector_137" class="st9" d="M1618.7,361.3l-89,1186.4h-698.3l89-1186.4h698.3Z"/>
    <path id="Vector_138" class="st11" d="M999.4,333.4h8.6l.9-11.5h-8.6l-.9,11.5Z"/>
    <path id="Vector_139" class="st11" d="M985.4,333.4h8.6l1.1-15.3h-8.6l-1.2,15.3Z"/>
    <path id="Vector_140" class="st11" d="M971.3,333.4h8.6l1.5-19.2h-8.6l-1.5,19.2Z"/>
    <path id="Vector_141" class="st11" d="M957.3,333.4h8.6l1.7-23.1h-8.6l-1.7,23.1Z"/>
    <path id="Vector_142" class="st11" d="M1542.1,329.2h-5.1l.9-11.5h5.1l-.9,11.5Z"/>
    <path id="Vector_143" class="st11" d="M1545.3,333.4h40.8l1.5-19.9h-40.7l-1.5,19.9Z"/>
    <path id="Vector_144" class="st1" d="M1591.3,497.4h-663.9l8.5-114h663.9l-8.5,114Z"/>
    <path id="Vector_145" class="st20" d="M1564.9,421c-.1,1.4-.7,2.7-1.8,3.6-1,.9-2.3,1.5-3.7,1.5-.7,0-1.3-.1-1.9-.4-.6-.3-1.1-.6-1.6-1.1-.4-.5-.8-1.1-1-1.7-.2-.6-.2-1.3-.2-1.9.1-1.4.7-2.7,1.8-3.6,1-.9,2.3-1.5,3.7-1.5.7,0,1.3.1,1.9.4.6.3,1.1.6,1.5,1.1.4.5.8,1.1,1,1.7.2.6.3,1.3.2,1.9Z"/>
    <path id="Vector_146" class="st20" d="M1563.5,440.4c-.1,1.4-.7,2.7-1.8,3.6-1,.9-2.3,1.5-3.7,1.5-.7,0-1.3-.1-1.9-.4-.6-.3-1.1-.6-1.6-1.1-.4-.5-.8-1.1-.9-1.7-.2-.6-.3-1.3-.2-1.9.1-1.4.8-2.7,1.8-3.6,1-.9,2.3-1.5,3.7-1.5.6,0,1.3.1,1.9.4.6.3,1.1.6,1.5,1.1.4.5.8,1.1,1,1.7.2.6.3,1.3.2,1.9Z"/>
    <path id="Vector_147" class="st20" d="M1562.2,459.9c-.1,1.4-.7,2.7-1.8,3.6-1,.9-2.3,1.5-3.7,1.5-.7,0-1.3-.1-1.9-.4s-1.1-.6-1.6-1.1c-.4-.5-.8-1.1-.9-1.7-.2-.6-.3-1.3-.2-1.9.1-1.4.8-2.7,1.8-3.6,1-.9,2.3-1.5,3.7-1.5.7,0,1.3.1,1.9.4.6.3,1.1.6,1.6,1.1s.8,1.1.9,1.7c.2.6.2,1.3.2,1.9Z"/>
    <path id="Vector_148" class="st1" d="M1590.6,507.2h-663.9l-76.8,1024.5h663.9l76.8-1024.5Z"/>
    <path id="Vector_149" class="st8" d="M1590.6,507.2h-663.9l-76.8,1024.5h663.9l76.8-1024.5Z"/>
    <path id="Vector_150" class="st18" d="M1553.6,767.5h-628.7c-.6,0-1.2-.2-1.6-.7-.4-.4-.7-1-.7-1.6s.2-1.2.7-1.6c.4-.4,1-.7,1.6-.7h628.7c.6,0,1.2.2,1.6.7.4.4.7,1,.7,1.6s-.2,1.2-.7,1.6c-.4.4-1,.7-1.6.7Z"/>
    <path id="Vector_151" class="st18" d="M1534.9,1020h-628.9c-.6,0-1.2-.2-1.6-.7-.4-.4-.7-1-.7-1.6,0-.6.2-1.2.7-1.6.4-.4,1-.7,1.6-.7h628.9c.6,0,1.2.2,1.6.7.4.4.7,1,.7,1.6s-.2,1.2-.7,1.6c-.4.4-1,.7-1.6.7Z"/>
    <path id="Vector_152" class="st18" d="M1515.8,1272.5h-628.7c-.6,0-1.2-.2-1.6-.7-.4-.4-.7-1-.7-1.6s.2-1.2.7-1.6c.4-.4,1-.7,1.6-.7h628.7c.6,0,1.2.2,1.6.7.4.4.7,1,.7,1.6,0,.6-.3,1.2-.7,1.6-.4.4-1,.7-1.6.7Z"/>
    <path id="Vector_153" class="st20" d="M1405.7,462h-20.1c-1.3,0-2.6-.3-3.7-.8-1.2-.5-2.2-1.3-3.1-2.2-.9-.9-1.5-2.1-1.9-3.3-.4-1.2-.5-2.5-.4-3.8l1.5-20.1c.2-2.7,1.5-5.2,3.4-7.1,2-1.9,4.6-2.9,7.3-3h20.1c1.3,0,2.5.3,3.7.8,1.2.5,2.2,1.3,3.1,2.2.9.9,1.5,2.1,1.9,3.3.4,1.2.5,2.5.4,3.8l-1.5,20.1c-.2,2.7-1.4,5.2-3.4,7.1-2,1.9-4.6,2.9-7.3,3Z"/>
    <path id="Vector_154" class="st20" d="M1181.8,1600.4h-10c-1.5,0-2.9-.3-4.2-.9-1.3-.6-2.5-1.4-3.5-2.5-1-1.1-1.7-2.3-2.2-3.7-.5-1.4-.7-2.8-.5-4.3l.7-10c.3-3,1.6-5.7,3.8-7.7,2.2-2,5-3.2,8-3.2h10c1.5,0,2.9.3,4.2.8,1.3.6,2.5,1.4,3.5,2.5,1,1.1,1.7,2.3,2.2,3.7.5,1.4.6,2.8.5,4.3l-.8,10c-.3,3-1.6,5.7-3.8,7.8-2.2,2-5,3.2-8,3.2ZM1173.8,1572.7c-1.8,0-3.6.7-4.9,2-1.3,1.2-2.2,2.9-2.3,4.8l-.7,10c0,.8,0,1.7.3,2.4s.7,1.5,1.2,2.1c.6.6,1.2,1.1,2,1.4.8.3,1.6.5,2.4.5h10c1.8,0,3.6-.7,4.9-2,1.3-1.2,2.2-2.9,2.3-4.8l.8-10c0-.8,0-1.7-.3-2.5-.3-.8-.7-1.5-1.3-2.1-.6-.6-1.2-1.1-2-1.4-.7-.3-1.6-.5-2.4-.5h-10Z"/>
    <path id="Vector_155" class="st6" d="M1275.2,284.4c-.2,2.6-1.4,5-3.3,6.8-1.9,1.8-4.4,2.8-7,2.8-1.2,0-2.5-.2-3.6-.7-1.1-.5-2.1-1.2-3-2.1-.8-.9-1.5-2-1.9-3.1-.4-1.2-.5-2.4-.4-3.6.2-2.6,1.4-5,3.3-6.8,1.9-1.8,4.4-2.8,7-2.8,1.2,0,2.5.2,3.6.7,1.1.5,2.1,1.2,3,2.1.8.9,1.5,2,1.9,3.1.4,1.2.5,2.4.4,3.6Z"/>
    <path id="Vector_156" class="st6" d="M1294.6,284.4c-.1,1.7-.9,3.2-2.1,4.4-1.2,1.1-2.8,1.8-4.5,1.8-.8,0-1.6-.1-2.3-.5-.7-.3-1.4-.8-1.9-1.4-.5-.6-.9-1.3-1.2-2-.2-.7-.3-1.5-.3-2.3.2-1.7.9-3.2,2.1-4.4,1.2-1.1,2.8-1.8,4.5-1.8.8,0,1.6.2,2.3.5s1.4.8,1.9,1.4c.5.6.9,1.3,1.2,2,.3.7.4,1.5.3,2.3Z"/>
    <path id="Vector_157" class="st3" d="M1297.1,572.5h-110.3c-.7,0-1.3-.1-1.9-.4-.6-.3-1.1-.7-1.6-1.1-.4-.5-.8-1.1-.9-1.7-.2-.6-.2-1.3-.2-1.9.1-1.4.7-2.7,1.8-3.6,1-.9,2.3-1.5,3.7-1.5h110.2c.7,0,1.3.1,1.9.4.6.3,1.1.6,1.6,1.1.4.5.8,1.1,1,1.7.2.6.2,1.3.2,1.9-.1,1.4-.7,2.6-1.7,3.6s-2.3,1.5-3.6,1.6Z"/>
    <path id="Vector_158" class="st3" d="M1424.2,603.4h-239.7c-.7,0-1.3-.1-1.9-.4-.6-.3-1.1-.6-1.5-1.1-.4-.5-.8-1.1-1-1.7-.2-.6-.3-1.3-.2-1.9.1-1.4.8-2.7,1.8-3.6,1-.9,2.3-1.5,3.7-1.5h239.8c.7,0,1.3.1,1.9.4.6.3,1.1.6,1.6,1.1s.8,1.1.9,1.7c.2.6.3,1.3.2,1.9-.1,1.4-.8,2.7-1.8,3.6-1,.9-2.4,1.5-3.8,1.5Z"/>
    <path id="Vector_159" class="st3" d="M1422.3,629.3h-239.8c-.6,0-1.3-.1-1.9-.4s-1.1-.6-1.6-1.1c-.4-.5-.8-1.1-.9-1.7-.2-.6-.3-1.3-.2-1.9.1-1.4.8-2.7,1.8-3.6,1-.9,2.3-1.5,3.7-1.5h239.8c.7,0,1.3.1,1.9.4s1.1.6,1.6,1.1c.4.5.8,1.1.9,1.7.2.6.2,1.3.2,1.9-.1,1.4-.8,2.7-1.8,3.6-1,.9-2.4,1.5-3.8,1.5Z"/>
    <path id="Vector_160" class="st1" d="M1159.1,639.2c-.5,6.3-1.5,12.6-3.1,18.8-5.2,20-15.9,38.2-30.8,52.6-1.7,1.7-3.5,3.3-5.3,4.8-9.8,8.5-21,15.2-33.1,19.8-2.3,1-4.6,1.8-7.1,2.5l-5.8,1.6c-8.4,2.1-17,3.1-25.6,3.1-9.5,0-18.9-1.3-28-4-5.5-1.6-10.9-3.7-16.1-6.3l-1.8-1-1.5-.8c-7.3-4.1-14.1-9.1-20.1-15-9.9-9.9-17.6-21.8-22.4-35-4.8-13.2-6.7-27.2-5.5-41.2,2.4-27.9,15.1-53.8,35.6-72.9,20.5-19.1,47.3-29.9,75.2-30.3,13.2-.2,26.4,2.4,38.6,7.6,12.2,5.2,23.1,13,32.1,22.7s15.8,21.3,20.1,33.8c4.2,12.6,5.8,25.9,4.5,39.1Z"/>
    <g id="friend1">
      <path id="Vector_161" class="st18" d="M1108.5,671.9c-1.3,7.3-3,14.5-5,21.6-.4,1.4-.8,2.9-1.2,4.2-3.7,13-8.8,25.5-15.4,37.3-2.3,1-4.6,1.8-7.1,2.5l-5.8,1.6c-8.4,2.1-17,3.1-25.6,3.1-9.5,0-18.9-1.3-28-4-5.5-1.6-10.9-3.7-16.1-6.3l-1.8-1c0-1.5,0-2.9.4-4.3.9-8.5,3.2-17.1,4.6-24.6.5-2.7.8-5.5.8-8.3,0-4-.5-8.9-1-14.2-2.5-24.3-8.1-59.4-2.6-77,1.5-6,4.4-11.7,8.3-16.5,3.9-4.8,8.9-8.7,14.5-11.3,0,0,5.4-.3,13.7-.2,6.1,0,13.7.2,22,1.1h.6c9,.8,17.9,2.5,26.7,4.9.7.1,1.4.3,2.1.6,1.7.5,3.3,1,4.9,1.6l3.2,1.3c1.4.6,2.6,1.5,3.5,2.6,10.2,10.9,11.4,47.8,4.4,85.1Z"/>
      <path id="Vector_162" class="st18" d="M1109.7,678.7c-.1,0-.3,0-.4-.2-.1,0-.2-.2-.3-.3,0-.1-.1-.3-.2-.4,0-.1,0-.3,0-.4,8.3-36.5,6.3-80.7-4-89.1-.9-.8-2-1.2-3.2-1.3-1.2-.1-2.3.1-3.4.7-.3.1-.6.1-.9,0-.3-.1-.5-.3-.6-.6-.1-.3-.1-.6,0-.9,0-.3.3-.5.6-.6,1.4-.8,3.1-1.1,4.7-.9,1.6.2,3.2.9,4.4,1.9,12.1,9.8,12.5,57.2,4.6,91.3,0,.3-.2.5-.5.7-.2.2-.5.2-.8.2Z"/>
      <path id="Vector_163" class="st1" d="M1155.9,657.9c-5.2,20-15.9,38.2-30.8,52.6-1.7,1.7-3.5,3.3-5.3,4.8l-.9-45.7s17.8-5.2,36.9-11.7Z"/>
      <path id="Vector_164" class="st12" d="M1155.9,657.9c-5.2,20-15.9,38.2-30.8,52.6-1.7,1.7-3.5,3.3-5.3,4.8l-.9-45.7s17.8-5.2,36.9-11.7Z"/>
      <path id="Vector_165" class="st1" d="M1125.2,710.4c-1.7,1.7-3.5,3.3-5.3,4.8-9.8,8.5-21,15.2-33.1,19.8-2.3,1-4.6,1.8-7.1,2.5l-5.8,1.6c-8.4,2.1-17,3.1-25.6,3.2-9.5,0-18.9-1.3-28-4-5.5-1.6-10.9-3.7-16.1-6.3l-1.8-1-1.5-.8c-3.5-2-6.9-4.2-10.2-6.6-1-4.6-2.3-8.6-3.6-12.6,0,0,5.7-2.9,16.8-7.5,1-.5,2.1-.9,3.3-1.4,4.6-1.8,9.8-3.8,15.8-6,1.5-.6,3.1-1.2,4.6-1.7,3.3-1.2,6.8-2.4,10.4-3.6,7.7-2.6,16.3-5.2,25.7-7.9l2.8-.8c2-.5,4-1.1,6-1.6,10.9-3,22.8-5.9,35.7-8.7l2.5-.6,8-1.6c3.7,13.3,5.8,27,6.3,40.8Z"/>
      <g id="Group_2" class="st24">
        <path id="Vector_166" class="st20" d="M1125.2,710.4c-1.7,1.7-3.5,3.3-5.3,4.8-9.8,8.5-21,15.2-33.1,19.8-2.3,1-4.6,1.8-7.1,2.5l-5.8,1.6c-8.4,2.1-17,3.1-25.6,3.2-9.5,0-18.9-1.3-28-4-5.5-1.6-10.9-3.7-16.1-6.3l-1.8-1-1.5-.8c-3.5-2-6.9-4.2-10.2-6.6-1-4.6-2.3-8.6-3.6-12.6,0,0,5.7-2.9,16.8-7.5,1-.5,2.1-.9,3.3-1.4,4.6-1.8,9.8-3.8,15.8-6,1.5-.6,3.1-1.2,4.6-1.7,3.3-1.2,6.8-2.4,10.4-3.6,7.7-2.6,16.3-5.2,25.7-7.9l2.8-.8c2-.5,4-1.1,6-1.6,10.9-3,22.8-5.9,35.7-8.7l2.5-.6,8-1.6c3.7,13.3,5.8,27,6.3,40.8Z"/>
      </g>
      <path id="Vector_167" class="st1" d="M1001,730.5c-7.3-4.1-14.1-9.1-20.1-15,2-1.5,4.1-2.9,6.3-4.2,3.8,1.7,7.1,4.3,9.5,7.7,2.4,3.4,3.9,7.3,4.3,11.5Z"/>
      <path id="Vector_168" class="st12" d="M1001,730.5c-7.3-4.1-14.1-9.1-20.1-15,2-1.5,4.1-2.9,6.3-4.2,3.8,1.7,7.1,4.3,9.5,7.7,2.4,3.4,3.9,7.3,4.3,11.5Z"/>
      <path id="Vector_169" class="st1" d="M1106.9,698.6l-4.6-.8-17.1-3-5.4,42.8-5.8,1.6c-9.3-14.2-23-25-39-30.6l-11.8,19.2s-10.2-19.1,4.6-33.2c3.7-3.4,7.9-6,12.6-7.9,3.2-1.3,6.6-2.4,10-3.2,3-.8,6.1-1.4,9.1-1.9,2.3-.4,4.6-.7,6.9-.8h6.2c5.7-.2,11.5.8,16.8,3,5.3,2.2,10.1,5.6,13.9,9.8,1.4,1.5,2.6,3.1,3.6,4.9Z"/>
      <path id="Vector_170" class="st12" d="M1106.9,698.6l-4.6-.8-17.1-3-5.4,42.8-5.8,1.6c-9.3-14.2-23-25-39-30.6l-11.8,19.2s-10.2-19.1,4.6-33.2c3.7-3.4,7.9-6,12.6-7.9,3.2-1.3,6.6-2.4,10-3.2,3-.8,6.1-1.4,9.1-1.9,2.3-.4,4.6-.7,6.9-.8h6.2c5.7-.2,11.5.8,16.8,3,5.3,2.2,10.1,5.6,13.9,9.8,1.4,1.5,2.6,3.1,3.6,4.9Z"/>
      <path id="Vector_171" class="st19" d="M1073.7,721.4c-14.2-6.9-27.8-15-40.5-24.4,11-9.8,10.3-24.2,8.3-33.2-.6-2.8-1.4-5.6-2.5-8.3l30,5.8c-1,4.2-1.7,8.5-2.2,12.8-.4,3.1-.4,6.3,0,9.5,1.4,9.1,6.6,9.1,6.6,9.1,4.8,10.5.3,28.7.3,28.7Z"/>
      <path id="Vector_172" class="st7" d="M1066.8,674.2c-.4,3.1-.4,6.3,0,9.5-12-1.6-20.4-11.3-25.5-19.7-.6-2.8-1.4-5.6-2.5-8.3l30,5.8c-1,4.2-1.7,8.5-2,12.8Z"/>
      <path id="Vector_173" class="st19" d="M1068.2,575.3c32.8,0,34.4,15.9,34.2,43.3,0,34.2-9.7,58.5-42.3,51.1-44.2-10-36-94.4,8-94.4Z"/>
      <path id="Vector_174" class="st29" d="M1085.4,617.1c1.8,3.9,4.1,7.6,6.8,11-.8,1.1-1.9,1.9-3.2,2.5-1.3.5-2.6.7-4,.6l.4-14Z"/>
      <path id="Vector_175" class="st18" d="M1069.2,614.9c0,2.2-1.4,4-2.8,4-1.5,0-2.6-1.7-2.4-3.9.1-2.1,1.4-4,2.8-4s2.7,1.7,2.4,3.9Z"/>
      <path id="Vector_176" class="st18" d="M1066.3,611.1l4.8-2s-2.6,4.1-4.8,2Z"/>
      <path id="Vector_177" class="st18" d="M1096.6,613.9c0,2.1-1.4,4-2.9,4s-2.5-1.7-2.4-3.9c0-2.2,1.4-4,2.9-4,1.5,0,2.4,1.8,2.4,3.9Z"/>
      <path id="Vector_178" class="st18" d="M1093.4,610.1l4.8-2s-2.6,4.1-4.8,2Z"/>
      <path id="Vector_179" class="st18" d="M1058.7,602.2c-.3,0-.6,0-.9-.3-.3-.2-.5-.4-.6-.7-.1-.3-.2-.6-.1-.9,0-.3.2-.6.4-.8,1.7-1.7,3.8-3,6.1-3.8,2.3-.8,4.7-1.1,7.1-.8.4,0,.8.3,1.1.6.3.3.4.8.3,1.2,0,.2,0,.4-.2.6,0,.2-.2.3-.4.5-.2.1-.3.2-.6.3-.2,0-.4,0-.6,0-1.9-.2-3.8,0-5.6.6-1.8.6-3.4,1.6-4.8,2.9-.1.2-.3.3-.5.4-.2.1-.4.2-.7.2Z"/>
      <path id="Vector_180" class="st18" d="M1100.2,599.3c-.3,0-.6,0-.9-.3-1.3-1-2.8-1.7-4.3-2.1-1.6-.3-3.2-.3-4.8,0-.2,0-.4.1-.6,0-.2,0-.4,0-.6-.2-.2,0-.4-.2-.5-.4-.1-.2-.2-.3-.3-.5-.1-.4-.1-.8,0-1.2.2-.4.5-.7.9-.8,2-.5,4.2-.6,6.2-.2,2.1.4,4,1.3,5.7,2.6.3.2.5.5.6.8.1.3.1.7,0,1s-.3.6-.6.8c-.3.2-.6.3-1,.3h.2Z"/>
      <path id="Vector_181" class="st18" d="M1036.2,621.7s14.1-21.8,13.7-38.6c6-5.4,13.8-8.4,22-8.4s15.9,3,22,8.4c0,0,9.1,18.3,8.8,32.3,0,0,8.8-47.4-36.5-48.6-45.3-1.2-50.4,65.7-28.4,85.6-.5-.2-10.1-17-1.4-30.6Z"/>
      <path id="Vector_182" class="st19" d="M1040.1,627.3c0-1.5-.3-3-.9-4.3-.6-1.4-1.5-2.6-2.6-3.6-1.1-1-2.4-1.8-3.8-2.2-1.4-.5-2.9-.6-4.4-.5-8.3.9-13.7,17.8,6.6,21.9,2.9.7,4.8-2.3,5.1-11.2Z"/>
      <path id="Vector_183" class="st18" d="M1077.3,647.5c-2.9.2-5.8-.6-8.3-2.1-2.5-1.6-4.4-3.9-5.4-6.6-.2-.4-.2-.8,0-1.2s.5-.7.9-.9c.4-.2.8-.1,1.2,0,.4.2.7.5.9.9,1.1,2.5,3,4.5,5.5,5.6,2.4,1.2,5.2,1.5,7.8.8.2,0,.4,0,.6,0,.2,0,.4.1.6.2.2.1.3.3.5.4.1.2.2.4.2.6,0,.2,0,.4,0,.6,0,.2-.1.4-.2.6-.1.2-.2.3-.4.5-.2.1-.4.2-.6.2-1.1.2-2.2.4-3.3.4Z"/>
      <path id="Vector_184" class="st18" d="M1049.7,583s31.3-13.7,50.2,4.3c0,0,9.6-23.4-16.6-31.4-26.2-8-55.6,18.9-55.6,18.9l22,8.2Z"/>
      <path id="Vector_185" class="st18" d="M1017.1,713.9c-5.1,12.9-1,20.5,3.2,24.4-5.5-1.6-10.9-3.7-16.1-6.3-.7-1.7-1.2-3.4-1.4-5.2-.1-.5-.2-1-.3-1.6-.3-7.2.1-14.5,1.4-21.6.9-7.1,2.1-15.1,3.1-23.9,1.6-12.5,2.3-25.1,2.2-37.7-.4-28,8.1-49.9,23.1-57,4.8-2.3,10.2-3,15.4-2.2l1.9.2c-8.8,9.5-14.8,21.2-17.2,34-.8,3.8-1.4,7.6-1.6,11.5,0,2.2-.3,4.6-.3,6.8v7.9c-.2,17.9-2.7,35.8-7.5,53.1-1.8,6-3.8,11.8-6.1,17.6Z"/>
    </g>
    <path id="Vector_186" class="st2" d="M1539.7,735.4h-127.8c-1.5,0-2.9-.3-4.3-.8-1.3-.6-2.6-1.4-3.5-2.5-1-1.1-1.8-2.3-2.2-3.7-.5-1.4-.6-2.9-.5-4.3l2.6-34.4c.3-3.1,1.6-6,3.9-8.1,2.3-2.1,5.2-3.3,8.3-3.3h127.8c1.5,0,2.9.3,4.3.8,1.3.6,2.6,1.4,3.6,2.5,1,1.1,1.8,2.3,2.2,3.7.5,1.4.6,2.9.5,4.3l-2.6,34.4c-.3,3.1-1.7,5.9-3.9,8-2.3,2.1-5.2,3.3-8.3,3.3Z"/>
    <g id="Group_3" class="st25">
      <path id="Vector_187" class="st1" d="M1439.2,710.8h-12.3l-3,6h-3.2l12.2-23.2h3.3l8.8,23.2h-3.5l-2.3-6ZM1438.2,708.1l-4.2-11.4-5.8,11.4h10Z"/>
      <path id="Vector_188" class="st1" d="M1466,692l-1.8,24.6h-3.1v-2.8c-.8,1-1.8,1.7-2.9,2.2-1.1.5-2.3.8-3.6.7-1.2,0-2.4-.1-3.5-.6-1.1-.4-2.1-1.1-2.9-2-.8-.9-1.4-1.9-1.7-3.1s-.4-2.3-.2-3.5c0-1.2.2-2.5.7-3.6.5-1.1,1.2-2.2,2.1-3,.9-.9,1.9-1.5,3.1-2,1.2-.4,2.4-.6,3.6-.6,1.2,0,2.3.2,3.3.7,1,.5,1.9,1.2,2.6,2.2l.7-9.7,3.4.3ZM1461.8,707.7c.1-.8,0-1.6-.1-2.3-.2-.8-.6-1.5-1.1-2-.5-.6-1.2-1.1-1.9-1.4-.7-.3-1.5-.5-2.3-.4-1.7,0-3.3.6-4.5,1.8-1.2,1.2-1.9,2.7-1.9,4.4-.1.8,0,1.6.1,2.3.2.8.6,1.5,1.1,2.1.5.6,1.2,1.1,1.9,1.4.7.3,1.5.5,2.3.4,1.7,0,3.3-.6,4.4-1.8,1.2-1.2,1.9-2.7,1.9-4.4Z"/>
      <path id="Vector_189" class="st1" d="M1488.5,692l-1.9,24.6h-3v-2.8c-.8,1-1.8,1.7-2.9,2.2-1.1.5-2.3.8-3.6.7-1.2,0-2.4-.1-3.5-.6-1.1-.4-2.1-1.1-2.8-2-.8-.9-1.4-1.9-1.7-3.1-.3-1.1-.4-2.3-.2-3.5,0-1.2.2-2.5.7-3.6.5-1.1,1.2-2.2,2.1-3,.9-.9,1.9-1.5,3.1-2,1.2-.4,2.4-.6,3.6-.6,1.1,0,2.3.2,3.3.7,1,.5,1.9,1.2,2.6,2.2l.7-9.7,3.4.3ZM1483.9,707.8c.1-.8,0-1.6-.1-2.3-.2-.8-.6-1.5-1.1-2-.5-.6-1.2-1.1-1.9-1.4-.7-.3-1.5-.5-2.3-.4-1.7,0-3.3.6-4.5,1.8-1.2,1.2-1.9,2.7-1.9,4.4-.1.8,0,1.6.1,2.3.2.8.6,1.5,1.1,2.1.5.6,1.2,1.1,1.9,1.4.7.3,1.5.5,2.3.4.8,0,1.7-.1,2.5-.4.8-.3,1.5-.8,2.1-1.3.6-.6,1.1-1.3,1.4-2.1.3-.8.5-1.6.5-2.5h-.2Z"/>
      <path id="Vector_190" class="st1" d="M1509,708.9h-14.2c0,.7.2,1.5.5,2.1.3.7.8,1.2,1.3,1.7.6.5,1.2.8,1.9,1.1.7.2,1.4.3,2.2.2,1,0,1.9-.1,2.8-.5.9-.4,1.7-.9,2.4-1.6l1.6,2.1c-.9.9-2,1.7-3.3,2.2-1.2.5-2.5.7-3.8.7-1.2.1-2.4,0-3.6-.5s-2.2-1.1-3-2c-.8-.9-1.5-1.9-1.8-3.1s-.5-2.4-.3-3.6c0-2.5,1.1-4.8,2.9-6.5,1.8-1.7,4.1-2.7,6.6-2.6,1.2,0,2.3.2,3.4.6,1.1.5,2,1.2,2.8,2,.8.9,1.3,1.9,1.6,3,.3,1.1.4,2.3.2,3.4,0,.4,0,.8-.1,1.2ZM1495,706.5h11.3c0-.7-.1-1.4-.4-2-.3-.6-.7-1.2-1.1-1.7-.5-.5-1.1-.8-1.7-1.1-.6-.2-1.3-.3-2-.3-1.4,0-2.8.5-3.9,1.4-1.1.9-1.8,2.2-2.1,3.6Z"/>
      <path id="Vector_191" class="st1" d="M1531.3,692l-1.9,24.6h-3v-2.8c-.8,1-1.8,1.7-2.9,2.2-1.1.5-2.3.8-3.6.7-1.2,0-2.4-.1-3.5-.6-1.1-.4-2.1-1.1-2.8-2-.8-.9-1.4-1.9-1.7-3.1-.3-1.1-.4-2.3-.2-3.5,0-1.2.2-2.5.7-3.6.5-1.1,1.2-2.2,2.1-3,.9-.9,1.9-1.5,3.1-2,1.2-.4,2.4-.6,3.6-.6,1.1,0,2.3.2,3.3.7,1,.5,1.9,1.2,2.6,2.2l.7-9.7,3.4.3ZM1526.7,707.8c.1-.8,0-1.6-.1-2.3s-.6-1.5-1.1-2c-.5-.6-1.2-1.1-1.9-1.4-.7-.3-1.5-.5-2.3-.4-1.7,0-3.3.6-4.5,1.8-1.2,1.2-1.9,2.7-1.9,4.4-.1.8,0,1.6.1,2.3.2.8.6,1.5,1.1,2.1.5.6,1.2,1.1,1.9,1.4.7.3,1.5.5,2.3.4.8,0,1.7-.1,2.5-.4.8-.3,1.5-.8,2.1-1.3.6-.6,1.1-1.3,1.4-2.1.3-.8.5-1.6.5-2.5h-.2Z"/>
    </g>
    <path id="Vector_192" class="st20" d="M979.4,431.2l-.6,8.1h11.6v2.9h-11.6l-.9,9.4h-3.3l1.7-23.2h16.4l-.2,2.9h-13Z"/>
    <path id="Vector_193" class="st20" d="M1011,451.6l-4.6-7.1h-7.2l-.5,7h-3.3l1.7-23.2h9.1c6,0,9.5,3.1,9.1,8.1,0,1.7-.6,3.3-1.6,4.6-1,1.3-2.4,2.3-4,2.8l4.9,7.8h-3.7ZM1012.1,436.4c.2-3.3-1.8-5.2-6.1-5.2h-5.6l-.8,10.5h5.6c4.2,0,6.6-1.9,6.9-5.3Z"/>
    <path id="Vector_194" class="st20" d="M1021.3,428.4h3.3l-1.7,23.2h-3.3l1.7-23.2Z"/>
    <path id="Vector_195" class="st20" d="M1046.9,448.7l-.2,2.9h-16.8l1.7-23.2h16.4v2.9h-13l-.6,7.1h11.6v2.8h-11.6l-.6,7.5h13.1Z"/>
    <path id="Vector_196" class="st20" d="M1073.7,428.4l-1.8,23.2h-2.8l-12.6-17.3-1.1,17.3h-3.3l1.7-23.2h2.7l12.6,17.3,1.3-17.3h3.2Z"/>
    <path id="Vector_197" class="st20" d="M1080.6,428.4h9.8c1.6-.2,3.2,0,4.6.5,1.5.5,2.8,1.4,4,2.5,1.1,1.1,2,2.5,2.5,3.9.5,1.5.7,3.1.6,4.6-.1,1.6-.6,3.2-1.3,4.7-.7,1.5-1.8,2.8-3,3.9s-2.7,1.9-4.2,2.4c-1.6.5-3.2.7-4.8.6h-9.8l1.7-23.2ZM1088.6,448.7c1.2.1,2.5,0,3.7-.4,1.2-.4,2.3-1,3.2-1.8.9-.8,1.7-1.8,2.2-2.9s.8-2.3.9-3.6c.2-1.2,0-2.4-.4-3.5-.4-1.1-1-2.1-1.9-3-.8-.8-1.9-1.5-3-1.9-1.1-.4-2.3-.5-3.5-.4h-6.2l-1.3,17.4h6.3Z"/>
    <path id="Vector_198" class="st20" d="M1113.1,448.9l1.4-2.6c2.1,1.8,4.7,2.7,7.4,2.6,4,0,5.8-1.6,6-3.6.5-5.7-13.7-2.1-13.2-10.7,0-3.6,3.2-6.6,9.1-6.6,2.6,0,5.1.7,7.3,2.1l-1.3,2.6c-1.8-1.2-4-1.9-6.2-1.9-3.9,0-5.8,1.6-5.9,3.7-.5,5.7,13.7,2.1,13.2,10.6-.3,3.5-3.4,6.6-9.5,6.6-3.1,0-6-1-8.4-2.9Z"/>
    <path id="Vector_199" class="st20" d="M1136.1,441.5l1-13.2h3.3l-1,13.1c-.4,5.2,1.8,7.5,6,7.5s6.7-2.3,7.1-7.5l1-13.1h3.2l-1,13.2c0,1.4-.2,2.8-.7,4.1-.5,1.3-1.3,2.5-2.3,3.4-1,1-2.2,1.7-3.5,2.2-1.3.5-2.7.7-4.1.6-1.3.1-2.7,0-3.9-.6-1.2-.5-2.3-1.3-3.2-2.3s-1.5-2.2-1.8-3.5c-.3-1.3-.3-2.6,0-3.9Z"/>
    <path id="Vector_200" class="st20" d="M1178.7,439.8h3.2l-.7,9.1c-2.6,2-5.8,3-9.1,2.9-1.6.1-3.1-.1-4.6-.7-1.5-.6-2.8-1.4-3.9-2.6-1.1-1.1-1.9-2.5-2.4-4-.5-1.5-.7-3.1-.5-4.6.3-3.3,1.8-6.4,4.3-8.6,2.5-2.2,5.7-3.4,9-3.3,1.6,0,3.2.2,4.7.8,1.5.6,2.8,1.6,3.9,2.8l-2.2,2.1c-.8-.9-1.8-1.6-3-2.1s-2.3-.7-3.6-.6c-2.5,0-5,.8-6.8,2.5-1.9,1.7-3,4.1-3.1,6.6-.2,1.2,0,2.4.3,3.5.4,1.1,1,2.2,1.8,3.1.8.9,1.8,1.6,2.9,2,1.1.4,2.3.6,3.5.6,2,0,3.9-.5,5.6-1.5l.7-8Z"/>
    <path id="Vector_201" class="st20" d="M1204.2,439.8h3.2l-.7,9.1c-2.6,2-5.9,3-9.1,2.9-1.6.1-3.2-.1-4.6-.7-1.5-.6-2.8-1.4-3.9-2.6-1.1-1.1-1.9-2.5-2.4-4-.5-1.5-.7-3.1-.5-4.6.2-3.3,1.8-6.4,4.2-8.6,2.5-2.2,5.7-3.4,9-3.3,1.6,0,3.2.2,4.7.8,1.5.6,2.8,1.6,3.9,2.8l-1.9,2c-.8-.9-1.8-1.6-3-2.1s-2.3-.7-3.6-.6c-2.5,0-5,.8-6.8,2.5-1.8,1.7-3,4.1-3.1,6.6-.1,1.2,0,2.4.3,3.5.4,1.1,1,2.2,1.8,3,.8.9,1.8,1.6,2.9,2s2.3.6,3.5.6c2,0,3.9-.5,5.6-1.5l.4-8Z"/>
    <path id="Vector_202" class="st20" d="M1229.8,448.7l-.2,2.9h-16.8l1.7-23.2h16.3v2.9h-13.1l-.6,7.1h11.7l-.2,2.8h-11.6l-.6,7.5h13.3Z"/>
    <path id="Vector_203" class="st20" d="M1233,448.9l1.4-2.6c2.1,1.8,4.7,2.7,7.4,2.6,4,0,5.9-1.6,6-3.6.4-5.7-13.7-2.1-13.2-10.7.3-3.6,3.3-6.6,9.4-6.6,2.6,0,5.1.7,7.3,2.1l-1.3,2.6c-1.9-1.2-4-1.9-6.3-1.9-3.9,0-5.7,1.6-5.9,3.7-.4,5.7,13.7,2.1,13.2,10.6-.3,3.5-3.3,6.6-9.4,6.6-3.2.1-6.2-.9-8.7-2.9Z"/>
    <path id="Vector_204" class="st20" d="M1261.2,431.2h-7.9l.2-2.9h19.1v2.9h-7.9l-1.6,20.3h-3.3l1.4-20.3Z"/>
    <path id="Vector_205" class="st20" d="M1276.3,428.4h3.3l-1.7,23.2h-3.2l1.7-23.2Z"/>
    <path id="Vector_206" class="st20" d="M1283.8,440c.2-3.3,1.8-6.4,4.2-8.6,2.5-2.2,5.7-3.4,9-3.3,1.6,0,3.1.2,4.6.7,1.5.6,2.8,1.5,3.9,2.6,1.1,1.1,1.9,2.5,2.4,4,.5,1.5.7,3.1.5,4.6-.2,3.3-1.7,6.4-4.2,8.6-2.5,2.2-5.7,3.4-9,3.3-1.6.1-3.1-.1-4.6-.7-1.5-.6-2.8-1.4-3.9-2.6-1.1-1.1-1.9-2.5-2.4-4-.5-1.5-.7-3.1-.5-4.6ZM1305.1,440c.2-1.2,0-2.4-.3-3.5-.3-1.1-.9-2.2-1.7-3-.8-.9-1.8-1.6-2.9-2-1.1-.5-2.3-.7-3.4-.6-2.5,0-4.9.9-6.7,2.6-1.8,1.7-2.9,4-3,6.5-.2,1.2,0,2.4.3,3.5.4,1.1,1,2.2,1.8,3,.8.9,1.8,1.6,2.9,2,1.1.4,2.3.6,3.5.6,2.5,0,4.9-.9,6.7-2.6,1.8-1.7,2.9-4,3-6.5Z"/>
    <path id="Vector_207" class="st20" d="M1334.2,428.4l-1.7,23.2h-2.7l-12.6-17.3-1.4,17.3h-3.3l1.8-23.2h2.7l12.6,17.3,1.3-17.3h3.5Z"/>
    <path id="Vector_208" class="st20" d="M1337.4,448.9l1.4-2.6c2.1,1.8,4.7,2.7,7.5,2.6,4,0,5.8-1.6,6-3.6.4-5.7-13.7-2.1-13.2-10.7.3-3.6,3.3-6.6,9.4-6.6,2.6,0,5.1.7,7.3,2.1l-1.3,2.6c-1.9-1.2-4-1.9-6.3-1.9-3.9,0-5.7,1.6-5.9,3.7-.4,5.7,13.7,2.1,13.2,10.6-.3,3.5-3.3,6.6-9.5,6.6-3.2.1-6.2-.9-8.7-2.9Z"/>
    <path id="Vector_209" class="st3" d="M1278.3,823.2h-110.4c-.6,0-1.3-.1-1.9-.4-.6-.3-1.1-.6-1.6-1.1-.4-.5-.8-1.1-1-1.7-.2-.6-.2-1.3-.2-1.9.1-1.4.7-2.7,1.8-3.6,1-.9,2.3-1.5,3.7-1.5h110.3c.6,0,1.3.1,1.9.4.6.3,1.1.6,1.6,1.1.4.5.8,1.1.9,1.7.2.6.2,1.3.2,1.9-.1,1.4-.8,2.6-1.8,3.6-1,.9-2.3,1.5-3.7,1.5Z"/>
    <path id="Vector_210" class="st3" d="M1405.4,854.1h-239.7c-.7,0-1.3-.1-1.9-.4-.6-.3-1.1-.6-1.6-1.1-.4-.5-.8-1.1-.9-1.7-.2-.6-.3-1.3-.2-1.9.1-1.4.8-2.7,1.8-3.6,1-1,2.3-1.5,3.8-1.5h239.7c.7,0,1.3.1,1.9.4.6.3,1.1.7,1.6,1.1.4.5.8,1.1,1,1.7.2.6.2,1.3.2,1.9-.1,1.4-.8,2.7-1.8,3.6-1,.9-2.4,1.5-3.8,1.5Z"/>
    <path id="Vector_211" class="st3" d="M1403.5,880h-239.8c-.6,0-1.3-.1-1.9-.4-.6-.3-1.1-.6-1.6-1.1-.4-.5-.8-1.1-1-1.7-.2-.6-.2-1.3-.2-1.9.1-1.4.8-2.7,1.8-3.6,1-1,2.4-1.5,3.8-1.5h239.8c.6,0,1.3.1,1.9.4.6.3,1.1.7,1.6,1.1.4.5.8,1.1.9,1.7.2.6.2,1.3.2,1.9-.1,1.4-.8,2.7-1.8,3.6-1,.9-2.3,1.5-3.7,1.5Z"/>
    <path id="Vector_212" class="st1" d="M1140.3,889.8c-1.6,20.3-8.8,39.7-20.8,56.2-.5.8-1,1.6-1.6,2.3-1.8,2.4-3.8,4.8-5.8,7-.9,1-1.8,2-2.8,3-1,1-2.7,2.8-4.1,4.1l-3.6,3.2c-.6.6-1.3,1.1-2,1.7-6.9,5.7-14.5,10.6-22.6,14.6-14.7,7.3-30.9,11.1-47.3,11.1-8.5,0-16.9-1-25.1-3.1-10.2-2.6-19.9-6.9-28.6-12.7-.6-.3-1.1-.7-1.6-1.1-3-2.1-5.9-4.3-8.7-6.8l-.3-.3c-3.1-2.8-6-5.9-8.8-9.1-.4-.4-.7-.8-1-1.2-15.7-19.4-23.3-44.1-21.2-69,2.4-27.9,15.1-53.8,35.5-72.9,20.5-19.1,47.3-29.9,75.2-30.4,13.3-.2,26.4,2.4,38.6,7.7,12.2,5.2,23.1,13,32.1,22.8,9,9.8,15.8,21.3,20.1,33.9,4.2,12.6,5.8,25.9,4.5,39.1Z"/>
    <path id="Vector_213" class="st1" d="M1520.9,986.2h-214c-1.5,0-2.9-.3-4.2-.9-1.3-.6-2.5-1.4-3.5-2.5-1-1.1-1.7-2.3-2.2-3.7-.5-1.4-.6-2.9-.5-4.3l2.6-34.4c.3-3.1,1.7-5.9,4-8,2.3-2.1,5.2-3.3,8.3-3.4h214c1.5,0,2.9.3,4.3.8,1.4.6,2.6,1.4,3.6,2.5,1,1.1,1.8,2.3,2.2,3.7s.6,2.9.5,4.3l-2.6,34.4c-.3,3.1-1.7,6-3.9,8.1-2.3,2.1-5.2,3.3-8.3,3.3Z"/>
    <path id="Vector_214" class="st20" d="M1329.8,961.4h-12.3l-3,5.8h-3.4l12.2-23.2h3.3l8.8,23.2h-3.5l-2.1-5.8ZM1328.9,958.8l-4.2-11.4-5.8,11.4h10Z"/>
    <path id="Vector_215" class="st20" d="M1356.8,942.6l-1.8,24.6h-3.1l.2-2.8c-.8,1-1.8,1.7-2.9,2.3-1.1.5-2.3.8-3.6.8-1.2,0-2.4-.1-3.5-.6-1.1-.4-2.1-1.1-2.9-2-.8-.9-1.4-1.9-1.7-3.1-.3-1.1-.4-2.3-.2-3.5,0-1.2.2-2.5.7-3.6.5-1.1,1.2-2.2,2.1-3,.9-.9,1.9-1.5,3.1-2,1.2-.4,2.4-.6,3.6-.6,1.2,0,2.3.2,3.3.7,1,.5,1.9,1.2,2.6,2.2l.7-9.7,3.2.3ZM1352.5,958.5c.1-.8.1-1.6-.1-2.3-.2-.8-.6-1.5-1.1-2.1-.5-.6-1.2-1.1-1.9-1.4-.7-.3-1.5-.4-2.3-.4-1.7,0-3.2.6-4.4,1.8-1.2,1.2-1.9,2.7-1.9,4.4-.1.8-.1,1.6.1,2.3.2.8.6,1.5,1.1,2.1s1.2,1.1,1.9,1.4c.7.3,1.5.5,2.3.4,1.6,0,3.2-.7,4.3-1.9,1.1-1.2,1.8-2.7,1.8-4.3h.2Z"/>
    <path id="Vector_216" class="st20" d="M1379.1,942.6l-1.8,24.6h-3.1v-2.8c-.8,1-1.7,1.7-2.9,2.3-1.1.5-2.3.8-3.6.7-1.2,0-2.4-.1-3.5-.6-1.1-.4-2.1-1.1-2.9-2-.8-.9-1.4-1.9-1.7-3.1-.3-1.1-.4-2.3-.2-3.5,0-1.2.2-2.5.7-3.6.5-1.1,1.2-2.2,2.1-3,.9-.9,1.9-1.5,3.1-2,1.2-.4,2.4-.6,3.6-.6,1.2,0,2.3.2,3.3.7,1,.5,1.9,1.2,2.6,2.2l.7-9.7,3.4.3ZM1374.8,958.5c.1-.8,0-1.6-.1-2.3-.2-.8-.6-1.5-1.1-2-.5-.6-1.2-1.1-1.9-1.4-.7-.3-1.5-.5-2.3-.4-1.7,0-3.3.6-4.4,1.8-1.2,1.2-1.9,2.7-1.9,4.4-.1.8,0,1.6.1,2.3.2.8.6,1.5,1.1,2.1.5.6,1.2,1.1,1.9,1.4.7.3,1.5.5,2.3.4,1.7,0,3.2-.6,4.4-1.8,1.2-1.2,1.9-2.7,1.9-4.4Z"/>
    <path id="Vector_217" class="st20" d="M1397.2,948.2v1.5h5.1l-.2,2.6h-5l-1.1,14.9h-3.2l1.1-14.9h-3l.2-2.6h3v-1.6c0-.8.2-1.6.5-2.3.3-.7.8-1.4,1.4-1.9.6-.5,1.3-.9,2-1.2s1.5-.4,2.3-.3c1.3,0,2.5.3,3.5,1l-1.1,2.4c-.7-.5-1.5-.8-2.4-.8-1.9,0-2.9,1-3.1,3.1Z"/>
    <path id="Vector_218" class="st20" d="M1417.2,949.7l-.2,3.1h-.9c-.8,0-1.6,0-2.3.4s-1.4.7-2,1.3c-.6.6-1,1.2-1.3,2-.3.7-.4,1.5-.4,2.3l-.6,8.7h-3.2l1.3-17.6h3.1v3c.7-1,1.7-1.9,2.8-2.4,1.1-.5,2.4-.8,3.7-.7Z"/>
    <path id="Vector_219" class="st20" d="M1421,944.2c0-.6.3-1.1.7-1.5.4-.4,1-.6,1.6-.6.3,0,.5,0,.8.1.2,0,.5.2.7.4.2.2.3.4.4.7,0,.3.1.5.1.8,0,.6-.3,1.1-.7,1.5-.4.4-1,.6-1.6.6-.3,0-.5,0-.8-.1-.2,0-.5-.2-.7-.4-.2-.2-.3-.4-.4-.7,0-.3-.1-.5,0-.8ZM1421,949.7h3.2l-1.3,17.6h-3.2l1.3-17.6Z"/>
    <path id="Vector_220" class="st20" d="M1445.4,959.5h-14.2c0,.7.2,1.5.5,2.1.3.7.8,1.3,1.3,1.7.6.5,1.2.8,1.9,1.1.7.2,1.5.3,2.2.2,1,0,1.9-.2,2.8-.5.9-.4,1.7-.9,2.4-1.6l1.6,2.1c-.9,1-2,1.7-3.3,2.2-1.2.5-2.5.7-3.9.7-1.2.1-2.4,0-3.6-.5s-2.2-1.1-3-2c-.8-.9-1.5-1.9-1.9-3.1-.4-1.2-.5-2.4-.3-3.6,0-2.5,1.1-4.8,2.9-6.5,1.8-1.7,4.1-2.7,6.6-2.6,1.2,0,2.3.2,3.4.6,1.1.5,2,1.2,2.8,2,.8.9,1.3,1.9,1.7,3,.3,1.1.4,2.3.2,3.5,0,.4,0,.8-.2,1.2ZM1431.4,957.2h11.2c0-.7-.1-1.4-.4-2-.3-.6-.7-1.2-1.1-1.7s-1.1-.8-1.7-1.1c-.6-.2-1.3-.3-2-.3-1.4,0-2.8.5-3.9,1.4-1.1.9-1.8,2.2-2.1,3.6Z"/>
    <path id="Vector_221" class="st20" d="M1466.7,957.2l-.7,10.1h-3.2l.7-9.7c.3-3.5-1.3-5.2-4.3-5.2-.8,0-1.6,0-2.3.4-.7.3-1.4.7-2,1.3-.6.5-1,1.2-1.3,1.9-.3.7-.4,1.5-.4,2.3l-.7,9.1h-3.2l1.3-17.6h3.1v2.7c.8-.9,1.8-1.7,2.9-2.2,1.1-.5,2.4-.7,3.6-.7.9,0,1.9.1,2.8.5.9.4,1.7.9,2.3,1.7s1.1,1.6,1.3,2.5c.2.9.3,1.9,0,2.8Z"/>
    <path id="Vector_222" class="st20" d="M1490.2,942.6l-1.8,24.6h-3.1v-2.8c-.8,1-1.8,1.7-2.9,2.3-1.1.5-2.4.8-3.6.8-1.2,0-2.3-.1-3.4-.6-1.1-.5-2.1-1.1-2.8-2-.8-.9-1.4-1.9-1.7-3-.3-1.1-.4-2.3-.2-3.5,0-1.2.2-2.5.7-3.6.5-1.1,1.2-2.2,2.1-3,.9-.9,2-1.5,3.1-2,1.2-.4,2.4-.6,3.6-.6,1.2,0,2.3.2,3.3.7,1,.5,1.9,1.2,2.6,2.2l.7-9.7,3.4.3ZM1485.7,958.5c.1-.8.1-1.6-.1-2.3-.2-.8-.6-1.5-1.1-2-.5-.6-1.2-1.1-1.9-1.4-.7-.3-1.5-.5-2.3-.4-1.7,0-3.3.6-4.5,1.8-1.2,1.2-1.9,2.7-1.9,4.4-.1.8,0,1.6.1,2.3.2.8.6,1.5,1.1,2.1s1.2,1.1,1.9,1.4c.7.3,1.5.5,2.3.4.8,0,1.7-.1,2.5-.4.8-.3,1.5-.7,2.1-1.3.6-.6,1.1-1.3,1.4-2,.3-.8.5-1.6.6-2.4h-.2Z"/>
    <path id="Vector_223" class="st20" d="M1518.1,957h-6.1l-.4,5.9h-2.8l.4-5.9h-6v-2.6h6l.5-6h2.7l-.4,6h6v2.6Z"/>
    <g id="friend2">
      <path id="Vector_224" class="st18" d="M1103.4,941.6c-6.6-8.6-14.3-16.2-22.8-22.8,7.1,7,13.5,14.7,19.1,22.8,1.2,1.6,2.3,3.3,3.4,5.1.5.7,1,1.5,1.4,2.2,1.8,3,3.5,6.2,4.9,9.4-1.3,1.5-2.7,2.8-4.1,4.1l-3.6,3.2c-.6.6-1.3,1.1-2,1.7-6.9,5.7-14.5,10.6-22.6,14.6-14.7,7.3-30.9,11.1-47.4,11.1-8.5,0-16.9-1-25.1-3.1-10.2-2.6-19.9-6.9-28.6-12.7,0-.3,0-.6,0-.9,1.9-8,3.7-16.7,5.1-25.6.2-1.3.4-2.6.6-3.9,2.2-13.9,3-28.1,2.3-42.2-3.2-50.2,6.4-77.2,21.5-81.3h.3c7.8-2.1,14.7-3.7,20.7-4.6,4.5-.8,9.1-1.4,13.7-1.6h.4c26.3-1.2,32,11.4,41.4,26.4.9,1.5,1.6,3,2.2,4.6,6.4,17.4-3.4,43.6,3.4,60.3,1.2,3.4,3.4,6.4,6.2,8.8,9.2,7.8,16.9,17.2,22.5,27.9.7,1.3,1.2,2.4,1.6,3.3-1.8,2.4-3.8,4.8-5.8,7-2.5-4.9-5.3-9.5-8.6-13.8Z"/>
      <path id="Vector_225" class="st18" d="M1123,933.9c-.2,0-.4,0-.6-.2-.2-.1-.3-.3-.4-.5-3.8-8.6-12.8-12.6-21.4-16.4-4.2-1.7-8.2-3.8-12-6.3-10.1-7.3-6.5-36-6.3-37.3,0-.3.2-.6.4-.7.2-.2.5-.2.8-.2.3,0,.5.2.7.4.2.2.2.5.2.8,0,.3-3.6,28.6,5.5,35.2,3.6,2.4,7.5,4.4,11.6,6,8.6,3.8,18.3,8.1,22.5,17.5,0,.1,0,.3,0,.4,0,.1,0,.3,0,.4,0,.1-.1.3-.2.4,0,.1-.2.2-.3.2h-.5Z"/>
      <path id="Vector_226" class="st20" d="M1119.4,946c-.5.8-1,1.6-1.6,2.3-1.8,2.4-3.8,4.8-5.8,7-.9,1-1.8,2-2.8,3-1,1-2.7,2.8-4.1,4.1l-3.6,3.2,1.8-24.1c4.3.8,8.6,1.9,12.8,3.3,1.3.2,2.4.7,3.4,1.1Z"/>
      <path id="Vector_227" class="st18" d="M1099.5,967.3c-6.9,5.7-14.5,10.6-22.6,14.6-14.7,7.3-30.9,11.1-47.3,11.1-8.5,0-16.9-1-25.1-3.1-10.2-2.6-19.9-6.9-28.6-12.7-.6-.3-1.1-.7-1.6-1.1-3-2.1-5.9-4.3-8.7-6.8-1.1-4.2-2.3-8.7-3.5-13.3,3-1,6.1-1.9,9.1-2.7h.5c2.9-.8,5.8-1.6,8.8-2.3h.7l5.9-1.4c3.2-.7,6.3-1.4,9.4-2,3.1-.6,6.3-1.2,9.4-1.7l5.8-1c4.2-.6,8.4-1.2,12.6-1.7,4.2-.5,7.3-.8,10.9-1.1l7.8-.6,9.9-.5h9.1c6.9,0,13.7.5,19.4.9l7.2.5,3.8.3,3.6.3s3.3.8,3.8,22.2c0,.5,0,1.4,0,2.2Z"/>
      <path id="Vector_228" class="st23" d="M1099.4,964.9c-7.4,3.5-15.2,6.3-23.2,8.2-24.7,5.5-50,7.3-75.2,5.4-9.1-.5-17.5-1.3-25-2.2l-1.8-.2c-3-2.1-5.9-4.3-8.7-6.8-1.1-4.2-2.3-8.7-3.5-13.3,3-1,6.1-1.9,9.1-2.7h.5c2.9-.8,5.8-1.6,8.8-2.3h.7l5.9-1.4c3.2-.7,6.3-1.4,9.4-2,3.1-.6,6.3-1.2,9.4-1.7l5.8-1c4.2-.6,8.4-1.2,12.6-1.7,4.2-.5,7.3-.8,10.9-1.1l7.8-.6,9.9-.5h9.1c6.9,0,13.7.5,19.4.9l7.2.5,3.8.3,3.6.3s3.3.6,3.8,22Z"/>
      <path id="Vector_229" class="st20" d="M1004.4,989.8c-10.2-2.6-19.9-6.9-28.6-12.7-.6-.3-1.1-.7-1.6-1.1-3-2.1-5.9-4.3-8.7-6.8l-.3-.3c-3.1-2.8-6-5.9-8.8-9.1v-1.8l25.3-11.4,2.9-1.3s1,1.4,2.5,3.8c5.7,9.3,10.4,19.1,14,29.3,1.3,3.8,2.4,7.6,3.2,11.5Z"/>
      <path id="Vector_230" class="st20" d="M1105.1,962.4l-3.6,3.2c-.6.6-1.3,1.1-2,1.7-6.9,5.7-14.5,10.6-22.6,14.6,0-3-.4-6-.6-8.8-1.2-11.5-3.4-22.8-6.6-33.9l33.7,2.4c.4,2.2.7,4.6,1,7.4.4,4.1.7,8.6.8,13.5Z"/>
      <path id="Vector_231" class="st20" d="M965.2,969c-3.1-2.8-6-5.9-8.8-9.1-.4-.4-.7-.8-1-1.2l.9-.6c3.9,2.8,7,6.6,8.9,11Z"/>
      <path id="Vector_232" class="st23" d="M1039.2,964.1c-25.5-3.3-32.4-14.3-32.4-14.3,11.3-9.9,10.4-24.6,8.5-33.7-.6-2.9-1.5-5.7-2.6-8.4l30.5,5.8c-1,4.3-1.8,8.7-2.2,13.1-.4,3.2-.4,6.4,0,9.6,1.4,9.1,6.7,9.4,6.7,9.4,4.8,10.2-8.6,18.6-8.6,18.6Z"/>
      <path id="Vector_233" class="st7" d="M1041.1,926.5c-.4,3.2-.4,6.4,0,9.6-12.1-1.6-20.7-11.5-25.9-20-.6-2.9-1.5-5.7-2.6-8.4l30.6,5.8c-1,4.3-1.7,8.7-2.1,13.1Z"/>
      <path id="Vector_234" class="st23" d="M1043.4,827.5c26.9,1,33.9,15.8,32.7,43.6-1.5,34.9-11.9,59.4-44.6,50.6-44.6-11.8-32.7-95.9,11.9-94.2Z"/>
      <path id="Vector_235" class="st28" d="M1059,869c1.7,4.1,3.9,8,6.6,11.5-.9,1.1-2.1,1.9-3.4,2.4-1.3.5-2.7.6-4.1.4l.9-14.3Z"/>
      <path id="Vector_236" class="st18" d="M1042.8,866.2c0,2.2-1.5,4-3,4s-2.5-1.9-2.3-4.1c.2-2.2,1.6-4,3-4,1.5,0,2.5,1.8,2.3,4Z"/>
      <path id="Vector_237" class="st18" d="M1039.8,862.3l5-1.8s-2.7,4-5,1.8Z"/>
      <path id="Vector_238" class="st18" d="M1070.3,866.2c0,2.2-1.5,4-3,4s-2.5-1.8-2.3-4.1c.2-2.2,1.6-4,3-4,1.5,0,2.5,1.8,2.3,4.1Z"/>
      <path id="Vector_239" class="st18" d="M1067.4,862.2l5-1.8s-2.7,4-5,1.8Z"/>
      <path id="Vector_240" class="st18" d="M1032.6,852.8c-.3,0-.6,0-.9-.3-.3-.2-.5-.4-.6-.7-.1-.3-.2-.6-.1-.9,0-.3.2-.6.4-.8,1.8-1.7,4-2.9,6.4-3.7,2.4-.7,4.9-.9,7.3-.5.2,0,.4.1.6.2.2.1.3.3.5.4.1.2.2.4.3.6,0,.2,0,.4,0,.6,0,.2-.1.4-.2.6-.1.2-.3.3-.4.5-.2.1-.4.2-.6.3-.2,0-.4,0-.6,0-1.9-.3-3.8-.1-5.7.4-1.8.5-3.5,1.5-5,2.7-.2.2-.4.3-.6.4-.2,0-.5.1-.7,0Z"/>
      <path id="Vector_241" class="st18" d="M1074.7,851.4c-.4,0-.7-.1-1-.4-1.2-1.1-2.7-1.8-4.3-2.2-1.6-.4-3.2-.4-4.8,0-.2,0-.4,0-.6,0-.2,0-.4,0-.6-.2-.2-.1-.4-.2-.5-.4s-.2-.4-.3-.6c0-.2,0-.4,0-.6,0-.2,0-.4.2-.6.1-.2.2-.4.4-.5.2-.1.4-.2.6-.3,2.1-.5,4.2-.5,6.3,0,2.1.5,4,1.5,5.6,2.8.2.1.3.3.4.5.1.2.2.4.2.6,0,.2,0,.4,0,.6,0,.2-.2.4-.3.6-.1.2-.3.3-.5.4-.2.1-.4.2-.6.2Z"/>
      <path id="Vector_242" class="st18" d="M1053,893.8c-1.6,2.9-3,6-4.2,9.1h-1.7c-7.7-1.1-10.7-4.2-11.8-7.3-.5-1.6-.5-3.2-.2-4.8.2-.9.4-1.8.8-2.7,4.4,2.8,9.3,4.6,14.5,5.3,1.6.2,2.6.3,2.6.3Z"/>
      <path id="Vector_243" class="st20" d="M1050.4,893.4l-1.3,2.7c-7.3-1-12.1-2.7-14-5.3.2-.9.4-1.8.8-2.7,4.4,2.8,9.3,4.6,14.5,5.3Z"/>
      <path id="Vector_244" class="st29" d="M1047.1,902.8c-7.7-1.1-10.7-4.2-11.8-7.3,2.9.4,5.7,1.4,8.2,2.9,1.7,1,2.9,2.5,3.6,4.3Z"/>
      <path id="Vector_245" class="st18" d="M1009,872.1s15.1-21.7,15.1-38.9c0,0,55.6-19.9,52.2,34.5,0,0,10.6-48-35.5-50.8-46.1-2.8-53.5,65.1-32,86.2,0-.1-9.2-17.3.1-31Z"/>
      <path id="Vector_246" class="st23" d="M1012.7,877.8c0-1.5-.2-3-.7-4.4-.6-1.4-1.4-2.7-2.5-3.8-1.1-1.1-2.4-1.9-3.8-2.4-1.4-.5-2.9-.8-4.4-.7-8.4.6-14.3,17.6,5.9,22.5,2.9.7,4.9-2.1,5.5-11.2Z"/>
      <path id="Vector_247" class="st18" d="M1029.7,809.7c14.8-4.1,53.7-4.6,59.9,35.7l-5.6,2.7c-8.9-4.6-18.5-7.6-28.5-8.6-1.9-3.8-4.1-7.5-6.7-10.8,0,3.4-.2,6.9-.8,10.3,0,0-25.6,3.7-37.8,14.1-19,16.2-20.9,26.5-20.9,26.5,0,0-8.1-56.5,40.3-69.7Z"/>
      <path id="Vector_248" class="st18" d="M1093.4,845.2c-.2,0-.5-.1-.7-.3-.2-.2-.3-.4-.4-.6-1.2-5.9-3.6-11.5-7.1-16.4s-8-9-13.2-12c-19.3-10.5-44.1-2.2-44.4-2.1-.3,0-.6,0-.8,0-.3-.1-.5-.3-.6-.6,0-.3,0-.6,0-.9.1-.3.4-.5.7-.6,1-.4,26-8.6,46.1,2.3,5.5,3.1,10.3,7.4,14,12.6s6.3,11,7.5,17.2c0,.3,0,.6-.1.8-.1.3-.4.4-.7.5h-.3Z"/>
    </g>
    <path id="Vector_249" class="st3" d="M1259.2,1078.2h-110.4c-.7,0-1.3-.1-1.9-.4-.6-.3-1.1-.7-1.6-1.2-.4-.5-.8-1.1-1-1.7-.2-.6-.2-1.3-.2-1.9.1-1.4.7-2.7,1.8-3.6,1-.9,2.3-1.5,3.7-1.5h110.3c.7,0,1.3.1,1.9.4.6.3,1.1.7,1.6,1.1.4.5.8,1.1,1,1.7.2.6.2,1.3.2,1.9-.1,1.4-.8,2.7-1.8,3.6-1,1-2.3,1.5-3.7,1.5Z"/>
    <path id="Vector_250" class="st3" d="M1386.3,1109.1h-239.5c-.6,0-1.3-.1-1.9-.4-.6-.3-1.1-.7-1.6-1.1-.4-.5-.8-1.1-.9-1.7-.2-.6-.3-1.3-.2-1.9.1-1.4.8-2.7,1.8-3.6,1-1,2.4-1.5,3.8-1.5h239.8c.7,0,1.3.1,1.9.4.6.3,1.1.7,1.6,1.1.4.5.8,1.1.9,1.7.2.6.2,1.3.2,1.9-.1,1.4-.8,2.8-1.9,3.7-1.1.9-2.5,1.5-3.9,1.4Z"/>
    <path id="Vector_251" class="st3" d="M1384.2,1135h-239.6c-.6,0-1.3-.1-1.9-.4-.6-.3-1.1-.7-1.6-1.1-.4-.5-.8-1.1-1-1.7-.2-.6-.2-1.3-.2-1.9.1-1.4.7-2.7,1.7-3.6,1-.9,2.3-1.5,3.7-1.5h239.6c.7,0,1.3.1,1.9.4.6.3,1.1.7,1.6,1.2.4.5.8,1.1.9,1.7.2.6.2,1.3.2,1.9-.1,1.4-.7,2.7-1.8,3.6-1,.9-2.3,1.5-3.7,1.5Z"/>
    <path id="Vector_252" class="st1" d="M1121.2,1144.8c0,.4,0,.8,0,1.1-.7,8.6-2.5,17.1-5.3,25.3-2.3,7.2-5.4,14-9.1,20.6-3.7,6.3-8,12.3-12.9,17.8-1.3,1.5-2.7,3-4.1,4.6-2.2,2.2-4.6,4.6-7,6.5h-.2c-4.7,4-9.7,7.7-14.9,10.9-6.8,4.2-14.1,7.7-21.7,10.3-3.5,1.2-7.1,2.2-10.7,3.1-8,1.9-16.1,2.9-24.3,2.9h-4.6c-4.4-.2-8.8-.7-13.2-1.4-4.6-.8-9.2-2-13.7-3.6-2.8-.9-5.6-2-8.4-3.2-3.4-1.4-6.6-3.1-9.7-5.1-2.1-1.2-4.1-2.5-6.1-3.9-13.5-9.6-24.3-22.6-31.2-37.7-6.9-15.1-9.8-31.7-8.3-48.2,2.4-27.9,15.1-53.8,35.5-72.9,20.5-19.1,47.3-29.9,75.2-30.3,13.2-.1,26.3,2.6,38.4,7.8,12.1,5.3,23,13,31.9,22.8,8.9,9.7,15.7,21.2,19.9,33.8,4.2,12.5,5.7,25.8,4.5,38.9Z"/>
    <path id="Vector_253" class="st1" d="M1501.8,1241.1h-214c-1.5,0-2.9-.3-4.2-.8-1.3-.6-2.6-1.4-3.5-2.5-1-1.1-1.7-2.3-2.2-3.7-.5-1.4-.6-2.8-.5-4.3l2.6-34.4c.2-3.1,1.6-5.9,3.9-8,2.2-2.1,5.2-3.3,8.3-3.4h214c1.5,0,2.9.3,4.3.8,1.3.6,2.6,1.4,3.5,2.5,1,1.1,1.8,2.3,2.2,3.7.5,1.4.6,2.9.5,4.3l-2.6,34.4c-.3,3.1-1.7,5.9-3.9,8-2.2,2.1-5.2,3.3-8.3,3.3Z"/>
    <path id="Vector_254" class="st20" d="M1310.7,1216.5h-12.3l-3,5.8h-3.4l12.2-23.2h3.3l8.8,23.2h-3.5l-2.1-5.8ZM1309.7,1213.8l-4.2-11.4-5.8,11.4h10Z"/>
    <path id="Vector_255" class="st20" d="M1337.4,1197.7l-1.8,24.6h-3.1l.2-2.8c-.8,1-1.8,1.7-2.9,2.2-1.1.5-2.3.8-3.6.7-1.2,0-2.4-.1-3.4-.6s-2.1-1.1-2.8-2c-.8-.9-1.4-1.9-1.7-3.1-.3-1.1-.4-2.3-.2-3.5,0-1.2.2-2.5.7-3.6.5-1.1,1.2-2.2,2.1-3,.9-.8,1.9-1.5,3.1-1.9,1.2-.4,2.4-.6,3.6-.6,1.2,0,2.3.2,3.3.7,1,.5,1.9,1.2,2.6,2.2l.7-9.7,3.1.3ZM1333.1,1213.5c.1-.8,0-1.6-.1-2.3s-.6-1.5-1.1-2.1c-.5-.6-1.2-1.1-1.9-1.4-.7-.3-1.5-.4-2.3-.4-1.7,0-3.2.6-4.4,1.8-1.2,1.2-1.9,2.7-1.9,4.4-.1.8,0,1.6.1,2.3.2.8.6,1.5,1.1,2,.5.6,1.2,1.1,1.9,1.4.7.3,1.5.5,2.3.4,1.7,0,3.3-.6,4.4-1.8,1.2-1.2,1.9-2.7,1.9-4.4Z"/>
    <path id="Vector_256" class="st20" d="M1360,1197.7l-1.8,24.6h-3.1l.2-2.8c-.8,1-1.8,1.7-2.9,2.2-1.1.5-2.3.8-3.6.7-1.2,0-2.3-.1-3.4-.6-1.1-.5-2.1-1.1-2.9-2-.8-.9-1.4-1.9-1.7-3.1-.3-1.1-.4-2.3-.2-3.5,0-1.2.2-2.5.7-3.6.5-1.1,1.2-2.2,2.1-3,.9-.8,2-1.5,3.1-1.9,1.1-.4,2.4-.6,3.6-.6,1.1,0,2.3.2,3.3.7,1,.5,1.9,1.2,2.6,2.2l.7-9.7,3.2.3ZM1355.7,1213.5c.1-.8,0-1.6-.1-2.3-.2-.8-.6-1.5-1.1-2.1-.5-.6-1.2-1-1.9-1.4-.7-.3-1.5-.5-2.3-.4-1.7,0-3.3.6-4.4,1.8-1.2,1.2-1.9,2.7-1.9,4.4-.1.8,0,1.6.1,2.3.2.8.6,1.5,1.1,2.1.5.6,1.2,1.1,1.9,1.4.7.3,1.5.5,2.3.4,1.7,0,3.2-.6,4.4-1.8,1.2-1.2,1.9-2.7,1.9-4.4Z"/>
    <path id="Vector_257" class="st20" d="M1378,1203.2v1.5h5.1l-.2,2.6h-5l-1.1,15h-3.2l1.1-15h-3l.2-2.6h3.1v-1.5c0-.8.2-1.6.5-2.3.3-.7.8-1.4,1.4-1.9.6-.5,1.3-.9,2-1.2.8-.3,1.5-.4,2.3-.3,1.2,0,2.5.3,3.5,1.1l-1.2,2.4c-.7-.5-1.5-.8-2.4-.8-.4,0-.8,0-1.2.1-.4.1-.8.4-1.1.7-.3.3-.5.6-.7,1-.2.4-.2.8-.2,1.2Z"/>
    <path id="Vector_258" class="st20" d="M1398.1,1204.5l-.2,3.1h-.7c-.8,0-1.6,0-2.3.4-.7.3-1.4.7-2,1.3-.6.5-1,1.2-1.3,1.9-.3.7-.4,1.5-.4,2.3l-.6,8.8h-3.2l1.3-17.6h3.1v2.9c.7-1,1.7-1.9,2.8-2.4,1.1-.6,2.4-.8,3.6-.7Z"/>
    <path id="Vector_259" class="st20" d="M1401.9,1199.3c0-.6.3-1.1.7-1.5.4-.4,1-.6,1.6-.6.3,0,.5,0,.8.1.2,0,.5.2.7.4s.3.4.4.7c0,.2.1.5.1.8,0,.6-.3,1.1-.7,1.5-.4.4-1,.6-1.6.6-.3,0-.5,0-.8-.1-.2,0-.5-.2-.7-.4-.2-.2-.3-.4-.4-.7,0-.2-.1-.5,0-.8ZM1401.9,1204.7h3.2l-1.3,17.6h-3.2l1.3-17.6Z"/>
    <path id="Vector_260" class="st20" d="M1426.3,1214.5h-14.2c0,.7.2,1.5.6,2.1.3.7.8,1.2,1.3,1.7.6.5,1.2.9,1.9,1.1.7.2,1.4.3,2.2.2,1,0,1.9-.2,2.8-.5.9-.4,1.7-.9,2.4-1.6l1.6,2.1c-.9.9-2,1.7-3.3,2.2-1.2.5-2.5.7-3.9.7-1.2.1-2.4,0-3.6-.5-1.1-.4-2.2-1.1-3-2-.8-.9-1.5-1.9-1.9-3.1-.4-1.2-.5-2.4-.3-3.6,0-2.5,1.1-4.8,2.9-6.5,1.8-1.7,4.1-2.7,6.6-2.6,1.2,0,2.3.2,3.4.6,1.1.5,2,1.2,2.8,2,.8.9,1.3,1.9,1.6,3,.3,1.1.4,2.3.2,3.4v1.2ZM1412.2,1212.2h11.2c0-.7-.1-1.4-.4-2-.3-.6-.7-1.2-1.1-1.7-.5-.5-1.1-.8-1.7-1.1-.6-.2-1.3-.3-2-.3-1.4,0-2.8.5-3.9,1.4-1.1.9-1.8,2.2-2.1,3.7h0Z"/>
    <path id="Vector_261" class="st20" d="M1447.6,1212.2l-.8,10.1h-3.2l.7-9.8c.3-3.4-1.3-5.1-4.3-5.1-.8,0-1.6,0-2.3.3s-1.4.7-2,1.2c-.6.5-1,1.2-1.3,1.9-.3.7-.4,1.5-.4,2.3l-.7,9.1h-3.2l1.3-17.6h3v2.7c.8-.9,1.8-1.7,2.9-2.2s2.4-.7,3.6-.7c1,0,2,0,2.9.5.9.4,1.7.9,2.3,1.7.6.7,1.1,1.6,1.3,2.6.2.9.3,1.9,0,2.9Z"/>
    <path id="Vector_262" class="st20" d="M1470.9,1197.7l-1.8,24.6h-2.7v-2.8c-.8,1-1.8,1.7-2.9,2.2-1.1.5-2.3.8-3.6.7-1.2,0-2.3-.1-3.4-.6-1.1-.4-2.1-1.1-2.8-2-.8-.9-1.4-1.9-1.7-3.1-.3-1.1-.4-2.3-.2-3.5,0-1.2.2-2.5.7-3.6.5-1.1,1.2-2.2,2.1-3,.9-.8,1.9-1.5,3.1-1.9,1.2-.4,2.4-.6,3.6-.6,1.1,0,2.3.2,3.3.7,1,.5,1.9,1.2,2.6,2.2l.7-9.7,3.1.3ZM1466.4,1213.5c.1-.8,0-1.6-.1-2.3s-.6-1.5-1.1-2.1c-.5-.6-1.2-1.1-1.9-1.4-.7-.3-1.5-.4-2.3-.4-1.7,0-3.3.6-4.5,1.8-1.2,1.2-1.9,2.7-1.9,4.4-.1.8,0,1.6.1,2.3.2.8.6,1.5,1.1,2,.5.6,1.2,1.1,1.9,1.4.7.3,1.5.5,2.3.4.8,0,1.7,0,2.5-.3.8-.3,1.5-.7,2.2-1.3.6-.6,1.1-1.3,1.5-2.1.3-.8.5-1.6.6-2.5h-.4Z"/>
    <path id="Vector_263" class="st20" d="M1499,1212h-6l-.4,6h-2.8l.5-6h-6v-2.6h6l.5-6h3.1l-.5,6h6l-.4,2.6Z"/>
    <g id="friend3">
      <path id="Vector_264" class="st26" d="M1115.7,1171.3c-2.3,7.1-5.4,14-9.1,20.5l-2.6-3.7c4.2-5.4,8.1-11,11.7-16.8Z"/>
      <path id="Vector_265" class="st18" d="M1121.1,1146c-.7,8.6-2.5,17.1-5.3,25.3-2.3,7.1-5.4,14-9.1,20.5-3.7,6.3-8,12.3-12.9,17.8-1.3,1.6-2.7,3-4.1,4.6-2.2,2.2-4.6,4.6-7,6.5-2.4-16.3-3.7-30.2-3.7-30.2l.5-.5,41.6-44Z"/>
      <path id="Vector_266" class="st11" d="M1121.1,1146c-.7,8.6-2.5,17.1-5.3,25.3-2.3,7.1-5.4,14-9.1,20.5-3.7,6.3-8,12.3-12.9,17.8-1.3,1.6-2.7,3-4.1,4.6-2.2,2.2-4.6,4.6-7,6.5-2.4-16.3-3.7-30.2-3.7-30.2l.5-.5,41.6-44Z"/>
      <path id="Vector_267" class="st18" d="M1082.2,1220.8c-4.7,4-9.7,7.7-14.9,10.9-6.8,4.2-14.1,7.7-21.7,10.3-3.3,1.8-7,2.9-10.7,3.1-8,1.9-16.1,2.9-24.3,2.9h-4.6c-4.4-.2-8.8-.7-13.2-1.4-4.6-.9-9.2-2-13.7-3.6-2.8-.9-5.6-2-8.4-3.2v-1.6l-.5-5.8-1.4-19h0c7.7-.1,15.5-.7,23.1-1.6,8.8-1,17.6-2.8,26.1-5.3,3.7-1.1,7.4-2.5,10.9-4.2,1.6-.8,3.1-1.7,4.6-2.6,6.6-.2,13.2,1,19.4,3.4l.7.2c10.6,4.1,20.3,10.1,28.7,17.7Z"/>
      <path id="Vector_268" class="st12" d="M1082.2,1220.8c-4.7,4-9.7,7.7-14.9,10.9-6.8,4.2-14.1,7.7-21.7,10.3-3.3,1.8-7,2.9-10.7,3.1-8,1.9-16.1,2.9-24.3,2.9h-4.6c-4.4-.2-8.8-.7-13.2-1.4-4.6-.9-9.2-2-13.7-3.6-2.8-.9-5.6-2-8.4-3.2v-1.6l-.5-5.8-1.4-19h0c7.7-.1,15.5-.7,23.1-1.6,8.8-1,17.6-2.8,26.1-5.3,3.7-1.1,7.4-2.5,10.9-4.2,1.6-.8,3.1-1.7,4.6-2.6,6.6-.2,13.2,1,19.4,3.4l.7.2c10.6,4.1,20.3,10.1,28.7,17.7Z"/>
      <path id="Vector_269" class="st18" d="M1082.4,1220.6c0,.2,0,.3,0,.5l-.3-.3c-4.7,4-9.7,7.7-14.9,10.9-6.8,4.2-14.1,7.7-21.7,10.3-3.3,1.8-7,2.9-10.7,3.1-7.9,1.9-16.1,2.9-24.3,2.9h-4.6c-4.4-.2-8.8-.7-13.2-1.4-4.6-.8-9.2-2-13.7-3.6-2.8-.9-5.6-2-8.4-3.2-3.4-1.5-6.6-3.1-9.7-5.1l6.3-1.6c1-.2,1.9-.5,2.9-.8,4.6-1.2,9.1-2.5,13.7-3.8,10-2.9,19.1-5.8,27.4-8.6,6.8-2.3,13.1-4.6,18.8-6.8l1.7-.6c5.7-2.2,10.8-4.3,15.4-6.3l2.5-1,4.2-1.9,4.1-1.8c7.3-3.3,14.5-7.1,21.4-11.3h.3c3.5,8.1,6.8,16.3,9.9,24.3-2.2,1.9-4.6,4.1-7,6.2Z"/>
      <path id="Vector_270" class="st26" d="M1045.5,1241.9c-3.3,1.8-7,2.9-10.7,3.1-9.4,1.2-19,.2-28-2.7-3-1-6-2.3-8.9-3.7-5.3-2.7-10.2-6.2-14.4-10.3,3.2-3.4,5.5-7.4,6.9-11.8.6-1.6,1.1-3.3,1.5-5,2.1-9.6,2.8-19.4,2.1-29.2-.2-5.5-.7-10.9-1.4-15.9-.4-3.2-.9-6.3-1.3-9.1-.2-1.6-.5-3-.8-4.3l2.3,1.8,3.1,2.4,11.2,8.9,24.1,18.8c0,.1,0,.3,0,.4-.8,3-1.4,6.1-1.8,9.1-.3,2.4-.5,4.9-.4,7.3,0,3.6.9,7.2,2.5,10.4.3.5.6,1,.9,1.6,2.1,2.8,4.8,5.1,7.8,6.8,3.1,1.7,6.5,2.7,10,3,1,1.5,1.6,3.2,1.9,4.9.3,1.8.2,3.6-.2,5.3-.4,1.7-1.2,3.3-2.3,4.8-1.1,1.4-2.5,2.6-4,3.4Z"/>
      <path id="Vector_271" class="st7" d="M996.1,1171.3c1.7,9.7,5.9,18.7,12.2,26.2,6.3,7.5,14.5,13.2,23.7,16.4-5-7.5-3.7-18.3-1.2-28.4,0-.1,0-.3,0-.4l-24.1-18.9c-.6,3.8-11.1,1.3-10.7,5.1Z"/>
      <path id="Vector_272" class="st26" d="M983.4,1106.6c3.9-9.9,11.5-18,21.1-22.6,9.6-4.6,20.6-5.5,30.9-2.4,5.6,1.9,10.7,5.3,14.6,9.8,9.9,5.4,15,22.8,13.2,34.2.3,2.4.4,4.9.5,7.3,2,6.6,11.4,13.2,4.6,33.4-8.5,25.1-35.7,31.6-52.4,27.4-7.3-.8-14.2-4-19.5-9.1-1.7-1.5-3.2-3.2-4.6-4.9-10.1-12.9-9.9-29.2-11.3-54.8-.4-6.2.7-12.4,3.1-18.2Z"/>
      <path id="Vector_273" class="st18" d="M1024.4,1130c0,2.3,1.2,4.2,2.7,4.1,1.6,0,2.8-2.2,2.8-4.6s-1.2-4.1-2.8-4.1c-1.6,0-2.8,2.3-2.8,4.6Z"/>
      <path id="Vector_274" class="st18" d="M1050.9,1128.1c0,2.4,1.3,4.2,2.8,4.1,1.5-.1,2.8-2.1,2.8-4.6s-1.2-4.2-2.8-4.1c-1.6,0-2.8,2.3-2.8,4.6Z"/>
      <path id="Vector_275" class="st30" d="M1042.5,1129.9c2.8,6.9,6.5,13.4,11.2,19.3-1.6,1.3-3.4,2.2-5.4,2.7-2,.5-4,.6-6,.2l.2-22.2Z"/>
      <path id="Vector_276" class="st18" d="M1015.5,1120.9c.2,0,.5,0,.8,0,.2,0,.5-.2.7-.4,1.2-1.3,2.8-2.2,4.4-2.8,1.7-.6,3.4-.8,5.2-.7.4,0,.7,0,1.1-.2.3-.2.5-.5.6-.9,0-.2,0-.3,0-.5,0-.2,0-.3-.2-.5,0-.2-.2-.3-.4-.4-.1,0-.3-.2-.5-.2-2.2-.2-4.5,0-6.6.8-2.1.8-4,2-5.6,3.6-.2.3-.4.6-.4,1s.1.7.4,1l.4.4Z"/>
      <path id="Vector_277" class="st18" d="M1061.6,1119.9c.2,0,.5,0,.8,0,.1-.1.2-.3.3-.4,0-.2.1-.4.1-.5s0-.4-.1-.5c0-.2-.2-.3-.3-.4-1.5-1.5-3.4-2.7-5.5-3.3-2.1-.6-4.3-.7-6.4-.2-.4,0-.7.3-.9.6-.2.3-.3.7-.2,1,0,.2.1.3.2.5,0,.1.2.3.4.4.2.1.3.2.5.2.2,0,.4,0,.5,0,1.6-.3,3.3-.2,4.9.3,1.6.5,3,1.4,4.2,2.6.2.1.5.2.8.1.2,0,.5-.1.7-.2Z"/>
      <path id="Vector_278" class="st18" d="M1051.3,1091.7c-12.1-5.7-13.7,4.1-13.7,4.1,0,0-7.5-9.5-16.4-8.1-8.9,1.5-22.8,18.3-23.7,20.6-.9,2.3,3,6.5,3,6.5,0,0-3,26.6-3.9,34l-12.3,19.9c-10.9-19.5-15.8-41.7-14.1-63.9,2.5-37.9,77-36.1,77-36.1l4.2,23Z"/>
      <path id="Vector_279" class="st26" d="M967.1,1157.7c1.9,2.9,4.5,5.4,7.4,7.3,3,1.9,6.3,3.1,9.7,3.7,9.4,1.4,13.7-7.4,10.6-15.8-2.7-7.5-11-17.4-20.2-14.9-2,.5-3.9,1.5-5.5,2.9-1.6,1.4-2.8,3.1-3.5,5.1-.7,2-1,4-.8,6.1.2,2.1,1,4.1,2.2,5.8Z"/>
      <path id="Vector_280" class="st18" d="M1040.6,1160.6c-2.6,4.1-4.8,8.3-6.8,12.7l-2.4-.5c-10.7-2.3-14.6-7-15.7-11.5-.7-3.6-.2-7.3,1.6-10.5,5.8,4.5,12.5,7.6,19.7,9.1,2.2.4,3.7.7,3.7.7Z"/>
      <path id="Vector_281" class="st20" d="M1037.2,1159.7l-2.1,3.7c-10.1-2.2-16.8-5.2-19-9.1.3-1.3.8-2.5,1.4-3.7,5.8,4.5,12.5,7.6,19.7,9.1Z"/>
      <path id="Vector_282" class="st29" d="M1031.4,1172.8c-10.7-2.3-14.7-7-15.8-11.5,4,.9,7.8,2.6,11.2,5,2.2,1.6,3.8,3.9,4.6,6.5Z"/>
      <path id="Vector_283" class="st18" d="M1037.6,1095.8c.9-1.3,2.1-2.4,3.6-3.2,1.4-.7,3-1.1,4.6-1.1,5.6,0,5.4,14.1,11,16.8,5.6,2.6,12.5,3.1,13.7-8.4,0-7-2.2-13.8-6.4-19.4-4.2-5.6-10.1-9.7-16.9-11.6-8.3-2.7-17.3-2.2-25.2,1.6-6-1.1-12.3-1-18.3.5-8.8,2.5-12.7,8.5-22.2,32.9-3,7.7-8.4,9.1-11.5,14.9s-8.5,21.8,15.5,15.2c24-6.6,32.4-20.6,32.3-32-.1-11.4,12.6-12.5,19.8-6.3Z"/>
      <path id="Vector_284" class="st18" d="M1010.9,1219.8l-4.2,22.8-1,5.4c-4.4-.2-8.8-.7-13.2-1.4-4.6-.9-9.2-2.1-13.7-3.6-2.8-.9-5.6-2-8.4-3.2-3.4-1.4-6.6-3.1-9.7-5.1-2.1-1.2-4.1-2.5-6.1-3.9l13.1-7.7.7-9.9,21.9,3.4,20.5,3.1Z"/>
      <path id="Vector_285" class="st11" d="M1010.9,1219.8l-4.2,22.8-1,5.4c-4.4-.2-8.8-.7-13.2-1.4-4.6-.9-9.2-2.1-13.7-3.6-2.8-.9-5.6-2-8.4-3.2-3.4-1.4-6.6-3.1-9.7-5.1-2.1-1.2-4.1-2.5-6.1-3.9l13.1-7.7.7-9.9h.2l21.6,3.4,20.5,3.1Z"/>
      <path id="Vector_286" class="st7" d="M1010.9,1219.8l-13.1,18.9-5.3,7.8c-4.6-.8-9.2-2-13.7-3.6l-8.4-4.9-3.6-2.1,1.7-22.8,21.9,3.4,20.5,3.2Z"/>
      <path id="Vector_287" class="st18" d="M1089.4,1214.1c-2.2,2.2-4.6,4.6-7,6.5,0,.2,0,.3,0,.5l-.3-.3c-4.7,4-9.7,7.7-14.9,10.9-6.9-9.1-12.6-16.4-16.8-21.3l-1.4-1.6-2.3-2.7-1.3-1.5c-.6-.7-1.2-1.4-1.9-2.1l-.6-.7-9.6-2.4,7.7-4.6,13.3,4.6,24.9-9.5c5.1,6.3,9.8,12.9,14,19.8-1.3,1.5-2.5,2.9-3.9,4.4Z"/>
      <path id="Vector_288" class="st11" d="M1089.4,1214.1c-2.2,2.2-4.6,4.6-7,6.5,0,.2,0,.3,0,.5l-.3-.3c-4.7,4-9.7,7.7-14.9,10.9-6.9-9.1-12.6-16.4-16.8-21.3l-1.4-1.6-2.3-2.7-1.3-1.5c-.6-.7-1.2-1.4-1.9-2.1l-.6-.7-9.6-2.4,7.7-4.6,13.3,4.6,24.9-9.5c5.1,6.3,9.8,12.9,14,19.8-1.3,1.5-2.5,2.9-3.9,4.4Z"/>
      <path id="Vector_289" class="st7" d="M1054.4,1199.4l10.3,5.6-16.1-2.8,1.8,8.2-7.5-8.6-9.6-2.4,7.7-4.6,13.3,4.6Z"/>
    </g>
    <path id="Vector_290" class="st3" d="M1240.1,1333.2h-110.4c-.6,0-1.3-.1-1.9-.4-.6-.3-1.1-.7-1.5-1.1-.4-.5-.8-1.1-1-1.7-.2-.6-.3-1.3-.2-1.9.1-1.4.8-2.7,1.8-3.6,1-.9,2.4-1.5,3.8-1.5h110.1c.7,0,1.3.1,1.9.4.6.3,1.1.7,1.6,1.1.4.5.8,1.1.9,1.7.2.6.2,1.3.2,1.9-.1,1.4-.7,2.6-1.7,3.6-1,.9-2.3,1.5-3.6,1.6Z"/>
    <path id="Vector_291" class="st3" d="M1367.2,1364.1h-239.7c-.7,0-1.3-.1-1.9-.4-.6-.3-1.1-.7-1.6-1.1-.4-.5-.8-1.1-.9-1.7-.2-.6-.3-1.3-.2-1.9.1-1.4.8-2.7,1.8-3.6,1-.9,2.3-1.5,3.7-1.5h239.8c.7,0,1.3.1,1.9.4.6.3,1.1.7,1.6,1.1.4.5.8,1.1.9,1.7.2.6.2,1.3.2,1.9-.1,1.4-.8,2.7-1.8,3.6-1,.9-2.4,1.5-3.8,1.5Z"/>
    <path id="Vector_292" class="st3" d="M1365.2,1390h-239.8c-.6,0-1.3-.1-1.9-.4-.6-.3-1.1-.7-1.6-1.1-.4-.5-.8-1-.9-1.7-.2-.6-.2-1.3-.2-1.9.1-1.4.7-2.7,1.8-3.6,1-.9,2.3-1.5,3.7-1.5h239.6c.6,0,1.3.1,1.9.4.6.3,1.1.7,1.6,1.1.4.5.8,1.1.9,1.7.2.6.2,1.3.2,1.9,0,1.3-.7,2.6-1.7,3.6-1,.9-2.2,1.5-3.6,1.6Z"/>
    <path id="Vector_293" class="st1" d="M1102.1,1399.8c-1.7,22.4-10.3,43.8-24.5,61.2-8.6,10.6-18.9,19.6-30.6,26.6l-3.2,1.9c-2.2,1.2-4.6,2.4-6.8,3.5-5.8,2.7-11.7,4.9-17.8,6.5-1.2.3-2.5.6-3.8.9-4.5,1.1-9.1,1.9-13.7,2.3-3.4.3-6.9.5-10.3.5s-4.2,0-6.2-.2c-24.1-1.2-46.9-11.7-63.6-29.1-1.2-1.3-2.4-2.7-3.6-4v-.3c-16.1-19.5-23.9-44.5-21.7-69.6,2.4-27.8,15-53.8,35.4-72.9,20.4-19.1,47.2-29.9,75.1-30.4,13.2-.2,26.4,2.4,38.6,7.6,12.2,5.2,23.1,13,32.1,22.7,9,9.7,15.8,21.2,20.1,33.8,4.2,12.5,5.8,25.8,4.6,39Z"/>
    <path id="Vector_294" class="st1" d="M1482.7,1496.2h-214c-1.5,0-2.9-.3-4.2-.9-1.3-.6-2.5-1.4-3.5-2.5-1-1.1-1.7-2.4-2.2-3.7-.5-1.4-.6-2.8-.5-4.3l2.6-34.4c.3-3.1,1.7-5.9,3.9-8,2.2-2.1,5.2-3.3,8.3-3.4h214c1.5,0,2.9.3,4.2.9,1.3.6,2.5,1.4,3.5,2.5,1,1.1,1.7,2.3,2.2,3.7.5,1.4.6,2.8.5,4.3l-2.6,34.4c-.3,3.1-1.6,5.9-3.9,8-2.2,2.1-5.2,3.3-8.3,3.4Z"/>
    <path id="Vector_295" class="st20" d="M1291.6,1471.5h-12.4l-3,5.8h-3.4l12.2-23.2h3.3l8.8,23.2h-3.5l-2.1-5.8ZM1290.6,1468.8l-4.2-11.4-5.8,11.4h10Z"/>
    <path id="Vector_296" class="st20" d="M1318.3,1452.7l-1.8,24.6h-3.1l.2-2.8c-.8,1-1.8,1.7-2.9,2.2-1.1.5-2.4.8-3.6.7-1.2,0-2.4-.1-3.4-.6-1.1-.5-2.1-1.1-2.8-2-.8-.9-1.4-1.9-1.7-3-.3-1.1-.4-2.3-.2-3.5,0-1.2.2-2.4.7-3.6.5-1.1,1.2-2.2,2.1-3,.9-.9,1.9-1.5,3.1-1.9,1.2-.4,2.4-.6,3.6-.6,1.2,0,2.3.2,3.3.7,1,.5,1.9,1.2,2.6,2.2l.7-9.7,3.2.3ZM1314,1468.5c.1-.8,0-1.6-.1-2.3-.2-.8-.6-1.5-1.1-2s-1.2-1.1-1.9-1.4c-.7-.3-1.5-.4-2.3-.4-1.7,0-3.3.6-4.4,1.8-1.2,1.2-1.9,2.7-1.9,4.4-.1.8,0,1.6.1,2.3.2.8.6,1.5,1.1,2.1.5.6,1.2,1.1,1.9,1.4.7.3,1.5.5,2.3.4,1.7,0,3.3-.6,4.5-1.8,1.2-1.2,1.9-2.8,1.9-4.4Z"/>
    <path id="Vector_297" class="st20" d="M1340.9,1452.7l-1.8,24.6h-3.1l.2-2.8c-.8,1-1.8,1.7-2.9,2.2-1.1.5-2.4.8-3.6.7-1.2,0-2.4-.1-3.4-.6-1.1-.4-2.1-1.1-2.9-2-.8-.9-1.4-1.9-1.7-3.1-.3-1.1-.4-2.3-.2-3.5,0-1.2.2-2.4.7-3.6.5-1.1,1.2-2.2,2.1-3,.9-.9,2-1.5,3.1-1.9,1.1-.4,2.4-.6,3.6-.6,1.1,0,2.3.2,3.3.7s1.9,1.2,2.6,2.2l.7-9.7,3.2.3ZM1336.5,1468.5c.1-.8,0-1.6-.1-2.3-.2-.8-.6-1.5-1.1-2s-1.2-1.1-1.9-1.4c-.7-.3-1.5-.4-2.3-.4-1.7,0-3.2.6-4.4,1.8-1.2,1.2-1.9,2.7-1.9,4.4-.1.8,0,1.6.1,2.3.2.8.6,1.5,1.1,2.1.5.6,1.2,1.1,1.9,1.4.7.3,1.5.5,2.3.4,1.7,0,3.3-.6,4.4-1.8,1.2-1.2,1.9-2.8,1.9-4.4Z"/>
    <path id="Vector_298" class="st20" d="M1358.9,1458.2v1.5h5.1l-.2,2.6h-5l-1.1,15h-3.2l1.2-15h-3l.2-2.6h3v-1.5c0-.8.2-1.6.5-2.3.3-.7.8-1.4,1.4-1.9.6-.5,1.3-.9,2-1.2s1.5-.3,2.3-.3c1.2,0,2.4.3,3.5,1l-1.1,2.4c-.7-.5-1.5-.8-2.4-.8-1.9,0-2.9,1.1-3.1,3.1Z"/>
    <path id="Vector_299" class="st20" d="M1379,1459.5l-.2,3.1h-.7c-.8,0-1.6,0-2.3.4-.7.3-1.4.7-2,1.3-.6.6-1,1.2-1.3,2-.3.7-.4,1.5-.4,2.3l-.6,8.8h-3.2l1.3-17.6h3v3c.7-1,1.7-1.9,2.8-2.4,1.1-.6,2.4-.8,3.6-.8Z"/>
    <path id="Vector_300" class="st20" d="M1382.7,1454.3c0-.6.3-1.1.7-1.5.4-.4,1-.6,1.6-.6.3,0,.5,0,.8.1.2,0,.5.2.7.4s.3.4.4.7c0,.2.1.5.1.8,0,.6-.3,1.1-.7,1.5-.4.4-1,.6-1.6.6-.3,0-.5,0-.8-.1-.2,0-.5-.3-.7-.4-.2-.2-.3-.4-.4-.7,0-.2-.1-.5,0-.8ZM1382.7,1459.7h3.2l-1.3,17.6h-3.2l1.3-17.6Z"/>
    <path id="Vector_301" class="st20" d="M1407,1469.6h-14.2c0,.7.2,1.5.6,2.1.3.7.8,1.2,1.3,1.7.6.5,1.2.8,1.9,1.1.7.2,1.4.3,2.2.2,1,0,1.9-.1,2.8-.5.9-.4,1.7-.9,2.4-1.6l1.6,2.1c-.9.9-2,1.7-3.3,2.2-1.2.5-2.5.7-3.9.6-1.2.1-2.4,0-3.6-.5-1.1-.4-2.2-1.1-3-2-.8-.9-1.5-1.9-1.9-3.1-.4-1.2-.5-2.4-.3-3.6,0-2.5,1.1-4.8,2.9-6.5,1.8-1.7,4.1-2.7,6.6-2.6,1.2,0,2.3.2,3.4.6,1.1.5,2,1.2,2.8,2,.8.9,1.3,1.9,1.6,3,.3,1.1.4,2.3.2,3.4,0,0-.1.9-.1,1.2ZM1393,1467.3h11.2c0-.7-.1-1.4-.4-2-.3-.6-.7-1.2-1.1-1.7-.5-.5-1.1-.8-1.7-1.1-.6-.2-1.3-.3-2-.3-1.4,0-2.7.6-3.7,1.5-1,.9-1.7,2.2-1.9,3.5h-.4Z"/>
    <path id="Vector_302" class="st20" d="M1428.4,1467.1l-.8,10.1h-3.2l.7-9.8c.3-3.4-1.3-5.1-4.6-5.1-.8,0-1.6,0-2.3.3-.7.3-1.4.7-2,1.2-.6.6-1,1.2-1.3,1.9-.3.7-.4,1.5-.4,2.3l-.7,9.1h-3.2l1.3-17.6h3.1v2.6c.8-.9,1.8-1.7,2.9-2.2,1.1-.5,2.4-.7,3.6-.7,1,0,2,0,2.9.4.9.4,1.7.9,2.4,1.7.7.7,1.1,1.6,1.4,2.5.3,1,.3,2,0,2.9Z"/>
    <path id="Vector_303" class="st20" d="M1452,1452.7l-1.8,24.6h-3.1l.2-2.8c-.8,1-1.8,1.7-2.9,2.2-1.1.5-2.4.8-3.6.7-1.2,0-2.3-.1-3.4-.6-1.1-.4-2.1-1.1-2.9-2-.8-.9-1.4-1.9-1.7-3.1-.3-1.1-.4-2.3-.2-3.5,0-1.2.2-2.4.7-3.6.5-1.1,1.2-2.2,2.1-3,.9-.9,1.9-1.5,3.1-1.9,1.2-.4,2.4-.6,3.6-.6,1.1,0,2.3.2,3.3.7s1.9,1.2,2.6,2.2l.7-9.7,3.2.3ZM1447.7,1468.5c.1-.8,0-1.6-.1-2.3-.2-.8-.6-1.5-1.1-2-.5-.6-1.2-1.1-1.9-1.4-.7-.3-1.5-.4-2.3-.4-1.7,0-3.3.6-4.5,1.8-1.2,1.2-1.9,2.7-1.9,4.4-.1.8,0,1.6.1,2.3.2.8.6,1.5,1.1,2.1.5.6,1.2,1.1,1.9,1.4.7.3,1.5.5,2.3.4,1.7,0,3.3-.6,4.5-1.8,1.2-1.2,1.9-2.8,1.9-4.4Z"/>
    <path id="Vector_304" class="st20" d="M1480.1,1467h-6l-.5,5.9h-2.8l.5-5.9h-6v-2.7h6l.5-5.9h2.8l-.5,5.9h6v2.7Z"/>
    <g id="friend4">
      <path id="Vector_305" class="st1" d="M1042.6,1458.6s-2.8-.3-7.3-.6c-5.7-.4-14.1-.9-22.8-1.2-4.3,0-8.8-.2-13.1,0h-2.1c-5.8.2-11.6.6-17.3,1-5.8.4-10.2,1-15.3,1.6-2,.3-4.1.5-6.1.8l-6.9,1c-11,1.3-21.7,4.1-32,8.1l-1.1.5c1.2,1.3,2.3,2.7,3.6,4,16.7,17.5,39.4,27.9,63.6,29.1,2.1,0,4.2.2,6.2.2,3.5,0,6.9,0,10.3-.5,4.6-.4,9.2-1.2,13.7-2.3,1.3-.2,2.5-.5,3.7-.9,6.1-1.7,12.1-3.8,17.8-6.5,2.3-1.1,4.6-2.3,6.8-3.5l3.2-1.9c11.7-7,22-16,30.6-26.6-11.3-.7-23-1.5-35.5-2.3Z"/>
      <path id="Vector_306" class="st5" d="M1042.6,1458.6s-2.8-.3-7.3-.6c-5.7-.4-14.1-.9-22.8-1.2-4.3,0-8.8-.2-13.1,0h-2.1c-5.8.2-11.6.6-17.3,1-5.8.4-10.2,1-15.3,1.6-2,.3-4.1.5-6.1.8l-6.9,1c-11,1.3-21.7,4.1-32,8.1l-1.1.5c1.2,1.3,2.3,2.7,3.6,4,16.7,17.5,39.4,27.9,63.6,29.1,2.1,0,4.2.2,6.2.2,3.5,0,6.9,0,10.3-.5,4.6-.4,9.2-1.2,13.7-2.3,1.3-.2,2.5-.5,3.7-.9,6.1-1.7,12.1-3.8,17.8-6.5,2.3-1.1,4.6-2.3,6.8-3.5l3.2-1.9c11.7-7,22-16,30.6-26.6-11.3-.7-23-1.5-35.5-2.3Z"/>
      <path id="Vector_307" class="st18" d="M987.8,1319s28.1-15.1,49.3-3.9c9.8,5.2,12.3,18.3,13.7,28.6,1.9,14.3,1.3,29,2.2,43.5.3,6,1.6,12,3.8,17.6,3.2,7.4,10.3,14.7,8.1,23.7-2,8-10.4,12.7-17.6,14.9-19.1,5.8-40.1,2.6-59.3,3.8-15.7,1-31.1,6.2-46.7,6.6-4.4.4-8.8-.5-12.7-2.5-14.3-9.1-6.1-32,0-45,4.9-10.9,2.7-22.1,4.9-33.5,1.7-10.1,4.8-20,9.1-29.3,8.9-18.5,25.2-28.5,45.2-24.4Z"/>
      <path id="Vector_308" class="st23" d="M993.6,1478.8c-26-4.6-32.5-16.5-32.5-16.5,18.8-15,8.3-43.3,8.3-43.3l31,7.6c-1.3,4.4-2.3,8.8-2.9,13.4-2.7,19.4,6,20,6,20,4.2,10.8-10,18.8-10,18.8Z"/>
      <path id="Vector_309" class="st7" d="M1000.7,1426.6c-1.3,4.4-2.3,8.8-2.9,13.4-14.9-4.3-28.1-21-28.1-21l31,7.6Z"/>
      <path id="Vector_310" class="st23" d="M1004.9,1335.9c27.4,2.5,33.9,18.3,31.2,46.9-3.4,36-15.4,60.7-48.6,50-45-14.6-28.4-101,17.4-96.9Z"/>
      <path id="Vector_311" class="st28" d="M1018.6,1379.7c1.5,4.3,3.6,8.4,6.1,12.2-1,1.1-2.2,1.9-3.5,2.3-1.4.4-2.8.5-4.2.2l1.7-14.8Z"/>
      <path id="Vector_312" class="st18" d="M1002.1,1375.9c-.3,2.3-1.8,4.1-3.3,3.9-1.6-.1-2.5-2-2.1-4.3.3-2.3,1.8-4.1,3.3-4,1.5,0,2.5,2.1,2.1,4.3Z"/>
      <path id="Vector_313" class="st18" d="M999.3,1371.7l5.2-1.7s-3.1,4.2-5.2,1.7Z"/>
      <path id="Vector_314" class="st18" d="M1030.4,1377.3c-.3,2.3-1.8,4.1-3.3,3.9-1.5-.1-2.5-2-2.2-4.3.3-2.3,1.8-4.1,3.3-4,1.6,0,2.5,2.1,2.1,4.3Z"/>
      <path id="Vector_315" class="st18" d="M1027.6,1373.1l5.2-1.6s-3.1,4-5.2,1.6Z"/>
      <path id="Vector_316" class="st18" d="M992.4,1361.5c-.2,0-.5,0-.7-.2-.2,0-.4-.2-.6-.4-.2-.1-.3-.3-.4-.5,0-.2-.1-.4-.1-.6s0-.4.1-.6c0-.2.2-.4.4-.5,1.9-1.6,4.2-2.8,6.6-3.4,2.5-.6,5-.7,7.5-.1.2,0,.4.1.6.2.2.1.3.3.5.5.1.2.2.4.2.6,0,.2,0,.4,0,.6,0,.4-.4.8-.7,1.1s-.8.3-1.3.2c-1.9-.4-3.9-.4-5.8,0-1.9.5-3.7,1.4-5.2,2.6-.3.3-.7.4-1,.5Z"/>
      <path id="Vector_317" class="st18" d="M1035.8,1362.3c-.4,0-.8-.1-1.1-.4-1.2-1.2-2.6-2-4.2-2.5-1.6-.5-3.3-.7-4.9-.4-.2,0-.4,0-.7,0-.2,0-.4,0-.6-.2-.2-.1-.3-.3-.5-.4-.1-.2-.2-.4-.3-.6,0-.2,0-.4,0-.6,0-.2.1-.4.2-.6.1-.2.2-.3.4-.5.2-.1.4-.2.6-.3,2.2-.4,4.4-.2,6.5.4,2.1.6,4,1.8,5.6,3.2.2.2.4.5.5.8,0,.3,0,.7,0,1-.1.3-.3.6-.6.8-.3.2-.6.3-.9.3h0Z"/>
      <path id="Vector_318" class="st18" d="M967.1,1380s16.6-21.7,17.6-39.4c0,0,58.3-17.5,51.8,38.6,0,0,13.5-49.1-33.6-54.5-47.1-5.4-58.4,64.5-37.4,87.5,0,0-8.6-18.5,1.7-32.1Z"/>
      <path id="Vector_319" class="st23" d="M970.6,1386.2c.2-1.6,0-3.1-.5-4.6s-1.3-2.9-2.3-4-2.3-2.1-3.8-2.7c-1.4-.6-3-.9-4.6-.9-8.7,0-15.7,17.4,4.8,23.6,3,.9,5.2-2,6.3-11.3Z"/>
      <path id="Vector_320" class="st18" d="M1013.2,1407.8c-3.4.2-6.7-.9-9.4-2.9-2.7-2-4.6-5-5.3-8.2,0-.2,0-.4,0-.6,0-.2.1-.4.2-.6.1-.2.3-.3.4-.5.2-.1.4-.2.6-.2.4,0,.9,0,1.2.2.4.2.6.6.7,1,.7,2.7,2.4,5,4.6,6.6,2.3,1.6,5,2.3,7.8,2,.2,0,.4,0,.6,0,.2,0,.4.2.6.3.2.2.3.3.4.5,0,.2.1.4.1.6,0,.4-.1.8-.4,1.2-.3.3-.7.5-1.1.6h-1.1Z"/>
      <path id="Vector_321" class="st1" d="M1026.4,1468.3c-5.3,9.7-15.6,27.4-24.8,34.2-3.4.3-6.8.5-10.3.5s-4.2,0-6.2-.2c-14.5-6.5-37.2-23.1-48.6-31.7-.6-.5-1-1.2-1.2-1.9-.2-.7-.2-1.5,0-2.3.2-.7.6-1.4,1.2-1.9.6-.5,1.3-.9,2.1-1l19.6-3.8,9.5-10,1.1-1.1.9.7.3.3,9.6,7.8,12.5,10.1,4.8-11.1,1-2.4,3-6.8,11.3,9.4,10.7,2.9c.9.2,1.7.6,2.4,1.2.7.6,1.2,1.3,1.6,2.2.3.8.5,1.7.4,2.6,0,.9-.3,1.8-.8,2.6Z"/>
      <path id="Vector_322" class="st11" d="M1026.4,1468.3c-5.3,9.7-15.6,27.4-24.8,34.2-3.4.3-6.8.5-10.3.5s-4.2,0-6.2-.2c-14.5-6.5-37.2-23.1-48.6-31.7-.6-.5-1-1.2-1.2-1.9-.2-.7-.2-1.5,0-2.3.2-.7.6-1.4,1.2-1.9.6-.5,1.3-.9,2.1-1l19.6-3.8,9.5-10,1.1-1.1.9.7.3.3,9.6,7.8,12.5,10.1,4.8-11.1,1-2.4,3-6.8,11.3,9.4,10.7,2.9c.9.2,1.7.6,2.4,1.2.7.6,1.2,1.3,1.6,2.2.3.8.5,1.7.4,2.6,0,.9-.3,1.8-.8,2.6Z"/>
      <path id="Vector_323" class="st9" d="M958.3,1460.1l14.6,23.5,19-13.2,16.8,8.5,3.6-22-11.3-9.4-8.9,20.5-23.3-18.9-10.5,11.1Z"/>
      <path id="Vector_324" class="st18" d="M1032.6,1375.6c-.4,0-.8-.2-1.1-.5-.3-.3-.5-.7-.5-1.1,0-4.9-.9-9.8-2.9-14.2-2-4.5-5-8.4-8.8-11.6-13.7-10.3-34.1-6.1-34.2-6-.2,0-.4,0-.6,0-.2,0-.4-.1-.6-.2-.2-.1-.3-.3-.5-.5-.1-.2-.2-.4-.2-.6,0-.2,0-.4,0-.6,0-.2.1-.4.2-.6.1-.2.3-.3.4-.4.2-.1.4-.2.6-.2.9,0,22.2-4.6,36.9,6.6,4.1,3.4,7.4,7.8,9.7,12.7s3.4,10.2,3.3,15.6c0,.4-.2.8-.4,1.2-.3.3-.7.5-1.1.5h0Z"/>
    </g>
    <path id="Vector_325" class="st1" d="M921.5,1473.7c-1.2-1.3-2.4-2.7-3.6-4v-.3c.5,0,.9,0,1.4,0h.8c.6,1.3,1.1,2.8,1.4,4.2Z"/>
    <path id="Vector_326" class="st10" d="M1595.9,282.8l-720,671.2,49.2-655.8c.2-4,1.9-7.8,4.7-10.6,2.8-2.8,6.6-4.5,10.6-4.7h165.8c2.3,0,4.5.7,6.3,2.1,1.8,1.3,3.2,3.2,3.8,5.4l5.6,16.9c.7,2.2,2,4,3.8,5.4,1.8,1.3,4,2,6.3,2h282.2c2.4,0,4.7-.7,6.6-2,2-1.3,3.6-3.1,4.6-5.2l8.2-17c1-2.2,2.6-4,4.5-5.4,2-1.3,4.3-2.1,6.7-2.1h151Z"/>
    <path id="Vector_327" class="st10" d="M1620.4,339l-7,93.3-750.8,699.7,7-93.4,750.8-699.6Z"/>
    <path id="Vector_328" class="st1" d="M1392.5,432.3l-1.4,19.3h-2.7l1.3-16.9h-4.3v-2.4h7.2Z"/>
    <path id="Vector_329" class="st1" d="M1408.9,449.2v2.4h-13.7v-1.9l8.4-7.6c2.1-2,2.7-3.2,2.7-4.6,0-2-1.2-3.2-3.9-3.2-1,0-1.9.1-2.8.5-.9.4-1.7.9-2.3,1.6l-1.7-1.6c.9-1,2.1-1.7,3.3-2.3,1.3-.5,2.6-.7,3.9-.7,4,0,6.4,2.1,6.2,5.3-.1,1.2-.5,2.4-1.2,3.4-.6,1-1.5,1.9-2.5,2.6l-6.3,5.7,9.7.2Z"/>
  </g>
  <g id="speech-bubble">
    <path id="Vector_330" class="st1" d="M551,328.8c5.6-34.7-17.9-67.4-52.6-73-34.7-5.6-67.4,17.9-73,52.6-5.6,34.7,17.9,67.4,52.6,73,34.7,5.6,67.4-17.9,73-52.6Z"/>
    <path id="Vector_331" class="st9" d="M535,318.6c0,9.2-2.8,18.3-7.9,25.9-5.1,7.7-12.4,13.7-21,17.2-8.5,3.5-17.9,4.4-27,2.6-9.1-1.8-17.4-6.3-23.9-12.8-6.5-6.5-11-14.9-12.8-23.9-1.8-9.1-.9-18.4,2.7-27,3.5-8.5,9.5-15.8,17.2-21s16.7-7.9,25.9-7.9,12.2,1.2,17.9,3.6c5.7,2.4,10.8,5.8,15.2,10.1,4.3,4.3,7.8,9.5,10.1,15.2,2.3,5.7,3.5,11.8,3.5,17.9Z"/>
    <path id="Vector_332" class="st20" d="M497,330.3c3.3-1.9,5.9-4.9,7.3-8.5,1.4-3.6,1.7-7.5.7-11.2-1-3.7-3.2-7-6.3-9.3-3-2.3-6.8-3.6-10.6-3.6s-7.6,1.3-10.6,3.6c-3,2.3-5.2,5.6-6.3,9.3-1,3.7-.8,7.6.7,11.2,1.4,3.6,4,6.5,7.3,8.5-4.8,1.8-8.9,5-11.8,9.2-2.9,4.2-4.5,9.2-4.4,14.3,0,1.4.1,2.9.4,4.3,7.4,4.7,16.1,7.1,24.8,7.1s17.4-2.5,24.8-7.1c.3-1.4.4-2.9.4-4.3,0-5.1-1.6-10.1-4.5-14.4-2.9-4.2-7.1-7.4-11.9-9.2Z"/>
    <path id="Vector_333" class="st20" d="M530.3,280.8h-14.7c-1.2,0-2.2,1-2.2,2.2v14.7c0,1.2,1,2.2,2.2,2.2h14.7c1.2,0,2.2-1,2.2-2.2v-14.7c0-1.2-1-2.2-2.2-2.2Z"/>
    <path id="Vector_334" class="st1" d="M528.8,291.4h-4.8v4.6h-2.2v-4.6h-4.8v-2.1h4.8v-4.6h2.2v4.6h4.8v2.1Z"/>
    <path id="Vector_335" class="st1" d="M514.2,372.7l32.7,17-13.6-33.7-19.1,16.7Z"/>
  </g>
  <g id="character">
    <g id="group_2">
      <path id="Vector_336" class="st18" d="M570.9,1620.4h-42.6c-.7,0-1.4.2-1.9.7-.5.4-.9,1-1.1,1.7l-6.9,31.2c-.3,1.3,0,2.7.7,3.9.7,1.2,1.9,2,3.3,2.2.4,0,.8,0,1.1,0,13.7,0,23.8-1,41.1-1s42.8,1.1,57.5,1.1,16.6-14.5,10.6-15.8c-27-5.9-47.3-14-56-21.8-1.6-1.4-3.7-2.2-5.8-2.1Z"/>
      <path id="Vector_337" class="st18" d="M751.3,1619.3h-42.6c-.7,0-1.4.2-1.9.7-.5.4-.9,1-1.1,1.7l-6.9,31.1c-.3,1.3,0,2.8.7,3.9.7,1.2,1.9,2,3.3,2.3h1.1c13.7-.2,23.8-1,41.1-1s42.8,1.1,57.5,1.1,16.6-14.5,10.6-15.8c-27-5.9-47.3-14.1-56-21.8-1.6-1.4-3.7-2.1-5.9-2Z"/>
      <path id="Vector_338" class="st9" d="M570.9,1620.4h-42.6c-.7,0-1.4.2-1.9.7-.5.4-.9,1-1.1,1.7l-6.9,31.2c-.3,1.3,0,2.7.7,3.9.7,1.2,1.9,2,3.3,2.2.4,0,.8,0,1.1,0,13.7,0,23.8-1,41.1-1s42.8,1.1,57.5,1.1,16.6-14.5,10.6-15.8c-27-5.9-47.3-14-56-21.8-1.6-1.4-3.7-2.2-5.8-2.1Z"/>
      <path id="Vector_339" class="st9" d="M751.3,1619.3h-42.6c-.7,0-1.4.2-1.9.7-.5.4-.9,1-1.1,1.7l-6.9,31.1c-.3,1.3,0,2.8.7,3.9.7,1.2,1.9,2,3.3,2.3h1.1c13.7-.2,23.8-1,41.1-1s42.8,1.1,57.5,1.1,16.6-14.5,10.6-15.8c-27-5.9-47.3-14.1-56-21.8-1.6-1.4-3.7-2.1-5.9-2Z"/>
      <path id="Vector_340" class="st18" d="M550,823.7l173.7-22.8c17.7,96.6,83.5,519.2,43.8,823.6h-62.9s5.8-462.3-49.8-611.8c-6.4,80-71.4,611.4-71.4,611.4h-63.9s9.6-199.9,19.2-388.7c5.8-118.8,11-387.2,11.3-411.6Z"/>
      <path id="Vector_341" class="st7" d="M654.8,1012.8c9.2,26.2,16.1,53.1,20.8,80.4,5.2-71.1-15.6-146.6-15.6-146.6l-5.2,66.2Z"/>
      <path id="Vector_342" class="st15" d="M760.1,553.3s20.3-4.3,21.7-.9c1.4,3.5,5.8,33.4,4,38.1-2.2,4.4-5,8.4-8.1,12.2l5.8,19.1-22.6,17.6-2.6-23.8s-14.8-9.7-14.2-25.9c.6-16.2,16.1-36.4,16.1-36.4Z"/>
      <path id="Vector_343" class="st7" d="M760.1,553.3s20.3-4.3,21.7-.9c1.4,3.5,5.8,33.4,4,38.1-2.2,4.4-5,8.4-8.1,12.2l5.8,19.1-22.6,17.6-2.6-23.8s-14.8-9.7-14.2-25.9c.6-16.2,16.1-36.4,16.1-36.4Z"/>
      <path id="Vector_344" class="st1" d="M706.9,581.3c13.7,6,40,66.9,46.1,69.1,6.1,2.2,4.1-22.6,4.1-22.6l27.4-10.6s18.6,53.9,5.6,68c-10.2,11.1-32.8,16.8-83-18.5-46.3-32.5-.2-85.3-.2-85.3Z"/>
      <path id="Vector_345" class="st4" d="M706.9,581.3c13.7,6,40,66.9,46.1,69.1,6.1,2.2,4.1-22.6,4.1-22.6l27.4-10.6s18.6,53.9,5.6,68c-10.2,11.1-32.8,16.8-83-18.5-46.3-32.5-.2-85.3-.2-85.3Z"/>
      <path id="Vector_346" class="st1" d="M524.1,591.4s60.3-40.4,182.9-10.1c0,0,.5,148.9,16.8,219.6l-173.5,22.8s-38.7-153.8-26.2-232.3Z"/>
      <path id="Vector_347" class="st10" d="M524.1,591.4s60.3-40.4,182.9-10.1c0,0,.5,148.9,16.8,219.6l-173.5,22.8s-38.7-153.8-26.2-232.3Z"/>
      <path id="Vector_348" class="st18" d="M724.4,583.1c0,.5,0,.9.2,1.3.2.4.4.8.8,1.1.3.3.7.5,1.2.7.4.1.9.2,1.4,0l35.1-3.8c1-.1,1.9-.6,2.5-1.3.7-.7,1-1.7,1.1-2.6l.3-70.2c0-.5,0-1-.2-1.4-.2-.5-.4-.9-.8-1.2-.3-.3-.7-.6-1.2-.8-.4-.2-.9-.3-1.4-.3l-35.2,3.8c-1,.2-1.9.8-2.6,1.7-.6.8-1,1.9-.9,2.9l-.3,70Z"/>
      <path id="Vector_349" class="st9" d="M728.5,512l-.4,70.9c0,.4,0,.8.1,1.3.1.4.4.8.7,1.1.3.3.7.5,1.1.6.4.1.8.1,1.3,0l29.8-3.2c2-.2,5.5-1.7,5.6-3.7l.3-71.1c0-2-3.6-3.2-5.6-3l-29.8,3.2c-.9.1-1.7.6-2.3,1.4-.6.7-.8,1.7-.7,2.6Z"/>
      <path id="Vector_350" d="M550,823.7l173.7-22.9,1,22.5-174.1,20.4-.6-20Z"/>
      <path id="Vector_351" class="st20" d="M684.7,806.5c-.9-.7-1.9-1.3-3-1.6-1.1-.3-2.2-.4-3.3-.2l-16.3,2.1c-2,.3-3.9,1.3-5.2,2.8-1.3,1.6-2,3.6-1.9,5.6l.5,10.5c0,1.1.4,2.2.9,3.2.5,1,1.2,1.9,2.1,2.6,1.6,1.3,3.6,2,5.6,1.9h.7l16.3-2.1c2-.3,3.9-1.3,5.2-2.9,1.3-1.6,2-3.6,1.9-5.6l-.5-10.4c0-1.1-.3-2.3-.8-3.3-.5-1-1.2-1.9-2.1-2.7ZM680.4,827.1l-16.3,2.2c-.5,0-1.1,0-1.6,0-.5-.1-1-.4-1.4-.8-.4-.4-.8-.8-1-1.3-.2-.5-.4-1-.4-1.6l-.5-10.5c0-1,.3-2,.9-2.7.6-.8,1.5-1.2,2.5-1.4l16.3-2.1h.4c.5,0,1,0,1.5.2.5.2.9.5,1.3.8.4.4.7.8.9,1.3.2.5.3,1,.4,1.5v1.6h-.7l-4.6.5c-.7,0-1.4.5-1.9,1.1-.5.6-.7,1.3-.6,2.1,0,.7.5,1.4,1.1,1.9.6.5,1.3.7,2.1.6l4.6-.6h.2v3.4c0,.9-.3,1.8-.9,2.6-.6.7-1.4,1.2-2.3,1.4Z"/>
      <path id="Vector_352" class="st15" d="M680.5,641.3l32.2-30.4s-1.3-42.1,0-46.8c1.3-4.7,35.5-7.6,39.1-8.4,3.6-.8,8.5,40.8,5.6,45.7-2.9,4.9-16.3,10.2-16.3,10.2l-32.9,45.2-27.8-15.5Z"/>
      <path id="Vector_353" class="st1" d="M524.1,591.4c18.9-15.6,93.7,67.2,102.5,72.3s69.9-41.9,69.9-41.9l22.8,23.3s-53.1,55.5-85.6,68.5c-32.6,13-91.7-44.5-101.2-59.9-24.7-40-8.4-62.2-8.4-62.2Z"/>
      <path id="Vector_354" class="st1" d="M669,565.5c0,8.7-15.7,26.3-15.7,26.3h-7.1l-33.1,9.8s-38-16.2-44-29.9c-6-13.7,16.7-32,34.7-30.2,18,1.8,41.9,16.9,41.9,16.9,0,0,23.3-1.5,23.3,7Z"/>
      <path id="Vector_355" class="st7" d="M649.1,591.8h-2.6l-33.1,9.8s-38-16.2-44-29.9c-3-16.6,16.7-29.3,45.7-22.8,28.9,6.5,34.1,42.9,34.1,42.9Z"/>
      <path id="Vector_356" class="st15" d="M644.5,583.5c-3.9-1.7-7.3-4.4-9.9-7.8-2.6-3.4-4.2-7.4-4.8-11.7-.5-5.5.1-11,1.8-16.2.8-2.9,1.9-5.8,3-8.7l-39.9-44.3c1.5,24.2.5,67.9-18.3,81.5,32.6,30,68,7.2,68,7.2Z"/>
      <path id="Vector_357" class="st7" d="M601,519.1c-3.8,28.6,17.7,41.1,28.7,44.9-.5-5.5.1-11,1.8-16.2l-30.5-28.7Z"/>
      <path id="Vector_358" class="st18" d="M687.1,433.7s7.8,44.6-15.6,62.3c-23.4,17.7-25.2-65.6-25.2-65.6l40.8,3.2Z"/>
      <path id="Vector_359" class="st9" d="M687.1,433.7s7.8,44.6-15.6,62.3c-23.4,17.7-25.2-65.6-25.2-65.6l40.8,3.2Z"/>
      <path id="Vector_360" class="st15" d="M603.5,533c5.1,7.3,12.4,12.7,20.9,15.4,8.5,2.7,17.6,2.5,25.9-.5,10.9-3.7,19.9-11.4,25.3-21.6.8-1.5,1.5-3,2.1-4.6,11.1-27.4,13.7-75.5-15.5-92.8-10-6-22-7.8-33.3-4.9-11.3,2.8-21,10-27,20-3.6,5.9-5.7,12.6-6.2,19.5-2.9,32.1-5.9,50.9,7.8,69.4Z"/>
      <path id="Vector_361" class="st18" d="M642.6,479.7c-.5,2.6.7,4.9,2.4,5.2,1.7.3,3.4-1.7,3.8-4.2.4-2.6-.7-4.9-2.4-5.2-1.6-.2-3.4,1.6-3.8,4.2Z"/>
      <path id="Vector_362" class="st18" d="M671.9,484c-.5,2.6.7,4.9,2.4,5.2,1.6.3,3.4-1.7,3.8-4.2s-.7-4.9-2.4-5.2c-1.7-.3-3.4,1.9-3.8,4.2Z"/>
      <path id="Vector_363" class="st17" d="M662.4,484c1.9,8.4,5,16.5,9.1,24-2,1-4.1,1.6-6.4,1.7-2.2,0-4.4-.3-6.5-1.2l3.7-24.5Z"/>
      <path id="Vector_364" class="st18" d="M635,468.9c.3,0,.5,0,.8,0,.3,0,.5-.2.7-.4,1.3-1.4,3-2.4,4.8-3.1,1.8-.6,3.8-.8,5.7-.6.4,0,.8,0,1.2-.2.3-.2.6-.6.7-1,0-.2,0-.4,0-.6,0-.2-.1-.4-.2-.6-.1-.2-.3-.3-.4-.4-.2-.1-.4-.2-.6-.2-2.4-.3-4.9-.1-7.2.7-2.3.8-4.4,2.1-6.1,3.9-.3.3-.5.7-.5,1.1s.2.8.5,1.1c.2.1.4.2.6.3Z"/>
      <path id="Vector_365" class="st18" d="M652.5,521.2c-3.8,0-7.5-.9-10.9-2.6-3.4-1.7-6.3-4.3-8.5-7.4,0,0,0-.2-.1-.3,0-.1,0-.2,0-.3,0-.1,0-.2.1-.3,0,0,.1-.2.2-.2.1-.1.3-.2.5-.2s.4,0,.5.2c2.1,2.8,4.8,5.1,8,6.7,3.1,1.6,6.6,2.4,10.1,2.5.2,0,.4,0,.5.2.1.1.2.3.2.5,0,.1,0,.2,0,.3,0,0,0,.2-.2.3,0,0-.2.1-.2.2,0,0-.2,0-.3,0v.4Z"/>
      <path id="Vector_366" class="st18" d="M686,475.8c.3,0,.6,0,.9,0,.2,0,.4-.1.5-.3.2-.1.3-.3.4-.5,0-.2.2-.4.2-.6,0-.2,0-.4,0-.6-.7-2.3-1.9-4.5-3.6-6.3-1.7-1.8-3.8-3.1-6.1-3.9-.4-.1-.8,0-1.1.1-.3.2-.6.5-.7.9,0,.4,0,.8.2,1.2.2.4.5.6.9.8,1.8.7,3.4,1.8,4.8,3.2,1.3,1.4,2.3,3.1,2.8,5,0,.2.2.4.4.6s.4.3.6.3Z"/>
      <path id="Vector_367" class="st18" d="M624.9,427.4l.3,14.3c-2.5.9-4.6,2.7-5.8,5.1-1.2,2.4-1.5,5.1-.8,7.6,3.4,12.3-5.2,30-15.1,36.5,0,0,.3-5.2-4.2-4.6-4.5.6-5.9,27.7,1.2,41.1,0,0-11.6-12.8-16-41.6-4.1-26.7-2.8-48.4,3.6-57.9l36.8-.5Z"/>
      <path id="Vector_368" class="st9" d="M624.9,427.4l.3,14.3c-2.5.9-4.6,2.7-5.8,5.1-1.2,2.4-1.5,5.1-.8,7.6,3.4,12.3-5.2,30-15.1,36.5,0,0,.3-5.2-4.2-4.6-4.5.6-5.9,27.7,1.2,41.1,0,0-11.6-12.8-16-41.6-4.1-26.7-2.8-48.4,3.6-57.9l36.8-.5Z"/>
      <path id="Vector_369" class="st15" d="M577.9,487.7c2.5,7.7,7.9,14.1,15.1,17.9,9.5,4.9,16.4-3.2,15.6-13.3-.9-9.1-6.8-22.8-17.3-23.2-10.5-.4-16.3,9.1-13.4,18.7Z"/>
      <path id="Vector_370" class="st18" d="M625.2,441.7s28.9,9.1,28.1,0c0,0,19.8,9.6,27.2,4.2,0,0,15.3,4.6,18.3-10.1s-22.3-20.3-22.3-20.3c0,0,7.3-12-4.6-17.7-11.8-5.7-39.9,5.7-39.9,5.7,0-1.8-.2-3.5-.8-5.2-.6-1.7-1.5-3.2-2.8-4.5-1.2-1.3-2.7-2.3-4.3-3-1.6-.7-3.4-1.1-5.1-1.1-13.7-1.1-18,19.4-18,19.4,0,0-10.9-11.4-18.3,0-2.1,3.1-3.3,6.9-3.3,10.7s1.1,7.5,3.3,10.7c0,0-7.4,11.8,4.6,17.2,12,5.3,37.9-5.9,37.9-5.9Z"/>
      <path id="Vector_371" class="st1" d="M613.1,601.6s-45.7-52.9-54.2-53.3c-8.5-.4-10,15.7-10,15.7,0,0-19.9,4.2-18.3,17.3,1.6,13.1,77.9,24.9,77.9,24.9l4.5-4.6Z"/>
      <path id="Vector_372" class="st4" d="M613.1,724.2s-11,31.6-31,46.8c0,0,1.6,33.8,3.3,33.6l127.2-13.7-2.6-35.8s-19-16.5-22.1-30.7h-74.9Z"/>
    </g>
  </g>
</svg>