<?xml version="1.0" encoding="UTF-8"?>
<svg xmlns="http://www.w3.org/2000/svg" version="1.1" viewBox="0 0 3847 2866">
  <defs>
    <style>
      .cls-1 {
        fill: #e0e0e0;
      }

      .cls-2 {
        fill: #407bff;
      }

      .cls-3, .cls-4, .cls-5 {
        opacity: .2;
      }

      .cls-3, .cls-6, .cls-7, .cls-5, .cls-8, .cls-9, .cls-10 {
        isolation: isolate;
      }

      .cls-11 {
        fill: #e6e6e6;
      }

      .cls-12 {
        fill: #b97964;
      }

      .cls-13 {
        fill: #ebebeb;
      }

      .cls-14 {
        fill: #a24e3f;
      }

      .cls-15 {
        fill: #263238;
      }

      .cls-16, .cls-6, .cls-7, .cls-5, .cls-8, .cls-9, .cls-10 {
        fill: #fff;
      }

      .cls-17 {
        fill: #f0f0f0;
      }

      .cls-18 {
        fill: #fafafa;
      }

      .cls-19 {
        opacity: .8;
      }

      .cls-20, .cls-10 {
        opacity: .4;
      }

      .cls-21, .cls-6 {
        opacity: .1;
      }

      .cls-22 {
        opacity: 0;
      }

      .cls-23 {
        fill: #f5f5f5;
      }

      .cls-24 {
        fill: #de5753;
      }

      .cls-7 {
        opacity: .3;
      }

      .cls-8 {
        opacity: .6;
      }

      .cls-9 {
        opacity: .5;
      }

         #robot {
        transform: translateX(100%);
        animation: moveRobot 3s ease-out forwards;
      }

      @keyframes moveRobot {
        0% {
          transform: translateX(100%);
        }
        100% {
          transform: translateX(0);
        }
      }

      /* Make speech bubble and screen appear */
      #speechbubble, #screen {
        opacity: 0;
        animation: showElements 1s ease-in forwards;
        animation-delay: 3s;
      }

      @keyframes showElements {
        0% {
          opacity: 0;
        }
        100% {
          opacity: 1;
        }
      }

      /* Sequentially display messages */
      #message1, #message2, #message3, #message4 {
        opacity: 0;
      }

      #message1 {
        animation: showMessage1 1s ease-in forwards;
        animation-delay: 4s;
      }

      #message2 {
        animation: showMessage2 1s ease-in forwards;
        animation-delay: 5s;
      }

      #message3 {
        animation: showMessage3 1s ease-in forwards;
        animation-delay: 6s;
      }

      #message4 {
        animation: showMessage4 1s ease-in forwards;
        animation-delay: 7s;
      }

      @keyframes showMessage1 {
        to {
          opacity: 1;
        }
      }

      @keyframes showMessage2 {
        to {
          opacity: 1;
        }
      }

      @keyframes showMessage3 {
        to {
          opacity: 1;
        }
      }

      @keyframes showMessage4 {
        to {
          opacity: 1;
        }
      }
    </style>
  </defs>
  <!-- Generator: Adobe Illustrator 28.7.1, SVG Export Plug-In . SVG Version: 1.2.0 Build 142)  -->
  <g>
    <g id="Layer_1">
      <g id="background">
        <path id="Vector" class="cls-13" d="M3846.1,2518.5H0v1.9h3846.1v-1.9Z"/>
        <path id="Vector_2" class="cls-13" d="M3460.8,2642.2h-254.8v1.9h254.8v-1.9Z"/>
        <path id="Vector_3" class="cls-13" d="M2547.9,2663.1h-66.9v1.9h66.9v-1.9Z"/>
        <path id="Vector_4" class="cls-13" d="M3198.3,2570.9h-147.6v1.9h147.6v-1.9Z"/>
        <path id="Vector_5" class="cls-13" d="M735.8,2583.8h-332.2v1.9h332.2v-1.9Z"/>
        <path id="Vector_6" class="cls-13" d="M853,2583.8h-48.7v1.9h48.7v-1.9Z"/>
        <path id="Vector_7" class="cls-13" d="M1731.9,2616.2h-720.6v1.9h720.6v-1.9Z"/>
        <path id="Vector_8" class="cls-13" d="M1823.1,2175.4H337.8c-11.6,0-22.8-4.6-31-12.9-8.2-8.2-12.8-19.4-12.8-31V43.5c.1-11.6,4.8-22.6,13-30.8C315.1,4.6,326.2,0,337.8,0h1485.3c11.7,0,22.8,4.6,31.1,12.9,8.2,8.2,12.9,19.4,12.9,31.1v2087.5c0,11.7-4.6,22.8-12.9,31.1-8.2,8.2-19.4,12.9-31.1,12.9ZM337.8,1.5c-11.1,0-21.8,4.5-29.6,12.3-7.9,7.9-12.3,18.5-12.3,29.7v2087.9c0,11.1,4.4,21.8,12.3,29.7,7.9,7.9,18.5,12.3,29.6,12.3h1485.3c11.1,0,21.8-4.4,29.7-12.3,7.9-7.9,12.3-18.5,12.3-29.7V43.5c0-11.1-4.4-21.8-12.3-29.7-7.9-7.9-18.5-12.3-29.7-12.3H337.8Z"/>
        <path id="Vector_9" class="cls-13" d="M3487,2175.4h-1485.4c-11.7,0-22.8-4.6-31-12.9-8.2-8.2-12.9-19.4-12.9-31V43.5c.1-11.6,4.8-22.6,13-30.8,8.2-8.1,19.3-12.7,30.9-12.8h1485.4c11.6,0,22.6,4.6,30.8,12.8,8.2,8.1,12.8,19.2,12.9,30.8v2087.9c0,11.6-4.6,22.8-12.8,31-8.2,8.2-19.3,12.9-31,12.9ZM2001.6,1.5c-11.1,0-21.8,4.5-29.7,12.3-7.9,7.9-12.3,18.5-12.3,29.7v2087.9c0,11.1,4.4,21.8,12.3,29.7,7.9,7.9,18.5,12.3,29.7,12.3h1485.4c11.1,0,21.8-4.4,29.7-12.3,7.9-7.9,12.3-18.5,12.3-29.7V43.5c0-11.1-4.4-21.8-12.3-29.7-7.9-7.9-18.6-12.3-29.7-12.3h-1485.4Z"/>
        <path id="Vector_10" class="cls-11" d="M2084.5,2436h583.2v-627.6h-583.2v627.6Z"/>
        <path id="Vector_11" class="cls-11" d="M1995.5,2517.5h73.3v-755.8h-73.3v755.8Z"/>
        <path id="Vector_12" class="cls-18" d="M2527,2092.4h47.8v-234.5h-47.8v234.5Z"/>
        <path id="Vector_13" class="cls-23" d="M2328.9,2092.4h47.8v-234.5h-47.8v234.5Z"/>
        <path id="Vector_14" class="cls-23" d="M2479.2,2092.3h47.8v-218.1h-47.8v218.1Z"/>
        <path id="Vector_15" class="cls-18" d="M2376.7,2092.3h47.8v-218.1h-47.8v218.1Z"/>
        <path id="Vector_16" class="cls-13" d="M2424.5,2092.4h30.9v-234.5h-30.9v234.5Z"/>
        <path id="Vector_17" class="cls-18" d="M2455.3,2092.3h23.9v-218.1h-23.9v218.1Z"/>
        <path id="Vector_18" class="cls-13" d="M2281.1,2092.4h47.8v-234.5h-47.8v234.5Z"/>
        <path id="Vector_19" class="cls-11" d="M2233.3,2092.3h47.8v-218.1h-47.8v218.1Z"/>
        <path id="Vector_20" class="cls-11" d="M2130.9,2092.3h47.8v-218.1h-47.8v218.1Z"/>
        <path id="Vector_21" class="cls-18" d="M2178.5,2092.4h30.8v-234.5h-30.8v234.5Z"/>
        <path id="Vector_22" class="cls-13" d="M2209.4,2092.3h23.9v-218.1h-23.9v218.1Z"/>
        <path id="Vector_23" class="cls-18" d="M2106.9,2092.3h23.9v-229h-23.9v229Z"/>
        <path id="Vector_24" class="cls-18" d="M2154.7,2172.1h-47.8v234.5h47.8v-234.5Z"/>
        <path id="Vector_25" class="cls-18" d="M2352.8,2172.1h-47.8v234.5h47.8v-234.5Z"/>
        <path id="Vector_26" class="cls-17" d="M2202.5,2188.6h-47.8v218.1h47.8v-218.1Z"/>
        <path id="Vector_27" class="cls-13" d="M2305,2188.6h-47.8v218.1h47.8v-218.1Z"/>
        <path id="Vector_28" class="cls-18" d="M2257.2,2172.1h-30.9v234.5h30.9v-234.5Z"/>
        <path id="Vector_29" class="cls-23" d="M2226.4,2188.6h-23.9v218.1h23.9v-218.1Z"/>
        <path id="Vector_30" class="cls-13" d="M2400.5,2172.1h-47.8v234.5h47.8v-234.5Z"/>
        <path id="Vector_31" class="cls-23" d="M2448.3,2188.6h-47.8v218.1h47.8v-218.1Z"/>
        <path id="Vector_32" class="cls-11" d="M2550.9,2188.6h-47.8v218.1h47.8v-218.1Z"/>
        <path id="Vector_33" class="cls-18" d="M2503.1,2172.1h-30.9v234.5h30.9v-234.5Z"/>
        <path id="Vector_34" class="cls-18" d="M2605.6,2172.1h-30.9v234.5h30.9v-234.5Z"/>
        <path id="Vector_35" class="cls-13" d="M2472.3,2188.6h-23.9v218.1h23.9v-218.1Z"/>
        <path id="Vector_36" class="cls-17" d="M2574.9,2177.7h-23.9v229h23.9v-229Z"/>
        <path id="Vector_37" class="cls-17" d="M2067.9,1761.5v755.8h39.1v-42.3h579.1v-713.5h-618.2ZM2107,2131.5h542.2v275h-542.2v-275ZM2107,1829.9h542.2v262.4h-542.2v-262.4Z"/>
        <path id="Vector_38" class="cls-11" d="M3251.7,1808.4h-583.1v627.6h583.1v-627.6Z"/>
        <path id="Vector_39" class="cls-11" d="M3229.3,2467.5h-73.3v50h73.3v-50Z"/>
        <path id="Vector_40" class="cls-18" d="M2736,1857.8h-47.8v234.5h47.8v-234.5Z"/>
        <path id="Vector_41" class="cls-23" d="M2934.1,1857.8h-47.8v234.5h47.8v-234.5Z"/>
        <path id="Vector_42" class="cls-23" d="M2783.8,1874.3h-47.8v218.1h47.8v-218.1Z"/>
        <path id="Vector_43" class="cls-18" d="M2886.3,1874.3h-47.8v218.1h47.8v-218.1Z"/>
        <path id="Vector_44" class="cls-13" d="M2838.5,1857.8h-30.9v234.5h30.9v-234.5Z"/>
        <path id="Vector_45" class="cls-18" d="M2807.7,1874.3h-23.9v218.1h23.9v-218.1Z"/>
        <path id="Vector_46" class="cls-13" d="M2950.4,1857.8h-47.8v234.5h47.8v-234.5Z"/>
        <path id="Vector_47" class="cls-11" d="M2998.1,1874.3h-47.8v218.1h47.8v-218.1Z"/>
        <path id="Vector_48" class="cls-11" d="M3100.7,1874.3h-47.8v218.1h47.8v-218.1Z"/>
        <path id="Vector_49" class="cls-18" d="M3052.9,1857.8h-30.8v234.5h30.8v-234.5Z"/>
        <path id="Vector_50" class="cls-13" d="M3022.1,1874.3h-23.9v218.1h23.9v-218.1Z"/>
        <path id="Vector_51" class="cls-23" d="M3124.6,1863.4h-23.9v229h23.9v-229Z"/>
        <path id="Vector_52" class="cls-18" d="M3099.3,2406.7h47.8v-234.5h-47.8v234.5Z"/>
        <path id="Vector_53" class="cls-18" d="M2901.1,2406.7h47.8v-234.5h-47.8v234.5Z"/>
        <path id="Vector_54" class="cls-23" d="M3051.5,2406.8h47.8v-218.1h-47.8v218.1Z"/>
        <path id="Vector_55" class="cls-13" d="M2948.9,2406.8h47.8v-218.1h-47.8v218.1Z"/>
        <path id="Vector_56" class="cls-18" d="M2996.8,2406.7h30.9v-234.5h-30.9v234.5Z"/>
        <path id="Vector_57" class="cls-23" d="M3027.5,2406.8h23.9v-218.1h-23.9v218.1Z"/>
        <path id="Vector_58" class="cls-13" d="M2884.9,2406.7h47.8v-234.5h-47.8v234.5Z"/>
        <path id="Vector_59" class="cls-23" d="M2837.1,2406.8h47.8v-218.1h-47.8v218.1Z"/>
        <path id="Vector_60" class="cls-11" d="M2734.5,2406.8h47.8v-218.1h-47.8v218.1Z"/>
        <path id="Vector_61" class="cls-18" d="M2782.4,2406.7h30.9v-234.5h-30.9v234.5Z"/>
        <path id="Vector_62" class="cls-18" d="M2686.1,2406.7h30.8v-234.5h-30.8v234.5Z"/>
        <path id="Vector_63" class="cls-13" d="M2813.1,2406.8h23.9v-218.1h-23.9v218.1Z"/>
        <path id="Vector_64" class="cls-13" d="M2710.6,2406.8h23.9v-229h-23.9v229Z"/>
        <path id="Vector_65" class="cls-17" d="M3248.8,1761.5h-598.7v713.5h579.1v42.3h39.1v-755.8h-19.5ZM3229.2,2406.5h-542.2v-274.9h542.2v274.9ZM3229.2,2092.5h-542.2v-262.4h542.2v262.4Z"/>
        <path id="Vector_66" class="cls-13" d="M2097.1,1430.2h1101V292.5h-1101v1137.7Z"/>
        <path id="Vector_67" class="cls-17" d="M2058.6,1430.2h1101V292.5h-1101v1137.7Z"/>
        <path id="Vector_68" class="cls-1" d="M3131.9,319.5h-1044.1v1084.2h1044.1V319.5Z"/>
        <path id="Vector_69" class="cls-23" d="M3131.9,319.5h-1018v1084.2h1018V319.5Z"/>
        <path id="Vector_70" class="cls-13" d="M2612.3,1403.7h20.7V319.5h-20.7v1084.2Z"/>
        <path id="Vector_71" class="cls-16" d="M2493.7,319.5l-290.1,1084.2h-27.9l290.2-1084.2h27.8Z"/>
        <path id="Vector_72" class="cls-17" d="M2603.5,1424.5h17.7V302.8h-17.7v1121.8Z"/>
        <path id="Vector_73" class="cls-16" d="M2388.4,319.5l-274.5,1026.1v-564l123.6-462.1h150.9Z"/>
        <path id="Vector_74" class="cls-16" d="M3131.9,417.8v104.1l-236,881.8h-27.9l263.9-985.8Z"/>
        <path id="Vector_75" class="cls-16" d="M3131.9,628v564l-56.6,211.7h-150.9l207.5-775.7Z"/>
        <path id="Vector_76" class="cls-1" d="M923.6,671.2c86.1,0,155.9-69.8,155.9-155.9s-69.8-155.9-155.9-155.9-155.9,69.8-155.9,155.9,69.8,155.9,155.9,155.9Z"/>
        <path id="Vector_77" class="cls-17" d="M923.6,647.8c73.2,0,132.6-59.4,132.6-132.6s-59.4-132.6-132.6-132.6-132.6,59.4-132.6,132.6,59.4,132.6,132.6,132.6Z"/>
        <path id="Vector_78" class="cls-17" d="M917.4,606.2v-92.7l-61.5,34.8"/>
        <path id="Vector_79" class="cls-1" d="M917.4,613.9c-2,0-4-.8-5.4-2.3-1.4-1.4-2.3-3.4-2.3-5.4v-79.5l-49.9,28.3c-.9.5-1.9.8-2.9,1-1,.1-2,0-3-.2-1-.3-1.9-.7-2.7-1.4-.8-.6-1.5-1.4-2-2.3-1-1.8-1.2-3.9-.7-5.8.5-2,1.9-3.6,3.6-4.6l61.5-34.8c1.2-.7,2.5-1,3.8-1s2.7.4,3.8,1c1.2.7,2.1,1.7,2.8,2.8.7,1.2,1,2.5,1,3.9v92.3c0,1.1-.1,2.1-.5,3.1-.4,1-.9,1.9-1.7,2.6-.7.8-1.6,1.4-2.6,1.8-1,.4-2,.6-3.1.6Z"/>
        <path id="Vector_80" class="cls-23" d="M1559.4,1746.2h-924.1c0,16.3,6.3,32,17.6,43.8,11.3,11.8,26.7,18.8,43,19.5,99.3,4.5,252.1,20.2,300.5,75.2,90.3,102.5,81.5,462.2-26.6,545.6-33.9,26.1-132.8,78-132.8,78h520.8s-92.3-52.9-124.5-78c-107.7-84-110.7-443.7-20-545.6,46.6-52.3,189.8-69.2,285.8-74.5,16.3-.9,31.7-8.1,42.9-19.9s17.5-27.6,17.5-44Z"/>
        <path id="Vector_81" class="cls-11" d="M749.7,1813.1c93.8,7.7,206.4,26.1,246.7,71.8,13.2,15.8,23.6,33.7,30.8,52.9h155.2c7.2-19.2,17.6-37.1,30.8-52.9,40.5-45.5,153.8-64.2,246.2-71.8h-709.6Z"/>
        <path id="Vector_82" class="cls-13" d="M1165.7,1746.8l-12.5-143.7h182.2l12.6,143.7h-182.2Z"/>
        <path id="Vector_83" class="cls-1" d="M1165.7,1746.8l-12.5-143.7h-9.8l12.6,143.7h9.8Z"/>
        <path id="Vector_84" class="cls-17" d="M1183,1732.2l-10-114.3h145l10.1,114.3h-145.1Z"/>
        <path id="Vector_85" class="cls-18" d="M1194.2,1722.8l-8.4-95.5h121.2l8.4,95.5h-121.2Z"/>
        <path id="Vector_86" class="cls-11" d="M1106.6,1746.4h-183l20.3-232.1h183l-20.3,232.1Z"/>
        <path id="Vector_87" class="cls-1" d="M1106.6,1746.4h8.8l20.3-232.1h-8.8l-20.3,232.1Z"/>
        <path id="Vector_88" class="cls-17" d="M1090.1,1722.7h-145.7l16.2-184.7h145.7l-16.2,184.7Z"/>
        <path id="Vector_89" class="cls-18" d="M1079.4,1707.5h-121.7l13.5-154.4h121.7l-13.5,154.4Z"/>
        <path id="Vector_90" class="cls-13" d="M1017.9,1622.6c4,3.9,9.4,6.2,15,6.2s11-2.2,15-6.2c2-2,3.5-4.3,4.6-6.9,1.1-2.6,1.6-5.3,1.6-8.1s-.5-5.5-1.6-8.1c-1.1-2.6-2.6-4.9-4.6-6.9-2-2-4.3-3.5-6.9-4.6-2.6-1.1-5.3-1.6-8.1-1.6s-5.5.6-8.1,1.6c-2.6,1.1-4.9,2.6-6.9,4.6-2,2-3.5,4.3-4.6,6.9-1.1,2.6-1.6,5.3-1.6,8.1s.5,5.5,1.6,8.1c1.1,2.6,2.6,4.9,4.6,6.9Z"/>
        <path id="Vector_91" class="cls-17" d="M1026.8,1648.5c-1.4-1.5-3.1-2.6-5-3.4-1.9-.8-3.9-1.2-6-1.2s-4.1.4-5.9,1.2-3.6,1.9-5,3.4c-2.2,2.1-3.8,4.9-4.4,7.9-.6,3-.3,6.2.9,9,1.2,2.9,3.2,5.3,5.8,7,2.6,1.7,5.6,2.6,8.7,2.5,3.1,0,6.1-.8,8.7-2.5,2.6-1.7,4.6-4.1,5.8-7,1.2-2.9,1.5-6,.8-9-.6-3-2.2-5.8-4.4-7.9Z"/>
        <g id="Shadow">
          <path id="path" class="cls-23" d="M1923.1,2865.9c823.7,0,1491.5-39,1491.5-87.1s-667.8-87.1-1491.5-87.1-1491.5,39-1491.5,87.1,667.8,87.1,1491.5,87.1Z"/>
        </g>
      </g>
      <g id="plant">
        <path id="Vector_92" class="cls-2" d="M704.6,2588.8s-38.5-83.1,5.4-165,56.2-101.3,28.4-118.1c-27.8-16.8-40.5,65.5-40.5,65.5-13.8-37.2-15.2-77.9-4.1-115.9,19.3-59.3,31.5-155.9,5.1-166.2-26.4-10.3-5.1,120.4-27.9,164.7-11.7-31.3-19.2-64-22.4-97.2-3.2-47.6,1.8-123.7-19.1-143.2-20.8-19.5-34.2-6-13.7,99.1,12.3,62.8,19.1,126.5,20.3,190.5,0,0-45.2-137.5-75.5-141.5-30.3-3.9-30.3,40.6-4.3,79.3,26,38.7,76,108.1,84.6,143.8,0,0-49.6-103.7-94.2-71.9-44.6,31.8,38.5,94.5,76.1,117.1,37.6,22.6,63,164.6,63,164.6l18.8-5.6Z"/>
        <path id="Vector_93" class="cls-3" d="M704.6,2588.8s-38.5-83.1,5.4-165,56.2-101.3,28.4-118.1c-27.8-16.8-40.5,65.5-40.5,65.5-13.8-37.2-15.2-77.9-4.1-115.9,19.3-59.3,31.5-155.9,5.1-166.2-26.4-10.3-5.1,120.4-27.9,164.7-11.7-31.3-19.2-64-22.4-97.2-3.2-47.6,1.8-123.7-19.1-143.2-20.8-19.5-34.2-6-13.7,99.1,12.3,62.8,19.1,126.5,20.3,190.5,0,0-45.2-137.5-75.5-141.5-30.3-3.9-30.3,40.6-4.3,79.3,26,38.7,76,108.1,84.6,143.8,0,0-49.6-103.7-94.2-71.9-44.6,31.8,38.5,94.5,76.1,117.1,37.6,22.6,63,164.6,63,164.6l18.8-5.6Z"/>
        <path id="Vector_94" class="cls-2" d="M674.5,2623.1s37.1-83.7-7.7-165c-44.8-81.3-57.3-100-29.8-117.6,27.5-17.6,41.2,64.9,41.2,64.9,13.3-37.4,14.2-78,2.7-115.9-20-59-33.3-155.4-7.1-166.1,26.2-10.8,6.5,120.4,29.9,164.6,11.3-31.4,18.4-64.2,21.2-97.5,2.6-47.7-3.2-123.6,17.3-143.5,20.5-19.8,34.1-6.5,14.9,98.8-11.6,62.9-17.6,126.8-18.1,190.8,0,0,43.6-138.5,73.8-142.9,30.2-4.5,30.8,40.1,5.3,79.2-25.5,39.1-74.8,109.2-82.5,145,0,0,48.4-104.5,93.4-73.3,45,31.1-37.7,95-74.6,118.2-36.9,23.2-61.1,165.5-61.1,165.5l-19-5.1Z"/>
        <path id="Vector_95" class="cls-15" d="M845.6,2563.2h-306.5l24.8,219.3h256.8l24.8-219.3Z"/>
      </g>
      <g id="screen">
        <path id="Vector_96" class="cls-2" d="M2140.8,453.8v2142.3c0,4.4-.9,8.8-2.6,12.9-1.7,4.1-4.2,7.8-7.4,10.9-3.2,3.1-6.9,5.5-11,7.2-4.1,1.6-8.5,2.4-12.9,2.4H968.5c-5.9,0-11.7-1.6-16.6-4.8-4.9-3.2-8.8-7.8-11.2-13.2-1.7-3.9-2.5-8.2-2.5-12.5V451.3c-.3-7.1,2.3-14.1,7.2-19.4,4.9-5.2,11.6-8.4,18.8-8.6h301.5c4.2,0,8.3,1.4,11.8,3.8,3.4,2.4,6.1,5.8,7.6,9.7l12.5,30.8c1,2.5,2.4,4.7,4.2,6.6.3.4.6.8,1,1.1l1.3,1.2c.7.5,1.3,1,2.1,1.5,1.4.9,2.9,1.6,4.5,2.1,2,.7,4.1,1.1,6.2,1.1h445.8c4.2,0,8.3-1.3,11.7-3.7,3.5-2.4,6.1-5.7,7.7-9.6l12.5-30.8c1.5-3.9,4.2-7.3,7.6-9.8,3.4-2.4,7.5-3.8,11.8-3.9h297.1c7.9.3,15.4,3.6,21,9.2,5.6,5.7,8.7,13.2,8.8,21.2Z"/>
        <path id="Vector_97" class="cls-9" d="M2140.7,567.8H938.4v1884.6h1202.3V567.8Z"/>
        <path id="Vector_98" class="cls-9" d="M2140.7,2219.6H938.4v232.8h1202.3v-232.8Z"/>
        <path id="Vector_99" class="cls-9" d="M2140.7,567.8H938.4v193.1h1202.3v-193.1Z"/>
        <path id="Vector_100" class="cls-2" d="M978.5,664.3c0,8.7,1.7,17.2,5,25.3,3.3,8,8.2,15.3,14.4,21.4l.8.8c8.8,8.6,19.9,14.5,31.9,17h1.4c2.3.5,4.7.8,7,.9h10.5c1.3,0,2.7-.2,4-.5,1.6,0,3.3-.5,4.9-.8h.7c9.2-2.1,17.7-6.2,25.2-11.9h.5l1.6-1.4c8.6-7.1,15.2-16.2,19.2-26.5s5.5-21.5,4.1-32.5c-1.4-11-5.6-21.5-12.1-30.4-6.5-9-15.2-16.1-25.2-20.8-10-4.7-21.1-6.8-32.2-6.1-11.1.7-21.8,4.2-31.1,10.2-9.3,6-17,14.2-22.3,23.9-5.3,9.7-8.1,20.6-8,31.7l-.2-.2Z"/>
        <path id="Vector_101" class="cls-15" d="M1006.2,651.2s-8.1,30.8,2.2,39.8c10.3,9.1,68.2,9.2,76.5-2.3,8.3-11.5-10.5-49.1-10.5-49.1l-68.2,11.5Z"/>
        <path id="Vector_102" class="cls-2" d="M998.7,711.7c8.8,8.6,19.9,14.5,31.9,17h1.4c2.3.5,4.7.8,7,.9h10.5c1.3,0,2.7-.2,4-.5,1.6,0,3.3-.5,4.9-.8v.5l.7-.6c9.2-2.1,17.7-6.2,25.2-11.9-.4-1.1-.8-2.2-1.2-3.3h-1c-1.5-.5-4.5-1.5-8.8-2.5h-.5c-2.5-.6-5.3-1.3-8.5-1.9l-6.2-1.2h-.9c-1.9,0-3.8-.6-5.8-.8h-2.2c-3-.4-6.2-.6-9.4-.8h-13.2l-4.4.6-7.7,1.3c-6.2,1.2-11.7,2.8-16.1,4.2Z"/>
        <path id="Vector_103" class="cls-8" d="M998.7,711.7c8.8,8.6,19.9,14.5,31.9,17h1.4c2.3.5,4.7.8,7,.9h10.5c1.3,0,2.7-.2,4-.5,1.6,0,3.3-.5,4.9-.8v.5l.7-.6c9.2-2.1,17.7-6.2,25.2-11.9-.4-1.1-.8-2.2-1.2-3.3h-1c-1.5-.5-4.5-1.5-8.8-2.5h-.5c-2.5-.6-5.3-1.3-8.5-1.9l-6.2-1.2h-.9c-1.9,0-3.8-.6-5.8-.8h-2.2c-3-.4-6.2-.6-9.4-.8h-13.2l-4.4.6-7.7,1.3c-6.2,1.2-11.7,2.8-16.1,4.2Z"/>
        <path id="Vector_104" class="cls-15" d="M1076.4,649.2s3.5-49.8-40.4-38.5c-55.1,14.5-23.1,80.7,3.8,72.2,8.1-2.7,15.6-7.1,21.9-13,6.3-5.8,11.3-12.9,14.6-20.8Z"/>
        <path id="Vector_105" class="cls-3" d="M1020.1,708.2l9.7,18.9.8,1.6h1.4c2.3.5,4.7.8,7,.9l5.2-7c.5,2.2,1,4.6,1.5,7.2h3.8c-.4-4.3-.7-7-.7-7l4.7,6.5c1.6,0,3.3-.5,4.9-.8l.9-20.6-2-.8c-2-.8-4.2-1.5-6.3-1.9h-1.4c-4.4-.6-8.9-.6-13.3,0l-4,.5c-2.2.3-4.3.7-6.5,1.3-1.9.4-3.7.9-5.5,1.5l-.3-.3Z"/>
        <path id="Vector_106" class="cls-12" d="M1046.5,713.2l-21.5-6.1c13.2-9.1,6.5-29.5,6.5-29.5l21.3,7.7c-1,3-1.7,6-2.2,9.1-2.2,13.3,3.8,14.4,3.8,14.4l-7.8,4.4Z"/>
        <path id="Vector_107" class="cls-3" d="M1052.8,685.1c-1,3-1.7,6-2.2,9.1-7.6-3.9-14.1-9.6-19.1-16.5l21.3,7.5Z"/>
        <path id="Vector_108" class="cls-12" d="M1048,623.1c19.2-1.2,26.2,8.7,28.8,28.5,3.3,24.7-1,42.7-25.5,39-33.2-4.8-35.5-65.2-3.4-67.5Z"/>
        <path id="Vector_109" class="cls-14" d="M1064.3,651.5c1.7,2.8,3.8,5.4,6.1,7.7-.5.8-1.2,1.5-2.1,1.9s-1.8.6-2.8.5l-1.1-10.2Z"/>
        <path id="Vector_110" class="cls-15" d="M1052.4,650.7c0,1.5-.6,2.9-1.7,3-1.1,0-2-1.1-2.1-2.7-.2-1.6.6-2.9,1.7-3,1.1,0,2,1.1,2.2,2.7Z"/>
        <path id="Vector_111" class="cls-15" d="M1049.8,648.1l3.3-1.6s-1.5,3.1-3.3,1.6Z"/>
        <path id="Vector_112" class="cls-15" d="M1072,648.6c0,1.6-.6,2.9-1.6,3-1,0-2.1-1.1-2.2-2.7,0-1.6.5-2.9,1.6-3,1.1,0,2,1.2,2.2,2.7Z"/>
        <path id="Vector_113" class="cls-15" d="M1069.2,646.2l3.4-1.7s-1.3,3-3.4,1.7Z"/>
        <path id="Vector_114" class="cls-15" d="M1043.2,643.6c-.6,0-1.2-.2-1.6-.5-.6-.4-1-1.1-1.1-1.8s0-1.5.4-2.1c1.3-1.5,3-2.8,4.8-3.6,1.9-.8,3.9-1.2,5.9-1.1.4,0,.7,0,1,.2.3.2.6.4.9.7.2.3.4.6.5.9.1.3.1.7,0,1.1,0,.4-.1.7-.3,1-.2.3-.4.6-.7.9-.3.2-.6.4-.9.6-.3.1-.7.2-1.1.2-1.1,0-2.1.1-3.1.5-1,.4-1.9,1-2.6,1.8-.3.4-.6.6-1,.8s-.8.3-1.3.3Z"/>
        <path id="Vector_115" class="cls-15" d="M1073.1,639.5c-.5.1-.9.1-1.4,0-.8-.5-1.6-.9-2.5-1-.9-.2-1.9-.1-2.8.1-.3.1-.7.2-1.1.2-.4,0-.7,0-1.1-.2-.3-.1-.6-.4-.9-.6-.2-.3-.5-.6-.6-.9-.2-.3-.2-.7-.2-1,0-.4,0-.7.2-1s.3-.6.6-.9c.2-.3.5-.5.9-.6,1.7-.6,3.5-.8,5.3-.6,1.8.2,3.5.8,5,1.8.5.3.9.8,1.1,1.4.2.6.2,1.2.1,1.8-.2.6-.5,1.1-1,1.5-.5.4-1,.6-1.6.6v-.4Z"/>
        <path id="Vector_116" class="cls-15" d="M1029,657.2c4.3-8.9,6.4-18.7,5.8-28.5,0,0,37.2-18.1,41.5,20.5,0,0,1.5-34.6-31.7-33.2-33.2,1.4-29.8,49.8-11.8,63.2-2.4-3.1-4-6.7-4.6-10.5-.7-3.8-.4-7.7.8-11.4Z"/>
        <path id="Vector_117" class="cls-12" d="M1032.4,661.1c-.3-2.2-1.4-4.2-3.2-5.5-1.7-1.3-3.9-2-6.1-1.7-5.9,1-7.7,13.5,7.1,15.4,1.8.5,2.9-1.7,2.2-8.2Z"/>
        <path id="Vector_118" class="cls-15" d="M1067.7,669.2c-.8,2.2-1.5,4.5-2,6.8h-1.2c-5.7-.4-8.1-2.4-9.2-4.5-.5-1.1-.7-2.2-.6-3.4-.1-.7-.1-1.3,0-2,3.3,1.8,7.1,2.8,10.8,3.1h2.2Z"/>
        <path id="Vector_119" class="cls-16" d="M1065.8,669.2l-.6,2c-3.8.2-7.5-.9-10.5-3.1-.1-.7-.1-1.3,0-2,3.4,1.8,7.2,2.9,11.2,3.1Z"/>
        <path id="Vector_120" class="cls-24" d="M1064.5,675.9c-5.7-.4-8.1-2.4-9.2-4.5,2.2.1,4.3.7,6.2,1.6,1.2.7,2.3,1.7,3,2.9Z"/>
        <path id="Vector_121" class="cls-15" d="M1047.7,624.8s-5.8,32.2-25.8,33.2c-20,.9,8.2-41.3,8.2-41.3,0,0,31.8-14.4,49,1.8,17.2,16.2-2.8,30.8-2.8,30.8,0,0-.3-24.7-28.7-24.5Z"/>
        <path id="Vector_122" class="cls-15" d="M1035.8,654.6c-.3,0-.7-.1-1-.3-.3-.2-.5-.4-.7-.7-.1-.2-.2-.5-.2-.7s0-.5,0-.7c0-.2.2-.5.3-.7.2-.2.3-.4.6-.5,13.9-7.7,10.6-27.9,10.6-28.1,0-.2,0-.5,0-.8,0-.2.2-.5.3-.7.2-.2.3-.4.6-.5.2-.1.5-.2.7-.3.2,0,.5,0,.8,0,.2,0,.5.1.7.3.2.1.4.3.5.5.1.2.2.5.3.7,0,.9,3.8,23.1-12.5,32.2-.3.1-.6.2-.9.2Z"/>
        <path id="Vector_123" class="cls-15" d="M1026.2,654.8c0,.1,0,.2.1.3,0,0,.2.1.3.1h4.5l14.2-1.3c.4,2.1,1.5,3.9,3.1,5.3,1.6,1.3,3.7,2.1,5.8,2.1s4.1-.7,5.8-2.1c1.6-1.3,2.7-3.2,3.1-5.3,0-.5,0-1,0-1.5.7-.9,1.3-1.5,1.9-1.5.5,0,1,.4,1.3.8.3,1.5.9,2.9,1.9,4,.9,1.2,2.2,2.1,3.6,2.7l2,.5c1.2.3,2.5.3,3.7,0,1.5-.4,2.8-1.2,3.8-2.2,1.5-1.3,2.4-3.1,2.6-5.1.2-1.2.2-2.4-.1-3.6-.3-1.2-.8-2.3-1.5-3.2-.7-1-1.6-1.8-2.7-2.4-1-.6-2.2-1-3.4-1.1h-2.1c-2,.2-3.9,1-5.4,2.4-1.5,1.4-2.4,3.3-2.7,5.3,0,.5,0,.9,0,1.4-.4,0-.7,0-1.1,0-.4,0-.8.1-1.2.3s-.7.4-1,.8c-.3-1.9-1.2-3.8-2.6-5.1-1.4-1.4-3.2-2.3-5.1-2.6h-.9c-1.3-.1-2.5,0-3.7.5-1.4.6-2.7,1.5-3.7,2.7s-1.6,2.7-1.9,4.2c0,.6,0,1.3,0,1.9l-12.2,1h-6.3s-.2.2,0,.5ZM1067.4,648.4c.3-1.8,1.2-3.5,2.6-4.8,1.4-1.2,3.2-1.9,5.1-1.9h1.5c1,.1,2,.5,2.9,1s1.7,1.2,2.3,2.1c.6.8,1,1.8,1.3,2.8.2,1,.3,2,0,3.1-.2,1.4-.9,2.8-1.8,3.9-1,1.1-2.2,1.9-3.6,2.4-1.1.2-2.3.2-3.5,0h-1.5c-1.8-.6-3.3-1.7-4.3-3.3-1-1.6-1.3-3.5-1-5.3ZM1046.5,650.8c.3-2,1.4-3.9,3.1-5.1,1.7-1.2,3.8-1.7,5.8-1.4,2,.3,3.9,1.4,5.1,3.1,1.2,1.7,1.7,3.7,1.4,5.8-.3,2-1.4,3.9-3.1,5.1s-3.8,1.7-5.8,1.4c-2-.3-3.9-1.4-5.1-3.1s-1.7-3.7-1.4-5.8Z"/>
        <g id="Group" class="cls-19">
          <path id="Vector_124" class="cls-16" d="M1026.2,654.8c0,.1,0,.2.1.3,0,0,.2.1.3.1h4.5l14.2-1.3c.4,2.1,1.5,3.9,3.1,5.3,1.6,1.3,3.7,2.1,5.8,2.1s4.1-.7,5.8-2.1c1.6-1.3,2.7-3.2,3.1-5.3,0-.5,0-1,0-1.5.7-.9,1.3-1.5,1.9-1.5.5,0,1,.4,1.3.8.3,1.5.9,2.9,1.9,4,.9,1.2,2.2,2.1,3.6,2.7l2,.5c1.2.3,2.5.3,3.7,0,1.5-.4,2.8-1.2,3.8-2.2,1.5-1.3,2.4-3.1,2.6-5.1.2-1.2.2-2.4-.1-3.6-.3-1.2-.8-2.3-1.5-3.2-.7-1-1.6-1.8-2.7-2.4-1-.6-2.2-1-3.4-1.1h-2.1c-2,.2-3.9,1-5.4,2.4-1.5,1.4-2.4,3.3-2.7,5.3,0,.5,0,.9,0,1.4-.4,0-.7,0-1.1,0-.4,0-.8.1-1.2.3s-.7.4-1,.8c-.3-1.9-1.2-3.8-2.6-5.1-1.4-1.4-3.2-2.3-5.1-2.6h-.9c-1.3-.1-2.5,0-3.7.5-1.4.6-2.7,1.5-3.7,2.7s-1.6,2.7-1.9,4.2c0,.6,0,1.3,0,1.9l-12.2,1h-6.3s-.2.2,0,.5ZM1067.4,648.4c.3-1.8,1.2-3.5,2.6-4.8,1.4-1.2,3.2-1.9,5.1-1.9h1.5c1,.1,2,.5,2.9,1s1.7,1.2,2.3,2.1c.6.8,1,1.8,1.3,2.8.2,1,.3,2,0,3.1-.2,1.4-.9,2.8-1.8,3.9-1,1.1-2.2,1.9-3.6,2.4-1.1.2-2.3.2-3.5,0h-1.5c-1.8-.6-3.3-1.7-4.3-3.3-1-1.6-1.3-3.5-1-5.3ZM1046.5,650.8c.3-2,1.4-3.9,3.1-5.1,1.7-1.2,3.8-1.7,5.8-1.4,2,.3,3.9,1.4,5.1,3.1,1.2,1.7,1.7,3.7,1.4,5.8-.3,2-1.4,3.9-3.1,5.1s-3.8,1.7-5.8,1.4c-2-.3-3.9-1.4-5.1-3.1s-1.7-3.7-1.4-5.8Z"/>
        </g>
        <path id="Vector_125" class="cls-2" d="M1030.8,699.3l13.5,13.2-5.4,16.2-18.7-20.6,10.6-8.8Z"/>
        <path id="Vector_126" class="cls-2" d="M1050.2,702.1l-2.2,10.2,7,14.4,4.3-18.7-9.2-5.8Z"/>
        <path id="Vector_127" class="cls-15" d="M1059.2,728.4c9.2-2.1,17.7-6.2,25.2-11.9h.5l1.6-1.4-3.3-1.6c-6-2.5-12.3-4.3-18.8-5.4,0,.2,0,.4,0,.5.6,3.5.4,7-.5,10.4-.9,3.4-2.5,6.6-4.7,9.3Z"/>
        <path id="Vector_128" class="cls-15" d="M997.8,710.9l.8.8c8.8,8.6,19.9,14.5,31.9,17h1.4c-.8-.5-1.5-1.2-2.2-1.8-1-.8-2-1.8-3-2.8s-2.4-2.5-3.5-3.8c-1.1-1.3-.7-.9-1.1-1.3l-1.9-2.5-1.8-2.5c-.5-.8-1.1-1.5-1.5-2.2-.4-.7-2.1-3.2-2.6-4.2-.2-.4-.4-.8-.6-1.2,0,0-8,2.1-16,4.8Z"/>
        <path id="Vector_129" class="cls-6" d="M997.8,710.9l.8.8c8.8,8.6,19.9,14.5,31.9,17h1.4c-.8-.5-1.5-1.2-2.2-1.8-1-.8-2-1.8-3-2.8s-2.4-2.5-3.5-3.8c-1.1-1.3-.7-.9-1.1-1.3l-1.9-2.5-1.8-2.5c-.5-.8-1.1-1.5-1.5-2.2-.4-.7-2.1-3.2-2.6-4.2-.2-.4-.4-.8-.6-1.2,0,0-8,2.1-16,4.8Z"/>
        <path id="Vector_130" class="cls-8" d="M1030.8,699.3l13.5,13.2-5.4,16.2-18.7-20.6,10.6-8.8Z"/>
        <path id="Vector_131" class="cls-8" d="M1050.2,702.1l-2.2,10.2,7,14.4,4.3-18.7-9.2-5.8Z"/>
        <g id="Group_2" class="cls-21">
          <path id="Vector_132" class="cls-16" d="M1059.2,728.4c9.2-2.1,17.7-6.2,25.2-11.9h.5l1.6-1.4-3.3-1.6c-6-2.5-12.3-4.3-18.8-5.4,0,.2,0,.4,0,.5.6,3.5.4,7-.5,10.4-.9,3.4-2.5,6.6-4.7,9.3Z"/>
          <path id="Vector_133" class="cls-16" d="M997.8,710.9l.8.8c8.8,8.6,19.9,14.5,31.9,17h1.4c-.8-.5-1.5-1.2-2.2-1.8-1-.8-2-1.8-3-2.8s-2.4-2.5-3.5-3.8c-1.1-1.3-.7-.9-1.1-1.3l-1.9-2.5-1.8-2.5c-.5-.8-1.1-1.5-1.5-2.2-.4-.7-2.1-3.2-2.6-4.2-.2-.4-.4-.8-.6-1.2,0,0-8,2.1-16,4.8Z"/>
        </g>
        <path id="Vector_134" class="cls-3" d="M1382.4,679h-229.2c-3.9,0-7.6-1.5-10.4-4.3-2.8-2.8-4.3-6.5-4.3-10.4,0-1.9.4-3.8,1.1-5.6.7-1.8,1.8-3.4,3.2-4.8,1.4-1.4,3-2.4,4.8-3.2s3.7-1.1,5.6-1.1h229.2c1.9,0,3.8.4,5.6,1.1s3.4,1.8,4.8,3.2c1.4,1.4,2.4,3,3.2,4.8.7,1.8,1.1,3.7,1.1,5.6,0,3.9-1.5,7.6-4.3,10.4-2.8,2.8-6.5,4.3-10.4,4.3Z"/>
        <g id="Group_3" class="cls-4">
          <path id="Vector_135" d="M1815.2,644.7h-52.2v39.2h52.2v-39.2Z"/>
          <path id="Vector_136" d="M1829.9,679l-12.7-5.8v-17.9l12.7-5.8v29.5Z"/>
        </g>
        <g id="Group_4" class="cls-4">
          <path id="Vector_137" d="M1908.6,632.5l-7.7,5.2,14.8,14.8,4.2-3.6c1.4-1.1,3.1-1.7,4.8-1.6,1.8,0,3.4.8,4.7,2l13.7,13.7c1.2,1.3,1.8,3,1.8,4.8s-.7,3.5-1.8,4.8l-3.6,4.2,14.8,14.8,5.1-7.7c2.2-3.2,3.2-7,2.8-10.8-.4-3.8-2-7.4-4.8-10.2l-28.6-28.6c-2.7-2.5-6.2-4-9.9-4.3-3.7-.3-7.4.7-10.4,2.7Z"/>
          <path id="Vector_138" d="M1916.4,654.8l-17.5-17.5-5.2,5.2,17.5,17.5,5.2-5.2Z"/>
          <path id="Vector_139" d="M1955.3,693.8l-17.5-17.5-5.2,5.2,17.5,17.5,5.2-5.2Z"/>
        </g>
        <g id="Group_5" class="cls-4">
          <path id="Vector_140" d="M2097.8,638.5h-49.8c-.7.1-1.3.5-1.8,1-.5.5-.7,1.2-.7,1.9s.2,1.4.7,1.9c.5.5,1.1.9,1.8,1h49.8c.4,0,.9,0,1.3,0,.4-.1.8-.3,1.1-.6.3-.3.6-.6.8-1,.2-.4.3-.8.3-1.3s-.1-.9-.3-1.3c-.2-.4-.4-.7-.8-1-.3-.3-.7-.5-1.1-.6-.4-.1-.9-.1-1.3,0Z"/>
          <path id="Vector_141" d="M2097.8,653.8h-49.8c-.8,0-1.5.3-2.1.9-.6.6-.9,1.3-.9,2.1s.3,1.5.9,2.1c.5.5,1.3.9,2.1.9h49.8c.4,0,.8,0,1.1-.2.4-.1.7-.4,1-.6.3-.3.5-.6.7-1,.1-.4.2-.7.2-1.1,0-.8-.3-1.6-.9-2.1-.6-.6-1.3-.9-2.1-.9Z"/>
          <path id="Vector_142" d="M2097.8,669.2h-49.8c-.4,0-.8,0-1.1.2-.3.1-.7.4-.9.6-.3.3-.5.6-.6.9-.2.4-.2.7-.2,1.1s0,.8.2,1.1c.1.4.4.7.6.9.3.3.6.5.9.6.4.1.7.2,1.1.2h49.8c.4,0,.8,0,1.1-.2.4-.1.7-.4,1-.6.3-.3.5-.6.6-.9.2-.4.2-.7.2-1.1s0-.8-.2-1.1c-.1-.4-.4-.7-.6-.9-.3-.3-.6-.5-1-.6-.4-.1-.7-.2-1.1-.2Z"/>
          <path id="Vector_143" d="M2097.8,684.6h-49.8c-.8,0-1.5.3-2.1.9-.5.5-.9,1.3-.9,2.1s.3,1.5.9,2.1c.5.5,1.3.9,2.1.9h49.8c.8,0,1.5-.3,2.1-.9.5-.5.8-1.3.8-2.1s-.3-1.5-.8-2.1c-.6-.5-1.3-.9-2.1-.9Z"/>
        </g>
        <path id="Vector_144" class="cls-8" d="M1078.3,515.2h15.7v-20.9h-15.7v20.9Z"/>
        <path id="Vector_145" class="cls-8" d="M1052.8,515.2h15.7v-27.8h-15.7v27.8Z"/>
        <path id="Vector_146" class="cls-8" d="M1027.2,515.2h15.7v-34.8h-15.7v34.8Z"/>
        <path id="Vector_147" class="cls-8" d="M1001.6,515.2h15.7v-41.8h-15.7v41.8Z"/>
        <path id="Vector_148" class="cls-8" d="M1997.1,486.6h-9.3v20.9h9.3v-20.9Z"/>
        <path id="Vector_149" class="cls-8" d="M2003.5,515.2h74.1v-36.2h-74.1v36.2Z"/>
        <path id="Vector_150" class="cls-16" d="M1221.8,2396.9h806.2c33.6,0,60.9-27.2,60.9-60.9s-27.2-60.9-60.9-60.9h-806.2c-33.6,0-60.8,27.2-60.8,60.9s27.2,60.9,60.8,60.9Z"/>
        <path id="Vector_155" class="cls-2" d="M1095.5,2378.5c23.5-23.5,23.5-61.6,0-85.1s-61.6-23.5-85.1,0-23.5,61.6,0,85.1,61.6,23.5,85.1,0Z"/>
        <g id="Group_6" class="cls-22">
          <path id="Vector_156" class="cls-16" d="M1444.7,481l-323.9,1213.6-3.6,13.6-5.8,21.8-3.7,13.6-169.2,633.7v-766.9l317.1-1187.4h10.3c4.2,0,8.3,1.4,11.8,3.8,3.4,2.4,6.1,5.8,7.6,9.7l12.5,30.8c1.5,3.9,4.2,7.3,7.7,9.6,3.4,2.4,7.5,3.7,11.7,3.7l127.7.2Z"/>
          <path id="Vector_157" class="cls-16" d="M1555.7,481l-322,1206-1.9,7.2-17.6,66.1-1.9,7.2-230.1,861.9h-13.5c-5.9,0-11.7-1.6-16.6-4.8-4.9-3.2-8.8-7.8-11.2-13.2l225.2-843.8,2-7.2,17.6-66.1,1.9-7.2,322-1205.9h46.2-.2Z"/>
        </g>
        <path id="Vector_158" class="cls-2" d="M1001.5,887.4c0,8.7,1.7,17.2,5,25.3,3.3,8,8.2,15.3,14.4,21.4l.9.8c8.8,8.6,19.9,14.5,31.9,17h1.4c2.3.5,4.7.8,7,.9h10.5c1.3,0,2.7-.2,4-.5,1.6,0,3.3-.5,4.9-.8h.7c9.2-2.1,17.7-6.2,25.2-11.9h.5l1.6-1.4c8.5-7.1,15.2-16.2,19.2-26.5,4.1-10.3,5.5-21.5,4.1-32.5-1.4-11-5.6-21.5-12.1-30.4-6.5-9-15.2-16.1-25.3-20.8-10-4.7-21.1-6.8-32.2-6.1-11.1.7-21.8,4.2-31.1,10.2-9.4,6-17,14.2-22.4,23.9-5.3,9.7-8.1,20.6-8,31.7l-.2-.2Z"/>
        <path id="Vector_159" class="cls-15" d="M1029.3,874.3s-8.1,30.8,2.2,39.8c10.3,9.1,68.1,9.2,76.5-2.3,8.3-11.5-10.5-49.1-10.5-49.1l-68.1,11.5Z"/>
        <path id="Vector_160" class="cls-2" d="M1021.8,934.8c8.8,8.6,19.9,14.5,31.9,17h1.4c2.3.5,4.7.8,7,.9h10.5c1.3,0,2.7-.2,4-.5,1.6,0,3.3-.5,4.9-.8v.5l.7-.6c9.2-2.1,17.7-6.2,25.2-11.9-.4-1.1-.8-2.2-1.2-3.3h-1c-1.5-.5-4.5-1.5-8.8-2.5h-.5c-2.5-.6-5.3-1.3-8.5-1.9l-6.1-1.2h-.9c-1.8,0-3.8-.6-5.8-.8h-2.2c-3-.4-6.1-.6-9.4-.8h-13.2l-4.4.6-7.7,1.3c-6.2,1.2-11.7,2.8-16.1,4.2Z"/>
        <path id="Vector_161" class="cls-8" d="M1021.8,934.8c8.8,8.6,19.9,14.5,31.9,17h1.4c2.3.5,4.7.8,7,.9h10.5c1.3,0,2.7-.2,4-.5,1.6,0,3.3-.5,4.9-.8v.5l.7-.6c9.2-2.1,17.7-6.2,25.2-11.9-.4-1.1-.8-2.2-1.2-3.3h-1c-1.5-.5-4.5-1.5-8.8-2.5h-.5c-2.5-.6-5.3-1.3-8.5-1.9l-6.1-1.2h-.9c-1.8,0-3.8-.6-5.8-.8h-2.2c-3-.4-6.1-.6-9.4-.8h-13.2l-4.4.6-7.7,1.3c-6.2,1.2-11.7,2.8-16.1,4.2Z"/>
        <path id="Vector_162" class="cls-15" d="M1099.5,872.2s3.5-49.8-40.4-38.5c-55.1,14.5-23.1,80.7,3.8,72.2,8.1-2.7,15.6-7.1,21.9-13,6.3-5.8,11.3-12.9,14.6-20.8Z"/>
        <path id="Vector_163" class="cls-3" d="M1043.2,931.2l9.7,18.9.8,1.6h1.4c2.3.5,4.7.8,7,.9l5.2-7c.5,2.2,1,4.6,1.5,7.2h3.8c-.4-4.3-.7-7-.7-7l4.7,6.5c1.6,0,3.3-.5,4.9-.8l.9-20.6-2-.8c-2-.8-4.1-1.5-6.3-1.9h-1.4c-4.4-.6-8.9-.6-13.3,0l-4,.5c-2.2.3-4.3.7-6.5,1.3-1.9.4-3.7.9-5.5,1.5l-.3-.3Z"/>
        <path id="Vector_164" class="cls-12" d="M1069.6,936.2l-21.5-6.1c13.2-9.1,6.5-29.5,6.5-29.5l21.3,7.7c-1,3-1.7,6-2.2,9.1-2.2,13.3,3.8,14.4,3.8,14.4l-7.8,4.4Z"/>
        <path id="Vector_165" class="cls-3" d="M1075.9,908.2c-1,3-1.7,6-2.2,9.1-7.6-3.9-14.1-9.6-19.1-16.5l21.3,7.5Z"/>
        <path id="Vector_166" class="cls-12" d="M1071.1,846.2c19.2-1.2,26.2,8.7,28.8,28.5,3.3,24.7-1,42.7-25.5,39-33.2-4.8-35.5-65.2-3.4-67.5Z"/>
        <path id="Vector_167" class="cls-14" d="M1087.4,874.5c1.7,2.8,3.8,5.4,6.1,7.7-.5.8-1.2,1.5-2.1,1.9s-1.8.6-2.8.5l-1.2-10.2Z"/>
        <path id="Vector_168" class="cls-15" d="M1075.5,873.8c0,1.5-.6,2.9-1.7,3-1.1,0-2-1.1-2.2-2.7-.2-1.6.6-2.9,1.7-3,1.1,0,2,1.1,2.1,2.7Z"/>
        <path id="Vector_169" class="cls-15" d="M1072.8,871.2l3.3-1.6s-1.5,3.1-3.3,1.6Z"/>
        <path id="Vector_170" class="cls-15" d="M1095.1,871.7c0,1.6-.6,2.9-1.6,3-1,0-2.1-1.1-2.1-2.7,0-1.6.5-2.9,1.6-3,1.1,0,2,1.2,2.2,2.7Z"/>
        <path id="Vector_171" class="cls-15" d="M1092.3,869.2l3.4-1.7s-1.3,3-3.4,1.7Z"/>
        <path id="Vector_172" class="cls-15" d="M1066.2,866.7c-.6,0-1.2-.2-1.6-.5-.6-.4-1-1.1-1.1-1.8-.1-.7,0-1.5.4-2.1,1.3-1.5,2.9-2.8,4.8-3.6,1.8-.8,3.9-1.2,5.9-1.1.4,0,.7,0,1.1.2.3.2.6.4.9.7.2.3.4.6.5.9,0,.3.1.7,0,1.1,0,.4-.1.7-.3,1-.2.3-.4.6-.7.9-.3.2-.6.4-.9.6-.3.1-.7.2-1.1.2-1.1,0-2.1.1-3.1.5-1,.4-1.9,1-2.6,1.8-.3.4-.6.6-1,.8-.4.2-.8.3-1.3.3Z"/>
        <path id="Vector_173" class="cls-15" d="M1096.2,862.6c-.5.1-.9.1-1.4,0-.8-.5-1.6-.9-2.6-1-.9-.2-1.8-.1-2.8.1-.3.1-.7.2-1.1.2-.4,0-.7,0-1.1-.2-.3-.1-.6-.4-.9-.6-.3-.3-.5-.6-.6-.9-.2-.3-.2-.7-.2-1,0-.4,0-.7.2-1s.3-.6.6-.9.6-.5.9-.6c1.7-.6,3.5-.8,5.3-.6s3.5.8,5,1.8c.5.3.9.8,1.1,1.4.2.6.2,1.2,0,1.8-.2.6-.5,1.1-.9,1.5-.5.4-1,.6-1.6.6v-.4Z"/>
        <path id="Vector_174" class="cls-15" d="M1052.1,880.2c4.4-8.9,6.4-18.7,5.8-28.5,0,0,37.2-18.1,41.5,20.5,0,0,1.5-34.6-31.7-33.2-33.2,1.4-29.8,49.8-11.8,63.2-2.4-3.1-4-6.7-4.6-10.5-.7-3.8-.4-7.7.8-11.4Z"/>
        <path id="Vector_175" class="cls-12" d="M1055.5,884.2c-.3-2.2-1.4-4.2-3.2-5.5-1.7-1.3-3.9-2-6.1-1.7-5.9,1-7.7,13.5,7.1,15.4,1.8.5,2.9-1.7,2.2-8.2Z"/>
        <path id="Vector_176" class="cls-15" d="M1090.8,892.3c-.8,2.2-1.5,4.5-2,6.8h-1.2c-5.7-.4-8.2-2.4-9.2-4.5-.5-1.1-.7-2.2-.6-3.4,0-.7,0-1.3,0-2,3.4,1.8,7.1,2.8,10.9,3.1h2.2Z"/>
        <path id="Vector_177" class="cls-16" d="M1088.8,892.3l-.6,2c-3.8.2-7.5-.9-10.5-3.1,0-.7,0-1.3,0-2,3.5,1.8,7.3,2.9,11.2,3.1Z"/>
        <path id="Vector_178" class="cls-24" d="M1087.5,899c-5.7-.4-8.2-2.4-9.2-4.5,2.2.1,4.3.7,6.2,1.6,1.2.7,2.3,1.7,3,2.9Z"/>
        <path id="Vector_179" class="cls-15" d="M1070.8,847.8s-5.8,32.2-25.8,33.2c-20,.9,8.2-41.3,8.2-41.3,0,0,31.8-14.4,49,1.8,17.2,16.2-2.8,30.8-2.8,30.8,0,0-.3-24.7-28.7-24.5Z"/>
        <path id="Vector_180" class="cls-15" d="M1058.8,877.7c-.3,0-.7-.1-1-.3-.3-.2-.5-.4-.7-.7-.1-.2-.2-.5-.2-.7,0-.3,0-.5,0-.7,0-.2.2-.5.3-.7.2-.2.4-.4.6-.5,13.9-7.7,10.6-27.9,10.6-28.1,0-.2,0-.5,0-.8,0-.2.2-.5.3-.7.1-.2.3-.4.6-.5.2-.1.5-.2.7-.3.2,0,.5,0,.8,0,.2,0,.5.1.7.3.2.1.4.3.5.5s.2.5.3.7c0,.9,3.8,23.1-12.5,32.2-.3.1-.6.2-.9.2Z"/>
        <path id="Vector_181" class="cls-15" d="M1049.2,877.8c0,.1,0,.2.1.3,0,0,.2.1.3.1h4.5l14.2-1.3c.4,2.1,1.5,3.9,3.1,5.3,1.6,1.3,3.6,2.1,5.7,2.1s4.1-.7,5.8-2.1c1.6-1.3,2.7-3.2,3.1-5.3,0-.5,0-1,0-1.5.7-.9,1.3-1.5,1.9-1.5.5,0,1,.4,1.3.8.3,1.5.9,2.9,1.9,4,1,1.2,2.2,2.1,3.6,2.7l2,.5c1.2.3,2.5.3,3.7,0,1.5-.4,2.8-1.2,3.8-2.2,1.5-1.3,2.4-3.1,2.6-5.1.2-1.2.2-2.4-.1-3.6-.3-1.2-.8-2.3-1.5-3.2-.7-1-1.6-1.8-2.7-2.4-1-.6-2.2-1-3.4-1.1h-2.1c-2,.2-3.9,1-5.4,2.4-1.5,1.4-2.4,3.3-2.7,5.3,0,.5,0,.9,0,1.4-.4,0-.7,0-1.1,0-.4,0-.8.1-1.2.3s-.7.4-1,.8c-.3-1.9-1.2-3.8-2.5-5.1-1.4-1.4-3.2-2.3-5.1-2.6h-.9c-1.3-.1-2.5,0-3.7.5-1.4.6-2.7,1.5-3.7,2.7-1,1.2-1.6,2.7-1.8,4.2,0,.6,0,1.3,0,1.9l-12.2,1h-6.3s-.2.2,0,.5ZM1090.5,871.5c.3-1.8,1.2-3.5,2.6-4.8,1.4-1.2,3.2-1.9,5.1-1.9h1.5c1,.1,2,.5,2.9,1,.9.5,1.7,1.2,2.3,2.1.6.8,1.1,1.8,1.3,2.8.2,1,.3,2,0,3.1-.2,1.4-.9,2.8-1.8,3.9-1,1.1-2.2,1.9-3.6,2.4-1.1.2-2.3.2-3.5,0h-1.5c-1.8-.6-3.3-1.7-4.3-3.3-1-1.6-1.3-3.5-1-5.3ZM1069.5,873.8c.2-1,.5-2,1-2.9.5-.9,1.2-1.6,2.1-2.2.8-.6,1.8-1,2.8-1.3s2-.3,3-.1c1,.2,2,.5,2.9,1,.9.5,1.6,1.2,2.2,2.1.6.8,1,1.8,1.3,2.8.2,1,.3,2,.1,3-.3,2-1.4,3.9-3.1,5.1-1.7,1.2-3.8,1.7-5.8,1.4-2-.3-3.9-1.4-5.1-3.1-1.2-1.7-1.7-3.7-1.4-5.8Z"/>
        <g id="Group_7" class="cls-19">
          <path id="Vector_182" class="cls-16" d="M1049.2,877.8c0,.1,0,.2.1.3,0,0,.2.1.3.1h4.5l14.2-1.3c.4,2.1,1.5,3.9,3.1,5.3,1.6,1.3,3.6,2.1,5.7,2.1s4.1-.7,5.8-2.1c1.6-1.3,2.7-3.2,3.1-5.3,0-.5,0-1,0-1.5.7-.9,1.3-1.5,1.9-1.5.5,0,1,.4,1.3.8.3,1.5.9,2.9,1.9,4,1,1.2,2.2,2.1,3.6,2.7l2,.5c1.2.3,2.5.3,3.7,0,1.5-.4,2.8-1.2,3.8-2.2,1.5-1.3,2.4-3.1,2.6-5.1.2-1.2.2-2.4-.1-3.6-.3-1.2-.8-2.3-1.5-3.2-.7-1-1.6-1.8-2.7-2.4-1-.6-2.2-1-3.4-1.1h-2.1c-2,.2-3.9,1-5.4,2.4-1.5,1.4-2.4,3.3-2.7,5.3,0,.5,0,.9,0,1.4-.4,0-.7,0-1.1,0-.4,0-.8.1-1.2.3s-.7.4-1,.8c-.3-1.9-1.2-3.8-2.5-5.1-1.4-1.4-3.2-2.3-5.1-2.6h-.9c-1.3-.1-2.5,0-3.7.5-1.4.6-2.7,1.5-3.7,2.7-1,1.2-1.6,2.7-1.8,4.2,0,.6,0,1.3,0,1.9l-12.2,1h-6.3s-.2.2,0,.5ZM1090.5,871.5c.3-1.8,1.2-3.5,2.6-4.8,1.4-1.2,3.2-1.9,5.1-1.9h1.5c1,.1,2,.5,2.9,1,.9.5,1.7,1.2,2.3,2.1.6.8,1.1,1.8,1.3,2.8.2,1,.3,2,0,3.1-.2,1.4-.9,2.8-1.8,3.9-1,1.1-2.2,1.9-3.6,2.4-1.1.2-2.3.2-3.5,0h-1.5c-1.8-.6-3.3-1.7-4.3-3.3-1-1.6-1.3-3.5-1-5.3ZM1069.5,873.8c.2-1,.5-2,1-2.9.5-.9,1.2-1.6,2.1-2.2.8-.6,1.8-1,2.8-1.3s2-.3,3-.1c1,.2,2,.5,2.9,1,.9.5,1.6,1.2,2.2,2.1.6.8,1,1.8,1.3,2.8.2,1,.3,2,.1,3-.3,2-1.4,3.9-3.1,5.1-1.7,1.2-3.8,1.7-5.8,1.4-2-.3-3.9-1.4-5.1-3.1-1.2-1.7-1.7-3.7-1.4-5.8Z"/>
        </g>
        <path id="Vector_183" class="cls-2" d="M1053.8,922.4l13.5,13.2-5.4,16.2-18.7-20.6,10.6-8.8Z"/>
        <path id="Vector_184" class="cls-2" d="M1073.3,925.2l-2.2,10.2,7,14.4,4.3-18.7-9.1-5.8Z"/>
        <path id="Vector_185" class="cls-15" d="M1082.2,951.5c9.2-2.1,17.7-6.2,25.2-11.9h.5l1.6-1.4-3.3-1.6c-6-2.5-12.3-4.3-18.8-5.4,0,.2,0,.4,0,.5.6,3.5.4,7-.4,10.4-.9,3.4-2.5,6.6-4.7,9.3Z"/>
        <path id="Vector_186" class="cls-15" d="M1020.9,934l.9.8c8.8,8.6,19.9,14.5,31.9,17h1.4c-.8-.5-1.5-1.2-2.2-1.8-1-.8-2-1.8-3-2.8s-2.4-2.5-3.5-3.8c-1.1-1.3-.7-.9-1.1-1.3l-1.9-2.5-1.8-2.5c-.5-.8-1.1-1.5-1.5-2.2-.4-.7-2.1-3.2-2.6-4.2-.2-.4-.4-.8-.6-1.2,0,0-8,2.1-16,4.8Z"/>
        <path id="Vector_187" class="cls-6" d="M1020.9,934l.9.8c8.8,8.6,19.9,14.5,31.9,17h1.4c-.8-.5-1.5-1.2-2.2-1.8-1-.8-2-1.8-3-2.8s-2.4-2.5-3.5-3.8c-1.1-1.3-.7-.9-1.1-1.3l-1.9-2.5-1.8-2.5c-.5-.8-1.1-1.5-1.5-2.2-.4-.7-2.1-3.2-2.6-4.2-.2-.4-.4-.8-.6-1.2,0,0-8,2.1-16,4.8Z"/>
        <path id="Vector_188" class="cls-8" d="M1053.8,922.4l13.5,13.2-5.4,16.2-18.7-20.6,10.6-8.8Z"/>
        <path id="Vector_189" class="cls-8" d="M1073.3,925.2l-2.2,10.2,7,14.4,4.3-18.7-9.1-5.8Z"/>
        <g id="Group_8" class="cls-21">
          <path id="Vector_190" class="cls-16" d="M1082.2,951.5c9.2-2.1,17.7-6.2,25.2-11.9h.5l1.6-1.4-3.3-1.6c-6-2.5-12.3-4.3-18.8-5.4,0,.2,0,.4,0,.5.6,3.5.4,7-.4,10.4-.9,3.4-2.5,6.6-4.7,9.3Z"/>
          <path id="Vector_191" class="cls-16" d="M1020.9,934l.9.8c8.8,8.6,19.9,14.5,31.9,17h1.4c-.8-.5-1.5-1.2-2.2-1.8-1-.8-2-1.8-3-2.8s-2.4-2.5-3.5-3.8c-1.1-1.3-.7-.9-1.1-1.3l-1.9-2.5-1.8-2.5c-.5-.8-1.1-1.5-1.5-2.2-.4-.7-2.1-3.2-2.6-4.2-.2-.4-.4-.8-.6-1.2,0,0-8,2.1-16,4.8Z"/>
        </g>
        <path id="Vector_192" class="cls-16" d="M2086.9,1141.2c0,9.6-2.1,19.2-6.2,27.9s-10,16.4-17.4,22.6l-1.6,1.4h-.5l-.6.5c-7.3,5.5-15.6,9.4-24.5,11.5h-.7c-1.6,0-3.3.6-4.9.8-1.3.2-2.7.4-4,.5h-10.5c-2.4-.2-4.7-.5-7-.9h-1.4c-10.1-2.1-19.5-6.6-27.5-13.1-1.6-1.2-3-2.5-4.4-3.9l-.8-.8c-7.7-7.6-13.3-17-16.5-27.4-3.2-10.4-3.7-21.3-1.6-31.9,2.1-10.6,6.8-20.6,13.6-28.9s15.7-14.9,25.7-19.1c10-4.1,20.9-5.8,31.6-4.7,10.8,1.1,21.1,4.7,30.1,10.8,9,6,16.4,14.2,21.5,23.7,5.1,9.5,7.8,20.2,7.8,31v.2Z"/>
        <path id="Vector_193" class="cls-15" d="M2039.1,1170.5h-36.7v20.3h36.7v-20.3Z"/>
        <path id="Vector_194" class="cls-7" d="M2039.1,1170.5h-36.7v20.3h36.7v-20.3Z"/>
        <path id="Vector_195" class="cls-3" d="M2039.1,1177.6h-36.7v1h36.7v-1Z"/>
        <path id="Vector_196" class="cls-3" d="M2039.1,1182h-36.7v1h36.7v-1Z"/>
        <path id="Vector_197" class="cls-3" d="M2039.1,1186.4h-36.7v1h36.7v-1Z"/>
        <path id="Vector_198" class="cls-3" d="M2039,1170.5v5.1c-11.7,4.6-24.1,7.2-36.6,7.7v-12.8h36.6Z"/>
        <path id="Vector_199" class="cls-2" d="M2054.2,1112.8h-64.2c-3.7,0-7.3,1.5-10,4.1s-4.1,6.2-4.1,9.9v35.9c0,3.7,1.5,7.3,4.2,9.9,2.6,2.6,6.2,4.1,9.9,4.1h64.2c3.7,0,7.3-1.5,9.9-4.1,2.6-2.6,4.1-6.2,4.1-9.9v-35.9c0-3.7-1.5-7.3-4.1-9.9-2.6-2.6-6.2-4.1-9.9-4.2Z"/>
        <path id="Vector_200" class="cls-3" d="M2054.2,1112.8h-25.2c3.7,0,7.3,1.5,9.9,4.2,2.6,2.6,4.1,6.2,4.1,9.9v35.9c0,3.7-1.5,7.3-4.1,9.9-2.6,2.6-6.2,4.1-9.9,4.1h25.2c3.7,0,7.3-1.5,9.9-4.1,2.6-2.6,4.1-6.2,4.1-9.9v-35.9c0-3.7-1.5-7.3-4.1-9.9-2.6-2.6-6.2-4.1-9.9-4.2Z"/>
        <path id="Vector_201" class="cls-15" d="M2028.2,1119h-38.1c-4.8,0-8.6,3.9-8.6,8.6v34.4c0,4.8,3.9,8.6,8.6,8.6h38.1c4.8,0,8.6-3.9,8.6-8.6v-34.4c0-4.8-3.9-8.6-8.6-8.6Z"/>
        <path id="Vector_202" class="cls-15" d="M2060.1,1137.8c-.1,0-.3,0-.4,0-.1,0-.2-.1-.3-.2,0,0-.2-.2-.2-.3,0-.1,0-.2,0-.4v-41.8c0-.2.1-.5.3-.7.2-.2.4-.3.7-.3.2,0,.5.1.6.3s.3.4.3.6v41.8c0,.2-.1.5-.3.7s-.4.3-.6.3Z"/>
        <path id="Vector_203" class="cls-2" d="M2071.5,1144.8c0,2.2-.4,4.4-1.3,6.4-.6,1.4-1.4,2.7-2.5,3.8-1,1.1-2.2,2-3.5,2.6-1.3.6-2.8.9-4.2.9-3.2-.6-6.1-2.3-8.2-4.8-2.1-2.5-3.2-5.7-3.2-8.9s1.1-6.4,3.2-8.9c2.1-2.5,5-4.2,8.2-4.8,1.5,0,2.9.3,4.2,1,1.3.6,2.5,1.5,3.5,2.6,1,1.1,1.9,2.4,2.5,3.8.9,2,1.4,4.1,1.4,6.3Z"/>
        <g id="Group_9" class="cls-20">
          <path id="Vector_204" d="M2064,1154.6c-2.3-.4-4.3-1.7-5.8-3.5-1.5-1.8-2.3-4-2.3-6.3s.8-4.6,2.3-6.4c1.5-1.8,3.5-3,5.8-3.5,1.2,0,2.4.4,3.5,1s2,1.5,2.6,2.5c-.6-1.4-1.4-2.7-2.5-3.8-1.1-.6-2.4-.9-3.7-.9-2.6.4-5,1.8-6.7,3.8s-2.7,4.6-2.7,7.3.9,5.2,2.7,7.3c1.7,2,4.1,3.4,6.7,3.8,1.3,0,2.5-.3,3.6-.8,1.1-1.1,1.9-2.4,2.5-3.8-.7,1-1.6,1.9-2.6,2.5s-2.3.9-3.5,1Z"/>
        </g>
        <path id="Vector_205" class="cls-16" d="M2022.2,1136.8c0,2.2-1,4-2.2,4s-2.2-1.8-2.2-4,1-4,2.2-4,2.2,1.8,2.2,4Z"/>
        <path id="Vector_206" class="cls-16" d="M1996,1140.8c1.2,0,2.2-1.8,2.2-4s-1-4-2.2-4-2.2,1.8-2.2,4,1,4,2.2,4Z"/>
        <path id="Vector_207" class="cls-10" d="M2007.7,1155.5c2.2,2.4,4.2,5,6.1,7.7l1.5-.8c6.9-3.4,9-7.2,9.2-10.5,0-1.6-.3-3.2-.9-4.6-.4-.8-.8-1.6-1.4-2.3-3.3,4-7.5,7.2-12.2,9.5-.7.4-1.5.8-2.3,1.1Z"/>
        <path id="Vector_208" class="cls-16" d="M2010.2,1154.2l1.8,2.2c6.5-3.2,10.7-6.4,11.8-9.4-.4-.8-.8-1.6-1.4-2.3-3.3,4-7.5,7.2-12.2,9.5Z"/>
        <path id="Vector_209" class="cls-2" d="M2015.4,1162.2c6.9-3.4,9-7.2,9.2-10.5-2.6,1.4-5,3.2-7,5.3-1.3,1.5-2,3.3-2.2,5.2Z"/>
        <path id="Vector_210" class="cls-2" d="M2060.6,1193.8c-7.3,5.5-15.6,9.4-24.5,11.5h-.7c-1.6,0-3.3.6-4.9.8-1.3.2-2.7.4-4,.5h-10.5c-2.4-.2-4.7-.5-7-.9h-1.4c-10.1-2.2-19.6-6.8-27.5-13.4,3.1-2.4,6.9-3.7,10.8-3.7h57.5c4.6,0,9.1,1.9,12.3,5.2Z"/>
        <path id="Vector_222" class="cls-2" d="M1001.5,1472c0,8.7,1.7,17.2,5,25.2,3.3,8,8.2,15.3,14.4,21.4l.9.8c8.8,8.6,19.9,14.5,31.9,17h1.4c2.3.5,4.7.8,7,.9h10.5c1.3,0,2.7-.2,4-.5,1.6,0,3.3-.5,4.9-.8h.7c9.2-2.1,17.7-6.2,25.2-11.9h.5l1.6-1.4c8.5-7.1,15.2-16.2,19.2-26.5,4.1-10.3,5.5-21.5,4.1-32.5s-5.6-21.5-12.1-30.4c-6.5-9-15.2-16.1-25.3-20.8-10-4.7-21.1-6.8-32.2-6.1-11.1.7-21.8,4.2-31.1,10.2-9.4,6-17,14.2-22.4,23.9-5.3,9.7-8.1,20.6-8,31.7l-.2-.2Z"/>
        <path id="Vector_223" class="cls-15" d="M1029.3,1458.9s-8.1,30.8,2.2,39.8c10.3,9.1,68.1,9.2,76.5-2.3,8.3-11.5-10.5-49.1-10.5-49.1l-68.1,11.5Z"/>
        <path id="Vector_224" class="cls-2" d="M1021.8,1519.4c8.8,8.6,19.9,14.5,31.9,17h1.4c2.3.5,4.7.8,7,.9h10.5c1.3,0,2.7-.2,4-.5,1.6,0,3.3-.5,4.9-.8v.5l.7-.6c9.2-2.1,17.7-6.2,25.2-11.9-.4-1.1-.8-2.2-1.2-3.3h-1c-1.5-.5-4.5-1.5-8.8-2.5h-.5c-2.5-.6-5.3-1.3-8.5-1.9l-6.1-1.2h-.9c-1.8,0-3.8-.6-5.8-.8h-2.2c-3-.4-6.1-.6-9.4-.8h-13.2l-4.4.6-7.7,1.3c-6.2,1.2-11.7,2.8-16.1,4.2Z"/>
        <path id="Vector_225" class="cls-8" d="M1021.8,1519.4c8.8,8.6,19.9,14.5,31.9,17h1.4c2.3.5,4.7.8,7,.9h10.5c1.3,0,2.7-.2,4-.5,1.6,0,3.3-.5,4.9-.8v.5l.7-.6c9.2-2.1,17.7-6.2,25.2-11.9-.4-1.1-.8-2.2-1.2-3.3h-1c-1.5-.5-4.5-1.5-8.8-2.5h-.5c-2.5-.6-5.3-1.3-8.5-1.9l-6.1-1.2h-.9c-1.8,0-3.8-.6-5.8-.8h-2.2c-3-.4-6.1-.6-9.4-.8h-13.2l-4.4.6-7.7,1.3c-6.2,1.2-11.7,2.8-16.1,4.2Z"/>
        <path id="Vector_226" class="cls-15" d="M1099.5,1456.8s3.5-49.8-40.4-38.5c-55.1,14.5-23.1,80.7,3.8,72.2,8.1-2.7,15.6-7.2,21.9-13,6.3-5.8,11.3-12.9,14.6-20.8Z"/>
        <path id="Vector_227" class="cls-3" d="M1043.2,1515.8l9.7,18.9.8,1.6h1.4c2.3.5,4.7.8,7,.9l5.2-7c.5,2.2,1,4.6,1.5,7.1h3.8c-.4-4.3-.7-7-.7-7l4.7,6.5c1.6,0,3.3-.5,4.9-.8l.9-20.6-2-.9c-2-.8-4.1-1.5-6.3-1.9h-1.4c-4.4-.6-8.9-.6-13.3,0l-4,.5c-2.2.2-4.3.7-6.5,1.3-1.9.4-3.7.9-5.5,1.5l-.3-.3Z"/>
        <path id="Vector_228" class="cls-12" d="M1069.6,1520.8l-21.5-6.1c13.2-9.1,6.5-29.5,6.5-29.5l21.3,7.7c-1,3-1.7,6-2.2,9.1-2.2,13.3,3.8,14.4,3.8,14.4l-7.8,4.4Z"/>
        <path id="Vector_229" class="cls-3" d="M1075.9,1492.8c-1,3-1.7,6-2.2,9.1-7.6-3.9-14.1-9.6-19.1-16.5l21.3,7.5Z"/>
        <path id="Vector_230" class="cls-12" d="M1071.1,1430.8c19.2-1.2,26.2,8.7,28.8,28.5,3.3,24.7-1,42.7-25.5,39-33.2-4.8-35.5-65.2-3.4-67.5Z"/>
        <path id="Vector_231" class="cls-14" d="M1087.4,1459.2c1.7,2.8,3.8,5.4,6.1,7.7-.5.8-1.2,1.5-2.1,1.9-.9.4-1.8.6-2.8.5l-1.2-10.2Z"/>
        <path id="Vector_232" class="cls-15" d="M1075.5,1458.4c0,1.5-.6,2.9-1.7,3-1.1,0-2-1.1-2.2-2.7-.2-1.6.6-2.9,1.7-3,1.1,0,2,1.1,2.1,2.7Z"/>
        <path id="Vector_233" class="cls-15" d="M1072.8,1455.8l3.3-1.6s-1.5,3-3.3,1.6Z"/>
        <path id="Vector_234" class="cls-15" d="M1095.1,1456.3c0,1.6-.6,2.9-1.6,3-1,0-2.1-1.1-2.1-2.7,0-1.6.5-2.9,1.6-3,1.1,0,2,1.2,2.2,2.7Z"/>
        <path id="Vector_235" class="cls-15" d="M1092.3,1453.8l3.4-1.7s-1.3,3-3.4,1.7Z"/>
        <path id="Vector_236" class="cls-15" d="M1066.2,1451.3c-.6,0-1.2-.2-1.6-.5-.6-.4-1-1.1-1.1-1.8-.1-.7,0-1.5.4-2.1,1.3-1.6,2.9-2.8,4.8-3.6,1.8-.8,3.9-1.1,5.9-1,.7,0,1.4.3,1.9.8.5.5.8,1.2.8,2s-.3,1.4-.8,2c-.5.5-1.2.8-1.9.8-1.1,0-2.1.1-3.1.5-1,.4-1.9,1-2.6,1.8-.3.4-.7.7-1.2.9-.5.2-1,.3-1.5.2Z"/>
        <path id="Vector_237" class="cls-15" d="M1096.2,1447.2c-.5,0-.9,0-1.4,0-.8-.5-1.6-.9-2.6-1-.9-.2-1.8-.1-2.8.1-.7.2-1.4.2-2.1,0-.7-.3-1.2-.8-1.5-1.5-.3-.7-.3-1.4,0-2.1.3-.7.8-1.2,1.4-1.5,1.7-.6,3.5-.8,5.3-.6,1.8.2,3.5.8,5,1.8.6.4,1.1,1,1.3,1.7.2.7,0,1.5-.3,2.1-.3.3-.7.6-1.1.8-.4.2-.9.2-1.3.2Z"/>
        <path id="Vector_238" class="cls-15" d="M1052.1,1464.8c4.4-8.9,6.4-18.7,5.8-28.5,0,0,37.2-18.1,41.5,20.5,0,0,1.5-34.6-31.7-33.2-33.2,1.4-29.8,49.8-11.8,63.2-2.4-3.1-4-6.7-4.6-10.5-.7-3.8-.4-7.7.8-11.4Z"/>
        <path id="Vector_239" class="cls-12" d="M1055.5,1468.8c-.3-2.2-1.4-4.2-3.2-5.5-1.7-1.3-3.9-2-6.1-1.7-5.9,1-7.7,13.5,7.1,15.4,1.8.5,2.9-1.7,2.2-8.2Z"/>
        <path id="Vector_240" class="cls-15" d="M1090.8,1476.9c-.8,2.2-1.5,4.5-2,6.8h-1.2c-5.7-.4-8.2-2.4-9.2-4.5-.5-1.1-.7-2.2-.6-3.4,0-.7,0-1.3,0-2,3.4,1.8,7.1,2.8,10.9,3.1h2.2Z"/>
        <path id="Vector_241" class="cls-16" d="M1088.8,1476.9l-.6,2c-3.8.2-7.5-.9-10.5-3.1,0-.7,0-1.3,0-2,3.5,1.8,7.3,2.9,11.2,3.1Z"/>
        <path id="Vector_242" class="cls-24" d="M1087.5,1483.6c-5.7-.4-8.2-2.4-9.2-4.5,2.2.1,4.3.7,6.2,1.6,1.2.7,2.3,1.7,3,2.9Z"/>
        <path id="Vector_243" class="cls-15" d="M1070.8,1432.5s-5.8,32.2-25.8,33.2c-20,.9,8.2-41.3,8.2-41.3,0,0,31.8-14.4,49,1.8s-2.8,30.8-2.8,30.8c0,0-.3-24.7-28.7-24.5Z"/>
        <path id="Vector_244" class="cls-15" d="M1058.8,1462.3c-.3,0-.7-.1-1-.3-.3-.2-.5-.4-.7-.7-.1-.2-.2-.5-.2-.7,0-.2,0-.5,0-.8,0-.2.2-.5.3-.7.2-.2.4-.4.6-.5,13.9-7.7,10.6-27.9,10.6-28.1,0-.2,0-.5,0-.8,0-.2.2-.5.3-.7.1-.2.3-.4.6-.5.2-.1.5-.2.7-.3.5,0,1,0,1.4.3.4.3.7.7.8,1.2,0,.9,3.8,23.1-12.5,32.2-.3.1-.6.2-.9.2Z"/>
        <path id="Vector_245" class="cls-15" d="M1049.2,1462.5c0,0,0,.1,0,.2,0,0,0,0,0,.2,0,0,0,0,.2,0,0,0,.1,0,.2,0h4.5l14.2-1.3c.4,1.9,1.3,3.6,2.7,4.9s3.1,2.2,5,2.4c2.4.3,4.8-.3,6.7-1.7,1.9-1.4,3.2-3.6,3.5-6,0-.5,0-1,0-1.5.7-.9,1.3-1.5,1.9-1.5.5,0,1,.4,1.3.8.3,1.5.9,2.9,1.9,4,1,1.2,2.2,2.1,3.6,2.7l2,.5c1.2.3,2.5.3,3.7,0,1.4-.4,2.8-1.2,3.8-2.2,1.5-1.3,2.4-3.1,2.6-5.1.2-1.2.2-2.4-.1-3.6-.3-1.2-.8-2.3-1.5-3.2-.7-1-1.6-1.8-2.7-2.4-1-.6-2.2-1-3.4-1.1h-2.1c-2,.2-4,1-5.4,2.4-1.5,1.4-2.4,3.3-2.7,5.3,0,.5,0,.9,0,1.4-.3,0-.7,0-1.1,0-.4,0-.8.1-1.2.3-.4.2-.7.4-1,.8-.3-1.9-1.2-3.8-2.6-5.1s-3.2-2.3-5.1-2.6h-.9c-1.3-.1-2.5,0-3.7.5-1.4.6-2.7,1.5-3.7,2.7-1,1.2-1.6,2.7-1.9,4.2,0,.6,0,1.3,0,1.9l-12.2,1h-6.3s-.4.5-.3.8ZM1090.5,1456.1c.3-1.8,1.2-3.5,2.6-4.8,1.4-1.2,3.2-1.9,5.1-1.9h1.5c1,.1,2,.5,2.9,1,.9.5,1.7,1.2,2.3,2.1.6.8,1.1,1.8,1.3,2.8.2,1,.3,2.1,0,3.1-.2,1.4-.9,2.8-1.8,3.9-1,1.1-2.2,1.9-3.6,2.4-1.1.2-2.3.2-3.5,0h-1.5c-1.8-.5-3.3-1.7-4.3-3.3-1-1.6-1.3-3.5-1-5.3ZM1069.5,1458.5c.3-2,1.4-3.9,3.1-5.1,1.7-1.2,3.8-1.7,5.8-1.4,2,.3,3.9,1.4,5.1,3.1,1.2,1.7,1.7,3.7,1.4,5.8-.2,1-.5,2-1,2.9-.5.9-1.2,1.6-2.1,2.2-.8.6-1.8,1-2.8,1.3-1,.2-2,.3-3,.1-1-.2-2-.5-2.9-1-.9-.5-1.6-1.2-2.2-2.1-.6-.8-1-1.8-1.3-2.8-.2-1-.3-2-.1-3Z"/>
        <g id="Group_10" class="cls-19">
          <path id="Vector_246" class="cls-16" d="M1049.2,1462.5c0,0,0,.1,0,.2,0,0,0,0,0,.2,0,0,0,0,.2,0,0,0,.1,0,.2,0h4.5l14.2-1.3c.4,1.9,1.3,3.6,2.7,4.9s3.1,2.2,5,2.4c2.4.3,4.8-.3,6.7-1.7,1.9-1.4,3.2-3.6,3.5-6,0-.5,0-1,0-1.5.7-.9,1.3-1.5,1.9-1.5.5,0,1,.4,1.3.8.3,1.5.9,2.9,1.9,4,1,1.2,2.2,2.1,3.6,2.7l2,.5c1.2.3,2.5.3,3.7,0,1.4-.4,2.8-1.2,3.8-2.2,1.5-1.3,2.4-3.1,2.6-5.1.2-1.2.2-2.4-.1-3.6-.3-1.2-.8-2.3-1.5-3.2-.7-1-1.6-1.8-2.7-2.4-1-.6-2.2-1-3.4-1.1h-2.1c-2,.2-4,1-5.4,2.4-1.5,1.4-2.4,3.3-2.7,5.3,0,.5,0,.9,0,1.4-.3,0-.7,0-1.1,0-.4,0-.8.1-1.2.3-.4.2-.7.4-1,.8-.3-1.9-1.2-3.8-2.6-5.1s-3.2-2.3-5.1-2.6h-.9c-1.3-.1-2.5,0-3.7.5-1.4.6-2.7,1.5-3.7,2.7-1,1.2-1.6,2.7-1.9,4.2,0,.6,0,1.3,0,1.9l-12.2,1h-6.3s-.4.5-.3.8ZM1090.5,1456.1c.3-1.8,1.2-3.5,2.6-4.8,1.4-1.2,3.2-1.9,5.1-1.9h1.5c1,.1,2,.5,2.9,1,.9.5,1.7,1.2,2.3,2.1.6.8,1.1,1.8,1.3,2.8.2,1,.3,2.1,0,3.1-.2,1.4-.9,2.8-1.8,3.9-1,1.1-2.2,1.9-3.6,2.4-1.1.2-2.3.2-3.5,0h-1.5c-1.8-.5-3.3-1.7-4.3-3.3-1-1.6-1.3-3.5-1-5.3ZM1069.5,1458.5c.3-2,1.4-3.9,3.1-5.1,1.7-1.2,3.8-1.7,5.8-1.4,2,.3,3.9,1.4,5.1,3.1,1.2,1.7,1.7,3.7,1.4,5.8-.2,1-.5,2-1,2.9-.5.9-1.2,1.6-2.1,2.2-.8.6-1.8,1-2.8,1.3-1,.2-2,.3-3,.1-1-.2-2-.5-2.9-1-.9-.5-1.6-1.2-2.2-2.1-.6-.8-1-1.8-1.3-2.8-.2-1-.3-2-.1-3Z"/>
        </g>
        <path id="Vector_247" class="cls-2" d="M1053.8,1507l13.5,13.2-5.4,16.2-18.7-20.6,10.6-8.8Z"/>
        <path id="Vector_248" class="cls-2" d="M1073.3,1509.8l-2.2,10.2,7,14.4,4.3-18.7-9.1-5.8Z"/>
        <path id="Vector_249" class="cls-15" d="M1082.2,1536.1c9.2-2.1,17.7-6.2,25.2-11.9h.5l1.6-1.4-3.3-1.6c-6-2.5-12.3-4.3-18.8-5.4,0,.2,0,.4,0,.5.6,3.5.4,7-.4,10.4-.9,3.4-2.5,6.6-4.7,9.3Z"/>
        <path id="Vector_250" class="cls-15" d="M1020.9,1518.6l.9.8c8.8,8.6,19.9,14.5,31.9,17h1.4c-.8-.6-1.5-1.2-2.2-1.8-1-.9-2-1.9-3-2.9s-2.4-2.5-3.5-3.8c-1.1-1.3-.7-.9-1.1-1.3l-1.9-2.5-1.8-2.5c-.5-.8-1.1-1.5-1.5-2.2-.4-.7-2.1-3.2-2.6-4.2-.2-.4-.4-.8-.6-1.2,0,0-8,2.1-16,4.8Z"/>
        <path id="Vector_251" class="cls-6" d="M1020.9,1518.6l.9.8c8.8,8.6,19.9,14.5,31.9,17h1.4c-.8-.6-1.5-1.2-2.2-1.8-1-.9-2-1.9-3-2.9s-2.4-2.5-3.5-3.8c-1.1-1.3-.7-.9-1.1-1.3l-1.9-2.5-1.8-2.5c-.5-.8-1.1-1.5-1.5-2.2-.4-.7-2.1-3.2-2.6-4.2-.2-.4-.4-.8-.6-1.2,0,0-8,2.1-16,4.8Z"/>
        <path id="Vector_252" class="cls-8" d="M1053.8,1507l13.5,13.2-5.4,16.2-18.7-20.6,10.6-8.8Z"/>
        <path id="Vector_253" class="cls-8" d="M1073.3,1509.8l-2.2,10.2,7,14.4,4.3-18.7-9.1-5.8Z"/>
        <g id="Group_11" class="cls-21">
          <path id="Vector_254" class="cls-16" d="M1082.2,1536.1c9.2-2.1,17.7-6.2,25.2-11.9h.5l1.6-1.4-3.3-1.6c-6-2.5-12.3-4.3-18.8-5.4,0,.2,0,.4,0,.5.6,3.5.4,7-.4,10.4-.9,3.4-2.5,6.6-4.7,9.3Z"/>
          <path id="Vector_255" class="cls-16" d="M1020.9,1518.6l.9.8c8.8,8.6,19.9,14.5,31.9,17h1.4c-.8-.6-1.5-1.2-2.2-1.8-1-.9-2-1.9-3-2.9s-2.4-2.5-3.5-3.8c-1.1-1.3-.7-.9-1.1-1.3l-1.9-2.5-1.8-2.5c-.5-.8-1.1-1.5-1.5-2.2-.4-.7-2.1-3.2-2.6-4.2-.2-.4-.4-.8-.6-1.2,0,0-8,2.1-16,4.8Z"/>
        </g>
        <path id="Vector_256" class="cls-16" d="M2086.9,1833.5c0,9.6-2.1,19.1-6.2,27.9-4.1,8.7-10,16.4-17.4,22.6l-1.6,1.4h-.5l-.6.5c-7.3,5.5-15.6,9.4-24.5,11.5h-.7c-1.6.4-3.3.6-4.9.8-1.3.2-2.7.4-4,.5h-10.5c-2.4-.2-4.7-.5-7-.9h-1.4c-10.1-2.1-19.5-6.6-27.5-13.1-1.6-1.2-3-2.5-4.4-3.8l-.8-.8c-7.7-7.6-13.3-17-16.5-27.4s-3.7-21.3-1.6-31.9c2.1-10.6,6.8-20.6,13.6-28.9s15.7-14.9,25.7-19.1c10-4.2,20.9-5.8,31.6-4.7,10.8,1.1,21.1,4.8,30.1,10.8,9,6,16.4,14.1,21.5,23.7,5.1,9.5,7.8,20.2,7.8,31v.2Z"/>
        <path id="Vector_257" class="cls-15" d="M2039.1,1862.8h-36.7v20.3h36.7v-20.3Z"/>
        <path id="Vector_258" class="cls-7" d="M2039.1,1862.8h-36.7v20.3h36.7v-20.3Z"/>
        <path id="Vector_259" class="cls-3" d="M2039.1,1869.9h-36.7v1h36.7v-1Z"/>
        <path id="Vector_260" class="cls-3" d="M2039.1,1874.3h-36.7v1h36.7v-1Z"/>
        <path id="Vector_261" class="cls-3" d="M2039.1,1878.7h-36.7v1h36.7v-1Z"/>
        <path id="Vector_262" class="cls-3" d="M2039,1862.8v5.2c-11.7,4.6-24.1,7.2-36.6,7.7v-12.8h36.6Z"/>
        <path id="Vector_263" class="cls-2" d="M2054.2,1805.1h-64.2c-3.7,0-7.3,1.5-10,4.1-2.6,2.6-4.1,6.2-4.1,10v35.9c0,3.7,1.5,7.3,4.2,9.9s6.2,4.1,9.9,4.1h64.2c3.7,0,7.3-1.5,9.9-4.1,2.6-2.6,4.1-6.2,4.1-9.9v-35.9c0-3.7-1.5-7.3-4.1-9.9-2.6-2.6-6.2-4.1-9.9-4.2Z"/>
        <path id="Vector_264" class="cls-3" d="M2054.2,1805.1h-25.2c3.7,0,7.3,1.5,9.9,4.2,2.6,2.6,4.1,6.2,4.1,9.9v35.9c0,3.7-1.5,7.3-4.1,9.9-2.6,2.6-6.2,4.1-9.9,4.1h25.2c3.7,0,7.3-1.5,9.9-4.1,2.6-2.6,4.1-6.2,4.1-9.9v-35.9c0-3.7-1.5-7.3-4.1-9.9-2.6-2.6-6.2-4.1-9.9-4.2Z"/>
        <path id="Vector_265" class="cls-15" d="M2028.2,1811.3h-38.1c-4.8,0-8.6,3.8-8.6,8.6v34.4c0,4.8,3.9,8.6,8.6,8.6h38.1c4.8,0,8.6-3.9,8.6-8.6v-34.4c0-4.8-3.9-8.6-8.6-8.6Z"/>
        <path id="Vector_266" class="cls-15" d="M2060.1,1830.1c-.1,0-.3,0-.4,0-.1,0-.2-.1-.3-.2,0,0-.2-.2-.2-.3,0-.1,0-.2,0-.4v-41.8c0-.2.1-.5.3-.7.2-.2.4-.3.7-.3.2,0,.5.1.6.3.2.2.3.4.3.6v41.8c0,.2-.1.5-.3.7-.2.2-.4.3-.6.3Z"/>
        <path id="Vector_267" class="cls-2" d="M2071.5,1837.1c0,2.2-.4,4.4-1.3,6.4-.6,1.4-1.4,2.7-2.5,3.9-1,1.1-2.2,2-3.5,2.6-1.3.6-2.8.9-4.2.9-3.2-.6-6.1-2.3-8.2-4.8-2.1-2.5-3.2-5.7-3.2-8.9s1.1-6.4,3.2-8.9c2.1-2.5,5-4.2,8.2-4.8,1.5,0,2.9.3,4.2.9,1.3.6,2.5,1.5,3.5,2.6,1,1.1,1.9,2.4,2.5,3.8.9,2,1.4,4.1,1.4,6.3Z"/>
        <g id="Group_12" class="cls-20">
          <path id="Vector_268" d="M2064,1846.9c-2.3-.5-4.3-1.7-5.8-3.5-1.5-1.8-2.3-4-2.3-6.3s.8-4.6,2.3-6.3,3.5-3,5.8-3.5c1.2,0,2.4.4,3.5,1,1.1.6,2,1.4,2.6,2.5-.6-1.4-1.4-2.7-2.5-3.8-1.1-.6-2.4-.9-3.7-.9-2.6.4-5,1.8-6.7,3.8-1.7,2-2.7,4.6-2.7,7.3s.9,5.2,2.7,7.2c1.7,2,4.1,3.4,6.7,3.8,1.3,0,2.5-.3,3.6-.8,1.1-1.1,1.9-2.4,2.5-3.9-.7,1-1.6,1.9-2.6,2.5-1.1.6-2.3.9-3.5,1Z"/>
        </g>
        <path id="Vector_269" class="cls-16" d="M2022.2,1829.2c0,2.2-1,4-2.2,4s-2.2-1.8-2.2-4,1-4,2.2-4,2.2,1.8,2.2,4Z"/>
        <path id="Vector_270" class="cls-16" d="M1996,1833.2c1.2,0,2.2-1.8,2.2-4s-1-4-2.2-4-2.2,1.8-2.2,4,1,4,2.2,4Z"/>
        <path id="Vector_271" class="cls-10" d="M2007.7,1847.8c2.2,2.4,4.2,5,6.1,7.7l1.5-.8c6.9-3.4,9-7.2,9.2-10.5,0-1.6-.3-3.2-.9-4.6-.4-.8-.8-1.6-1.4-2.3-3.3,4-7.5,7.2-12.2,9.5-.7.4-1.5.8-2.3,1.1Z"/>
        <path id="Vector_272" class="cls-16" d="M2010.2,1846.5l1.8,2.2c6.5-3.2,10.7-6.4,11.8-9.4-.4-.8-.8-1.6-1.4-2.3-3.3,4-7.5,7.2-12.2,9.5Z"/>
        <path id="Vector_273" class="cls-2" d="M2015.4,1854.5c6.9-3.4,9-7.2,9.2-10.5-2.6,1.4-5,3.2-7,5.3-1.3,1.5-2,3.3-2.2,5.2Z"/>
        <path id="Vector_274" class="cls-2" d="M2060.6,1886.2c-7.3,5.5-15.6,9.4-24.5,11.5h-.7c-1.6.4-3.3.6-4.9.8-1.3.2-2.7.4-4,.5h-10.5c-2.4-.2-4.7-.5-7-.9h-1.4c-10.1-2.2-19.6-6.8-27.5-13.4,3.1-2.4,6.9-3.7,10.8-3.7h57.5c4.6,0,9.1,1.9,12.3,5.2Z"/>
      </g>
      <g id="message4">
        <path id="Vector_275" class="cls-2" d="M1210.1,2082h653.8l37.1,23.1v-294.8c0-5.6-1.1-11.1-3.2-16.3-2.1-5.2-5.3-9.9-9.2-13.8-4-3.9-8.6-7.1-13.8-9.2-5.2-2.1-10.7-3.2-16.3-3.2h-648.4c-5.6,0-11.1,1.1-16.3,3.2-5.2,2.1-9.9,5.3-13.8,9.2-4,4-7.1,8.6-9.2,13.8-2.1,5.2-3.2,10.7-3.2,16.3v229.1c0,11.3,4.5,22.1,12.5,30.1,8,8,18.8,12.5,30.1,12.5Z"/>
        <path id="Vector_276" class="cls-16" d="M1846.2,1828h-624.2c-1,0-2-.4-2.7-1.1s-1.1-1.7-1.1-2.7.4-2,1.1-2.7c.7-.7,1.7-1.1,2.7-1.1h624.2c1,0,2,.4,2.7,1.1.7.7,1.1,1.7,1.1,2.7s-.4,2-1.1,2.7-1.7,1.1-2.7,1.1Z"/>
        <path id="Vector_277" class="cls-16" d="M1846.2,1867.1h-624.2c-1,0-2-.4-2.7-1.1-.7-.7-1.1-1.7-1.1-2.7s.4-2,1.1-2.7,1.7-1.1,2.7-1.1h624.2c1,0,2,.4,2.7,1.1s1.1,1.7,1.1,2.7-.4,2-1.1,2.7c-.7.7-1.7,1.1-2.7,1.1Z"/>
        <path id="Vector_278" class="cls-16" d="M1846.2,1906.1h-624.2c-1,0-2-.4-2.7-1.1-.7-.7-1.1-1.7-1.1-2.7s.4-2,1.1-2.7,1.7-1.1,2.7-1.1h624.2c1,0,2,.4,2.7,1.1s1.1,1.7,1.1,2.7-.4,2-1.1,2.7c-.7.7-1.7,1.1-2.7,1.1Z"/>
        <path id="Vector_279" class="cls-16" d="M1846.2,1984.6h-624.2c-1,0-2-.4-2.7-1.1s-1.1-1.7-1.1-2.7.4-2,1.1-2.7c.7-.7,1.7-1.1,2.7-1.1h624.2c1,0,2,.4,2.7,1.1.7.7,1.1,1.7,1.1,2.7s-.4,2-1.1,2.7-1.7,1.1-2.7,1.1Z"/>
        <path id="Vector_280" class="cls-16" d="M1469.2,2023.1h-247.2c-1,0-2-.4-2.7-1.1-.7-.7-1.1-1.7-1.1-2.7s.4-2,1.1-2.7,1.7-1.1,2.7-1.1h247.2c1,0,2,.4,2.7,1.1.7.7,1.1,1.7,1.1,2.7s-.4,2-1.1,2.7c-.7.7-1.7,1.1-2.7,1.1Z"/>
        <path id="Vector_281" class="cls-16" d="M1846.2,1945.2h-624.2c-1,0-2-.4-2.7-1.1s-1.1-1.7-1.1-2.7.4-2,1.1-2.7c.7-.7,1.7-1.1,2.7-1.1h624.2c1,0,2,.4,2.7,1.1.7.7,1.1,1.7,1.1,2.7s-.4,2-1.1,2.7-1.7,1.1-2.7,1.1Z"/>
      </g>
      <g id="message3">
        <path id="Vector_216" class="cls-3" d="M1781.4,1682h-576.9l-37.1,23.1v-256.3c0-5.6,1.1-11.1,3.2-16.3,2.1-5.2,5.3-9.9,9.2-13.8,4-4,8.7-7.1,13.8-9.2,5.2-2.1,10.7-3.2,16.3-3.2h571.3c5.6,0,11.1,1.1,16.3,3.2,5.2,2.1,9.9,5.3,13.8,9.2,4,3.9,7.1,8.6,9.2,13.8,2.1,5.2,3.2,10.7,3.2,16.3v190.7c0,11.3-4.5,22.1-12.4,30-7.9,8-18.7,12.5-30,12.5Z"/>
        <path id="Vector_217" class="cls-16" d="M1769.2,1466.5h-547.2c-1,0-2-.4-2.7-1.1-.7-.7-1.1-1.7-1.1-2.7s.4-2,1.1-2.7c.7-.7,1.7-1.1,2.7-1.1h547.2c1,0,2,.4,2.7,1.1.7.7,1.1,1.7,1.1,2.7s-.4,2-1.1,2.7c-.7.7-1.7,1.1-2.7,1.1Z"/>
        <path id="Vector_218" class="cls-16" d="M1769.2,1505.5h-547.2c-1,0-2-.4-2.7-1.1-.7-.7-1.1-1.7-1.1-2.7s.4-2,1.1-2.7,1.7-1.1,2.7-1.1h547.2c1,0,2,.4,2.7,1.1.7.7,1.1,1.7,1.1,2.7s-.4,2-1.1,2.7-1.7,1.1-2.7,1.1Z"/>
        <path id="Vector_219" class="cls-16" d="M1769.2,1544.5h-547.2c-1,0-2-.4-2.7-1.1-.7-.7-1.1-1.7-1.1-2.7s.4-2,1.1-2.7,1.7-1.1,2.7-1.1h547.2c1,0,2,.4,2.7,1.1.7.7,1.1,1.7,1.1,2.7s-.4,2-1.1,2.7-1.7,1.1-2.7,1.1Z"/>
        <path id="Vector_220" class="cls-16" d="M1461.5,1623.1h-239.5c-1,0-2-.4-2.7-1.1-.7-.7-1.1-1.7-1.1-2.7s.4-2,1.1-2.7,1.7-1.1,2.7-1.1h239.5c1,0,2,.4,2.7,1.1s1.1,1.7,1.1,2.7-.4,2-1.1,2.7c-.7.7-1.7,1.1-2.7,1.1Z"/>
        <path id="Vector_221" class="cls-16" d="M1769.2,1583.6h-547.2c-1,0-2-.4-2.7-1.1s-1.1-1.7-1.1-2.7.4-2,1.1-2.7c.7-.7,1.7-1.1,2.7-1.1h547.2c1,0,2,.4,2.7,1.1.7.7,1.1,1.7,1.1,2.7s-.4,2-1.1,2.7c-.7.7-1.7,1.1-2.7,1.1Z"/>
      </g>
      <g id="message2">
        <path id="Vector_211" class="cls-2" d="M1356.2,1312.8h507.7l37.1,23.1v-217.8c0-5.6-1.1-11.1-3.2-16.3-2.1-5.2-5.3-9.9-9.2-13.8-4-4-8.6-7.1-13.8-9.2-5.2-2.1-10.7-3.2-16.3-3.2h-502.2c-5.6,0-11.1,1.1-16.3,3.2-5.2,2.1-9.9,5.3-13.8,9.2-4,3.9-7.1,8.7-9.2,13.8-2.1,5.2-3.2,10.7-3.2,16.3v152.2c0,11.3,4.5,22.1,12.5,30.1,8,8,18.8,12.5,30.1,12.5Z"/>
        <path id="Vector_212" class="cls-16" d="M1846.2,1135.7h-470.3c-1,0-2-.4-2.7-1.1-.7-.7-1.1-1.7-1.1-2.7s.4-2,1.1-2.7,1.7-1.1,2.7-1.1h470.3c1,0,2,.4,2.7,1.1s1.1,1.7,1.1,2.7-.4,2-1.1,2.7c-.7.7-1.7,1.1-2.7,1.1Z"/>
        <path id="Vector_213" class="cls-16" d="M1846.2,1174.8h-470.3c-1,0-2-.4-2.7-1.1s-1.1-1.7-1.1-2.7.4-2,1.1-2.7c.7-.7,1.7-1.1,2.7-1.1h470.3c1,0,2,.4,2.7,1.1.7.7,1.1,1.7,1.1,2.7s-.4,2-1.1,2.7-1.7,1.1-2.7,1.1Z"/>
        <path id="Vector_214" class="cls-16" d="M1846.2,1213.8h-470.3c-1,0-2-.4-2.7-1.1s-1.1-1.7-1.1-2.7.4-2,1.1-2.7c.7-.7,1.7-1.1,2.7-1.1h470.3c1,0,2,.4,2.7,1.1.7.7,1.1,1.7,1.1,2.7s-.4,2-1.1,2.7-1.7,1.1-2.7,1.1Z"/>
        <path id="Vector_215" class="cls-16" d="M1615.4,1252.8h-239.5c-1,0-2-.4-2.7-1.1s-1.1-1.7-1.1-2.7.4-2,1.1-2.7,1.7-1.1,2.7-1.1h239.5c1,0,2,.4,2.7,1.1.7.7,1.1,1.7,1.1,2.7s-.4,2-1.1,2.7c-.7.7-1.7,1.1-2.7,1.1Z"/>
      </g>
      <g id="message1">
        <path id="Vector_151" class="cls-3" d="M1557.1,1015.4l-352.5,2.5-37.2,23.1v-176.9c0-5.6,1.1-11.1,3.2-16.3,2.1-5.2,5.3-9.9,9.2-13.8,4-4,8.7-7.1,13.8-9.2,5.2-2.1,10.7-3.2,16.3-3.2l347-2.6c5.6,0,11.2,1,16.4,3.2,5.2,2.1,9.9,5.3,13.9,9.2,4,4,7.2,8.7,9.3,13.9,2.2,5.2,3.3,10.8,3.3,16.4v111.3c0,5.6-1.1,11.2-3.3,16.4-2.2,5.2-5.3,9.9-9.3,13.8-4,4-8.7,7.1-13.9,9.2-5.2,2.1-10.8,3.2-16.4,3.1Z"/>
        <path id="Vector_152" class="cls-16" d="M1538.5,881.8h-316.5c-1,0-2-.4-2.7-1.1s-1.1-1.7-1.1-2.7.4-2,1.1-2.7,1.7-1.1,2.7-1.1h316.5c1,0,2,.4,2.7,1.1.7.7,1.1,1.7,1.1,2.7s-.4,2-1.1,2.7c-.7.7-1.7,1.1-2.7,1.1Z"/>
        <path id="Vector_153" class="cls-16" d="M1538.5,920.9h-316.5c-1,0-2-.4-2.7-1.1-.7-.7-1.1-1.7-1.1-2.7s.4-2,1.1-2.7,1.7-1.1,2.7-1.1h316.5c1,0,2,.4,2.7,1.1.7.7,1.1,1.7,1.1,2.7s-.4,2-1.1,2.7c-.7.7-1.7,1.1-2.7,1.1Z"/>
        <path id="Vector_154" class="cls-16" d="M1415.4,959.9h-193.4c-1,0-2-.4-2.7-1.1-.7-.7-1.1-1.7-1.1-2.7s.4-2,1.1-2.7,1.7-1.1,2.7-1.1h193.4c1,0,2,.4,2.7,1.1.7.7,1.1,1.7,1.1,2.7s-.4,2-1.1,2.7c-.7.7-1.7,1.1-2.7,1.1Z"/>
      </g>
      <g id="speechbubble">
        <path id="Vector_282" class="cls-2" d="M2957.6,942.3h-600c-12.1,0-23.7,4.8-32.2,13.3-8.5,8.5-13.3,20.1-13.3,32.2v176c0,12.1,4.8,23.7,13.3,32.2,8.6,8.5,20.1,13.3,32.2,13.3h272l41.7,85.8v-85.8h286c6,0,11.9-1.2,17.4-3.5,5.5-2.3,10.6-5.6,14.8-9.9,4.2-4.2,7.6-9.2,9.9-14.8,2.3-5.5,3.5-11.5,3.5-17.4v-176c0-12-4.8-23.6-13.2-32.1-8.5-8.5-20-13.4-32-13.4Z"/>
        <path id="Vector_283" class="cls-16" d="M2464.3,1038.5v64.5h-9.2v-28.8h-37.1v28.8h-9.2v-64.5h9.2v27.8h37.1v-27.8h9.2Z"/>
        <path id="Vector_284" class="cls-16" d="M2526.4,1081.5h-39.6c.6,4.2,2.7,8,6,10.7,3.3,2.7,7.5,4,11.7,3.6,2.6.1,5.3-.4,7.7-1.4,2.4-1,4.6-2.6,6.4-4.5l4.9,5.7c-3.6,3.7-8.2,6.2-13.2,7.3-5,1.1-10.3.7-15.1-1.1-4.8-1.8-9-5-12.1-9.1-3.1-4.1-4.9-9.1-5.2-14.2-.1-3.3.4-6.5,1.6-9.6,1.2-3.1,3-5.8,5.3-8.2,2.3-2.3,5.1-4.2,8.1-5.4,3-1.2,6.3-1.8,9.6-1.7,3.3,0,6.6.5,9.6,1.7,3.1,1.2,5.8,3.1,8.1,5.5s4,5.2,5.2,8.3c1.1,3.1,1.6,6.4,1.4,9.7,0,.9,0,1.8-.2,2.7ZM2486.8,1075.1h31.3c0-4.1-1.7-8.1-4.6-11.1-2.9-2.9-6.9-4.6-11.1-4.6s-8.1,1.6-11.1,4.6c-2.9,2.9-4.6,6.9-4.6,11.1Z"/>
        <path id="Vector_285" class="cls-16" d="M2538.9,1034.5h8.9v68.5h-8.9v-68.5Z"/>
        <path id="Vector_286" class="cls-16" d="M2564.6,1034.5h8.9v68.5h-8.9v-68.5Z"/>
        <path id="Vector_287" class="cls-16" d="M2585.9,1078.5c-.1-5,1.3-10,4.1-14.3,2.7-4.2,6.7-7.6,11.3-9.6s9.8-2.6,14.8-1.6c5,.9,9.6,3.3,13.1,6.9,3.6,3.5,6.1,8.1,7.1,13,1,5,.5,10.1-1.4,14.8-1.9,4.7-5.2,8.7-9.4,11.5-4.2,2.8-9.1,4.3-14.2,4.3-3.4.2-6.7-.4-9.8-1.6-3.1-1.2-6-3-8.4-5.4-2.4-2.3-4.3-5.2-5.5-8.3-1.2-3.1-1.8-6.4-1.7-9.8ZM2627.8,1078.5c-.2-3.2-1.3-6.3-3.2-8.9-1.9-2.6-4.5-4.6-7.6-5.7s-6.3-1.3-9.4-.6c-3.1.7-6,2.4-8.2,4.7-2.2,2.3-3.7,5.3-4.3,8.4-.6,3.2-.2,6.4,1.1,9.4,1.3,3,3.4,5.5,6.1,7.2,2.7,1.8,5.8,2.7,9.1,2.7,2.2,0,4.5-.3,6.6-1.2,2.1-.9,4-2.2,5.5-3.8,1.6-1.6,2.7-3.6,3.5-5.7.8-2.1,1.1-4.4.9-6.6Z"/>
        <path id="Vector_288" class="cls-16" d="M2701.3,1100c-3.1,2.3-6.8,3.5-10.7,3.4-2.1.2-4.2,0-6.2-.7-2-.7-3.8-1.8-5.2-3.3-1.5-1.5-2.6-3.3-3.3-5.2-.7-2-.9-4.1-.7-6.2v-26.5h-8.3v-7.7h8.3v-10.7h8.9v10.7h14v7.7h-14v26.5c-.2,1.1,0,2.2.3,3.2.3,1,.9,2,1.6,2.8.7.8,1.7,1.4,2.7,1.8,1,.4,2.1.5,3.2.4,2.5,0,4.9-.8,6.9-2.3l2.6,6.1Z"/>
        <path id="Vector_289" class="cls-16" d="M2758.5,1074.8v28.2h-8.8v-27.1c0-9.6-4.8-14.3-13.2-14.3-2.1-.2-4.3.2-6.3.9-2,.8-3.8,2-5.3,3.5-1.5,1.5-2.6,3.4-3.2,5.4-.7,2-.9,4.2-.6,6.3v25.2h-8.9v-68.5h8.9v26.5c2.1-2.5,4.7-4.6,7.7-5.9,3-1.3,6.3-1.9,9.5-1.8,2.8-.2,5.7.2,8.3,1.2,2.6,1,5,2.6,7,4.7,1.9,2.1,3.4,4.5,4.2,7.2.9,2.7,1.1,5.5.7,8.3Z"/>
        <path id="Vector_290" class="cls-16" d="M2819.2,1081.5h-39.7c.6,4.2,2.7,8,6,10.7s7.5,4,11.7,3.6c2.6,0,5.3-.4,7.7-1.4,2.4-1,4.6-2.6,6.4-4.5l4.9,5.7c-2.4,2.6-5.4,4.7-8.8,6-3.3,1.3-6.9,1.9-10.5,1.7-3.4.3-6.8-.2-10.1-1.3-3.2-1.2-6.2-3-8.6-5.3-2.5-2.3-4.4-5.2-5.8-8.4-1.3-3.2-1.9-6.6-1.9-10-.1-3.3.4-6.5,1.6-9.6,1.2-3.1,3-5.8,5.3-8.2,2.3-2.3,5.1-4.2,8.1-5.4,3.1-1.2,6.3-1.8,9.6-1.7,3.3,0,6.5.5,9.6,1.8,3,1.2,5.8,3.1,8,5.5,2.3,2.4,4,5.2,5.2,8.3,1.1,3.1,1.6,6.4,1.4,9.6,0,1,0,2.1-.1,2.9ZM2779.5,1075.1h31.4c-.4-3.9-2.2-7.5-5.1-10.1-2.9-2.6-6.7-4.1-10.6-4.1s-7.7,1.5-10.6,4.1c-2.9,2.6-4.7,6.2-5.1,10.1Z"/>
        <path id="Vector_291" class="cls-16" d="M2858,1053.8v8.5h-2.1c-2.1-.1-4.3.2-6.3,1-2,.8-3.8,2-5.3,3.6-1.5,1.6-2.6,3.5-3.2,5.5-.7,2.1-.8,4.2-.6,6.4v24.3h-8.9v-49.4h8.5v8.2c1.9-2.9,4.6-5.2,7.8-6.6,3.2-1.4,6.6-2,10.1-1.6Z"/>
        <path id="Vector_292" class="cls-16" d="M2912.5,1081.5h-39.7c.6,4.2,2.7,8,6,10.7,3.3,2.7,7.5,4,11.7,3.6,2.7,0,5.3-.4,7.7-1.4,2.4-1,4.6-2.6,6.4-4.5l4.8,5.7c-2.4,2.6-5.4,4.7-8.8,6-3.3,1.3-6.9,1.9-10.5,1.7-3.4.3-6.8-.2-10.1-1.3-3.2-1.1-6.2-2.9-8.6-5.3-2.5-2.3-4.4-5.2-5.8-8.4-1.3-3.2-1.9-6.6-1.9-10,0-3.2.5-6.4,1.7-9.4,1.2-3,3-5.7,5.3-8,2.3-2.3,5-4.1,8.1-5.3,3-1.2,6.2-1.8,9.5-1.7,3.3,0,6.5.5,9.6,1.8,3,1.2,5.8,3.1,8,5.5,2.3,2.4,4,5.2,5.2,8.3,1.1,3.1,1.6,6.4,1.4,9.6,0,.5,0,1.6-.2,2.5ZM2872.8,1075.1h31.4c-.4-3.9-2.2-7.5-5.1-10.1-2.9-2.6-6.7-4.1-10.6-4.1s-7.7,1.5-10.6,4.1c-2.9,2.6-4.7,6.2-5.1,10.1Z"/>
      </g>
      <g id="robot">
        <path id="Vector_293" class="cls-15" d="M2711.3,1856.6h-65.2s-86.1,146.8-160.9,138.5c-59.1-6.9-91.1-114.8-91.1-114.8l-40.6,2.3s21,139.8,119.3,164.3c132.6,32.8,238.5-190.3,238.5-190.3Z"/>
        <path id="Vector_294" class="cls-5" d="M2711.3,1856.6c-9.8,19.9-20.9,39.1-33.1,57.6l-3.5,5.5c-7,10.5-15,21.7-23.7,32.9l-4.1,5.1c-8.7,11-18.1,21.4-27.9,31.4l-4.7,4.6c-10.2,10-21.3,19.1-32.9,27.4l-5.5,3.7c-9.5,6.1-19.5,11.2-29.9,15.4l-6.1,2.2c-14.2,5.2-29.3,7.6-44.4,7-2.2,0-4.4-.1-6.5-.4-5.5-.5-10.9-1.4-16.3-2.8-10.3-2.6-20.2-6.5-29.5-11.8-1.9-1-3.8-2.2-5.7-3.4-10.7-6.9-20.4-15.3-28.8-24.9-1.5-1.6-2.9-3.3-4.3-5-8-9.9-15.1-20.6-21.1-31.9-1.1-1.9-2.1-3.9-3.1-5.9-12.8-25.7-21.8-53.1-26.8-81.3l40.6-2.3c5.9,18.8,13.7,37.1,23.1,54.5,1,2,2.1,3.9,3.2,5.8,4.8,8.1,10.1,15.8,16.1,23.1,1.4,1.8,2.8,3.5,4.3,5.1,4.6,5.2,9.8,9.9,15.4,14.1,1.8,1.4,3.7,2.6,5.6,3.7,7,4.4,14.9,7.2,23.1,8.3h2.3c2.2.1,4.4.1,6.5,0,7.1-.3,14.2-1.8,20.9-4.2,2.1-.7,4.1-1.5,6.1-2.4,6.9-3,13.5-6.7,19.8-10.9,1.8-1.2,3.6-2.4,5.4-3.7,8.3-6.1,16.2-12.7,23.6-19.8,1.6-1.5,3.2-3,4.8-4.6,8.5-8.3,16.5-17.2,23.8-26.1l4.2-5.1c8.1-9.9,15.4-19.6,21.5-28.3l3.8-5.3c11.4-16.5,18.2-28,18.2-28l65.7,1Z"/>
        <path id="Vector_295" class="cls-2" d="M2400,1897.9l-38,21s-30.4-62.3-18.4-117.1l67.7-16.9c5,38,1.1,76.7-11.3,113Z"/>
        <path id="Vector_296" class="cls-3" d="M2678.2,1914.2l-3.5,5.5-50.7-29.8,3.8-5.3,50.5,29.6Z"/>
        <path id="Vector_297" class="cls-3" d="M2651,1952.5l-4.1,5.1-48.7-34.6,4.2-5.1,48.5,34.5Z"/>
        <path id="Vector_298" class="cls-3" d="M2619,1989.1l-4.7,4.6-44.7-39.8c1.6-1.5,3.2-3,4.8-4.6l44.6,39.8Z"/>
        <path id="Vector_299" class="cls-3" d="M2581.4,2021.1l-5.5,3.7-35.3-47.2c1.8-1.2,3.6-2.4,5.4-3.7l35.4,47.2Z"/>
        <path id="Vector_300" class="cls-3" d="M2546.1,2040.5l-6.1,2.2-25.1-51.9c2.1-.7,4.1-1.5,6.1-2.4l25.1,52.1Z"/>
        <path id="Vector_301" class="cls-3" d="M2495.5,2049.8c-2.2,0-4.4-.1-6.5-.4l-1.6-54.4c2.2.1,4.4.1,6.5,0l1.6,54.8Z"/>
        <path id="Vector_302" class="cls-3" d="M2461.5,1986.5l-18.7,48.3c-2-1-3.9-2.2-5.7-3.4l18.8-48.6c1.8,1.3,3.7,2.6,5.6,3.7Z"/>
        <path id="Vector_303" class="cls-3" d="M2440.8,1968.7l-32.1,37.8c-1.5-1.6-2.9-3.3-4.3-5l32.1-37.8c1.4,1.8,2.9,3.5,4.3,5.1Z"/>
        <path id="Vector_304" class="cls-3" d="M2420.4,1940.2l-37.1,29c-1.1-1.9-2.1-3.9-3.1-5.9l37-29.2c1,2.2,2.1,4.2,3.2,6.1Z"/>
        <path id="Vector_305" class="cls-15" d="M2524.9,1851c.2,1.4,0,2.9-.3,4.2s-1.1,2.6-2.1,3.7c-1,1.1-2.1,1.9-3.5,2.5-1.3.6-2.8.8-4.2.8h-111.3c-3.1,0-6.1-1.2-8.3-3.3-2.3-2.1-3.8-4.9-4.2-7.9l-24.8-219.6c-.2-1.5-.2-3,.2-4.5.4-1.5,1.1-2.8,2-4,.9-1.2,2.1-2.2,3.4-2.9s2.8-1.2,4.3-1.3h111.3c3.2.4,6.2,1.8,8.5,4.2,2.3,2.3,3.7,5.3,4.1,8.5l24.9,219.6Z"/>
        <path id="Vector_306" class="cls-9" d="M2487.7,1629.9l25.2,221.8c.3,1.3.3,2.7,0,4-.3,1.3-.9,2.5-1.8,3.5-.8,1-1.9,1.8-3.2,2.4-1.2.5-2.6.8-3.9.7h-94.4c-6.3,0-17.9-3.5-18.6-9.8l-25.2-222.5c-.7-6.2,10.1-11.2,16.5-11.2h94.6c2.9.2,5.6,1.5,7.6,3.5,2,2.1,3.1,4.8,3.2,7.7Z"/>
        <path id="Vector_307" class="cls-15" d="M2501.9,2782.5c100.4,0,181.8-104.4,181.8-233.2s-81.4-233.1-181.8-233.1-181.9,104.4-181.9,233.1,81.4,233.2,181.9,233.2Z"/>
        <path id="Vector_308" class="cls-3" d="M2545.4,2713.3c70.6,0,127.9-73.4,127.9-163.9s-57.2-163.9-127.9-163.9-127.8,73.4-127.8,163.9,57.2,163.9,127.8,163.9Z"/>
        <path id="Vector_309" class="cls-2" d="M3194.1,2429l-142,149.1-453.8-20.8-102.9-112,63.5-146.1c1.8-4.2,4.8-7.7,8.5-10.2,3.8-2.5,8.2-3.8,12.8-3.8h114.1c3.2,0,6.4.7,9.3,2.1,2.9,1.3,5.6,3.2,7.7,5.6l6.9,7.7,31.7,33.9c2.1,2.4,4.8,4.3,7.7,5.6,2.9,1.3,6.1,2,9.3,2.1h87.9c4.4,0,8.8-1.2,12.5-3.6l76.2-48.8c3.7-2.4,8.1-3.6,12.5-3.6h156.5c4.4,0,8.8,1.2,12.5,3.6,3.7,2.4,6.7,5.8,8.6,9.8l60.8,129.4Z"/>
        <path id="Vector_310" class="cls-3" d="M2898.4,2446.1l76.4-128.5c2.1-3.5,5-6.4,8.6-8.4s7.5-3.1,11.6-3.1h110.2c4.6,0,9.2,1.3,13,3.9,3.8,2.6,6.8,6.2,8.6,10.5l46.6,111.3-62.9,109.6-163.3-6.1-48.7-95.3"/>
        <path id="Vector_311" class="cls-3" d="M2943.4,2288.8l-65.8,110.3c-2.3,3.9-5.6,7.1-9.5,9.3-3.9,2.2-8.3,3.4-12.8,3.4h-286c-2.6,0-5.2-.6-7.6-1.9-2.3-1.2-4.3-3.1-5.8-5.2-1.5-2.2-2.4-4.7-2.6-7.4-.3-2.6.1-5.3,1.1-7.7l32.3-77.5c1.5-3.6,4.1-6.7,7.4-8.9,3.3-2.2,7.1-3.3,11-3.4h112.8l31.7,33.9c2.1,2.4,4.8,4.3,7.7,5.6,2.9,1.3,6.1,2,9.3,2.1h88.1c4.4,0,8.8-1.2,12.5-3.6l76.2-49.1Z"/>
        <path id="Vector_312" class="cls-15" d="M3069.6,2685.8h-475.2c-10.2,0-20.2-2.2-29.4-6.5-9.2-4.3-17.4-10.5-24-18.3l-79.5-94.2c-10.6-12.6-16.4-28.5-16.4-44.9v-64.9c0-3.7.7-7.3,2.1-10.7,1.4-3.4,3.5-6.5,6.1-9.1,2.6-2.6,5.7-4.7,9.1-6.1,3.4-1.4,7.1-2.1,10.7-2.1h596.1c7.4,0,14.6,2.9,19.8,8.2s8.2,12.4,8.2,19.8v200.8c0,7.4-2.9,14.5-8.1,19.7-5.2,5.2-12.3,8.2-19.6,8.3Z"/>
        <path id="Vector_313" class="cls-7" d="M3097.6,2457v200.8c0,7.4-3,14.6-8.2,19.8-5.2,5.2-12.4,8.2-19.8,8.2h-475.2c-10.2,0-20.2-2.2-29.4-6.5-9.2-4.3-17.4-10.5-24-18.3l-79.5-94.2c-10.6-12.6-16.4-28.5-16.4-44.9v-64.9c0-3.7.7-7.3,2.1-10.7,1.4-3.4,3.5-6.5,6.1-9.1,2.6-2.6,5.7-4.7,9.1-6.1,3.4-1.4,7.1-2.1,10.7-2.1h596.1c3.7,0,7.4.7,10.8,2.1,3.4,1.4,6.5,3.5,9.2,6.1,2.6,2.6,4.7,5.7,6.1,9.1s2.2,7.1,2.2,10.8Z"/>
        <path id="Vector_314" class="cls-3" d="M3097.6,2457v200.8c0,7.4-3,14.6-8.2,19.8-5.2,5.2-12.4,8.2-19.8,8.2h-67.5c-10.2,0-20.2-2.2-29.4-6.5-9.2-4.3-17.4-10.5-24-18.3l-79.5-94.2c-10.6-12.6-16.4-28.5-16.4-44.9v-64.9c0-3.7.7-7.3,2.1-10.7,1.4-3.4,3.5-6.5,6.1-9.1,2.6-2.6,5.7-4.7,9.1-6.1,3.4-1.4,7.1-2.1,10.7-2.1h188.5c3.7,0,7.4.7,10.8,2.1,3.4,1.4,6.5,3.5,9.2,6.1,2.6,2.6,4.7,5.7,6.1,9.1s2.2,7.1,2.2,10.8Z"/>
        <path id="Vector_315" class="cls-15" d="M2675.9,2685.8l-72.6-94.9c-6.9-8.4-15.3-15.4-24.9-20.5-9.6-5.1-20.1-8.2-31-9.1-4.5-.3-9,.9-12.8,3.5l-7.2,5.3c-6.5,4.8-6.2,14.1,2.1,25l71.9,94c1.5,2,3.5,3.6,5.8,4.7,2.3,1.1,4.7,1.7,7.2,1.7h72.9c2.6,0,5-1,6.9-2.8,1.8-1.8,2.9-4.2,3-6.8h-21.2Z"/>
        <path id="Vector_316" class="cls-5" d="M2539.8,2566.7c-17.7,0-22.3,12.7-10.3,28.3l71.9,94c1.5,2,3.5,3.6,5.8,4.7,2.3,1.1,4.7,1.7,7.2,1.7h62.5c-2.1,0-4.1-.4-6-1.4-1.8-.9-3.5-2.2-4.7-3.9l-73.1-95.1c-6.5-8.1-14.6-14.7-23.8-19.6-9.2-4.9-19.2-7.8-29.6-8.7Z"/>
        <path id="Vector_317" class="cls-15" d="M2785.1,2685.8l-72.6-94.9c-6.8-8.5-15.3-15.4-24.9-20.5-9.6-5.1-20.2-8.2-31-9-4.6-.3-9.1.9-12.9,3.5l-7.1,5.3c-6.5,4.8-6.2,14.1,2.1,25l71.9,94c1.5,2,3.5,3.6,5.8,4.7,2.2,1.1,4.7,1.7,7.2,1.7h72.9c2.6,0,5-1,6.9-2.8,1.8-1.8,2.9-4.2,3-6.8h-21.2Z"/>
        <path id="Vector_318" class="cls-5" d="M2649,2566.7c-17.7,0-22.2,12.7-10.3,28.3l71.9,94c1.5,2,3.5,3.6,5.8,4.7,2.2,1.1,4.7,1.7,7.2,1.7h62.8c-2.1,0-4.1-.4-6-1.4-1.9-.9-3.5-2.2-4.7-3.9l-73-95.1c-6.6-8.1-14.7-14.8-24-19.6-9.2-4.9-19.3-7.8-29.7-8.7Z"/>
        <path id="Vector_319" class="cls-15" d="M2894.4,2685.8l-72.6-94.9c-6.8-8.5-15.3-15.4-24.9-20.5-9.6-5.1-20.2-8.2-31-9-4.6-.3-9.1.9-12.9,3.5l-7.1,5.3c-6.5,4.8-6.2,14.1,2.1,25l71.9,94c1.5,2,3.5,3.6,5.8,4.7,2.2,1.1,4.7,1.7,7.2,1.7h72.9c2.6,0,5-1,6.9-2.8,1.8-1.8,2.9-4.2,3-6.8h-21.2Z"/>
        <path id="Vector_320" class="cls-5" d="M2758.2,2566.7c-17.7,0-22.2,12.7-10.3,28.3l71.9,94c1.5,2,3.5,3.6,5.8,4.7,2.2,1.1,4.7,1.7,7.2,1.7h62.8c-2.1,0-4.1-.5-6-1.4-1.8-.9-3.5-2.2-4.7-3.9l-73-95.1c-6.6-8.1-14.7-14.8-24-19.6-9.2-4.9-19.3-7.8-29.7-8.7Z"/>
        <path id="Vector_321" class="cls-15" d="M3163.4,2782.5c100.4,0,181.9-104.4,181.9-233.2s-81.4-233.1-181.9-233.1-181.8,104.4-181.8,233.1,81.4,233.2,181.8,233.2Z"/>
        <path id="Vector_322" class="cls-2" d="M3206.9,2713.3c70.6,0,127.9-73.4,127.9-163.9s-57.2-163.9-127.9-163.9-127.8,73.4-127.8,163.9,57.2,163.9,127.8,163.9Z"/>
        <path id="Vector_323" class="cls-3" d="M3323.5,2616.5c-19.9,57.1-64.6,96.9-116.6,96.9s-127.8-73.4-127.8-163.9,28.4-119,69.8-146.1c-7.5,21.6-11.3,44.3-11.2,67.1,0,90.5,57.2,163.9,127.9,163.9,20.7-.1,40.8-6.3,58-17.9Z"/>
        <path id="Vector_324" class="cls-15" d="M2691.7,2190.3v158.7c0,1.9.4,3.9,1.1,5.6.7,1.8,1.8,3.4,3.2,4.8,1.4,1.4,3,2.5,4.8,3.2,1.8.8,3.7,1.1,5.6,1.1h168.2c2.1,0,4.2-.5,6.1-1.4,1.9-.9,3.6-2.2,5-3.8l55.5-64.2c2.5-2.9,5.7-5.3,9.2-6.9,3.5-1.6,7.3-2.4,11.2-2.4h22.5v-94.8h-292.5Z"/>
        <path id="Vector_325" class="cls-7" d="M2984.1,2190.3v94.8h-22.6c-5.5,0-10.9,1.6-15.4,4.7-1.9,1.3-3.7,2.8-5.2,4.6l-18.6,21.5-5.7,6.5-22.5,26.1-5.8,6.6-2.9,3.3c-1.4,1.6-3.1,2.9-5,3.8-1.9.9-4,1.4-6.1,1.4h-167.9c-2.8,0-5.5-.8-7.9-2.3-2.4-1.5-4.3-3.6-5.5-6.2-.9-2-1.4-4.1-1.4-6.3v-158.7h292.5Z"/>
        <path id="Vector_326" class="cls-3" d="M2984.1,2217.9h-292.5v6.6h292.5v-6.6Z"/>
        <path id="Vector_327" class="cls-3" d="M2984.1,2250.5h-292.5v6.6h292.5v-6.6Z"/>
        <path id="Vector_328" class="cls-3" d="M2984.1,2283.3v1.8h-22.6c-5.5,0-10.9,1.6-15.4,4.7h-254.5v-6.5h292.5Z"/>
        <path id="Vector_329" class="cls-3" d="M2922.7,2316l-5.7,6.5h-225.3v-6.5h231Z"/>
        <path id="Vector_330" class="cls-3" d="M2894.5,2348.7l-5.8,6.6h-195.6c-.9-2-1.4-4.1-1.4-6.3l202.8-.3Z"/>
        <path id="Vector_331" class="cls-3" d="M2984.1,2190.3v35.1c-45.8,11.5-178.6,42.7-292.3,46.2v-81.3h292.3Z"/>
        <path id="Vector_332" class="cls-15" d="M2949.1,1707h-223.6v123.7h223.6v-123.7Z"/>
        <path id="Vector_333" class="cls-7" d="M2949.1,1707h-223.6v123.7h223.6v-123.7Z"/>
        <path id="Vector_334" class="cls-3" d="M2949.1,1749.8h-223.6v6.2h223.6v-6.2Z"/>
        <path id="Vector_335" class="cls-3" d="M2949.1,1776.8h-223.6v6.2h223.6v-6.2Z"/>
        <path id="Vector_336" class="cls-3" d="M2949.1,1803.7h-223.6v6.2h223.6v-6.2Z"/>
        <path id="Vector_337" class="cls-3" d="M2949.1,1707v31.5c-56.9,20.4-151.1,49.3-223.6,46.7v-78.2h223.6Z"/>
        <path id="Vector_338" class="cls-2" d="M3041.6,1354.7h-391.2c-22.7,0-44.4,9-60.5,25.1-16,16-25.1,37.8-25.1,60.5v219.2c0,22.7,9,44.4,25.1,60.4,16,16,37.8,25,60.5,25h391.2c22.7,0,44.4-9,60.4-25,16-16,25.1-37.8,25.1-60.4v-219.2c0-22.7-9-44.4-25-60.5-16-16.1-37.8-25.1-60.5-25.1Z"/>
        <path id="Vector_339" class="cls-3" d="M3127.1,1440.2v219.2c0,11.2-2.2,22.3-6.5,32.7-4.3,10.4-10.6,19.8-18.5,27.7-8,7.9-17.4,14.2-27.8,18.5-10.4,4.3-21.5,6.5-32.7,6.5h-153.9c11.2,0,22.4-2.2,32.7-6.5s19.8-10.6,27.8-18.5c7.9-7.9,14.2-17.4,18.6-27.7,4.3-10.4,6.5-21.5,6.5-32.7v-219.2c0-11.2-2.2-22.3-6.5-32.7-4.3-10.4-10.6-19.8-18.6-27.7-7.9-7.9-17.4-14.2-27.8-18.5s-21.5-6.5-32.7-6.5h153.9c11.2,0,22.3,2.2,32.7,6.5,10.4,4.3,19.8,10.6,27.8,18.5,7.9,7.9,14.2,17.4,18.5,27.7,4.3,10.4,6.5,21.5,6.5,32.7Z"/>
        <path id="Vector_340" class="cls-15" d="M2883.1,1392.5h-232.6c-28.9,0-52.3,23.4-52.3,52.3v210c0,28.9,23.4,52.3,52.3,52.3h232.6c28.9,0,52.3-23.4,52.3-52.3v-210c0-28.9-23.4-52.3-52.3-52.3Z"/>
        <path id="Vector_341" class="cls-15" d="M3081,1246.5h-7.7v254.8h7.7v-254.8Z"/>
        <path id="Vector_342" class="cls-2" d="M3146.9,1549.8c0,13.2-2.8,26.3-8.1,38.5-3.7,8.7-8.9,16.6-15.4,23.5-5.8,6.5-12.9,11.8-20.9,15.4-7.9,3.6-16.6,5.6-25.3,5.7-38.5,0-69.7-37.3-69.7-83.5s30.8-83.1,69.3-83.1c8.8.1,17.5,2.1,25.5,5.8,8,3.7,15.2,9,21.1,15.5,6.4,6.9,11.6,14.8,15.4,23.5,5.3,12.2,8,25.4,8,38.7Z"/>
        <g id="Group_13" class="cls-20">
          <path id="Vector_343" d="M3101.3,1609.7c-27.3,0-49.5-26.8-49.5-59.9s22.1-59.8,49.5-59.8c7.5.2,14.9,2.2,21.4,5.9,6.6,3.7,12.1,8.9,16.2,15.2-3.7-8.6-8.9-16.6-15.4-23.5-7-3.5-14.7-5.4-22.5-5.4-31.5,0-57.2,30.3-57.2,67.5s25.6,67.6,57.2,67.6c7.7,0,15.3-1.8,22.2-5.3,6.4-6.9,11.7-14.8,15.4-23.5-4.1,6.3-9.6,11.5-16.1,15.2s-13.8,5.7-21.3,5.9Z"/>
        </g>
        <path id="Vector_344" class="cls-16" d="M2846.1,1501.4c0,13.5-6,24.5-13.5,24.5s-13.5-10.9-13.5-24.5,6.1-24.5,13.5-24.5,13.5,10.9,13.5,24.5Z"/>
        <path id="Vector_345" class="cls-16" d="M2700,1501.2c0,13.5-6.1,24.5-13.5,24.5s-13.5-10.9-13.5-24.5,6-24.5,13.5-24.5,13.5,10.9,13.5,24.5Z"/>
        <path id="Vector_346" class="cls-10" d="M2758.9,1614.8c13.4,14.5,25.8,29.9,37,46.2l9.4-4.5c42.2-20.8,55-44.3,56.3-64.2.4-9.7-1.5-19.4-5.5-28.2-2.1-5.1-5-9.8-8.5-14.1-15.8,24.4-53.9,46.7-74.4,57.8-8.7,4.4-14.3,6.9-14.3,6.9Z"/>
        <path id="Vector_347" class="cls-16" d="M2773.1,1607.7l11.2,13.2c39.8-19.7,65.1-38.5,71.6-57-2.1-5.1-5-9.8-8.5-14.1-15.8,24.3-53.7,46.6-74.4,57.8Z"/>
        <path id="Vector_348" class="cls-2" d="M2805.2,1656.2c42.2-20.8,55-44.3,56.3-64.2-15.9,8.2-30.3,19.1-42.4,32.3-7.9,8.9-12.7,20-13.9,31.8Z"/>
        <path id="Vector_349" class="cls-2" d="M3110.4,1899.1v229.3c0,10.8-2.1,21.5-6.3,31.5-4.1,10-10.2,19-17.8,26.7-7.6,7.6-16.7,13.7-26.7,17.8-10,4.1-20.7,6.2-31.5,6.2h-365.1c-10.8,0-21.5-2.1-31.4-6.3-10-4.1-19-10.2-26.6-17.8-7.6-7.6-13.7-16.7-17.8-26.6-4.1-10-6.3-20.7-6.3-31.4v-229.3c0-21.8,8.7-42.7,24.1-58.1,15.4-15.4,36.3-24.1,58.1-24.1h365.1c10.8,0,21.5,2.1,31.5,6.2,10,4.1,19,10.2,26.7,17.8,7.6,7.6,13.7,16.7,17.8,26.7,4.1,10,6.3,20.7,6.3,31.5Z"/>
        <path id="Vector_350" class="cls-3" d="M3110.4,1899.1v229.3c0,10.8-2.1,21.5-6.3,31.5-4.1,10-10.2,19-17.8,26.7-7.6,7.6-16.7,13.7-26.7,17.8-10,4.1-20.7,6.2-31.5,6.2h-42c-10.8,0-21.5-2.1-31.4-6.3-10-4.1-19-10.2-26.7-17.8-7.6-7.6-13.7-16.7-17.8-26.6-4.1-10-6.2-20.7-6.2-31.4v-229.3c0-21.8,8.7-42.7,24.1-58.1,15.4-15.4,36.3-24.1,58.1-24.1h42c10.8,0,21.5,2.1,31.5,6.2,10,4.1,19,10.2,26.7,17.8,7.6,7.6,13.7,16.7,17.8,26.7,4.1,10,6.3,20.7,6.3,31.5Z"/>
        <path id="Vector_351" class="cls-15" d="M2535.5,1871.4v-64.6l-25.6-46.8,3,70.7,22.6,40.7Z"/>
        <path id="Vector_352" class="cls-15" d="M2343.8,1800l8.4-13.8,13.7-7.2v-15.8l25.4-25.1,16.7,24.3-7.9,6.8-9.9-4.3-1.9,11.3h12.8l12.5,36.4-7.7,5.9,3.3,17.8-19,12.2-19.8-7.7,5-12.2s-31.5,2.8-31.5-28.6Z"/>
        <path id="Vector_353" class="cls-15" d="M3014,1871.9c5.5,0,11,1.4,15.9,3.9,4.9,2.5,9.2,6.2,12.4,10.7,3.2,4.5,5.4,9.7,6.2,15.2.8,5.5.4,11.1-1.3,16.3-20.5,60.8-80.3,158.5-253.8,158.5s-301.9-171.5-301.9-171.5l43.9-34.1s96.5,142.8,256.2,142.8,175.5-78.3,189.1-118.7c2.4-6.9,7-12.8,12.9-17,6-4.2,13.1-6.4,20.4-6.3Z"/>
        <path id="Vector_354" class="cls-7" d="M3047.2,1918.5c-2.8,8.2-6,16.2-9.6,24-.9,2-1.8,4-2.9,6-6.4,13.1-14.2,25.5-23.1,37.1-1.3,1.8-2.6,3.5-4.1,5.1-12.8,15.6-27.7,29.3-44.4,40.7l-5.5,3.7c-16.5,10.5-34.3,19-52.9,25.2l-6.3,2.1c-19.3,5.9-39.2,10-59.2,12.2l-6.5.7c-12.4,1.1-25.5,1.8-39.2,1.8s-12.9,0-19.2-.5l-6.6-.5c-17.3-1.4-34.4-4.2-51.1-8.5l-6.5-1.6c-19.4-5.4-38.3-12.4-56.5-21.1l-5.9-2.9c-18.2-9.1-35.6-19.6-52-31.5-1.9-1.2-3.6-2.5-5.4-3.8-16-11.8-31.2-24.6-45.5-38.5l-4.7-4.6c-18-17.7-34.2-37.1-48.5-57.8l43.9-34.1c12.6,17.5,26.9,33.9,42.6,48.7l4.8,4.5c12.1,11.3,25,21.8,38.5,31.5,1.8,1.3,3.5,2.6,5.4,3.8,14.4,10,29.6,18.8,45.5,26.5l6,2.8c14.6,6.6,29.7,11.9,45.1,16,2.1.6,4.2,1.2,6.4,1.6,13.8,3.3,27.9,5.6,42.1,6.6l6.6.5h13.4c11.4,0,22.8-.6,34.2-1.9,2.2,0,4.5-.5,6.6-.9,15.1-1.9,29.9-5.4,44.2-10.5l6.2-2.3c12.5-5,24.5-11.4,35.5-19,1.9-1.3,3.6-2.5,5.3-3.9,11-8.3,20.9-18,29.5-28.9,1.5-1.8,2.8-3.5,4-5.3,6.3-8.7,11.8-17.9,16.4-27.5.9-2.1,1.8-4.1,2.7-6.1,1.8-4.3,3.4-8.5,4.7-12.2,3.2-8.6,9.7-15.5,18-19.4,8.3-3.9,17.8-4.4,26.4-1.4,8.7,3,15.8,9.3,19.9,17.5,4.1,8.2,4.8,17.7,2.1,26.4l-.4-.2Z"/>
        <path id="Vector_355" class="cls-15" d="M2498.8,1782.8s-42.9-28.5-46.7-26.9c-10.4,8.3-20.3,17.2-29.7,26.7l6.6,10.5-15,16.6,4.6,7.2-10.9,19.6,26.6,34.8h32l32.5-88.5Z"/>
        <path id="Vector_356" class="cls-2" d="M2498.8,1915.4l44.3-34s-34.4-94.2-44.3-98.7c-9.9-4.5-69.8,47.3-69.8,55.5s47.2,64.4,69.8,77.2Z"/>
        <path id="Vector_357" class="cls-3" d="M3037.6,1942.5c-.9,2-1.8,4-2.9,6l-61.5-34.6c.9-2.1,1.9-4.1,2.7-6.1l61.7,34.7Z"/>
        <path id="Vector_358" class="cls-3" d="M3011.6,1985.5c-1.3,1.8-2.6,3.5-4.1,5.1l-54.5-44c1.5-1.8,2.8-3.5,4-5.3l54.5,44.2Z"/>
        <path id="Vector_359" class="cls-3" d="M2963.1,2031.4l-5.5,3.7-39.4-55.6c1.8-1.3,3.6-2.5,5.3-3.9l39.5,55.8Z"/>
        <path id="Vector_360" class="cls-3" d="M2904.9,2060.3l-6.3,2.1-22-61.5,6.2-2.3,22.1,61.8Z"/>
        <path id="Vector_361" class="cls-3" d="M2839.3,2074.5l-6.5.7-6.9-62.9c2.2,0,4.5-.5,6.6-.9l6.9,63.2Z"/>
        <path id="Vector_362" class="cls-3" d="M2778.3,2013.9l-4,62.5-6.6-.5,4-62.5,6.6.5Z"/>
        <path id="Vector_363" class="cls-3" d="M2729.6,2006.8l-13.1,60.6-6.5-1.6,13.1-60.6c2.1.6,4.2,1.2,6.4,1.6Z"/>
        <path id="Vector_364" class="cls-3" d="M2678.1,1989.2l-24.2,55.5-5.9-2.9,24.4-55.5,5.7,2.8Z"/>
        <path id="Vector_365" class="cls-3" d="M2626.6,1959.9l-30.8,50.5c-1.9-1.2-3.6-2.5-5.4-3.8l30.8-50.5c1.9,1.3,3.5,2.6,5.4,3.8Z"/>
        <path id="Vector_366" class="cls-3" d="M2582.9,1924.6l-38.1,43.3-4.7-4.6,38-43.2,4.8,4.5Z"/>
      </g>
    </g>
  </g>
</svg>