<?xml version="1.0" encoding="UTF-8"?>
<svg id="Layer_1" data-name="Layer 1" xmlns="http://www.w3.org/2000/svg" version="1.1" viewBox="0 0 76 76">
  <defs>
    <style>
      .cls-1 {
        fill: #fdc88e;
      }

      .cls-1, .cls-2, .cls-3, .cls-4, .cls-5, .cls-6, .cls-7, .cls-8 {
        stroke-width: 0px;
      }

      .cls-2 {
        fill: #ffe1b2;
      }

      .cls-3 {
        fill: #f0f0f0;
      }

      .cls-4 {
        fill: #e8b3c5;
      }

      .cls-5 {
        fill: #ffd7a3;
      }

      .cls-5, .cls-6, .cls-7 {
        fill-rule: evenodd;
      }

      .cls-6 {
        fill: #4092ff;
      }

      .cls-7 {
        fill: #eef4fc;
      }

      .cls-8 {
        fill: #fff;
      }
    </style>
  </defs>
  <path class="cls-4" d="M38,73c19.3,0,35-15.7,35-35S57.3,3,38,3,3,18.7,3,38s15.7,35,35,35Z"/>
  <path class="cls-8" d="M46.5,15.3l-6.6,35.8,4.7.9c10-7.3,14.3-36.8,1.9-36.8Z"/>
  <path class="cls-8" d="M46.5,15.3c-1.6-1-10.4-3.5-17,0-8.1,4.4-15.2,19.9-3.8,35.8,0,0,8.5-.9,8.5-.9l12.3-34.9Z"/>
  <path class="cls-5" d="M46.5,72c-2.7.7-5.6,1-8.5,1s-5.8-.4-8.5-1v-19.3c1.9-1.4,1.9-3.8,1.9-5.9v-2.2h13.2v2.2h0c0,2.1,0,4.5,1.8,5.9v19.3Z"/>
  <path class="cls-7" d="M45.5,72.2c-2.4.5-5,.8-7.5.8s-3.8-.2-5.7-.5v-9c1.7.5,3.6.7,5.7.7s5.4-.5,7.5-1.4v9.2Z"/>
  <path class="cls-1" d="M45.5,56.8c.3,0,.7.1.9.2v-4.3c-1.8-1.4-1.8-3.7-1.8-5.9h0v-2.3h-10.4c0,0-2.8,1-2.8,1,1.9,2.1,7.7,9.5,14.1,11.3Z"/>
  <path class="cls-2" d="M51.2,32.3c0,7.5-7.5,17-13.2,17s-13.2-9.4-13.2-17,5.9-10.4,13.2-10.4,13.2,2.8,13.2,10.4Z"/>
  <path class="cls-3" d="M39.9,17.2c-.5,0-2.2.6-3.7,1.1v-.2c-.1,0-.3.2-.6.4-.8.3-1.4.5-1.4.5l.2.4c-3.6,2.8-11.7,9.3-12.5,10-.9.9,5.7,25,5.7,11.3s6.3-13.7,12.2-15.1c2.7-.6,3.5-2.2,3.8-3.8.3-1.6-2.8-4.7-3.8-4.7Z"/>
  <path class="cls-3" d="M42.7,22.9c1.7,6.2,5.2,9,8.4,9.8,1.8.5,1-5.1,1-5.1,0,0-2.5-6.4-2.8-6.6-.3-.2-2.8-5.7-2.8-5.7l-5.7,4.7,1.9,2.8Z"/>
  <path class="cls-6" d="M35.5,72.9l-4.9-21.4c-.9,1.4-2.7,2.4-6.4,2.4h-.3c-5.3,0-9.7,4-10.3,9.1,5.7,5.6,13.4,9.3,21.9,9.9Z"/>
  <path class="cls-6" d="M62.4,63c-.6-5.1-5-9.1-10.3-9.1h-.3c-3.7,0-5.5-1-6.4-2.4l-4.9,21.4c8.5-.6,16.1-4.3,21.9-9.9Z"/>
  <path class="cls-2" d="M49.8,32.4c1.5-.4,2.6.4,2.6,1.9s-2.1,6.8-4.3,3.8,1.7-5.7,1.7-5.7Z"/>
</svg>