<?xml version="1.0" encoding="UTF-8"?>
<svg xmlns="http://www.w3.org/2000/svg" version="1.1" viewBox="0 0 2793 2081">
  <defs>
    <style>
      .cls-1, .cls-2, .cls-3, .cls-4, .cls-5, .cls-6 {
        isolation: isolate;
      }

      .cls-1, .cls-7 {
        opacity: .3;
      }

      .cls-2 {
        opacity: .1;
      }

      .cls-3 {
        opacity: .2;
      }

      .cls-8 {
        fill: #e6e6e6;
      }

      .cls-9, .cls-4 {
        fill: #ebebeb;
      }

      .cls-10 {
        fill: #630f0f;
      }

      .cls-11 {
        fill: #263238;
      }

      .cls-12, .cls-5, .cls-6 {
        fill: #fff;
      }

      .cls-13 {
        fill: #f0f0f0;
      }

      .cls-14 {
        fill: #fafafa;
      }

      .cls-4 {
        opacity: .6;
      }

      .cls-15 {
        fill: #7f3e3b;
      }

      .cls-16 {
        fill: #f5f5f5;
      }

      .cls-17 {
        fill: #803e3c;
      }

      .cls-18 {
        fill: #0045b6;
      }

      .cls-5 {
        opacity: .7;
      }

      .cls-6 {
        opacity: .5;
      }
    </style>
  </defs>
  <!-- Generator: Adobe Illustrator 28.7.1, SVG Export Plug-In . SVG Version: 1.2.0 Build 142)  -->
  <g>
    <g id="Layer_1">
      <g id="background">
        <path id="Vector" class="cls-9" d="M2792.5,1828.5H0v1.4h2792.5v-1.4Z"/>
        <path id="Vector_2" class="cls-9" d="M478,1881.7h-185v1.4h185v-1.4Z"/>
        <path id="Vector_3" class="cls-9" d="M1193.3,1866.5h-237.5v1.4h237.5v-1.4Z"/>
        <path id="Vector_4" class="cls-9" d="M629.2,1901.3h-107.2v1.4h107.2v-1.4Z"/>
        <path id="Vector_5" class="cls-9" d="M2512.7,1924.2h-85.1v1.4h85.1v-1.4Z"/>
        <path id="Vector_6" class="cls-9" d="M2377.8,1924.2h-191.5v1.4h191.5v-1.4Z"/>
        <path id="Vector_7" class="cls-9" d="M1853.2,1884h-133.1v1.4h133.1v-1.4Z"/>
        <path id="Vector_8" class="cls-9" d="M1323.6,1579.4H245.2c-8.4,0-16.5-3.4-22.5-9.4-6-6-9.3-14.1-9.3-22.5V31.6c0-8.4,3.5-16.4,9.4-22.3C228.8,3.3,236.8,0,245.2,0h1078.4c8.4,0,16.6,3.4,22.6,9.3,6,6,9.3,14.1,9.3,22.5v1515.6c0,8.4-3.4,16.6-9.3,22.5s-14.1,9.3-22.6,9.3ZM245.2,1.1c-8.1,0-15.8,3.2-21.5,9-5.7,5.7-8.9,13.5-8.9,21.5v1515.9c0,8.1,3.2,15.8,8.9,21.5,5.7,5.7,13.4,8.9,21.5,9h1078.4c8.1,0,15.8-3.2,21.5-9,5.7-5.7,8.9-13.5,8.9-21.5V31.6c0-8.1-3.2-15.8-8.9-21.5-5.7-5.7-13.5-8.9-21.5-8.9H245.2Z"/>
        <path id="Vector_9" class="cls-9" d="M2531.7,1579.4h-1078.4c-8.4,0-16.6-3.4-22.5-9.4-6-6-9.3-14.1-9.4-22.5V31.6c0-8.4,3.5-16.4,9.5-22.4,6-5.9,14-9.2,22.4-9.3h1078.4c8.4,0,16.4,3.4,22.4,9.3,5.9,5.9,9.3,13.9,9.4,22.3v1515.9c0,8.4-3.3,16.5-9.3,22.5-6,6-14,9.3-22.5,9.4ZM1453.2,1.1c-8.1,0-15.8,3.2-21.5,8.9-5.7,5.7-8.9,13.5-8.9,21.5v1515.9c0,8.1,3.2,15.8,8.9,21.5,5.7,5.7,13.5,8.9,21.5,9h1078.4c8.1,0,15.8-3.2,21.6-9,5.7-5.7,8.9-13.5,8.9-21.5V31.6c0-8.1-3.2-15.8-8.9-21.5-5.7-5.7-13.5-8.9-21.6-8.9h-1078.4Z"/>
        <path id="Vector_10" class="cls-8" d="M1521.2,1828.5h196v-730.1h-196v730.1Z"/>
        <path id="Vector_11" class="cls-13" d="M1553.8,1828.5h-32.6v-65.7h66.8l-34.2,65.7Z"/>
        <path id="Vector_12" class="cls-8" d="M2319.1,1828.5h196v-730.1h-196v730.1Z"/>
        <path id="Vector_13" class="cls-13" d="M1521.2,1803.3h826.4v-704.9h-826.4v704.9Z"/>
        <path id="Vector_14" class="cls-8" d="M1546.6,1322.9h775.7v-193.3h-775.7v193.3Z"/>
        <path id="Vector_15" class="cls-13" d="M1897.8,1189.6h73.3c31.8,0,62.3-23.8,84.2-66h-241.6c21.9,42.2,52.3,66,84.2,66Z"/>
        <path id="Vector_16" class="cls-13" d="M2314.9,1828.5h32.6v-65.7h-66.9l34.2,65.7Z"/>
        <path id="Vector_17" class="cls-8" d="M1546.6,1547.5h775.7v-193.3h-775.7v193.3Z"/>
        <path id="Vector_18" class="cls-13" d="M1897.8,1414.2h73.3c31.8,0,62.3-23.8,84.2-66h-241.6c21.9,42.4,52.3,66,84.2,66Z"/>
        <path id="Vector_19" class="cls-8" d="M1546.6,1772h775.7v-193.3h-775.7v193.3Z"/>
        <path id="Vector_20" class="cls-13" d="M1897.8,1638.8h73.3c31.8,0,62.3-23.8,84.2-66h-241.6c21.9,42.1,52.3,66,84.2,66Z"/>
        <path id="Vector_21" class="cls-8" d="M2295.2,779.4h-436.3l-24.9,302.3h436.3l24.9-302.3Z"/>
        <path id="Vector_22" class="cls-8" d="M2270.3,1081.7l-1.8,16.7h-436.3l1.8-16.7h436.3Z"/>
        <path id="Vector_23" class="cls-13" d="M2281.8,779.4h-436.2l-24.9,302.3h436.3l24.9-302.3Z"/>
        <path id="Vector_24" class="cls-12" d="M2248.1,1062l18.2-261.8c.1-.8,0-1.7-.1-2.5-.2-.8-.6-1.6-1.1-2.2-.5-.7-1.2-1.2-1.9-1.6-.7-.4-1.6-.6-2.4-.7h-400.9c-1.5,0-2.9.7-4,1.8-1,1.1-1.6,2.5-1.6,4.1l-18.1,262c-.1.8,0,1.7.2,2.5.2.8.6,1.6,1.1,2.2.5.6,1.2,1.2,1.9,1.6.7.4,1.5.6,2.4.7h401.1c1.5-.1,2.9-.9,3.9-2,1-1.1,1.5-2.6,1.5-4.1Z"/>
        <path id="Vector_25" class="cls-13" d="M2143.2,1081.7l-1.7,16.7h-480.5l1.8-16.7h480.4Z"/>
        <path id="Vector_26" class="cls-8" d="M295.5,1828.5h151.9v-448.3h-151.9v448.3Z"/>
        <path id="Vector_27" class="cls-13" d="M324.4,1828.5h-28.9v-106.9h59.1l-30.2,106.9Z"/>
        <path id="Vector_28" class="cls-8" d="M1161.9,1828.5h151.8v-448.3h-151.8v448.3Z"/>
        <path id="Vector_29" class="cls-13" d="M295.6,1799.3h891.5v-419.1H295.6v419.1Z"/>
        <path id="Vector_30" class="cls-13" d="M1158.2,1828.5h28.9v-106.9h-59.1l30.2,106.9Z"/>
        <path id="Vector_31" class="cls-8" d="M893.1,1424.4v326.9h264.3v-326.9h-264.3Z"/>
        <path id="Vector_32" class="cls-13" d="M999.1,1441.9h52.3c22.5,0,44-8.8,60-24.6h-172.3c7.9,7.8,17.3,14.1,27.6,18.3,10.3,4.2,21.3,6.4,32.5,6.3Z"/>
        <path id="Vector_33" class="cls-8" d="M609.1,1424.4v326.9h264.3v-326.9h-264.3Z"/>
        <path id="Vector_34" class="cls-13" d="M712.5,1441.9h52.3c11.1,0,22.2-2.1,32.5-6.3,10.3-4.2,19.7-10.4,27.6-18.3h-172.3c7.9,7.8,17.3,14.1,27.6,18.3,10.3,4.2,21.3,6.4,32.5,6.4Z"/>
        <path id="Vector_35" class="cls-8" d="M325.2,1424.4v326.9h264.3v-326.9h-264.3Z"/>
        <path id="Vector_36" class="cls-13" d="M428.5,1441.9h52.3c11.1,0,22.2-2.1,32.5-6.3,10.3-4.2,19.7-10.4,27.6-18.3h-172.2c15.9,15.8,37.4,24.6,59.9,24.6Z"/>
        <path id="Vector_37" class="cls-16" d="M896.1,1123.7h-156.6c-19.5,0-35.2,15.8-35.2,35.2v185.3c0,19.5,15.8,35.2,35.2,35.2h156.6c19.5,0,35.2-15.8,35.2-35.2v-185.3c0-19.5-15.8-35.2-35.2-35.2Z"/>
        <path id="Vector_38" class="cls-16" d="M1134.7,1182.8h-120.4c-15,0-27.1,12.2-27.1,27.1v142.5c0,15,12.2,27.1,27.1,27.1h120.4c15,0,27.2-12.2,27.2-27.1v-142.5c0-15-12.2-27.1-27.2-27.1Z"/>
        <path id="Vector_39" class="cls-13" d="M342,1282s5.6,97.6,220.3,97.6,220.3-97.6,220.3-97.6h-440.5Z"/>
        <path id="Vector_40" class="cls-8" d="M409.3,1011.3h827.6V115.3H409.3v895.9Z"/>
        <path id="Vector_41" class="cls-13" d="M384.1,1011.3h841V115.3H384.1v895.9Z"/>
        <path id="Vector_42" class="cls-8" d="M409.3,1049h827.6v-37.7H409.3v37.7Z"/>
        <path id="Vector_43" class="cls-13" d="M342.1,1049h841v-37.7H342.1v37.7Z"/>
        <path id="Vector_44" class="cls-14" d="M1189.8,975.9V150.7H419.4v825.2h770.3Z"/>
        <path id="Vector_45" class="cls-12" d="M1016.1,975.9l-98.4-825.2h-153.6l98.4,825.2h153.5Z"/>
        <path id="Vector_46" class="cls-13" d="M1173.4,945.7c.7,0,1.3-.3,1.8-.7.5-.5.8-1.1.8-1.8V173.7c0-.7-.3-1.3-.8-1.8-.5-.5-1.1-.7-1.8-.7s-.7,0-1,.2c-.3.1-.6.3-.8.5-.2.2-.4.5-.6.8-.1.3-.2.6-.2,1v769.5c0,.3,0,.7.2,1s.3.6.6.8c.2.2.5.4.8.5.3.1.6.2,1,.2Z"/>
        <path id="Vector_47" class="cls-12" d="M829.6,975.9l-98.4-825.2h-59.9l98.4,825.2h59.9Z"/>
        <path id="Vector_48" class="cls-8" d="M424,975.9V150.7h-4.5v825.2h4.5Z"/>
        <path id="Vector_49" class="cls-4" d="M375.8,225.9h827.6l3.2-61.4H379l-3.2,61.4Z"/>
        <path id="Vector_50" class="cls-4" d="M375.8,326.7h827.6l3.2-61.5H379l-3.2,61.5Z"/>
        <path id="Vector_51" class="cls-4" d="M375.8,427.4h827.6l3.2-61.4H379l-3.2,61.4Z"/>
        <path id="Vector_52" class="cls-4" d="M375.8,528.2h827.6l3.2-61.5H379l-3.2,61.5Z"/>
        <path id="Vector_53" class="cls-4" d="M375.8,629h827.6l3.2-61.4H379l-3.2,61.4Z"/>
        <path id="Vector_54" class="cls-4" d="M375.8,729.7h827.6l3.2-61.4H379l-3.2,61.4Z"/>
        <path id="Vector_55" class="cls-13" d="M1674,651.4h661.4V189.4h-661.4v462Z"/>
        <path id="Vector_56" class="cls-16" d="M1640.7,651.4h688.8V189.4h-688.8v462Z"/>
        <path id="Vector_57" class="cls-12" d="M2293.1,615V225.8h-616v389.2h616Z"/>
        <path id="Vector_58" class="cls-16" d="M2194,484.8v-128.8c0-19.8-16.1-35.9-35.9-35.9h-114.7c-19.8,0-35.8,16.1-35.8,35.9v128.8c0,19.8,16,35.9,35.8,35.9h114.7c19.8,0,35.9-16.1,35.9-35.9Z"/>
        <path id="Vector_59" class="cls-16" d="M1962.7,484.8v-128.8c0-19.8-16-35.9-35.9-35.9h-114.7c-19.8,0-35.9,16.1-35.9,35.9v128.8c0,19.8,16.1,35.9,35.9,35.9h114.7c19.8,0,35.9-16.1,35.9-35.9Z"/>
        <path id="path" class="cls-16" d="M1396.2,2080.7c598.1,0,1082.9-28.3,1082.9-63.2s-484.8-63.2-1082.9-63.2-1082.9,28.3-1082.9,63.2,484.8,63.2,1082.9,63.2Z"/>
      </g>
      <g id="character">
        <path id="Vector_60" class="cls-15" d="M1642.4,1913.1l-43.3-15.8,23.8-104.3,43.3,15.7-23.8,104.3Z"/>
        <path id="Vector_61" class="cls-15" d="M1983.8,1970.6h-45.9l-13.1-106.4h46l13,106.4Z"/>
        <path id="Vector_62" class="cls-11" d="M1931.8,1965.3h55.9c.9,0,1.8.3,2.5.9.7.6,1.2,1.4,1.4,2.2l9.5,40.8c.2,1,.2,2,0,3-.2,1-.7,1.9-1.3,2.7-.6.8-1.5,1.4-2.4,1.8-.9.4-1.9.6-2.9.6-18-.3-31.2-1.3-53.9-1.3s-55.9,1.4-75.3,1.4-22-19.1-14.1-20.8c35.4-7.7,61.9-18.4,73.2-28.6,2.1-1.8,4.8-2.8,7.6-2.8Z"/>
        <path id="Vector_63" class="cls-11" d="M1597.6,1888.6l49.1,10.5c.9.2,1.7.7,2.3,1.4.6.7.9,1.6.9,2.5l.7,41.8c0,1-.2,2-.6,2.9-.4.9-1,1.7-1.8,2.4-.8.6-1.7,1.1-2.7,1.3-1,.2-2,.2-3,0-17.7-4.1-43.1-10.6-65.4-15.4-26.1-5.6-42.2-10.8-72.6-17.4-18.5-4-19.8-23.7-11.7-23.7,36.8,0,59.1,7.1,93.4-5.1,3.6-1.4,7.6-1.8,11.4-1.2Z"/>
        <path id="Vector_64" class="cls-17" d="M1889.4,603.2c-14.1,21.4-28.4,42.8-43.1,64l-43.9,63.3c-7.2,10.6-14.6,20.9-21.4,31.3-5.2,7.9-11.5,14.9-18.7,21-8.8,7.5-19.4,12.5-30.8,14.5-5.8.9-11.7,1.1-17.5.4-5.2-.7-10.3-2-15.2-3.9-8.4-3.3-16.1-7.9-23-13.6-6-5-11.5-10.6-16.4-16.8-2.4-2.9-4.5-5.9-6.6-9-2.1-3.1-3.8-6-6-9.9l27.4-21,6.7,4.8,7,4.7c4.4,2.8,9.1,5.3,14,7.4,3.7,1.7,7.7,2.8,11.8,3.1,3.2,0,4.9-.6,5.6-1.5,1-1.2,2-2.4,2.9-3.7,1.4-2.2,3.1-5,5.3-9.2,6.6-11.8,13.1-23.1,19.9-34.3,13.5-22.3,27.2-44.4,41.3-66.2,7.1-10.9,14.1-21.7,21.4-32.4,7.3-10.7,14.4-21.5,22-32.1l57.5,39.2Z"/>
        <path id="Vector_65" class="cls-18" d="M1912.7,575.2c7.4,43.4-92.4,146.6-92.4,146.6l-80.7-67c20.7-34.2,45-66,72.6-94.9,40.8-41.1,92.2-32.1,100.5,15.4Z"/>
        <path id="Vector_66" class="cls-5" d="M1912.7,575.2c7.4,43.4-92.4,146.6-92.4,146.6l-80.7-67c20.7-34.2,45-66,72.6-94.9,40.8-41.1,92.2-32.1,100.5,15.4Z"/>
        <path id="Vector_67" class="cls-3" d="M1849.4,625.8c-23.5,7.4-51.8,42.1-59,71.4l29.9,24.9c23.8-24.9,45.8-51.6,65.7-79.8-5.4-11.8-9.5-25-36.6-16.5Z"/>
        <path id="Vector_68" class="cls-3" d="M1623,1793.1l-12.3,53.8,43.3,15.7,12.3-53.7-43.3-15.8Z"/>
        <path id="Vector_69" class="cls-3" d="M1970.8,1864.2h-46l6.8,54.9h46l-6.8-54.9Z"/>
        <path id="Vector_70" class="cls-18" d="M2118.1,582.6c-19.3,47.5-35.1,96.4-47.1,146.2-8.6,34.8-15.2,68.2-20.6,98.6-12.5,71.2-17.5,126.1-21.8,144.3l-241-48.8c-1.7-263.9,77.8-389.2,77.8-389.2,19.7-1.1,39.4-.9,59,.4,4.1.3,8.4.7,12.6,1.2,34.5,4.9,68.8,11.8,102.5,20.7,6.4,1.6,12.9,3.5,19.2,5.3,31.7,9.6,59.4,21.3,59.4,21.3Z"/>
        <path id="Vector_71" class="cls-5" d="M2118.1,582.6c-19.3,47.5-35.1,96.4-47.1,146.2-8.6,34.8-15.2,68.2-20.6,98.6-12.5,71.2-17.5,126.1-21.8,144.3l-241-48.8c-1.7-263.9,77.8-389.2,77.8-389.2,19.7-1.1,39.4-.9,59,.4,4.1.3,8.4.7,12.6,1.2,34.5,4.9,68.8,11.8,102.5,20.7,6.4,1.6,12.9,3.5,19.2,5.3,31.7,9.6,59.4,21.3,59.4,21.3Z"/>
        <path id="Vector_72" class="cls-18" d="M1942.1,584.8c-9.4,16.8-22.3,29.8-38.7,75.4,1,10.3,2.6,20.8,4.5,31.4,7.4-8.5,15.3-17,23.4-25.4,11.8-44.7,9.6-57.4,20.3-79.2l-9.5-2.3Z"/>
        <path id="Vector_73" class="cls-18" d="M1939.8,599.5l-3.9-24.3,17.7-3.9,10.7,9.9-24.5,18.3Z"/>
        <path id="Vector_74" class="cls-11" d="M2058.5,561.3c-59.8,41.2-110.6,84.4-150.8,130.3-10.5-56.2-8-109.1,10.7-157.8-17.8-1-35.6-1-53.4,0,0,0-79.4,125.4-77.6,389.2l241.2,48.8c4.4-18.3,9.4-73.1,21.8-144.3,5.3-30.4,11.9-63.8,20.6-98.6,12-49.9,27.7-98.7,47.1-146.2,0,0-27.7-11.7-59.6-21.3Z"/>
        <path id="Vector_75" class="cls-15" d="M2051.3,438.6c-12.8,31.7-30.9,90.8-12,117.3-12.2,8.5-26.2,14.4-40.8,17-14.7,2.7-29.8,2.1-44.2-1.5-28.3-6.4-25.9-26.5-17.4-36.2,38.5-1.3,42.8-28.8,41.3-55.8l73.2-40.7Z"/>
        <path id="Vector_76" class="cls-12" d="M1953.6,571.3s7.9,15.9,17.8,32c20.7-6,69.8-23.2,73.3-48.1-1.4-5.6-4.8-10.5-9.4-14-25.4,14.3-53,24.5-81.6,30Z"/>
        <path id="Vector_77" class="cls-12" d="M1953.6,571.3c-10.9,5.8-21,13.2-29.9,21.8-11.5-12.2,5.6-56.1,11.9-60.1,6.1-2.8,12.9-3.5,19.5-2.2,0,0-21.8,30.7-1.5,40.5Z"/>
        <path id="Vector_78" class="cls-3" d="M2021.7,455.3l-43.3,24.2c.4,6.3.3,12.6-.3,18.8,14.4.8,36.7-10.7,41-25.1,2-5.8,2.9-11.9,2.7-18Z"/>
        <path id="Vector_79" class="cls-11" d="M1967.7,323.9c-12.5,13.7-25.1,47.9,2.3,47.6,27.4-.3,19.2-71.2-2.3-47.6Z"/>
        <path id="Vector_80" class="cls-15" d="M2073.1,399.4c-16.8,42.4-24.4,68-53.4,82.9-43.7,22.3-90.5-15.4-86.7-62,3.4-42,30.2-104.2,78.2-107.2,10.6-.6,21.2,1.4,30.7,6,9.6,4.6,17.8,11.5,24,20.1,6.2,8.6,10.1,18.7,11.3,29.2,1.3,10.5-.2,21.2-4.2,31Z"/>
        <path id="Vector_81" class="cls-11" d="M1979.3,340.7c-28.4-14.2-37.3-53.8,9.8-64.1,10.9-1.9,22.1-1.9,33,0,0,0-12.3,7.6-8,19,7.1-6.9,16.2-11.3,26-12.5,9.8-1.3,19.7.6,28.3,5.5-8.8,6.9-10.8,28.5,5.6,29,24.7.7,53.4,18.6,39.1,43.5,20.8,26.1-11.7,62.3-57.8,66-12.6-25.3,7.7-62.7,7.7-62.7-23.2-.6-58-10.8-83.7-23.6Z"/>
        <path id="Vector_82" class="cls-11" d="M2106.1,361.7s21.1-2.9,13.9-22.7c15.7,13.2,4.2,25.4-13.9,22.7Z"/>
        <path id="Vector_83" class="cls-11" d="M2101.7,365s20.4-6,22,15c8.9-18.5-6.5-24.9-22-15Z"/>
        <path id="Vector_84" class="cls-15" d="M2078,440.9c-3.3,4.6-7.4,8.4-12.2,11.4-4.8,3-10.1,4.9-15.7,5.8-15,2.2-20.7-11.8-15-25,5.1-11.9,19-27.4,33.5-23.5,14.5,3.9,17.5,19.8,9.4,31.3Z"/>
        <path id="Vector_85" class="cls-18" d="M1598,1831l73.3,26.6s57.2-252.1,87.7-391.8c9.3-42.6,27.9-101,49.9-163.3,27.9-78.2,61-162.9,87.8-229,28.3-69.5,49.3-118.6,49.3-118.6l-158.4-32.1s-120.9,347.9-148.1,485.4c-28.3,143.1-41.5,422.8-41.5,422.8Z"/>
        <g id="Group" class="cls-7">
          <path id="Vector_86" d="M1598,1831l73.3,26.6s57.2-252.1,87.7-391.8c9.3-42.6,27.9-101,49.9-163.3,27.9-78.2,61-162.9,87.8-229,28.3-69.5,49.3-118.6,49.3-118.6l-158.4-32.1s-120.9,347.9-148.1,485.4c-28.3,143.1-41.5,422.8-41.5,422.8Z"/>
        </g>
        <path id="Vector_87" class="cls-3" d="M1808.9,1302.5c27.9-78.2,61-162.8,87.8-229l-12.3-37.9c-45.3,42.3-73.6,186.6-75.5,266.9Z"/>
        <path id="Vector_88" class="cls-18" d="M1873,940.2s-28.3,396.5-30,531.5c-1.8,147.6,67,436.7,67,436.7h84.1s-33.5-260.9-22.3-407.1c12.5-163.5,56.6-529.6,56.6-529.6l-155.4-31.5Z"/>
        <g id="Group_2" class="cls-7">
          <path id="Vector_89" d="M1873,940.2s-28.3,396.5-30,531.5c-1.8,147.6,67,436.7,67,436.7h84.1s-33.5-260.9-22.3-407.1c12.5-163.5,56.6-529.6,56.6-529.6l-155.4-31.5Z"/>
        </g>
        <path id="Vector_90" class="cls-11" d="M1900.2,1910.3h99.1l-.3-29.6-103.5-6,4.7,35.6Z"/>
        <path id="Vector_91" class="cls-11" d="M1588.2,1830.1l87.8,30.4,9.6-28.3-96-35-1.3,32.8Z"/>
        <path id="Vector_92" class="cls-11" d="M2003.7,389.4c-1.1,3.5-3.9,5.6-6.2,5-2.3-.6-3.2-4.2-2.1-7.8,1.2-3.6,3.9-5.6,6.2-5,2.3.6,3.3,4.3,2.1,7.8Z"/>
        <path id="Vector_93" class="cls-11" d="M1964.2,376.1c1.1-3.5.1-7-2.2-7.7-2.3-.7-5.1,1.5-6.2,5.1-1.1,3.5-.2,7,2.2,7.7,2.3.7,5.1-1.5,6.2-5.1Z"/>
        <path id="Vector_94" class="cls-10" d="M1976.1,382.1c-7.7,8.9-16.7,16.8-26.5,23.3,1.9,2.4,4.3,4.4,7,5.9,2.7,1.5,5.7,2.3,8.8,2.5l10.8-31.7Z"/>
        <path id="Vector_95" class="cls-11" d="M1980.3,443.9c-1.6-.3-3.1-.7-4.6-1.2-.3-.1-.5-.3-.6-.6-.1-.3-.2-.6,0-.8.1-.3.3-.5.6-.6s.6-.1.8,0c4.3,1.6,9,2.1,13.5,1.5,4.6-.6,8.9-2.2,12.7-4.8,0,0,.2-.2.3-.2s.3,0,.4,0,.3,0,.4,0,.2.1.3.2c.1,0,.2.2.3.3,0,.1,0,.3,0,.4s0,.3,0,.4c0,.1-.2.2-.3.3-3.4,2.5-7.3,4.2-11.4,5-4.1.9-8.3.9-12.4,0Z"/>
        <path id="Vector_96" class="cls-11" d="M2020.2,380.7c-.4,0-.7-.2-1-.5-.3-.2-.5-.6-.7-.9-.8-2.6-2.3-5-4.2-6.9-1.9-1.9-4.3-3.4-6.9-4.2-.6-.1-1-.5-1.4-1-.3-.5-.4-1.1-.3-1.7.2-.6.5-1,1-1.3.5-.3,1.1-.4,1.7-.2,3.3,1.1,6.3,2.9,8.7,5.4,2.4,2.5,4.2,5.5,5.3,8.8,0,.3.1.6.1.8,0,.3,0,.6-.2.8-.1.3-.3.5-.5.7s-.5.3-.8.4c-.3,0-.6,0-.8-.2Z"/>
        <path id="Vector_97" class="cls-11" d="M1951.4,356.6c-.4,0-.8-.3-1.1-.6-.2-.2-.4-.4-.5-.7s-.2-.5-.2-.8,0-.6.2-.8.3-.5.5-.7c2.3-2.5,5.2-4.5,8.5-5.6,3.2-1.2,6.7-1.5,10.1-1,.6.1,1.1.5,1.4.9.3.5.4,1.1.3,1.6,0,.6-.4,1.1-.9,1.4-.5.3-1.1.5-1.6.4-2.7-.3-5.5,0-8,1-2.6,1-4.8,2.6-6.7,4.6-.3.2-.6.4-.9.5-.4,0-.7,0-1.1,0Z"/>
        <path id="Vector_98" class="cls-18" d="M1916.7,1973.3c-3.1.2-6.3-.6-8.9-2.3-.8-.7-1.4-1.6-1.8-2.5s-.6-2-.5-3.1c0-.6.2-1.2.5-1.8.3-.5.8-1,1.3-1.3,5-2.6,19.9,6.5,21.6,7.5.2.1.3.3.4.5,0,.2.1.4.1.6,0,.2-.1.4-.3.6-.2.2-.3.3-.6.3-3.9.9-8,1.4-12,1.5ZM1909.8,1963.8c-.5,0-.9,0-1.4.3-.2.1-.4.3-.5.5-.1.2-.2.5-.2.7,0,.7,0,1.5.2,2.2.3.7.7,1.3,1.3,1.8,2.5,2.1,8.5,2.3,16.3.8-4.7-3-10-5.2-15.5-6.3h-.3Z"/>
        <path id="Vector_99" class="cls-18" d="M1928.4,1971.5c-.2,0-.3,0-.5,0-4.8-2.6-14.1-12.7-13.1-17.8.1-.8.6-1.5,1.2-2,.6-.5,1.4-.8,2.2-.8.8-.1,1.7,0,2.5.2.8.2,1.5.7,2.2,1.2,5.6,4.3,6.7,17.6,6.7,18.2,0,.1,0,.3,0,.4,0,.2-.1.3-.2.4-.1.1-.2.2-.4.3-.1,0-.3,0-.4,0h0ZM1919,1952.9h-.5c-1.4,0-1.5.8-1.6,1.1-.6,3,5.6,10.6,10.2,14.2-.4-5.2-2.3-10.3-5.6-14.4-.7-.5-1.6-.8-2.5-.8v-.2Z"/>
        <path id="Vector_100" class="cls-18" d="M1591.7,1893.8c-7.5,0-20.8-1.1-24.8-6.5-.6-.8-1-1.7-1.2-2.7-.2-1,0-2,.2-2.9.1-.6.4-1.1.8-1.5.4-.4.9-.7,1.5-.9,6.1-1.9,22.3,11.2,24.1,12.6.2.1.3.3.4.6s0,.5,0,.7c0,.2-.2.4-.4.5-.2.1-.4.2-.6.2ZM1569.4,1881.2h-.4c-.2,0-.4.2-.6.3-.2.2-.3.4-.3.7-.2.6-.3,1.3-.2,1.9s.3,1.2.8,1.8c2.3,3,9.6,5,19.9,5.6-6.5-4.9-15.6-10.7-19.2-10.3Z"/>
        <path id="Vector_101" class="cls-18" d="M1591.7,1893.8c-.2,0-.5,0-.8,0-5-3.6-13.7-15.6-11.8-20.5.4-1.2,1.6-2.5,4.6-2.1,1.1.1,2.2.4,3.1,1,1,.5,1.8,1.2,2.5,2.1,4.7,5.9,3.5,18.3,3.4,18.8,0,.2,0,.4-.2.5-.1.2-.3.3-.4.3h-.3ZM1582.3,1873.1c-.9,0-1.1.6-1.2.8-1.1,2.9,4.6,12.1,9.5,16.8.6-5.2-.5-10.6-3.1-15.1-.5-.6-1.1-1.2-1.8-1.6-.7-.4-1.5-.6-2.2-.7h-1.2Z"/>
        <path id="Vector_102" class="cls-15" d="M1676,723.5l-34-32.3-16,49.4s32.1,26.9,45.2,9.9l4.8-27Z"/>
        <path id="Vector_103" class="cls-15" d="M1596.7,681.4l.7,47.2,28.7,12,16-49.4-45.3-9.8Z"/>
        <path id="Vector_104" class="cls-18" d="M1753.7,611.9l-348.8-72.6-31,148.2,348.8,72.6c21.8,4.5,40.8,17.5,53,36.1,12.2,18.6,16.5,41.3,11.9,63-4.5,21.8-17.5,40.8-36.1,53-18.6,12.2-41.3,16.5-63,11.9l-348.8-72.6-30.9,148.1,348.8,72.6c61,12.5,124.6.4,176.7-33.8,52.1-34.2,88.6-87.6,101.5-148.5l11.9-57.3-194-220.8Z"/>
        <path id="Vector_105" class="cls-2" d="M1753.7,611.9l-348.8-72.6-31,148.2,348.8,72.6c21.8,4.5,40.8,17.5,53,36.1,12.2,18.6,16.5,41.3,11.9,63-4.5,21.8-17.5,40.8-36.1,53-18.6,12.2-41.3,16.5-63,11.9l-348.8-72.6-30.9,148.1,348.8,72.6c61,12.5,124.6.4,176.7-33.8,52.1-34.2,88.6-87.6,101.5-148.5l11.9-57.3-194-220.8Z"/>
        <path id="Vector_106" class="cls-18" d="M1946.2,839.6c-12.8,61-49.3,114.4-101.4,148.6-52.1,34.2-115.7,46.4-176.7,33.8l-348.8-72.6,30.9-148.2,348.8,72.6c10.8,2.4,22,2.5,32.9.5,10.9-2,21.3-6.1,30.5-12.1,9.3-6,17.3-13.8,23.5-23,6.2-9.1,10.6-19.4,12.9-30.2,2.3-10.8,2.3-22,.2-32.9-2.1-10.9-6.3-21.2-12.4-30.4s-14-17.2-23.2-23.3c-9.2-6.2-19.5-10.5-30.3-12.6l-348.8-72.6,30.8-148.2,348.8,72.6c61,12.9,114.3,49.4,148.5,101.5,34.2,52.1,46.3,115.6,33.8,176.7v-.2Z"/>
        <path id="Vector_107" class="cls-6" d="M1547.9,516.4l-132.8-27.6-41.4,198.7,132.8,27.6,41.4-198.7Z"/>
        <path id="Vector_108" class="cls-6" d="M1482.8,828.8l-132.8-27.6-41.4,198.7,132.8,27.6,41.4-198.7Z"/>
        <path id="Vector_109" class="cls-17" d="M2139.7,623c4.7,16.8,8.3,32.3,11.9,48.5,3.6,16.3,6.4,32.6,9,49.1,2.6,16.5,4.5,33.5,5.6,50.7,1.4,18.4.9,36.8-1.6,55.1-.8,5.4-2,10.8-3.5,16-.9,3-2,6-3.2,8.9-.6,1.6-1.3,3.3-2.2,4.8l-1.3,2.5-1.8,3c-4.6,7.2-10.7,13.2-17.9,17.8-5.7,3.6-11.9,6.3-18.3,8.2-10.2,2.9-20.7,4.4-31.3,4.5-9.2.1-18.4-.4-27.5-1.5-33.8-4.5-66.8-13.5-98.2-26.7l9.3-33.2,23.1,2.6c7.8.8,15.6,1.4,23.3,2,15,1.2,30.1,1.7,45.1,1.3,6.9-.2,13.8-.8,20.7-1.8,5.5-.6,10.9-2,16-4.2,1.2-.5,2.3-1.3,3.3-2.2.3-.4-.4,0-1.2.7,0,.1,0,.2,0,.3v-.7c0-.6.3-1.5.6-2.5.5-2.5.8-5.1,1-7.7.7-13.8.1-27.6-1.6-41.2-1.8-14.7-4-29.8-6.9-44.7-5.6-30.2-12.4-61.4-19.7-90.8l67.2-18.7Z"/>
        <path id="Vector_110" class="cls-18" d="M2130.5,589.3c36,25.3,47.9,156.4,47.9,156.4l-111.7,13.6c-8.4-37.8-13.4-76.3-14.8-115-1.5-62.2,35-85.7,78.6-54.9Z"/>
        <path id="Vector_111" class="cls-5" d="M2130.5,589.3c36,25.3,47.9,156.4,47.9,156.4l-111.7,13.6c-8.4-37.8-13.4-76.3-14.8-115-1.5-62.2,35-85.7,78.6-54.9Z"/>
        <path id="Vector_112" class="cls-15" d="M1980.2,832.2l-32.8-33.5-20.6,55.8s34.1,21.9,47.7,4.9l5.7-27.3Z"/>
        <path id="Vector_113" class="cls-15" d="M1909.5,794l-14.7,46.5,32.2,13.7,20.4-55.3-37.9-4.9Z"/>
      </g>
      <g id="emails">
        <path id="Vector_114" class="cls-18" d="M1271.7,268.7v214.6c0,6.3-2.5,12.4-7,16.8-4.5,4.5-10.5,7-16.8,7h-367c-6.3,0-12.4-2.5-16.8-7-4.5-4.5-7-10.5-7-16.8v-214.6c0-3,.6-6.1,1.7-8.9,1.8-4.4,4.9-8.2,8.9-10.9,4-2.7,8.7-4.1,13.5-4.1h367c4.8,0,9.5,1.4,13.5,4,4,2.7,7.1,6.5,8.9,10.9,1,2.9,1.4,5.9,1.3,8.9Z"/>
        <path id="Vector_115" class="cls-1" d="M1270,259.9l-195.9,162.6c-2.8,2.3-6.2,3.5-9.8,3.5s-7-1.2-9.8-3.5l-195.9-162.6c1.8-4.4,4.9-8.2,8.9-10.9,4-2.7,8.7-4.1,13.5-4.1h367c4.7,0,9.3,1.5,13.2,4.2,3.9,2.7,6.9,6.4,8.7,10.8Z"/>
        <path id="Vector_116" class="cls-12" d="M1128.2,130.4h-195.1v191.1l121.5,100.9c2.8,2.3,6.2,3.5,9.8,3.5s7-1.2,9.8-3.5l121.6-100.9v-148.4l-67.5-42.7Z"/>
        <path id="Vector_117" class="cls-18" d="M1064.3,429.4c-4.4,0-8.6-1.5-11.9-4.4l-121.5-101.1c-.4-.3-.7-.7-.9-1.2-.2-.5-.3-.9-.3-1.4v-190.9c0-.9.4-1.8,1-2.4.6-.6,1.5-1,2.4-1h195.1c.6,0,1.3.2,1.8.5l67.8,42.6c.5.3.9.7,1.2,1.2.3.5.4,1.1.4,1.7v148.5c0,.5-.1,1-.3,1.4s-.5.9-.9,1.2l-121.8,100.9c-3.3,2.8-7.6,4.4-12,4.4ZM936.4,319.9l120.4,99.9c2.1,1.8,4.8,2.7,7.6,2.7s5.5-1,7.6-2.7l120.4-99.9v-145.2l-65.4-40.7h-190.5v185.9Z"/>
        <path id="Vector_118" class="cls-9" d="M1195.7,173l-67.8-42.7,21.9,56.5,45.9-13.9Z"/>
        <path id="Vector_119" class="cls-18" d="M1149.8,190.3c-.7,0-1.3-.2-1.9-.6-.6-.4-1-.9-1.3-1.6l-22-56.5c-.2-.7-.3-1.4,0-2.1.2-.7.6-1.3,1.1-1.7.6-.4,1.2-.7,1.9-.8.7,0,1.4.1,2,.5l67.8,42.6c.6.4,1,.9,1.3,1.4.3.6.4,1.3.3,1.9,0,.6-.4,1.3-.8,1.8-.4.5-1,.9-1.6,1l-45.9,13.6c-.3.2-.6.3-1,.4ZM1134.7,138.7l17.1,44,35.7-10.8-52.8-33.2Z"/>
        <path id="Vector_120" class="cls-18" d="M1117.5,311.4h15.4c-5.6,9.8-14,17.9-24,23.1-13.2,6.7-27.9,9.9-42.7,9.5-14,.4-27.9-2.4-40.7-8.1-10.6-4.8-19.2-13.3-24.1-23.8-4.8-10.8-6.7-22.6-5.6-34.3,1-13.5,5.3-26.5,12.6-38,6.9-11.3,16.7-20.4,28.4-26.4,12.1-6,25.5-9,39.1-8.8,11.1-.2,22,2.2,31.9,7.1,8.7,4.4,15.8,11.5,20.2,20.2,4.5,8.8,6.4,18.7,5.6,28.6-.9,12.4-5.8,24.1-14,33.5-4.5,5.9-10.2,10.6-16.9,13.9-6.6,3.3-13.9,5-21.2,5-3.1.2-6.2-.5-8.9-2.1-1-.7-1.8-1.7-2.4-2.7-.6-1.1-1-2.2-1.2-3.4-5.5,5.2-12.8,8.2-20.4,8.3-3.6.1-7.3-.5-10.6-2-3.3-1.4-6.3-3.6-8.7-6.3-2.5-3.1-4.4-6.7-5.5-10.5-1.1-3.8-1.3-7.9-.7-11.8.8-11.3,5-22.1,12-31.1,3.4-5.2,8-9.4,13.4-12.4,5.4-3,11.5-4.6,17.6-4.7,3.7-.3,7.3.5,10.6,2.2,3.2,1.7,5.9,4.4,7.7,7.6l2.4-8h19.2l-15,52c-.7,2.1-1.2,4.2-1.5,6.4-.2,1,0,1.9.6,2.7.2.3.5.5.9.7s.7.2,1.1.2c3.4-.5,6.7-1.9,9.3-4.2,5.4-3.9,9.9-8.9,13.1-14.8,3.4-5.9,5.5-12.4,6-19.2.6-5.4,0-11-1.8-16.1-1.8-5.2-4.8-9.8-8.7-13.7-8.4-8-20.3-12-35.7-12-11.8-.3-23.5,2.4-33.9,8-9.4,5.2-17.2,12.9-22.3,22.3-5.3,9.3-8.4,19.6-9.3,30.3-.9,9.7,1,19.4,5.6,27.9,4.4,8.3,11.5,14.8,20.2,18.3,10,4,20.7,5.9,31.5,5.6,10.2.2,20.5-1.4,30.2-4.8,8.1-2.8,15.4-7.7,21.2-14.1ZM1041.4,281.6c-.8,4.7.2,9.5,2.7,13.5,1,1.4,2.4,2.5,3.9,3.3,1.5.8,3.3,1.1,5,1.1,2.8,0,5.4-.7,7.9-2,2.1-1.2,4-2.8,5.6-4.6,3.3-3.8,5.9-8.2,7.6-12.9,2.2-5,3.6-10.4,4-15.8.7-4.4-.3-8.9-2.8-12.6-1.1-1.4-2.5-2.6-4.1-3.3-1.6-.8-3.4-1.1-5.2-1.1-4.4,0-8.7,1.8-11.9,4.9-4.2,3.7-7.3,8.5-9,13.7-2,5.1-3.2,10.4-3.7,15.8Z"/>
        <path id="Vector_121" class="cls-18" d="M996.7,788.1v192.2c0,5.7-2.2,11.1-6.2,15.1-4,4-9.4,6.3-15.1,6.3h-328.6c-5.7,0-11.1-2.3-15.1-6.3-4-4-6.3-9.4-6.3-15.1v-192.2c0-2.7.5-5.4,1.6-7.9,1.6-4,4.3-7.3,7.9-9.7,3.5-2.4,7.7-3.7,12-3.7h328.6c4.2,0,8.4,1.3,11.9,3.7,3.5,2.4,6.3,5.8,7.8,9.7,1.1,2.5,1.6,5.2,1.6,8Z"/>
        <path id="Vector_122" class="cls-1" d="M995.2,780.2l-175.4,145.6c-2.5,2-5.6,3.1-8.7,3.1s-6.3-1.1-8.7-3.1l-175.4-145.5c1.6-4,4.3-7.3,7.9-9.7,3.5-2.4,7.7-3.7,12-3.7h328.6c4.2,0,8.4,1.3,11.9,3.7,3.5,2.4,6.3,5.8,7.8,9.7Z"/>
        <path id="Vector_123" class="cls-12" d="M868,664.3h-174.5v171.1l108.9,90.4c2.4,2.1,5.5,3.2,8.7,3.2s6.3-1.1,8.7-3.2l108.9-90.4v-133l-60.7-38.1Z"/>
        <path id="Vector_124" class="cls-18" d="M811.1,932c-3.9,0-7.7-1.4-10.7-3.9l-108.8-90.4c-.3-.3-.6-.7-.8-1.1-.2-.4-.3-.8-.3-1.3v-171.1c0-.8.3-1.6.9-2.2.6-.6,1.3-.9,2.1-.9h174.5c.6,0,1.1.2,1.6.5l60.7,38.1c.4.3.8.6,1.1,1.1.3.5.4,1,.4,1.5v133c0,.4-.1.9-.3,1.3-.2.4-.5.8-.8,1.1l-108.9,90.4c-3,2.5-6.8,3.8-10.7,3.9ZM696.6,834l107.7,89.4c1.9,1.6,4.3,2.5,6.8,2.5s4.9-.9,6.8-2.5l107.7-89.4v-129.9l-58.5-36.8h-170.6v166.7Z"/>
        <path id="Vector_125" class="cls-9" d="M928.7,702.4l-60.7-38.1,19.6,50.5,41-12.4Z"/>
        <path id="Vector_126" class="cls-18" d="M887.6,717.9c-.6,0-1.2-.2-1.7-.5-.5-.3-.9-.8-1.1-1.4l-19.7-50.6c-.2-.6-.3-1.2-.1-1.9.2-.6.5-1.2,1-1.6.5-.4,1.1-.6,1.8-.6s1.3.2,1.8.6l60.7,38.1c.5.3.9.8,1.1,1.3.2.5.3,1.1.3,1.7,0,.6-.3,1.1-.7,1.5-.4.4-.9.8-1.4.9l-41,12.4c-.3,0-.6,0-.9,0ZM874.2,671.7l15.3,39.4,32.1-9.7-47.4-29.8Z"/>
        <path id="Vector_127" class="cls-18" d="M858.7,826.6h13.8c-5,8.8-12.5,16-21.5,20.7-11.8,6-25,8.9-38.2,8.5-12.5.4-25-2.1-36.4-7.2-9.5-4.3-17.1-11.9-21.5-21.4-4.4-9.6-6.2-20.2-5.2-30.7.9-12.1,4.7-23.7,11.2-34,6.1-10.1,14.9-18.3,25.5-23.6,10.8-5.4,22.8-8.1,34.8-7.9,9.9-.2,19.7,2,28.6,6.4,7.8,3.9,14.2,10.3,18,18.1,3.9,7.9,5.5,16.8,4.7,25.6-.8,11.1-5.2,21.6-12.5,29.9-4,5.2-9.2,9.5-15.1,12.4-5.9,2.9-12.4,4.4-19,4.4-2.8.2-5.6-.4-8-1.8-.9-.7-1.6-1.5-2.2-2.5-.5-1-.9-2-1-3.1-4.9,4.7-11.5,7.3-18.3,7.4-3.3.1-6.5-.5-9.5-1.8-3-1.3-5.7-3.2-7.8-5.7-2.2-2.7-3.9-5.9-4.9-9.3s-1.2-7-.7-10.5c.8-10.1,4.5-19.8,10.7-27.9,3.1-4.6,7.2-8.4,12.1-11.1,4.9-2.7,10.3-4.1,15.9-4.2,3.3-.3,6.6.4,9.5,2,2.9,1.6,5.3,3.9,6.9,6.8l2.2-7.2h17.1l-13.4,46.5c-.8,3-1.2,4.8-1.3,5.6-.1.9,0,1.7.6,2.5.2.2.5.4.8.6s.6.2,1,.2c3.1-.4,6-1.7,8.3-3.7,4.9-3.5,8.9-8,11.8-13.2,3.1-5.3,5-11.1,5.6-17.2.5-4.9,0-9.8-1.7-14.4-1.6-4.6-4.3-8.8-7.8-12.3-4.2-3.8-9.2-6.7-14.6-8.6-5.4-1.9-11.1-2.6-16.8-2.2-10.6-.3-21.1,2.2-30.4,7.2-8.4,4.7-15.4,11.7-20,20.2-4.7,8.3-7.5,17.6-8.3,27.1-.8,8.6.9,17.3,5,25,4,7.4,10.4,13.2,18.2,16.4,8.9,3.6,18.4,5.3,27.9,5.1,9.2.2,18.4-1.2,27-4.3,7.3-2.5,13.9-6.8,19-12.6ZM790.5,799.9c-.7,4.2.2,8.5,2.5,12.1.9,1.2,2.1,2.2,3.5,2.9,1.4.7,2.9,1,4.4,1,2.5,0,4.9-.6,7.1-1.8,2-1,3.7-2.4,5.2-4.1,3-3.4,5.3-7.3,6.8-11.6,1.9-4.5,3.2-9.3,3.6-14.1.5-3.9-.4-7.9-2.6-11.2-1-1.3-2.2-2.3-3.7-3-1.4-.7-3-1-4.6-.9-4,0-7.8,1.6-10.7,4.3-3.7,3.3-6.5,7.6-8.1,12.3-1.8,4.4-3,9.1-3.5,13.8v.3Z"/>
        <path id="Vector_128" class="cls-18" d="M707.2,404.2v166.4c0,4.9-2,9.6-5.4,13.1s-8.2,5.4-13.1,5.4h-284.5c-4.9,0-9.6-1.9-13.1-5.4-3.5-3.5-5.4-8.2-5.4-13.1v-166.4c0-2.4.5-4.7,1.4-6.9,1.4-3.4,3.7-6.4,6.8-8.4,3.1-2.1,6.7-3.2,10.4-3.2h284.5c3.7,0,7.3,1.1,10.3,3.2,3.1,2.1,5.4,5,6.8,8.4.9,2.2,1.4,4.6,1.3,6.9Z"/>
        <path id="Vector_129" class="cls-1" d="M705.8,397.3l-151.9,126.1c-2.1,1.8-4.8,2.7-7.6,2.7s-5.4-1-7.6-2.7l-151.8-126c1.4-3.4,3.7-6.4,6.8-8.4,3.1-2.1,6.7-3.2,10.4-3.2h284.5c3.7,0,7.3,1.1,10.3,3.2,3.1,2.1,5.4,5,6.8,8.4Z"/>
        <path id="Vector_130" class="cls-12" d="M595.7,296.9h-150.8v148.2l94.2,78.2c2.1,1.8,4.8,2.8,7.6,2.8s5.5-1,7.6-2.8l94.3-78.2v-115.2l-52.8-33.1Z"/>
        <path id="Vector_131" class="cls-18" d="M546.4,528.7c-3.4,0-6.7-1.2-9.3-3.4l-94.2-78.2c-.3-.2-.5-.5-.7-.9-.2-.3-.2-.7-.2-1.1v-148.2c0-.7.3-1.4.8-1.9.5-.5,1.2-.8,1.9-.8h151.1c.5,0,1,.2,1.4.4l52.6,33c.4.2.7.6.9,1,.2.4.3.8.3,1.3v115.2c0,.4,0,.8-.3,1.1-.2.3-.4.7-.7.9l-94.2,78.2c-2.6,2.2-5.9,3.4-9.3,3.4ZM447.2,443.8l93.3,77.5c1.7,1.4,3.7,2.1,5.9,2.1s4.2-.8,5.9-2.1l93.3-77.5v-112.4l-50.7-31.8h-147.7v144.3Z"/>
        <path id="Vector_132" class="cls-9" d="M648.2,330l-52.6-33.1,17,43.8,35.6-10.7Z"/>
        <path id="Vector_133" class="cls-18" d="M612.7,343.4c-.5,0-1-.2-1.5-.5s-.8-.7-.9-1.2l-16.8-43.8c-.2-.5-.2-1.1,0-1.6.1-.5.5-1,.9-1.3.4-.3.9-.5,1.5-.6.5,0,1.1.1,1.6.4l52.6,33c.4.3.8.7,1,1.1.2.5.3,1,.2,1.5,0,.5-.3,1-.6,1.3s-.8.6-1.2.8l-35.5,10.8h-1.1ZM601,303.4l13.3,34.1,27.9-8.4-41.2-25.7Z"/>
        <path id="Vector_134" class="cls-18" d="M587.6,437.2h12c-4.4,7.6-10.8,13.8-18.7,17.9-10.2,5.2-21.6,7.7-33.1,7.4-10.8.3-21.6-1.8-31.5-6.3-8.2-3.7-14.9-10.3-18.7-18.5-3.8-8.3-5.3-17.5-4.5-26.6.8-10.5,4.2-20.6,9.8-29.4,5.3-8.7,12.9-15.8,22-20.4,9.4-4.7,19.7-7,30.2-6.9,8.6-.2,17.1,1.7,24.7,5.6,6.8,3.4,12.3,8.9,15.6,15.6,3.4,6.9,4.8,14.7,4.1,22.3-.7,9.6-4.5,18.7-10.8,25.9-3.5,4.5-7.9,8.2-13,10.8-5.1,2.5-10.7,3.9-16.5,3.9-2.4.2-4.8-.4-6.9-1.7-.7-.6-1.4-1.3-1.8-2.1-.5-.8-.8-1.7-.9-2.6-4.3,4.1-9.9,6.4-15.8,6.4-2.8.1-5.6-.4-8.2-1.5-2.6-1.1-4.9-2.8-6.8-4.9-1.9-2.4-3.4-5.1-4.2-8-.8-2.9-1.1-6-.7-9,.7-8.8,3.9-17.2,9.3-24.1,2.6-4,6.2-7.3,10.4-9.6,4.2-2.3,8.9-3.6,13.6-3.7,2.9-.2,5.7.4,8.2,1.7s4.6,3.4,6,5.9l1.9-6.3h14.9l-11.6,39.9c-.5,1.6-.9,3.2-1.2,4.9-.1.7,0,1.5.5,2.1.2.2.4.4.7.5.3.1.5.2.8.2,2.7-.4,5.2-1.5,7.2-3.2,4.2-3.1,7.7-7.1,10.2-11.6,2.6-4.5,4.1-9.6,4.6-14.8.4-4.2-.1-8.4-1.5-12.3-1.4-3.9-3.7-7.5-6.7-10.5-3.7-3.3-8-5.8-12.7-7.4-4.7-1.6-9.6-2.2-14.6-1.9-9.1-.2-18.2,1.9-26.2,6.2-7.3,4-13.3,10.1-17.3,17.5-4.1,7.2-6.6,15.2-7.2,23.5-.7,7.5.8,14.9,4.3,21.6,3.4,6.4,9,11.4,15.8,14.2,7.8,3.1,16.1,4.6,24.4,4.5,7.9.2,15.9-1.1,23.3-3.7,6.4-2.3,12-6.2,16.5-11.3ZM528.7,414.1c-.6,3.6,0,7.2,1.9,10.3.8,1.1,1.9,1.9,3.1,2.5,1.2.6,2.5.9,3.9.8,2.1,0,4.3-.5,6.1-1.6,1.7-.9,3.2-2.1,4.5-3.5,2.6-2.9,4.6-6.3,5.9-10,1.6-3.9,2.7-8.1,3.1-12.3.5-3.4-.3-6.9-2.2-9.7-.8-1.1-1.9-2-3.2-2.6-1.2-.6-2.6-.9-4-.8-3.4,0-6.7,1.4-9.3,3.7-3.2,3-5.5,6.8-6.8,11.1-1.6,3.8-2.6,7.9-3,12Z"/>
        <path id="Vector_135" class="cls-18" d="M980,534.9h-145.1v5.8h145.1v-5.8Z"/>
        <path id="Vector_136" class="cls-18" d="M1016.6,571.9h-102.1v5.8h102.1v-5.8Z"/>
        <path id="Vector_137" class="cls-18" d="M520.7,998.8h-94v5.8h94v-5.8Z"/>
        <path id="Vector_138" class="cls-18" d="M557.4,1035.7h-51v5.8h51v-5.8Z"/>
        <path id="Vector_139" class="cls-18" d="M477.7,711.9h-51v5.8h51v-5.8Z"/>
        <path id="Vector_140" class="cls-18" d="M808.2,534.9h-31.1v5.8h31.1v-5.8Z"/>
      </g>
    </g>
  </g>
</svg>