<?xml version="1.0" encoding="UTF-8"?>
<svg xmlns="http://www.w3.org/2000/svg" version="1.1" viewBox="0 0 2391 1770">
  <defs>
    <style>
      .cls-1 {
        fill: #e0e0e0;
      }

      .cls-2, .cls-3, .cls-4, .cls-5, .cls-6, .cls-7, .cls-8, .cls-9, .cls-10, .cls-11, .cls-12, .cls-13, .cls-14, .cls-15 {
        isolation: isolate;
      }

      .cls-2, .cls-10 {
        opacity: .1;
      }

      .cls-3, .cls-15 {
        opacity: .4;
      }

      .cls-4, .cls-16, .cls-7, .cls-14 {
        opacity: .5;
      }

      .cls-5, .cls-6, .cls-12 {
        opacity: .2;
      }

      .cls-17 {
        fill: #e6e6e6;
      }

      .cls-18 {
        fill: #ebebeb;
      }

      .cls-19, .cls-6, .cls-7 {
        fill: #263238;
      }

      .cls-20, .cls-8, .cls-9, .cls-10, .cls-11, .cls-12, .cls-13, .cls-14, .cls-15 {
        fill: #fff;
      }

      .cls-21 {
        fill: #f0f0f0;
      }

      .cls-22 {
        fill: #fafafa;
      }

      .cls-23 {
        fill: #ffc3bd;
      }

      .cls-24, .cls-13 {
        opacity: .6;
      }

      .cls-25, .cls-11 {
        opacity: .3;
      }

      .cls-26 {
        fill: #ebb376;
      }

      .cls-27 {
        fill: #f5f5f5;
      }

      .cls-28 {
        fill: #d4827d;
      }

      .cls-29 {
        fill: #d58745;
      }

      .cls-30 {
        fill: #0045b6;
      }

      .cls-31 {
        fill: #2e353a;
      }

      .cls-8 {
        opacity: .7;
      }

      .cls-9 {
        opacity: .8;
      }
    </style>
  </defs>
  <!-- Generator: Adobe Illustrator 28.6.0, SVG Export Plug-In . SVG Version: 1.2.0 Build 709)  -->
  <g>
    <g id="Layer_1">
      <path class="cls-18" d="M115.4,1475.5H6v.8h109.4v-.8Z"/>
      <path class="cls-18" d="M2151.3,1648.4h-158.4v1.2h158.4v-1.2Z"/>
      <path class="cls-18" d="M1583.8,1661.5h-41.6v1.2h41.6v-1.2Z"/>
      <path class="cls-18" d="M1988.2,1603.9h-91.8v1.2h91.8v-1.2Z"/>
      <path class="cls-18" d="M457.4,1612h-206.5v1.2h206.5v-1.2Z"/>
      <path class="cls-18" d="M530.2,1612h-30.3v1.2h30.3v-1.2Z"/>
      <path class="cls-18" d="M1076.6,1632.2h-448v1.2h448v-1.2Z"/>
      <path class="cls-18" d="M1133.3,1357.2H210c-7.2,0-14.2-2.9-19.3-8-5.1-5.1-8-12.1-8-19.4V27.2c0-7.2,3-14.1,8.1-19.2C195.9,2.9,202.8,0,210,0h923.3C1140.5,0,1147.5,2.9,1152.6,8c5.1,5.1,8,12.1,8,19.4v1302.4c0,7.3-2.9,14.2-8,19.4s-12.1,8-19.3,8ZM210,1c-6.9,0-13.6,2.8-18.4,7.7-4.9,4.9-7.6,11.6-7.7,18.5v1302.6c0,6.9,2.8,13.6,7.7,18.5,4.9,4.9,11.5,7.7,18.4,7.7h923.3c6.9,0,13.6-2.8,18.4-7.7,4.9-4.9,7.7-11.6,7.7-18.5V27.2c0-6.9-2.8-13.6-7.7-18.5-4.9-4.9-11.5-7.7-18.4-7.7H210Z"/>
      <path class="cls-18" d="M2167.6,1357.2h-923.4c-7.2,0-14.2-2.9-19.3-8-5.1-5.1-8-12.1-8-19.4V27.2c0-7.2,3-14.1,8.1-19.2,5.1-5.1,12-7.9,19.2-8h923.4c7.2,0,14.1,2.9,19.2,8,5.1,5.1,8,12,8.1,19.2v1302.6c0,7.3-2.9,14.2-8,19.3-5.1,5.1-12,8-19.2,8.1ZM1244.3,1c-6.9,0-13.6,2.8-18.4,7.7-4.9,4.9-7.7,11.6-7.7,18.5v1302.6c0,6.9,2.8,13.6,7.7,18.5,4.9,4.9,11.5,7.7,18.4,7.7h923.4c6.9,0,13.5-2.8,18.4-7.7,4.9-4.9,7.6-11.6,7.7-18.5V27.2c0-6.9-2.8-13.6-7.7-18.5-4.9-4.9-11.5-7.7-18.4-7.7h-923.4Z"/>
      <path class="cls-18" d="M2390.9,1571.2H0v1.2h2390.9v-1.2Z"/>
      <path class="cls-18" d="M2005.8,1022.2c0-3.4-.9-6.7-2.7-9.5-1.8-2.9-4.2-5.2-7.2-6.7,2.2,0,4.3-.9,5.8-2.5,1.5-1.6,2.4-3.7,2.3-5.9,0-2.2-.9-4.3-2.5-5.8-1.6-1.5-3.7-2.4-5.9-2.3,1.1,0,2.3,0,3.4-.4,1.1-.4,2.1-1,2.9-1.8.8-.8,1.5-1.7,2-2.8.4-1.1.7-2.2.7-3.3s-.2-2.3-.7-3.3c-.5-1.1-1.1-2-2-2.8s-1.8-1.4-2.9-1.8c-1.1-.4-2.2-.5-3.4-.4,2.2,0,4.3-.9,5.8-2.4,1.6-1.6,2.4-3.7,2.4-5.9s-.9-4.3-2.4-5.9c-1.5-1.6-3.7-2.4-5.8-2.4h-.6c9-23.5,15.2-82.1,15.8-105.6,1.3-58.5-10.5-232.8-23.4-232.8s-24.8,174.4-23.4,232.8c.5,23.3,6.8,81.9,15.8,105.6h-.6c-2.2,0-4.3.9-5.8,2.4-1.6,1.6-2.4,3.7-2.4,5.9s.9,4.3,2.4,5.9c1.6,1.6,3.7,2.4,5.8,2.4-2.1.2-4,1.1-5.5,2.6-1.4,1.5-2.2,3.6-2.2,5.7s.8,4.1,2.2,5.7c1.4,1.5,3.4,2.5,5.5,2.6-2.2,0-4.3.8-5.9,2.3-1.6,1.5-2.5,3.6-2.5,5.8,0,2.2.8,4.3,2.3,5.9,1.5,1.6,3.6,2.5,5.8,2.5-3,1.5-5.5,3.9-7.2,6.7-1.8,2.9-2.7,6.2-2.7,9.5s.5,4.8,1.4,7.1c.9,2.2,2.3,4.3,4,6,1.7,1.7,3.7,3.1,6,4,2.2.9,4.6,1.4,7,1.4s4.8-.5,7-1.4c2.2-.9,4.3-2.3,6-4,1.7-1.7,3.1-3.8,4-6,.9-2.2,1.4-4.6,1.4-7.1Z"/>
      <path class="cls-18" d="M2005.8,1484.8c0-3.4-.9-6.7-2.7-9.5-1.8-2.9-4.2-5.2-7.2-6.7-1.1-2.2-1.8-4.5-2-7-.2-2.4,0-4.9.8-7.2.8-2.3,2-4.5,3.6-6.3,1.6-1.8,3.6-3.4,5.7-4.4-2.2,0-4.3-.9-5.9-2.4-1.5-1.6-2.4-3.7-2.4-5.9s.9-4.3,2.4-5.9c1.6-1.6,3.7-2.4,5.9-2.4,0-1.1-.2-2.2-.6-3.2-.4-1-1-1.9-1.8-2.7-.8-.8-1.7-1.4-2.7-1.8-1-.4-2.1-.6-3.2-.6h-2.3c10.4-40,18.7-171.8,17.5-221.2-.5-24-7.1-84.7-16.5-107h1.3c2.2,0,4.3-.9,5.8-2.4,1.6-1.6,2.4-3.7,2.4-5.9s-.9-4.3-2.4-5.9c-1.5-1.6-3.7-2.4-5.8-2.4,1.1,0,2.3,0,3.4-.4,1.1-.4,2.1-1,2.9-1.8.8-.8,1.5-1.7,2-2.8.4-1.1.7-2.2.7-3.3s-.2-2.3-.7-3.3c-.5-1-1.1-2-2-2.8-.8-.8-1.8-1.4-2.9-1.8-1.1-.4-2.2-.5-3.4-.4,2.2,0,4.3-.9,5.8-2.4,1.6-1.6,2.4-3.7,2.4-5.9s-.9-4.3-2.4-5.9c-1.5-1.6-3.7-2.4-5.8-2.4h-16.5c-2.2,0-4.3.9-5.8,2.4s-2.4,3.7-2.4,5.9.9,4.3,2.4,5.9c1.6,1.6,3.7,2.4,5.8,2.4-2.1.2-4,1.1-5.5,2.7-1.4,1.5-2.2,3.6-2.2,5.7s.8,4.1,2.2,5.7c1.4,1.5,3.4,2.5,5.5,2.7-2.2,0-4.3.9-5.8,2.4-1.6,1.6-2.4,3.7-2.4,5.9s.9,4.3,2.4,5.9c1.6,1.6,3.7,2.4,5.8,2.4h1.3c-9.6,22.3-15.9,83.2-16.4,107-1.1,49.4,7.1,181.2,17.5,221.2h-2.3c2.2,4.4,2.6,9.5,1,14.2-1.5,4.7-4.9,8.5-9.3,10.7,2.1.2,4,1.1,5.5,2.6,1.4,1.5,2.2,3.6,2.2,5.7s-.8,4.1-2.2,5.7c-1.4,1.5-3.4,2.5-5.5,2.6,0,2.2.8,4.2,2.3,5.8s3.5,2.4,5.7,2.5c-3,1.5-5.5,3.9-7.2,6.7-1.8,2.9-2.7,6.2-2.7,9.5s.5,4.8,1.4,7.1c.9,2.2,2.3,4.3,4,6,1.7,1.7,3.7,3.1,6,4,2.2.9,4.6,1.4,7,1.4s4.8-.5,7-1.4c2.2-.9,4.3-2.3,6-4s3.1-3.8,4-6c.9-2.2,1.4-4.7,1.4-7.1Z"/>
      <path class="cls-18" d="M2060.2,1553.1h-64.5c-1.1-2.2-1.7-4.6-1.9-7-.2-2.4.1-4.9.9-7.2.8-2.3,2-4.5,3.6-6.3,1.6-1.8,3.5-3.3,5.7-4.4-1.1,0-2.3,0-3.4-.4-1.1-.4-2.1-1-2.9-1.8-.8-.8-1.5-1.7-2-2.8-.5-1-.7-2.2-.7-3.3s.2-2.3.7-3.3c.4-1.1,1.1-2,2-2.8.8-.8,1.8-1.4,2.9-1.8,1.1-.4,2.2-.5,3.4-.4,0-1.1-.2-2.2-.6-3.2-.4-1-1-1.9-1.8-2.7-.8-.8-1.7-1.4-2.7-1.8-1-.4-2.1-.6-3.2-.6h-16.5c2.2,4.4,2.5,9.5,1,14.2-1.6,4.7-4.9,8.5-9.3,10.8,2.2,0,4.3.9,5.8,2.4,1.5,1.5,2.4,3.7,2.4,5.9s-.9,4.3-2.4,5.9c-1.6,1.6-3.7,2.4-5.8,2.4,0,1.1.2,2.2.6,3.2.4,1,1,1.9,1.8,2.7.8.8,1.7,1.4,2.7,1.8,1,.4,2.1.6,3.2.6h-66.7c-5.5,0-10.9,2.2-14.8,6.2-3.9,3.9-6.1,9.3-6.1,14.8h189.6c0-5.6-2.2-10.9-6.1-14.8-3.9-3.9-9.2-6.2-14.8-6.2Z"/>
      <path class="cls-21" d="M2032.1,460.2h-91.6v188.3h91.6v-188.3Z"/>
      <path class="cls-1" d="M2009.1,668.2h-45.6c-4.4,0-8.8-1.3-12.5-3.8-3.7-2.5-6.6-6-8.2-10.1l-2.2-5.7h91.8l-2.3,5.7c-1.7,4.2-4.6,7.7-8.3,10.2-3.7,2.5-8.1,3.8-12.6,3.8Z"/>
      <path class="cls-21" d="M1917.5,668.2h-45.6c-4.4,0-8.8-1.3-12.5-3.8-3.7-2.5-6.6-6-8.2-10.1l-2.3-5.7h91.6l-2.3,5.7c-1.7,4.1-4.5,7.7-8.2,10.1-3.7,2.5-8,3.8-12.5,3.8Z"/>
      <path class="cls-21" d="M2100.7,668.2h-45.6c-4.4,0-8.8-1.3-12.5-3.8-3.7-2.5-6.6-6-8.2-10.1l-2.3-5.7h91.6l-2.3,5.7c-1.7,4.1-4.6,7.7-8.2,10.1-3.7,2.5-8,3.8-12.5,3.8Z"/>
      <path class="cls-1" d="M1940.5,648.5h-91.6l43.8-188.3h47.8v188.3Z"/>
      <path class="cls-1" d="M2032.1,648.5h91.6l-43.8-188.3h-47.8v188.3Z"/>
      <path class="cls-27" d="M1168.9,403.2V137.2h-344.4v266h344.4Z"/>
      <path class="cls-18" d="M1142.4,382.8v-225.1h-291.4v225.1h291.4Z"/>
      <path class="cls-22" d="M1124.2,368.7v-196.9h-254.9v196.9h254.9Z"/>
      <path class="cls-1" d="M931.1,288.9c13.5,0,24.5-11,24.5-24.6s-11-24.6-24.5-24.6-24.5,11-24.5,24.6,11,24.6,24.5,24.6Z"/>
      <path class="cls-17" d="M1001.2,339.5c8.7,0,15.8-7.1,15.8-15.8s-7.1-15.8-15.8-15.8-15.8,7.1-15.8,15.8,7.1,15.8,15.8,15.8Z"/>
      <path class="cls-21" d="M1043.1,301.5c29.2,0,52.8-23.7,52.8-53s-23.7-53-52.8-53-52.8,23.7-52.8,53,23.7,53,52.8,53Z"/>
      <path class="cls-27" d="M1374,207.3h-142.1v185.2h142.1v-185.2Z"/>
      <path class="cls-18" d="M1363.1,221.5h-120.2v156.7h120.2v-156.7Z"/>
      <path class="cls-22" d="M1341.8,249.3h-77.7v101.3h77.7v-101.3Z"/>
      <path class="cls-27" d="M710.1,393.2c35.8,0,64.8-42.6,64.8-95.3s-29-95.3-64.8-95.3-64.8,42.7-64.8,95.3,29,95.3,64.8,95.3Z"/>
      <path class="cls-18" d="M756.9,298c0,38-20.9,68.8-46.8,68.8s-46.8-30.8-46.8-68.8,21-68.8,46.8-68.8,46.8,30.8,46.8,68.8Z"/>
      <path class="cls-22" d="M710.1,346.6c18.3,0,33.1-21.8,33.1-48.7s-14.8-48.7-33.1-48.7-33.1,21.8-33.1,48.7,14.8,48.7,33.1,48.7Z"/>
      <path class="cls-27" d="M1172.4,1769.5c512,0,927.1-24.3,927.1-54.3s-415.1-54.3-927.1-54.3-927.1,24.3-927.1,54.3,415.1,54.3,927.1,54.3Z"/>
      <path class="cls-19" d="M514.6,1025.1h-2.4c-1.6,0-3.2-.7-4.4-1.8-1.2-1.2-1.8-2.8-1.8-4.4V467.4c0-1.7.7-3.2,1.8-4.4,1.2-1.2,2.7-1.8,4.4-1.8h2.4v563.9Z"/>
      <path class="cls-19" d="M1455.8,461.1h-941.2v563.9h941.2V461.1Z"/>
      <path class="cls-14" d="M1455.8,461.1h-941.2v563.9h941.2V461.1Z"/>
      <path class="cls-30" d="M530.1,1009.5h910.2V476.7h-910.2v532.8Z"/>
      <path class="cls-9" d="M530.1,1009.5h910.2V476.7h-910.2v532.8Z"/>
      <g id="tv-countdown">
        <path class="cls-5" d="M980.9,744.4v-114.2c-15,0-29.8,3-43.6,8.7-13.8,5.8-26.4,14.2-36.9,24.9l80.5,80.6Z"/>
        <path class="cls-20" d="M1384.4,740.1h-287.7c-1.1-29.4-13.2-57.2-34-78-20.7-20.8-48.5-32.9-77.7-34v-125.2h-8.6v125.2c-29.2,1.1-57,13.3-77.7,34-20.7,20.8-32.8,48.6-33.9,77.9h-287.5v8.6h287.7c1.1,29.3,13.2,57.2,33.9,77.9,20.7,20.8,48.4,32.9,77.7,34.1v125.2h8.5v-125.1c29.3-1.1,57-13.2,77.8-34,20.7-20.8,32.8-48.7,33.9-78h287.7v-8.6ZM1092.4,740.1h-9.8c-1.1-25.6-11.8-49.8-29.8-68-18.1-18.1-42.3-28.7-67.8-29.8v-9.9c28.1,1.1,54.8,12.8,74.7,32.7,19.9,20,31.6,46.7,32.7,74.9ZM976.6,740.1h-93.1c1.1-24.4,11.3-47.6,28.5-64.8,17.2-17.3,40.3-27.5,64.6-28.6v93.4ZM976.6,748.7v93.5c-24.4-1.1-47.4-11.3-64.7-28.6-17.2-17.3-27.4-40.5-28.5-64.9h93.1ZM985.2,748.7h93.1c-1.1,24.5-11.3,47.6-28.6,64.9-17.3,17.3-40.4,27.5-64.7,28.6v-93.5ZM985.2,740.1v-93.4c24.3,1.1,47.4,11.3,64.6,28.6,17.2,17.3,27.4,40.4,28.5,64.8h-93.1ZM976.6,632.4v9.9c-25.5,1.1-49.6,11.8-67.7,29.9-18,18.1-28.7,42.3-29.8,67.9h-9.6c1.1-28.2,12.7-54.9,32.6-74.8,19.8-19.9,46.4-31.7,74.5-32.8ZM869.3,748.7h9.6c1.1,25.6,11.7,49.8,29.8,67.9,18,18.1,42.2,28.8,67.7,29.9v9.9c-28.1-1.2-54.6-12.9-74.5-32.9-19.8-20-31.4-46.7-32.6-74.8ZM985,856.4v-9.9c25.5-1.1,49.7-11.7,67.8-29.9,18.1-18.1,28.7-42.4,29.8-68h9.8c-1.1,28.2-12.8,55-32.7,75-19.9,20-46.6,31.7-74.7,32.8Z"/>
        <path class="cls-19" d="M1022.2,776.2v19.5h-77.9v-15.5l39.8-37.7c3.4-3,6.3-6.5,8.6-10.5,1.4-2.7,2.2-5.6,2.2-8.6.1-1.8-.2-3.6-.9-5.3s-1.9-3.1-3.3-4.3c-3.6-2.5-7.9-3.6-12.3-3.3-4.2,0-8.4.8-12.2,2.6-3.7,1.8-6.8,4.4-9.1,7.8l-17.4-11.3c4.2-6.1,9.9-11,16.6-14.1,7.6-3.5,15.9-5.3,24.3-5.1,6.9-.2,13.7,1.1,20.1,3.7,5.4,2.2,10,5.9,13.4,10.7,3.2,4.8,4.9,10.4,4.8,16.2,0,5.5-1.1,10.9-3.5,15.8-3.5,6.4-8.2,12.1-13.7,16.9l-23.9,22.5h44.5Z"/>
        <g class="cls-25">
          <path class="cls-20" d="M1022.2,776.2v19.5h-77.9v-15.5l39.8-37.7c3.4-3,6.3-6.5,8.6-10.5,1.4-2.7,2.2-5.6,2.2-8.6.1-1.8-.2-3.6-.9-5.3s-1.9-3.1-3.3-4.3c-3.6-2.5-7.9-3.6-12.3-3.3-4.2,0-8.4.8-12.2,2.6-3.7,1.8-6.8,4.4-9.1,7.8l-17.4-11.3c4.2-6.1,9.9-11,16.6-14.1,7.6-3.5,15.9-5.3,24.3-5.1,6.9-.2,13.7,1.1,20.1,3.7,5.4,2.2,10,5.9,13.4,10.7,3.2,4.8,4.9,10.4,4.8,16.2,0,5.5-1.1,10.9-3.5,15.8-3.5,6.4-8.2,12.1-13.7,16.9l-23.9,22.5h44.5Z"/>
        </g>
      </g>
      <path class="cls-19" d="M891.2,1282.7h230.7v-8.6h-230.7v8.6Z"/>
      <path class="cls-19" d="M925.9,1276.6h-34.7c-3.1,0-6-1.2-8.2-3.4-2.2-2.2-3.4-5.2-3.4-8.2v-53.8c0-3.1,1.2-6.1,3.4-8.2,2.2-2.2,5.1-3.4,8.2-3.4h34.7v77.2Z"/>
      <path class="cls-10" d="M925.9,1276.6h-34.7c-3.1,0-6-1.2-8.2-3.4-2.2-2.2-3.4-5.2-3.4-8.2v-53.8c0-3.1,1.2-6.1,3.4-8.2,2.2-2.2,5.1-3.4,8.2-3.4h34.7v77.2Z"/>
      <path class="cls-19" d="M921.2,1276.6h196.8c6.4,0,11.6-5.2,11.6-11.7v-53.9c0-6.4-5.2-11.7-11.6-11.7h-196.8c-6.4,0-11.6,5.2-11.6,11.7v53.9c0,6.4,5.2,11.7,11.6,11.7Z"/>
      <path class="cls-11" d="M921.2,1276.6h196.8c6.4,0,11.6-5.2,11.6-11.7v-53.9c0-6.4-5.2-11.7-11.6-11.7h-196.8c-6.4,0-11.6,5.2-11.6,11.7v53.9c0,6.4,5.2,11.7,11.6,11.7Z"/>
      <path class="cls-5" d="M1019.7,1265.2c15,0,27.1-12.2,27.1-27.2s-12.1-27.2-27.1-27.2-27.1,12.2-27.1,27.2,12.1,27.2,27.1,27.2Z"/>
      <path class="cls-3" d="M1004.4,1238.2c0,3,.9,6,2.6,8.5,1.7,2.5,4.1,4.5,6.9,5.7s5.9,1.5,8.8.9c3-.6,5.7-2.1,7.9-4.2,2.1-2.1,3.6-4.9,4.2-7.9.6-3,.3-6.1-.9-8.9-1.2-2.8-3.1-5.2-5.6-6.9-2.5-1.7-5.5-2.6-8.5-2.6-4,0-7.9,1.6-10.8,4.5-2.9,2.9-4.5,6.8-4.5,10.8Z"/>
      <path class="cls-5" d="M1089.2,1265.2c15,0,27.1-12.2,27.1-27.2s-12.1-27.2-27.1-27.2-27.1,12.2-27.1,27.2,12.1,27.2,27.1,27.2Z"/>
      <path class="cls-3" d="M1073.9,1238.2c0,3,.9,6,2.6,8.5,1.7,2.5,4.1,4.5,6.9,5.7,2.8,1.2,5.9,1.5,8.8.9,3-.6,5.7-2.1,7.8-4.2s3.6-4.9,4.2-7.9c.6-3,.3-6.1-.9-8.9-1.2-2.8-3.1-5.2-5.6-6.9-2.5-1.7-5.5-2.6-8.5-2.6s-7.9,1.6-10.8,4.5-4.5,6.8-4.5,10.8Z"/>
      <path class="cls-5" d="M950.2,1265.2c15,0,27.1-12.2,27.1-27.2s-12.1-27.2-27.1-27.2-27.1,12.2-27.1,27.2,12.1,27.2,27.1,27.2Z"/>
      <path class="cls-3" d="M934.9,1238.2c0,3,.9,6,2.6,8.5,1.7,2.5,4.1,4.5,6.9,5.7s5.9,1.5,8.9.9c3-.6,5.7-2.1,7.8-4.2,2.1-2.1,3.6-4.9,4.2-7.9.6-3,.3-6.1-.9-8.9-1.2-2.8-3.1-5.2-5.7-6.9-2.5-1.7-5.5-2.6-8.5-2.6-4,0-7.9,1.6-10.8,4.5-2.9,2.9-4.5,6.8-4.5,10.8Z"/>
      <path class="cls-30" d="M487.3,1537.2h327.3v-232.8h-327.3v232.8Z"/>
      <path class="cls-9" d="M487.3,1537.2h327.3v-232.8h-327.3v232.8Z"/>
      <path class="cls-15" d="M733.2,1537.2h-90.6l-32.7-232.8h90.6l32.7,232.8Z"/>
      <path class="cls-15" d="M619.4,1537.2h-18l-32.7-232.8h18l32.7,232.8Z"/>
      <path class="cls-30" d="M1192.7,1537.2h327.3v-232.8h-327.3v232.8Z"/>
      <path class="cls-9" d="M1192.7,1537.2h327.3v-232.8h-327.3v232.8Z"/>
      <path class="cls-15" d="M1438.6,1537.2h-90.6l-32.7-232.8h90.6l32.7,232.8Z"/>
      <path class="cls-15" d="M1324.8,1537.2h-18.1l-32.7-232.8h18l32.7,232.8Z"/>
      <path class="cls-30" d="M838.4,1535.8h291.2v-229.8h-291.2v229.8Z"/>
      <path class="cls-12" d="M838.4,1535.8h291.2v-229.8h-291.2v229.8Z"/>
      <path class="cls-30" d="M1124,1293.2h58.6v242.5h-58.6v-242.5Z"/>
      <path class="cls-15" d="M1124,1293.2h58.6v242.5h-58.6v-242.5Z"/>
      <path class="cls-30" d="M410.4,1281.3h58.6v291.7h-58.6v-291.7Z"/>
      <path class="cls-11" d="M410.4,1281.3h58.6v291.7h-58.6v-291.7Z"/>
      <path class="cls-30" d="M1469.5,1546h62.9v27.1h-62.9v-27.1Z"/>
      <path class="cls-11" d="M1469.5,1546h62.9v27.1h-62.9v-27.1Z"/>
      <path class="cls-30" d="M1512.4,1535.8h15.2v-229.8h-15.2v229.8Z"/>
      <path class="cls-11" d="M1512.4,1535.8h15.2v-229.8h-15.2v229.8Z"/>
      <path class="cls-30" d="M806.6,1535.8h15.3v-229.8h-15.3v229.8Z"/>
      <path class="cls-11" d="M806.6,1535.8h15.3v-229.8h-15.3v229.8Z"/>
      <path class="cls-30" d="M465.8,1281.3v291.7h23.9v-16.4h1037.8v16.4h23.9v-291.7H465.8ZM1199.5,1307.8h328v222.5h-328v-222.5ZM1175.6,1307.8v101.3h-331v-101.3h331ZM844.6,1530.3v-106.2h331v106.2h-331ZM489.6,1307.8h331.1v222.5h-331.1v-222.5Z"/>
      <path class="cls-8" d="M465.8,1281.3v291.7h23.9v-16.4h1037.8v16.4h23.9v-291.7H465.8ZM1199.5,1307.8h328v222.5h-328v-222.5ZM1175.6,1307.8v101.3h-331v-101.3h331ZM844.6,1530.3v-106.2h331v106.2h-331ZM489.6,1307.8h331.1v222.5h-331.1v-222.5Z"/>
      <path class="cls-30" d="M1232.4,1400.1h9.6c3.8,0,7.5,1.5,10.1,4.2,2.7,2.7,4.2,6.4,4.2,10.2s-1.5,7.5-4.2,10.2c-2.7,2.7-6.3,4.2-10.1,4.2h-9.6c-3.8,0-7.5-1.5-10.2-4.2-2.7-2.7-4.2-6.4-4.2-10.2s1.5-7.5,4.2-10.2c2.7-2.7,6.3-4.2,10.2-4.2Z"/>
      <path class="cls-30" d="M1242.1,1400.1c-2.8,0-5.6.9-8,2.4-2.3,1.6-4.2,3.8-5.3,6.5-1.1,2.6-1.4,5.5-.8,8.3.6,2.8,1.9,5.4,3.9,7.4s4.6,3.4,7.4,3.9c2.8.6,5.7.3,8.3-.8,2.6-1.1,4.9-2.9,6.4-5.3,1.6-2.4,2.4-5.2,2.4-8s-1.5-7.5-4.2-10.2c-2.7-2.7-6.3-4.2-10.2-4.2Z"/>
      <path class="cls-13" d="M1242.1,1400.1c-2.8,0-5.6.9-8,2.4-2.3,1.6-4.2,3.8-5.3,6.5-1.1,2.6-1.4,5.5-.8,8.3.6,2.8,1.9,5.4,3.9,7.4s4.6,3.4,7.4,3.9c2.8.6,5.7.3,8.3-.8,2.6-1.1,4.9-2.9,6.4-5.3,1.6-2.4,2.4-5.2,2.4-8s-1.5-7.5-4.2-10.2c-2.7-2.7-6.3-4.2-10.2-4.2Z"/>
      <path class="cls-30" d="M778.2,1400.1h9.6c3.8,0,7.5,1.5,10.1,4.2,2.7,2.7,4.2,6.4,4.2,10.2s-1.5,7.5-4.2,10.2c-2.7,2.7-6.3,4.2-10.1,4.2h-9.6c-3.8,0-7.5-1.5-10.1-4.2-2.7-2.7-4.2-6.4-4.2-10.2s1.5-7.5,4.2-10.2c2.7-2.7,6.3-4.2,10.1-4.2Z"/>
      <path class="cls-13" d="M787.8,1400.1c-2.8,0-5.6.9-8,2.4s-4.2,3.8-5.3,6.5-1.4,5.5-.8,8.3c.6,2.8,1.9,5.4,3.9,7.4,2,2,4.6,3.4,7.3,3.9,2.8.6,5.7.3,8.3-.8,2.6-1.1,4.9-2.9,6.4-5.3,1.6-2.4,2.4-5.2,2.4-8s-1.5-7.5-4.2-10.2c-2.7-2.7-6.3-4.2-10.1-4.2Z"/>
      <path class="cls-19" d="M1618.8,1556.9h-31.5v16.8h31.5v-16.8Z"/>
      <path class="cls-19" d="M1658.2,1556.9h-51.6v16.8h51.6v-16.8Z"/>
      <path class="cls-10" d="M1658.2,1556.9h-51.6v16.8h51.6v-16.8Z"/>
      <path class="cls-19" d="M1638.2,1532.5h-32.5v24.3h32.5v-24.3Z"/>
      <path class="cls-19" d="M1622,1533.7h-15.8c-5.1,0-9.9-2-13.5-5.6-3.6-3.6-5.6-8.5-5.6-13.6v-624c0-5.1,2-10,5.6-13.6,3.6-3.6,8.4-5.6,13.5-5.6h15.8v662.4Z"/>
      <path class="cls-10" d="M1622,1533.7h-15.8c-5.1,0-9.9-2-13.5-5.6-3.6-3.6-5.6-8.5-5.6-13.6v-624c0-5.1,2-10,5.6-13.6,3.6-3.6,8.4-5.6,13.5-5.6h15.8v662.4Z"/>
      <path class="cls-19" d="M1639.2,871.6h-13.8c-10.5,0-18.9,8.5-18.9,19v624.2c0,10.5,8.5,19,18.9,19h13.8c10.5,0,18.9-8.5,18.9-19v-624.2c0-10.5-8.5-19-18.9-19Z"/>
      <path class="cls-12" d="M1639.2,871.6h-13.8c-10.5,0-18.9,8.5-18.9,19v624.2c0,10.5,8.5,19,18.9,19h13.8c10.5,0,18.9-8.5,18.9-19v-624.2c0-10.5-8.5-19-18.9-19Z"/>
      <path class="cls-5" d="M1611.4,911.3c0,4.2,1.2,8.3,3.6,11.8,2.3,3.5,5.6,6.2,9.5,7.8,3.9,1.6,8.1,2,12.2,1.2,4.1-.8,7.9-2.8,10.8-5.8,2.9-3,5-6.7,5.8-10.9.8-4.1.4-8.4-1.2-12.3-1.6-3.9-4.3-7.2-7.8-9.5-3.5-2.3-7.6-3.6-11.7-3.6-2.8,0-5.5.5-8.1,1.6-2.6,1.1-4.9,2.6-6.9,4.6-2,2-3.5,4.3-4.6,6.9-1.1,2.6-1.6,5.3-1.6,8.1Z"/>
      <path class="cls-3" d="M1620.4,911.3c0,2.4.7,4.7,2,6.6,1.3,2,3.2,3.5,5.4,4.4,2.2.9,4.6,1.1,6.9.7,2.3-.5,4.4-1.6,6.1-3.3,1.7-1.7,2.8-3.8,3.3-6.1s.2-4.7-.7-6.9c-.9-2.2-2.4-4-4.4-5.4-2-1.3-4.3-2-6.6-2s-6.2,1.3-8.4,3.5c-2.2,2.2-3.5,5.3-3.5,8.4Z"/>
      <path class="cls-5" d="M1611.4,1043.5c0,4.2,1.2,8.3,3.6,11.8,2.3,3.5,5.6,6.2,9.5,7.8,3.9,1.6,8.1,2,12.2,1.2,4.1-.8,7.9-2.8,10.8-5.8,2.9-3,5-6.8,5.8-10.9.8-4.1.4-8.4-1.2-12.3-1.6-3.9-4.3-7.2-7.8-9.5-3.5-2.3-7.6-3.6-11.7-3.6s-11,2.2-14.9,6.2c-4,4-6.2,9.4-6.2,15Z"/>
      <path class="cls-3" d="M1620.4,1043.5c0,2.4.7,4.7,2,6.6,1.3,2,3.2,3.5,5.4,4.4,2.2.9,4.6,1.1,6.9.7,2.3-.5,4.4-1.6,6.1-3.3,1.7-1.7,2.8-3.8,3.3-6.1.5-2.3.2-4.7-.7-6.9-.9-2.2-2.4-4-4.4-5.4-2-1.3-4.3-2-6.6-2s-3.1.3-4.6.9c-1.5.6-2.8,1.5-3.9,2.6-1.1,1.1-2,2.4-2.6,3.9-.6,1.4-.9,3-.9,4.6Z"/>
      <path class="cls-5" d="M1632.3,1196.9c11.7,0,21.1-9.5,21.1-21.2s-9.5-21.2-21.1-21.2-21.1,9.5-21.1,21.2,9.5,21.2,21.1,21.2Z"/>
      <path class="cls-3" d="M1620.4,1175.8c0,2.4.7,4.7,2,6.6,1.3,2,3.2,3.5,5.4,4.4,2.2.9,4.6,1.1,6.9.7,2.3-.5,4.4-1.6,6.1-3.3,1.7-1.7,2.8-3.8,3.3-6.1.5-2.3.2-4.7-.7-6.9-.9-2.2-2.4-4-4.4-5.4-2-1.3-4.3-2-6.6-2s-3.1.3-4.6.9c-1.5.6-2.8,1.5-3.9,2.6-1.1,1.1-2,2.4-2.6,3.9-.6,1.5-.9,3-.9,4.6Z"/>
      <path class="cls-19" d="M335.1,1556.9h-31.5v16.8h31.5v-16.8Z"/>
      <path class="cls-19" d="M374.5,1556.9h-51.6v16.8h51.6v-16.8Z"/>
      <path class="cls-10" d="M374.5,1556.9h-51.6v16.8h51.6v-16.8Z"/>
      <path class="cls-19" d="M354.6,1532.5h-32.5v24.3h32.5v-24.3Z"/>
      <path class="cls-19" d="M338.4,1533.7h-15.8c-5.1,0-9.9-2-13.5-5.6s-5.6-8.5-5.6-13.6v-624c0-5.1,2-10,5.6-13.6,3.6-3.6,8.5-5.6,13.5-5.6h15.8v662.4Z"/>
      <path class="cls-10" d="M338.4,1533.7h-15.8c-5.1,0-9.9-2-13.5-5.6s-5.6-8.5-5.6-13.6v-624c0-5.1,2-10,5.6-13.6,3.6-3.6,8.5-5.6,13.5-5.6h15.8v662.4Z"/>
      <path class="cls-19" d="M355.6,871.6h-13.8c-10.5,0-18.9,8.5-18.9,19v624.2c0,10.5,8.5,19,18.9,19h13.8c10.5,0,18.9-8.5,18.9-19v-624.2c0-10.5-8.5-19-18.9-19Z"/>
      <path class="cls-12" d="M355.6,871.6h-13.8c-10.5,0-18.9,8.5-18.9,19v624.2c0,10.5,8.5,19,18.9,19h13.8c10.5,0,18.9-8.5,18.9-19v-624.2c0-10.5-8.5-19-18.9-19Z"/>
      <path class="cls-5" d="M327.5,911.3c0,4.2,1.2,8.3,3.6,11.8,2.3,3.5,5.6,6.2,9.5,7.8,3.9,1.6,8.1,2,12.2,1.2,4.1-.8,7.9-2.8,10.8-5.8,3-3,5-6.7,5.8-10.9.8-4.1.4-8.4-1.2-12.3-1.6-3.9-4.3-7.2-7.8-9.5-3.5-2.3-7.6-3.6-11.7-3.6-2.8,0-5.5.5-8.1,1.6-2.6,1.1-4.9,2.6-6.9,4.6-2,2-3.5,4.3-4.6,6.9s-1.6,5.3-1.6,8.1Z"/>
      <path class="cls-3" d="M336.8,911.3c0,2.4.7,4.7,2,6.6,1.3,2,3.2,3.5,5.3,4.4,2.2.9,4.6,1.1,6.9.7,2.3-.5,4.4-1.6,6.1-3.3,1.7-1.7,2.8-3.8,3.3-6.1.5-2.3.2-4.7-.7-6.9-.9-2.2-2.4-4-4.4-5.4-2-1.3-4.3-2-6.6-2-3.2,0-6.2,1.3-8.4,3.5-2.2,2.2-3.5,5.3-3.5,8.4Z"/>
      <path class="cls-5" d="M327.5,1043.5c0,4.2,1.3,8.3,3.6,11.8,2.3,3.5,5.6,6.2,9.5,7.8,3.9,1.6,8.1,2,12.2,1.2,4.1-.8,7.9-2.9,10.8-5.8,2.9-3,4.9-6.8,5.8-10.9.8-4.1.4-8.4-1.2-12.2-1.6-3.9-4.3-7.2-7.8-9.5-3.5-2.3-7.6-3.6-11.7-3.6s-5.5.5-8.1,1.6c-2.6,1.1-4.9,2.6-6.9,4.6-2,2-3.5,4.3-4.6,6.9-1.1,2.6-1.6,5.4-1.6,8.2Z"/>
      <path class="cls-3" d="M336.8,1043.5c0,2.4.6,4.7,1.9,6.7,1.3,2,3.1,3.6,5.3,4.5,2.2.9,4.6,1.2,6.9.8,2.3-.4,4.5-1.6,6.2-3.2,1.7-1.7,2.8-3.8,3.3-6.1.5-2.3.3-4.7-.6-6.9-.9-2.2-2.4-4.1-4.4-5.4-2-1.3-4.3-2-6.6-2s-6.1,1.2-8.3,3.4c-2.2,2.2-3.5,5.2-3.6,8.3Z"/>
      <path class="cls-5" d="M327.5,1175.8c0,4.2,1.2,8.3,3.5,11.8,2.3,3.5,5.6,6.2,9.5,7.8,3.9,1.6,8.1,2,12.2,1.2,4.1-.8,7.9-2.8,10.8-5.8,3-3,5-6.8,5.8-10.9.8-4.1.4-8.4-1.2-12.3-1.6-3.9-4.3-7.2-7.8-9.5-3.5-2.3-7.6-3.6-11.7-3.6s-11,2.2-14.9,6.2c-4,4-6.2,9.3-6.2,15Z"/>
      <path class="cls-3" d="M336.8,1175.8c0,2.4.7,4.7,2,6.6,1.3,2,3.2,3.5,5.3,4.4,2.2.9,4.6,1.1,6.9.7,2.3-.5,4.4-1.6,6.1-3.3,1.7-1.7,2.8-3.8,3.3-6.1.5-2.3.2-4.7-.7-6.9-.9-2.2-2.4-4-4.4-5.4-2-1.3-4.3-2-6.6-2s-6.2,1.3-8.4,3.5c-2.2,2.2-3.5,5.3-3.5,8.5Z"/>
      <path class="cls-19" d="M565,1270.7v-132.7c0-6.4-5.2-11.7-11.6-11.7h-53.7c-6.4,0-11.6,5.2-11.6,11.7v132.7c0,6.4,5.2,11.7,11.6,11.7h53.7c6.4,0,11.6-5.2,11.6-11.7Z"/>
      <path class="cls-10" d="M565,1270.7v-132.7c0-6.4-5.2-11.7-11.6-11.7h-53.7c-6.4,0-11.6,5.2-11.6,11.7v132.7c0,6.4,5.2,11.7,11.6,11.7h53.7c6.4,0,11.6-5.2,11.6-11.7Z"/>
      <path class="cls-19" d="M582.2,1270.7v-132.7c0-6.4-5.2-11.7-11.6-11.7h-53.7c-6.4,0-11.6,5.2-11.6,11.7v132.7c0,6.4,5.2,11.7,11.6,11.7h53.7c6.4,0,11.6-5.2,11.6-11.7Z"/>
      <path class="cls-11" d="M582.2,1270.7v-132.7c0-6.4-5.2-11.7-11.6-11.7h-53.7c-6.4,0-11.6,5.2-11.6,11.7v132.7c0,6.4,5.2,11.7,11.6,11.7h53.7c6.4,0,11.6-5.2,11.6-11.7Z"/>
      <path class="cls-5" d="M543.7,1266.3c15,0,27.1-12.2,27.1-27.2s-12.1-27.2-27.1-27.2-27.1,12.2-27.1,27.2,12.1,27.2,27.1,27.2Z"/>
      <path class="cls-3" d="M543.7,1254.5c8.5,0,15.3-6.9,15.3-15.4s-6.9-15.4-15.3-15.4-15.3,6.9-15.3,15.4,6.9,15.4,15.3,15.4Z"/>
      <path class="cls-5" d="M543.7,1196.6c15,0,27.1-12.2,27.1-27.2s-12.1-27.2-27.1-27.2-27.1,12.2-27.1,27.2,12.1,27.2,27.1,27.2Z"/>
      <path class="cls-3" d="M543.7,1184.8c3,0,6-.9,8.5-2.6,2.5-1.7,4.5-4.1,5.6-6.9,1.2-2.8,1.5-5.9.9-8.9-.6-3-2-5.7-4.2-7.9-2.1-2.2-4.9-3.6-7.8-4.2-3-.6-6-.3-8.8.9-2.8,1.2-5.2,3.1-6.9,5.7-1.7,2.5-2.6,5.5-2.6,8.5,0,4.1,1.6,8,4.5,10.8,2.9,2.9,6.8,4.5,10.8,4.5Z"/>
      <path class="cls-19" d="M1461.3,1270.6v-132.7c0-6.4-5.2-11.7-11.6-11.7h-53.7c-6.4,0-11.6,5.2-11.6,11.7v132.7c0,6.4,5.2,11.7,11.6,11.7h53.7c6.4,0,11.6-5.2,11.6-11.7Z"/>
      <path class="cls-10" d="M1461.3,1270.6v-132.7c0-6.4-5.2-11.7-11.6-11.7h-53.7c-6.4,0-11.6,5.2-11.6,11.7v132.7c0,6.4,5.2,11.7,11.6,11.7h53.7c6.4,0,11.6-5.2,11.6-11.7Z"/>
      <path class="cls-19" d="M1478.6,1270.6v-132.7c0-6.4-5.2-11.7-11.6-11.7h-53.7c-6.4,0-11.6,5.2-11.6,11.7v132.7c0,6.4,5.2,11.7,11.6,11.7h53.7c6.4,0,11.6-5.2,11.6-11.7Z"/>
      <path class="cls-11" d="M1478.6,1270.6v-132.7c0-6.4-5.2-11.7-11.6-11.7h-53.7c-6.4,0-11.6,5.2-11.6,11.7v132.7c0,6.4,5.2,11.7,11.6,11.7h53.7c6.4,0,11.6-5.2,11.6-11.7Z"/>
      <path class="cls-5" d="M1440.1,1266.3c15,0,27.1-12.2,27.1-27.2s-12.1-27.2-27.1-27.2-27.1,12.2-27.1,27.2,12.1,27.2,27.1,27.2Z"/>
      <path class="cls-3" d="M1440.1,1254.5c3,0,6-.9,8.5-2.6,2.5-1.7,4.5-4.1,5.7-6.9,1.2-2.8,1.5-5.9.9-8.9-.6-3-2-5.7-4.2-7.9-2.1-2.2-4.9-3.6-7.8-4.2-3-.6-6.1-.3-8.8.9-2.8,1.2-5.2,3.1-6.9,5.6-1.7,2.5-2.6,5.5-2.6,8.5s1.6,8,4.5,10.8,6.7,4.5,10.8,4.5Z"/>
      <path class="cls-5" d="M1440.1,1196.6c15,0,27.1-12.2,27.1-27.2s-12.1-27.2-27.1-27.2-27.1,12.2-27.1,27.2,12.1,27.2,27.1,27.2Z"/>
      <path class="cls-3" d="M1440.1,1184.8c3,0,6-.9,8.5-2.6,2.5-1.7,4.5-4.1,5.7-6.9,1.2-2.8,1.5-5.9.9-8.9-.6-3-2-5.7-4.2-7.9-2.1-2.2-4.9-3.6-7.8-4.2-3-.6-6.1-.3-8.8.9-2.8,1.2-5.2,3.1-6.9,5.7-1.7,2.5-2.6,5.5-2.6,8.5s1.6,8,4.5,10.8,6.7,4.5,10.8,4.5Z"/>
      <path class="cls-19" d="M878.5,1408.5h256.4v-9.6h-256.4v9.6Z"/>
      <path class="cls-19" d="M865.6,1401.8h38.6v-51.2h-38.6v51.2Z"/>
      <path class="cls-10" d="M865.6,1401.8h38.6v-51.2h-38.6v51.2Z"/>
      <path class="cls-19" d="M899.1,1401.8h244.5v-51.2h-244.5v51.2Z"/>
      <path class="cls-11" d="M899.1,1401.8h244.5v-51.2h-244.5v51.2Z"/>
      <path class="cls-7" d="M978.6,1387.5h150v-25.4h-150v25.4Z"/>
      <path class="cls-6" d="M957.9,1378.6h16.4v-7.5h-16.4v7.5Z"/>
      <path class="cls-12" d="M934.8,1378.6h16.4v-7.5h-16.4v7.5Z"/>
      <path class="cls-7" d="M911.8,1378.6h16.4v-7.5h-16.4v7.5Z"/>
      <g id="arm-remote">
        <path class="cls-26" d="M1730.1,589c-.2-1.2-.6-2.3-1.3-3.2-.7-1-1.5-1.8-2.5-2.4-1-.6-2.1-1-3.3-1.1-1.2-.1-2.3,0-3.4.4-8.8,3-23.2,12.5-38,41.5-23.9,46.4-43.8,93.9-43.8,93.9l-87.7-49.3-21.9-19.2-28.7,6.3c-1.3.3-2.5.9-3.6,1.7-1,.9-1.8,2-2.4,3.2s-.7,2.6-.6,3.9c0,1.3.5,2.6,1.2,3.8l10.6,17c.8,1.3,2,2.4,3.4,3.1,1.4.7,3,1,4.5.8l28.7-2.8s72.3,80,103.7,80,80-121.8,80-121.8c0,0,8.4-34.8,5.1-55.8Z"/>
        <path class="cls-19" d="M1485.2,601.5l11.8-5.2,35.5,81.6-11.9,5.3c-.7.3-1.5.5-2.2.5-.8,0-1.5-.1-2.3-.4-.7-.3-1.4-.7-1.9-1.3-.6-.5-1-1.2-1.3-1.9l-30.5-70.7c-.3-.7-.5-1.5-.6-2.3s0-1.6.3-2.3c.3-.7.7-1.4,1.2-2,.5-.6,1.2-1,1.9-1.4Z"/>
        <path class="cls-19" d="M1524.4,681.7l11.9-5.2c3-1.3,4.4-4.8,3.1-7.8l-30.7-70.8c-1.3-3-4.8-4.4-7.8-3.1l-11.9,5.2c-3,1.3-4.4,4.8-3.1,7.8l30.7,70.8c1.3,3,4.8,4.4,7.8,3.1Z"/>
      </g>
      <path class="cls-26" d="M1762.3,1563.6l13.3,115h33.1l1.7-115h-48.1Z"/>
      <path class="cls-19" d="M1775,1663.3l36.2-.5c.7,0,1.3.2,1.8.6.5.4.9,1,1,1.6l7,29.5c.2.6.2,1.3,0,1.9,0,.6-.3,1.2-.6,1.8-.3.5-.8,1-1.3,1.4-.5.4-1.1.6-1.7.8h-1c-13.1,0-24.7-.6-40.9-.3-19.1.3-14.4,2.5-36.8,3.2-13.6.4-16.3-15.1-10.5-15.9,26.3-3.8,28.9-11.8,38.9-21.4,2.2-1.8,5-2.7,7.8-2.6Z"/>
      <path class="cls-26" d="M1931.3,1563.6l28.5,104.9,32.6-4.4-12.9-100.4h-48.2Z"/>
      <path class="cls-19" d="M1957.9,1658.9l35.9-4.5c.7,0,1.3,0,1.9.4.6.3,1,.9,1.2,1.5l10.2,28.5c.2.6.3,1.2.3,1.9,0,.7-.2,1.3-.5,1.9-.3.6-.6,1.1-1.1,1.5-.5.4-1,.8-1.6,1l-1,.2c-13,1.4-24.6,2.2-40.7,4.2-19.1,2.4-13.9,4.1-36.2,7.2-13.5,1.9-17.9-13.2-12.2-14.6,25.7-6.6,27.4-14.9,36.4-25.6,2-2.1,4.6-3.4,7.5-3.6Z"/>
      <path class="cls-30" d="M1696.3,857.7c21.1,354.8,17.3,405.5,71.2,771.6l45.7-2c2.7-143.7,6.5-208.3,2.1-252.7-3.1-30.5-13.2-52.2-13.3-87.3,0-22.3,6.1-37.4,11.4-88.4,6-57.3,11-131.8,5.4-189.3,0,0,44.6-58.8,35.5-148.8l-158.1-3.2Z"/>
      <path class="cls-30" d="M1816.8,1615.8l-.2,14.8-51.3,2.5-2.8-14.5,54.3-2.8Z"/>
      <path class="cls-14" d="M1816.8,1615.8l-.2,14.8-51.3,2.5-2.8-14.5,54.3-2.8Z"/>
      <path class="cls-5" d="M1762.6,942.4l58.6,49.6s.6,4.4,1.6,11.9c-2.4,3.8-3.9,5.8-3.9,5.8,5.6,57.6.5,132-5.4,189.3-37.4-161.8-50.8-256.6-50.8-256.6Z"/>
      <path class="cls-19" d="M1738.2,426s-23.9,44.7-18.1,68.1c5.8,23.3,13,32.6,5.3,57.6-7.6,25-9.6,48.3,12.8,42.4,22.3-6,60-39.7,60-39.7l4.8-72v-52.8l-17.3-11.5-31.3,4.6-16.2,3.4Z"/>
      <path class="cls-5" d="M1738.2,426s-23.9,44.7-18.1,68.1c5.8,23.3,13,32.6,5.3,57.6-7.6,25-9.6,48.3,12.8,42.4,22.3-6,60-39.7,60-39.7l4.8-72v-52.8l-17.3-11.5-31.3,4.6-16.2,3.4Z"/>
      <path class="cls-30" d="M1731.6,860l48.5,153.6,78.4,285.5,84,318.7,47.4-3.4s-10.3-166.2-34.9-268.8c-6.9-28.8-14.3-50.7-19.1-66.6-6.3-20.1-5.5-39.8-8.7-89.4-3.2-49.6-16.3-107.9-15-168.2.9-40,11.8-73.2-33-157.6l-147.8-3.8Z"/>
      <path class="cls-19" d="M1885.2,592.2c-17.3,56.9-24.9,116.2-22.5,175.6,1.1,30.4,19.1,97.2,19.1,97.2,0,0-68.4,33-187.4-5.1.2-42.3-5.2-84.5-16-125.4-5.4-20.3-9.2-43.5,5.1-83.9,6.5-18.3,5.9-49.8,33.5-67.2,1.7-1,3.6-1.6,5.6-1.8,21-1.7,141.8-11.1,162.7,10.6Z"/>
      <path class="cls-4" d="M1812.3,600.2l20.3-17.9,3-3c12.2.6,24.3,2.5,36.2,5.8-9.9,2.3-39.2,10.2-43.9,24-5.6,16.5-23.9,22.5-28.3-4.8l12.7-4Z"/>
      <path class="cls-30" d="M1992.9,1607.3l.3,14.4-52.1,4.8-4.4-14.6,56.2-4.6Z"/>
      <path class="cls-14" d="M1992.9,1607.3l.3,14.4-52.1,4.8-4.4-14.6,56.2-4.6Z"/>
      <path class="cls-26" d="M1754.9,615.1c-31-2.4-19.1-24-11-34.9,27.7-1.9,55.5-2.4,83.3-1.4-11,12-39.6,38.8-72.3,36.3Z"/>
      <path class="cls-19" d="M1704,907.7c.6.9,1.4,1.6,2.4,2.1.9.5,2,.8,3.1.8h.8c9.1-1.1,20-22.2,23.9-30.7,2.6,8.3,10.8,31.5,20,34.5.7.2,1.4.4,2.1.4,1.6,0,3.1-.6,4.3-1.5.8-.6,1.5-1.4,1.9-2.3.4-.9.7-1.9.7-2.9.2-8.5-19.1-26.8-26.3-33.2-.7-.7-1.7-1.1-2.6-1.2s-2,.2-2.8.7c-7.6,5.1-27.4,19.2-29,27.8-.2,1-.1,2,.2,2.9.2,1,.7,1.9,1.3,2.6ZM1741.7,885.6c8.2,7.8,16.8,17.6,16.6,22.3,0,.2,0,.5-.1.7,0,.2-.2.4-.4.6-.3.2-.6.4-.9.4-.3,0-.7,0-1,0-4.3-1.4-10-13-14.2-24ZM1707.8,903c.9-4.8,10.2-13,19.1-19.2-5.6,10.5-12.8,21.3-17.1,21.8-.3,0-.9,0-1.7-.9-.2-.2-.3-.5-.4-.8,0-.3,0-.6,0-.9Z"/>
      <path class="cls-12" d="M1524.4,681.7l11.9-5.2c3-1.3,4.4-4.8,3.1-7.8l-30.7-70.8c-1.3-3-4.8-4.4-7.8-3.1l-11.9,5.2c-3,1.3-4.4,4.8-3.1,7.8l30.7,70.8c1.3,3,4.8,4.4,7.8,3.1Z"/>
      <path class="cls-26" d="M1818.2,574.9l-7.1,8.7-5.2.8-42.3,8.2-5.3-8.2-9.3-2.8-.4-1.4c9.1-2,17.1-7.3,22.5-14.8,5.5-7.5,8-16.8,7.2-26.1l45-28.8c-6.3,20.9-8,42.8-5.1,64.5Z"/>
      <path class="cls-2" d="M1777.6,550.1c.8-3.5,1-7.2.7-10.8l39-25.1,1.2,1.4s-11,34.1-40.9,34.5Z"/>
      <path class="cls-26" d="M1833.8,458c-3.8,35.7-4.8,50.9-23.4,68.4-28.3,26.4-71.2,14-78.1-22.1-6.3-32.5.9-85.4,36.4-98.1,7.8-2.8,16.2-3.6,24.4-2.3,8.2,1.3,15.9,4.8,22.5,10,6.5,5.2,11.6,12,14.8,19.7,3.2,7.7,4.3,16.1,3.4,24.4Z"/>
      <path class="cls-29" d="M1754.9,469.5c-2.8,6.6-6.6,12.7-11.1,18.2,1.4,1.1,3.1,1.9,4.8,2.4,1.8.4,3.6.5,5.4,0l.9-20.6Z"/>
      <path class="cls-31" d="M1793.2,451.8c.2,0,.5-.2.7-.3.1-.1.2-.3.3-.4,0-.2.1-.4.1-.5s0-.4-.1-.5c0-.2-.2-.3-.3-.4-1.6-2.1-3.8-3.7-6.2-4.8-2.4-1.1-5.1-1.6-7.7-1.5-.2,0-.4,0-.5.2-.2,0-.3.2-.4.4-.1.1-.2.3-.2.5,0,.2,0,.4,0,.6,0,.4.2.7.5.9.3.2.6.3,1,.3,2.2,0,4.4.3,6.4,1.3,2,.9,3.8,2.3,5.1,4.1.2.2.4.3.7.4.3,0,.5,0,.8,0Z"/>
      <path class="cls-31" d="M1731.7,449.5c.2,0,.5-.1.7-.3,1.7-1.4,3.7-2.4,5.8-2.8,2.1-.5,4.3-.4,6.5.2.3.1.7,0,1.1,0,.3-.2.6-.4.7-.8,0-.4,0-.7-.1-1.1-.2-.3-.5-.6-.8-.7-2.6-.7-5.3-.8-7.9-.2-2.6.6-5,1.7-7.1,3.4-.2.1-.3.2-.4.4,0,.2-.2.3-.2.5,0,.2,0,.4,0,.6,0,.2.1.4.2.5.2.2.4.4.6.5.3.1.5.1.8,0h0Z"/>
      <path class="cls-19" d="M1831.6,396.8c1.6,3.4,4,6.2,7.1,8.3,3.1,2,6.7,3.2,10.4,3.3,9.3,0,19.8,4.5,20.8,23.3,1.9,34.8-11.8,49.3,5.7,85.3,17.6,35.9,12.6,56.1-26.3,67.4s-22.1,30.5-39.6,30.9c-17.6.4-12.2-50-5.3-63.8,6.9-13.8,20.2-34.5,16.3-59.3-3.8-24.9-11.7-42.4-6-55.4,0,0-4.8-13.8-16.8-9.2-12,4.6-49.5,12.2-60.8,2.7-11.2-9.5-5.1-43.2,32.8-49,41.6-6.3,56.7,5.1,61.7,15.6Z"/>
      <path class="cls-30" d="M1755,465.5h-1.8l-3.5,8-22-1.5,2.5-23,55.7,2.8,41.4,24.1v3.2l-38.4-15-3.6,11.9-28.7-2-1.6-8.4Z"/>
      <path class="cls-9" d="M1755,465.5h-1.8l-3.5,8-22-1.5,2.5-23,55.7,2.8,41.4,24.1v3.2l-38.4-15-3.6,11.9-28.7-2-1.6-8.4Z"/>
      <path class="cls-30" d="M1783.2,456.7l-22.7-.9-.9,4.5,1.6,10.1,19.1,1.6,4.1-9.8-1.2-5.5Z"/>
      <path class="cls-7" d="M1732.9,454.6l18.1,1.2.7,3.4-4.1,10.3-16.3-1.4,1.6-13.4Z"/>
      <path class="cls-31" d="M1775.8,465.5c-.2,2.9-2,5.1-3.9,4.8-1.9-.3-3.2-2.6-3-5.6.3-2.9,2-5.1,3.9-4.8,1.9.3,3.2,2.6,3,5.6Z"/>
      <path class="cls-31" d="M1743.1,462.6c0,2.9-2,5.1-3.9,4.8-1.9-.3-3.2-2.6-3-5.6.2-2.9,2-5.1,3.9-4.8,1.9.3,3.2,2.6,3,5.6Z"/>
      <path class="cls-31" d="M1740.9,457.3l-6.8-2.6s3.1,5.7,6.8,2.6Z"/>
      <path class="cls-31" d="M1773.6,460.2l-6.7-2.6s3.1,5.7,6.7,2.6Z"/>
      <path class="cls-26" d="M1841,486.7c-1.1,3.2-2.9,6.2-5.1,8.8-2.3,2.6-5,4.6-8.1,6.1-8.3,3.9-14-3.1-12.9-11.8.9-7.8,6.3-19.2,15.2-19.5,1.5,0,3.1.3,4.5.9,1.4.6,2.7,1.5,3.8,2.6,1.1,1.1,2,2.4,2.6,3.8.6,1.4.9,3,.9,4.5,0,1.6-.3,3.1-.9,4.6Z"/>
      <path class="cls-4" d="M1857.6,610.2l6.9,11.8,7.5,23.3c-5.4,28.5-8.6,57.4-9.6,86.4-14.2-38.8-19.3-80.4-14.8-121.6h9.9Z"/>
      <path class="cls-30" d="M1721.7,674.2h-4.6v-61.6l37.5-9.8,1.1,4.5-34,8.9v58Z"/>
      <path class="cls-30" d="M1742.6,765.1h-45.3l-9.3-101.4h63.9l-9.3,101.4Z"/>
      <path class="cls-11" d="M1742.6,765.1h-45.3l-9.3-101.4h63.9l-9.3,101.4Z"/>
      <path class="cls-30" d="M1755.1,660.2h-70.3v7.3h70.3v-7.3Z"/>
      <path class="cls-8" d="M1755.1,660.2h-70.3v7.3h70.3v-7.3Z"/>
      <path id="girl-left-arm" class="cls-26" d="M1875.6,587.7c3.7.2,7.3,1.5,10.3,3.8,3,2.3,5.2,5.4,6.3,9,12.8,39.4,41.9,162,13.3,186.4-35,29.9-167.4-12.3-167.4-12.3l-38-48.9,3.8-18.2,39.3-4.1,15.2,49.6,115.2-3.2s-22.9-89.3-26-123.9c-1.2-12.9-1.1-39.3,27.9-38.2Z"/>
      <path class="cls-19" d="M1757.9,503.9c-2,0-4-.1-6-.5-.3,0-.5-.2-.7-.4-.2-.2-.2-.5-.2-.8,0-.3.2-.5.4-.7.2-.2.5-.2.8-.2,4.4.9,8.9.7,13.2-.5,4.3-1.2,8.3-3.4,11.6-6.4,0-.1.2-.2.3-.2.1,0,.3,0,.4-.1.1,0,.3,0,.4,0,.1,0,.2.1.4.2.1,0,.2.2.2.3,0,.1,0,.3,0,.4,0,.1,0,.3,0,.4,0,.1-.1.3-.2.4-5.6,5.3-13,8.2-20.7,8.1Z"/>
      <path class="cls-30" d="M1212.5,1329.1l67.8-15.6,13.7-186.1-82.8,30.9,1.2,170.8Z"/>
      <path class="cls-30" d="M1222.2,1326.9l.9-173-11.8,4.4,1.2,170.8,9.7-2.2Z"/>
      <path class="cls-30" d="M1241.5,1322.4l5.2-177.4-11.9,4.4-3,175.2,9.7-2.2Z"/>
      <path class="cls-30" d="M1260.9,1318l9.5-181.7-11.9,4.4-7.3,179.5,9.7-2.2Z"/>
      <path class="cls-30" d="M1280.3,1313.5l13.7-186.1-11.8,4.4-11.6,183.9,9.7-2.2Z"/>
      <g class="cls-24">
        <path class="cls-20" d="M1222.2,1326.9l.9-173-11.8,4.4,1.2,170.8,9.7-2.2Z"/>
        <path class="cls-20" d="M1241.5,1322.4l5.2-177.4-11.9,4.4-3,175.2,9.7-2.2Z"/>
        <path class="cls-20" d="M1260.9,1318l9.5-181.7-11.9,4.4-7.3,179.5,9.7-2.2Z"/>
        <path class="cls-20" d="M1280.3,1313.5l13.7-186.1-11.8,4.4-11.6,183.9,9.7-2.2Z"/>
      </g>
      <path class="cls-30" d="M1144.5,1314.5l68.1,14.6-1.2-170.8-83.2-29.7,16.4,185.8Z"/>
      <path class="cls-15" d="M1144.5,1314.5l68.1,14.6-1.2-170.8-83.2-29.7,16.4,185.8Z"/>
      <path class="cls-30" d="M1128,1128.7l82.8-30.9,83.2,29.7-82.8,30.9-83.2-29.7Z"/>
      <path class="cls-11" d="M1128,1128.7l82.8-30.9,83.2,29.7-82.8,30.9-83.2-29.7Z"/>
      <path class="cls-30" d="M1202.8,1327l-3.4-173,11.9,4.2,1.2,170.8-9.8-2.1Z"/>
      <path class="cls-30" d="M1183.3,1322.9l-7.8-177.3,11.9,4.2,5.6,175.1-9.7-2.1Z"/>
      <path class="cls-30" d="M1163.9,1318.6l-12.1-181.6,11.9,4.3,9.9,179.4-9.8-2.1Z"/>
      <path class="cls-30" d="M1144.5,1314.5l-16.4-185.8,11.9,4.2,14.2,183.7-9.7-2.1Z"/>
      <path class="cls-20" d="M1164.3,1097.8c4.3.7,7.4,3.6,7,6.7,0,.2,0,.4,0,.6,1.5-.2,3-.2,4.5,0,1.5.2,2.9.6,4.3,1.2v-.6c.5-3,4.3-4.8,8.6-4.3,4.3.5,7.4,3.6,7,6.7-.4,3-4.4,4.8-8.7,4.3h-.8c.4,1,.5,2.1.4,3.2-.6,3.9-4.8,6.5-10,6.8,0,.4,0,.8,0,1.2-.5,3-4.3,4.8-8.6,4.3-4.3-.5-7.5-3.7-7-6.7.2-.9.5-1.7,1.1-2.3.6-.6,1.3-1.1,2.1-1.4-.7-.8-1.2-1.7-1.6-2.6-.3-1-.4-2-.3-3,.2-1.1.6-2.1,1.3-2.9h-.8c-4.3-.7-7.5-3.7-7-6.7.5-3,4.1-5.1,8.4-4.5Z"/>
      <path class="cls-2" d="M1164.3,1097.8c4.3.7,7.4,3.6,7,6.7,0,.2,0,.4,0,.6,1.5-.2,3-.2,4.5,0,1.5.2,2.9.6,4.3,1.2v-.6c.5-3,4.3-4.8,8.6-4.3,4.3.5,7.4,3.6,7,6.7-.4,3-4.4,4.8-8.7,4.3h-.8c.4,1,.5,2.1.4,3.2-.6,3.9-4.8,6.5-10,6.8,0,.4,0,.8,0,1.2-.5,3-4.3,4.8-8.6,4.3-4.3-.5-7.5-3.7-7-6.7.2-.9.5-1.7,1.1-2.3.6-.6,1.3-1.1,2.1-1.4-.7-.8-1.2-1.7-1.6-2.6-.3-1-.4-2-.3-3,.2-1.1.6-2.1,1.3-2.9h-.8c-4.3-.7-7.5-3.7-7-6.7.5-3,4.1-5.1,8.4-4.5Z"/>
      <path class="cls-20" d="M1254.2,1136c1.1-.6,1.9-1.5,2.3-2.6,1.1-3.4-2.5-7.5-8-9.2-5.4-1.7-10.7-.2-11.7,3.1v.5c-1.1-.7-2.2-1.2-3.4-1.5-5.4-1.7-10.7-.3-11.7,3.1-1,3.4,2.5,7.5,8,9.2,2.2.7,4.6.8,6.8.4,1.4,2.4,3.6,4.1,6.2,4.8,4.5,1.4,8.8,0,9.6-2.6,2.3.7,4.4,0,4.8-1.3.3-1.3-.8-3.1-2.9-3.9Z"/>
      <path class="cls-2" d="M1254.2,1136c1.1-.6,1.9-1.5,2.3-2.6,1.1-3.4-2.5-7.5-8-9.2-5.4-1.7-10.7-.2-11.7,3.1v.5c-1.1-.7-2.2-1.2-3.4-1.5-5.4-1.7-10.7-.3-11.7,3.1-1,3.4,2.5,7.5,8,9.2,2.2.7,4.6.8,6.8.4,1.4,2.4,3.6,4.1,6.2,4.8,4.5,1.4,8.8,0,9.6-2.6,2.3.7,4.4,0,4.8-1.3.3-1.3-.8-3.1-2.9-3.9Z"/>
      <path class="cls-20" d="M1280.2,1127.8c1.1-.6,1.9-1.5,2.3-2.6,1-3.4-2.5-7.5-8-9.2-5.4-1.7-10.7-.3-11.7,3.1v.4c-1.1-.6-2.2-1.1-3.4-1.5-5.4-1.7-10.7-.3-11.8,3.1-1,3.4,2.6,7.5,8,9.2,2.2.7,4.5.9,6.8.5,1.4,2.3,3.6,4.1,6.2,4.8,4.5,1.4,8.9,0,9.6-2.6,2.3.7,4.4,0,4.8-1.2.3-1.2-.8-3-2.8-3.9Z"/>
      <path class="cls-20" d="M1163.6,1134.6c.4.8.5,1.7.3,2.5-.8,2.4-4.8,3.4-8.5,2.1-3.7-1.2-6.5-4.2-5.7-6.6v-.3c-.9,0-1.8-.2-2.6-.5-3.9-1.2-6.4-4.2-5.7-6.6.8-2.4,4.8-3.4,8.5-2.2,1.6.5,3.1,1.4,4.3,2.5,1.8-.7,3.8-.7,5.6,0,3.2,1.1,5.3,3.6,4.8,5.6,1.6.5,2.7,1.7,2.4,2.7-.3,1-1.7,1.2-3.2.8Z"/>
      <path class="cls-2" d="M1163.6,1134.6c.4.8.5,1.7.3,2.5-.8,2.4-4.8,3.4-8.5,2.1-3.7-1.2-6.5-4.2-5.7-6.6v-.3c-.9,0-1.8-.2-2.6-.5-3.9-1.2-6.4-4.2-5.7-6.6.8-2.4,4.8-3.4,8.5-2.2,1.6.5,3.1,1.4,4.3,2.5,1.8-.7,3.8-.7,5.6,0,3.2,1.1,5.3,3.6,4.8,5.6,1.6.5,2.7,1.7,2.4,2.7-.3,1-1.7,1.2-3.2.8Z"/>
      <path class="cls-20" d="M1227.2,1140.3c.8-.8,1.3-1.8,1.4-2.9,0-3.3-4.1-6.1-9.6-6.2-5.5-.2-9.6,2.4-9.6,5.7,0,.1,0,.3,0,.4-1.1-.3-2.3-.5-3.4-.5-5.3,0-9.6,2.4-9.6,5.7s4.1,6.1,9.6,6.2c2.1,0,4.3-.3,6.2-1.2,1.8,1.7,4.2,2.6,6.6,2.6,4.4,0,8-2,8.1-4.8,2.1,0,4-1,4-2.3,0-1.4-1.8-2.3-3.8-2.4Z"/>
      <path class="cls-2" d="M1227.2,1140.3c.8-.8,1.3-1.8,1.4-2.9,0-3.3-4.1-6.1-9.6-6.2-5.5-.2-9.6,2.4-9.6,5.7,0,.1,0,.3,0,.4-1.1-.3-2.3-.5-3.4-.5-5.3,0-9.6,2.4-9.6,5.7s4.1,6.1,9.6,6.2c2.1,0,4.3-.3,6.2-1.2,1.8,1.7,4.2,2.6,6.6,2.6,4.4,0,8-2,8.1-4.8,2.1,0,4-1,4-2.3,0-1.4-1.8-2.3-3.8-2.4Z"/>
      <path class="cls-20" d="M1236.6,1110.7c.6,1.3.7,2.7.2,4-1.4,3.8-7.5,4.8-13.6,2.7-6.1-2.1-9.9-7.2-8.5-11,0,0,0-.3.2-.4-1.4-.2-2.8-.5-4.2-1-6.1-2.3-9.8-7.2-8.5-11,1.4-3.8,7.6-5,13.6-2.7,2.5.9,4.7,2.4,6.5,4.4,2.9-1,6-1,8.8.2,5.1,1.9,8.2,6,7,9.2,2.5,1,4.1,3,3.5,4.6-.6,1.6-2.9,2-5.3,1.2Z"/>
      <path class="cls-2" d="M1236.6,1110.7c.6,1.3.7,2.7.2,4-1.4,3.8-7.5,4.8-13.6,2.7-6.1-2.1-9.9-7.2-8.5-11,0,0,0-.3.2-.4-1.4-.2-2.8-.5-4.2-1-6.1-2.3-9.8-7.2-8.5-11,1.4-3.8,7.6-5,13.6-2.7,2.5.9,4.7,2.4,6.5,4.4,2.9-1,6-1,8.8.2,5.1,1.9,8.2,6,7,9.2,2.5,1,4.1,3,3.5,4.6-.6,1.6-2.9,2-5.3,1.2Z"/>
      <path class="cls-20" d="M1193,1114.3c-1-1.3-1.4-2.9-1.2-4.6.7-4.8,7.5-7.7,15.1-6.5,7.6,1.2,13.3,6,12.6,10.7v.6c1.7-.2,3.4-.2,5.1,0,7.6,1.2,13.2,5.9,12.5,10.7-.7,4.8-7.5,7.7-15.1,6.5-3.1-.4-6.1-1.6-8.7-3.5-3.1,1.9-6.7,2.6-10.3,1.9-6.4-1-11-4.8-10.4-8.9-3.2-.5-5.5-2.5-5.2-4.5.3-2,2.7-2.8,5.6-2.5Z"/>
      <path class="cls-20" d="M1259.3,1120.4c.8-.7,1.4-1.7,1.6-2.8.3-3.3-3.7-6.3-9-6.8s-9.6,1.8-10.1,5.1v.4c-1.1-.4-2.2-.6-3.4-.7-5.3-.5-9.6,1.8-10,5.1-.5,3.3,3.7,6.3,9,6.8,2.2.2,4.3,0,6.3-.9,1.7,1.8,4,2.9,6.5,3,4.3.4,8.1-1.5,8.4-4.2,2.2,0,4-.8,4.2-2.1.1-1.3-1.4-2.4-3.4-2.7Z"/>
      <path class="cls-20" d="M1169.4,1129.1h.6c-.3-.8-.4-1.6-.2-2.4.6-4.2,6.1-6.9,12.2-5.9,2,.2,4,.9,5.7,2,1.7,1.2,3,2.8,3.9,4.6,2.1-.6,4.3-.7,6.4-.4,6.1,1,10.6,5.1,9.9,9.3-.6,4.2-6.1,6.9-12.2,6v.4c-.4,2.9-4.3,4.8-8.5,4.2-4.2-.6-7.4-3.5-6.9-6.5.1-.9.6-1.7,1.2-2.3-.7-.5-1.2-1.3-1.5-2.1h-.3c-1.1-.2-2.3-.5-3.3-1v.4c-.4,2.9-4.3,4.8-8.5,4.1-4.3-.7-7.4-3.5-6.9-6.5.5-3,4.2-4.7,8.5-4Z"/>
      <path class="cls-30" d="M1488.5,1365.9s-117.9-24.9-158.4-34.5c-61.6-14.4-223.8-37.6-257.6,30.3-33.8,67.9-115.8,219.3-115.8,219.3l37.2,34.9s100.4-121.1,135.2-202.2c1.2-2.6,5.3-10.3,5.3-10.3,0,0,273.6,90.5,321.1,48.6,12-10.6,21.2-24,27-38.9,5.7-15,7.8-31.1,6-47.1Z"/>
      <path class="cls-2" d="M1488.5,1365.9s-117.9-24.9-158.4-34.5c-61.6-14.4-223.8-37.6-257.6,30.3-33.8,67.9-115.8,219.3-115.8,219.3l37.2,34.9s100.4-121.1,135.2-202.2c1.2-2.6,5.3-10.3,5.3-10.3,0,0,273.6,90.5,321.1,48.6,12-10.6,21.2-24,27-38.9,5.7-15,7.8-31.1,6-47.1Z"/>
      <path class="cls-23" d="M992.4,1611.7l-28.5,35.6-21.3-21.6,22.4-34.8,27.4,20.9Z"/>
      <path class="cls-5" d="M953.7,1608.4l25.2,20.2,11.2-13.9-26.5-21.6-9.9,15.3Z"/>
      <path class="cls-30" d="M930,1615.1c-3.1-2.9-5.7-6.5-5.5-8.8.1-.6.4-1.2.8-1.6.4-.5,1-.8,1.6-.9,1.1-.3,2.2-.2,3.2.4,5.2,2.8,9.1,15.9,9.3,16.5,0,.2,0,.3,0,.5,0,.2-.2.3-.3.4-.1,0-.3.1-.5.1s-.3,0-.5-.1c-2.9-1.9-5.6-4.1-8.2-6.4ZM930.6,1606.6c-.4-.4-.8-.7-1.2-1-.3-.2-.6-.3-.9-.4-.3,0-.7,0-1,.1-1.1.3-1.3.8-1.3,1.2-.4,2.7,5.8,8.7,10.9,12.5-1.3-4.5-3.5-8.7-6.4-12.4Z"/>
      <path class="cls-30" d="M938.1,1621.5s0,0,0-.1,0,0,0-.2c-1.7-4.1-2.5-15.1.6-17.4.7-.6,2-1,3.7.4.6.5,1.2,1.1,1.6,1.8.4.7.6,1.5.7,2.3-.3,4.8-2.2,9.5-5.3,13.2,0,.1-.2.2-.3.2-.1,0-.3,0-.4,0-.1,0-.2,0-.4,0-.1,0-.2-.2-.3-.2ZM941.6,1605.8l-.3-.4c-1.1-.9-1.6-.5-1.8-.4-1.7,1.5-1.8,9.6-.5,14.2,2.4-3.1,3.7-6.8,3.9-10.7-.1-1-.6-1.9-1.3-2.6Z"/>
      <path class="cls-19" d="M944,1620.6l26.7,25.5c.5.5.8,1.1.9,1.8,0,.7,0,1.4-.4,2l-15.9,26.5c-.3.6-.7,1.1-1.3,1.5-.5.4-1.1.7-1.8.9-.6.2-1.3.2-2,0-.7-.1-1.3-.3-1.8-.7l-.9-.7c-9.6-9.6-17.6-18.1-29.7-29.7-14.3-13.6-12.2-8.4-29.2-24-10.2-9.6-1.1-22.7,3.6-19.2,21.9,16.2,29.6,12.2,43.8,12.4,3,.2,5.7,1.4,7.8,3.6Z"/>
      <path class="cls-30" d="M1009.7,1602.7l-16.1,18.3-45.7-31.7,11.4-22.8,50.4,36.1Z"/>
      <path class="cls-11" d="M1009.7,1602.7l-16.1,18.3-45.7-31.7,11.4-22.8,50.4,36.1Z"/>
      <path class="cls-30" d="M1415.4,1366.1s-125.8-27.7-168.9-38.4c-65.8-16-238.6-42.5-273.2,26.3-34.7,68.8-119.2,222.2-119.2,222.2l40.2,36.4s104.4-122,140.1-204.4c1.2-2.7,5.4-10.5,5.4-10.5,0,0,292.4,97.7,342.2,55.7,12.5-10.6,22.1-24.1,27.9-39.4,5.8-15.3,7.8-31.8,5.6-48Z"/>
      <path class="cls-23" d="M883.1,1613.4l-27.4,33.9-21-22.5,23.2-32.1,25.2,20.6Z"/>
      <path class="cls-5" d="M848.2,1606.1l24.7,19.9,10.2-12.6-25.2-20.6-9.7,13.3Z"/>
      <path class="cls-30" d="M903.8,1607.1l-17.1,17.4-43.5-33.8,12.6-22.1,48,38.5Z"/>
      <path class="cls-11" d="M903.8,1607.1l-17.1,17.4-43.5-33.8,12.6-22.1,48,38.5Z"/>
      <path class="cls-23" d="M1462.2,1071.5s-23.9-9.6-10.4-55.2c0,0-19.8-17.1-38.2-7.9-18.5,9.2.3,48.8-21.8,56.7-22.1,7.9,70.5,6.4,70.5,6.4Z"/>
      <path class="cls-2" d="M1421.7,1030.8c-5.5,4.8-11.6,9-18.2,12.3.4-6.3.2-13,1-18.9l17.2,6.6Z"/>
      <g id="head">
        <path class="cls-19" d="M1381.9,931.6c-1.1,2.7-.5,5.4,1.2,6.1,1.8.7,4.2-1,5.1-3.6,1-2.6.5-5.4-1.2-6.1s-4,.9-5.1,3.6Z"/>
        <path class="cls-28" d="M1384.6,941.8l-21.1,15.8c1.8,2.5,4.2,4.5,7,5.9,2.8,1.4,5.8,2.1,8.9,2.1l5.2-23.7Z"/>
        <path class="cls-23" d="M1489.3,961.6c-12.3,36.2-16.8,51.8-40.5,65.6-33.5,11.4-77.3-2.4-75.9-41.6,1.2-35.3,21.2-88.4,61.2-93.3,13.7-1.7,27.5,2.2,38.3,10.8,10.8,8.5,17.9,21.1,19.5,34.8,1,8,.1,16.2-2.6,23.9Z"/>
        <path class="cls-19" d="M1397.1,923.9c-.2,0-.5-.2-.7-.3-.2-.2-.3-.4-.4-.6-.7-1.7-1.8-3.3-3.2-4.5-1.4-1.2-3.1-2.1-4.9-2.6-.4,0-.7-.3-1-.6s-.3-.7-.3-1.1c0-.4.3-.7.6-1,.3-.2.7-.3,1.1-.2,2.3.5,4.4,1.6,6.3,3.1,1.8,1.5,3.2,3.5,4.1,5.7,0,.2.1.4.1.6,0,.2,0,.4-.1.6,0,.2-.2.4-.3.5-.1.1-.3.3-.5.3-.3.1-.6.1-.9,0Z"/>
        <path class="cls-19" d="M1391.5,986.9c1.2-.6,2.4-1.4,3.5-2.2.1-.1.2-.3.2-.5s0-.4-.2-.5c-.1-.1-.3-.2-.5-.2s-.4,0-.5.2c-2.4,1.9-5.2,3.2-8.1,3.8-3,.6-6,.5-9-.3-.2,0-.4,0-.6,0-.2,0-.3.2-.4.4,0,0,0,.2,0,.3s0,.2,0,.3c0,0,0,.2.2.2,0,0,.2.1.2.1,2.5.7,5.1,1,7.7.7,2.6-.3,5.1-1.1,7.4-2.4Z"/>
        <path class="cls-19" d="M1407.3,961.5l-9.9,6.7-1.9-2c-1.3-1.5-2.2-3.3-2.5-5.3-.3-2,0-4,.8-5.8,2.2-4.8,9-11.2,9.2-19.5,0-4.4-2.7-6.6,4.3-17,7-10.5-15.6-21.3-9.8-43.7,5.8-22.4,21.4,0,21.4,0,0,0,5.1-20.3,17.2-21.9,12.1-1.6,12.7,21.1,12.7,21.1,0,0,23.7-19.2,34.1-10.3,10.5,8.9-2.4,21.1-2.4,21.1,0,0,27.5-7.6,33.5,4.6,6,12.1-11.2,18.9-11.2,18.9,0,0,33.1,15.4,12.5,28.1,0,0,19.4,16.5,0,27.3,0,0,12.9,22-16.8,25.7,0,0,9.6,16.3-9.6,21.1l-40,16.7s-6.5-5.4-18,0l-9.2-39.1-14.3-26.4Z"/>
        <path class="cls-23" d="M1413.1,949.1c-3.5,1.7-6.6,4-9.1,6.9-2.5,2.9-4.5,6.3-5.7,9.9-3.3,9.8,5.3,15.4,14.9,13.1,8.6-2,20.6-9.6,19.8-19.7-.2-2.2-1-4.3-2.2-6.2-1.2-1.8-2.9-3.3-4.9-4.4-2-1-4.2-1.5-6.4-1.5-2.2,0-4.4.6-6.3,1.7Z"/>
      </g>
      <path class="cls-19" d="M1472.8,1075l-1.9-9.3c-.7-3.3-2.3-6.3-4.8-8.5-2.5-2.2-5.6-3.6-8.9-3.9-21.5-2-66-5.3-74,0-6.3,4.1-10.9,10.4-13,17.7l102.6,4Z"/>
      <g class="cls-25">
        <path class="cls-20" d="M1472.8,1075l-1.9-9.3c-.7-3.3-2.3-6.3-4.8-8.5-2.5-2.2-5.6-3.6-8.9-3.9-21.5-2-66-5.3-74,0-6.3,4.1-10.9,10.4-13,17.7l102.6,4Z"/>
      </g>
      <path class="cls-19" d="M1491,1369.9s-5.3-128.6,9.6-199.9c14.8-71.3,15.2-100.2-42.2-103-57.4-2.8-117-15.8-145.9,47.6-21.6,47.2-24.2,165-24.2,222,0,8.5,3.3,16.7,9.3,22.7s14.1,9.4,22.5,9.5l170.9,1.1Z"/>
      <path class="cls-30" d="M822.5,1614.1c-2.9-3.1-5.4-6.8-4.8-9.1.1-.6.5-1.2.9-1.6.5-.4,1-.7,1.7-.8.5-.1,1.1-.1,1.6,0,.5,0,1,.3,1.5.6,4.8,3.1,8.2,16.4,8.4,17,0,.2,0,.3,0,.5,0,.1-.2.3-.3.3-.1,0-.3.1-.5.1s-.3,0-.5-.1c-2.9-2.1-5.5-4.4-8-7ZM823.6,1605.6c-.3-.4-.7-.7-1.2-1-.3-.2-.6-.4-.9-.4-.3,0-.7,0-1,0-1.1.2-1.3.7-1.4,1.1-.5,2.6,5.3,9,10.2,13.1-1.1-4.6-3.1-9-5.9-12.8h.2Z"/>
      <path class="cls-30" d="M830,1620.9c0,0,0-.2,0-.3-1.5-4.2-1.7-15.2,1.6-17.3.8-.6,2.1-.8,3.7.6,1.2,1.1,1.9,2.6,2.1,4.2-.6,4.8-2.7,9.3-6,12.9-.1,0-.2,0-.4,0s-.3,0-.4,0c-.2,0-.4,0-.6-.1ZM834.3,1605.4l-.3-.3c-1.1-1-1.6-.7-1.8-.6-1.8,1.4-2.3,9.3-1.3,14.1,2.5-2.9,4.1-6.6,4.5-10.5,0-1-.5-2-1.2-2.7Z"/>
      <path class="cls-19" d="M835.9,1620.3l25.4,27.1c.5.5.8,1.1.8,1.8,0,.7-.1,1.4-.5,1.9l-17.4,25.6c-.3.6-.8,1-1.3,1.4-.5.4-1.2.6-1.8.8-.6.1-1.3.1-2,0-.6-.1-1.2-.4-1.8-.8-.3-.2-.5-.4-.8-.7-9-9.9-16.6-19.2-28-31.3-13.4-14.4-11.8-9.1-27.8-25.8-9.6-10,0-22.8,4.8-19.2,20.9,17.4,28.7,13.9,43,14.9,2.9.4,5.5,2,7.4,4.2Z"/>
      <path id="guy-arm" class="cls-23" d="M1292.7,1153.7l-46.6,78.3-86.4-19.9-24.5-41.5c-1.2-1.9-2.9-3.5-5-4.4-2.1-.9-4.3-1.2-6.6-.8l-9.1,1.6c-2.8.5-5.3,2.1-7,4.3-1.7,2.3-2.4,5.1-2.1,8l4.4,36.6c.2,2,1,4,2.3,5.6,1.3,1.6,3,2.8,4.9,3.5l35.8,12.7s80.3,50.8,105.2,42c24.9-8.8,75.4-100.6,75.4-100.6l-40.8-25.4Z"/>
      <path class="cls-19" d="M1364.6,1080c-11.5-8.5-34.3-17.1-81.3,76.8l51.6,32.7s67-81.8,29.7-109.5Z"/>
      <path class="cls-11" d="M1364.6,1080c-11.5-8.5-34.3-17.1-81.3,76.8l51.6,32.7s67-81.8,29.7-109.5Z"/>
      <path class="cls-19" d="M1559.9,1724.6h-14.6c-1.9,0-3.7-.8-5-2.1-1.3-1.3-2.2-3.1-2.3-5l-3.5-39h36.2l-3.5,39c-.1,1.9-.9,3.7-2.3,5-1.4,1.3-3.1,2.1-5,2.1Z"/>
      <path class="cls-19" d="M1863.3,1724.6h-14.6c-1.9,0-3.7-.8-5-2.1-1.3-1.3-2.2-3.1-2.3-5l-3.5-39h36.2l-3.5,39c-.1,1.9-.9,3.7-2.3,5-1.3,1.3-3.1,2.1-5,2.1Z"/>
      <path class="cls-30" d="M1548.5,1670.1v-315.1c0-6.2,1.6-12.2,5-17.3,3.4-5.1,8.2-9.1,13.9-11.5,107.6-42,227.1-42,334.7,0,5.7,2.3,10.5,6.3,13.9,11.5,3.4,5.1,5.1,11.2,5,17.3v315.1c.2,7.9-2.8,15.6-8.2,21.3-5.4,5.7-12.9,9.1-20.8,9.3h-314.4c-7.9-.2-15.4-3.5-20.8-9.3-5.4-5.7-8.4-13.4-8.2-21.3Z"/>
      <g class="cls-25">
        <path class="cls-20" d="M1548.5,1670.1v-315.1c0-6.2,1.6-12.2,5-17.3,3.4-5.1,8.2-9.1,13.9-11.5,107.6-42,227.1-42,334.7,0,5.7,2.3,10.5,6.3,13.9,11.5,3.4,5.1,5.1,11.2,5,17.3v315.1c.2,7.9-2.8,15.6-8.2,21.3-5.4,5.7-12.9,9.1-20.8,9.3h-314.4c-7.9-.2-15.4-3.5-20.8-9.3-5.4-5.7-8.4-13.4-8.2-21.3Z"/>
      </g>
      <path class="cls-30" d="M1487.8,1670.1v-315.1c0-6.2,1.7-12.2,5.1-17.4,3.4-5.1,8.3-9.1,14-11.4,107.7-42,227.1-42,334.7,0,5.7,2.3,10.5,6.3,13.9,11.5,3.4,5.1,5.1,11.2,5,17.3v315.1c.2,7.9-2.8,15.6-8.2,21.3-5.4,5.7-12.9,9.1-20.8,9.3h-314.7c-7.9-.2-15.4-3.5-20.8-9.3-5.4-5.7-8.4-13.4-8.2-21.3Z"/>
      <g class="cls-16">
        <path class="cls-20" d="M1487.8,1670.1v-315.1c0-6.2,1.7-12.2,5.1-17.4,3.4-5.1,8.3-9.1,14-11.4,107.7-42,227.1-42,334.7,0,5.7,2.3,10.5,6.3,13.9,11.5,3.4,5.1,5.1,11.2,5,17.3v315.1c.2,7.9-2.8,15.6-8.2,21.3-5.4,5.7-12.9,9.1-20.8,9.3h-314.7c-7.9-.2-15.4-3.5-20.8-9.3-5.4-5.7-8.4-13.4-8.2-21.3Z"/>
      </g>
      <path class="cls-30" d="M1454.9,1557.3h-249.9l64.4-380.2c2.2-12.8,8.8-24.4,18.7-32.8,9.9-8.4,22.4-13,35.4-13h131.4v426Z"/>
      <path class="cls-15" d="M1454.9,1557.3h-249.9l64.4-380.2c2.2-12.8,8.8-24.4,18.7-32.8,9.9-8.4,22.4-13,35.4-13h131.4v426Z"/>
      <path class="cls-30" d="M1829.3,1683.2h-550.3c-2.6,0-5.1-1-7-2.9-1.9-1.9-2.9-4.4-2.9-7v-216.3c0-2.6,1-5.2,2.9-7,1.9-1.9,4.4-2.9,7-2.9h560.2v226.2c0,2.6-1,5.2-2.9,7-1.9,1.9-4.4,2.9-7,2.9Z"/>
      <path class="cls-30" d="M1805.2,1131.3h-392.1c-17.6,0-34.7,6.3-48.2,17.7-13.5,11.4-22.5,27.3-25.4,44.7l-43,253.5h-18.8c-2.4,0-4.6.9-6.3,2.6-1.7,1.7-2.6,3.9-2.6,6.3v218.3c0,2.4.9,4.6,2.6,6.3,1.7,1.7,3.9,2.6,6.3,2.6h552.3c1.2,0,2.3-.2,3.4-.7,1.1-.4,2.1-1.1,2.9-1.9.8-.8,1.5-1.8,1.9-2.9.4-1.1.7-2.2.7-3.4v-194.6c0-18.2,1.5-36.3,4.5-54.2l35.2-206.6c1.9-10.8,1.3-21.8-1.5-32.3-2.8-10.5-7.9-20.3-14.9-28.7-7-8.4-15.7-15.1-25.6-19.7s-20.6-7-31.5-7Z"/>
      <path class="cls-12" d="M1805.2,1131.3h-392.1c-17.6,0-34.7,6.3-48.2,17.7-13.5,11.4-22.5,27.3-25.4,44.7l-43,253.5h-18.8c-2.4,0-4.6.9-6.3,2.6-1.7,1.7-2.6,3.9-2.6,6.3v218.3c0,2.4.9,4.6,2.6,6.3,1.7,1.7,3.9,2.6,6.3,2.6h552.3c1.2,0,2.3-.2,3.4-.7,1.1-.4,2.1-1.1,2.9-1.9.8-.8,1.5-1.8,1.9-2.9.4-1.1.7-2.2.7-3.4v-194.6c0-18.2,1.5-36.3,4.5-54.2l35.2-206.6c1.9-10.8,1.3-21.8-1.5-32.3-2.8-10.5-7.9-20.3-14.9-28.7-7-8.4-15.7-15.1-25.6-19.7s-20.6-7-31.5-7Z"/>
      <path class="cls-2" d="M1382.6,1670.1v-315.1c.1-6.2-1.6-12.2-5-17.3-3.4-5.1-8.2-9.1-13.9-11.5-14.3-5.6-29.2-10.4-43.9-14.4l-22.9,135.3h-18.8c-2.4,0-4.6.9-6.3,2.6-1.7,1.7-2.6,3.9-2.6,6.3v218.3c0,2.4.9,4.6,2.6,6.3,1.7,1.7,3.9,2.6,6.3,2.6h101.8c1.9-4.1,2.8-8.6,2.8-13.2Z"/>
      <path class="cls-19" d="M991.6,1724.6h-14.6c-1.9,0-3.7-.8-5-2.1-1.4-1.3-2.2-3.1-2.3-5l-3.5-39h36.2l-3.5,39c-.1,1.9-.9,3.7-2.3,5-1.4,1.3-3.1,2.1-5,2.1Z"/>
      <path class="cls-19" d="M1295.1,1724.6h-14.7c-1.9,0-3.7-.8-5-2.1-1.3-1.3-2.2-3.1-2.3-4.9l-3.5-39h36.2l-3.4,39c-.1,1.9-1,3.6-2.3,4.9-1.3,1.3-3.1,2.1-5,2.1Z"/>
      <path class="cls-30" d="M980.3,1670.1v-315.1c-.1-6.2,1.6-12.2,5-17.3,3.4-5.1,8.2-9.1,13.9-11.5,107.6-42,226.9-42,334.5,0,5.7,2.3,10.5,6.3,13.9,11.5,3.4,5.1,5.1,11.2,5,17.3v315.1c.2,7.9-2.8,15.6-8.2,21.3-5.4,5.7-12.9,9.1-20.8,9.3h-314.3c-7.9-.2-15.3-3.6-20.8-9.3-5.4-5.7-8.4-13.4-8.2-21.3Z"/>
      <g class="cls-25">
        <path class="cls-20" d="M980.3,1670.1v-315.1c-.1-6.2,1.6-12.2,5-17.3,3.4-5.1,8.2-9.1,13.9-11.5,107.6-42,226.9-42,334.5,0,5.7,2.3,10.5,6.3,13.9,11.5,3.4,5.1,5.1,11.2,5,17.3v315.1c.2,7.9-2.8,15.6-8.2,21.3-5.4,5.7-12.9,9.1-20.8,9.3h-314.3c-7.9-.2-15.3-3.6-20.8-9.3-5.4-5.7-8.4-13.4-8.2-21.3Z"/>
      </g>
      <path class="cls-30" d="M919.5,1670.1v-315.1c-.1-6.2,1.6-12.2,5-17.3,3.4-5.1,8.2-9.1,13.9-11.5,107.6-42,227.1-42,334.7,0,5.7,2.3,10.6,6.3,14,11.4,3.4,5.2,5.2,11.2,5.1,17.4v315.1c.2,7.9-2.8,15.6-8.2,21.3-5.4,5.7-12.9,9.1-20.8,9.3h-314.7c-7.9-.2-15.4-3.5-20.8-9.3-5.4-5.7-8.4-13.4-8.2-21.3Z"/>
      <g class="cls-16">
        <path class="cls-20" d="M919.5,1670.1v-315.1c-.1-6.2,1.6-12.2,5-17.3,3.4-5.1,8.2-9.1,13.9-11.5,107.6-42,227.1-42,334.7,0,5.7,2.3,10.6,6.3,14,11.4,3.4,5.2,5.2,11.2,5.1,17.4v315.1c.2,7.9-2.8,15.6-8.2,21.3-5.4,5.7-12.9,9.1-20.8,9.3h-314.7c-7.9-.2-15.4-3.5-20.8-9.3-5.4-5.7-8.4-13.4-8.2-21.3Z"/>
      </g>
    </g>
  </g>
</svg>