<svg xmlns="http://www.w3.org/2000/svg" version="1.1" viewBox="0 0 2018 1509">
  <defs>
    <style>
      .cls-1 {
        fill: #e0e0e0;
      }

      .cls-2 {
        opacity: .1;
      }

      .cls-2, .cls-3, .cls-4, .cls-5 {
        isolation: isolate;
      }

      .cls-3, .cls-6 {
        opacity: .2;
      }

      .cls-7 {
        fill: #e6e6e6;
      }

      .cls-8 {
        fill: #ebebeb;
      }

      .cls-9 {
        fill: #630f0f;
      }

      .cls-10 {
        fill: #263238;
      }

      .cls-11, .cls-4, .cls-5 {
        fill: #fff;
      }

      .cls-12 {
        fill: #f0f0f0;
      }

      .cls-13 {
        fill: #fafafa;
      }

      .cls-14, .cls-5 {
        opacity: .4;
      }

      .cls-15 {
        fill: #7f3e3b;
      }

      .cls-16 {
        fill: #f5f5f5;
      }

      .cls-17 {
        fill: #0045b6;
      }

      .cls-4 {
        opacity: .6;
      }

      /* Animation Keyframes */
      @keyframes fadeInOut {
        0%, 100% {
          opacity: 0;
        }
        50% {
          opacity: 1;
        }
      }

      @keyframes moveUpDown {
        0%, 100% {
          transform: translateY(0);
        }
        50% {
          transform: translateY(-40px);
        }
      }

      @keyframes wiggle {
        0%, 100% {
          transform: rotate(0deg);
        }
        25% {
          transform: rotate(-.60deg);
        }
        75% {
          transform: rotate(.60deg);
        }
      }

      /* Apply Animations */
      #like {
        animation: fadeInOut 10s infinite;
      }

      #heart {
        animation: moveUpDown 4s infinite;
      }

      #head {
        animation: wiggle 10s infinite;
      }
    </style>
  </defs>
  <!-- Generator: Adobe Illustrator 28.6.0, SVG Export Plug-In . SVG Version: 1.2.0 Build 709)  -->
  <g>
    <g id="Layer_1">
      <path class="cls-8" d="M2017.7,1326H0v1h2017.7v-1Z"/>
      <path class="cls-8" d="M1653.2,1391.7h-66.8v1h66.8v-1Z"/>
      <path class="cls-8" d="M1481,1377h-152.6v1h152.6v-1Z"/>
      <path class="cls-8" d="M1348.1,1353.6h-278.8v1h278.8v-1Z"/>
      <path class="cls-8" d="M262.9,1360.4h-51.2v1h51.2v-1Z"/>
      <path class="cls-8" d="M447.5,1360.4h-148.6v1h148.6v-1Z"/>
      <path class="cls-8" d="M854.9,1377.4h-240.2v1h240.2v-1Z"/>
      <path class="cls-8" d="M956.4,1145.3H177.2c-6.1,0-12-2.4-16.3-6.8-4.3-4.3-6.7-10.2-6.7-16.3V22.9c0-6.1,2.5-11.9,6.8-16.2C165.3,2.4,171.1,0,177.2,0h779.2c6.1,0,12,2.4,16.3,6.8,4.3,4.3,6.7,10.2,6.7,16.4v1099.1c0,6.1-2.4,12-6.7,16.3-4.3,4.3-10.2,6.8-16.3,6.8ZM177.2.8c-5.8,0-11.4,2.3-15.6,6.5-4.1,4.1-6.4,9.8-6.4,15.6v1099.3c0,5.9,2.3,11.5,6.4,15.6,4.1,4.2,9.7,6.5,15.6,6.5h779.2c5.8,0,11.4-2.3,15.6-6.5,4.1-4.1,6.5-9.8,6.5-15.6V22.9c0-5.9-2.3-11.5-6.5-15.6-4.1-4.1-9.7-6.5-15.6-6.5H177.2Z"/>
      <path class="cls-8" d="M1829.3,1145.3h-779.2c-6.1,0-12-2.4-16.3-6.8-4.3-4.3-6.8-10.2-6.8-16.3V22.9c0-6.1,2.5-11.9,6.8-16.2,4.3-4.3,10.1-6.7,16.2-6.7h779.2c6.1,0,11.9,2.4,16.2,6.7,4.3,4.3,6.7,10.1,6.8,16.2v1099.3c0,6.1-2.4,12-6.7,16.3-4.3,4.3-10.1,6.8-16.2,6.8ZM1050.1.8c-5.8,0-11.4,2.3-15.6,6.5-4.1,4.1-6.4,9.8-6.5,15.6v1099.3c0,5.9,2.3,11.5,6.5,15.6,4.1,4.2,9.7,6.5,15.6,6.5h779.2c5.8,0,11.4-2.3,15.6-6.5,4.1-4.1,6.5-9.8,6.5-15.6V22.9c0-5.9-2.3-11.5-6.5-15.6-4.1-4.1-9.7-6.5-15.6-6.5h-779.2Z"/>
      <path class="cls-7" d="M238.5,1326h180.9v-331.5h-180.9v331.5Z"/>
      <path class="cls-12" d="M256.6,1326h-18.2v-41.5h37.3l-19.1,41.5Z"/>
      <path class="cls-7" d="M745.6,1326h180.9v-331.5h-180.9v331.5Z"/>
      <path class="cls-12" d="M238.4,1311.3h523v-316.8H238.4v316.8Z"/>
      <path class="cls-12" d="M743.2,1326h18.2v-41.5h-37.3l19.1,41.5Z"/>
      <path class="cls-7" d="M252.5,1142.1h494.8v-127.8H252.5v127.8Z"/>
      <path class="cls-12" d="M466.9,1054h66c28.7,0,56.1-15.8,75.8-43.6h-217.5c19.7,27.9,47.1,43.6,75.8,43.6Z"/>
      <path class="cls-7" d="M252.5,1290.6h494.8v-127.9H252.5v127.9Z"/>
      <path class="cls-12" d="M466.9,1202.5h66c28.7,0,56.1-15.8,75.8-43.6h-217.5c19.7,27.8,47.1,43.6,75.8,43.6Z"/>
      <path class="cls-7" d="M383.1,588.3h1288.3V109.3H383.1v479Z"/>
      <path class="cls-7" d="M324.8,90.6h1381.7c1.4,0,2.8.6,3.8,1.6,1,1,1.6,2.4,1.6,3.8s-.6,2.8-1.6,3.8c-1,1-2.4,1.6-3.8,1.6H324.8c-.7,0-1.4-.1-2.1-.4-.7-.3-1.2-.7-1.7-1.2-.5-.5-.9-1.1-1.2-1.8-.3-.7-.4-1.4-.4-2.1,0-.7.1-1.4.4-2.1.3-.7.7-1.3,1.2-1.8.5-.5,1.1-.9,1.7-1.2.7-.3,1.4-.4,2.1-.4Z"/>
      <path class="cls-12" d="M360,588.3h1300.6V109.3H360v479Z"/>
      <path class="cls-7" d="M383.1,588.3h1288.3v15.3H367.2l15.9-15.3Z"/>
      <path class="cls-12" d="M321.6,588.3h1300.6l-15.9,15.3H305.7l15.9-15.3Z"/>
      <path class="cls-13" d="M1628.3,555.9V141.7H392.4v414.2h1236Z"/>
      <path class="cls-11" d="M1456.1,555.8l-68.2-414.1h-89.5l68.1,414.1h89.5Z"/>
      <path class="cls-11" d="M791.6,555.8l-68.2-414.1h-89.5l68.2,414.1h89.5Z"/>
      <path class="cls-11" d="M1347.4,555.8l-68.2-414.1h-34.9l68.2,414.1h34.9Z"/>
      <path class="cls-7" d="M396.4,555.9V141.7h-4.1v414.2h4.1Z"/>
      <g class="cls-14">
        <path class="cls-12" d="M1552.2,773.6h131.3V81h-131.3v692.6Z"/>
        <path class="cls-7" d="M1606.3,773.6h43.3V81h-43.3v692.6Z"/>
        <path class="cls-12" d="M1421,773.6h131.3V81h-131.3v692.6Z"/>
        <path class="cls-7" d="M1550.7,773.6h43.3V81h-43.3v692.6Z"/>
        <path class="cls-12" d="M1289.7,773.6h131.3V81h-131.3v692.6Z"/>
      </g>
      <g class="cls-14">
        <path class="cls-12" d="M413,773.6h32V81h-32v692.6Z"/>
        <path class="cls-7" d="M400.6,773.6h24.9V81h-24.9v692.6Z"/>
        <path class="cls-12" d="M381,773.6h32V81h-32v692.6Z"/>
        <path class="cls-7" d="M368.6,773.6h24.9V81h-24.9v692.6Z"/>
        <path class="cls-12" d="M348.9,773.6h32V81h-32v692.6Z"/>
      </g>
      <path class="cls-7" d="M1594,909.4h178.4v-29.2h-178.4v29.2Z"/>
      <path class="cls-8" d="M1594,1291.2h156.2v-381.9h-156.2v381.9Z"/>
      <path class="cls-16" d="M1593.9,909.4h-491.5v381.9h491.5v-381.9Z"/>
      <path class="cls-8" d="M1560,1250.8h-423.7v-301.1h423.7v301.1ZM1140.6,1246.8h415.2v-292.8h-415.2v292.8Z"/>
      <path class="cls-8" d="M1491.8,1001.4c0,3.3,1,6.6,2.8,9.4,1.8,2.8,4.5,5,7.5,6.2,3.1,1.3,6.5,1.6,9.7,1,3.3-.6,6.3-2.3,8.6-4.6,2.4-2.4,4-5.4,4.6-8.6.7-3.3.3-6.7-.9-9.8-1.3-3.1-3.4-5.7-6.2-7.6-2.8-1.9-6-2.8-9.3-2.8s-8.7,1.8-11.9,4.9c-3.2,3.2-4.9,7.4-4.9,11.9Z"/>
      <path class="cls-1" d="M1750.2,909.4h-647.8v6.8h647.8v-6.8Z"/>
      <path class="cls-12" d="M1593.9,880.2h-513.7v29.2h513.7v-29.2Z"/>
      <path class="cls-8" d="M1750.2,1291.2v34.8l-62-34.8h62Z"/>
      <path class="cls-16" d="M1593.9,1291.2v34.8l-62-34.8h62Z"/>
      <path class="cls-16" d="M1102.4,1291.2v34.8l62.1-34.8h-62.1Z"/>
      <path class="cls-8" d="M1593.9,1291.2v34.8l62.1-34.8h-62.1Z"/>
      <path class="cls-8" d="M1258.6,1291.2v34.8l62.1-34.8h-62.1Z"/>
      <path class="cls-8" d="M1258.6,1291.2v34.8l-62-34.8h62Z"/>
      <path class="cls-7" d="M1533,880.2h42v-163.5h-42v163.5Z"/>
      <path class="cls-1" d="M1419,880.2h139.5l21.1-191.3h-139.5l-21.1,191.3Z"/>
      <path class="cls-7" d="M1403.9,880.2h144.1l21.1-191.3h-144.1l-21.1,191.3Z"/>
      <path class="cls-11" d="M1537.6,865.1l17.8-161.2h-119.9l-17.8,161.2h119.9Z"/>
      <path class="cls-16" d="M1008.8,1508.9c432.1,0,782.4-20.5,782.4-45.8s-350.3-45.8-782.4-45.8-782.4,20.5-782.4,45.8,350.3,45.8,782.4,45.8Z"/>
      <g id="like">
        <path class="cls-17" d="M407.6,1011.5c0-23.8,9.4-46.6,26.2-63.4,16.8-16.8,39.5-26.3,63.2-26.3h6.7c-22,0-43.2-8.4-59.5-23.2-16.3-14.9-26.5-35.3-28.6-57.3-5.2-53.5,36.9-97.5,90.4-97.5h43.1l312-29c6.6-.6,13-2.5,18.9-5.6,5.8-3.1,11-7.4,15.1-12.6,4.1-5.2,7.2-11.2,9-17.6s2.3-13.1,1.4-19.7c-5.4-40.8-10.7-91.2-12.1-138.9-3.1-105.3,66.2-234.9,162.7-188.4,39.1,18.8,15.6,149.4,34.4,201,16.6,45.6,158.2,169.6,226,272.4,17.9,27.2,43.4,48.5,73.3,61.1v478.1l-32,32.1c-25,25.1-54.7,45-87.3,58.6-32.7,13.6-67.7,20.6-103,20.6h-563.5c-45.4,0-85.1-33.4-90.4-78.7-1.4-12.5-.2-25.1,3.5-37.1,3.8-12,10-23,18.3-32.4,8.3-9.4,18.5-16.9,29.9-22.1,11.4-5.2,23.8-7.8,36.3-7.8h-63.2c-45.4,0-85.1-33.3-90.4-78.6-1.4-12.5-.2-25.1,3.5-37.1,3.8-12,10-23,18.3-32.4,8.3-9.4,18.5-16.9,29.9-22,11.4-5.2,23.8-7.8,36.3-7.8h-40.4c-11.6,0-23-2.2-33.7-6.6-10.7-4.4-20.4-10.9-28.6-19.1-8.2-8.2-14.7-18-19.1-28.7-4.4-10.7-6.7-22.2-6.7-33.8Z"/>
        <path class="cls-4" d="M407.6,1011.5c0-23.8,9.4-46.6,26.2-63.4,16.8-16.8,39.5-26.3,63.2-26.3h6.7c-22,0-43.2-8.4-59.5-23.2-16.3-14.9-26.5-35.3-28.6-57.3-5.2-53.5,36.9-97.5,90.4-97.5h43.1l312-29c6.6-.6,13-2.5,18.9-5.6,5.8-3.1,11-7.4,15.1-12.6,4.1-5.2,7.2-11.2,9-17.6s2.3-13.1,1.4-19.7c-5.4-40.8-10.7-91.2-12.1-138.9-3.1-105.3,66.2-234.9,162.7-188.4,39.1,18.8,15.6,149.4,34.4,201,16.6,45.6,158.2,169.6,226,272.4,17.9,27.2,43.4,48.5,73.3,61.1v478.1l-32,32.1c-25,25.1-54.7,45-87.3,58.6-32.7,13.6-67.7,20.6-103,20.6h-563.5c-45.4,0-85.1-33.4-90.4-78.7-1.4-12.5-.2-25.1,3.5-37.1,3.8-12,10-23,18.3-32.4,8.3-9.4,18.5-16.9,29.9-22.1,11.4-5.2,23.8-7.8,36.3-7.8h-63.2c-45.4,0-85.1-33.3-90.4-78.6-1.4-12.5-.2-25.1,3.5-37.1,3.8-12,10-23,18.3-32.4,8.3-9.4,18.5-16.9,29.9-22,11.4-5.2,23.8-7.8,36.3-7.8h-40.4c-11.6,0-23-2.2-33.7-6.6-10.7-4.4-20.4-10.9-28.6-19.1-8.2-8.2-14.7-18-19.1-28.7-4.4-10.7-6.7-22.2-6.7-33.8Z"/>
        <path class="cls-17" d="M1405.7,1455.8h182.6c27.9,0,50.6-22.7,50.6-50.8v-573.6c0-28-22.6-50.7-50.6-50.7h-182.6c-27.9,0-50.6,22.7-50.6,50.7v573.6c0,28,22.6,50.8,50.6,50.8Z"/>
        <path class="cls-17" d="M1655.1,1030.4h-4.6v22.3h4.6v-22.3Z"/>
        <path class="cls-17" d="M1655.1,959.2h-4.6v53.3h4.6v-53.3Z"/>
      </g>
      <path class="cls-2" d="M902.2,683.9c-3.4,8.5-9,15.8-16.2,21.3-7.3,5.5-15.9,8.8-25,9.6l-129.1,12.2c-10.3,8.8-18.2,16.8-23.5,22-21.9,21.9-76.7,109.3,19.2,205.9,62.3,62.7,185.5-211.5,174.6-271Z"/>
      <path class="cls-15" d="M756.8,466.3l-11.5,48.8c-3.8,16.2-7.6,32.4-11,48.6-.8,4-1.7,8.1-2.5,12.1l-1,5.3c-.3,1.6-.4,3.3-.6,5.1-.5,7.4-.2,14.8.8,22.1,2.2,15.8,5.8,31.4,10.6,46.7l-15.3,7.8c-9.7-15.1-17.1-31.6-22-48.9-2.6-9.2-4.1-18.6-4.5-28.1v-7.6c0-2.6.4-5.3.7-7.2.5-4.3,1.1-8.6,1.7-12.9,2.5-17.1,5.7-33.8,9.2-50.5,3.5-16.7,7.2-33.2,11.5-49.7l33.9,8.5Z"/>
      <path class="cls-17" d="M746.2,417.2c-25.2,7.6-37.9,63.3-37.9,63.3l50.4,11.5s17.3-22,16.7-44.5c-.5-19.9-9.3-36.2-29.1-30.3Z"/>
      <path class="cls-3" d="M748.8,463.4c-3.1,8-5.2,16.4-6.1,24.9l13.3,3-7.2-27.9Z"/>
      <path class="cls-17" d="M746.2,417.2s-16.1,6.4,24.2,206.6l138.8-5.4c-4.5-56.7-5.9-91.5,16.6-208.9-19.6-3.3-39.4-5.1-59.2-5.5-21-.7-42.1.1-63,2.4-27,3.4-57.4,10.9-57.4,10.9Z"/>
      <path class="cls-3" d="M922.5,427.4c-12.1,5.5-21.8,15.2-27.4,27.3-6.5,15.5,10.7,46.9,14.8,53.9,2.4-21.9,6.5-48,12.5-81.3Z"/>
      <path class="cls-11" d="M810.5,473.5c-22.6,0-32-9.6-35.8-17.7-7.2-15.3,1-33.9,9.2-46.9.1,0,.2-.2.4-.2s.3,0,.4.2c.1,0,.2.2.3.4,0,.2,0,.3,0,.4-8.1,12.7-16.1,31-9.1,45.8,3.7,7.8,12.7,17,34.7,17h4c20.5-.9,36.7-7.9,48.4-20.7,11.2-13.2,17.2-30,17-47.3,0-.1,0-.3.2-.4.1-.1.2-.2.4-.2s.3,0,.4.2c.1.1.2.2.2.4.2,17.6-6,34.7-17.3,48.1-11.8,13-28.2,20.3-49.1,21h-4.2Z"/>
      <g id="head">
        <path class="cls-10" d="M892.8,390.3c-5.3,3.6-11.3,6.1-17.6,7.4,3.8-8.6,4.4-18.4,1.5-27.4,0,5.5-4.7,19.1-14.2,30.1-22.2,3.9-44.8,3.9-66.9,0-9.9-10-15.6-22.4-16.1-27.8-1.8,7.9-1,16.2,2.3,23.6-5.3-2-9.9-5.5-13.3-10.1-15.5-23.8,4.2-37.5-2.6-54.8-6.8-17.3-23.6-74.5,21.9-78.4,11.4-24.3,72.6-26,95.6,5.7,24.8,34.1,2.8,64.8,10.4,79.7,8.4,16.3,15.9,38.4-.8,52.1Z"/>
        <path class="cls-15" d="M858,340.4c-3.2,20.5-6.1,50.3,8.7,63.4,0,0,2.7,52.7-52.5,55.1-55.2,2.5-10.5-52.6-10.5-52.6,22.4-6.3,21.5-15.5,16.9-31.1l37.3-34.7Z"/>
        <path class="cls-3" d="M842.7,354.6l-22.1,20.5c1.1,3.6,1.9,7.4,2.4,11.1,8.4.7,20.2-5.8,22.4-15.1,1.8-7.1.3-15.4-2.7-16.6Z"/>
        <path class="cls-15" d="M867.6,293.4c2.8,33.9,4.7,48.2-9.8,68-21.8,29.7-63.9,25.7-76.7-6.8-11.5-29.2-14.1-79.8,16.7-98,6.8-4,14.5-6.2,22.4-6.4,7.9-.2,15.7,1.6,22.7,5.3,7,3.7,12.9,9.1,17.2,15.7,4.3,6.6,6.9,14.2,7.4,22.1Z"/>
        <path class="cls-10" d="M815.6,310.1c.4,2.8-.8,5.2-2.5,5.4s-3.6-1.7-4-4.5c-.5-2.8.8-5.1,2.5-5.4,1.8-.3,3.6,1.8,4,4.5Z"/>
        <path class="cls-10" d="M784.7,314.6c.4,2.7-.7,5.1-2.5,5.4-1.8.3-3.6-1.8-4-4.5-.5-2.7.7-5.2,2.5-5.4,1.8-.2,3.7,1.8,4.1,4.5Z"/>
        <path class="cls-10" d="M781.6,310.1l-6.8-1s4.1,4.7,6.8,1Z"/>
        <path class="cls-9" d="M795,318.1c-1.5,6.6-4,12.9-7.2,18.9,1.5.8,3.2,1.3,5,1.3s3.5-.2,5.1-.9l-2.8-19.3Z"/>
        <path class="cls-10" d="M814.1,346c-1.3.4-2.7.7-4,.9-.1,0-.2,0-.3,0-.1,0-.2,0-.3-.1,0,0-.2-.1-.2-.2,0,0,0-.2-.1-.3,0-.1,0-.2,0-.3,0-.1,0-.2.1-.3,0,0,.1-.2.2-.2,0,0,.2,0,.3,0,3.4-.4,6.7-1.7,9.5-3.6,2.9-1.9,5.2-4.5,6.9-7.5,0-.2.2-.3.4-.4.2,0,.4,0,.6,0,0,0,.2.1.3.2,0,0,.1.2.2.3,0,.1,0,.2,0,.3,0,.1,0,.2,0,.3-1.4,2.7-3.4,5-5.7,6.9-2.3,1.9-5,3.3-7.9,4.2Z"/>
        <path class="cls-10" d="M835.5,284.4c-2.2,16.2,10.6,37.8,29.8,43.1-5.5-4.3-.3-20.6,5.7-29.4,9.3-13.6-33.1-31.3-35.5-13.6Z"/>
        <path class="cls-10" d="M770,273.5c9.5,13.4,52.9,22.5,70.5,13.2-6.9.7-29.7-18.5-31.3-29-2.5-16.3-49.6,1.4-39.2,15.9Z"/>
        <path class="cls-10" d="M804.1,271.1c14.6,20.2,51.5,38.3,75.4,34.2-17.8-7.5-5.4-31.5-13.9-45.2-13.2-21.1-85.8-22.4-61.5,11Z"/>
        <path class="cls-15" d="M877.3,314.9c-.5,6.6-3.5,12.7-8.4,17.1-6.6,5.7-13.6.7-14.8-7.5-1.1-7.4,1-19.2,9-21.7,1.8-.5,3.7-.6,5.5-.2,1.8.4,3.5,1.2,4.9,2.4,1.4,1.2,2.5,2.8,3.2,4.5.7,1.7.9,3.6.7,5.5Z"/>
        <path class="cls-10" d="M825,300.2c-.3.2-.6.2-1,.2-.3,0-.6-.2-.9-.5-5.2-5.4-14.8-4-14.9-4-.2,0-.4,0-.6,0-.2,0-.4-.1-.6-.3-.2-.1-.3-.3-.4-.5-.1-.2-.2-.4-.2-.6,0-.2,0-.4,0-.6,0-.2.1-.4.3-.6.1-.2.3-.3.5-.4.2-.1.4-.2.6-.2.4,0,11.3-1.8,17.7,4.8.3.3.5.7.5,1.2s-.2.8-.5,1.2c0,.2-.2.4-.4.4Z"/>
        <path class="cls-10" d="M769.7,301.2c-.3.1-.7.1-1.1,0-.3-.1-.6-.4-.8-.7-.2-.3-.3-.7-.2-1,0-.4.2-.7.5-1,1.7-1.9,3.8-3.4,6.2-4.4,2.4-1,5-1.3,7.5-1.1.2,0,.4.1.6.2.2.1.3.3.5.4.1.2.2.4.3.6s0,.4,0,.6c0,.2-.1.4-.2.6s-.3.3-.4.5c-.2.1-.4.2-.6.3-.2,0-.4,0-.6,0-2-.2-4.1.2-5.9.9-1.9.8-3.5,2-4.9,3.5-.2.2-.4.4-.7.5Z"/>
        <path class="cls-10" d="M812.4,305.6l-6.8-.9s4.1,4.7,6.8.9Z"/>
      </g>
      <g class="cls-6">
        <path d="M773.1,1017.6l-22.6,25.8,37.2,24.6,21.8-26.3-36.3-24.1Z"/>
      </g>
      <path class="cls-15" d="M839.8,1061.9l-22.6,25.8-66.7-44.3,22.6-25.8,66.7,44.3Z"/>
      <path class="cls-10" d="M812.8,1088.2l14.7-35.6c.3-.6.7-1.1,1.3-1.4.6-.3,1.3-.4,1.9-.2l29.7,7.7c.7.2,1.4.6,2,1.1.6.5,1.1,1.1,1.4,1.8.3.7.5,1.5.5,2.2,0,.8-.1,1.6-.4,2.3-5.3,12.2-8.6,18-15,33.7-4,9.6-8.8,30.4-14.3,43.7-5.5,13.3-18.9,8.6-17.8,2.5,3.7-17.2,2.2-35.2-4.3-51.6-.6-2-.5-4.2.2-6.1Z"/>
      <path class="cls-10" d="M773.5,622.2s-157.4,104-169.5,194.4c-14.4,107.6,169.5,250.4,169.5,250.4l30.8-35.1s-121.8-97.2-116.5-193c36.8-78.8,214.1-145.4,174.4-220.8l-88.7,4.1Z"/>
      <path class="cls-17" d="M809.7,1029.6l-38.3,43.5-17.7-7.4,42.7-53.3,13.3,17.2Z"/>
      <path class="cls-17" d="M810.1,1106.5l-.4.2c-.7.3-1.5.4-2.3.4-.8,0-1.5-.3-2.2-.8-.4-.2-.8-.6-1.1-1-.3-.4-.4-.9-.4-1.4,0-4.4,10-11.4,11.2-12.2.1,0,.3-.1.4-.1s.3,0,.4.1c.1,0,.2.2.3.4,0,.1,0,.3,0,.5-.7,4.3-2.4,11.8-6.1,13.9ZM814.1,1094.3c-4,2.9-9,7.4-8.9,9.7,0,.2,0,.4.2.6.1.2.3.3.5.4.4.3.9.5,1.5.6.5,0,1.1,0,1.5-.2,2.2-1.1,4.2-5.2,5.3-11.2v.2Z"/>
      <path class="cls-17" d="M814.9,1093.5c-3.7,2.2-11.4,4.3-14.4,2.3-.5-.3-.9-.9-1.1-1.5-.2-.6-.2-1.3,0-1.9.1-.6.4-1.2.8-1.6.4-.5.9-.9,1.5-1.1,4.5-2.2,13.6,1.5,14,1.7.1,0,.2.2.3.3,0,.1.1.2.2.4,0,.1,0,.3,0,.4,0,.1-.1.3-.3.3l-1,.7ZM802.3,1091.3c-.3.2-.6.4-.8.7-.2.3-.4.6-.5.9-.3,1,0,1.4.4,1.6,2,1.3,8.6,0,12.1-2.2-3.5-1.6-7.4-2-11.2-1.2h0Z"/>
      <path class="cls-3" d="M790.4,671.2l-37.9,96.8c-23.2,19-44.4,38.4-57.7,58.5-1.6-6.6-2.3-13.4-2.1-20.2,1-36,52.4-111.9,97.7-135.1Z"/>
      <path class="cls-15" d="M794,1188l-34.2-.2-10.5-79.5,34.2.2,10.5,79.5Z"/>
      <path class="cls-10" d="M757.2,1189.9l33.5-18.8c.6-.3,1.3-.5,1.9-.3.7.1,1.2.5,1.6,1l18.6,24.6c.5.6.8,1.4.9,2.1s.1,1.6,0,2.3c-.2.8-.5,1.5-1,2.1-.5.6-1.1,1.2-1.8,1.5-11.8,6.3-17.8,8.8-32.6,17.1-9.1,5.1-25.7,18.3-38.3,25.3s-20.2-5.1-15.5-9.1c13.6-11.2,23.5-26.3,28.5-43.2.7-2,2.2-3.7,4-4.7Z"/>
      <g class="cls-6">
        <path d="M783.6,1108.4l-34.2-.2,5.9,44.3,34.1-.9-5.7-43.2Z"/>
      </g>
      <path class="cls-10" d="M807.1,622.2s-106.6,133.9-107.6,225.3c-1.2,108.5,47,293.7,47,293.7l46.6.3s-1.3-186.3-7.7-282.2c26.8-82.8,163.5-165.7,123.8-241.1l-102.1,4Z"/>
      <path class="cls-17" d="M798.5,1144.1l-57.9-.4-6.1-18.3,68.1-2.6-4.2,21.3Z"/>
      <path class="cls-17" d="M743.7,1202.5h-.4c-.8-.2-1.5-.6-2-1.1-.6-.6-1-1.2-1.2-2-.2-.4-.3-.9-.2-1.4,0-.5.2-.9.5-1.3,2.6-3.5,14.9-2.7,16.3-2.6.2,0,.3,0,.4.2.1.1.2.2.3.4,0,.2,0,.3,0,.5,0,.1-.1.3-.2.4-3.3,2.9-9.2,7.7-13.5,7.1ZM754.6,1195.5c-4.9-.2-11.6.2-13,2.1-.1.2-.2.4-.2.6s0,.4.2.6c.1.5.4,1,.8,1.3.4.4.8.6,1.4.8,2.2.6,6.2-1.5,10.8-5.4Z"/>
      <path class="cls-17" d="M755.4,1195.5c-4-.6-11.6-3.7-12.7-7.1-.2-.6-.2-1.3,0-1.9.2-.6.7-1.1,1.2-1.4.5-.4,1.1-.6,1.7-.8.6-.1,1.2-.1,1.8,0,4.8,1.1,9.7,9.7,9.9,10,0,.1,0,.3,0,.4s0,.3,0,.4c0,.1-.2.2-.3.3-.1,0-.3.1-.4.1h-1.3ZM746.9,1185.8c-.7,0-1.4,0-2,.5-.8.6-.8,1.1-.7,1.5.7,2.3,6.8,5.2,10.9,5.9-1.8-2.8-5.1-7.2-8.1-7.9h-.2Z"/>
      <path class="cls-15" d="M731.7,642.1l25.7,10.1-16.6,20.6c-4.1-1.1-7.9-3.2-11-6.1-3.1-2.9-5.5-6.5-6.9-10.6l8.8-14Z"/>
      <path class="cls-15" d="M766,663.3l-8.8,22.9-16.4-13.4,16.6-20.6,8.6,11.1Z"/>
      <path class="cls-11" d="M911,610l4,12.2c.5,1-.6,2-2.2,2.1l-142.9,5.5c-1.3,0-2.3-.5-2.4-1.3l-1.7-12.4c0-.9,1-1.6,2.3-1.7l140.6-5.4c.4,0,.9,0,1.3.3.4.2.7.5,1,.9Z"/>
      <path class="cls-17" d="M892.3,626.5h3.8c.7,0,1.3-.4,1.2-.9l-2.4-16.2c0-.5-.7-.8-1.5-.8h-3.8c-.8,0-1.3.4-1.3.9l2.4,16.2c0,.5.7.9,1.5.9Z"/>
      <path class="cls-17" d="M780.6,630.8h3.8c.8,0,1.3-.4,1.3-.9l-2.4-16.2c0-.5-.8-.8-1.5-.8h-3.8c-.7,0-1.3.4-1.2.9l2.4,16.2c0,.5.7.8,1.5.8Z"/>
      <path class="cls-17" d="M836.2,628.7h3.8c.7,0,1.3-.4,1.2-.9l-2.4-16.2c0-.5-.7-.9-1.5-.8h-3.8c-.8,0-1.3.4-1.3.9l2.4,16.2c0,.5.6.9,1.5.8Z"/>
      <path class="cls-17" d="M695.8,662.3l-40.4,29.3c-.5.4-.9.9-1.2,1.5-.2.6-.2,1.3,0,1.9.2.6.5,1.2,1,1.6.5.4,1.1.6,1.8.7l193.3-1.7c2.5,0,4.8-1,6.5-2.8l29.1-28.8c.5-.4.8-1,1-1.6.2-.6.1-1.3-.1-1.9-.2-.6-.6-1.1-1.1-1.5-.5-.4-1.1-.6-1.8-.5l-188,3.8Z"/>
      <path class="cls-5" d="M695.8,662.3l-40.4,29.3c-.5.4-.9.9-1.2,1.5-.2.6-.2,1.3,0,1.9.2.6.5,1.2,1,1.6.5.4,1.1.6,1.8.7l193.3-1.7c2.5,0,4.8-1,6.5-2.8l29.1-28.8c.5-.4.8-1,1-1.6.2-.6.1-1.3-.1-1.9-.2-.6-.6-1.1-1.1-1.5-.5-.4-1.1-.6-1.8-.5l-188,3.8Z"/>
      <path class="cls-3" d="M695.8,662.3l-40.4,29.3c-.5.4-.9.9-1.2,1.5-.2.6-.2,1.3,0,1.9.2.6.5,1.2,1,1.6.5.4,1.1.6,1.8.7l193.3-1.7c2.5,0,4.8-1,6.5-2.8l29.1-28.8c.5-.4.8-1,1-1.6.2-.6.1-1.3-.1-1.9-.2-.6-.6-1.1-1.1-1.5-.5-.4-1.1-.6-1.8-.5l-188,3.8Z"/>
      <path class="cls-15" d="M875.3,647.6l-29.7-.9,21.6,27.4s16.5-4.6,19.8-18.5l-11.7-8Z"/>
      <path class="cls-15" d="M822.4,663.8l19.3,21.9,25.5-11.6-21.6-27.4-23.2,17.1Z"/>
      <path class="cls-17" d="M624.1,563.6l201-2.1c1.2,0,2.4.5,3.4,1.2,1,.8,1.6,1.9,1.9,3.1l23.6,121.1c.1.5.1,1.1,0,1.6-.1.5-.4,1-.7,1.5-.3.4-.8.8-1.3,1-.5.2-1.1.3-1.6.3l-201,2.1c-1.2,0-2.4-.5-3.4-1.3-1-.8-1.6-1.9-1.9-3.1l-23.6-121.1c-.1-.5-.1-1.1,0-1.6.1-.5.4-1,.7-1.5.3-.4.8-.8,1.3-1,.5-.2,1.1-.3,1.6-.3Z"/>
      <path class="cls-5" d="M624.1,563.6l201-2.1c1.2,0,2.4.5,3.4,1.2,1,.8,1.6,1.9,1.9,3.1l23.6,121.1c.1.5.1,1.1,0,1.6-.1.5-.4,1-.7,1.5-.3.4-.8.8-1.3,1-.5.2-1.1.3-1.6.3l-201,2.1c-1.2,0-2.4-.5-3.4-1.3-1-.8-1.6-1.9-1.9-3.1l-23.6-121.1c-.1-.5-.1-1.1,0-1.6.1-.5.4-1,.7-1.5.3-.4.8-.8,1.3-1,.5-.2,1.1-.3,1.6-.3Z"/>
      <path class="cls-3" d="M830.4,565.8l23.6,121.1c.1.5.1,1.1,0,1.6-.1.5-.4,1-.7,1.5-.3.4-.8.8-1.3,1-.5.2-1.1.3-1.6.3l-25.4-129.6c1.2,0,2.4.4,3.3,1.2,1,.7,1.7,1.8,2,2.9Z"/>
      <path class="cls-15" d="M934,442.3c1.1,3,1.8,5.2,2.6,7.7.8,2.5,1.4,4.9,2.1,7.4,1.3,4.9,2.4,9.8,3.4,14.7,1.9,9.8,3.2,19.6,4.2,29.5.9,9.9,1.3,19.9,1.2,29.8,0,4.9-.3,9.9-.5,14.9l-.6,7.5-.3,3.7-.6,4.5c-1.9,10.7-5.4,21.1-10.4,30.8-4.5,9-9.6,17.6-15.3,25.9-5.6,8.1-11.6,15.8-17.8,23.2-6.2,7.5-12.7,14.5-19.9,21.3l-13-11.4c5-7.5,10.2-15.3,14.9-23.1,4.7-7.8,9.4-15.7,13.5-23.7,4.1-7.8,7.8-15.8,11-24,3-7.4,5-15.1,5.9-23v-12.6c0-4.5,0-8.9-.4-13.3-.4-8.9-1.3-17.8-2.3-26.6-1-8.8-2.7-17.6-4.5-26.2-.8-4.3-1.9-8.6-2.9-12.8l-1.7-6.3c-.5-2-1.3-4-1.7-5.7l33.1-12Z"/>
      <path class="cls-17" d="M925.9,409.3c27.6,6.1,26.6,72.3,26.6,72.3l-58.4,4.7s-9.8-40.5-1.9-57.8c7.9-17.3,18.4-22.6,33.6-19.2Z"/>
      <g id="heart">
        <path class="cls-17" d="M642.7,421.6h-101.5c-3,0-5.9,1.2-8.1,3.4-2.1,2.2-3.3,5.1-3.3,8.1v48.8c0,3,1.2,6,3.3,8.1,2.1,2.2,5,3.4,8.1,3.4h80.2l17,17.1v-17.1h4.2c3,0,6-1.2,8.1-3.4,2.1-2.2,3.4-5.1,3.4-8.1v-48.6c0-1.5-.2-3-.8-4.5-.6-1.4-1.4-2.7-2.5-3.8-1.1-1.1-2.3-2-3.7-2.5-1.4-.6-2.9-.9-4.4-.9Z"/>
        <path class="cls-11" d="M609.3,442.1c-1.1-1.1-2.5-2.1-3.9-2.7-1.5-.6-3.1-.9-4.7-.9s-3.2.3-4.7.9c-1.5.6-2.8,1.5-3.9,2.7-2.3-2.3-5.4-3.6-8.6-3.6s-6.3,1.3-8.6,3.6c-2.3,2.3-3.6,5.4-3.6,8.7s1.3,6.4,3.6,8.7l17.3,17.3,17.2-17.3c1.1-1.1,2.1-2.5,2.7-4s.9-3.1.9-4.7-.3-3.2-.9-4.7-1.5-2.8-2.7-4Z"/>
      </g>
    </g>
  </g>
</svg>