<?xml version="1.0" encoding="UTF-8"?>
<svg id="Layer_1" data-name="Layer 1" xmlns="http://www.w3.org/2000/svg" xmlns:xlink="http://www.w3.org/1999/xlink" version="1.1" viewBox="0 0 408 304">
  <defs>
    <style>
      .cls-1 {
        fill: #d4e1fd;
      }

      .cls-1, .cls-2, .cls-3, .cls-4, .cls-5, .cls-6, .cls-7, .cls-8, .cls-9, .cls-10, .cls-11, .cls-12, .cls-13, .cls-14, .cls-15, .cls-16, .cls-17, .cls-18, .cls-19, .cls-20, .cls-21, .cls-22, .cls-23, .cls-24, .cls-25, .cls-26, .cls-27 {
        stroke-width: 0px;
      }

      .cls-2, .cls-5, .cls-6 {
        fill: #BBD9FF;
      }

      .cls-28 {
        fill: none;
        stroke: url(#linear-gradient);
      }

      .cls-3 {
        fill: #f5f5f5;
      }

      .cls-4 {
        fill: #BBD9FF;
      }

      .cls-7, .cls-9, .cls-14, .cls-15, .cls-17, .cls-20, .cls-22, .cls-24, .cls-26, .cls-27 {
        isolation: isolate;
      }

      .cls-7, .cls-14, .cls-29 {
        opacity: .6;
      }

      .cls-7, .cls-15, .cls-16, .cls-17, .cls-20, .cls-22, .cls-26 {
        fill: #000;
      }

      .cls-8 {
        fill: #EEF4FC;
      }

      .cls-9, .cls-14, .cls-23, .cls-24, .cls-27 {
        fill: #fff;
      }

      .cls-9, .cls-30, .cls-26 {
        opacity: .2;
      }

      .cls-10 {
        fill: #561616;
      }

      .cls-11 {
        fill: #fafafa;
      }

      .cls-12 {
        fill: url(#background-gradient);
        animation: colorChange 40s linear infinite;
      }

      .cls-13 {
        fill: #e0e0e0;
      }

      .cls-15 {
        opacity: .1;
      }

      .cls-17 {
        opacity: .5;
      }

      .cls-18 {
        fill: #f0f0f0;
      }

      .cls-19 {
        fill: #012E71;
      }

      .cls-20, .cls-24 {
        opacity: .3;
      }

      .cls-21 {
        fill: #542f2f;
      }

      .cls-22 {
        opacity: .7;
      }

      .cls-25 {
        fill: #e6e6e6;
      }

      .cls-27 {
        opacity: .4;
      }

      /* Stroke Animation */
      .cls-1, .cls-21, .cls-8, .cls-7, .cls-4, .cls-9 {
        stroke-dasharray: 1000;
        stroke-dashoffset: 1000;
        animation: dash 10s linear forwards;
      }

      @keyframes dash {
        to {
          stroke-dashoffset: 2;
        }
      }

/* Fill Animation */
.cls-3, .cls-4, .cls-7, .cls-9 {
  animation: fillAnimation 20s ease-in-out infinite;
}

@keyframes fillAnimation {
  0%, 100% {
    fill: #f5f5f5;
  }
  10%, 90% {
    fill: #EEF4FC; /* Pale Blue */
  }
  20%, 80% {
   fill: #BBD9FF; /* Light Blue */
  }
  30%, 70% {
    fill: #4092FF; /* Medium Blue */
  }
  40%, 60% {
    fill: #0045B6; /* Dark Blue */
  }
  50% {
    fill: #012E71; /* Very Dark Blue */
  }
}
/* Movement Animation */
.cls-19 {
  fill: #EEF4FC;
  animation: moveAnimation 20s ease-in-out infinite;
}

@keyframes moveAnimation {
  0%, 100% {
    transform: translateX(0);
  }
  50% {
    transform: translateX(20px); /* Slight horizontal movement */
  }
}
    </style>
  </defs>
  <g>
    <!-- Background Rectangle -->
    <rect class="cls-12" x="0" y="0" width="100%" height="100%"/>
  </g>
  <g> 
    <path class="cls-18" d="M-4-41c0-8.3,6.7-15,15-15h385c8.3,0,15,6.7,15,15v385c0,8.3-6.7,15-15,15H11c-8.3,0-15-6.7-15-15V-41Z"/>
    <path class="cls-28" d="M11-55.5h385c8,0,14.5,6.5,14.5,14.5v385c0,8-6.5,14.5-14.5,14.5H11c-8,0-14.5-6.5-14.5-14.5V-41c0-8,6.5-14.5,14.5-14.5Z"/>
  </g>
  <path class="cls-25" d="M.7,266.9h407.2v.2H.7v-.2Z"/>
  <path class="cls-25" d="M286.6,276.6h79.2v.2h-79.2v-.2Z"/>
  <path class="cls-25" d="M207,272.1h41.9v.2h-41.9v-.2Z"/>
  <path class="cls-25" d="M115.2,274.5h23.7v.2h-23.7v-.2Z"/>
  <path class="cls-25" d="M85.8,274.5h11.3v.2h-11.3v-.2Z"/>
  <path class="cls-25" d="M265.7,276.6h13v.2h-13v-.2Z"/>
  <path class="cls-25" d="M45,274.5h34.1v.2h-34.1v-.2Z"/>
  <path class="cls-25" d="M214.8,230.6h157.2c1.2,0,2.4-.5,3.3-1.4.9-.9,1.4-2.1,1.4-3.3V4.9c0-1.2-.5-2.4-1.4-3.3-.9-.9-2-1.3-3.3-1.4h-157.2c-1.2,0-2.4.5-3.3,1.4-.9.9-1.4,2.1-1.4,3.3v221c0,1.2.5,2.4,1.4,3.3.9.9,2.1,1.4,3.3,1.4ZM372.1.4c1.2,0,2.3.5,3.1,1.3.8.8,1.3,2,1.3,3.1v221c0,1.2-.5,2.3-1.3,3.1-.8.8-2,1.3-3.1,1.3h-157.2c-1.2,0-2.3-.5-3.1-1.3-.8-.8-1.3-2-1.3-3.1V4.9c0-1.2.5-2.3,1.3-3.1.8-.8,2-1.3,3.1-1.3h157.2Z"/>
  <path class="cls-25" d="M38.7,230.6h157.3c1.2,0,2.4-.5,3.3-1.4.9-.9,1.4-2.1,1.4-3.3V4.9c0-1.2-.5-2.4-1.4-3.3-.9-.9-2-1.3-3.3-1.3H38.7c-1.2,0-2.4.5-3.3,1.4-.9.9-1.4,2-1.4,3.3v221c0,1.2.5,2.4,1.4,3.3.9.9,2,1.4,3.3,1.4ZM195.9.4c1.2,0,2.3.5,3.1,1.3.8.8,1.3,2,1.3,3.1v221c0,1.2-.5,2.3-1.3,3.1-.8.8-2,1.3-3.1,1.3H38.7c-1.2,0-2.3-.5-3.1-1.3-.8-.8-1.3-2-1.3-3.1V4.9c0-1.2.5-2.3,1.3-3.1.8-.8,2-1.3,3.1-1.3h157.3Z"/>
  <path class="cls-3" d="M121.1,155.9h57.1v111h-57.1v-111Z"/>
  <path class="cls-4" d="M121.1,155.9h4.7v111h-4.7v-111Z"/>
  <path class="cls-4" d="M305.1,183.1h-131.4v-24h131.4v24Z"/>
  <path class="cls-25" d="M250.3,267h56.3c.2,0,.4,0,.6-.2.2-.2.2-.4.2-.6s0-.4-.2-.6c-.2-.2-.4-.2-.6-.2h-56.3c-8.1,0-9.2-2.4-9.2-11.8v-118.9c0-.2,0-.4-.2-.6-.2-.2-.4-.2-.6-.2s-.4,0-.6.2c-.2.2-.2.4-.2.6v118.9c0,10.1,1.6,13.4,10.9,13.4Z"/>
  <path class="cls-4" d="M298.8,164.2H121.1v-8.3h177.7v8.3Z"/>
  <path class="cls-3" d="M298.8,155.9h57.1v111h-57.1v-111Z"/>
  <path class="cls-4" d="M298.8,155.9h4.7v111h-4.7v-111Z"/>
  <path class="cls-1" d="M56.3,15.5h200.3v129.3H56.3V15.5Z"/>
  <path class="cls-18" d="M53.3,15.5h201.9v129.3H53.3V15.5Z"/>
  <path class="cls-25" d="M56.3,144.8h200.3v2.9H56.3v-2.9Z"/>
  <path class="cls-3" d="M39.5,144.8h195.3v2.9H39.5v-2.9Z"/>
  <path class="cls-11" d="M57.5,139.3V20.9h193.4v118.3H57.5Z"/>
  <path class="cls-23" d="M203.8,139.3l-24.8-118.3h-31.6l24.8,118.3h31.6Z"/>
  <path class="cls-23" d="M163.2,139.3l-24.8-118.3h-14.7l24.8,118.3h14.7Z"/>
  <path class="cls-1" d="M57.5,126.9V20.2h.5v106.7h-.5Z"/>
  <path class="cls-4" d="M256.4,12H53.1c-.9,0-1.7.3-2.3,1-.6.6-1,1.5-1,2.3v119.8c18.7,0,97.6-17.5,104.4-34.9,7,17.4,86.8,34.9,105.5,34.9V15.3c0-.4,0-.9-.3-1.3-.2-.4-.4-.8-.7-1.1-.3-.3-.7-.6-1.1-.7-.4-.2-.8-.2-1.3-.2Z"/>
  <path class="cls-12" d="M154.2,12s0,0-.1,0c0,0,0,0,0,0,0,0,0,0,0,0,0,0,0,0,0,.1v88.1s0,0,0,.1c0,0,0,0,0,0,0,0,0,0,0,0,0,0,0,0,.1,0,0,0,.1,0,.2,0s0-.1,0-.2V12.2c0,0,0-.1,0-.2s-.1,0-.2,0Z"/>
  <path class="cls-13" d="M307.9,12h40.2v60h-40.2V12Z"/>
  <path class="cls-3" d="M302.1,12h45v60h-45V12Z"/>
  <path class="cls-23" d="M306.8,67.3V16.6h35.7v50.7h-35.7Z"/>
  <path class="cls-4" d="M331.9,52.3v-6.1c0-3.8-1.5-7.5-4.2-10.3-2.7-2.7-6.4-4.2-10.3-4.2v6.1c0,1.9.4,3.8,1.1,5.6.7,1.8,1.8,3.4,3.1,4.7,1.3,1.4,2.9,2.4,4.7,3.2s3.7,1.1,5.6,1.1Z"/>
  <path class="cls-25" d="M247,155.9h12.3l-3-24h-12.3l3,24Z"/>
  <path class="cls-3" d="M244.3,155.9h12.3l-3-24h-12.3l3,24Z"/>
  <path class="cls-25" d="M217.9,155.9h8.9l1.7-2.7h-8.9l-1.7,2.7Z"/>
  <path class="cls-3" d="M170.2,155.9h53.9l1.7-2.7h-48.3l-7.3,2.7Z"/>
  <path class="cls-18" d="M286,149h-3.9c-.9,0-1.8.2-2.6.5-.8.3-1.6.9-2.2,1.5-.6.6-1.1,1.4-1.5,2.2-.3.8-.5,1.7-.5,2.6h17.6c0-.9-.2-1.8-.5-2.6-.3-.8-.9-1.6-1.5-2.2-.6-.6-1.4-1.1-2.2-1.5-.8-.3-1.7-.5-2.6-.5Z"/>
  <path class="cls-25" d="M242.8,143.9h12.3l-1.5-12h-12.3l1.5,12Z"/>
  <path class="cls-25" d="M288,141.1h-87.1c-.2,0-.3,0-.5-.1-.2,0-.3-.2-.4-.3-.1-.1-.2-.3-.2-.4s0-.3,0-.5l6.7-53.7c0-.3.2-.6.4-.8.2-.2.5-.3.8-.3h87.1c.2,0,.3,0,.5.1.2,0,.3.2.4.3.1.1.2.3.2.4,0,.2,0,.3,0,.5l-6.7,53.7c0,.3-.2.6-.4.8-.2.2-.5.3-.8.3Z"/>
  <path class="cls-3" d="M286.7,141.1h-87.1c-.2,0-.3,0-.5-.1-.2,0-.3-.2-.4-.3-.1-.1-.2-.3-.2-.4,0-.2,0-.3,0-.5l6.7-53.7c0-.3.2-.6.4-.8.2-.2.5-.3.8-.3h87.1c.2,0,.3,0,.5.1.2,0,.3.2.4.3.1.1.2.3.2.4,0,.2,0,.3,0,.5l-6.7,53.7c0,.3-.2.6-.4.8-.2.2-.5.3-.8.3Z"/>
  <path class="cls-4" d="M201.2,138.1l6.3-50.2c0,0,0-.2.1-.2,0,0,.1,0,.2,0h83.6s0,0,.1,0c0,0,0,0,.1,0,0,0,0,0,0,.1,0,0,0,0,0,.1l-6.3,50.3c0,0,0,.2-.1.2,0,0-.1,0-.2,0h-83.6s0,0-.1,0c0,0,0,0-.1,0,0,0,0,0,0-.1,0,0,0,0,0-.1Z"/>
  <path class="cls-3" d="M233.1,155.9h20v-.3c0-.5-.2-1-.6-1.4-.4-.4-.9-.6-1.4-.6h-16.1c-.5,0-1,.2-1.4.6-.4.4-.6.9-.6,1.4v.3Z"/>
  <path class="cls-25" d="M250.8,155.9h13.6v-.3c0-.5-.2-1-.6-1.4-.4-.4-.9-.6-1.4-.6h-9.6c-.5,0-1,.2-1.4.6s-.6.9-.6,1.4v.3Z"/>
  <path class="cls-4" d="M321,118.6h0c-.3-1.1-.6-2.2-.9-3.2-1.6,2.1-3.1,2.6-4.3,2.6h-.4c-2.3-.2-4.5-2.4-5.8-5.9,0-.1,0-.3,0-.4,0,0,0-.1.1-.2,0,0,.1,0,.2,0,1.6-.4,3.3-.5,5-.2,1.7.3,3.2.9,4.6,1.9-.2-1-.4-2-.5-3-.4,0-.7.1-1.1.1-3.7,0-6.4-3.3-6.5-3.5,0,0,0-.1,0-.2,0,0,0-.2,0-.2,0,0,0-.1.1-.2s.1,0,.2-.1c2.2-.9,4.1-1,5.6-.2.9.5,1.7,1.3,2.2,2.2.7-2.1,2-4,3.6-5.5,1.7-1.5,3.8-2.4,6-2.8,0,0,.1,0,.2,0,0,0,.1,0,.2,0,0,0,.1,0,.1.2,0,0,0,.1,0,.2.2,3.4,0,7.5-2.4,9.4-1.1.8-2.3,1.2-3.6,1.1-1.2,0-2.3-.2-3.5-.5.4,2.4.9,4.8,1.6,7.2,1.3-1.7,4.7-5.6,10-7,0,0,.1,0,.2,0,0,0,.1,0,.2,0,0,0,.1,0,.1.1,0,0,0,.1,0,.2.8,2.9.4,5.2-1.1,6.8-1.2,1.3-3.2,1.9-5.6,1.9-1.1,0-2.2-.1-3.3-.3.6,2,1.3,3.9,2.1,5.8,1.5-1.3,6-4.7,10.8-3.3,0,0,.1,0,.2,0,0,0,0,0,.1.2,0,0,0,.1,0,.2s0,.1,0,.2c-1.3,3.2-2.8,5-4.7,5.6-.5.2-1,.2-1.5.2-1.4,0-2.8-.5-4.1-1.2,1,2.4,2.1,4.8,3.2,6.8,1.1-1.2,4.3-3.8,9.8-2.6.1,0,.2,0,.3.2,0,0,.1.2,0,.3-.1,1-.5,2-1.1,2.8s-1.4,1.5-2.4,1.9c-.7.3-1.5.5-2.3.5-1.1,0-2.2-.3-3.1-.8,1.1,2,2.1,3.6,2.8,4.9h9.3c1.5-2.5,3.2-5.6,4.8-9.2-.8.2-1.6.4-2.4.4-1,0-2-.2-2.9-.6-.9-.4-1.7-1.1-2.3-1.8-.6-.8-1-1.7-1.2-2.7-.2-1-.2-2,0-2.9,0-.1.1-.2.2-.3,0,0,.2,0,.3,0,1.9.2,3.7.8,5.3,1.9,1.6,1,2.9,2.4,3.8,4.1,1.1-2.4,2.1-5,3.1-7.7-1.2.7-2.5,1.1-3.9,1.1-.5,0-1.1,0-1.6-.3-2.7-.9-4.3-4.2-5.6-7.6,0,0,0-.1,0-.2s0-.1,0-.2c0,0,0-.1.1-.2,0,0,.1,0,.2,0,5.5-1.5,9.9,3.7,11.3,5.6.7-2.3,1.3-4.6,1.8-6.9-1.1.2-2.3.3-3.5.3-2.8,0-5-.8-6.4-2.2-1.6-1.7-2-4.3-1.1-7.5,0-.1.1-.2.2-.3.1,0,.2,0,.4,0,5.6,1.5,9.3,5.8,10.8,7.8,0-.4.1-.8.2-1.2,0-.1,0-.2.1-.3.2-.8.6-1.5,1.1-2.2s1.2-1.2,1.9-1.5c1.6-.8,3.7-.7,6.1.3,0,0,.1,0,.2.1,0,0,0,.1,0,.2,0,0,0,.2,0,.2,0,0,0,.1-.1.2-.1.2-3.1,3.7-7.2,3.7-.4,0-.9,0-1.3-.1-.2,1.2-.4,2.3-.6,3.5,1.5-1,3.3-1.7,5.1-2,1.8-.3,3.7-.2,5.5.3,0,0,.1,0,.2,0,0,0,0,0,.1.2,0,0,0,.1,0,.2s0,.1,0,.2c-1.6,3.8-4,6.2-6.5,6.4h-.3c-1.3,0-3-.6-4.7-2.9-.7,2.6-1.5,5.3-2.4,7.8,2.4-1.1,7.6-3,11.4-.1.1,0,.2.2.2.3,0,.1,0,.3,0,.4-2.4,3.3-4.7,5-6.9,5h0c-1.8,0-3.6-1.2-5.4-3.4-1,2.5-2.1,4.9-3.2,7.1,2.4-1.5,4.9-1.2,8,.7,0,0,.1.1.2.2s0,.2,0,.2,0,.2,0,.2,0,.1-.2.2c-.2.1-3.1,2.2-6.1,2.2-1.2,0-2.3-.3-3.3-1-.8,1.7-1.6,3.2-2.4,4.6h4.2v2.4h-1.5l-1.3,12.7h-18.6l-1.3-12.7h-1.5v-2.4h8.4c-.9-1.5-2.1-3.6-3.4-6,0,0,0-.1,0-.2-.3-.6-.6-1.2-1-1.9-.6.8-1.3,1.5-2.2,2-.9.5-1.9.8-2.9.8-.2,0-.4,0-.6,0-1.1-.1-2.2-.6-3-1.2-.9-.7-1.6-1.6-1.9-2.7,0-.1,0-.2,0-.3,0-.1.1-.2.2-.3,1.4-.8,3-1.3,4.7-1.3,1.6,0,3.3.3,4.8.9-.7-1.5-1.4-3.1-2.1-4.7,0,0,0-.1,0-.2-.2-.5-.4-.9-.6-1.4-1.6,2-3.3,3-4.9,3s-4.1-1.5-6.3-4.6c0-.1-.1-.2,0-.4,0-.1,0-.2.2-.3,3.5-2.6,8.2-.8,10.4.2-.4-1.2-.8-2.5-1.2-3.7,0,0,0,0,0,0Z"/>
  <path class="cls-4" d="M148.1,211.4h-36.5c-3.3,0-6.6-1.3-9-3.7-2.4-2.3-3.8-5.5-3.8-8.9l-1.4-66.8c0-1.2.2-2.5.7-3.6.5-1.2,1.1-2.2,2-3.1.9-.9,1.9-1.6,3-2.1,1.1-.5,2.4-.7,3.6-.7h22.9c2.3,0,4.5.8,6.2,2.4,1.7,1.5,2.8,3.6,3.1,5.9l9.2,80.6Z"/>
  <path class="cls-4" d="M128.2,211.4h38.9c.5,0,.9-.2,1.3-.5.3-.3.5-.8.5-1.3v-.2c0-1.3-.5-2.6-1.5-3.5-.9-.9-2.2-1.5-3.5-1.5h-35.7v7Z"/>
  <path class="cls-13" d="M131.3,267.8c.2,0,.4,0,.5-.2.1-.1.3-.3.3-.5l11.4-55h19.9l11.4,55c0,.1,0,.2.1.3,0,0,.1.2.2.2s.2.1.3.1c.1,0,.2,0,.3,0s.2,0,.3-.1c0,0,.2-.1.2-.2,0,0,.1-.2.1-.3,0-.1,0-.2,0-.3l-11.5-55.6c0-.2-.1-.4-.3-.5-.1-.1-.3-.2-.5-.2h-21.2c-.2,0-.4,0-.5.2-.1.1-.3.3-.3.5l-11.5,55.6c0,.1,0,.2,0,.3,0,.1,0,.2.1.3,0,0,.1.2.2.2,0,0,.2.1.3.1,0,0,0,0,.1,0Z"/>
  <path class="cls-13" d="M143.6,267.8c0,0,.1,0,.2,0,.1,0,.2,0,.3-.1,0,0,.2-.1.2-.2,0,0,.1-.2.1-.3,0-.1,0-.2,0-.3l-11.5-55.6c0-.2-.1-.4-.3-.5-.1-.1-.3-.2-.5-.2h-21.2c-.2,0-.4,0-.5.2s-.3.3-.3.5l-11.5,55.6c0,.2,0,.4.1.6.1.2.3.3.5.4.2,0,.4,0,.6-.1.2-.1.3-.3.4-.5l11.4-55h19.8l11.4,55c0,.2.1.3.3.5.1.1.3.2.5.2Z"/>
  <path class="cls-3" d="M204.3,303.7c-87.2,0-157.9-4.1-157.9-9.2s70.7-9.2,157.9-9.2,157.9,4.1,157.9,9.2-70.7,9.2-157.9,9.2Z"/>
  <path class="cls-19" d="M87.1,193.2l1.2,15.4c0,.1,0,.2.2.3,0,0,.2.1.3.1h6.6c.1,0,.2,0,.3-.1,0,0,.1-.2.2-.3l.3-3.5.6-8,.3-3.9h-9.9Z"/>
  <path class="cls-26" d="M87.1,193.2l1.2,15.4c0,.1,0,.2.2.3,0,0,.2.1.3.1h6.6c.1,0,.2,0,.3-.1,0,0,.1-.2.2-.3l.3-3.5.6-8,.3-3.9h-9.9Z"/>
  <path class="cls-4" d="M86.7,192.5h10.6c.4,0,.7.3.7.7h0c0,.5-.3.8-.7.8h-10.6c-.4,0-.7-.3-.7-.7h0c0-.5.3-.8.7-.8Z"/>
  <path class="cls-19" d="M286.9,173.5h-157.5c-1.7,0-3.5.3-5.1,1s-3.1,1.6-4.3,2.9-2.2,2.7-2.9,4.3c-.7,1.6-1,3.3-1,5.1v60.3h184v-60.3c0-1.7-.3-3.5-1-5.1-.7-1.6-1.6-3.1-2.9-4.3-1.2-1.2-2.7-2.2-4.3-2.9-1.6-.7-3.3-1-5.1-1Z"/>
  <path class="cls-24" d="M286.9,173.5h-157.5c-1.7,0-3.5.3-5.1,1s-3.1,1.6-4.3,2.9-2.2,2.7-2.9,4.3c-.7,1.6-1,3.3-1,5.1v60.3h184v-60.3c0-1.7-.3-3.5-1-5.1-.7-1.6-1.6-3.1-2.9-4.3-1.2-1.2-2.7-2.2-4.3-2.9-1.6-.7-3.3-1-5.1-1Z"/>
  <path class="cls-19" d="M271.2,173.5H125.3c-3.3,0-6.6,1.3-8.9,3.7-2.4,2.4-3.7,5.6-3.7,8.9v60.9h171.1v-60.9c0-3.3-1.3-6.6-3.7-8.9-2.4-2.4-5.6-3.7-8.9-3.7Z"/>
  <path class="cls-14" d="M271.2,173.5H125.3c-3.3,0-6.6,1.3-8.9,3.7-2.4,2.4-3.7,5.6-3.7,8.9v60.9h171.1v-60.9c0-3.3-1.3-6.6-3.7-8.9-2.4-2.4-5.6-3.7-8.9-3.7Z"/>
  <path class="cls-19" d="M120.6,209h1.2c8.5.6,15.4,7.8,15.9,16.7.1,2,0,3.9-.6,5.8-1.9,7.6-2.8,15.4-2.7,23.3v34.4c0,.8-.3,1.5-.8,2.1-.5.6-1.3.9-2.1.9h-56.8v-83.2h45.8Z"/>
  <path class="cls-27" d="M120.6,209h1.2c8.5.6,15.4,7.8,15.9,16.7.1,2,0,3.9-.6,5.8-1.9,7.6-2.8,15.4-2.7,23.3v34.4c0,.8-.3,1.5-.8,2.1-.5.6-1.3.9-2.1.9h-56.8v-83.2h45.8Z"/>
  <path class="cls-19" d="M57.7,226.9c0-10.3,8.3-18.6,18.4-17.8,8.5.6,15.4,7.8,15.9,16.7.1,2,0,3.9-.6,5.8-1.9,7.6-2.8,15.4-2.7,23.3v34.4c0,.8-.3,1.5-.8,2.1-.5.6-1.3.9-2.1.9h-22c-.8,0-1.5-.3-2.1-.9-.5-.6-.8-1.3-.8-2.1v-35.7c0-7.4-.8-14.7-2.7-21.8-.4-1.6-.6-3.2-.7-4.8Z"/>
  <path class="cls-14" d="M57.7,226.9c0-10.3,8.3-18.6,18.4-17.8,8.5.6,15.4,7.8,15.9,16.7.1,2,0,3.9-.6,5.8-1.9,7.6-2.8,15.4-2.7,23.3v34.4c0,.8-.3,1.5-.8,2.1-.5.6-1.3.9-2.1.9h-22c-.8,0-1.5-.3-2.1-.9-.5-.6-.8-1.3-.8-2.1v-35.7c0-7.4-.8-14.7-2.7-21.8-.4-1.6-.6-3.2-.7-4.8Z"/>
  <path class="cls-19" d="M98.5,237.2h149.9v55.1H98.5v-55.1Z"/>
  <path class="cls-27" d="M98.5,237.2h149.9v55.1H98.5v-55.1Z"/>
  <path class="cls-19" d="M244.3,232.7H99.4c-.5,0-1,.1-1.5.3-.5.2-.9.5-1.3.8-.4.4-.7.8-.8,1.3-.2.5-.3,1-.3,1.5v10.5c0,.5.1,1,.3,1.5.2.5.5.9.8,1.3.4.4.8.7,1.3.8.5.2,1,.3,1.5.3h144.9c.3,0,.6-.1.8-.3.2-.2.3-.5.3-.8v-15.9c0-.3-.1-.6-.3-.8s-.5-.3-.8-.3Z"/>
  <path class="cls-9" d="M244.3,232.7H99.4c-.5,0-1,.1-1.5.3-.5.2-.9.5-1.3.8-.4.4-.7.8-.8,1.3-.2.5-.3,1-.3,1.5v10.5c0,.5.1,1,.3,1.5.2.5.5.9.8,1.3.4.4.8.7,1.3.8.5.2,1,.3,1.5.3h144.9c.3,0,.6-.1.8-.3.2-.2.3-.5.3-.8v-15.9c0-.3-.1-.6-.3-.8s-.5-.3-.8-.3Z"/>
  <path class="cls-19" d="M307.2,292.3H74c0,.6.2,1.1.6,1.5.4.4.9.6,1.5.6h229c.6,0,1.1-.2,1.5-.6s.6-.9.6-1.5h0Z"/>
  <path class="cls-9" d="M307.2,292.3H74c0,.6.2,1.1.6,1.5.4.4.9.6,1.5.6h229c.6,0,1.1-.2,1.5-.6s.6-.9.6-1.5h0Z"/>
  <path class="cls-15" d="M101.6,282.2c4.6,1,7.9,1,10.2.6-.5-.1-1-.5-1.2-.9,0-.1,0-.3,0-.4,0-.2,0-.3.2-.4,0,0,.1-.1.2-.2,0,0,.2,0,.3,0,.5,0,1.2.7,1.7,1.4-.2-.6-.2-1.4,0-2,0,0,.2-.2.3-.2.1,0,.2,0,.4,0,.1,0,.2,0,.3.2,0,0,.2.2.2.3.2.7.1,1.4-.2,2.1.1,0,.2,0,.4,0l3.3-4.4-1.3-1.2.9-2.3.9.7c.8-1.3,2.1-3.3,3.6-5.9-3.4-7.3-6.5-16.4-6.7-25.9-.3-13,16.2-19.7,29-22.9l-2.7-20.3c-1.2-2.9-2.2-5.9-2.9-9-.7-1.2-1.2-2.6-1.3-4.1l.3-5.7,5.3-.8.4,2.6v1.1c.1-.1.4-.2.7-.2.3,0,.6,0,.8.2.2-.3.5-.5.8-.6.3-.2.6-.3,1-.3.3,0,.7,0,1,.1.3.1.6.3.9.5.4-.4.9-.7,1.5-.8.6,0,1.2,0,1.8.4.9-3.4,2.2-7.5,3.9-7.9.7-.2,1.5-.3,2.2-.4,1.8-.3,4.4-.8,7.1-1.1.8-.1,1.6-.2,2.4-.3.3,0,.6-.2.8-.2l-1.3-.3c-1.8.6-3.8.6-5.7,0h-5.1v-.2h104.2c1.9,3.8,3.5,7.6,4.9,11.6l-1.7.7c.9,1.9,1.8,3.9,2.5,6,.8,2.2,1.5,4.5,1.9,6.9.2,1.3.4,2.5.4,3.8,0,1.5-.2,3-.7,4.5-.3.9-.7,1.7-1.3,2.4-.6.8-1.3,1.5-2.1,2-.8.5-1.6.8-2.4,1.1-.8.2-1.6.3-2.3.3-1.3,0-2.7-.2-4-.6-.4-.1-.7-.3-1.1-.4-.9.3-1.9.4-2.8.4l-4.7,2.1-2.6-4.7c-.3,3-.5,5.2-.7,6.4-1.5,9.1-4.1,15-8.5,18-4.6,3.2-18.1,1.1-26.7.7-2.2,1.9-4.4,3.8-6.6,5.7,3.5,10.8,11.7,27.8,14.6,33.6l.6-.4,1.8,3-1.8,1.4,1.5,1.9,4.1,5.2.5-.3c.1,0,.2,0,.3,0,.1,0,.2,0,.3.1l4.1,3.7c.1,0,.2.2.2.3,0,.1,0,.3,0,.4s0,.3-.1.4c0,.1-.2.2-.3.3-2,1.2-3.1,2.2-5.7,3.5-.5.2-1,.5-1.5.8h-6.7c1-1.2,1.8-2.5,2.3-3.9-.4.3-.9.5-1.4.6h-.1c-.1,0-.3,0-.4-.1-.1,0-.2-.2-.3-.3,0,0,0-.1,0-.2s0-.2,0-.2c.2-.4,1.1-.7,2-.8-.7-.1-1.4-.4-1.6-.7,0-.1,0-.4.2-.6.8-.6,1.9.2,2.5.7.1-.1.2-.2.4-.3l-5.2-6.6-2.3,1.8-3.1-3.2,1.3-.9c-6.8-8.7-13.2-17.8-19-27.2-9,10.3-16.6,24.2-19.7,30.3l.9.6-2.3,3.3-2.2-1.6-1.6,2.7-3.1,5.2.5.4c0,0,.2.2.2.3,0,.1,0,.2,0,.4l-.2.4h-9.5l-.5-.4c-1.9-1.4-3.7-2.7-5.6-4.1,0,.2,0,.4,0,.7,0,.2-.2.4-.4.5-2.1,1.3-3.3,1.9-5.6,3.3h-8.3c.8-1,1.4-2.3,1.7-3.6-.6.5-1.2.8-2,.9h-.2c-.1,0-.3,0-.4-.2-.1,0-.2-.2-.3-.3,0,0,0-.2,0-.2s0-.2,0-.2c.3-.5,1.5-.8,2.6-1-.9-.1-1.8-.5-2-.9,0-.2,0-.4.3-.7.1-.1.3-.2.4-.2s.3,0,.5,0c.7.2,1.3.6,1.8,1.1.1-.1.2-.2.3-.3l.5-.3-2.9-4.3-2.6,1.5-1.4-1.5,1.7-1-1-1.5c-.4-.6-.8-1.2-1.2-1.9-.7.8-1.4,1.4-1.8,1.9l.8.7-2.4,1.5-1.2-1.1-1.4,1.9-.6.8.8.4c.1,0,.2.2.3.3,0,.1,0,.3,0,.4l-1.7,6c0,.1-.1.3-.2.4-.1.1-.2.2-.4.3-.1,0-.3,0-.5,0-.2,0-.3,0-.5-.1-2.4-1.2-3.6-1.9-6.7-3.3-1.9-.9-7-2.9-9.6-4.1-2.7-1.2-1.5-4-.3-3.7ZM247.8,205.4l6.5,1.1h0c1.4.2,2.7.1,4.1-.2.3,0,.6-.2.8-.3.1,0,.3-.2.4-.4,0-.1,0-.2,0-.3,0-.2,0-.3,0-.5,0-1.5-.1-3-.5-4.4-.5-1.8-1.1-3.7-1.8-5.4-.8-2-1.7-3.9-2.7-5.8l-3,1.2s-1.9-3.6-3.9-8v.7c-.2.4-.3.8-.4,1.2-1.6,8-2.7,16.1-3.5,24.2l3.7-3ZM213.8,290.4s0,0,0,0,0,0,0,0c0,0,.1.1.2.2,0,0,.2,0,.2,0,.7,0,1.3-.4,1.8-.8,0-.1.1-.3.2-.4-1,.2-2.2.5-2.4.8ZM214.4,288.3c-.2.1-.2.2-.1.3.1.3,1.3.6,2.2.7v-.2c-.4-.5-1.4-1.2-2-.7ZM130.4,291s0,0,0,.1,0,0,0,.1c0,0,.1.2.2.2,0,0,.2.1.3.1.5,0,1.3-.3,2.2-1.1,0-.2,0-.3.1-.5-1.1.2-2.6.5-2.8.9ZM131.9,288.3c-.1,0-.3,0-.4,0-.1,0-.2,0-.3.2-.3.2-.2.3-.2.4.2.4,1.4.8,2.4.8,0-.1.1-.2.2-.3-.4-.5-1-.9-1.7-1.1ZM186.8,216.2h0c.1,0,.3,0,.4.1,6-1.8,13.7-2.7,20.4-3.1,2.4-1.3,4-2,4-2-.7-15.3.8-27.1,2.8-35.5-4.3.7-7.8,1-7.8,1l-.4-2.3h0c-4.3,1-8.6,1.7-13,2.2,2.7,2.8,6,11.2,6,11.2l-2.6,1.9c.6,2.1,1.1,4.2,1.6,6.3.5,2.1.9,4.2,1.2,6.4.2,1.1.3,2.2.4,3.4,0,.6,0,1.2,0,1.8v1c0,.5-.1,1.1-.3,1.6-.3,1.1-1,2.1-1.9,2.8-.7.6-1.5,1-2.4,1.3-1.3.4-2.6.6-4,.6-1.5,0-3,0-4.5-.3,0,.5,0,1.1,0,1.6ZM193.3,208.2s0,0,.1-.1c0,0-.1,0-.1.1h0ZM190.8,208.9c.8,0,1.5-.2,2.2-.5h.1v-.6c0-.4,0-.9-.1-1.3-.1-.9-.3-1.9-.5-2.9-.4-1.9-.9-3.9-1.4-5.9-.3-1.2-.6-2.3-1-3.5l-2.1,1.5v-.3c-.4,1.8-.7,3.5-.8,5.1-.3,3.1-.5,5.8-.5,8.5,1.4,0,2.7,0,4.1-.1h0ZM155.1,289h.2c.3-.6.6-1.8,0-2.2,0,0-.1,0-.2,0,0,0,0,0,0,0s0,0,0,0c-.3.3-.1,1.5.1,2.3h0ZM154.7,288.9c-.5-.9-1.2-1.9-1.6-2,0,0,0,0,0,0,0,0,0,0,0,0,0,0-.1.1-.1.2s0,.2,0,.3c0,.4.6.9,1.3,1.3.1,0,.3,0,.5,0h0ZM136,272.2c1,2.6,1.7,4.5,2.2,5.7l.9-.6,1,2-2.4,1.4,1.3,1.9,1.4,2.1h.2c.1-.2.2-.2.4-.2.1,0,.3,0,.3.2l.3.4c.1-.6.5-1,1-.8,3.9,1.8,6.9,3.8,10.8,4.4-.4-.3-.8-.7-1-1.2,0-.1,0-.3,0-.4,0-.1,0-.2.2-.3,0,0,.1-.1.2-.1,0,0,.1,0,.2,0,.4,0,1,.8,1.5,1.6-.1-.7-.2-1.5.1-1.8.1-.1.3-.2.6,0,.9.5.5,1.9.2,2.6.2,0,.3.1.5.2l4.7-7.8-2.6-2,1.3-3.3.3.2c3.3-11.2,7.3-22.2,12-32.9.6-1.4,1.4-2.7,2.2-4-8.3.9-18.2,1.7-24.3,11.7-4.2,6.8-9,13.3-14.2,19.4.2.5.4,1,.5,1.5h0ZM131,252.2c1.6-3.3,3-6.5,4.2-9.6-.7.4-1.4.9-2.1,1.5h0c-.2.2-.4.3-.5.5h0c-.3.4-.6.8-.9,1.1,0,0,0,.1-.1.2l-.2.4c0,0,0,.2,0,.2,0,0,0,.2-.1.4s0,.2,0,.3c0,0,0,.3,0,.5,0,.2,0,.3,0,.5,0,1.3,0,2.7.1,4ZM113.5,282.5c.3-.6.4-1.3.2-2,0,0,0-.2-.1-.2,0,0-.1-.1-.2-.1h-.2s0,0-.1,0c0,0,0,0,0,0-.3.4,0,1.5.2,2.3,0,0,.2,0,.3,0h0ZM112.8,282.6c-.5-.7-1.3-1.6-1.8-1.6,0,0-.1,0-.1,0,0,0,0,0-.1.1,0,0-.1.2-.1.3,0,.1,0,.2,0,.3.4.5.9.8,1.5,1,.2,0,.4,0,.6-.1h0Z"/>
  <path class="cls-6" d="M210.6,162.2c-4.1,1.2-8.3,2.4-12.5,3.5-2.1.6-4.2,1.1-6.3,1.6-2.1.5-4.2.9-6.3,1.3-.5,0-.8.1-1.3.2h-1.5c-1,.2-2.1.2-3.2.2-2.1,0-4.3,0-6.5,0-4.4,0-8.8,0-13.2,0l-.5,4.5c4.4,1,8.8,1.8,13.2,2.4,2.2.3,4.5.6,6.8.8,1.1,0,2.3.2,3.5.2h1.8c.6,0,1.4,0,2-.1,4.6-.5,9.1-1.2,13.5-2.2,4.4-1,8.7-2.2,13.1-3.6l-2.8-8.6Z"/>
  <path class="cls-8" d="M110.6,291.1l-5-4.9,9.8-13.1,5,4.9-9.8,13.1Z"/>
  <path class="cls-8" d="M137.7,289.1l-6,3.5-9.1-13.4,6-3.5,9.1,13.4Z"/>
  <path class="cls-21" d="M122.6,279.3l4.7,6.9,6-3.5-4.7-6.9-6,3.5Z"/>
  <path class="cls-21" d="M120.4,278l-5-4.9-5,6.7,5,4.9,5-6.7Z"/>
  <path class="cls-19" d="M125,248.2c-.2,6.2,1.7,13.8,3.8,20.1.4,1.3.9,2.6,1.3,3.8,1.9,5.2,3,7.5,3,7.5l-8.7,5.1c-.5-1-1.2-2-1.9-3-.7-1.1-1.6-2.4-2.4-3.9-4.7-7.8-10.8-20.6-11.1-34.2-.5-21.3,43.7-25.5,43.7-25.5h20.8l-5.8,16.6s-42.3,2.2-42.7,13.5Z"/>
  <path class="cls-26" d="M125,248.2c-.2,6.2,1.7,13.8,3.8,20.1.4,1.3.9,2.6,1.3,3.8,1.9,5.2,3,7.5,3,7.5l-8.7,5.1c-.5-1-1.2-2-1.9-3-.7-1.1-1.6-2.4-2.4-3.9-4.7-7.8-10.8-20.6-11.1-34.2-.5-21.3,43.7-25.5,43.7-25.5h20.8l-5.8,16.6s-42.3,2.2-42.7,13.5Z"/>
  <path class="cls-20" d="M130.1,272.2c-2.1,3.5-4.6,6.7-7.5,9.6-.7-1.1-1.6-2.4-2.4-3.9l8.7-9.5c.4,1.3.9,2.6,1.3,3.8Z"/>
  <path class="cls-19" d="M134.3,279.4l-11,6.4-1.4-1.5,11.5-6.9,1,2Z"/>
  <path class="cls-20" d="M137.3,230.6l-.9,9c-6.2,1.9-10.9,4.6-11.4,8.1-1-8,4.6-12.7,12.3-17.2Z"/>
  <path class="cls-19" d="M160.2,218.1s-26.1,10.7-30.1,22.4c-5.1,15-18.9,36.3-18.9,36.3l7,6.4s14.7-14.3,25.6-31.9c13.6-22.2,46.4,1.2,37.3-33.1h-20.8Z"/>
  <path class="cls-26" d="M160.2,218.1s-26.1,10.7-30.1,22.4c-5.1,15-18.9,36.3-18.9,36.3l7,6.4s14.7-14.3,25.6-31.9c13.6-22.2,46.4,1.2,37.3-33.1h-20.8Z"/>
  <path class="cls-19" d="M118,284l-7.7-7,1-2.3,9.2,7.8-2.4,1.5Z"/>
  <path class="cls-19" d="M181.5,216.4l.2,2.5c.1.2-.1.4-.5.4h-28.7c-.3,0-.5-.1-.5-.3l-.3-2.5c0-.2.2-.3.5-.3h28.7c0,0,.2,0,.2,0s.1,0,.2.2Z"/>
  <path class="cls-19" d="M177.6,219.6h.8c.2,0,.3,0,.3-.2l-.4-3.3c0,0-.1-.2-.3-.2h-.8c-.1,0-.3,0-.3.2l.4,3.3c0,0,.1.2.3.2Z"/>
  <path class="cls-19" d="M154.7,219.6h.8c.2,0,.3,0,.3-.2l-.4-3.3c0,0-.1-.2-.3-.2h-.8c-.2,0-.3,0-.3.2l.4,3.3c0,0,.1.2.3.2Z"/>
  <path class="cls-19" d="M166.2,219.6h.8c.2,0,.3,0,.3-.2l-.4-3.3c0,0-.1-.2-.3-.2h-.8c-.2,0-.3,0-.3.2l.4,3.3c0,0,.1.2.3.2Z"/>
  <g class="cls-29">
    <path class="cls-16" d="M177.6,219.6h.8c.2,0,.3,0,.3-.2l-.4-3.3c0,0-.1-.2-.3-.2h-.8c-.1,0-.3,0-.3.2l.4,3.3c0,0,.1.2.3.2Z"/>
    <path class="cls-16" d="M154.7,219.6h.8c.2,0,.3,0,.3-.2l-.4-3.3c0,0-.1-.2-.3-.2h-.8c-.2,0-.3,0-.3.2l.4,3.3c0,0,.1.2.3.2Z"/>
    <path class="cls-16" d="M166.2,219.6h.8c.2,0,.3,0,.3-.2l-.4-3.3c0,0-.1-.2-.3-.2h-.8c-.2,0-.3,0-.3.2l.4,3.3c0,0,.1.2.3.2Z"/>
  </g>
  <path class="cls-19" d="M125.3,291.8c1,0,2.4-1.2,3.2-1.9,0,0,0,0,0,0s0,0,0,0c0,0,0,0,0,0,0,0,0,0,0,0-.3,0-3.4.3-3.9,1.2,0,0,0,.2,0,.2s0,.2,0,.2c0,.1.2.2.3.3.1,0,.2.1.4.2h.2ZM128,289.9c-1.2,1.1-2.3,1.7-2.9,1.6-.1,0-.2,0-.3-.1,0,0-.2-.2-.2-.3,0,0,0,0,0-.1s0,0,0-.1c.3-.5,2.2-.9,3.4-1Z"/>
  <path class="cls-19" d="M127.9,289.9c.1,0,.3,0,.4,0,0,0,0,0,0,0,0,0,0,0,0,0,0,0,0,0,0,0s0,0,0,0c0,0-1.2-1.5-2.3-1.7-.2,0-.3,0-.5,0-.2,0-.3.1-.4.2-.3.3-.3.5-.3.7.3.6,1.9,1,2.9,1ZM128.1,289.7c-1,0-2.7-.4-2.9-.8,0,0,0-.2.2-.4,0,0,.2-.1.3-.2.1,0,.3,0,.4,0,.8.2,1.5.7,2,1.4Z"/>
  <path class="cls-19" d="M107.6,283.3s0,0,0,0c0,0,0,0,0,0,0,0,0,0,0,0s0,0,0,0c-.2-.2-1.5-2.3-2.4-2.3s-.2,0-.3,0c0,0-.1.1-.2.2,0,.1-.1.3-.2.4,0,.2,0,.3,0,.4.3.8,1.9,1.2,2.8,1.4h0ZM105.3,281c.6,0,1.5,1.3,2,2-1.3-.3-2.2-.7-2.4-1.2,0-.1,0-.2,0-.3,0-.1,0-.2.1-.3,0,0,0,0,.1-.1,0,0,0,0,.2,0Z"/>
  <path class="cls-19" d="M107.6,283.3s0,0,0,0c0,0,.8-1.9.4-2.8,0-.1-.1-.2-.2-.3,0,0-.2-.1-.3-.2-.1,0-.2,0-.4,0s-.2.1-.3.2c-.4.6,0,2.4.5,3.1,0,0,0,0,0,0,0,0,0,0,0,0ZM107.4,280.1h.2c0,0,.2,0,.2.1,0,0,.1.1.1.2.3.6-.2,1.9-.3,2.4-.4-.7-.7-2.2-.4-2.7,0,0,0,0,0,0,0,0,0,0,.1,0h0Z"/>
  <path class="cls-19" d="M128.3,288.9l6.6-4.2c.1,0,.2-.1.4,0,.1,0,.3,0,.3.2l4.1,4.7c0,.1.2.3.2.4,0,.2,0,.3,0,.5,0,.2,0,.3-.2.4,0,.1-.2.2-.3.3-2.3,1.4-3.5,2-6.4,3.9-1.8,1.1-5.3,3.6-8,4.6-2.7,1-3.9-1.6-2.8-2.3,4.7-3,4.7-5.1,5.4-7.4.1-.4.4-.8.8-1Z"/>
  <path class="cls-17" d="M128.3,288.9l6.6-4.2c.1,0,.2-.1.4,0,.1,0,.3,0,.3.2l4.1,4.7c0,.1.2.3.2.4,0,.2,0,.3,0,.5,0,.2,0,.3-.2.4,0,.1-.2.2-.3.3-2.3,1.4-3.5,2-6.4,3.9-1.8,1.1-5.3,3.6-8,4.6-2.7,1-3.9-1.6-2.8-2.3,4.7-3,4.7-5.1,5.4-7.4.1-.4.4-.8.8-1Z"/>
  <path class="cls-19" d="M108.4,282.7l7.1,3.3c.1,0,.2.1.3.3,0,.1,0,.3,0,.4l-1.7,6c0,.1-.1.3-.2.4-.1.1-.2.2-.4.3-.1,0-.3,0-.5,0-.2,0-.3,0-.5-.1-2.4-1.2-3.6-1.9-6.8-3.3-1.9-.9-7-2.9-9.6-4.1-2.7-1.2-1.6-3.9-.4-3.6,5.5,1.2,9.1,1,11.4.4.4-.1.8-.1,1.2,0Z"/>
  <path class="cls-17" d="M108.4,282.7l7.1,3.3c.1,0,.2.1.3.3,0,.1,0,.3,0,.4l-1.7,6c0,.1-.1.3-.2.4-.1.1-.2.2-.4.3-.1,0-.3,0-.5,0-.2,0-.3,0-.5-.1-2.4-1.2-3.6-1.9-6.8-3.3-1.9-.9-7-2.9-9.6-4.1-2.7-1.2-1.6-3.9-.4-3.6,5.5,1.2,9.1,1,11.4.4.4-.1.8-.1,1.2,0Z"/>
  <path class="cls-19" d="M149.4,176c-2.9.7-4.9,12.6-4.9,12.6l7.9,5.4s7.6-11.9,5.4-15.1c-2.3-3.3-4.2-3.9-8.4-2.9Z"/>
  <path class="cls-7" d="M149.4,176c-2.9.7-4.9,12.6-4.9,12.6l7.9,5.4s7.6-11.9,5.4-15.1c-2.3-3.3-4.2-3.9-8.4-2.9Z"/>
  <path class="cls-19" d="M181.1,218.1h-28.3c-6.7-41-3.3-42.1-3.3-42.1,0,0,4.6-.9,9.3-1.5.8,0,1.6-.2,2.4-.3,4.3-.3,8.6-.3,12.9,0,.8,0,1.6,0,2.4.2,3.2.3,6.4.8,9.6,1.4-5.5,23.7-5.5,30.8-5,42.3Z"/>
  <path class="cls-7" d="M181.1,218.1h-28.3c-6.7-41-3.3-42.1-3.3-42.1,0,0,4.6-.9,9.3-1.5.8,0,1.6-.2,2.4-.3,4.3-.3,8.6-.3,12.9,0,.8,0,1.6,0,2.4.2,3.2.3,6.4.8,9.6,1.4-5.5,23.7-5.5,30.8-5,42.3Z"/>
  <path class="cls-8" d="M136.2,190.5l.9-7-5.9,3.9s.3,4.5,3,5.6l2.1-2.5Z"/>
  <path class="cls-8" d="M136.7,180.8l-5.3.8-.3,5.7,5.9-3.9-.4-2.7Z"/>
  <path class="cls-4" d="M176.5,174.4l-.3.7c-.2.4-4.1,9.7-11.8,15.9l-1.9,1.5-1.4-1.9c-4.3-5.8-3-13.4-2.4-16.1.8,0,1.6-.2,2.4-.3,4.3-.3,8.6-.3,12.9,0,.8,0,1.6,0,2.4.2Z"/>
  <path class="cls-16" d="M174,168c-11.2,0-20.3-9.1-20.3-20.3s9.1-20.3,20.3-20.3,20.3,9.1,20.3,20.3-9.1,20.3-20.3,20.3Z"/>
  <path class="cls-8" d="M172.8,159.7c-.8,4.1-1.6,11.7,1.3,14.5,0,0-3.8,9.1-11.1,15-4.6-6.2-1.8-15-1.8-15,4.6-1.1,4.5-4.5,3.7-7.7l7.9-6.7Z"/>
  <path class="cls-21" d="M169.6,162.5l-4.7,4c.2.7.3,1.5.4,2.3,1.8-.3,4.2-2.2,4.4-4.1.1-.7,0-1.5,0-2.2Z"/>
  <path class="cls-8" d="M177,151.8c-1.1,6.8-1.5,9.8-5.3,12.9-5.8,4.7-13.9,1.8-14.8-5.2-.8-6.3,1.2-16.4,8.2-18.5,1.5-.5,3.2-.5,4.8-.1,1.6.4,3,1.1,4.2,2.2,1.2,1.1,2.1,2.4,2.6,4,.5,1.5.6,3.2.4,4.7Z"/>
  <path class="cls-16" d="M175.7,157.6s-8.6-6.5-1.2-14.8c8.4.5,4.6,17.4,1.2,14.8Z"/>
  <path class="cls-16" d="M158.2,141.2s10.2-8,17.8,1.8c-7.3,7.2-21.1.9-17.8-1.8Z"/>
  <path class="cls-8" d="M178.1,158.3c-.5,1.2-1.5,2.2-2.7,2.8-1.6.7-2.6-.6-2.3-2.3.3-1.5,1.4-3.6,3.1-3.7,1.7,0,2.5,1.6,1.9,3.1Z"/>
  <path class="cls-16" d="M166.3,152.6c0,.6-.4,1-.8.9-.4,0-.6-.5-.6-1.1,0-.6.4-1,.8-.9.4,0,.6.5.6,1.1Z"/>
  <path class="cls-16" d="M160,151.9c0,.6-.4,1-.8.9-.4,0-.6-.5-.6-1.1s.4-1,.8-.9c.4,0,.6.5.6,1.1Z"/>
  <path class="cls-16" d="M159.6,150.9l-1.3-.5s.6,1.1,1.3.5Z"/>
  <path class="cls-10" d="M161.6,153c-.6,1.2-1.4,2.4-2.4,3.4.3.2.6.4.9.5.3.1.7.1,1,0l.4-3.9Z"/>
  <path class="cls-16" d="M163.9,159.3c1.2-.2,2.3-.8,3.1-1.8,0,0,0,0,0,0s0,0,0,0c0,0,0,0,0,0s0,0,0,0c-.7.9-1.8,1.5-2.9,1.7,0,0,0,0,0,0,0,0,0,0,0,0,0,0,0,0,0,0,0,0,0,0,0,0,0,0,0,0,0,0,0,0,0,0,0,0,0,0,0,0,0,0,0,0,0,0,0,0Z"/>
  <path class="cls-16" d="M167.8,150.4s0,0,.1,0c0,0,0,0,0,0,0,0,0,0,0,0,0,0,0,0,0,0,0,0,0,0,0,0-.3-.4-.6-.8-1-1.1-.4-.3-.9-.4-1.4-.5,0,0-.1,0-.1,0,0,0,0,0,0,.1,0,0,0,.1,0,.2,0,0,0,0,.2,0,.4,0,.8.2,1.2.4.4.2.7.5.9.9,0,0,0,0,0,0,0,0,0,0,0,0Z"/>
  <path class="cls-16" d="M157.5,148.6s0,0,0,0c0,0,0,0,0,0,.3-.3.6-.6,1-.8.4-.2.8-.3,1.3-.2,0,0,0,0,0,0,0,0,0,0,0,0,0,0,0,0,0,0,0,0,0,0,0,0,0,0,0-.1,0-.2,0,0,0,0-.1,0-.5,0-1,0-1.5.3-.5.2-.9.5-1.2.9,0,0,0,0,0,0,0,0,0,0,0,0s0,0,0,0c0,0,0,0,0,0,0,0,0,0,0,0,0,0,0,0,0,0Z"/>
  <path class="cls-16" d="M166,151.5l-1.3-.5s.5,1.1,1.3.5Z"/>
  <path class="cls-26" d="M179.4,186.8l3.7,3.1c-.8,4.1-1.3,7.6-1.6,10.7-.7-3.1-2.4-11.4-2-13.8Z"/>
  <path class="cls-8" d="M135.9,190.2c1.5,2.8,3,5.7,4.6,8.3.4.6.8,1.2,1.2,1.8,1-2.6,2-5.2,2.8-7.8.5-1.5,1-3,1.4-4.5.2-.8.4-1.5.6-2.3.2-.7.4-1.5.5-2.1l7.2,1.4c-.2,1-.4,1.8-.6,2.6s-.5,1.6-.7,2.5c-.5,1.6-1,3.2-1.6,4.8-1.2,3.2-2.5,6.3-4,9.3l-.3.6c-.1.3-.3.6-.5.9-.2.4-.5.7-.8,1.1-.5.5-1,.8-1.6,1.1-.7.3-1.5.4-2.2.3-.6,0-1.1-.3-1.6-.6-.6-.4-1.2-.8-1.7-1.4-.7-.8-1.3-1.6-1.8-2.5-.5-.8-.8-1.6-1.2-2.4-1.4-3.1-2.4-6.4-3.2-9.7l3.4-1.2ZM143.2,201.9h-.2c.1,0,.3,0,.2,0Z"/>
  <path class="cls-8" d="M179.3,208.9c1.9.2,3.8.2,5.7,0,.8,0,1.5-.2,2.2-.5h.1v-.6c0-.4,0-.9-.1-1.3-.1-.9-.3-1.9-.5-2.9-.4-1.9-.9-3.9-1.4-5.9-.5-2-1.1-3.9-1.7-5.9-.6-2-1.2-4-1.8-5.9l6.9-2.3c1.4,4.1,2.6,8.2,3.5,12.4.5,2.1.9,4.2,1.3,6.4.2,1.1.3,2.2.4,3.4,0,.6,0,1.2,0,1.8v1c0,.5-.1,1.1-.3,1.6-.3,1.1-1,2.1-1.9,2.8-.7.6-1.5,1-2.4,1.3-1.3.4-2.6.6-4,.6-2.3,0-4.6-.2-6.8-.6-4.3-.8-8.4-2-12.5-3.5l1-3.5c4,.7,8.1,1.3,12.1,1.6Z"/>
  <path class="cls-19" d="M186.1,175.8c2.8.9,7.2,12,7.2,12l-11,7.9s-5-9.5-3.8-13.2c1.2-3.8,4.3-7.7,7.6-6.7Z"/>
  <path class="cls-7" d="M186.1,175.8c2.8.9,7.2,12,7.2,12l-11,7.9s-5-9.5-3.8-13.2c1.2-3.8,4.3-7.7,7.6-6.7Z"/>
  <path class="cls-19" d="M149.8,191.7c0,0,.2,0,.2,0l13.2-3.9h0l2.6-.8c.1,0,.2,0,.3-.1,0,0,.2-.2.2-.2,0,0,0-.2,0-.3,0-.1,0-.2,0-.3,0-.1,0-.2-.1-.3,0,0-.2-.2-.2-.2,0,0-.2,0-.3,0-.1,0-.2,0-.3,0l-2.6.8h0l-13,3.8-16-3.1c-.1,0-.2,0-.3,0-.1,0-.2,0-.3.1,0,0-.2.1-.2.2,0,0-.1.2-.1.3,0,.1,0,.2,0,.3,0,.1,0,.2.1.3,0,0,.1.2.2.2,0,0,.2.1.3.1l16.2,3.1c0,0,.1,0,.2,0Z"/>
  <path class="cls-26" d="M149.8,191.7c0,0,.2,0,.2,0l13.2-3.9h0l2.6-.8c.1,0,.2,0,.3-.1,0,0,.2-.2.2-.2,0,0,0-.2,0-.3,0-.1,0-.2,0-.3,0-.1,0-.2-.1-.3,0,0-.2-.2-.2-.2,0,0-.2,0-.3,0-.1,0-.2,0-.3,0l-2.6.8h0l-13,3.8-16-3.1c-.1,0-.2,0-.3,0-.1,0-.2,0-.3.1,0,0-.2.1-.2.2,0,0-.1.2-.1.3,0,.1,0,.2,0,.3,0,.1,0,.2.1.3,0,0,.1.2.2.2,0,0,.2.1.3.1l16.2,3.1c0,0,.1,0,.2,0Z"/>
  <path class="cls-23" d="M137,190.6c-1-1-1.1-2.6-.2-3.6,1-1,2.6-1.1,3.6-.2,1,1,1.1,2.6.2,3.6-1,1-2.6,1.1-3.6.2Z"/>
  <path class="cls-23" d="M144.4,188.2c0,.4,0,.8-.3,1.1-.2.3-.5.6-.8.8-.4.2-.7.2-1.1.2-.4,0-.7-.2-1-.5-.3-.3-.5-.6-.6-1,0-.4,0-.8,0-1.1.1-.4.4-.7.7-.9.3-.2.7-.4,1.1-.4.5,0,1,.2,1.4.5.4.4.6.8.6,1.4Z"/>
  <path class="cls-23" d="M148.3,190.1c-.2.5-.5.9-1,1.1-.4.3-.9.4-1.4.4-.5,0-1-.2-1.4-.5-.4-.3-.7-.7-.9-1.2s-.2-1-.1-1.5c.1-.5.4-.9.7-1.3.4-.4.8-.6,1.3-.7.5,0,1,0,1.5.2.6.3,1.1.8,1.3,1.4.2.6.2,1.3,0,1.9Z"/>
  <path class="cls-23" d="M151.3,191.1c-.2.4-.4.7-.7.9-.3.2-.7.3-1.1.3-.4,0-.8-.1-1.1-.4-.3-.2-.6-.5-.7-.9-.1-.4-.2-.8,0-1.1,0-.4.3-.7.6-1,.3-.3.6-.4,1-.5.4,0,.8,0,1.1.1.2.1.4.3.6.4.2.2.3.4.4.6,0,.2.1.5.1.8,0,.3,0,.5-.2.7Z"/>
  <path class="cls-23" d="M154.7,188.8c.3.4.4.9.4,1.4,0,.5-.1,1-.4,1.4-.3.4-.7.7-1.1.9-.5.2-1,.2-1.5.1-.5,0-1-.3-1.3-.7-.4-.4-.6-.8-.7-1.3,0-.5,0-1,.1-1.5.2-.5.5-.9.9-1.1.3-.2.6-.3.9-.4.3,0,.7,0,1,0,.3,0,.6.2.9.4.3.2.5.4.7.7Z"/>
  <path class="cls-23" d="M157.1,186.9c.2.3.3.7.3,1.1s-.1.8-.3,1.1c-.2.3-.5.6-.9.7-.4.1-.8.2-1.1.1-.4,0-.7-.3-1-.5-.3-.3-.5-.6-.5-1,0-.4,0-.8.1-1.1.1-.4.4-.7.7-.9.4-.3,1-.4,1.5-.3.5.1,1,.4,1.3.8Z"/>
  <path class="cls-23" d="M161.4,186.5c0,.5,0,1-.2,1.5-.2.5-.6.8-1,1.1-.4.3-.9.4-1.5.3-.5,0-1-.2-1.4-.5-.4-.3-.7-.7-.9-1.2-.2-.5-.2-1,0-1.5.1-.5.4-.9.8-1.3.4-.3.9-.5,1.4-.6.7,0,1.4,0,1.9.5.5.4.9,1,1,1.7Z"/>
  <path class="cls-23" d="M160.7,186.8c-.4-1,0-2.1,1.1-2.6,1-.4,2.1,0,2.6,1.1.4,1,0,2.1-1.1,2.6-1,.4-2.1,0-2.6-1.1Z"/>
  <path class="cls-23" d="M152.3,186.8c.3.4.4.9.4,1.4,0,.5-.1,1-.4,1.4-.3.4-.7.8-1.1.9-.5.2-1,.2-1.5.2s-1-.3-1.3-.7c-.4-.4-.6-.8-.7-1.3-.1-.5,0-1,.1-1.5s.5-.9.9-1.2c.3-.2.6-.3.9-.4.3,0,.7,0,1,0,.3,0,.6.2.9.4.3.2.5.4.7.7Z"/>
  <path class="cls-23" d="M151.4,184.6c.2.3.3.7.3,1.1,0,.4-.1.8-.3,1.1-.2.3-.5.6-.9.7-.4.2-.8.2-1.2.1-.4,0-.7-.3-1-.5-.3-.3-.5-.6-.6-1,0-.4,0-.8.1-1.2.1-.4.4-.7.7-.9.2-.1.5-.3.7-.3.3,0,.5,0,.8,0,.3,0,.5.2.7.3.2.1.4.3.6.6Z"/>
  <path class="cls-23" d="M152.9,182.7c.2.3.3.6.3,1,0,.4,0,.7-.3,1-.2.3-.5.5-.8.7-.3.1-.7.2-1,.1-.3,0-.7-.2-.9-.5-.3-.3-.4-.6-.5-.9,0-.3,0-.7.1-1,.1-.3.4-.6.7-.8.4-.3.9-.3,1.3-.3.5,0,.9.4,1.1.7Z"/>
  <path class="cls-23" d="M150.5,183.2c.2.3.3.6.3,1,0,.4,0,.7-.3,1-.2.3-.5.5-.8.7-.3.1-.7.2-1,.1-.3,0-.7-.2-.9-.5-.2-.3-.4-.6-.5-.9,0-.3,0-.7.1-1,.1-.3.4-.6.7-.8.4-.3.9-.3,1.3-.3.5,0,.9.4,1.1.7Z"/>
  <path class="cls-23" d="M139.3,185.1c.2.3.3.6.3,1,0,.4-.1.7-.3,1-.2.3-.5.5-.8.7-.3.1-.7.2-1,.1-.3,0-.7-.2-.9-.5s-.4-.6-.5-.9c0-.3,0-.7.1-1,.1-.3.4-.6.7-.8.4-.3.9-.3,1.3-.3.5,0,.9.4,1.1.7Z"/>
  <path class="cls-23" d="M154.8,184.9c.2.3.3.7.3,1.1,0,.4-.1.8-.3,1.1s-.5.6-.9.7c-.4.2-.8.2-1.1.1-.4,0-.7-.3-1-.5-.3-.3-.5-.6-.5-1,0-.4,0-.8.1-1.1.1-.4.4-.7.7-.9.4-.3,1-.4,1.5-.3.5.1,1,.4,1.2.8Z"/>
  <path class="cls-23" d="M159.1,184.5c0,.5,0,1-.2,1.5-.2.5-.6.8-1,1.1-.4.3-.9.4-1.4.3-.5,0-1-.2-1.4-.5s-.7-.7-.9-1.2c-.2-.5-.2-1,0-1.5.1-.5.4-.9.8-1.3.4-.3.8-.5,1.4-.6.3,0,.7,0,1,0,.3,0,.6.2.9.4.3.2.5.5.7.8.2.3.3.6.3.9Z"/>
  <path class="cls-23" d="M149.6,186.1c0,.5,0,1-.2,1.5-.2.5-.6.8-1,1.1-.4.3-.9.4-1.4.3-.5,0-1-.2-1.4-.5-.4-.3-.7-.7-.9-1.2-.2-.5-.2-1,0-1.5.1-.5.4-.9.8-1.3.4-.3.9-.5,1.4-.6.3,0,.7,0,1,0s.6.2.9.4c.3.2.5.5.7.8.2.3.3.6.3.9Z"/>
  <path class="cls-23" d="M146.6,185.6c0,.5,0,1-.2,1.5-.2.5-.6.8-1,1.1-.4.3-.9.4-1.4.3-.5,0-1-.2-1.4-.5-.4-.3-.7-.7-.9-1.2-.2-.5-.2-1,0-1.5.1-.5.4-.9.8-1.3.4-.3.8-.5,1.4-.6.7,0,1.4,0,1.9.5.5.4.9,1,1,1.7Z"/>
  <path class="cls-23" d="M143.2,185.8c0,.5,0,1-.2,1.5-.2.5-.6.8-1,1.1-.4.3-.9.4-1.5.3-.5,0-1-.2-1.4-.5-.4-.3-.7-.7-.9-1.2-.2-.5-.2-1,0-1.5.1-.5.4-.9.8-1.3s.9-.5,1.4-.6c.3,0,.7,0,1,0,.3,0,.6.2.9.4s.5.5.7.8c.2.3.3.6.3.9Z"/>
  <path class="cls-23" d="M138.1,186.7c0,.4,0,.8-.2,1.1-.2.3-.4.6-.8.8-.3.2-.7.3-1.1.3-.4,0-.8-.2-1.1-.4-.3-.2-.5-.5-.7-.9-.1-.4-.1-.8,0-1.1,0-.4.3-.7.6-1,.3-.3.6-.4,1-.5.5,0,1,0,1.4.4.4.3.7.8.7,1.3Z"/>
  <path class="cls-23" d="M162.1,183.8c0,.4,0,.8-.2,1.1-.2.3-.4.6-.8.8-.3.2-.7.3-1.1.3-.4,0-.8-.2-1.1-.4-.3-.2-.5-.6-.7-.9s-.1-.8,0-1.1.3-.7.6-1c.3-.3.7-.4,1-.5.3,0,.5,0,.8,0,.2,0,.5.2.7.3.2.2.4.4.5.6.1.2.2.5.2.7Z"/>
  <path class="cls-25" d="M165.6,186.2l-1.6,41-24.9,1.2-5.5-40.6,2.7.5,4.8.9,2.8.5,4.6.9,1.4.3,1.3-.4,4.5-1.3,2.7-.8,4.6-1.4h0l2.6-.8Z"/>
  <path class="cls-19" d="M165.6,186.2l-1.6,41h-2.6c0,.1,1.6-40.2,1.6-40.2h0l2.6-.8Z"/>
  <path class="cls-19" d="M158.3,188.3v39.1c.1,0-2.5.1-2.5.1v-38.4c-.1,0,2.5-.8,2.5-.8Z"/>
  <path class="cls-19" d="M151.1,190.5l1.8,37.2h-2.7c0,.1-1.8-37.1-1.8-37.1l1.4.3,1.3-.4Z"/>
  <path class="cls-19" d="M147.3,228h-2.7c0,.1-3.5-38.8-3.5-38.8l2.8.5,3.5,38.2Z"/>
  <path class="cls-19" d="M141.6,228.2h-2.6c0,.1-5.5-40.5-5.5-40.5l2.7.5,5.4,40Z"/>
  <g class="cls-30">
    <path class="cls-16" d="M165.6,186.2l-1.6,41h-2.6c0,.1,1.6-40.2,1.6-40.2h0l2.6-.8Z"/>
    <path class="cls-16" d="M158.3,188.3v39.1c.1,0-2.5.1-2.5.1v-38.4c-.1,0,2.5-.8,2.5-.8Z"/>
    <path class="cls-16" d="M151.1,190.5l1.8,37.2h-2.7c0,.1-1.8-37.1-1.8-37.1l1.4.3,1.3-.4Z"/>
    <path class="cls-16" d="M147.3,228h-2.7c0,.1-3.5-38.8-3.5-38.8l2.8.5,3.5,38.2Z"/>
    <path class="cls-16" d="M141.6,228.2h-2.6c0,.1-5.5-40.5-5.5-40.5l2.7.5,5.4,40Z"/>
  </g>
  <path class="cls-8" d="M167.3,207.4l-4.8-4.9-.6,7.1s3.7,2.5,6.3,1.1l-.9-3.3Z"/>
  <path class="cls-8" d="M156.7,201.8l-.2,5.9,5.4,1.8.6-7.1-5.8-.7Z"/>
  <path class="cls-19" d="M222.5,170.3c-3,4.9-21.8,6.4-21.8,6.4l-2.2-13.5c5-1.6,10.1-2.7,15.3-3.1,7.6-.5,11.9,4.9,8.6,10.2Z"/>
  <path class="cls-26" d="M222.5,170.3c-3,4.9-21.8,6.4-21.8,6.4l-2.2-13.5c5-1.6,10.1-2.7,15.3-3.1,7.6-.5,11.9,4.9,8.6,10.2Z"/>
  <path class="cls-19" d="M213.9,160.1s-9.7,16.8-8.1,51.1l31.7,4.8c1-4.8,1.5-29,9.7-51.2-3.4-1.2-6.9-2.2-10.4-3-4.4-.9-8.9-1.6-13.5-2-3.1-.2-6.2,0-9.4.3Z"/>
  <path class="cls-26" d="M213.9,160.1s-9.7,16.8-8.1,51.1l31.7,4.8c1-4.8,1.5-29,9.7-51.2-3.4-1.2-6.9-2.2-10.4-3-4.4-.9-8.9-1.6-13.5-2-3.1-.2-6.2,0-9.4.3Z"/>
  <path class="cls-19" d="M205.8,211.2s-32.4,15.4-39.9,32.3c-5.1,11.7-9.3,23.7-12.8,36l8.7,6.4s12-25.2,25.8-38.3c15.1-14.2,39.7-33.6,39.7-33.6l-21.5-2.9Z"/>
  <path class="cls-6" d="M161.1,169.2l-6.5-1.8.5,6.2c1.1.4,2.2.5,3.4.5,1.2,0,2.3-.4,3.3-.9l-.6-4Z"/>
  <path class="cls-6" d="M150.2,169.5l-.2,4.2h5.1s-.5-6.3-.5-6.3l-4.4,2.1Z"/>
  <path class="cls-20" d="M239.3,173c-1,4.6,0,9.3,2.3,11.7.3-1.6.7-3.3,1.1-5l-3.4-6.7Z"/>
  <path class="cls-6" d="M237.7,146.5c-1.5,4.2-3.6,12-1,15.4,0,0-1.9,4.2-9.9,3-6.4-1-3.6-5-3.6-5,5-.4,5.4-4,5.1-7.5l9.3-5.8Z"/>
  <path class="cls-23" d="M235.9,159.5s-2.1,3.4-9.8,5.2c.4,1.6.3,3.2-.2,4.7,0,0,9.2-2.9,11.4-7.6l-1.4-2.4Z"/>
  <path class="cls-23" d="M223,168.4s1.2-2.6,3.2-3.6c-.9-1.5-1.5-4.7-.2-5.9-1,0-1.9.3-2.8.5,0,0-1.9,2.6-.2,9Z"/>
  <path class="cls-5" d="M233.9,148.9l-5.5,3.4c0,.8.1,1.6,0,2.4,1.9,0,4.7-1.6,5.2-3.5.2-.8.3-1.5.3-2.3Z"/>
  <path class="cls-16" d="M225.7,130.6c-3.2.8-6.1,9-2.5,11.4,3.5,2.5,8.6-13,2.5-11.4Z"/>
  <path class="cls-6" d="M239.3,139.8c-1.3,6-1.7,9.5-5.2,12.1-5.3,3.9-12.3,0-12.8-6.2-.5-5.6,1.7-14.4,8-15.9,1.4-.3,2.8-.3,4.2,0,1.4.4,2.6,1.1,3.6,2.1,1,1,1.8,2.2,2.1,3.6.4,1.4.4,2.8.1,4.2Z"/>
  <path class="cls-16" d="M229.9,140.1c0,.5-.4.8-.7.8s-.5-.5-.4-1c0-.5.4-.8.7-.8s.5.5.4,1Z"/>
  <path class="cls-16" d="M224.4,139.3c0,.5-.4.8-.7.8s-.5-.5-.4-1c0-.5.4-.8.7-.8s.5.5.4,1Z"/>
  <path class="cls-2" d="M226.1,139.8c-.8,1.4-1.8,2.7-3,3.8.3.3.7.5,1,.7.4.1.8.2,1.2.2l.7-4.7Z"/>
  <path class="cls-16" d="M227.4,146.1c.5,0,1.1,0,1.6-.3.5-.2,1-.5,1.3-.9,0,0,0,0,0,0,0,0,0,0,0,0s0,0,0,0,0,0,0,0c0,0,0,0,0,0,0,0,0,0,0,0,0,0,0,0,0,0,0,0,0,0,0,0-.4.4-1,.7-1.6.9-.6.2-1.2.2-1.8.1,0,0,0,0,0,0,0,0,0,0,0,0,0,0,0,0,0,0,0,0,0,0,0,0,0,0,0,0,0,.1,0,0,0,0,0,0,.2,0,.5,0,.7,0Z"/>
  <path class="cls-16" d="M231.9,138.6s0,0,.1,0c0,0,0,0,0,0,0,0,0,0,0,0,0,0,0,0,0-.1,0,0,0,0,0-.1-.2-.4-.5-.8-.9-1-.4-.3-.8-.4-1.3-.5,0,0-.2,0-.2,0,0,0,0,.1,0,.2,0,0,0,0,0,.1,0,0,0,0,0,0,0,0,0,0,0,0s0,0,.1,0c.4,0,.7.2,1,.4.3.2.5.5.7.8,0,0,0,0,.1,0,0,0,0,0,.1,0Z"/>
  <path class="cls-16" d="M222.3,137s0,0,.1,0c0,0,0,0,.1,0,.2-.3.5-.6.8-.7.3-.2.7-.3,1-.3,0,0,0,0,.1,0,0,0,0,0,0,0,0,0,0,0,0,0,0,0,0,0,0-.1,0,0,0-.2,0-.2,0,0-.1,0-.2,0-.5,0-.9.1-1.3.4-.4.2-.7.5-1,.9,0,0,0,0,0,.1,0,0,0,.1,0,.2,0,0,0,0,.1.1,0,0,.1,0,.2,0Z"/>
  <path class="cls-6" d="M239.6,173.7c1.1,1.6,2.3,3.4,3.4,5.1,1.1,1.7,2.2,3.5,3.3,5.3,2.1,3.5,3.9,7.1,5.5,10.8.7,1.8,1.3,3.6,1.8,5.4.4,1.4.5,2.9.5,4.4,0,.2,0,.3,0,.5,0,.1,0,.2,0,.3-.1.1-.2.3-.4.4-.3.2-.5.3-.8.4-1.7.4-3.5.4-5.2.2l-1.6,4.2c.6.3,1.1.6,1.7.8.6.2,1.1.5,1.7.6,1.3.4,2.6.6,4,.6.8,0,1.6,0,2.3-.3.9-.2,1.7-.6,2.5-1.1.8-.5,1.5-1.2,2.1-2,.5-.8,1-1.6,1.3-2.4.5-1.4.7-3,.7-4.5,0-1.3-.2-2.6-.4-3.8-.4-2.3-1.1-4.6-1.9-6.9-.8-2.1-1.7-4.2-2.6-6.3-1-2-2-4-3.1-5.9-1.1-1.9-2.2-3.8-3.4-5.7-1.2-1.9-2.4-3.7-3.8-5.5l-7.3,5.4Z"/>
  <path class="cls-6" d="M248.6,206.5l-6.5-1.1,3.4,6.8s4.8-.1,5.4-2.4l-2.3-3.3Z"/>
  <path class="cls-6" d="M237.7,208.8l3.1,5.5,4.7-2.1-3.4-6.8-4.3,3.4Z"/>
  <path class="cls-16" d="M245.3,140.8c-3.1,4.7-6.2,7.4-8.7,6.8-2.5-.6-2.4-6.2-.4-11,1.5-3.6-2-2.9-6.6-3.1-5.1-.3-8.5-4.5-6.7-7.6-.4.7,8.2.8,5.7-2.2,4.8-.6,16.5,1.5,17.1,9.9,3.4.3,1.9,3.8-.4,7.2Z"/>
  <path class="cls-16" d="M245.7,134c0-.4,0-.7.1-1.1.1-.3.3-.7.6-.9.3-.3.6-.5.9-.6.3-.1.7-.2,1.1-.2-1,.8-1.9,1.8-2.7,2.8Z"/>
  <path class="cls-6" d="M241,146.9c-1,1.2-2.4,1.9-3.9,2-2,.1-2.6-1.8-1.7-3.5.8-1.5,2.9-3.4,4.7-2.8.4.2.8.4,1,.7.3.3.5.7.6,1.1,0,.4,0,.9,0,1.3-.1.4-.3.8-.6,1.1Z"/>
  <path class="cls-19" d="M247.1,164.8c5.8,2.1,12,20.3,12,20.3l-13,5.2c-2.5-4.8-4.7-9.7-6.7-14.7-2.7-7.2,2-12.8,7.7-10.7Z"/>
  <path class="cls-26" d="M247.1,164.8c5.8,2.1,12,20.3,12,20.3l-13,5.2c-2.5-4.8-4.7-9.7-6.7-14.7-2.7-7.2,2-12.8,7.7-10.7Z"/>
  <path class="cls-6" d="M154.6,293.6l-4.8-3.6,7.2-11.9,4.8,3.6-7.2,11.9Z"/>
  <path class="cls-5" d="M157.1,278l-3.7,6.2,4.8,3.6,3.7-6.2-4.8-3.6Z"/>
  <path class="cls-6" d="M216.8,285.9l-5.1,3.2-8.6-11,5.1-3.2,8.6,11Z"/>
  <path class="cls-5" d="M203.2,278l4.4,5.7,4.7-3.6-4.1-5.2-5.1,3.2Z"/>
  <path class="cls-22" d="M205.8,211.2s-32.4,15.4-39.9,32.3c-5.1,11.7-9.3,23.7-12.8,36l8.7,6.4s12-25.2,25.8-38.3c15.1-14.2,39.7-33.6,39.7-33.6l-21.5-2.9Z"/>
  <path class="cls-16" d="M150.3,289.4l5.2,4c0,0,.2.2.2.3,0,.1,0,.2,0,.4l-2,5.2c0,.1-.1.2-.2.3,0,0-.2.2-.3.2-.1,0-.3,0-.4,0-.1,0-.2,0-.3-.2-1.9-1.5-4.5-3.6-6.8-5.4-2.8-2.1-5.2-3.8-8.5-6.2-2-1.5-1.1-4-.2-3.5,4.3,2,7.4,4.2,12,4.6.5,0,1,.2,1.4.5Z"/>
  <path class="cls-19" d="M149.4,289.7s0,0,.1,0c0,0,0,0,0,0s0,0,0,0c-.1-.3-1.4-2.8-2.2-2.9,0,0-.2,0-.2,0,0,0-.1,0-.2.1,0,.1-.1.2-.2.3,0,.1,0,.3,0,.4.2.9,1.7,1.7,2.6,2.1,0,0,0,0,0,0,0,0,0,0,0,0ZM147.3,287c.4,0,1.2,1.3,1.8,2.3-1.2-.6-1.9-1.3-2-1.8,0,0,0-.2,0-.3,0,0,0-.2.1-.2,0,0,0,0,0,0,0,0,0,0,0,0h0Z"/>
  <path class="cls-19" d="M149.4,289.7s0,0,0,0,0,0,0,0c0,0,1.3-2.4,0-3.2-.3-.2-.5-.1-.6,0-.5.5,0,2.4.3,3.2,0,0,0,0,0,0,0,0,0,0,0,0ZM149.2,286.7c0,0,.1,0,.2,0,.8.5.2,1.9,0,2.5-.4-.8-.6-2.3-.3-2.6,0,0,0,0,0,0Z"/>
  <path class="cls-19" d="M161.9,286.7l-9.6-7.1,1.4-3.3,10.5,7.2-2.3,3.2Z"/>
  <path class="cls-16" d="M211.4,288.5l5.6-3.4c.1,0,.2,0,.3,0,.1,0,.2,0,.3.1l4.1,3.7c0,0,.2.2.2.3s0,.2,0,.4c0,.1,0,.3-.1.4,0,.1-.2.2-.3.3-2,1.2-3.1,2.2-5.7,3.5-5.2,2.5-5.9,6-10.9,6s-3.7-2-2.7-2.3c6-2,6.2-3.5,8.1-7.7.2-.5.5-.9.9-1.1Z"/>
  <path class="cls-19" d="M208.6,291.1c.9,0,2.1-1,2.8-1.6,0,0,0,0,0,0s0,0,0,0c0,0,0,0,0,0,0,0,0,0,0,0-.3,0-3.1.3-3.5,1,0,0,0,.1,0,.2s0,.1,0,.2c0,.1.2.2.3.3.1,0,.2.1.4.1h.2ZM210.8,289.5c-1,.9-1.9,1.3-2.4,1.3,0,0-.2,0-.2,0,0,0-.1-.1-.2-.2,0,0,0,0,0,0s0,0,0,0c.2-.4,1.7-.7,2.8-.8Z"/>
  <path class="cls-19" d="M210.8,289.5c.1,0,.3,0,.4,0,0,0,0,0,0,0,0,0,0,0,0,0,0,0,0,0,0,0s0,0,0,0c0,0-1.8-2.1-2.9-1.2-.3.2-.3.4-.2.6.2.5,1.7.8,2.6.8ZM210.9,289.2c-.9,0-2.3-.3-2.5-.7,0,0,0-.1.1-.3.7-.6,1.9.5,2.3.9Z"/>
  <path class="cls-19" d="M217,212.9s-47.2-1.4-45.7,12.6c2.1,19.1,33,57.1,33,57.1l6.9-6.4s-13.8-27.2-16.7-39.3c-1.4-5.7,27.1,2.2,34.3-2.8,4.4-3,7.1-8.9,8.5-18l-20.4-3.1Z"/>
  <path class="cls-7" d="M217,212.9s-47.2-1.4-45.7,12.6c2.1,19.1,33,57.1,33,57.1l6.9-6.4s-13.8-27.2-16.7-39.3c-1.4-5.7,27.1,2.2,34.3-2.8,4.4-3,7.1-8.9,8.5-18l-20.4-3.1Z"/>
  <path class="cls-19" d="M212.6,276.7l-8.8,7-3.1-3.2,10-6.9,1.8,3Z"/>
  <path class="cls-16" d="M282.7,209.1h-17.7v-2.2h17.7v2.2Z"/>
  <path class="cls-19" d="M255.4,206.9h9.6v2.2h-9.6v-2.2Z"/>
  <path class="cls-19" d="M306.3,209h1.2c8.5.6,15.4,7.8,15.9,16.7.1,2,0,3.9-.6,5.8-1.9,7.6-2.8,15.4-2.7,23.3v34.4c0,.8-.3,1.5-.8,2.1-.5.6-1.3.9-2.1.9h-69.7v-83.2h58.7Z"/>
  <path class="cls-27" d="M306.3,209h1.2c8.5.6,15.4,7.8,15.9,16.7.1,2,0,3.9-.6,5.8-1.9,7.6-2.8,15.4-2.7,23.3v34.4c0,.8-.3,1.5-.8,2.1-.5.6-1.3.9-2.1.9h-69.7v-83.2h58.7Z"/>
  <path class="cls-19" d="M230.4,226.9c0-10.3,8.3-18.6,18.4-17.8,8.5.6,15.4,7.8,15.9,16.7.1,2,0,3.9-.6,5.8-1.9,7.6-2.8,15.4-2.7,23.3v34.4c0,.8-.3,1.5-.8,2.1-.5.6-1.3.9-2.1.9h-22c-.4,0-.8,0-1.1-.2-.4-.2-.7-.4-.9-.7-.3-.3-.5-.6-.6-1-.1-.4-.2-.7-.2-1.1v-35.7c0-7.4-.8-14.7-2.7-21.8-.4-1.6-.6-3.2-.7-4.8Z"/>
  <path class="cls-14" d="M230.4,226.9c0-10.3,8.3-18.6,18.4-17.8,8.5.6,15.4,7.8,15.9,16.7.1,2,0,3.9-.6,5.8-1.9,7.6-2.8,15.4-2.7,23.3v34.4c0,.8-.3,1.5-.8,2.1-.5.6-1.3.9-2.1.9h-22c-.4,0-.8,0-1.1-.2-.4-.2-.7-.4-.9-.7-.3-.3-.5-.6-.6-1-.1-.4-.2-.7-.2-1.1v-35.7c0-7.4-.8-14.7-2.7-21.8-.4-1.6-.6-3.2-.7-4.8Z"/>
</svg>