<?xml version="1.0" encoding="UTF-8"?>
<svg id="Layer_1" data-name="Layer 1" xmlns="http://www.w3.org/2000/svg" version="1.1" viewBox="0 0 2210 1647">
  <defs>
    <style>
      .cls-1 { fill: #EEF4FC; }

      .cls-1, .cls-2, .cls-3, .cls-4, .cls-5, .cls-6, .cls-7, .cls-8, .cls-9, .cls-10, .cls-11, .cls-12, .cls-13, .cls-14, .cls-15, .cls-16, .cls-17, .cls-18, .cls-19, .cls-20 {
        stroke-width: 0px;
      }

      .cls-2 { fill: #BBD9FF; }

      .cls-3 { fill: #f5f5f5; }

      .cls-4 { fill: #407bff; }

      .cls-5 { fill: #ebebeb; }

      .cls-6 { fill: #EEF4FC; }

      .cls-7 { fill: #BBD9FF; }

      .cls-8, .cls-10, .cls-11, .cls-12, .cls-13, .cls-14, .cls-16, .cls-19, .cls-20 { isolation: isolate; }

      .cls-8, .cls-10, .cls-11, .cls-12, .cls-14, .cls-16, .cls-17, .cls-20 { fill: #012E71; }

      .cls-8, .cls-19 { opacity: .2; }

      .cls-9 { fill: #e0e0e0; }

      .cls-10, .cls-21 { opacity: .5; }

      .cls-11, .cls-22 { opacity: .6; }

      .cls-12 { opacity: .8; }

      .cls-13, .cls-16 { opacity: .1; }

      .cls-13, .cls-19 { fill: #000; }

      .cls-14 { opacity: .7; }

      .cls-15 { fill: #f0f0f0; }

      .cls-18 { fill: #e6e6e6; }

      .cls-20 { opacity: .4; }

      /* Animation for password1, password2, passwordcopy, messagebubble */
      @keyframes fade {
        0%, 100% { opacity: 0; }
        50% { opacity: 1; }
      }

      #messagebubble {
      animation: fade 8s infinite;
      }

      #password2, #passwordcopy {
        animation: fade 8s infinite;
      }

       #password1 {
        animation: fade 12s infinite;
      }

    </style>
  </defs>
  <path class="cls-5" d="M2209.7,1446.9H0v1.1h2209.7v-1.1Z"/>
  <path class="cls-5" d="M1988.3,1518h-146.4v1.1h146.4v-1.1Z"/>
  <path class="cls-5" d="M1463.8,1530h-38.4v1.1h38.4v-1.1Z"/>
  <path class="cls-5" d="M1837.5,1477h-84.8v1.1h84.8v-1.1Z"/>
  <path class="cls-5" d="M422.7,1484.4h-190.9v1.1h190.9v-1.1Z"/>
  <path class="cls-5" d="M490.1,1484.4h-28v1.1h28v-1.1Z"/>
  <path class="cls-5" d="M995,1503.1h-414v1.1h414v-1.1Z"/>
  <path class="cls-5" d="M1047.4,1249.8H194.1c-6.7,0-13.1-2.7-17.8-7.4-4.7-4.7-7.4-11.1-7.4-17.8V25c0-6.6,2.7-13,7.5-17.7C181,2.6,187.4,0,194.1,0h853.3c6.7,0,13.1,2.7,17.8,7.4,4.7,4.7,7.4,11.2,7.4,17.8v1199.3c0,6.7-2.7,13.1-7.4,17.8s-11.2,7.4-17.8,7.4ZM194.1.9c-6.4,0-12.5,2.6-17,7.1-4.5,4.5-7.1,10.7-7.1,17v1199.5c0,6.4,2.5,12.5,7.1,17,4.5,4.5,10.6,7.1,17,7.1h853.3c6.4,0,12.5-2.6,17-7.1,4.5-4.5,7.1-10.7,7.1-17V25c0-6.4-2.6-12.5-7.1-17-4.5-4.5-10.6-7.1-17-7.1H194.1Z"/>
  <path class="cls-5" d="M2003.3,1249.8h-853.4c-6.7,0-13.1-2.7-17.8-7.4s-7.4-11.1-7.4-17.8V25c0-6.7,2.8-13,7.5-17.7,4.7-4.7,11.1-7.3,17.8-7.3h853.4c6.6,0,13,2.7,17.7,7.3,4.7,4.7,7.4,11,7.4,17.7v1199.5c0,6.7-2.7,13.1-7.4,17.8s-11.1,7.4-17.8,7.4ZM1150,.9c-6.4,0-12.5,2.6-17,7.1-4.5,4.5-7.1,10.7-7.1,17v1199.5c0,6.4,2.6,12.5,7.1,17,4.5,4.5,10.7,7.1,17,7.1h853.4c6.4,0,12.5-2.6,17.1-7.1,4.5-4.5,7.1-10.7,7.1-17V25c0-6.4-2.5-12.5-7.1-17-4.5-4.5-10.7-7.1-17.1-7.1h-853.4Z"/>
  <path class="cls-15" d="M984.1,568.9H292.3v876h691.8v-876Z"/>
  <path class="cls-9" d="M959.7,600.9H316.8v187.3h642.9v-187.3Z"/>
  <path class="cls-5" d="M353.3,631.2h-36.5v157h36.5v-157Z"/>
  <path class="cls-5" d="M529.9,631.2h-36.5v157h36.5v-157Z"/>
  <path class="cls-5" d="M730.3,627.2l-36,6.2,26.7,154.7,36-6.2-26.7-154.7Z"/>
  <path class="cls-5" d="M398.5,651.9h-36.5v136.3h36.5v-136.3Z"/>
  <path class="cls-5" d="M482.5,651.9h-36.5v136.3h36.5v-136.3Z"/>
  <path class="cls-5" d="M694.3,651.9h-36.5v136.3h36.5v-136.3Z"/>
  <path class="cls-5" d="M577.8,647.2l-35.6,7.9,29.6,133,35.6-7.9-29.6-133Z"/>
  <path class="cls-5" d="M430.1,623.4h-18.3v164.8h18.3v-164.8Z"/>
  <path class="cls-5" d="M647.3,623.4h-18.3v164.8h18.3v-164.8Z"/>
  <path class="cls-9" d="M316.8,1005.1h642.9v-187.3H316.8v187.3Z"/>
  <path class="cls-5" d="M923.2,1005.1h36.5v-157h-36.5v157Z"/>
  <path class="cls-5" d="M746.6,1005.1h36.5v-157h-36.5v157Z"/>
  <path class="cls-5" d="M519.4,999l36,6.2,26.7-154.7-36-6.2-26.7,154.7Z"/>
  <path class="cls-5" d="M877.9,1005.1h36.5v-136.3h-36.5v136.3Z"/>
  <path class="cls-5" d="M794,1005.1h36.5v-136.3h-36.5v136.3Z"/>
  <path class="cls-5" d="M582.1,1005.1h36.5v-136.3h-36.5v136.3Z"/>
  <path class="cls-5" d="M669.1,997.2l35.6,7.9,29.6-133-35.6-7.9-29.6,133Z"/>
  <path class="cls-5" d="M846.3,1005.1h18.3v-164.8h-18.3v164.8Z"/>
  <path class="cls-5" d="M629.1,1005.1h18.3v-164.8h-18.3v164.8Z"/>
  <path class="cls-5" d="M353.3,848.2h-36.5v157h36.5v-157Z"/>
  <path class="cls-5" d="M398.5,868.8h-36.5v136.3h36.5v-136.3Z"/>
  <path class="cls-5" d="M482.5,868.8h-36.5v136.3h36.5v-136.3Z"/>
  <path class="cls-5" d="M430.1,840.3h-18.3v164.8h18.3v-164.8Z"/>
  <path class="cls-9" d="M959.7,1034.8H316.8v187.3h642.9v-187.3Z"/>
  <path class="cls-5" d="M722.3,1065.1h-36.5v157h36.5v-157Z"/>
  <path class="cls-5" d="M922.8,1061.2l-36,6.2,26.7,154.7,36-6.2-26.7-154.7Z"/>
  <path class="cls-5" d="M590.9,1085.8h-36.5v136.3h36.5v-136.3Z"/>
  <path class="cls-5" d="M674.9,1085.8h-36.5v136.3h36.5v-136.3Z"/>
  <path class="cls-5" d="M886.7,1085.8h-36.5v136.3h36.5v-136.3Z"/>
  <path class="cls-5" d="M770.3,1081.1l-35.6,7.9,29.6,133,35.6-7.9-29.6-133.1Z"/>
  <path class="cls-5" d="M622.5,1057.3h-18.3v164.8h18.3v-164.8Z"/>
  <path class="cls-5" d="M839.7,1057.3h-18.3v164.8h18.3v-164.8Z"/>
  <path class="cls-5" d="M502.6,1061.2l-36,6.2,26.7,154.7,36-6.2-26.7-154.7Z"/>
  <path class="cls-5" d="M466.6,1085.8h-36.5v136.3h36.5v-136.3Z"/>
  <path class="cls-5" d="M350.1,1081.1l-35.6,7.9,29.6,133,35.6-7.9-29.6-133Z"/>
  <path class="cls-5" d="M419.6,1057.3h-18.3v164.8h18.3v-164.8Z"/>
  <path class="cls-18" d="M1349.1,922h389.9c10.1,0,20,2,29.3,5.8,9.3,3.9,17.8,9.5,24.9,16.6,7.1,7.1,12.8,15.6,16.6,24.9,3.8,9.3,5.8,19.3,5.8,29.4v304.4h-542.8v-304.4c0-20.3,8-39.8,22.3-54.2,14.3-14.4,33.8-22.5,54.1-22.6Z"/>
  <path class="cls-9" d="M1157.3,1147.7h69.7c6,0,11.9,1.1,17.5,3.4,5.5,2.3,10.6,5.6,14.8,9.9,4.2,4.2,7.6,9.3,9.9,14.8,2.3,5.5,3.5,11.5,3.5,17.5v251.9h-161v-251.9c0-6,1.2-11.9,3.5-17.4,2.3-5.5,5.6-10.6,9.9-14.8,4.2-4.2,9.2-7.6,14.8-9.9,5.5-2.3,11.4-3.5,17.4-3.5Z"/>
  <path class="cls-5" d="M1157.3,1147.7h1.5c6,0,11.9,1.2,17.4,3.5,5.5,2.3,10.6,5.6,14.8,9.9,4.2,4.2,7.6,9.3,9.9,14.8,2.3,5.5,3.5,11.4,3.4,17.4v251.9h-92.5v-251.9c0-6,1.2-11.9,3.5-17.4,2.3-5.5,5.6-10.6,9.9-14.8,4.2-4.2,9.2-7.6,14.8-9.9,5.5-2.3,11.4-3.5,17.4-3.5Z"/>
  <path class="cls-18" d="M1758.8,1329.3h-535v115.7h535v-115.7Z"/>
  <path class="cls-3" d="M1739,1223.5h-516c-25.6,0-46.3,20.7-46.3,46.3v28.8c0,25.6,20.7,46.3,46.3,46.3h516c25.6,0,46.3-20.7,46.3-46.3v-28.8c0-25.6-20.7-46.3-46.3-46.3Z"/>
  <path class="cls-9" d="M1738.1,1223.5h-63.9c-25.6,0-46.3,20.7-46.3,46.3v28.8c0,25.6,20.7,46.3,46.3,46.3h63.9c25.6,0,46.3-20.7,46.3-46.3v-28.8c0-25.6-20.7-46.3-46.3-46.3Z"/>
  <path class="cls-9" d="M1745,1147.7h69.8c6,0,11.9,1.2,17.4,3.5,5.5,2.3,10.5,5.6,14.8,9.9,4.2,4.2,7.6,9.2,9.8,14.8,2.3,5.5,3.5,11.4,3.4,17.4v251.9h-160.7v-251.9c0-6,1.1-11.9,3.4-17.4,2.3-5.5,5.6-10.6,9.8-14.8,4.2-4.2,9.2-7.6,14.8-9.9s11.4-3.5,17.4-3.5Z"/>
  <path class="cls-15" d="M1745,1147.7h1.5c6,0,11.9,1.2,17.4,3.5,5.5,2.3,10.5,5.6,14.8,9.9,4.2,4.2,7.6,9.2,9.8,14.8,2.3,5.5,3.5,11.4,3.4,17.4v251.9h-92.4v-251.9c0-6,1.1-11.9,3.4-17.4,2.3-5.5,5.6-10.6,9.8-14.8,4.2-4.2,9.2-7.6,14.8-9.9s11.4-3.5,17.4-3.5Z"/>
  <path class="cls-9" d="M664,462.4c56.7-9.2,95.3-62.7,86.1-119.4s-62.7-95.3-119.4-86.1c-56.7,9.2-95.3,62.7-86.1,119.4,9.2,56.7,62.7,95.3,119.4,86.1Z"/>
  <path class="cls-15" d="M661.5,447.1c48.3-7.8,81-53.3,73.2-101.6-7.8-48.3-53.3-81-101.6-73.2-48.3,7.8-81,53.3-73.2,101.6,7.8,48.3,53.3,81,101.6,73.2Z"/>
  <path class="cls-15" d="M643.2,420.5v-61.9l-41,23.2"/>
  <path class="cls-9" d="M643.2,424.9c-1.2,0-2.3-.5-3.1-1.3-.8-.8-1.3-2-1.3-3.1v-54.3l-34.4,19.5c-1,.6-2.2.7-3.4.4-1.1-.3-2.1-1.1-2.7-2.1-.6-1-.7-2.2-.4-3.3.3-1.1,1-2.1,2.1-2.7l41-23.2c.7-.4,1.4-.6,2.2-.6.8,0,1.5.2,2.2.6.7.4,1.2.9,1.6,1.6.4.7.6,1.4.6,2.2v61.9c0,1.2-.5,2.3-1.3,3.1-.8.8-2,1.3-3.1,1.3Z"/>
  <path class="cls-18" d="M1894.2,228.4h-666.2v591.2h666.2V228.4Z"/>
  <path class="cls-15" d="M1876.6,244.6h-632v559.1h632V244.6Z"/>
  <path class="cls-17" d="M1392.9,244.6l-148.3,557.9v-262.1l78.3-295.7h70Z"/>
  <path class="cls-17" d="M1445.5,244.6l-149.6,559.1h-23.9l149.6-559.1h23.9Z"/>
  <path class="cls-17" d="M1876.6,597.4v89.3l-30.3,117h-23.9l54.1-206.3Z"/>
  <path class="cls-18" d="M1465.1,234.6h-10.7v581.6h10.7V234.6Z"/>
  <path class="cls-18" d="M1671.4,234.6h-10.7v581.6h10.7V234.6Z"/>
  <path class="cls-3" d="M1104.8,1646.5c473.2,0,856.9-22.4,856.9-50s-383.6-50-856.9-50-856.9,22.4-856.9,50,383.6,50,856.9,50Z"/>
  <path class="cls-4" d="M1776.1,1485.9s21-45.8-3-91c-24-45.2-30.9-55.8-15.7-65,15.3-9.3,22.3,36.1,22.3,36.1,7.6-20.5,8.3-42.9,2.2-63.9-10.6-32.7-17.3-85.9-2.8-91.6,14.5-5.7,2.8,66.3,15.4,91,6.4-17.3,10.6-35.3,12.3-53.6,1.7-26.2-1-68.1,10.5-78.9,11.4-10.7,18.8-3.3,7.6,54.6-6.8,34.6-10.5,69.7-11.2,105,0,0,24.9-76,41.6-78.2,16.8-2.2,16.7,22.4,2.4,43.7-14.3,21.3-41.9,59.6-46.4,79.2,0,0,27.4-57.2,51.9-39.8,24.6,17.4-21.4,52-41.9,64.5-20.5,12.5-34.7,90.6-34.7,90.6l-10.6-2.9Z"/>
  <path class="cls-19" d="M1776.1,1485.9s21-45.8-3-91c-24-45.2-30.9-55.8-15.7-65,15.3-9.3,22.3,36.1,22.3,36.1,7.6-20.5,8.3-42.9,2.2-63.9-10.6-32.7-17.3-85.9-2.8-91.6,14.5-5.7,2.8,66.3,15.4,91,6.4-17.3,10.6-35.3,12.3-53.6,1.7-26.2-1-68.1,10.5-78.9,11.4-10.7,18.8-3.3,7.6,54.6-6.8,34.6-10.5,69.7-11.2,105,0,0,24.9-76,41.6-78.2,16.8-2.2,16.7,22.4,2.4,43.7-14.3,21.3-41.9,59.6-46.4,79.2,0,0,27.4-57.2,51.9-39.8,24.6,17.4-21.4,52-41.9,64.5-20.5,12.5-34.7,90.6-34.7,90.6l-10.6-2.9Z"/>
  <path class="cls-4" d="M1792.7,1504.7s-20.5-46.1,4.1-90.9c24.5-44.8,31.6-55.3,16.4-64.8-15.2-9.4-22.8,35.8-22.8,35.8-7.3-20.6-7.8-43-1.5-63.9,11-32.5,18.3-85.7,3.9-91.6-14.5-5.9-3.6,66.3-16.5,90.7-6.2-17.3-10.2-35.4-11.7-53.8-1.4-26.2,1.8-68.1-9.5-79-11.4-10.9-18.8-3.6-8.2,54.5,6.3,34.7,9.7,69.8,9.9,105.1,0,0-24-76.3-40.7-78.8-16.7-2.4-17,22.1-2.9,43.7,14,21.6,41.2,60.2,45.6,79.9,0,0-26.5-57.5-51.4-40.4-24.9,17.1,20.8,52.3,41.1,65.1,20.3,12.8,33.7,91.2,33.7,91.2l10.5-2.9Z"/>
  <path class="cls-7" d="M1698.4,1471.8h168.9l-13.7,120.9h-141.6l-13.7-120.9Z"/>
  <path class="cls-7" d="M1072.1,1573.3v15.9c0,.5,0,.9-.3,1.4-.2.4-.4.8-.8,1.2-.3.3-.7.6-1.2.8-.4.2-.9.3-1.4.3h-448.2c-3.8,0-7.6-.9-11-2.7-3.4-1.8-6.3-4.4-8.4-7.6-2.1-3.2-3.5-6.8-3.9-10.6-.4-3.8.1-7.7,1.5-11.2l142-351.8,229.5,1.5-7.8,45.6-50.6,295.4c-.4,2.2-.3,4.5.3,6.7.6,2.2,1.7,4.2,3.1,6,1.5,1.7,3.3,3.1,5.3,4.1,2.1,1,4.3,1.5,6.6,1.5h141.4c.5,0,.9,0,1.4.3.4.2.8.4,1.2.8.3.3.6.7.8,1.2.2.4.3.9.3,1.4Z"/>
  <path class="cls-10" d="M1072.1,1573.3v15.9c0,.5,0,.9-.3,1.4-.2.4-.4.8-.8,1.2-.3.3-.7.6-1.2.8-.4.2-.9.3-1.4.3h-448.2c-3.8,0-7.6-.9-11-2.7-3.4-1.8-6.3-4.4-8.4-7.6-2.1-3.2-3.5-6.8-3.9-10.6-.4-3.8.1-7.7,1.5-11.2l88.1-218.1,54-133.7,229.5,1.5-7.8,45.6-22.1,128.5-28.6,167c-.4,2.2-.3,4.5.3,6.7.6,2.2,1.7,4.2,3.1,6,1.5,1.7,3.3,3.1,5.3,4.1,2.1,1,4.3,1.5,6.6,1.5h141.4c.5,0,.9,0,1.4.2.4.2.8.4,1.2.8.3.3.6.7.8,1.2.2.4.3.9.3,1.4Z"/>
  <path class="cls-19" d="M927.1,1569.7h-291.7c-1.7,0-3.3-.4-4.8-1.2s-2.7-1.9-3.7-3.3c-.9-1.4-1.5-3-1.7-4.7-.2-1.7,0-3.4.7-4.9l124.5-299.5h211.8l-50.6,295.4c-.4,2.2-.3,4.6.3,6.7.6,2.2,1.7,4.2,3.1,6,1.5,1.7,3.3,3.1,5.4,4.1,2.1,1,4.3,1.5,6.6,1.5Z"/>
  <path class="cls-13" d="M970.2,1210.4l-7.8,45.7-22.1,128.5-253.6-41.9,54-133.7,229.5,1.6Z"/>
  <path class="cls-7" d="M1416.5,554.6H353.9c-3.6,0-7.1.7-10.4,2.1-3.3,1.4-6.3,3.4-8.8,5.9-2.5,2.5-4.5,5.5-5.9,8.8-1.4,3.3-2.1,6.8-2.1,10.4v719.4c0,7.2,2.9,14.1,8,19.2,5.1,5.1,12,8,19.2,8h1062.6c7.2,0,14.1-2.9,19.2-8,5.1-5.1,8-12,8-19.2v-719.4c0-7.2-2.9-14.1-8-19.2-5.1-5.1-12-8-19.2-8Z"/>
  <path class="cls-11" d="M1416.5,554.6H353.9c-3.6,0-7.1.7-10.4,2.1-3.3,1.4-6.3,3.4-8.8,5.9-2.5,2.5-4.5,5.5-5.9,8.8-1.4,3.3-2.1,6.8-2.1,10.4v719.4c0,7.2,2.9,14.1,8,19.2,5.1,5.1,12,8,19.2,8h1062.6c7.2,0,14.1-2.9,19.2-8,5.1-5.1,8-12,8-19.2v-719.4c0-7.2-2.9-14.1-8-19.2-5.1-5.1-12-8-19.2-8Z"/>
  <path class="cls-19" d="M376.4,1328.4h-22.5c-7.2,0-14.1-2.8-19.2-7.9-5.1-5.1-8-12-8-19.2v-719.4c0-3.6.7-7.1,2.1-10.4,1.4-3.3,3.4-6.3,5.9-8.8,2.5-2.5,5.5-4.5,8.8-5.9,3.3-1.4,6.8-2.1,10.4-2.1h22.5c-3.6,0-7.1.7-10.5,2-3.3,1.4-6.3,3.4-8.9,5.9-2.5,2.5-4.6,5.5-5.9,8.8-1.4,3.3-2.1,6.9-2.1,10.4v719.4c0,3.6.7,7.1,2.1,10.4,1.4,3.3,3.4,6.3,5.9,8.8,2.5,2.5,5.6,4.5,8.9,5.9,3.3,1.3,6.9,2,10.4,2Z"/>
  <path class="cls-4" d="M1419.3,578H373.8v693.7h1045.5v-693.7Z"/>
  <path class="cls-20" d="M882.1,842.1c50.1,0,90.8-40.6,90.8-90.8s-40.6-90.8-90.8-90.8-90.8,40.6-90.8,90.8,40.6,90.8,90.8,90.8Z"/>
  <path class="cls-17" d="M860.5,737.5v-8.3c0-4,1.6-7.8,4.4-10.6,2.8-2.8,6.6-4.4,10.6-4.4h13.3c2,0,3.9.3,5.8,1.1,1.8.7,3.5,1.8,4.9,3.2,1.4,1.4,2.5,3,3.3,4.9.8,1.8,1.2,3.8,1.2,5.8v8.5h9.7v-8.5c0-6.5-2.6-12.8-7.2-17.4-4.6-4.6-10.9-7.2-17.4-7.2h-13.3c-6.5,0-12.8,2.6-17.4,7.2-4.6,4.6-7.2,10.9-7.2,17.4v8.5l9.5-.2Z"/>
  <path class="cls-17" d="M838.6,748.7v44.6c0,.7.1,1.3.4,1.9.2.6.6,1.1,1.1,1.6.5.5,1,.8,1.6,1.1.6.2,1.2.4,1.9.4h77.2c.6,0,1.3-.1,1.9-.4.6-.2,1.1-.6,1.6-1.1.5-.5.8-1,1.1-1.6.2-.6.4-1.2.4-1.9v-44.6c0-1.3-.5-2.6-1.5-3.5-.9-.9-2.2-1.4-3.5-1.4h-77.2c-.7,0-1.3.1-1.9.4-.6.2-1.1.6-1.6,1.1s-.8,1-1.1,1.6c-.2.6-.4,1.2-.4,1.9ZM884.9,773.9v8.8h-5.4v-8.8c-.8-.4-1.5-1.1-1.9-1.9-.5-.8-.8-1.7-.8-2.6,0-1.5.6-2.9,1.6-3.9,1-1,2.4-1.6,3.9-1.6s2.9.6,3.9,1.6c1,1,1.6,2.4,1.6,3.9,0,.9-.4,1.8-.9,2.6-.5.8-1.2,1.4-2,1.8Z"/>
  <path class="cls-17" d="M660.7,917.2h-85.7c-5.1,0-9.2,4.1-9.2,9.2v85.7c0,5.1,4.1,9.2,9.2,9.2h85.7c5.1,0,9.2-4.1,9.2-9.2v-85.7c0-5.1-4.1-9.2-9.2-9.2Z"/>
  <path class="cls-17" d="M792.8,917.1h-85.7c-5.1,0-9.2,4.1-9.2,9.2v85.7c0,5.1,4.1,9.2,9.2,9.2h85.7c5.1,0,9.2-4.1,9.2-9.2v-85.7c0-5.1-4.1-9.2-9.2-9.2Z"/>
  <path class="cls-17" d="M925,917h-85.7c-5.1,0-9.2,4.1-9.2,9.2v85.7c0,5.1,4.1,9.2,9.2,9.2h85.7c5.1,0,9.2-4.1,9.2-9.2v-85.7c0-5.1-4.1-9.2-9.2-9.2Z"/>
  <path class="cls-17" d="M1057.1,916.8h-85.7c-5.1,0-9.2,4.1-9.2,9.2v85.7c0,5.1,4.1,9.2,9.2,9.2h85.7c5.1,0,9.2-4.1,9.2-9.2v-85.7c0-5.1-4.1-9.2-9.2-9.2Z"/>
  <path class="cls-17" d="M1189.2,916.7h-85.7c-5.1,0-9.2,4.1-9.2,9.2v85.7c0,5.1,4.1,9.2,9.2,9.2h85.7c5.1,0,9.2-4.1,9.2-9.2v-85.7c0-5.1-4.1-9.2-9.2-9.2Z"/>
  <g id="password1">
    <path class="cls-7" d="M1123.4,970.8c0-18.3,9.8-28.8,23-28.8s22.9,10.4,22.9,28.8-9.8,28.8-22.9,28.8-23-10.4-23-28.8ZM1161.3,970.8c0-14.4-6.1-21.6-14.9-21.6s-14.9,7.2-14.9,21.6,6.1,21.6,14.9,21.6,14.9-7.2,14.9-21.6Z"/>
    <path class="cls-7" d="M638.7,970.1c0,19.2-10.9,29.5-26.5,29.5-4.9.2-9.7-1-14-3.3l2.8-6.3c3.3,1.9,7,2.8,10.8,2.7,11.4,0,18.6-7.2,18.6-21.3v-2c-1.9,2.5-4.4,4.4-7.2,5.7-2.8,1.3-5.9,1.8-9,1.6-11.2,0-19.2-6.7-19.2-17s8.8-17.7,19.8-17.7c15.3,0,23.8,10.2,23.8,28.1ZM628.8,959.4c0-5.8-4.4-10.9-13.3-10.9-1.5-.2-3.1,0-4.6.4-1.5.5-2.9,1.2-4,2.3-1.2,1-2.1,2.3-2.8,3.7-.6,1.4-1,3-1,4.5,0,6.6,4.9,10.9,12.8,10.9s12.8-4.7,12.8-10.9Z"/>
    <path class="cls-7" d="M727,970.8c0-18.3,9.8-28.8,23-28.8s22.9,10.4,22.9,28.8-9.8,28.8-22.9,28.8-23-10.4-23-28.8ZM764.9,970.8c0-14.4-6.1-21.6-14.9-21.6s-14.9,7.2-14.9,21.6,6.1,21.6,14.9,21.6,14.9-7.2,14.9-21.6Z"/>
    <path class="cls-7" d="M902.4,991.9v6.9h-40.4v-5.3l22.9-22.1c6-5.8,7.1-9.3,7.1-12.9,0-5.8-4.1-9.3-12-9.3-2.7-.2-5.4.3-7.9,1.4-2.5,1.1-4.7,2.7-6.5,4.7l-5.5-4.7c2.6-2.9,5.8-5.1,9.3-6.6,3.6-1.5,7.4-2.1,11.3-1.9,11.7,0,19.3,6,19.3,15.6s-1.6,10.4-9.2,17.7l-17.2,16.5h28.9Z"/>
    <path class="cls-7" d="M1020.9,942.7v56.1h-8v-49.1h-12.7v-7h20.7Z"/>
  </g>
  <g class="cls-22">
    <path class="cls-17" d="M783.2,891.8v2h-15.3v-21.7h14.8v2h-12.6v7.7h11.2v2.1h-11.2v8h13Z"/>
    <path class="cls-17" d="M803.1,884.3v9.5h-2.2v-9.2c.1-.7,0-1.4,0-2.1-.2-.7-.5-1.3-1-1.8-.5-.5-1.1-.9-1.7-1.1-.7-.2-1.4-.3-2.1-.2-.8,0-1.6,0-2.3.3-.7.3-1.4.7-1.9,1.3-.5.6-1,1.2-1.2,2-.3.7-.3,1.5-.3,2.3v8.6h-2.2v-16.3h2.1v3c.7-1,1.6-1.8,2.7-2.4,1.1-.5,2.3-.8,3.5-.7.9,0,1.8,0,2.7.4.9.3,1.6.8,2.3,1.5.6.7,1.1,1.5,1.4,2.3.3.9.4,1.8.3,2.7Z"/>
    <path class="cls-17" d="M817.6,892.7c-1,.8-2.2,1.2-3.4,1.1-.6,0-1.3,0-1.9-.3-.6-.2-1.1-.6-1.6-1-.5-.5-.8-1-1-1.6-.2-.6-.3-1.2-.3-1.9v-9.7h-2.9v-1.9h2.9v-3.5h2.2v3.5h4.9v1.9h-4.9v9.7c0,1.9,1,3,2.8,3,.9,0,1.7-.3,2.4-.8l.8,1.4Z"/>
    <path class="cls-17" d="M835.3,886.3h-13.6c.1,1.6.8,3.1,2,4.2,1.2,1.1,2.8,1.6,4.4,1.5.9,0,1.9-.1,2.7-.5.9-.4,1.6-.9,2.3-1.6l1.2,1.4c-1.2,1.1-2.7,1.9-4.3,2.2-1.6.3-3.3.2-4.8-.4-1.5-.6-2.9-1.6-3.9-2.9-1-1.3-1.6-2.9-1.8-4.5,0-1.1.1-2.2.5-3.2.4-1,1-1.9,1.7-2.7.7-.8,1.6-1.4,2.6-1.8,1-.4,2.1-.6,3.1-.6,1.1,0,2.1.2,3.1.6,1,.4,1.9,1,2.6,1.8.7.8,1.3,1.7,1.7,2.7.4,1,.5,2.1.4,3.2v.7ZM821.6,884.7h11.5c-.1-1.4-.8-2.8-1.9-3.8-1.1-1-2.5-1.5-3.9-1.5s-2.8.5-3.9,1.5c-1.1,1-1.7,2.3-1.9,3.8Z"/>
    <path class="cls-17" d="M847.9,877.4v2.1h-.5c-.8,0-1.6,0-2.3.4-.7.3-1.4.7-1.9,1.3s-.9,1.3-1.1,2c-.2.7-.3,1.5-.2,2.3v8.3h-2.3v-16.3h2.1v3.2c.6-1.1,1.5-2,2.6-2.6,1.1-.6,2.3-.8,3.6-.7Z"/>
    <path class="cls-17" d="M873.9,877.5l-8.1,18.3c-1.4,3.2-3.1,4.2-5.4,4.2-.7,0-1.4,0-2.1-.4-.7-.3-1.3-.6-1.8-1.2l1-1.6c.4.4.8.7,1.3.9.5.2,1.1.3,1.6.3,1.5,0,2.4-.7,3.4-2.7l.7-1.6-7.1-16.3h2.3l6.1,13.8,6.1-13.8h2Z"/>
    <path class="cls-17" d="M875,885.6c0-1.6.5-3.3,1.4-4.6.9-1.4,2.2-2.4,3.7-3.1,1.5-.6,3.2-.8,4.8-.5,1.6.3,3.1,1.1,4.3,2.3,1.2,1.2,2,2.6,2.3,4.3.3,1.6.2,3.3-.5,4.8-.6,1.5-1.7,2.8-3.1,3.7-1.4.9-3,1.4-4.6,1.4-1.1,0-2.2-.1-3.2-.5-1-.4-2-1-2.7-1.8-.8-.8-1.4-1.7-1.8-2.7-.4-1-.6-2.1-.6-3.2ZM889.4,885.6c0-1.2-.5-2.3-1.2-3.3s-1.7-1.7-2.8-2.1c-1.1-.4-2.3-.5-3.5-.2-1.2.3-2.2.9-3,1.7-.8.9-1.4,1.9-1.6,3.1-.2,1.2,0,2.4.4,3.5.5,1.1,1.3,2,2.2,2.7,1,.6,2.2,1,3.3,1,.8,0,1.6-.2,2.3-.5.7-.3,1.4-.8,2-1.4.5-.6,1-1.3,1.2-2.1.3-.8.4-1.6.3-2.4h.1Z"/>
    <path class="cls-17" d="M910.6,877.5v16.3h-2.1v-3c-.6,1-1.5,1.8-2.5,2.4-1,.6-2.2.8-3.4.8-.9,0-1.9,0-2.8-.3-.9-.3-1.7-.8-2.3-1.5-.7-.7-1.2-1.5-1.5-2.4-.3-.9-.4-1.8-.3-2.8v-9.5h2.2v9.2c-.1.7,0,1.4,0,2.1s.5,1.3,1,1.8c.5.5,1.1.9,1.7,1.1.7.2,1.4.3,2.1.2.8,0,1.5,0,2.3-.4.7-.3,1.4-.7,1.9-1.3.5-.6.9-1.2,1.2-2,.2-.7.3-1.5.2-2.3v-8.6h2.2Z"/>
    <path class="cls-17" d="M925,877.4v2.1h-.5c-.8,0-1.6,0-2.3.4-.7.3-1.4.7-1.9,1.3-.5.6-.9,1.3-1.1,2-.2.7-.3,1.5-.2,2.3v8.3h-2.2v-16.3h2.1v3.2c.6-1.1,1.5-2,2.5-2.6,1.1-.6,2.3-.8,3.6-.7Z"/>
    <path class="cls-17" d="M935.8,882.9c0-2.3.5-4.5,1.7-6.4,1.2-1.9,3-3.5,5-4.4,2.1-.9,4.4-1.2,6.6-.8,2.2.4,4.3,1.4,5.9,3,1.6,1.6,2.8,3.6,3.2,5.8.5,2.2.3,4.5-.6,6.6-.9,2.1-2.3,3.9-4.2,5.2-1.9,1.3-4.1,2-6.4,2-1.5,0-3-.2-4.3-.7-1.4-.5-2.6-1.3-3.7-2.4-1.1-1-1.9-2.3-2.5-3.6-.6-1.4-.9-2.8-.9-4.3ZM956.3,882.9c0-1.8-.4-3.6-1.4-5.2-1-1.5-2.4-2.7-4.1-3.5-1.7-.7-3.5-.9-5.3-.6-1.8.3-3.4,1.2-4.7,2.5-1.3,1.3-2.2,2.9-2.5,4.7-.3,1.8-.1,3.6.6,5.3.7,1.7,1.9,3.1,3.5,4.1,1.5,1,3.3,1.5,5.2,1.4,2.3,0,4.6-.9,6.2-2.6,1.7-1.7,2.6-3.9,2.6-6.2Z"/>
    <path class="cls-17" d="M967.6,874.1h-7.6v-2h17.7v2h-7.6v19.7h-2.3v-19.7Z"/>
    <path class="cls-17" d="M998.1,879.5c0,4.4-3.4,7.4-8.8,7.4h-5.8v6.8h-2.4v-21.7h8.1c5.6,0,8.9,3,8.9,7.5ZM995.8,879.5c0-3.5-2.3-5.5-6.6-5.5h-5.7v10.8h5.7c4.3,0,6.6-1.9,6.6-5.3Z"/>
  </g>
  <g class="cls-22">
    <path class="cls-17" d="M796.1,1077.8l.9-1.7c2,1.7,4.5,2.7,7.2,2.6,4,0,5.8-1.7,5.8-3.8,0-5.9-13.3-2.3-13.3-10.3s2.5-5.9,8-5.9c2.4,0,4.7.6,6.7,1.9l-.8,1.8c-1.8-1.1-3.9-1.8-6-1.8-3.9,0-5.7,1.8-5.7,3.9,0,5.9,13.3,2.3,13.3,10.2s-2.5,5.9-8,5.9c-2.9.1-5.8-.9-8-2.8Z"/>
    <path class="cls-17" d="M830.8,1073h-13.6c.1,1.6.8,3.1,2,4.2,1.2,1.1,2.8,1.6,4.4,1.5.9,0,1.9-.2,2.7-.5.9-.4,1.6-.9,2.3-1.6l1.2,1.4c-.8.9-1.7,1.6-2.8,2.1s-2.3.7-3.4.6c-1.1,0-2.2-.1-3.3-.5-1.1-.4-2-1-2.8-1.8-.8-.8-1.4-1.7-1.9-2.8-.4-1-.6-2.2-.6-3.3,0-1.1.1-2.2.5-3.2.4-1,1-1.9,1.7-2.7.7-.8,1.6-1.4,2.6-1.8,1-.4,2.1-.6,3.1-.6,1.1,0,2.1.2,3.1.6,1,.4,1.9,1,2.6,1.8.7.8,1.3,1.7,1.7,2.7.4,1,.5,2.1.4,3.2,0,0,0,.4,0,.7ZM817.2,1071.4h11.5c-.1-1.5-.8-2.8-1.9-3.8-1.1-1-2.5-1.5-3.9-1.5s-2.8.5-3.9,1.5c-1.1,1-1.7,2.3-1.9,3.8Z"/>
    <path class="cls-17" d="M850.4,1071v9.5h-2.2v-9.2c.1-.7,0-1.4-.1-2.1-.2-.7-.6-1.3-1-1.8-.5-.5-1.1-.9-1.7-1.1-.7-.2-1.4-.3-2-.2-.8,0-1.6,0-2.3.3-.7.3-1.4.7-1.9,1.3-.5.6-1,1.2-1.2,2-.3.7-.3,1.5-.3,2.3v8.5h-2.4v-16.3h2.1v3c.7-1,1.6-1.9,2.7-2.4,1.1-.5,2.3-.8,3.5-.7.9,0,1.9,0,2.8.3.9.3,1.7.8,2.3,1.5.7.7,1.2,1.5,1.5,2.4.3.9.4,1.8.3,2.8Z"/>
    <path class="cls-17" d="M871.3,1057.5v23h-2.1v-3.2c-.6,1.1-1.6,2-2.7,2.6-1.1.6-2.3.9-3.6.9-2.1-.2-4.1-1.1-5.5-2.6-1.4-1.5-2.2-3.6-2.2-5.7s.8-4.1,2.2-5.7c1.4-1.5,3.4-2.5,5.5-2.6,1.2,0,2.4.2,3.5.8,1.1.6,2,1.4,2.7,2.4v-9.8h2.2ZM869.2,1072.4c0-1.2-.5-2.3-1.1-3.3-.7-1-1.7-1.7-2.8-2.1-1.1-.4-2.3-.5-3.5-.2-1.2.3-2.2.9-3,1.7-.8.9-1.4,1.9-1.6,3.1-.2,1.2,0,2.4.4,3.5s1.2,2,2.2,2.7c1,.7,2.1,1,3.3,1,.8,0,1.6-.1,2.4-.5.8-.3,1.4-.8,2-1.4.6-.6,1-1.3,1.3-2.1.3-.8.4-1.6.4-2.4Z"/>
    <path class="cls-17" d="M897.8,1070.4v10.1h-2.1v-2.5c-.6.9-1.5,1.6-2.4,2.1-1,.5-2.1.7-3.2.6-3.7,0-5.9-2-5.9-4.8s1.6-4.4,6.3-4.4h5.2v-1c0-.6,0-1.2-.2-1.8-.2-.6-.5-1.1-.9-1.5-.4-.4-.9-.8-1.5-.9-.6-.2-1.2-.3-1.8-.2-2,0-3.9.7-5.4,2l-1-1.6c1.9-1.5,4.2-2.3,6.6-2.2.9-.1,1.7,0,2.5.3.8.3,1.6.7,2.2,1.3.6.6,1.1,1.3,1.4,2.1.3.8.4,1.7.3,2.5ZM895.6,1075.6v-2.7h-5.1c-3.1,0-4.2,1.2-4.2,2.9s1.5,3.1,4.1,3.1c1.1,0,2.2-.2,3.1-.8.9-.6,1.6-1.5,2-2.5Z"/>
    <path class="cls-17" d="M918.9,1064.2v14.1c.2,1.1,0,2.2-.3,3.3-.3,1.1-.9,2-1.7,2.8-.8.8-1.8,1.4-2.8,1.7-1.1.4-2.2.4-3.3.3-2.7.1-5.4-.8-7.6-2.5l1.1-1.7c1.8,1.5,4.1,2.2,6.4,2.2,4.2,0,6-1.8,6-5.9v-2.1c-.7,1-1.6,1.8-2.8,2.4-1.1.6-2.3.8-3.6.8-1.1,0-2.2,0-3.2-.4-1-.4-2-.9-2.8-1.7-.8-.7-1.4-1.6-1.9-2.6-.4-1-.7-2.1-.7-3.2s.2-2.2.7-3.2c.4-1,1.1-1.9,1.9-2.6.8-.7,1.7-1.3,2.8-1.7,1-.4,2.1-.5,3.2-.4,1.3,0,2.5.2,3.6.8,1.1.6,2.1,1.4,2.8,2.5v-3.1l2.1.2ZM916.8,1072c0-1.2-.3-2.4-.9-3.5-.7-1-1.6-1.9-2.7-2.4-1.1-.5-2.4-.7-3.6-.4-1.2.2-2.3.8-3.2,1.6-.9.8-1.5,1.9-1.8,3.2-.3,1.2-.1,2.5.3,3.6.5,1.1,1.3,2.1,2.3,2.8,1,.7,2.2,1.1,3.5,1.1.8,0,1.6,0,2.4-.4.8-.3,1.5-.7,2-1.3.6-.6,1-1.2,1.3-2,.3-.8.5-1.5.4-2.4Z"/>
    <path class="cls-17" d="M937.3,1070.4v10.1h-2.1v-2.5c-.6.9-1.5,1.6-2.4,2.1-1,.5-2.1.7-3.2.6-3.7,0-6-2-6-4.8s1.6-4.4,6.3-4.4h5.1v-1c0-2.8-1.5-4.4-4.4-4.4-2,0-3.9.7-5.4,2l-1-1.6c1.9-1.5,4.2-2.3,6.6-2.2.8,0,1.7,0,2.5.3.8.3,1.5.7,2.2,1.3.6.6,1.1,1.3,1.4,2.1.3.8.4,1.7.3,2.5ZM935.1,1075.6v-2.6h-5.1c-3.2,0-4.2,1.2-4.2,2.9s1.5,3.1,4.2,3.1c1.1,0,2.2-.2,3.1-.8.9-.6,1.6-1.5,2-2.5Z"/>
    <path class="cls-17" d="M942.8,1059.1c0-.4.3-.7.6-1,.3-.2.7-.4,1.1-.4s.8.1,1.1.4c.3.2.5.6.6,1,0,.4-.3.7-.6,1-.3.2-.7.4-1.1.4s-.8-.1-1.1-.4c-.3-.2-.5-.6-.6-1ZM943.3,1064.2h2.2v16.3h-2.2v-16.3Z"/>
    <path class="cls-17" d="M966.6,1071v9.5h-2.2v-9.2c.1-.7,0-1.4-.1-2.1-.2-.7-.6-1.3-1-1.8-.5-.5-1.1-.9-1.7-1.1-.7-.2-1.4-.3-2-.2-.8,0-1.6,0-2.3.3-.7.3-1.4.7-1.9,1.3-.5.6-1,1.2-1.2,2-.3.7-.3,1.5-.3,2.3v8.5h-2.2v-16.3h2.1v3c.7-1,1.6-1.9,2.7-2.4,1.1-.5,2.3-.8,3.5-.7.9,0,1.8,0,2.7.4.9.3,1.6.8,2.3,1.5.6.7,1.1,1.5,1.4,2.3.3.9.4,1.8.3,2.7Z"/>
  </g>
  <path class="cls-20" d="M1005.2,1191h-246.3c-9.7,0-19.1-3.9-25.9-10.8-6.9-6.9-10.7-16.2-10.7-25.9s3.9-19.1,10.7-25.9c6.9-6.9,16.2-10.8,25.9-10.8h246.3c9.7,0,19.1,3.9,26,10.8,6.9,6.9,10.8,16.2,10.8,26s-3.9,19.1-10.8,26c-6.9,6.9-16.2,10.8-26,10.8Z"/>
  <path class="cls-17" d="M786,1152.4c0-1.7.3-3.4,1-5,.7-1.6,1.7-3,2.9-4.2,1.2-1.2,2.7-2.1,4.3-2.7,1.6-.6,3.3-.9,5.1-.8,1.8,0,3.5.2,5.1.9,1.6.7,3.1,1.7,4.3,3l-2.3,2.2c-.9-1-2-1.7-3.2-2.2-1.2-.5-2.5-.8-3.8-.7-1.6,0-3.1.4-4.5,1.2-1.4.8-2.5,1.8-3.4,3.2-.9,1.3-1.4,2.8-1.5,4.4-.1,1.6.1,3.1.8,4.6.6,1.4,1.6,2.7,2.8,3.7,1.2,1,2.7,1.6,4.2,1.9,1.5.3,3.1.2,4.6-.3,1.5-.5,2.8-1.4,3.9-2.5l2.3,2.2c-1.2,1.3-2.7,2.3-4.3,3-1.6.7-3.4,1-5.2.9-1.7,0-3.4-.2-5-.8-1.6-.6-3.1-1.5-4.3-2.7-1.2-1.2-2.2-2.6-2.9-4.2s-1-3.3-1-5Z"/>
  <path class="cls-17" d="M811.1,1152.4c-.1-2.6.5-5.3,1.9-7.5s3.4-4.1,5.8-5.2c2.4-1.1,5.1-1.4,7.7-1,2.6.4,5,1.7,6.9,3.5,1.9,1.8,3.2,4.2,3.8,6.8.6,2.6.3,5.3-.6,7.8-1,2.5-2.7,4.6-4.9,6.1s-4.8,2.3-7.4,2.3c-1.7,0-3.4-.2-5-.8-1.6-.6-3.1-1.5-4.3-2.7-1.2-1.2-2.2-2.6-2.9-4.2-.7-1.6-1-3.3-1-5ZM833.8,1152.4c0-1.9-.5-3.8-1.6-5.4-1-1.6-2.5-2.9-4.3-3.6-1.8-.8-3.7-1-5.6-.6-1.9.4-3.6,1.3-5,2.6-1.4,1.3-2.3,3.1-2.7,4.9-.4,1.9-.2,3.8.5,5.6.7,1.8,2,3.3,3.6,4.3,1.6,1.1,3.5,1.6,5.4,1.6,1.3,0,2.5-.2,3.7-.6,1.2-.5,2.2-1.2,3.1-2.1.9-.9,1.6-1.9,2.1-3.1.5-1.2.7-2.4.7-3.7Z"/>
  <path class="cls-17" d="M864.1,1140.2v24.8h-2.9l-14.8-18.5v18.5h-3.5v-24.8h2.9l14.8,18.4v-18.4h3.5Z"/>
  <path class="cls-17" d="M876.4,1143.1h-8.5v-2.9h20.4v3.1h-8.4v21.7h-3.5v-21.9Z"/>
  <path class="cls-17" d="M892.2,1140.2h3.5v24.8h-3.5v-24.8Z"/>
  <path class="cls-17" d="M924.5,1140.2v24.8h-2.9l-14.8-18.5v18.5h-3.5v-24.8h2.8l14.8,18.4v-18.4h3.7Z"/>
  <path class="cls-17" d="M931.7,1154.1v-13.9h3.5v13.9c0,5.5,2.5,7.9,7,7.9s7-2.5,7-7.9v-13.9h3.4v14.1c0,2.8-1.1,5.4-3.1,7.4-2,2-4.6,3.1-7.4,3.1s-5.4-1.1-7.4-3.1c-2-2-3.1-4.6-3.1-7.4v-.2Z"/>
  <path class="cls-17" d="M977.8,1161.7v3.1h-17.9v-24.6h17.7v3.1h-14.1v7.6h12.4v3h-12.4v8l14.4-.2Z"/>
  <path class="cls-16" d="M1310.3,581.2c-144.6,144.8-515.8,467.2-936.5,443.3v-443.3h936.5Z"/>
  <path class="cls-16" d="M1419.2,847.4v427.6h-629.4c24.1-86.4,72.4-204.6,166-289.1,168.4-152,363.8-151.6,463.4-138.5Z"/>
  <g id="messagebubble">
    <path class="cls-4" d="M1552.2,513l14.7,64.8,14.7-64.8h-29.4Z"/>
    <path class="cls-14" d="M1552.2,513l14.7,64.8,14.7-64.8h-29.4Z"/>
    <path class="cls-4" d="M1731.1,329.6h-328.4c-21,0-38,17-38,38v121.9c0,21,17,38,38,38h328.4c21,0,38-17,38-38v-121.9c0-21-17-38-38-38Z"/>
    <path class="cls-14" d="M1731.1,329.6h-328.4c-21,0-38,17-38,38v121.9c0,21,17,38,38,38h328.4c21,0,38-17,38-38v-121.9c0-21-17-38-38-38Z"/>
  </g>
  <g id="passwordcopy" class="cls-21">
    <path class="cls-7" d="M1445.5,402.2v8.5h-3.5v-8.5l-9.8-16.1h3.8l7.9,13.3,7.9-13.3h3.5l-9.8,16.1Z"/>
    <path class="cls-7" d="M1454.6,401.4c0-1.9.5-3.8,1.6-5.5,1.1-1.6,2.6-2.9,4.3-3.7,1.8-.8,3.8-1,5.7-.6,1.9.4,3.7,1.3,5,2.6,1.4,1.4,2.3,3.1,2.7,5,.4,1.9.2,3.9-.5,5.7-.7,1.8-2,3.3-3.6,4.4-1.6,1.1-3.5,1.7-5.4,1.7-1.3,0-2.6-.1-3.8-.6-1.2-.5-2.3-1.2-3.2-2.1-.9-.9-1.6-2-2.1-3.2-.5-1.2-.7-2.5-.7-3.8ZM1470.6,401.4c0-.9,0-1.7-.3-2.6s-.7-1.6-1.3-2.2c-.6-.6-1.3-1.2-2.1-1.5-.8-.4-1.7-.5-2.5-.5s-1.7.2-2.5.5c-.8.4-1.5.9-2.1,1.5-.6.6-1,1.4-1.3,2.2-.3.8-.4,1.7-.3,2.6,0,.9,0,1.7.3,2.6.3.8.7,1.6,1.3,2.2.6.6,1.3,1.2,2.1,1.5.8.4,1.7.5,2.5.5s1.7-.2,2.5-.5c.8-.4,1.5-.9,2.1-1.5.6-.6,1.1-1.4,1.3-2.2s.4-1.7.3-2.6Z"/>
    <path class="cls-7" d="M1496.2,392v18.7h-3.2v-2.8c-.7,1-1.7,1.8-2.8,2.3-1.1.5-2.3.8-3.6.7-1.1.1-2.2,0-3.2-.4-1-.4-2-1-2.8-1.8-.8-.8-1.4-1.7-1.7-2.8-.4-1-.5-2.2-.4-3.2v-10.8h3.4v10.4c0,3.7,1.9,5.5,5.1,5.5.8,0,1.6,0,2.4-.4.8-.3,1.4-.8,2-1.4.5-.6,1-1.3,1.2-2.1.2-.8.3-1.6.2-2.4v-9.7h3.4Z"/>
    <path class="cls-7" d="M1512.8,391.8v3.3h-.8c-.8,0-1.6,0-2.4.4-.8.3-1.5.8-2,1.4-.6.6-1,1.3-1.2,2.1-.2.8-.3,1.6-.2,2.4v9.3h-3.5v-18.8h3.3v3.2c.7-1.2,1.7-2.1,3-2.7,1.2-.6,2.6-.8,3.9-.7Z"/>
    <path class="cls-7" d="M1525.2,398.4c-.1-2.6.6-5.3,1.9-7.5,1.4-2.3,3.4-4,5.8-5.1,2.4-1.1,5.1-1.4,7.7-1,2.6.4,5,1.7,6.9,3.5,1.9,1.8,3.2,4.2,3.8,6.8.6,2.6.3,5.3-.7,7.7-1,2.5-2.7,4.6-4.9,6-2.2,1.5-4.8,2.3-7.4,2.3-1.7,0-3.4-.2-5.1-.8-1.6-.6-3.1-1.5-4.3-2.7-1.2-1.2-2.2-2.6-2.9-4.2-.7-1.6-1-3.3-1-5ZM1547.9,398.4c0-1.9-.5-3.8-1.6-5.4-1.1-1.6-2.6-2.9-4.3-3.6-1.8-.7-3.7-1-5.6-.6-1.9.4-3.6,1.3-5,2.6-1.3,1.3-2.3,3.1-2.7,4.9-.4,1.9-.2,3.8.5,5.6.7,1.8,2,3.3,3.6,4.3,1.6,1.1,3.5,1.6,5.4,1.6,1.3,0,2.5-.2,3.7-.6,1.2-.5,2.2-1.2,3.1-2,.9-.9,1.6-2,2.1-3.1.5-1.2.7-2.4.7-3.7Z"/>
    <path class="cls-7" d="M1561.4,388.9h-8.5v-3h20.3v3h-8.5v21.7h-3.5v-21.7Z"/>
    <path class="cls-7" d="M1597.2,394.6c0,5.3-3.9,8.6-10.3,8.6h-6.1v7.5h-3.5v-24.7h9.6c6.4,0,10.3,3.2,10.3,8.6ZM1593.7,394.6c0-3.5-2.4-5.6-6.9-5.6h-6v11.1h6c4.5,0,6.9-2,6.9-5.5Z"/>
    <path class="cls-7" d="M1610.3,398.4c.1-2.6,1-5,2.5-7.1,1.5-2.1,3.6-3.7,5.9-4.6,2.4-.9,5-1.2,7.5-.6,2.5.5,4.8,1.7,6.6,3.5l-2.3,2.3c-.9-1-2-1.7-3.2-2.2-1.2-.5-2.5-.8-3.8-.7-2.5,0-4.9,1-6.7,2.8-1.8,1.8-2.8,4.2-2.8,6.7s1,4.9,2.8,6.7c1.8,1.8,4.2,2.8,6.7,2.8,1.3,0,2.6-.2,3.8-.7,1.2-.5,2.3-1.3,3.2-2.2l2.3,2.3c-1.8,1.8-4.1,3-6.6,3.5-2.5.5-5.1.3-7.5-.6-2.4-.9-4.4-2.5-5.9-4.6s-2.3-4.6-2.5-7.1h0Z"/>
    <path class="cls-7" d="M1634.9,401.4c0-1.9.5-3.8,1.6-5.5,1-1.6,2.6-2.9,4.3-3.7s3.8-1,5.7-.6c1.9.4,3.7,1.3,5,2.6,1.4,1.4,2.3,3.1,2.7,5,.4,1.9.2,3.9-.5,5.7-.7,1.8-2,3.3-3.6,4.4-1.6,1.1-3.5,1.7-5.4,1.7-1.3,0-2.6-.1-3.8-.6-1.2-.5-2.3-1.2-3.2-2.1-.9-.9-1.6-2-2.1-3.2-.5-1.2-.7-2.5-.7-3.8ZM1650.9,401.4c0-.9,0-1.7-.3-2.6-.3-.8-.7-1.6-1.3-2.2-.6-.6-1.3-1.2-2.1-1.5-.8-.4-1.7-.5-2.5-.5s-1.7.2-2.5.5c-.8.4-1.5.9-2.1,1.5-.6.6-1,1.4-1.3,2.2-.3.8-.4,1.7-.3,2.6,0,.9,0,1.7.3,2.6.3.8.7,1.6,1.3,2.2.6.6,1.3,1.2,2.1,1.5.8.4,1.7.5,2.5.5s1.7-.2,2.5-.5c.8-.4,1.5-.9,2.1-1.5.6-.6,1.1-1.4,1.3-2.2.3-.8.4-1.7.3-2.6Z"/>
    <path class="cls-7" d="M1676.7,384.5v26.2h-3.2v-3c-.8,1-1.8,1.9-2.9,2.4-1.2.6-2.4.8-3.7.8-2.4-.2-4.7-1.2-6.4-3-1.7-1.8-2.6-4.1-2.6-6.5s.9-4.8,2.6-6.5c1.7-1.8,3.9-2.9,6.4-3,1.2,0,2.5.2,3.6.7,1.1.5,2.1,1.3,2.9,2.3v-10.3h3.4ZM1673.3,401.3c0-1.2-.5-2.4-1.2-3.4-.7-1-1.7-1.8-2.9-2.2-1.2-.4-2.4-.5-3.6-.2-1.2.3-2.3.9-3.2,1.8-.8.9-1.4,2-1.6,3.2-.2,1.2,0,2.5.4,3.6.5,1.1,1.3,2.1,2.3,2.8,1,.7,2.3,1,3.5,1,.9,0,1.7-.1,2.5-.5.8-.3,1.5-.8,2.1-1.4.6-.6,1-1.4,1.3-2.2s.4-1.7.3-2.5h0Z"/>
    <path class="cls-7" d="M1700,402.5h-15.2c.2,1.6,1,3.1,2.3,4.1s2.9,1.5,4.5,1.4c1,0,2-.1,2.9-.5.9-.4,1.8-1,2.4-1.7l1.9,2.2c-1.4,1.4-3.1,2.4-5.1,2.8-1.9.4-3.9.3-5.8-.4-1.8-.7-3.5-1.9-4.6-3.5-1.2-1.6-1.9-3.5-2-5.4,0-1.3.2-2.5.6-3.7.5-1.2,1.1-2.2,2-3.1.9-.9,1.9-1.6,3.1-2.1,1.2-.5,2.4-.7,3.7-.7,1.3,0,2.5.1,3.7.6,1.2.5,2.2,1.2,3.1,2.1.9.9,1.5,2,2,3.2.4,1.2.6,2.5.4,3.7,0,.3,0,.7,0,1ZM1684.8,400.1h12.2c-.1-1.5-.8-2.9-1.9-3.9-1.1-1-2.6-1.6-4.1-1.6s-3,.6-4.1,1.6c-1.1,1-1.8,2.4-1.9,3.9h-.2Z"/>
  </g>
  <g id="password2" class="cls-21">
    <path class="cls-7" d="M1515.8,449.4c0,13.9-7.8,21.3-19.3,21.3-3.5.1-7-.7-10.1-2.4l2.2-4.4c2.4,1.4,5.1,2,7.9,1.9,8.3,0,13.5-5.2,13.5-15.4v-1.4c-1.4,1.8-3.2,3.2-5.2,4.2-2,.9-4.3,1.3-6.5,1.2-1.7.2-3.5,0-5.2-.5-1.7-.5-3.2-1.4-4.5-2.6-1.3-1.2-2.4-2.6-3.1-4.2-.7-1.6-1.1-3.3-1.1-5.1,0-1.8.4-3.6,1.2-5.2.8-1.6,1.8-3.1,3.2-4.3,1.3-1.2,2.9-2.1,4.6-2.7,1.7-.6,3.5-.8,5.3-.6,10.9,0,17.1,7.2,17.1,20.2ZM1508.6,441.9c0-4.2-3.4-7.9-9.7-7.9-1.1-.1-2.2,0-3.3.3-1.1.3-2,.9-2.9,1.7-.8.7-1.5,1.7-2,2.7-.5,1-.7,2.1-.7,3.2,0,4.8,3.5,7.9,9.2,7.9,1.1.1,2.3,0,3.4-.3,1.1-.3,2.1-.9,3-1.6.9-.7,1.6-1.6,2.1-2.7.5-1,.8-2.1.9-3.3Z"/>
    <path class="cls-7" d="M1521.4,450c0-13.3,7.1-20.9,16.7-20.9s16.6,7.6,16.6,20.9-7.1,20.8-16.6,20.8-16.7-7.6-16.7-20.8ZM1548.8,450c0-10.4-4.4-15.6-10.7-15.6s-10.8,5.2-10.8,15.6,4.4,15.6,10.8,15.6,10.7-5.2,10.7-15.6Z"/>
    <path class="cls-7" d="M1588.7,465.3v5.1h-29.3v-4l16.6-16c4.4-4.2,5.1-6.8,5.1-9.3,0-4.2-3-6.7-8.8-6.7-2-.1-3.9.2-5.7,1-1.8.8-3.4,1.9-4.7,3.4l-4-3.4c1.9-2.1,4.2-3.7,6.8-4.8,2.6-1.1,5.3-1.6,8.1-1.4,8.5,0,14,4.4,14,11.4,0,2.5-.7,5-1.8,7.2-1.2,2.2-2.8,4.1-4.8,5.6l-12.5,12h21.1Z"/>
    <path class="cls-7" d="M1606.1,429.6v40.7h-5.8v-35.7h-9.4v-5.1h15.2Z"/>
    <path class="cls-7" d="M1615,450c0-13.3,7.1-20.9,16.7-20.9s16.6,7.6,16.6,20.9-7.1,20.8-16.6,20.8-16.7-7.6-16.7-20.8ZM1642.5,450c0-10.4-4.4-15.6-10.8-15.6s-10.8,5.2-10.8,15.6,4.4,15.6,10.8,15.6,10.8-5.2,10.8-15.6Z"/>
  </g>
  <path class="cls-2" d="M1530.6,703.1c26.4,18.3,55.9,31.5,87.1,39.1h.3c-2.3,0-4.6.6-6.6,1.9-1.9,1.2-3.5,2.9-4.4,5-.3.6-.5,1.3-.5,2,.7-9.3-3.3-19.7-6.2-29.7-5.1-15.9-11-32.1-17-48.1l17.1-9.1c14.1,21.6,61.2,90,29,109.8-5.5,3.2-12,4.3-18.2,2.9-35-5.2-68.4-18.2-97.7-38.1-2-1.4-3.8-2.7-6.2-4.4l23.4-31.3h0Z"/>
  <path class="cls-4" d="M1525.6,698.3c15.5,1.9,30.2,7.8,42.6,17.3l-17.7,54.7s-85.9-79.2-24.9-72Z"/>
  <path class="cls-11" d="M1525.4,744.3c7.9,9,16.2,17.6,24.9,25.8l7.3-22.5,10.5-32.2c-12.4-9.4-27.1-15.4-42.5-17.3-37.6-4.2-19.6,23.9-.2,46.2Z"/>
  <path class="cls-19" d="M1525.4,744.3c7.9,9,16.2,17.6,24.9,25.8l7.3-22.5c-9.2-7.1-20.5-11-32.1-11-.3,2.6-.3,5.2-.1,7.8Z"/>
  <path class="cls-7" d="M1334.7,617.3s-41.1,136.6,45.5,155c86.6,18.3,95.9-44.5,95.9-44.5,0,0-71.1-107.7-141.4-110.4Z"/>
  <path class="cls-7" d="M1314.4,662.6c-.2,0-.3,0-.5,0-.1,0-.2-.1-.3-.3,0-.1-.2-.2-.2-.4,0-.1,0-.3,0-.4,0-.1,0-.3.1-.4,1.3-2.4,3.1-4.4,5.3-5.9,2.2-1.5,4.7-2.5,7.4-2.9.3,0,.5.1.8.3.2.2.3.4.4.7,0,.1,0,.3,0,.4,0,.1-.1.3-.2.4s-.2.2-.3.3c-.1,0-.3.1-.4.1-2.3.4-4.5,1.3-6.4,2.6-1.9,1.3-3.5,3.1-4.6,5.2-.1.1-.3.2-.4.3-.2,0-.3,0-.5,0Z"/>
  <path class="cls-1" d="M1326.7,679.6c-.6,5.3-1.8,10.6-3.6,15.6,1.4.8,2.9,1.2,4.5,1.2s3.2-.4,4.5-1.2l-5.5-15.6Z"/>
  <path class="cls-7" d="M1318.4,673.6c.9,2.4,3,3.9,4.4,3.3,1.4-.6,2.2-3,1.3-5.5-.9-2.4-3-3.9-4.4-3.3-1.4.6-2.2,3-1.3,5.5Z"/>
  <path class="cls-7" d="M1320.4,668h-6.1s4.3,3.4,6.1,0Z"/>
  <path class="cls-6" d="M1406.4,696.5c-.2.4-.4.8-.6,1.1-.4.8-.8,1.5-1.3,2.2-2.6,4.7-6,8.8-10.2,12.2-13.3,10.6-24.8,13.7-34.8,10.7l-1.5-.5c-14.9-6.1-26.5-23.9-35.8-47.4-4.1-9.2-6.7-19-7.7-29.1v-1.6c-.3-5.8.8-11.5,3.2-16.7,2.4-5.2,6.1-9.8,10.8-13.2,4-3.1,8.3-5.8,12.8-7.9,44.2-21.5,87.1,48.6,65,90.2Z"/>
  <path class="cls-19" d="M1404.5,699.9c-2.6,4.7-6,8.8-10.2,12.2-13.3,10.6-24.8,13.7-34.8,10.7,9.8-2.4,18.5-7.7,25.1-15.2,2.6-2.6,5.7-4.7,9.1-6,3.4-1.3,7.1-1.9,10.8-1.6Z"/>
  <path class="cls-7" d="M1314.4,645.5s12.3,32.4,48.3,31.9c0,0,28.1,26.5,47.1,18.1,25.9-11.4,31.2-58.5,4.8-91.3-34.2-42.6-108.8-11.9-100.2,41.4Z"/>
  <path class="cls-6" d="M1343.5,675.5c-2.3-4.9-2.3-14.9,5.8-17.4,8.1-2.5,22.1,14.7,4.7,28.2-2.5,1.9-5.8-.6-10.5-10.7Z"/>
  <path class="cls-7" d="M1353.2,586.4s-33.4,6.6-44.2,26.5c-12.6,23.2-13.3,41.1,20.3,53,0,0,42.5-39.8,60.8-44.2,10.7-2.6,21.5-4.4,32.5-5.2-12.2-35.3-55.9-44.8-69.4-30.1Z"/>
  <path class="cls-6" d="M1385.6,712.8s23,15.9,28.9,42.2l71.6-41.8s-56.1-12.8-65.7-34.5c0,0-37.5,4.6-34.9,34.1Z"/>
  <path class="cls-4" d="M1456.7,885s-92.8-91.2-102.8-119.8c0,0,39-60.8,117-63.3,78-2.6,131.1,145.8,131.1,145.8l-145.3,37.3Z"/>
  <path class="cls-11" d="M1602,847.7l-145.3,37.3s-20.2-19.9-42.9-44.2c-7-7.6-14.3-15.5-21.3-23.4-18.4-20.9-34.7-41.3-38.6-52.4,0,0,39-60.8,117-63.3,78-2.6,131.1,146,131.1,146Z"/>
  <path class="cls-7" d="M1370,661.8s13.6,45.1,61.2,60c47.6,14.9,35.7,63.6,81.9,57.8,24.6-3,45.6-53-29.7-97.2-43.9-25.7-26.9-110.1-120.1-102.2,0,0,19.3,57.9,6.8,81.5Z"/>
  <path class="cls-6" d="M1416.3,1572.1l-22.1-5c3.3-110.5,19.3-244.1,33.4-344.4,2.2-15.7,4.4-30.6,6.5-44.5,1-6.6,1.9-12.9,2.9-19,4.4-30.1,8.5-53.9,10.9-68.6,1.8-10.7,2.8-16.6,2.8-16.6l79.6,19.4-5.7,20.1-18.8,66.3-2.1,7.6-12.5,43.7-21.1,74.4c1.3,112.3-53.7,266.8-53.7,266.8Z"/>
  <path class="cls-6" d="M1605.4,1553.6l-22.6-1.2c-17.2-118.8-24.5-267.4-27.6-370.7-.5-16-.8-30.9-1.2-44.5v-2c-.6-26.9-.8-48.3-1-61.9v-16.4l81.6,5.3-3.5,34-5.1,49.9-1,9.8-3.5,34-9.6,91.4c20.9,110.5-6.5,272-6.5,272Z"/>
  <path class="cls-7" d="M1613.9,1549.2c0-2.8-34.9-.6-34.9-.6,0,0-21.4,21.8-42.2,26.5-20.8,4.7-9.2,17.4,14.1,17.4h57.5c16.6.2,6.3-13.9,5.6-43.3Z"/>
  <path class="cls-7" d="M1557.6,1556.7c-.5-.5-.9-1.1-1-1.7-.2-.7,0-1.4.2-2,.1-.5.4-1,.7-1.4.3-.4.7-.7,1.2-1,2.5-1,5.2-1.3,7.8-.9-2.8-1.5-5.3-3.3-5.4-5.2,0-1.2.7-2.2,2.3-2.9.7-.3,1.4-.5,2.2-.5s1.5.2,2.2.5c4.7,2,7.6,10.1,7.8,10.4,0,.2,0,.5,0,.7v.2c0,0-.2.2-.3.2-4.5,2.3-9.4,3.8-14.4,4.4-1.2,0-2.3-.3-3.2-1ZM1559.6,1552.3c-.2.1-.5.3-.6.5-.2.2-.3.4-.4.7-.3,1.4,0,1.7,0,1.9,1.7,1.4,8-.6,13.3-2.7-4-1.2-8.2-1.4-12.2-.3h0ZM1564,1543.4c-.5,0-1.3.7-1.2,1.1,0,1.6,5.1,4.4,10.2,6.2-1.1-3.1-3.2-5.7-6-7.5-.4-.2-.9-.3-1.4-.3s-1,.1-1.5.3h-.1Z"/>
  <path class="cls-7" d="M1427.5,1549.2c0-2.8-34.9-.6-34.9-.6,0,0-21.4,21.8-42.2,26.5-20.8,4.7-9.2,17.4,14.1,17.4h57.4c16.7.2,6.4-13.9,5.6-43.3Z"/>
  <path class="cls-7" d="M1371.2,1556.7c-.5-.5-.8-1.1-1-1.7-.1-.7,0-1.3.2-2,.1-.5.4-1,.7-1.4.3-.4.7-.7,1.2-1,2.5-1,5.2-1.3,7.8-.9-2.8-1.5-5.3-3.3-5.4-5.2,0-1.2.8-2.1,2.3-2.9.7-.3,1.4-.5,2.2-.5s1.5.2,2.2.5c4.7,2,7.6,10.1,7.8,10.4,0,.1,0,.2,0,.4s0,.2,0,.4v.2l-.3.2c-4.5,2.3-9.4,3.8-14.5,4.4-1.1,0-2.2-.3-3.1-1ZM1373.1,1552.3c-.2.1-.4.3-.6.5-.2.2-.3.4-.4.7-.4,1.4,0,1.7.2,1.9,1.6,1.4,8-.6,13.3-2.7-4.1-1.3-8.4-1.4-12.5-.3h0ZM1377.6,1543.4c-.5,0-1.3.7-1.2,1.1,0,1.6,5.1,4.4,10.3,6.2-1.2-3.1-3.3-5.7-6-7.5-.4-.2-.9-.3-1.4-.3s-1,.1-1.5.3h-.1Z"/>
  <path class="cls-7" d="M1437.9,1107.2l18.8-132.6v-89.7c49.6-37.3,145.3-37.3,145.3-37.3,0,0,73.5,102,37.8,269.6l-92.3,13.3-5.9-31.3-11.6,31.3-92.2-23.2Z"/>
  <path class="cls-8" d="M1437.9,1107.2l18.8-132.6v-89.7c49.6-37.3,145.3-37.3,145.3-37.3,0,0,73.5,102,37.8,269.6l-92.3,13.3-5.9-31.3-11.6,31.3-92.2-23.2Z"/>
  <path class="cls-19" d="M1541.7,1099.6l17.7-55.2s18.7-5.7,42.6-42.7c0,0-4.1,63-60.3,97.9Z"/>
  <path class="cls-19" d="M1502.3,910.4l41.4-3.9c6.6,15.5,8.9,32.5,6.6,49.1l-26.5,16-19.2-13.7s-.6-35-2.3-47.5Z"/>
  <path class="cls-19" d="M1602,900.3c5.6,13.7,9.7,27.9,12.2,42.4l14.7,6.2,7.9-9.9s-5.3-28.9-14.4-43l-20.4,4.2Z"/>
  <path class="cls-7" d="M1436.2,1099.6l97.9,28.7-6.2,13.2-93-28.6,1.2-13.3Z"/>
  <path class="cls-7" d="M1543.7,1126.4l1.6,12.1,96-12.1,1.5-15.2-99.1,15.2Z"/>
  <path class="cls-7" d="M1563.9,866.2c15.7-2.7,31.6-4.2,47.5-4.6l-5.9-9.8c-15.5-.4-31,.5-46.3,2.7l4.7,11.7Z"/>
  <path class="cls-7" d="M1475.8,878.2c-12.7,5.5-20,9.6-20,9.6v12.1c7.1-3.6,14.3-6.9,21.4-9.9l-1.5-11.8Z"/>
  <path class="cls-7" d="M1481.9,888.3c24.6-9.6,50-16.7,76.1-21.2l-4.4-11.8c-25.2,4.2-49.9,11.3-73.5,21.1l1.8,11.8Z"/>
  <path class="cls-6" d="M1216.4,922.8l-25.1-10.1-4.4,23.7s22.6,13.7,32.1-2.6l-2.6-11Z"/>
  <path class="cls-6" d="M1178.8,914.2l-8,18.3,16.3,3.9,4.2-23.7-12.5,1.5Z"/>
  <path class="cls-6" d="M1601.6,668.2l-3-26.9-22.9,7.4s-1.4,26.5,17.5,27l8.4-7.6Z"/>
  <path class="cls-6" d="M1591.5,631l-19.9,1.6,4.2,16.1,22.9-7.4-7.2-10.3Z"/>
  <path class="cls-19" d="M1413.9,841c-7-7.6-14.3-15.5-21.3-23.4-2.7-16.4-4.4-30.9-4.4-30.9,8.4,6.2,15.2,14.5,19.6,23.9,4.5,9.5,6.6,19.9,6.1,30.4Z"/>
  <path class="cls-2" d="M1390.7,779c-10.1,40.8-25.4,80.2-45.5,117.1-19.9,37.8-95.5,42.3-133.5,43.3l-1.8-19.3c22.9-5.4,94-19.6,103.8-40.2,15.9-35.8,28.9-72.7,39.1-110.5l37.9,9.5h0Z"/>
  <path class="cls-4" d="M1369.1,745.7c-21.6,14.1-33.2,50.9-36.9,68.9l44.9,33.1,22.7-22.1c9.2-50.7-22.5-85.2-30.7-79.9Z"/>
  <path class="cls-11" d="M1369.1,745.7c-21.6,14.1-33.2,50.9-36.9,68.9l44.9,33.1,22.7-22.1c9.2-50.7-22.5-85.2-30.7-79.9Z"/>
  <path class="cls-7" d="M1588.3,676.8l-32.1,3.4c-.4,0-.9,0-1.3-.2s-.8-.4-1.1-.7c-.3-.3-.6-.7-.7-1.1-.2-.4-.2-.9-.2-1.3l-1.9-67.9c0-1,.2-1.9.8-2.7.6-.8,1.4-1.3,2.4-1.5l32-3.4c.5,0,.9,0,1.3.2.4.2.8.4,1.1.7.3.3.6.7.7,1.1.2.4.2.9.2,1.3l1.9,67.9c0,.9-.2,1.9-.8,2.6-.6.8-1.4,1.3-2.3,1.5Z"/>
  <path class="cls-11" d="M1588.3,676.8l-32.1,3.4c-.4,0-.9,0-1.3-.2s-.8-.4-1.1-.7c-.3-.3-.6-.7-.7-1.1-.2-.4-.2-.9-.2-1.3l-1.9-67.9c0-1,.2-1.9.8-2.7.6-.8,1.4-1.3,2.4-1.5l32-3.4c.5,0,.9,0,1.3.2.4.2.8.4,1.1.7.3.3.6.7.7,1.1.2.4.2.9.2,1.3l1.9,67.9c0,.9-.2,1.9-.8,2.6-.6.8-1.4,1.3-2.3,1.5Z"/>
  <path class="cls-7" d="M1585.4,677.1l-32,3.4c-.5,0-.9,0-1.3-.2-.4-.2-.8-.4-1.1-.7-.3-.3-.6-.7-.7-1.1-.2-.4-.2-.9-.2-1.3l-1.9-68c0-1,.2-1.9.8-2.7s1.4-1.3,2.4-1.4l32-3.4c.4,0,.9,0,1.3.2.4.2.8.4,1.1.7.3.3.6.7.7,1.1.2.4.2.9.2,1.3l1.9,68c0,1-.2,1.9-.8,2.7-.6.8-1.4,1.3-2.4,1.4Z"/>
  <path class="cls-14" d="M1585.4,677.1l-32,3.4c-.5,0-.9,0-1.3-.2-.4-.2-.8-.4-1.1-.7-.3-.3-.6-.7-.7-1.1-.2-.4-.2-.9-.2-1.3l-1.9-68c0-1,.2-1.9.8-2.7s1.4-1.3,2.4-1.4l32-3.4c.4,0,.9,0,1.3.2.4.2.8.4,1.1.7.3.3.6.7.7,1.1.2.4.2.9.2,1.3l1.9,68c0,1-.2,1.9-.8,2.7-.6.8-1.4,1.3-2.4,1.4Z"/>
  <path class="cls-4" d="M1583.3,603l-8.4.9-1.1,2.6-13,1.4-1.2-2.3-8.4.9c-.6.1-1.2.5-1.5,1-.4.5-.6,1.1-.5,1.7l1.9,67.9c0,.3,0,.6.1.9.1.3.3.5.5.7s.5.4.7.5c.3.1.6.1.9.1l32-3.4c.6-.1,1.2-.5,1.5-.9.4-.5.6-1.1.5-1.7l-1.9-68c0-.3,0-.6-.2-.9,0-.3-.3-.5-.5-.7-.2-.2-.5-.4-.7-.5-.3-.1-.6-.2-.9-.1Z"/>
  <path class="cls-12" d="M1579,627.6l-23.6,2.5c-.3,0-.6,0-.8-.1-.3-.1-.5-.3-.7-.5-.2-.2-.4-.4-.5-.7,0-.3-.1-.6-.1-.8v-6.5c0-.6.1-1.2.5-1.7.4-.5.9-.8,1.5-.9l23.6-2.5c.3,0,.6,0,.8.2.3.1.5.3.7.5.2.2.4.5.5.7,0,.3.1.6.1.8l.2,6.5c0,.6-.2,1.3-.6,1.7-.4.5-1,.8-1.6.9Z"/>
</svg>