<?xml version="1.0" encoding="UTF-8"?>
<svg id="Layer_1" data-name="Layer 1" xmlns="http://www.w3.org/2000/svg" xmlns:xlink="http://www.w3.org/1999/xlink" version="1.1" viewBox="0 0 544 544">
  <defs>
    <style>
      .cls-1 {
        fill: url(#rain-gradient-sky);
      }

      .cls-1, .cls-2, .cls-3, .cls-4, .cls-5, .cls-6, .cls-7, .cls-8 {
        stroke-width: 0px;
      }

      .cls-2 {
        fill: url(#rain-gradient-green);
      }

      .cls-3 {
        fill: url(#rain-gradient-moss);
      }

      .cls-4 {
        fill: url(#rain-gradient-blue-gray);
      }

      .cls-5 {
        fill: url(#rain-gradient-sky);
      }

      .cls-6 {
        fill: url(#rain-gradient-green);
      }

      .cls-7 {
        fill: url(#rain-gradient-blue-gray);
      }

      .cls-8 {
        fill: #2F4F4F;
      }

      .glow {
        filter: url(#glow-filter);
      }
    </style>
    <linearGradient id="rain-gradient-sky" x1="276" y1="72.5" x2="276" y2="486.5" gradientTransform="translate(0 546) scale(1 -1)" gradientUnits="userSpaceOnUse">
      <stop offset="0" stop-color="#6A89CC">
        <animate attributeName="stop-color" values="#6A89CC; #B4E1FA; #6A89CC" dur="7s" repeatCount="indefinite" />
      </stop>
      <stop offset="1" stop-color="#B4E1FA">
        <animate attributeName="stop-color" values="#B4E1FA; #6A89CC; #B4E1FA" dur="7s" repeatCount="indefinite" />
      </stop>
    </linearGradient>
    <linearGradient id="rain-gradient-green" x1="463.2" y1="177.2" x2="87.9" y2="177.2" gradientTransform="translate(0 546) scale(1 -1)" gradientUnits="userSpaceOnUse">
      <stop offset="0" stop-color="#355E3B">
        <animate attributeName="stop-color" values="#355E3B; #6D8B5F; #355E3B" dur="7s" repeatCount="indefinite" />
      </stop>
      <stop offset="1" stop-color="#6D8B5F">
        <animate attributeName="stop-color" values="#6D8B5F; #355E3B; #6D8B5F" dur="7s" repeatCount="indefinite" />
      </stop>
    </linearGradient>
    <linearGradient id="rain-gradient-moss" x1="141" y1="193.4" x2="339.6" y2="193.4" gradientTransform="translate(0 546) scale(1 -1)" gradientUnits="userSpaceOnUse">
      <stop offset="0" stop-color="#0B3D28">
        <animate attributeName="stop-color" values="#0B3D28; #556B2F; #0B3D28" dur="7s" repeatCount="indefinite" />
      </stop>
      <stop offset="1" stop-color="#556B2F">
        <animate attributeName="stop-color" values="#556B2F; #0B3D28; #556B2F" dur="7s" repeatCount="indefinite" />
      </stop>
    </linearGradient>
    <linearGradient id="rain-gradient-blue-gray" x1="195.3" y1="446.2" x2="195.3" y2="391.3" gradientTransform="translate(0 546) scale(1 -1)" gradientUnits="userSpaceOnUse">
      <stop offset="0" stop-color="#3A506B">
        <animate attributeName="stop-color" values="#3A506B; #5A6E7F; #3A506B" dur="7s" repeatCount="indefinite" />
      </stop>
      <stop offset="1" stop-color="#5A6E7F">
        <animate attributeName="stop-color" values="#5A6E7F; #3A506B; #5A6E7F" dur="7s" repeatCount="indefinite" />
      </stop>
    </linearGradient>
    <filter id="glow-filter" x="-50%" y="-50%" width="200%" height="200%">
      <feGaussianBlur stdDeviation="8" result="coloredBlur"/>
      <feMerge>
        <feMergeNode in="coloredBlur"/>
        <feMergeNode in="SourceGraphic"/>
      </feMerge>
    </filter>
  </defs>
  <path class="cls-8" d="M431.2,3.5H112.8C52.4,3.5,3.5,52.4,3.5,112.8v318.4c0,60.4,48.9,109.3,109.3,109.3h318.4c60.4,0,109.3-48.9,109.3-109.3V112.8c0-60.4-48.9-109.3-109.3-109.3Z"/>
  <path class="cls-1 glow" d="M156.8,471.5c5.1-1.4,9-3.4,13.3-6.1,76.2-46.2,189.5-114.7,266.9-161.6,17.9-9.7,32.5-32,27-53.3-3.1-11.2-11-18.9-20.9-24.6-52.9-31.4-221.7-130.6-262.1-154.2-4.4-2.5-8.8-4.6-16.3-7.3-19.3-6.5-43.8-9-59.5,7.4-10.8,10.4-17.3,26.5-17.5,41.6-.7,14.4,6.5,28.2,17.6,38,8.1,8.3,19.7,14.3,30.8,16.4,8.5,1.8,15.7,2.3,23.3,5.6,36.5,19.1,84.7,46.4,121.7,66.5,9.3,5.5,15,7.2,21.5,13.5,6.2,6.3,8.6,16-.2,21.4-31.2,18.7-103.2,59-134.3,77-3.7,2.1-7.2,4.1-10.7,5.7-8.1,3.6-14.6,4.3-24.5,8-8.2,3-17.7,7.4-24.9,13.1-19.6,15.2-26.7,40.8-16.5,63.8,10.8,25.5,40.6,35.5,65.2,28.9h.1s0,0,0,0Z"/>
  <path class="cls-3" d="M89.1,427.4c3.9-3.5,15.9,1.5,22.1,2.3,10,2.1,20.6,2.6,31,1.8,13.7-1.2,24.7-2,36-8.8,26.3-15.4,60.8-36.2,87.2-51.9,42.4-25.2,88.3-52.2,129.1-76.5,11.4-6.7,25.4-15.3,36.2-21.4,7.9-4.3,16-8.9,24.7-9.5,14.8-.2,5,17.8.4,24.1-3.4,4.8-6.8,7.9-11.5,10.8-85,51.7-184.7,115.6-267.1,164.1-17.4,10.4-37.5,15.6-57.2,8.3-13.6-5-24.5-16.3-29.7-29.6-1.7-4.2-3.8-10.4-1.3-13.6h0Z"/>
  <path class="cls-4" d="M141,407.8c0,.7,4-.5,9.2-2.4,4.1-1.5,8.9-3.4,12.7-5.2,43.4-23.4,128-72.7,171.9-98.1,6.8-4.5,6.8-6.4-.9-3.1-44.8,23.6-134.9,78.1-181,101.8-4.8,2.2-9,4.5-10.9,5.9-.4.3-.8.6-.9,1h0s0,0,0,0Z"/>
  <path class="cls-2" d="M254.3,154.7c.3-.3-1.2-1.7-4.4-3.9-2.2-1.5-5.2-3.5-8.8-5.6-8.6-5.1-18.3-10.3-27.4-15-13.4-7-24.7-13-37.1-19.4-9.5-5.1-20.2-9.3-30.9-10.5-2.4-.4-9.7-.7-9.7,0,0,.4,1.7,1,5.2,1.9,6.7,1.7,14.9,4,21.6,7,12.3,5.3,23.6,12.2,35.6,18.2,10.8,5.6,22.2,11,33.5,17,5.6,2.9,12,6.3,17.1,8.6,3.1,1.4,4.9,2,5.2,1.7h0Z"/>
  <path class="cls-6" d="M336.3,294.9c4,.8,9.4-3,13.4-5.4,4.7-3,9.5-6.4,12.5-11.2,4.8-7.2,4.8-23.4-.3-29.6-3.7-4.3-9.5-8.4-14.2-11.2-31-18.1-164.6-93.4-183.1-104-3.6-2.3-8.6-.2-12.5,2-7.3,4.1-10.3,12.3-7.5,20.4,1.7,5.2,4.1,10.5,7.5,13.2,9.8,5.8,35.4,20.2,63.9,36.4,26.8,14.8,43.5,25.6,65.8,36.8,7.6,3.5,17.2,6.5,23.1,13.2,5.3,5.7,4.7,16.1-2.7,19.4-19.7,11.3-106.4,61.1-145.5,83.5-3.1,2.1-8.6,2.7-13.4,3.7-10.9,2-21.6,5.5-30.4,12.4-13.1,8.9-23.4,21.4-26.4,37.3-.7,2.9-1.1,9.6.1,10.1.5-.2,1.1-2.8,1.7-6.3.6-3.3,1-7.2,2.4-10.8,5.6-15,18.4-28,33-34.3,5-2.1,10.8-3.3,16.3-4.6,5.9-1.3,12.5-3.6,18.4-6.5,6.6-3.2,13-6.5,19.1-10,35.7-20.5,73.9-43,103.2-59.3,9.1-5.1,14.9-8.2,22.3-13.4,9.2-7.1,12.7-1.9,19.5,5.4,2.5,2.7,5,5.5,7,7.7,2,2,3.9,4.3,6.6,5h.1s0,0,0,0Z"/>
  <path class="cls-7" d="M6.5,318.6c49.7-59.5,175.7-47.2,240.2-69.2.9-.3,1.8-.6,2.5-.8,2.2-.7,3.3-.8,2.7,0-67.2,51.7-168,33.8-227.1,103-3.5,3.8-6.7,7.4-10.2,11.2-3.4,3.7-6.7,7.5-8.1,8.9-.4.3-.8.9-1.2.5-.1-.2-.2-.5-.3-1.1-.2-8.7,0-32.8,0-44.7,0-2.7.2-5.3,1.4-7.6h0c0-.1,0-.1,0-.1Z"/>
  <path class="cls-5" d="M8.2,381.8c-1,1.9-1.7,3.7-1.8,5.7-.2,11.3,0,32.3,0,46.8,0,5.7-.3,8.8,1.1,14.4.6,2.5,1.3,5,1.9,7.6,2.7,11.5,6.8,22.3,12.8,32.6,4.5,7.3.8-11,.9-12.9-.8-6.5-1.1-11.6-.8-18.2,7.4-120.8,172.7-113.3,233.2-197.6.3-1.1-1-.6-3.4.8-1,.6-2.2,1.3-3.4,2.1-75.4,47.2-179.4,29.9-240.4,118.6v.2h0Z"/>
</svg>