<?xml version="1.0" encoding="UTF-8"?>
<svg id="Layer_1" data-name="Layer 1" xmlns="http://www.w3.org/2000/svg" version="1.1" viewBox="0 0 14 110">
  <defs>
    <style>
      .cls-1 {
        <!-- fill: #0e1c30; -->
        fill-opacity: .2;
        fill-rule: evenodd;
        stroke: #4092ff;
        stroke-miterlimit: 10;
      }
    </style>
  </defs>
  <path class="cls-1" d="M.3,11V0h1.4v12c0,3.9,1,5.9,2.4,7,1.4,1.1,3.5,1.4,5.9,1.4h3c.4,0,.7.3.7.7s-.3.7-.7.7h-3c-2.5,0-5-.2-6.8-1.7-.6-.5-1.1-1-1.5-1.7v36.6h0v1.1c0,3.8,1,5.8,2.4,6.9,1.4,1.1,3.5,1.4,5.9,1.4h3c.4,0,.7.3.7.7s-.3.7-.7.7h-3c-2.5,0-5-.2-6.8-1.7-.6-.5-1.1-1-1.5-1.7v37.6c0,3.9,1,5.9,2.4,7,1.4,1.1,3.5,1.4,5.9,1.4h3c.4,0,.7.3.7.7s-.3.7-.7.7h-3c-2.5,0-5-.2-6.8-1.7-1.9-1.4-2.9-4-2.9-8.1v-43.9s0,0,0,0V11Z"/>
</svg>