<?xml version="1.0" encoding="UTF-8"?>
<svg id="Layer_1" data-name="Layer 1" xmlns="http://www.w3.org/2000/svg" xmlns:xlink="http://www.w3.org/1999/xlink" version="1.1" viewBox="0 0 73 73">
  <defs>
    <style>
      .cls-1 {
        fill: url(#linear-gradient);
      }

      .cls-1, .cls-2, .cls-3, .cls-4, .cls-5, .cls-6, .cls-7, .cls-8 {
        stroke-width: 0px;
      }

      .cls-2 {
        fill: url(#linear-gradient-4);
      }

      .cls-3 {
        fill: url(#linear-gradient-2);
      }

      .cls-4 {
        fill: url(#linear-gradient-3);
      }

      .cls-5 {
        fill: url(#linear-gradient-8);
      }

      .cls-6 {
        fill: url(#linear-gradient-7);
      }

      .cls-7 {
        fill: url(#linear-gradient-5);
      }

      .cls-8 {
        fill: url(#linear-gradient-6);
      }
    </style>
    <linearGradient id="linear-gradient" x1="36.5" y1="73.8" x2="36.5" y2="1.2" gradientTransform="translate(0 74) scale(1 -1)" gradientUnits="userSpaceOnUse">
      <stop offset="0" stop-color="#012e71"/>
      <stop offset="1" stop-color="#000018"/>
    </linearGradient>
    <linearGradient id="linear-gradient-2" x1="37" y1="10.3" x2="37" y2="66.2" gradientTransform="translate(0 74) scale(1 -1)" gradientUnits="userSpaceOnUse">
      <stop offset="0" stop-color="#4092ff"/>
      <stop offset="1" stop-color="#cbf4ff"/>
    </linearGradient>
    <linearGradient id="linear-gradient-3" x1="62.3" y1="24.4" x2="11.6" y2="24.4" gradientTransform="translate(0 74) scale(1 -1)" gradientUnits="userSpaceOnUse">
      <stop offset="0" stop-color="#0ac5ff"/>
      <stop offset="1" stop-color="#4092ff"/>
    </linearGradient>
    <linearGradient id="linear-gradient-4" x1="18.8" y1="26.6" x2="45.6" y2="26.6" gradientTransform="translate(0 74) scale(1 -1)" gradientUnits="userSpaceOnUse">
      <stop offset="0" stop-color="#00c9ff"/>
      <stop offset="1" stop-color="#f1fefe"/>
    </linearGradient>
    <linearGradient id="linear-gradient-5" x1="26.1" y1="60.8" x2="26.1" y2="53.3" gradientTransform="translate(0 74) scale(1 -1)" gradientUnits="userSpaceOnUse">
      <stop offset="0" stop-color="#f1fefe"/>
      <stop offset="1" stop-color="#cbf4ff"/>
    </linearGradient>
    <linearGradient id="linear-gradient-6" x1="11.4" y1="36.8" x2="49.2" y2="36.8" gradientTransform="translate(0 74) scale(1 -1)" gradientUnits="userSpaceOnUse">
      <stop offset="0" stop-color="#0045b6"/>
      <stop offset="1" stop-color="#4092ff"/>
    </linearGradient>
    <linearGradient id="linear-gradient-7" x1=".5" y1="32.3" x2="33.8" y2="32.3" gradientTransform="translate(0 74) scale(1 -1)" gradientUnits="userSpaceOnUse">
      <stop offset="0" stop-color="#cbf4ff"/>
      <stop offset="1" stop-color="#4092ff"/>
    </linearGradient>
    <linearGradient id="linear-gradient-8" x1=".6" y1="23.6" x2="34.3" y2="23.6" gradientTransform="translate(0 74) scale(1 -1)" gradientUnits="userSpaceOnUse">
      <stop offset="0" stop-color="#4092ff"/>
      <stop offset="1" stop-color="#bbd9ff"/>
    </linearGradient>
  </defs>
  <path class="cls-1" d="M58,.2H15C6.9.2.2,6.9.2,15v43c0,8.1,6.6,14.8,14.8,14.8h43c8.1,0,14.8-6.6,14.8-14.8V15c0-8.1-6.6-14.8-14.8-14.8Z"/>
  <path class="cls-3" d="M20.9,63.4c.7-.2,1.2-.5,1.8-.8,10.3-6.2,25.6-15.5,36-21.8,2.4-1.3,4.4-4.3,3.6-7.2-.4-1.5-1.5-2.5-2.8-3.3-7.1-4.2-29.9-17.6-35.4-20.8-.6-.3-1.2-.6-2.2-1-2.6-.9-5.9-1.2-8,1-1.5,1.4-2.3,3.6-2.4,5.6,0,1.9.9,3.8,2.4,5.1,1.1,1.1,2.7,1.9,4.2,2.2,1.1.2,2.1.3,3.1.8,4.9,2.6,11.4,6.3,16.4,9,1.3.7,2,1,2.9,1.8.8.8,1.2,2.2,0,2.9-4.2,2.5-13.9,8-18.1,10.4-.5.3-1,.6-1.4.8-1.1.5-2,.6-3.3,1.1-1.1.4-2.4,1-3.4,1.8-2.6,2.1-3.6,5.5-2.2,8.6,1.5,3.4,5.5,4.8,8.8,3.9h0s0,0,0,0Z"/>
  <path class="cls-4" d="M11.8,57.5c.5-.5,2.1.2,3,.3,1.4.3,2.8.4,4.2.2,1.9-.2,3.3-.3,4.9-1.2,3.6-2.1,8.2-4.9,11.8-7,5.7-3.4,11.9-7,17.4-10.3,1.5-.9,3.4-2.1,4.9-2.9,1.1-.6,2.2-1.2,3.3-1.3,2,0,.7,2.4,0,3.3-.5.6-.9,1.1-1.5,1.5-11.5,7-24.9,15.6-36.1,22.1-2.3,1.4-5.1,2.1-7.7,1.1-1.8-.7-3.3-2.2-4-4-.2-.6-.5-1.4-.2-1.8h0Z"/>
  <path class="cls-2" d="M18.8,54.8c0,0,.5,0,1.2-.3.5-.2,1.2-.5,1.7-.7,5.9-3.2,17.3-9.8,23.2-13.2.9-.6.9-.9-.1-.4-6,3.2-18.2,10.5-24.4,13.7-.6.3-1.2.6-1.5.8,0,0-.1,0-.1.1h0s0,0,0,0Z"/>
  <path class="cls-7" d="M34.1,20.7s-.2-.2-.6-.5c-.3-.2-.7-.5-1.2-.8-1.2-.7-2.5-1.4-3.7-2-1.8-.9-3.3-1.8-5-2.6-1.3-.7-2.7-1.3-4.2-1.4-.3,0-1.3,0-1.3,0,0,0,.2.1.7.3.9.2,2,.5,2.9.9,1.7.7,3.2,1.6,4.8,2.5,1.5.8,3,1.5,4.5,2.3.8.4,1.6.8,2.3,1.2.4.2.7.3.7.2h0Z"/>
  <path class="cls-8" d="M45.2,39.6c.5.1,1.3-.4,1.8-.7.6-.4,1.3-.9,1.7-1.5.7-1,.7-3.2,0-4-.5-.6-1.3-1.1-1.9-1.5-4.2-2.4-22.2-12.6-24.7-14-.5-.3-1.2,0-1.7.3-1,.6-1.4,1.7-1,2.7.2.7.6,1.4,1,1.8,1.3.8,4.8,2.7,8.6,4.9,3.6,2,5.9,3.5,8.9,5,1,.5,2.3.9,3.1,1.8.7.8.6,2.2-.4,2.6-2.7,1.5-14.4,8.2-19.6,11.3-.4.3-1.2.4-1.8.5-1.5.3-2.9.7-4.1,1.7-1.8,1.2-3.2,2.9-3.6,5,0,.4-.1,1.3,0,1.4,0,0,.2-.4.2-.9,0-.5.1-1,.3-1.5.8-2,2.5-3.8,4.5-4.6.7-.3,1.5-.4,2.2-.6.8-.2,1.7-.5,2.5-.9.9-.4,1.8-.9,2.6-1.3,4.8-2.8,10-5.8,13.9-8,1.2-.7,2-1.1,3-1.8,1.2-1,1.7-.3,2.6.7.3.4.7.7.9,1,.3.3.5.6.9.7h0s0,0,0,0Z"/>
  <path class="cls-6" d="M.7,42.8c6.7-8,23.7-6.4,32.4-9.3.1,0,.2,0,.3-.1.3,0,.4-.1.4,0-9.1,7-22.7,4.6-30.7,13.9-.5.5-.9,1-1.4,1.5-.5.5-.9,1-1.1,1.2,0,0-.1.1-.2,0,0,0,0,0,0-.2,0-1.2,0-4.4,0-6,0-.4,0-.7.2-1h0s0,0,0,0Z"/>
  <path class="cls-5" d="M.9,51.3c-.1.3-.2.5-.2.8,0,1.5,0,4.4,0,6.3,0,.8,0,1.2.1,2,0,.3.2.7.3,1,.4,1.6.9,3,1.7,4.4.6,1,.1-1.5.1-1.7-.1-.9-.1-1.6-.1-2.5,1-16.3,23.3-15.3,31.5-26.7,0-.1-.1,0-.5.1-.1,0-.3.2-.5.3-10.2,6.4-24.2,4-32.5,16h0s0,0,0,0Z"/>
</svg>