<?xml version="1.0" encoding="UTF-8"?>
<svg id="Layer_1" data-name="Layer 1" xmlns="http://www.w3.org/2000/svg" version="1.1" viewBox="0 0 2415 1806">
  <defs>
    <style>
      .cls-1 { fill: #eef4fc; }
      .cls-2 { fill: #4092ff; }
      .cls-3 { fill: #bbd9ff; }
      .cls-4 { fill: #012e71; }
      .cls-5 { fill: #eef4fc; }
      .cls-6 { fill: #e0e0e0; }
      .cls-7 { opacity: 0.5; fill: #012371; }
      .cls-7, .cls-11, .cls-12, .cls-13, .cls-14, .cls-16, .cls-19 { isolation: isolate; fill: #012e71; }
      .cls-7, .cls-11, .cls-15, .cls-16 { fill: #fff; }
      .cls-8 { fill: #0045b6; }
      .cls-9, .cls-12, .cls-13, .cls-19 { fill: #012e71; }
      .cls-10 { fill: #f0f0f0; }
      .cls-11 { opacity: 0.1; fill: #012e71; }
      .cls-12, .cls-16 { opacity: 0.3; fill: #012371; }
      .cls-13 { opacity: 0.4; fill: #012e71; }
      .cls-20, .cls-19 { opacity: 0.2; fill: #012371; } 
      .cls-14 { opacity: 0.6; fill: #012e71; }
      .cls-17 { fill: #BBD9FF; }
      .cls-18 { fill: #e6e6e6; }

      /* Animation */
      @keyframes moveLeftRight {
        0% { transform: translateX(0); }
        100% { transform: translateX(40px); }
      }
      #ponytail {
        animation: moveLeftRight 2s infinite alternate;
      }

      @keyframes blink {
        0%, 97%, 100% { transform: scaleY(1); }
        98%, 99% { transform: scaleY(0); }
      }
      #eyes {
        animation: blink 4s infinite;
      }

      @keyframes flipFrown {
        0%, 100% { transform: scaleY(1); }
        50% { transform: scaleY(1.03); }
      }
      #frown {
        animation: flipFrown 5s infinite;
      }

      @keyframes showFromLeft {
        95% { transform: translateX(-10%); opacity: 0; }
        100% { transform: translateX(0); opacity: 1; }
      }
      #no_data {
        animation: showFromLeft 8s infinite;
      }

      @keyframes moveUpDown {
        0% { transform: translateY(0); }
        100% { transform: translateY(15px); }
      }
      #eyebrows {
        animation: moveUpDown 2.5s infinite alternate;
      }
    </style>
  </defs>
  <path class="cls-3" d="M2172.2,1664.5h-159.9v1.2h159.9v-1.2Z"/>
  <path class="cls-3" d="M1599.2,1677.6h-41.9v1.2h41.9v-1.2Z"/>
  <path class="cls-3" d="M2007.5,1619.5h-92.7v1.2h92.7v-1.2Z"/>
  <path class="cls-3" d="M461.8,1627.6h-208.5v1.2h208.5v-1.2Z"/>
  <path class="cls-3" d="M535.4,1627.6h-30.6v1.2h30.6v-1.2Z"/>
  <path class="cls-3" d="M1087.1,1648.1h-452.3v1.2h452.3v-1.2Z"/>
  <path class="cls-3" d="M1144.3,1370.4H212c-7.3,0-14.3-2.9-19.5-8.1-5.2-5.2-8.1-12.2-8.1-19.6V27.4c0-7.3,3-14.3,8.1-19.4C197.8,2.9,204.7,0,212,0h932.3c7.3,0,14.3,2.9,19.5,8.1,5.2,5.2,8.1,12.2,8.1,19.6v1315c0,7.3-2.9,14.4-8.1,19.6-5.2,5.2-12.2,8.1-19.5,8.1ZM212,1c-7,0-13.7,2.8-18.6,7.8-4.9,5-7.7,11.7-7.7,18.7v1315.3c0,7,2.8,13.7,7.7,18.7,4.9,5,11.6,7.8,18.6,7.8h932.3c7,0,13.7-2.8,18.6-7.8,4.9-5,7.7-11.7,7.7-18.7V27.4c0-7-2.8-13.7-7.7-18.7-4.9-5-11.6-7.8-18.6-7.8H212Z"/>
  <path class="cls-3" d="M2188.7,1370.4h-932.3c-7.3,0-14.3-2.9-19.5-8.1-5.2-5.2-8.1-12.2-8.1-19.6V27.4c0-7.3,3-14.3,8.2-19.4,5.2-5.1,12.1-8,19.4-8h932.3c7.2,0,14.2,2.9,19.4,8.1,5.1,5.1,8.1,12.1,8.1,19.4v1315.3c0,7.3-2.9,14.4-8,19.5-5.2,5.2-12.1,8.1-19.4,8.1ZM1256.3,1c-7,0-13.7,2.8-18.6,7.8-4.9,5-7.7,11.7-7.7,18.7v1315.3c0,7,2.8,13.7,7.7,18.7,5,4.9,11.6,7.8,18.6,7.8h932.3c7,0,13.7-2.8,18.6-7.8,4.9-5,7.7-11.7,7.7-18.7V27.4c0-7-2.8-13.7-7.7-18.7-4.9-5-11.6-7.8-18.6-7.8h-932.3Z"/>
  <path class="cls-18" d="M1398.7,576.9h665.2V139.7h-665.2v437.2Z"/>
  <path class="cls-10" d="M1378.4,576.9h676V139.7h-676v437.2Z"/>
  <path class="cls-18" d="M1398.7,662.7h665.2v-85.8h-665.2v85.8Z"/>
  <path class="cls-10" d="M1344.6,662.7h676.1v-85.8h-676.1v85.8Z"/>
  <path class="cls-5" d="M2026,548.4V168.2h-619.2v380.2h619.2Z"/>
  <path class="cls-15" d="M1886.4,548.4l-79.1-380.1h-123.4l79.1,380.1h123.4Z"/>
  <path class="cls-10" d="M2012.9,520c.3,0,.5,0,.8-.2s.5-.3.7-.5c.2-.2.3-.4.4-.7,0-.3.2-.5.1-.8V186.8c0-.5-.2-1.1-.6-1.4-.4-.4-.9-.6-1.4-.6-.3,0-.5,0-.8.1-.2.1-.5.2-.7.4-.2.2-.3.4-.4.7s-.2.5-.1.8v331.2c0,.3,0,.5.1.8,0,.3.2.5.4.7.2.2.4.3.7.5s.5.2.8.2Z"/>
  <path class="cls-15" d="M1736.5,548.4l-79.1-380.1h-48.1l79.1,380.1h48.1Z"/>
  <path class="cls-18" d="M1410.4,548.4V168.2h-3.6v380.2h3.6Z"/>
  <path class="cls-14" d="M1371.7,211.2h665.2l2.6-31.9h-665.2l-2.6,31.9Z"/>
  <path class="cls-14" d="M1371.7,263.6h665.2l2.6-31.9h-665.2l-2.6,31.9Z"/>
  <path class="cls-14" d="M1371.7,315.9h665.2l2.6-31.9h-665.2l-2.6,31.9Z"/>
  <path class="cls-14" d="M1371.7,368.3h665.2l2.6-31.9h-665.2l-2.6,31.9Z"/>
  <path class="cls-14" d="M1371.7,420.6h665.2l2.6-31.9h-665.2l-2.6,31.9Z"/>
  <path class="cls-14" d="M1371.7,472.9h665.2l2.6-31.9h-665.2l-2.6,31.9Z"/>
  <path class="cls-18" d="M1968.4,1268.5h-139.5v27.6h139.5v-27.6Z"/>
  <path class="cls-18" d="M1565.8,1586.5h25.7v-635.1h-25.7v635.1Z"/>
  <path class="cls-1" d="M1476.6,1296.1h352.3v-27.6h-352.3v27.6Z"/>
  <path class="cls-18" d="M1968.4,1419.6h-139.5v27.6h139.5v-27.6Z"/>
  <path class="cls-1" d="M1476.6,1447.1h352.3v-27.6h-352.3v27.6Z"/>
  <path class="cls-18" d="M1968.4,966.5h-139.5v27.6h139.5v-27.6Z"/>
  <path class="cls-1" d="M1476.6,994.1h352.3v-27.6h-352.3v27.6Z"/>
  <path class="cls-18" d="M1968.4,1117.5h-139.5v27.6h139.5v-27.6Z"/>
  <path class="cls-1" d="M1476.6,1145.1h352.3v-27.6h-352.3v27.6Z"/>
  <path class="cls-18" d="M1918.2,1586.5h25.7v-635.1h-25.7v635.1Z"/>
  <path class="cls-1" d="M1803.2,1586.5h25.7v-635.1h-25.7v635.1Z"/>
  <path class="cls-1" d="M1476.6,1586.5h25.7v-635.1h-25.7v635.1Z"/>
  <path class="cls-18" d="M315.7,1586.5h263.5v-513.1h-263.5v513.1Z"/>
  <path class="cls-5" d="M386,1586.5h-70.4v-70.8h144.2l-73.8,70.8Z"/>
  <path class="cls-18" d="M1034.1,1586.5h263.5v-513.1h-263.5v513.1Z"/>
  <path class="cls-5" d="M315.7,1562.1h779.9v-488.7H315.7v488.7Z"/>
  <path class="cls-5" d="M1025.2,1586.5h70.3v-70.8h-144.1l73.8,70.8Z"/>
  <path class="cls-10" d="M370.2,1377.8h670.7v-122.3H370.2v122.3Z"/>
  <path class="cls-10" d="M370.2,1526.2h670.7v-122.3H370.2v122.3Z"/>
  <path class="cls-5" d="M913.5,1268.6h-415.8c-5.9,0-11.5-2.3-15.6-6.5-4.1-4.2-6.5-9.8-6.5-15.7v-1.5h459.9v1.5c0,5.9-2.3,11.5-6.5,15.7-4.1,4.2-9.7,6.5-15.6,6.5Z"/>
  <path class="cls-10" d="M370.2,1229.3h670.7v-122.3H370.2v122.3Z"/>
  <path class="cls-5" d="M913.5,1120.1h-415.8c-5.9,0-11.5-2.3-15.6-6.5-4.1-4.2-6.5-9.8-6.5-15.7v-1.5h459.9v1.5c0,5.9-2.3,11.5-6.5,15.7-4.1,4.2-9.7,6.5-15.6,6.5Z"/>
  <path class="cls-5" d="M913.5,1417h-415.8c-5.9,0-11.5-2.3-15.6-6.5-4.1-4.2-6.5-9.8-6.5-15.7v-1.5h459.9v1.5c0,5.9-2.3,11.5-6.5,15.7-4.1,4.2-9.7,6.5-15.6,6.5Z"/>
  <path class="cls-18" d="M357.6,576.9h665.2V139.7H357.6v437.2Z"/>
  <path class="cls-10" d="M337.3,576.9h676.1V139.7H337.3v437.2Z"/>
  <path class="cls-18" d="M357.6,662.7h665.2v-85.8H357.6v85.8Z"/>
  <path class="cls-10" d="M303.5,662.7h676v-85.8H303.5v85.8Z"/>
  <path class="cls-5" d="M985,548.4V168.2H365.7v380.2h619.2Z"/>
  <path class="cls-15" d="M845.3,548.4l-79.1-380.1h-123.4l79.1,380.1h123.4Z"/>
  <path class="cls-10" d="M971.8,520c.3,0,.5,0,.8-.2.2-.1.5-.3.7-.5.2-.2.3-.4.4-.7,0-.3.1-.5.1-.8V186.8c0-.3,0-.5-.1-.8,0-.2-.2-.5-.4-.7-.2-.2-.4-.3-.7-.4-.2,0-.5-.1-.8-.1-.5,0-1.1.2-1.4.6-.4.4-.6.9-.6,1.4v331.2c0,.3,0,.5.1.8,0,.3.2.5.4.7.2.2.4.3.7.5.2.1.5.2.8.2Z"/>
  <path class="cls-15" d="M695.4,548.4l-79.1-380.1h-48.1l79.1,380.1h48.1Z"/>
  <path class="cls-18" d="M369.4,548.4V168.2h-3.6v380.2h3.6Z"/>
  <path class="cls-14" d="M330.6,211.2h665.2l2.6-31.9H333.2l-2.6,31.9Z"/>
  <path class="cls-14" d="M330.6,229.3h665.2l2.6-31.9H333.2l-2.6,31.9Z"/>
  <path class="cls-14" d="M330.6,247.2h665.2l2.6-31.9H333.2l-2.6,31.9Z"/>
  <path class="cls-14" d="M330.6,265.3h665.2l2.6-31.9H333.2l-2.6,31.9Z"/>
  <path class="cls-14" d="M330.6,283.2h665.2l2.6-31.9H333.2l-2.6,31.9Z"/>
  <path class="cls-14" d="M330.6,301.3h665.2l2.6-31.9H333.2l-2.6,31.9Z"/>
  <path class="cls-1" d="M463.6,1057.7h23v-257.3h-23v257.3Z"/>
  <path class="cls-5" d="M466.5,1057.5h6.5v-257.3h-6.5v257.3Z"/>
  <path class="cls-5" d="M475.7,1057.5h2.6v-257.3h-2.6v257.3Z"/>
  <path class="cls-10" d="M560.2,1073.4h-170.1c0-5.7,2.3-11.2,6.3-15.2,4-4,9.5-6.3,15.2-6.3h127.2c5.7,0,11.1,2.3,15.2,6.3,4,4,6.3,9.5,6.3,15.2h0Z"/>
  <path class="cls-10" d="M433.8,960.1c1.8,0,3.4-.7,4.7-2,1.2-1.2,1.9-2.9,2-4.7v-168.5c0-1.8-.7-3.4-1.9-4.7-1.2-1.2-2.9-1.9-4.7-1.9-.9,0-1.7.2-2.5.5-.8.3-1.5.8-2.2,1.4-.6.6-1.1,1.4-1.4,2.2-.3.8-.5,1.7-.5,2.6v168.7c0,1.7.8,3.4,2,4.6,1.2,1.2,2.9,1.9,4.6,1.9Z"/>
  <path class="cls-6" d="M372.1,861.6h205.9l-23.7-144.4h-158.5l-23.7,144.4Z"/>
  <path class="cls-1" d="M1207.1,1805.3c517,0,936.1-24.6,936.1-54.8s-419.1-54.8-936.1-54.8-936.1,24.6-936.1,54.8,419.1,54.8,936.1,54.8Z"/>
  <path class="cls-8" d="M502.7,714.1l-4.8.3,6.4,89.4,4.8-.3-6.4-89.4Z"/>
  <path class="cls-8" d="M512.4,849.6l-4.8.3,2.4,33.6,4.8-.3-2.4-33.6Z"/>
  <path class="cls-8" d="M1630.5,1260.7H596.5c-11.5-.2-22.5-4.7-31-12.6-8.4-7.9-13.6-18.6-14.6-30.1l-50.8-708.1c-.5-5.5.2-11,2-16.1,1.8-5.2,4.6-9.9,8.3-14s8.2-7.2,13.2-9.4c5-2.2,10.4-3.2,15.9-3.2h1034c11.5.2,22.5,4.7,30.9,12.5,8.4,7.9,13.6,18.6,14.6,30.1l50.8,708.1c.5,5.5-.2,11-2,16.2-1.8,5.2-4.6,9.9-8.3,14-3.7,4-8.2,7.2-13.2,9.4-5,2.2-10.4,3.2-15.9,3.2Z"/>
  <path class="cls-8" d="M1634.5,1260.7H600.5c-11.5-.2-22.5-4.7-31-12.6-8.4-7.9-13.6-18.6-14.6-30.1l-50.8-708.1c-.5-5.5.2-11,2-16.1,1.8-5.2,4.6-9.9,8.3-14,3.7-4,8.2-7.2,13.2-9.4,5-2.2,10.4-3.2,15.9-3.2h1034c11.5.2,22.5,4.7,30.9,12.5,8.4,7.9,13.6,18.6,14.6,30.1l50.8,708.1c.5,5.5-.2,11-2,16.2-1.8,5.2-4.6,9.9-8.3,14-3.7,4-8.2,7.2-13.2,9.4-5,2.2-10.5,3.2-15.9,3.2Z"/>
  <path class="cls-7" d="M1634.5,1260.7H600.5c-11.5-.2-22.5-4.7-31-12.6-8.4-7.9-13.6-18.6-14.6-30.1l-50.8-708.1c-.5-5.5.2-11,2-16.1,1.8-5.2,4.6-9.9,8.3-14,3.7-4,8.2-7.2,13.2-9.4,5-2.2,10.4-3.2,15.9-3.2h1034c11.5.2,22.5,4.7,30.9,12.5,8.4,7.9,13.6,18.6,14.6,30.1l50.8,708.1c.5,5.5-.2,11-2,16.2-1.8,5.2-4.6,9.9-8.3,14-3.7,4-8.2,7.2-13.2,9.4-5,2.2-10.5,3.2-15.9,3.2Z"/>
  <path class="cls-8" d="M1579.1,488.5H541.6c-26.4,2.2-21,42.5,5.6,42.5h1035.8c26.7,0,26.3-40.4-.4-42.5h-3.5Z"/>
  <path class="cls-5" d="M572,509.9c.1,1.2,0,2.5-.5,3.7-.4,1.2-1.1,2.3-1.9,3.2-.9.9-1.9,1.6-3,2.1-1.2.5-2.4.7-3.6.7-2.6,0-5.1-1-7.1-2.8-1.9-1.8-3.1-4.2-3.4-6.9-.1-1.2,0-2.5.5-3.7.4-1.2,1.1-2.3,1.9-3.2.9-.9,1.9-1.6,3-2.1,1.1-.5,2.4-.7,3.6-.7,2.6,0,5.2,1,7.1,2.8,1.9,1.8,3.1,4.2,3.4,6.9Z"/>
  <path class="cls-5" d="M605.2,509.9c.1,1.2,0,2.5-.5,3.7-.4,1.2-1.1,2.3-1.9,3.2-.9.9-1.9,1.6-3,2.1-1.2.5-2.4.7-3.6.7-2.6,0-5.1-1-7.1-2.8-1.9-1.8-3.1-4.2-3.4-6.9-.1-1.2,0-2.5.5-3.7.4-1.2,1.1-2.3,1.9-3.2.9-.9,1.9-1.6,3-2.1,1.1-.5,2.4-.7,3.6-.7,2.6,0,5.2,1,7.1,2.8,1.9,1.8,3.1,4.2,3.4,6.9Z"/>
  <path class="cls-5" d="M638.3,509.9c.1,1.2,0,2.5-.5,3.7-.4,1.2-1.1,2.3-1.9,3.2-.9.9-1.9,1.6-3,2.1-1.1.5-2.4.7-3.6.7-2.6,0-5.2-1-7.1-2.8-1.9-1.8-3.1-4.2-3.4-6.9-.1-1.2,0-2.5.5-3.7s1.1-2.3,1.9-3.2,1.9-1.6,3-2.1c1.1-.5,2.4-.7,3.6-.7,2.6,0,5.1,1,7.1,2.8,1.9,1.8,3.1,4.2,3.4,6.9Z"/>
  <path class="cls-15" d="M1607.1,1190h-989.1c-4.2,0-8.2-1.7-11.2-4.6-3.1-2.9-4.9-6.8-5.3-10.9l-41.8-582.3c-.2-2,0-4,.7-5.9.6-1.9,1.7-3.6,3.1-5.1,1.4-1.5,3-2.6,4.9-3.4,1.8-.8,3.8-1.1,5.8-1.1h989.3c4.2,0,8.2,1.7,11.2,4.5,3.1,2.9,4.9,6.8,5.3,10.9l41.8,582.3c.2,2,0,4.1-.7,6-.7,1.9-1.7,3.7-3.1,5.1-1.4,1.5-3.1,2.6-5,3.4-1.9.8-3.9,1.1-5.9,1Z"/>
  <path class="cls-15" d="M1190.3,968.2l-16.1-224.5-48.8-29.5h-134.3l18.3,253.9h180.9Z"/>
  <path class="cls-8" d="M1190.3,970.5h-180.9c-.6,0-1.2-.2-1.6-.6-.4-.4-.7-1-.8-1.6l-18.2-253.9c0-.3,0-.6.1-.9.1-.3.3-.6.5-.8.2-.2.5-.4.8-.6.3-.1.6-.2.9-.2h134.3c.4,0,.8.1,1.2.3l48.8,29.5c.3.2.6.5.8.8.2.3.3.7.4,1.1l16,224.5c0,.3,0,.7-.1,1-.1.3-.3.6-.5.8-.2.2-.5.4-.7.5-.3.1-.6.2-.9.2ZM1011.7,965.7h176.1l-15.8-220.7-46.9-28.3h-131.3l18,249.1Z"/>
  <path class="cls-3" d="M1174.2,743.7l-48.8-29.5,17.9,39.1,30.9-9.6Z"/>
  <path class="cls-8" d="M1143.3,755.6c-.4,0-.9-.1-1.2-.4-.4-.2-.7-.6-.9-1l-17.9-39.1c-.2-.5-.3-1-.2-1.5,0-.5.3-.9.7-1.3.4-.3.9-.5,1.4-.6.5,0,1,0,1.4.3l48.8,29.5c.4.2.7.6.9,1,.2.4.3.9.2,1.3,0,.4-.2.9-.5,1.2-.3.3-.7.6-1.1.7l-30.9,9.7h-.7ZM1130.7,720.2l13.9,30.3,24.1-7.4-38-22.9Z"/>
  <g id="eyes">
    <path class="cls-8" d="M1067,828.6c0,1.3-.1,2.6-.6,3.9-.4,1.2-1.1,2.4-2.1,3.3-.9,1-2,1.7-3.2,2.2-1.2.5-2.5.8-3.8.8-2.8,0-5.4-1.1-7.4-3-2-1.9-3.3-4.5-3.5-7.2-.1-1.3,0-2.7.5-3.9.4-1.3,1.1-2.4,2-3.4.9-1,2-1.7,3.3-2.2,1.2-.5,2.6-.7,3.9-.7,2.8,0,5.4,1.1,7.4,3s3.3,4.5,3.5,7.2Z"/>
    <path class="cls-8" d="M1133.2,828.6c.1,1.3,0,2.7-.5,3.9-.4,1.3-1.1,2.4-2,3.4-.9,1-2,1.7-3.2,2.2-1.2.5-2.6.7-3.9.7-2.8,0-5.4-1.1-7.4-3-2-1.9-3.3-4.5-3.5-7.2,0-1.3.1-2.6.6-3.9.4-1.2,1.2-2.4,2.1-3.3.9-1,2-1.7,3.2-2.3,1.2-.5,2.5-.8,3.8-.8,2.8,0,5.4,1.1,7.5,3,2,1.9,3.3,4.5,3.5,7.3Z"/>
  </g>
  <path id="frown" class="cls-8" d="M1151.9,895.2c-.6,0-1.2-.2-1.6-.6-.4-.4-.7-1-.7-1.5-1.2-16.5-27-29.9-57.5-29.9s-38.4,6.1-47.4,15.7c-1.8,1.8-3.3,3.9-4.2,6.3-1,2.4-1.4,5-1.3,7.5,0,.3,0,.6-.1.9,0,.3-.3.6-.5.8-.4.5-1,.8-1.7.8s-1.3-.2-1.8-.6c-.5-.4-.8-1-.8-1.7-.1-3.2.4-6.4,1.5-9.4,1.2-3,2.9-5.7,5.2-8,9.7-10.6,29.3-17.2,50.8-17.2,33.5,0,60.7,15.1,62.1,34.3,0,.3,0,.6-.1.9,0,.3-.2.6-.5.8-.2.2-.4.4-.7.6-.3.1-.6.2-.9.2h0Z"/>
  <g id="eyebrows">
    <path class="cls-8" d="M1029.2,807.9c-.6,0-1.2-.2-1.6-.6-.4-.4-.7-1-.7-1.7s.2-1.2.7-1.7l10.3-11.1c.4-.4,1-.7,1.6-.7s1.2.2,1.6.7c.2.2.4.5.5.8.1.3.2.6.2.9s0,.6-.2.9c-.1.3-.3.5-.5.8l-10.3,11.1c-.2.2-.5.4-.8.5-.3.1-.6.2-.9.2Z"/>
    <path class="cls-8" d="M1147.1,807.9c-.6,0-1.2-.2-1.6-.6l-11.8-11.1c-.2-.2-.4-.5-.5-.8s-.2-.6-.2-.9,0-.6.2-.9c.1-.3.3-.5.5-.8.4-.4,1-.7,1.6-.7s1.2.2,1.6.7l11.8,11.1c.2.2.4.5.5.8.1.3.2.6.2.9s0,.6-.2.9c-.1.3-.3.5-.5.8-.5.4-1.1.7-1.7.7Z"/>
  </g>
  <g id="no_data">
    <path class="cls-8" d="M976.6,1018.3h10.9l15.7,21-1.5-21h11l2.7,38h-11.1l-15.6-20.9,1.5,20.9h-11l-2.6-38Z"/>
    <path class="cls-8" d="M1020.3,1037.3c-.4-2.6-.2-5.2.5-7.7.7-2.5,2-4.8,3.6-6.8,1.8-1.8,4-3.2,6.4-4.1,2.4-.9,5-1.3,7.6-1.1,5.4-.3,10.8,1.5,14.9,5.1,3.8,3.8,6,8.9,6.1,14.2.4,3.7-.1,7.4-1.5,10.9-1.2,2.8-3.3,5.1-6,6.6-3.2,1.7-6.7,2.5-10.3,2.4-3.7.1-7.4-.6-10.8-2-3-1.4-5.5-3.7-7.2-6.5-2.1-3.3-3.3-7.1-3.4-11ZM1032.1,1037.3c0,3,.9,5.9,2.7,8.2.8.8,1.7,1.5,2.7,1.9,1,.4,2.2.6,3.3.6,1.1,0,2.1-.1,3.1-.5,1-.4,1.8-1.1,2.5-1.9,1.4-2.7,1.8-5.7,1.3-8.6,0-2.8-.9-5.6-2.7-7.8-.8-.8-1.7-1.5-2.8-1.9-1-.4-2.2-.6-3.3-.6-1,0-2.1.2-3,.6-1,.4-1.8,1.1-2.5,1.9-1.4,2.5-1.9,5.4-1.4,8.2h0Z"/>
    <path class="cls-8" d="M1082.2,1018.3h17.4c2.9,0,5.7.4,8.4,1.4,2.1.9,4,2.3,5.5,4,1.5,1.8,2.7,3.8,3.4,6.1.8,2.4,1.3,4.9,1.5,7.4.4,3.2.1,6.4-.7,9.4-.7,2.1-1.8,4.1-3.4,5.6-1.3,1.4-3,2.4-4.8,3-2.2.7-4.6,1-6.9,1.1h-17.3l-2.9-38ZM1094.6,1026.9l1.5,20.7h2.8c1.8.1,3.5-.2,5.2-.8,1.1-.6,1.9-1.7,2.2-2.9.5-2.2.7-4.4.4-6.6,0-3-.8-5.9-2.6-8.2-.9-.8-1.9-1.4-3.1-1.8-1.2-.4-2.4-.5-3.6-.4h-2.9Z"/>
    <path class="cls-8" d="M1146.5,1050h-13.3l-1.4,6.3h-11.9l11.5-38h12.9l16.9,38h-12.3l-2.5-6.3ZM1143.4,1041.8l-5.1-13.7-3.2,13.7h8.3Z"/>
    <path class="cls-8" d="M1155.7,1018.3h35.5l.7,9.4h-11.9l2,28.6h-11.7l-2-28.6h-11.9l-.7-9.4Z"/>
    <path class="cls-8" d="M1218.5,1050h-13.3l-1.4,6.3h-11.9l11.5-38h12.8l16.9,38h-12.2l-2.3-6.3ZM1215.5,1041.8l-5.2-13.7-3.2,13.7h8.4Z"/>
  </g>
  <path class="cls-17" d="M1707.7,572.2c4.3-2.2,9.7-4.8,14.2-7.6,4.5-2.8,9.7-5.4,14.5-8.3,9.4-5.9,19-11.6,28-18,18.1-12.5,35.1-26.5,50.8-42,2-1.8,3.7-3.9,5.6-5.9l2.8-3,1.3-1.5.7-.8c-.7,1.3,0,.9,0-.3.4-1.7.7-3.5.7-5.3-.1-10.3-1.3-20.6-3.5-30.6-4.3-21.7-10.8-44.1-17.2-66l18.7-8.2c11.8,21,21.7,43.1,29.5,65.9,4.4,12.3,7.2,25.2,8.3,38.2.3,4.1.2,8.1-.4,12.2-.7,5.7-2.7,11.2-5.9,15.9l-.8,1.1-.6.8-.7.9-1.5,1.8-3,3.6c-2,2.4-3.9,4.8-6,7.1-16.5,18.4-34.9,35-54.9,49.4-9.7,7.2-19.9,14.1-30.4,20.3-5.2,3.2-10.4,6.2-15.8,9.1s-10.6,5.7-16.8,8.6l-17.5-37.6Z"/>
  <path class="cls-8" d="M1664.7,1711.4c3.6,0,7.2-.6,10.7-1.5.2,0,.3-.2.5-.3.1-.1.2-.3.2-.5,0-.2,0-.4,0-.5,0-.2-.2-.3-.3-.4-1.4-.9-13.7-8.9-18.4-6.7-.5.2-1,.6-1.3,1.1-.3.5-.5,1-.6,1.6-.2.9-.1,1.9.1,2.8.3.9.8,1.7,1.5,2.3,2.2,1.6,4.9,2.4,7.7,2.1ZM1672.7,1708.6c-7,1.4-12.3,1.2-14.5-.7-.4-.4-.8-1-.9-1.6-.2-.6-.2-1.2,0-1.8,0-.2,0-.5.2-.7.1-.2.3-.4.6-.5,2.6-1.1,9.7,2.5,14.6,5.4Z"/>
  <path class="cls-8" d="M1675.4,1710h.5c.2,0,.3-.2.3-.3,0-.2.1-.3.1-.5,0-.5,0-12.2-4.4-16.1-.5-.5-1.2-.9-1.9-1.1-.7-.2-1.5-.3-2.2-.2-.8,0-1.5.3-2.1.8-.6.5-1,1.2-1.1,1.9-.9,4.8,6.4,13.3,10.3,15.6.2,0,.3,0,.5,0ZM1668.5,1693.5c.8,0,1.5.3,2.1.8,2.6,3.8,3.9,8.2,3.8,12.8-3.9-3.1-8.4-9.7-7.9-12.5,0-.4.3-1,1.5-1.2h.4Z"/>
  <path class="cls-17" d="M1671.6,451c-4.8,24.2-14.5,72.7,2.2,88.9,0,0-6.6,24.2-51.1,24.2s-23.4-24.2-23.4-24.2c26.8-6.4,26-26.3,21.4-45.1l51-43.9Z"/>
  <path class="cls-4" d="M1589.8,549.6c-7.7,1.1-1.1-18.9,2-21,7.2-4.8,100.7-11.6,100.1,0-.4,4.8-2.7,14.5-6.8,17.7-4.1,3.2-28.1-6.8-95.3,3.3Z"/>
  <path class="cls-4" d="M1605.1,542.7c-6.1,2.1-5.5-18.1-3.5-20.5,4.8-5.6,80.5-25.1,82.7-14.1.9,4.8,1.3,14.5-1.3,18s-24.8-2.2-77.9,16.6Z"/>
  <path class="cls-4" d="M1576.9,407.6c-.3,0-.6,0-.9-.2-.3-.1-.5-.3-.7-.6-1.5-1.9-3.4-3.4-5.5-4.5-2.2-1-4.6-1.5-7-1.5-.3,0-.5,0-.8,0-.2,0-.5-.2-.7-.3-.2-.2-.4-.4-.5-.6-.1-.2-.2-.5-.2-.7,0-.5.1-1,.4-1.4.3-.4.8-.6,1.3-.7,3-.2,6.1.4,8.8,1.7,2.8,1.3,5.2,3.2,7.1,5.6.3.4.5.9.4,1.4,0,.5-.3,1-.7,1.3-.3.2-.7.4-1.1.4Z"/>
  <path class="cls-2" d="M1567.6,431.3c-2.2,7.7-5.4,15.1-9.7,22,1.8,1,3.7,1.6,5.8,1.8,2,.2,4.1,0,6-.8l-2.1-23Z"/>
  <path class="cls-4" d="M1569.9,425.4c.3,3.2-1.2,6.1-3.3,6.3s-4.1-2.2-4.4-5.5c-.3-3.3,1.2-6.1,3.2-6.3,2.1-.2,4.1,2.2,4.4,5.5Z"/>
  <path class="cls-4" d="M1566.5,420l-8-1.5s4.6,5.7,8,1.5Z"/>
  <path class="cls-17" d="M1722.2,1709h-40.5l3.2-94h40.5l-3.2,94Z"/>
  <path class="cls-4" d="M1678.6,1704.3h45.4c.8,0,1.6.2,2.1.8.6.5,1,1.2,1.1,2l5.2,36.1c.1.9,0,1.8-.3,2.7-.3.9-.7,1.7-1.4,2.4-.6.7-1.4,1.2-2.2,1.6-.8.4-1.7.6-2.7.6-15.8-.2-23.5-1.2-43.4-1.2s-30.3,1.3-47.2,1.3-17.9-16.9-10.8-18.4c31.7-6.9,36.7-16.3,47.4-25.3,1.9-1.6,4.3-2.5,6.8-2.5Z"/>
  <g class="cls-20">
    <path class="cls-9" d="M1725.4,1615h-40.5l-1.6,48.5h40.5l1.6-48.5Z"/>
  </g>
  <path class="cls-17" d="M1561.3,596c-24.8-9.7-49-20.6-72.7-32.7-24.4-12-47.7-26.2-69.5-42.5-5.8-4.6-11.3-9.6-16.5-14.9-1.3-1.5-2.7-2.8-4-4.5-1.5-1.7-2.9-3.6-4.2-5.5-3.6-5.2-5.8-11.2-6.5-17.5-.5-6,.3-11.9,2.4-17.5,1.7-4.5,4-8.7,6.8-12.6,4.7-6.4,10.2-12.1,16.4-17.1,10.9-8.7,22.8-16.3,35.2-22.6,6-3.2,12.1-6.1,18.2-8.7,6.2-2.7,12.3-5.2,18.9-7.5l8.5,18.7c-21,13.3-42.9,28-58.9,44.4-3.6,3.6-6.8,7.7-9.4,12.1-2.3,3.8-2.3,6.7-1.9,6.4.4-.2,0,0,.7.5l1.9,2.1c.7.9,1.7,1.7,2.7,2.7,4.1,3.8,8.4,7.3,13,10.5,10,7.1,20.3,13.6,31.1,19.4,10.9,6.1,22.1,11.9,33.5,17.4,22.8,11,46.4,21.5,69.5,31.1l-15.1,38.5Z"/>
  <path class="cls-17" d="M1506.4,398.1l6.7-14.5-30.5-10.4s-9.7,28.6,1.8,41.8c4.8-.8,9.3-2.7,13.2-5.6,3.8-2.9,6.9-6.8,8.9-11.2Z"/>
  <path class="cls-17" d="M1512.9,352.1l-24.3-7.1-6.1,27.9,30.4,10.6v-31.4Z"/>
  <path class="cls-17" d="M1826.8,384.9l3.5-33.9-31.3,7.6s-.5,31.9,16.1,36.9l11.7-10.6Z"/>
  <path class="cls-17" d="M1815.2,327.1l-20.4,9.5,4.2,21.7,31.3-7.4-15.1-23.8Z"/>
  <path class="cls-17" d="M1678,403.4c1.5,40.3,2.9,57.3-15.2,79.8-27.3,33.9-76.9,26.9-90.3-12.1-12.1-35.1-12.5-95,25-114.8,8.2-4.4,17.5-6.6,26.8-6.4,9.3.2,18.5,2.8,26.5,7.5,8.1,4.7,14.8,11.4,19.5,19.5,4.8,8.1,7.4,17.2,7.6,26.6Z"/>
  <path class="cls-4" d="M1660.5,483.2c39.4-17.1,65.3-53.3,54.4-109.4-10.5-53.8-46.7-59.2-61.7-48-15,11.1-52.3-5.5-74.7,13.4-38.6,32.8-2.1,67.8,17,89,11.4,23.5,26.4,71.7,65,55Z"/>
  <path class="cls-8" d="M1644.2,364.1c4.8,6.2,11.3,10.8,18.7,13.3,7.4,2.5,15.4,2.8,22.9.8,7.6-2,14.4-6.1,19.6-12,5.2-5.8,8.7-13.1,9.8-20.8,1.2-7.8,0-15.7-3.2-22.8-3.2-7.1-8.5-13.2-15.1-17.3-6.6-4.2-14.3-6.3-22.1-6.1-7.8.2-15.4,2.6-21.8,7.1-8.8,6.5-14.7,16.2-16.3,27-1.7,10.8,1,21.9,7.5,30.7Z"/>
  <path id="ponytail" class="cls-4" d="M1654.4,329.5c-5.7-32.5,24.9-57.5,65.9-45.4,40.9,12.1,19.3,48.5,10.9,77.5-8.4,29.1,13.7,56.8,22.8,34.6,9.2-22.1-6.3-29.1-6.3-29.1,0,0,43.4,11.3,3.1,60.5-40.4,49.2-76.9-5.1-67-37.2,8-25.7-24-30.3-29.3-61Z"/>
  <path class="cls-4" d="M1613.5,341.8c-18.7-9.7-50.3-17.7-68.3,12.7-8.5,14.5-5.2,33.9-5.2,33.9l55,3.6,18.5-50.3Z"/>
  <path class="cls-4" d="M1533.5,378.8c-.3,0-.6-.2-.8-.4-.2-.2-.3-.6-.3-.9,0-.8,1.4-20.3,13.1-32.5,28.4-29.6,61.6-4.8,71,3.1.2.2.3.5.3.8,0,.3,0,.6-.3.8-.2.2-.5.4-.8.4-.3,0-.6,0-.8-.2-9.1-7.9-40.9-31.4-67.6-3.3-11.1,11.6-12.5,30.8-12.5,31s0,.3-.1.5c0,.2-.2.3-.3.4-.1.1-.3.2-.4.2-.2,0-.3,0-.5,0Z"/>
  <path class="cls-17" d="M1602.2,426.4c-.2,7.6-3,14.9-8,20.7-6.7,7.9-14.5,4-16.1-4.8-1.6-7.8,0-21.3,8.4-26,8.4-4.7,15.7,1.3,15.6,10.1Z"/>
  <path class="cls-4" d="M1593.6,795.3s2.6,281.8,26.9,438.8c19.7,126.8,56.1,420.1,56.1,420.1h55.2s5.4-283.1-4.8-408.6c-25.2-317.4,40-376.8-12.7-450.3h-120.7Z"/>
  <path class="cls-11" d="M1593.6,795.3s2.6,281.8,26.9,438.8c19.7,126.8,56.1,420.1,56.1,420.1h55.2s5.4-283.1-4.8-408.6c-25.2-317.4,40-376.8-12.7-450.3h-120.7Z"/>
  <path class="cls-12" d="M1622.6,923.1c19.3,85,3.9,219-6.7,278-11.2-89.6-16.8-205.6-19.7-290.7,10-16.2,19.5-17.3,26.3,12.8Z"/>
  <path class="cls-8" d="M1669,1655.2h70.2l3.7-24.7-74.3-2.5.4,27.2Z"/>
  <path class="cls-8" d="M1689.1,557.3c6.6-13.2,42.1-21.5,61.6-21.4l14.5,64.7s-38.6,57.6-54.8,51.5c-19-7-35.4-66.4-21.3-94.8Z"/>
  <path class="cls-13" d="M1689.1,557.3c6.6-13.2,42.1-21.5,61.6-21.4l14.5,64.7s-38.6,57.6-54.8,51.5c-19-7-35.4-66.4-21.3-94.8Z"/>
  <path class="cls-8" d="M1648.1,1639.4c0-.1.1-.3.1-.5s0-.3-.1-.5c0-.2-.2-.3-.4-.4-.2,0-.4-.1-.6,0-2,.3-19.9,3.2-22.3,8.3-.3.5-.4,1-.4,1.5s.1,1.1.4,1.5c.4.8,1,1.4,1.7,1.9.7.5,1.5.8,2.4.9,5.9.6,14.5-7.6,18.8-12.5h.3ZM1626.7,1646.8c1.6-2.7,10.9-5.2,18-6.5-6.4,6.5-12,10.1-15.3,9.7-.6,0-1.1-.3-1.6-.6-.5-.3-.9-.8-1.1-1.3-.1-.2-.2-.4-.2-.6s0-.4.2-.6c0,0,0,0,0,0Z"/>
  <path class="cls-8" d="M1648.1,1639.4c0-.1.1-.3.1-.5s0-.3-.1-.5c-.3-.3-7.4-8.6-14-9.1-1,0-1.9,0-2.8.3-.9.3-1.7.8-2.4,1.5-2,1.8-1.8,3.3-1.3,4.3,2.1,4.2,14.9,5.6,20.1,4.5.1,0,.2-.1.4-.2,0-.1.1-.2.2-.4ZM1629.2,1633.2c.2-.3.5-.6.8-.9.5-.5,1.1-.8,1.8-1.1.7-.2,1.4-.3,2-.2,4.5,1.1,8.5,3.6,11.5,7.1-5.8.5-15-1.3-16.3-3.8,0-.2-.1-.4,0-.6,0-.2,0-.4.2-.6Z"/>
  <path class="cls-17" d="M1690.3,1622.2l-37,16.5-16.5-34.5-21.5-45.1-2.6-5.2,37-16.5,2.8,5.9,20.9,43.7,16.8,35.2Z"/>
  <path class="cls-19" d="M1673.4,1587l-36.6,17.2-21.5-45.1,37.3-15.8,20.9,43.7Z"/>
  <path class="cls-4" d="M1550.2,795.3s-118.1,295-86.1,433.6c29,125.5,156.9,363.1,156.9,363.1l49.6-24.9s-79.1-286.8-87.7-349.1c-16.7-121.2,90.6-292.3,90.6-422.6h-123.3Z"/>
  <path class="cls-11" d="M1550.2,795.3s-118.1,295-86.1,433.6c29,125.5,156.9,363.1,156.9,363.1l49.6-24.9s-79.1-286.8-87.7-349.1c-16.7-121.2,90.6-292.3,90.6-422.6h-123.3Z"/>
  <path class="cls-4" d="M1646.7,1633.5l36.7-26.8c.6-.5,1.4-.7,2.2-.7.8,0,1.5.4,2.1,1l25.3,26.1c.6.7,1.1,1.5,1.4,2.4.3.9.4,1.8.3,2.7,0,.9-.4,1.8-.8,2.6-.5.8-1.1,1.5-1.8,2-13,9.1-19.7,12.9-35.8,24.7-9.9,7.3-29.7,23.3-43.5,33.3-13.7,10-24.1-3.1-19.3-8.4,21.6-24.2,26.2-39.2,29.5-52.9.5-2.4,1.9-4.5,3.8-6Z"/>
  <path class="cls-8" d="M1617.8,1602.4l63.9-29.3-8.2-26.1-68.4,31.3,12.7,24.1Z"/>
  <path class="cls-8" d="M1581.5,554.2c-5.3-13.8-51.4-29.1-74.6-33.9l-10.2,76.2s37.8,54.6,54.4,50.1c19.6-5.3,41.8-62.8,30.4-92.3Z"/>
  <path class="cls-13" d="M1581.5,554.2c-5.3-13.8-51.4-29.1-74.6-33.9l-10.2,76.2s37.8,54.6,54.4,50.1c19.6-5.3,41.8-62.8,30.4-92.3Z"/>
  <path class="cls-8" d="M1530.9,550.3s-19.3,6.8,19.3,245h164.2c-2.8-67.1-2.8-108.4,29-246.2-23-4.8-46.3-7.8-69.8-9.2-24.8-1.8-49.7-1.8-74.6,0-31.8,2.8-68.1,10.4-68.1,10.4Z"/>
  <path class="cls-13" d="M1530.9,550.3s-19.3,6.8,19.3,245h164.2c-2.8-67.1-2.8-108.4,29-246.2-23-4.8-46.3-7.8-69.8-9.2-24.8-1.8-49.7-1.8-74.6,0-31.8,2.8-68.1,10.4-68.1,10.4Z"/>
  <path class="cls-8" d="M1716.9,785.6l7.4,14.5c.6,1.2-.8,2.3-2.7,2.3h-172.3c-1.5,0-2.7-.7-2.8-1.7l-1.5-14.5c0-1,1.2-1.9,2.8-1.9h166.1c.5,0,1.1,0,1.6.2.5.2.9.6,1.3,1.1Z"/>
  <path class="cls-16" d="M1716.9,785.6l7.4,14.5c.6,1.2-.8,2.3-2.7,2.3h-172.3c-1.5,0-2.7-.7-2.8-1.7l-1.5-14.5c0-1,1.2-1.9,2.8-1.9h166.1c.5,0,1.1,0,1.6.2.5.2.9.6,1.3,1.1Z"/>
  <path class="cls-4" d="M1694.7,804.4h4.5c.9,0,1.6-.5,1.5-1l-2.1-19.4c0-.6-.8-1-1.7-1h-4.5c-.9,0-1.6.4-1.5,1l2.1,19.4c0,.4.7,1,1.7,1Z"/>
  <path class="cls-4" d="M1586.6,804.4h4.4c.9,0,1.5-.5,1.5-1l-2.1-19.4c0-.6-.8-1-1.7-1h-4.4c-.9,0-1.5.4-1.5,1l2.1,19.4c0,.4.8,1,1.7,1Z"/>
</svg>