<?xml version="1.0" encoding="UTF-8"?>
<svg id="Layer_1" data-name="Layer 1" xmlns="http://www.w3.org/2000/svg" version="1.1" viewBox="0 0 2149 1559">
  <defs>
    <style>
      .cls-1 {
        fill: #f5f5f5;
      }
      .cls-2 {
        fill: #407bff;
      }
      .cls-3 {
        fill: #ebebeb;
      }
      .cls-4 {
        fill: #263238;
      }
      .cls-5 {
        fill: #fff;
        opacity: .2;
        isolation: isolate;
      }
      .cls-6 {
        fill: #fafafa;
      }
      .cls-7 {
        fill: #e0e0e0;
      }
      .cls-8 {
        fill: #FFFFFF;
      }
      .cls-9 {
        opacity: .8;
      }
      .cls-10 {
        fill: #000;
      }
      .cls-11 {
        fill: #000;
      }
      .cls-12 {
        fill: #000;
        opacity: .5;
      }
      .cls-13 {
        fill: #f0f0f0;
      }
      .cls-14 {
        fill: #263238;
        opacity: .3;
        isolation: isolate;
      }
      .cls-15 {
        fill: #fff;
        opacity: .3;
        isolation: isolate;
      }
      .cls-16 {
        fill: #263238;
        opacity: .4;
        isolation: isolate;
      }
      .cls-17 {
        fill: #EEF4FC;
      }
      .cls-18 {
        fill: #e6e6e6;
      }
      .cls-19 {
        fill: #e6e6e6;
      }
      .cls-20 {
        fill: #000;
        isolation: isolate;
      }
      .cls-21 {
        fill: #fff;
        opacity: .4;
        isolation: isolate;
      }
      .cls-22 {
        opacity: .1;
      }
      .cls-23 {
        fill: #263238;
        opacity: .1;
        stroke: #263238;
        stroke-linecap: round;
        stroke-linejoin: round;
      }
      .cls-24 {
        fill: #000;
        opacity: .2;
      }
      .cls-25 {
        opacity: .3;
      }
      .cls-26 {
        fill: none;
        stroke: #263238;
        stroke-linecap: round;
        stroke-linejoin: round;
      }
      /* Animation styles */
      @keyframes progress {
        0% {
          transform: translateX(0%);
        }
        100% {
          transform: translateX(4%);
        }
      }
      @keyframes upAndDown {
        0%, 100% {
          transform: translateY(0);
        }
        50% {
          transform: translateY(-20px);
        }
      }
      @keyframes pulse {
        100% {
          transform: scale(1);
        }
        99.5% {
          transform: scale(1.005);
        }
      }
      #progressbar {
        animation: progress 4s linear infinite;
      }
      #video1, #video2, #video3, #video4 {
        animation: upAndDown 2s linear infinite;
      }
      #speakers, #speaker2 {
        animation: pulse 1.5s infinite;
      }
    </style>
  </defs>
  <path class="cls-19" d="M1024.6,1215.5H194.7c-6.5,0-12.7-2.6-17.3-7.2s-7.2-10.8-7.2-17.3V24.3c0-6.5,2.7-12.6,7.3-17.2C182.1,2.6,188.3,0,194.7,0h829.9c6.5,0,12.7,2.6,17.3,7.2,4.6,4.6,7.2,10.8,7.2,17.3v1166.4c0,6.5-2.6,12.7-7.2,17.3-4.6,4.6-10.8,7.2-17.3,7.2ZM194.7.9c-6.2,0-12.2,2.5-16.6,6.9-4.4,4.4-6.9,10.4-6.9,16.6v1166.6c0,6.2,2.5,12.2,6.9,16.6,4.4,4.4,10.4,6.9,16.6,6.9h829.9c6.2,0,12.2-2.5,16.6-6.9s6.9-10.4,6.9-16.6V24.3c0-6.2-2.5-12.2-6.9-16.6-4.4-4.4-10.3-6.9-16.6-6.9H194.7Z"/>
  <path class="cls-19" d="M1954.3,1215.5h-829.9c-6.5,0-12.7-2.6-17.3-7.2-4.6-4.6-7.2-10.8-7.2-17.3V24.3c0-6.5,2.7-12.6,7.2-17.2,4.6-4.6,10.8-7.1,17.2-7.1h829.9c6.5,0,12.7,2.6,17.2,7.1,4.6,4.6,7.2,10.7,7.2,17.2v1166.6c0,6.5-2.6,12.7-7.2,17.3-4.6,4.6-10.8,7.2-17.3,7.2ZM1124.4.9c-6.2,0-12.2,2.5-16.6,6.9-4.4,4.4-6.9,10.4-6.9,16.6v1166.6c0,6.2,2.5,12.2,6.9,16.6s10.3,6.9,16.6,6.9h829.9c6.2,0,12.2-2.5,16.6-6.9,4.4-4.4,6.9-10.4,6.9-16.6V24.3c0-6.2-2.5-12.2-6.9-16.6-4.4-4.4-10.4-6.9-16.6-6.9h-829.9Z"/>
  <path class="cls-7" d="M408.3,1433.3h-177.1v1.1h177.1v-1.1Z"/>
  <path class="cls-7" d="M769.3,1424.7h-177.6v1.1h177.6v-1.1Z"/>
  <path class="cls-7" d="M1000.5,1424.7h-43v1.1h43v-1.1Z"/>
  <path class="cls-7" d="M570.9,1461.4h-198.8v1.1h198.8v-1.1Z"/>
  <path class="cls-7" d="M1258.4,1432.7h-92.8v1.1h92.8v-1.1Z"/>
  <path class="cls-7" d="M1416.8,1432.7h-120v1.1h120v-1.1Z"/>
  <path class="cls-7" d="M1995.7,1450.9h-268.4v1.1h268.4v-1.1Z"/>
  <path class="cls-7" d="M2149,1391.1H0v1.1h2149v-1.1Z"/>
  <path class="cls-7" d="M358,178.8h-7.7v603.3h7.7V178.8Z"/>
  <path class="cls-7" d="M839.6,178.8h-7.7v603.3h7.7V178.8Z"/>
  <path class="cls-3" d="M869.9,216.7H319.9l-11.6-27.1h573.1l-11.6,27.1Z"/>
  <path class="cls-3" d="M869.9,253.9H319.9l-11.6-27.1h573.1l-11.6,27.1Z"/>
  <path class="cls-3" d="M869.9,291.1H319.9l-11.6-27.1h573.1l-11.6,27.1Z"/>
  <path class="cls-3" d="M869.9,328.2H319.9l-11.6-27.1h573.1l-11.6,27.1Z"/>
  <path class="cls-3" d="M869.9,365.4H319.9l-11.6-27.1h573.1l-11.6,27.1Z"/>
  <path class="cls-3" d="M869.9,402.6H319.9l-11.6-27.1h573.1l-11.6,27.1Z"/>
  <path class="cls-3" d="M869.9,439.8H319.9l-11.6-27.1h573.1l-11.6,27.1Z"/>
  <path class="cls-3" d="M869.9,476.9H319.9l-11.6-27.1h573.1l-11.6,27.1Z"/>
  <path class="cls-3" d="M869.9,514.1H319.9l-11.6-27.1h573.1l-11.6,27.1Z"/>
  <path class="cls-3" d="M869.9,551.3H319.9l-11.6-27.1h573.1l-11.6,27.1Z"/>
  <path class="cls-3" d="M869.9,588.4H319.9l-11.6-27.1h573.1l-11.6,27.1Z"/>
  <path class="cls-3" d="M869.9,625.6H319.9l-11.6-27.1h573.1l-11.6,27.1Z"/>
  <path class="cls-3" d="M869.9,662.8H319.9l-11.6-27.1h573.1l-11.6,27.1Z"/>
  <path class="cls-3" d="M869.9,700H319.9l-11.6-27.1h573.1l-11.6,27.1Z"/>
  <path class="cls-3" d="M869.9,737.2H319.9l-11.6-27.1h573.1l-11.6,27.1Z"/>
  <path class="cls-3" d="M869.9,774.3H319.9l-11.6-27.1h573.1l-11.6,27.1Z"/>
  <path class="cls-7" d="M881.5,774.3H308.3v15.5h573.1v-15.5Z"/>
  <path class="cls-7" d="M901.5,155.7H288.4v36.1h613.1v-36.1Z"/>
  <path class="cls-7" d="M294.7,519.2c-1.7,0-3.2-.7-4.4-1.8-1.2-1.2-1.8-2.8-1.8-4.4v-210.6c0-1.7.7-3.2,1.8-4.4s2.8-1.8,4.4-1.8c1.6,0,3.2.7,4.4,1.8,1.2,1.2,1.8,2.7,1.8,4.4v210.6c0,1.6-.7,3.2-1.8,4.4-1.2,1.2-2.7,1.8-4.4,1.8Z"/>
  <path class="cls-7" d="M296.9,184.6h-4.5v125.1h4.5v-125.1Z"/>
  <path class="cls-19" d="M1881.9,996h-325.8v350.7h325.8v-350.7Z"/>
  <path class="cls-19" d="M1931.7,969.9h-41v422.3h41v-422.3Z"/>
  <path class="cls-6" d="M1634.7,1023.6h-26.7v131.1h26.7v-131.1Z"/>
  <path class="cls-1" d="M1745.4,1023.6h-26.7v131.1h26.7v-131.1Z"/>
  <path class="cls-1" d="M1661.3,1032.8h-26.7v121.8h26.7v-121.8Z"/>
  <path class="cls-6" d="M1718.6,1032.8h-26.7v121.8h26.7v-121.8Z"/>
  <path class="cls-3" d="M1691.9,1023.6h-17.2v131.1h17.2v-131.1Z"/>
  <path class="cls-6" d="M1674.8,1032.8h-13.4v121.8h13.4v-121.8Z"/>
  <path class="cls-3" d="M1772.1,1023.6h-26.7v131.1h26.7v-131.1Z"/>
  <path class="cls-19" d="M1798.8,1032.8h-26.7v121.8h26.7v-121.8Z"/>
  <path class="cls-19" d="M1856.1,1032.8h-26.7v121.8h26.7v-121.8Z"/>
  <path class="cls-6" d="M1829.4,1023.6h-17.2v131.1h17.2v-131.1Z"/>
  <path class="cls-3" d="M1812.1,1032.8h-13.4v121.8h13.4v-121.8Z"/>
  <path class="cls-6" d="M1869.4,1026.7h-13.4v128h13.4v-128Z"/>
  <path class="cls-6" d="M1842.7,1330.3h26.7v-131h-26.7v131Z"/>
  <path class="cls-6" d="M1732,1330.3h26.7v-131h-26.7v131Z"/>
  <path class="cls-13" d="M1816,1330.3h26.7v-121.8h-26.7v121.8Z"/>
  <path class="cls-3" d="M1758.7,1330.3h26.7v-121.8h-26.7v121.8Z"/>
  <path class="cls-6" d="M1785.4,1330.3h17.2v-131h-17.2v131Z"/>
  <path class="cls-1" d="M1802.6,1330.3h13.4v-121.8h-13.4v121.8Z"/>
  <path class="cls-3" d="M1705.3,1330.3h26.7v-131h-26.7v131Z"/>
  <path class="cls-1" d="M1678.6,1330.3h26.7v-121.8h-26.7v121.8Z"/>
  <path class="cls-19" d="M1621.3,1330.3h26.7v-121.8h-26.7v121.8Z"/>
  <path class="cls-6" d="M1648,1330.3h17.2v-131h-17.2v131Z"/>
  <path class="cls-6" d="M1590.7,1330.3h17.2v-131h-17.2v131Z"/>
  <path class="cls-3" d="M1665.3,1330.3h13.4v-121.8h-13.4v121.8Z"/>
  <path class="cls-13" d="M1608,1330.3h13.4v-128h-13.4v128Z"/>
  <path class="cls-13" d="M1880.3,969.9h-334.5v398.6h323.6v23.7h21.8v-422.3h-10.8ZM1869.4,1330.3h-303v-153.7h303v153.7ZM1869.4,1154.8h-303v-146.7h303v146.7Z"/>
  <path class="cls-19" d="M1229.8,1346.7h325.8v-350.7h-325.8v350.7Z"/>
  <path class="cls-19" d="M1242.3,1392.2h41v-27.9h-41v27.9Z"/>
  <path class="cls-6" d="M1517.9,1154.7h26.7v-131.1h-26.7v131.1Z"/>
  <path class="cls-1" d="M1407.2,1154.7h26.7v-131.1h-26.7v131.1Z"/>
  <path class="cls-1" d="M1491.2,1154.7h26.7v-121.8h-26.7v121.8Z"/>
  <path class="cls-6" d="M1433.9,1154.7h26.7v-121.8h-26.7v121.8Z"/>
  <path class="cls-3" d="M1460.6,1154.7h17.2v-131.1h-17.2v131.1Z"/>
  <path class="cls-6" d="M1477.8,1154.7h13.4v-121.8h-13.4v121.8Z"/>
  <path class="cls-3" d="M1398.1,1154.7h26.7v-131.1h-26.7v131.1Z"/>
  <path class="cls-19" d="M1371.4,1154.7h26.7v-121.8h-26.7v121.8Z"/>
  <path class="cls-19" d="M1314.2,1154.7h26.7v-121.8h-26.7v121.8Z"/>
  <path class="cls-6" d="M1340.8,1154.7h17.2v-131.1h-17.2v131.1Z"/>
  <path class="cls-3" d="M1358,1154.7h13.4v-121.8h-13.4v121.8Z"/>
  <path class="cls-1" d="M1300.8,1154.7h13.4v-128h-13.4v128Z"/>
  <path class="cls-6" d="M1314.9,1199.2h-26.7v131h26.7v-131Z"/>
  <path class="cls-6" d="M1425.6,1199.2h-26.7v131h26.7v-131Z"/>
  <path class="cls-1" d="M1341.6,1208.5h-26.7v121.8h26.7v-121.8Z"/>
  <path class="cls-3" d="M1398.9,1208.5h-26.7v121.8h26.7v-121.8Z"/>
  <path class="cls-6" d="M1372.2,1199.2h-17.2v131h17.2v-131Z"/>
  <path class="cls-1" d="M1355,1208.5h-13.4v121.8h13.4v-121.8Z"/>
  <path class="cls-3" d="M1434.7,1199.2h-26.7v131h26.7v-131Z"/>
  <path class="cls-1" d="M1461.4,1208.5h-26.7v121.8h26.7v-121.8Z"/>
  <path class="cls-19" d="M1518.7,1208.5h-26.7v121.8h26.7v-121.8Z"/>
  <path class="cls-6" d="M1492,1199.2h-17.2v131h17.2v-131Z"/>
  <path class="cls-6" d="M1545.8,1199.2h-17.2v131h17.2v-131Z"/>
  <path class="cls-3" d="M1474.8,1208.5h-13.4v121.8h13.4v-121.8Z"/>
  <path class="cls-3" d="M1532.1,1202.4h-13.4v127.9h13.4v-127.9Z"/>
  <path class="cls-13" d="M1220.6,969.9v422.3h21.8v-23.7h323.6v-398.6h-345.4ZM1242.5,1176.6h303v153.7h-303.1v-153.7ZM1242.5,1008.1h303v146.7h-303.1v-146.7Z"/>
  <path class="cls-3" d="M402.5,1252.5s-31.2-147.8,25.8-227.8c57-80-51.6-.9-64,74,0,0-18.7-134,36.6-228.3,55.3-94.3-48.2-17-57.1,80.2,0,0-16.9-119.6,8.6-186.8s-18.8-24-35.8,18.1c-17,42.1,5.3,146.4,5.3,146.4,0,0-44.3-192.9-86.3-177.5-41.9,15.3,62.7,141.8,77.4,207.5,0,0-49.5-88.5-87-70.1-37.5,18.4,58.2,27.5,101.9,159.5l15.4,61.8s-45.7-87.3-75.5-59.7c-29.7,27.6,88.2,75.1,115.7,207.4l19-4.8Z"/>
  <path class="cls-3" d="M293.7,1297.7h214.9v47.3c0,12.5-5,24.6-13.8,33.4-8.9,8.9-20.9,13.8-33.4,13.8h-120.3c-12.5,0-24.6-5-33.4-13.8-8.9-8.9-13.8-20.9-13.8-33.4v-47.3Z"/>
  <path class="cls-1" d="M518.5,1243.1h-234.8c-10,0-18.1,8.1-18.1,18.1v48.5c0,10,8.1,18.1,18.1,18.1h234.8c10,0,18.1-8.1,18.1-18.1v-48.5c0-10-8.1-18.1-18.1-18.1Z"/>
  <path class="cls-1" d="M396.4,1261s-6.6-186.4-98.9-265.3c-92.3-79,61.4-16.4,98.9,69.6,0,0-17.5-166.1-111.7-262.6-94.2-96.4,52.6-34.4,92.1,79.2,0,0-15.4-148.3-65.8-221.2-50.4-72.9,15.3-34.4,48.2,11.1,32.9,45.5,37.3,176.9,37.3,176.9,0,0-4.3-244.2,50.4-238.3,54.7,5.9-32.9,188.4-30.7,271.5,0,0,32.9-120.7,83.3-109.9,50.5,10.9-61.4,50.4-74.6,221.4v78.7s28.5-118.1,72.4-94c43.9,24.1-83.3,116-76.8,282.9h-24.2Z"/>
  <path class="cls-3" d="M1833.2,160h-255.7v381.2h255.7V160Z"/>
  <path class="cls-1" d="M1815.6,186.3h-220.4v328.6h220.4V186.3Z"/>
  <path class="cls-7" d="M1758,306c5.6-23.8-9.1-47.6-32.9-53.2-23.8-5.6-47.6,9.1-53.2,32.9s9.1,47.6,32.9,53.2c23.8,5.6,47.6-9.1,53.2-32.9Z"/>
  <path class="cls-3" d="M1670.8,467.8l64.7-77.4,23.8,77.4h-88.4Z"/>
  <path class="cls-3" d="M1639.6,240.9c-30.9,50.4-8.6,113,26.6,154.1,5.4,6.3,14.5-2.8,9.1-9.1-31.4-36.7-52.3-93.3-24.6-138.5,4.3-7.1-6.8-13.6-11.1-6.5Z"/>
  <path class="cls-3" d="M1769.8,207.2l-23.6,24.2,23.6,20.2,21.5-22.2-21.5-22.2Z"/>
  <path class="cls-7" d="M1766.6,908.1h-113.3l28.2-45.1h68.2v12.9h-61.1l-12.1,19.3h90v12.9Z"/>
  <path class="cls-7" d="M1738.4,867.3l-12.7,2,3.9,25.7,12.8-2-4-25.7Z"/>
  <path class="cls-3" d="M1774.5,871.6l-15,27.7,11.3,6.1,15-27.7-11.3-6.1Z"/>
  <path class="cls-7" d="M1842.7,883.2l-69.5,2.1c-2.2.2-4.5-.5-6.2-2-1.7-1.4-2.8-3.5-3-5.8v-4.3c.2-2.2,1.3-4.3,3.1-5.7,1.7-1.4,4-2.1,6.2-1.9l69.5,2.1c2.2,0,4.2.7,5.8,2.1,1.6,1.4,2.6,3.4,2.8,5.6-.1,2.1-1.1,4.2-2.7,5.6-1.6,1.4-3.7,2.2-5.9,2.1Z"/>
  <path class="cls-19" d="M1626.8,950.1l34.1-17.6v-10l-34.1-17.6v45.3Z"/>
  <path class="cls-7" d="M1626.8,904.9h-4.7v45.3h4.7v-45.3Z"/>
  <path class="cls-19" d="M1808.4,962.9l-53.3-27.6v-15.7l53.3-27.6v70.9Z"/>
  <path class="cls-7" d="M1815.8,892h-7.4v70.9h7.4v-70.9Z"/>
  <path class="cls-3" d="M1772.7,969.1h-97c-9.1,0-17.9-3.6-24.3-10.1-6.4-6.4-10.1-15.2-10.1-24.3v-8.6c0-9.1,3.6-17.9,10.1-24.3,6.5-6.4,15.2-10.1,24.3-10.1h97v77.4Z"/>
  <path class="cls-1" d="M1074.5,1558.7c460.2,0,833.3-21.8,833.3-48.6s-373.1-48.7-833.3-48.7-833.3,21.8-833.3,48.7,373.1,48.6,833.3,48.6Z"/>
  <path class="cls-4" d="M1274.4,997h-26.8l-42.9,508.5c-.1,1.3,0,2.7.5,4,.4,1.3,1.1,2.4,2.1,3.4.9,1,2,1.8,3.3,2.3,1.2.5,2.6.8,3.9.8,2.4,0,4.7-.9,6.5-2.5,1.8-1.6,2.9-3.8,3.2-6.1l50.4-510.5Z"/>
  <path class="cls-14" d="M1274.4,997h-26.8l-42.9,508.5c-.1,1.3,0,2.7.5,4,.4,1.3,1.1,2.4,2.1,3.4.9,1,2,1.8,3.3,2.3,1.2.5,2.6.8,3.9.8,2.4,0,4.7-.9,6.5-2.5,1.8-1.6,2.9-3.8,3.2-6.1l50.4-510.5Z"/>
  <path class="cls-4" d="M629.8,993.4h-26.9l-43,512.3c-.1,1.3,0,2.7.5,4,.4,1.3,1.1,2.4,2,3.4.9,1,2,1.8,3.3,2.3,1.2.5,2.6.8,3.9.8,2.4,0,4.7-.9,6.5-2.5s2.9-3.8,3.2-6.1l50.5-514.2Z"/>
  <path class="cls-14" d="M629.8,993.4h-26.9l-43,512.3c-.1,1.3,0,2.7.5,4,.4,1.3,1.1,2.4,2,3.4.9,1,2,1.8,3.3,2.3,1.2.5,2.6.8,3.9.8,2.4,0,4.7-.9,6.5-2.5s2.9-3.8,3.2-6.1l50.5-514.2Z"/>
  <path class="cls-4" d="M748.8,993.4h26.8l.8,513.8c0,2.6-1,5.1-2.9,6.9s-4.3,2.9-6.9,2.9c-2.6,0-5-1-6.8-2.8-1.8-1.8-2.9-4.2-2.9-6.8l-8.1-514Z"/>
  <path class="cls-5" d="M748.8,993.4h26.8l.8,513.8c0,2.6-1,5.1-2.9,6.9s-4.3,2.9-6.9,2.9c-2.6,0-5-1-6.8-2.8-1.8-1.8-2.9-4.2-2.9-6.8l-8.1-514Z"/>
  <path class="cls-4" d="M1384.8,993.4h26.9l.8,513.8c0,2.6-1,5.1-2.9,6.9-1.8,1.8-4.3,2.9-6.9,2.9-2.6,0-5-1-6.8-2.8-1.8-1.8-2.9-4.2-2.9-6.8l-8.1-514Z"/>
  <path class="cls-5" d="M1411.6,993.4l.8,513.8c0,2.6-1,5.1-2.9,6.9-1.8,1.8-4.3,2.9-6.9,2.9-2.6,0-5-1-6.8-2.8-1.8-1.8-2.9-4.2-2.9-6.8l-8.1-514h26.9Z"/>
  <path class="cls-2" d="M594.9,1089.7l816.1-6.1v-90.2h-808.1l-8,96.3Z"/>
  <path class="cls-15" d="M748.8,994.1l1.5,94.5-155.4,1.2,8-96.3,145.8.6Z"/>
  <path class="cls-4" d="M1442.5,971.7c0-12.1-4.6-22-10.2-22h-841.6c-5.6,0-10.1,9.9-10.1,22,0,12.2,4.6,22,10.1,22h841.6c5.6,0,10.1-9.9,10.2-22Z"/>
  <path class="cls-14" d="M1442.5,971.7c0-12.1-4.6-22-10.2-22h-841.6c-5.6,0-10.1,9.9-10.1,22,0,12.2,4.6,22,10.1,22h841.6c5.6,0,10.1-9.9,10.2-22Z"/>
  <path class="cls-15" d="M797.9,971.7c0-12.1-4.3-22-10.1-22h-197c-5.6,0-10.1,9.9-10.1,22,0,12.2,4.6,22,10.1,22h197c5.6,0,10.1-9.9,10.1-22Z"/>
  <path class="cls-2" d="M1226.1,952h-88.4l2-9.6c9.5-25.4,57.8-25.4,57.8-25.4,12,.7,23.7,11.9,27,27.6l1.6,7.4Z"/>
  <path class="cls-4" d="M980.8,937.8h88.8l10.6-92.8h-80.6l-18.7,92.8Z"/>
  <path class="cls-4" d="M965.1,949.6h4.3v1.1h150.4v-12.9h-139l18.7-92.8h80.6l4.3-39.4c-.1-2.6-1.2-5-3.1-6.8-1.9-1.8-4.4-2.8-7-2.8h-68.9c-2.6,0-5.1,1-7,2.8-1.9,1.8-3,4.2-3.1,6.8l-30.3,144Z"/>
  <path class="cls-4" d="M980.8,937.8h88.8l9.8-85.5.8-7.3h-80.6l-18.7,92.8Z"/>
  <path class="cls-10" d="M1076.5,875.8l3.7-30.9h-93l-6.5,30.9h95.8Z"/>
  <path class="cls-4" d="M1121.8,940.5h10.6c.2,0,.5,0,.7-.1.2,0,.5-.2.6-.4.2-.2.3-.4.4-.6.1-.2.2-.5.2-.7v-10.2c0-.3,0-.5-.2-.7,0-.2-.2-.4-.4-.6-.2-.2-.4-.3-.6-.4s-.5-.1-.7-.1h-7.6c-.4,0-.9.1-1.2.4-.3.2-.6.6-.8,1l-3,10.2c0,.3,0,.6,0,.9,0,.3.2.5.4.8.2.2.4.4.7.5.3.1.6.2.8.2Z"/>
  <path class="cls-4" d="M1107.2,940.5h10.6c.5,0,1-.2,1.4-.5.4-.3.6-.8.6-1.3v-10.2c0-.5-.2-1-.6-1.3-.4-.3-.9-.5-1.4-.5h-7.6c-.4,0-.8.1-1.2.4-.3.2-.6.6-.8,1l-3,10.2c0,.3,0,.6,0,.9,0,.3.2.5.4.8.2.2.4.4.7.5.3.1.6.2.8.1Z"/>
  <path class="cls-4" d="M1092.7,940.5h10.5c.5,0,1-.2,1.4-.5.4-.3.6-.8.6-1.3v-10.2c0-.3,0-.5-.2-.7-.1-.2-.3-.4-.5-.6-.2-.2-.4-.3-.6-.4-.2,0-.5-.1-.8-.1h-7.6c-.4,0-.8.1-1.2.4-.3.2-.6.6-.7,1l-3,10.2c0,.3,0,.6,0,.9,0,.3.2.5.4.8.2.2.4.4.7.5.3.1.6.2.9.1Z"/>
  <path class="cls-4" d="M1078.1,940.5h10.5c.5,0,1-.2,1.4-.5.4-.3.6-.8.6-1.3v-10.2c0-.3,0-.5-.2-.7-.1-.2-.3-.4-.4-.6-.2-.2-.4-.3-.6-.4-.2,0-.5-.1-.8-.1h-7.6c-.4,0-.8.1-1.2.4-.3.2-.6.6-.7,1l-3,10.2c0,.3,0,.6,0,.9,0,.3.2.5.4.8.2.2.4.4.7.5.3.1.6.2.8.1Z"/>
  <path class="cls-4" d="M1063.5,940.5h10.5c.5,0,1-.2,1.4-.5.4-.3.6-.8.6-1.3v-10.2c0-.3,0-.5-.2-.7-.1-.2-.3-.4-.5-.6-.2-.2-.4-.3-.6-.4-.2,0-.5-.1-.8-.1h-7.6c-.4,0-.8.1-1.2.4-.4.2-.6.6-.7,1l-3,10.1c0,.3,0,.6,0,.9,0,.3.2.6.4.8.2.2.4.4.7.5.3.1.6.2.9.1Z"/>
  <path class="cls-4" d="M1049,940.5h10.5c.5,0,1-.2,1.4-.5.4-.3.6-.8.6-1.3v-10.2c0-.3,0-.5-.2-.7-.1-.2-.3-.4-.4-.6-.2-.2-.4-.3-.6-.4-.2,0-.5-.1-.8-.1h-7.6c-.4,0-.8.1-1.2.4-.3.2-.6.6-.7,1l-3,10.2c0,.3,0,.6,0,.9,0,.3.2.5.4.8.2.2.4.4.7.5.3.1.6.2.8.1Z"/>
  <path class="cls-4" d="M1034.4,940.5h10.5c.5,0,1-.2,1.4-.5.4-.3.6-.8.6-1.3v-10.2c0-.3,0-.5-.2-.7-.1-.2-.3-.4-.5-.6-.2-.2-.4-.3-.6-.4-.2,0-.5-.1-.8-.1h-7.6c-.4,0-.8.1-1.2.4-.4.2-.6.6-.7,1l-3,10.2c0,.3,0,.6,0,.9,0,.3.2.5.4.8.2.2.4.4.7.5.3.1.6.2.8.1Z"/>
  <path class="cls-4" d="M1019.8,940.5h10.5c.5,0,1-.2,1.4-.5.4-.3.6-.8.6-1.3v-10.2c0-.3,0-.5-.2-.7-.1-.2-.3-.4-.4-.6-.2-.2-.4-.3-.6-.4-.2,0-.5-.1-.8-.1h-7.4c-.4,0-.8.1-1.2.4-.3.2-.6.6-.7,1l-3,10.2c0,.3,0,.6,0,.8,0,.3.2.5.4.7.2.2.4.4.7.5.2.1.5.2.8.2Z"/>
  <path class="cls-4" d="M1005.3,940.5h10.5c.5,0,1-.2,1.4-.5.4-.3.6-.8.6-1.3v-10.2c0-.3,0-.5-.2-.7-.1-.2-.3-.4-.5-.6-.2-.2-.4-.3-.6-.4-.2,0-.5-.1-.8-.1h-7.6c-.4,0-.8.1-1.2.4-.4.2-.6.6-.7,1l-3,10.2c0,.3,0,.6,0,.9,0,.3.2.5.4.8.2.2.4.4.7.5.3.1.6.2.9.1Z"/>
  <path class="cls-4" d="M990.6,940.5h10.8c.5,0,1-.2,1.4-.5.4-.3.6-.8.6-1.3v-10.2c0-.3,0-.5-.2-.7-.1-.2-.3-.4-.4-.6-.2-.2-.4-.3-.7-.4-.2,0-.5-.1-.8-.1h-7.6c-.4,0-.9.1-1.2.4-.4.2-.6.6-.8,1l-3.4,10.1c0,.3-.1.6,0,.9,0,.3.2.6.4.8.2.2.5.4.8.5.3.1.6.1.9,0Z"/>
  <path class="cls-4" d="M976.1,940.5h10.6c.5,0,1-.2,1.4-.5.4-.3.6-.8.6-1.3v-10.2c0-.3,0-.5-.2-.7-.1-.2-.3-.4-.4-.6-.2-.2-.4-.3-.6-.4-.2,0-.5-.1-.7-.1h-7.6c-.4,0-.9.1-1.2.4-.4.2-.6.6-.8,1l-3,10.2c0,.3,0,.6,0,.9,0,.3.2.5.4.8.2.2.4.4.7.5.3.1.6.2.9.1Z"/>
  <path class="cls-4" d="M961.5,940.5h10.6c.5,0,1-.2,1.4-.5.4-.3.6-.8.6-1.3v-10.2c0-.3,0-.5-.2-.7-.1-.2-.3-.4-.4-.6-.2-.2-.4-.3-.6-.4-.2,0-.5-.1-.7-.1h-7.6c-.4,0-.9.1-1.2.4-.4.2-.6.6-.8,1l-3,10.2c0,.3,0,.6,0,.9,0,.3.2.5.4.8.2.2.4.4.7.5.3.1.6.2.9.1Z"/>
  <path class="cls-4" d="M946.9,940.5h10.6c.5,0,1-.2,1.4-.5.4-.3.6-.8.6-1.3v-10.2c0-.5-.2-1-.6-1.3-.4-.3-.9-.5-1.4-.5h-7.7c-.4,0-.8.1-1.2.4-.3.2-.6.6-.7,1l-3,10.2c0,.3,0,.6,0,.9,0,.3.2.6.4.8.2.2.4.4.7.5.3.1.6.2.9.1Z"/>
  <path class="cls-4" d="M932.4,940.5h10.6c.5,0,1-.2,1.4-.5.4-.3.6-.8.6-1.3v-10.2c0-.5-.2-1-.6-1.3-.4-.3-.9-.5-1.4-.5h-7.6c-.4,0-.8.1-1.2.4-.3.2-.6.6-.7,1l-3,10.2c0,.3,0,.6,0,.9,0,.3.2.5.4.8.2.2.4.4.7.5.3.1.6.2.9.1Z"/>
  <path class="cls-4" d="M917.8,940.5h10.6c.5,0,1-.2,1.4-.5.4-.3.6-.8.6-1.3v-10.2c0-.3,0-.5-.2-.7-.1-.2-.3-.4-.4-.6-.2-.2-.4-.3-.6-.4-.2,0-.5-.1-.7-.1h-7.6c-.4,0-.8.1-1.2.4-.3.2-.6.6-.7,1l-3,10.2c0,.3,0,.6,0,.9,0,.3.2.5.4.8.2.2.4.4.7.5.3.1.5.2.8.2Z"/>
  <path class="cls-4" d="M907.2,941.6c.2,2.2,1.1,4.2,2.7,5.7,1.6,1.5,3.7,2.3,5.9,2.3h218.2c2.2,0,4.4-.7,6-2.2,1.6-1.5,2.6-3.6,2.8-5.8,0-1.1-.2-2.1-.7-3.1-.4-1-1.1-1.8-1.9-2.6-1.7-1.5-3.8-2.3-6-2.3h-218.3c-.8,0-1.6,0-2.4.3-1.8.4-3.3,1.4-4.5,2.8-1.2,1.4-1.8,3.1-1.9,4.9Z"/>
  <path class="cls-5" d="M907.2,941.6c.2,2.2,1.1,4.2,2.7,5.7,1.6,1.5,3.7,2.3,5.9,2.3h218.2c2.2,0,4.4-.7,6-2.2,1.6-1.5,2.6-3.6,2.8-5.8,0-1.1-.2-2.1-.7-3.1-.4-1-1.1-1.8-1.9-2.6-1.7-1.5-3.8-2.3-6-2.3h-218.3c-.8,0-1.6,0-2.4.3-1.8.4-3.3,1.4-4.5,2.8-1.2,1.4-1.8,3.1-1.9,4.9Z"/>
  <path class="cls-4" d="M907.2,941.6c.2,2.2,1.1,4.2,2.7,5.7,1.6,1.5,3.7,2.3,5.9,2.3h74.1c1.7-.4,3.2-1.4,4.3-2.8,1.1-1.4,1.7-3.1,1.8-4.8,0-.5,0-.9,0-1.4-.3-1.7-1.2-3.2-2.5-4.3-.6-.5-1.2-1-1.9-1.3l-1-.5c-1.1-.4-2.2-.6-3.4-.6h-73.7c-1.8.4-3.4,1.4-4.5,2.8-1.2,1.4-1.8,3.1-1.9,5Z"/>
  <path class="cls-2" d="M844.4,584.2h22.3l25.1,271.9h-22.3c-2-.2-3.8-1-5.1-2.5-1.4-1.4-2.2-3.3-2.2-5.2l-23.6-256.5c-.2-.9-.2-1.8,0-2.7.2-.9.6-1.7,1.2-2.5.6-.7,1.3-1.3,2.1-1.8.8-.4,1.7-.7,2.6-.7Z"/>
  <path class="cls-15" d="M844.4,584.2h22.3l25.1,271.9h-22.3c-2-.2-3.8-1-5.1-2.5-1.4-1.4-2.2-3.3-2.2-5.2l-23.6-256.5c-.2-.9-.2-1.8,0-2.7.2-.9.6-1.7,1.2-2.5.6-.7,1.3-1.3,2.1-1.8.8-.4,1.7-.7,2.6-.7Z"/>
  <path class="cls-2" d="M878.9,856.1h334.2c.9,0,1.8-.3,2.6-.7.8-.4,1.5-1,2.1-1.8.6-.7,1-1.6,1.2-2.5.2-.9.2-1.8,0-2.7l-23.6-256.5c0-2-.9-3.8-2.2-5.2-1.4-1.4-3.2-2.3-5.2-2.5h-334.2c-.9,0-1.8.3-2.6.7-.8.4-1.5,1-2.1,1.8-.6.7-1,1.6-1.2,2.5-.2.9-.2,1.8,0,2.7l23.6,256.5c0,2,.9,3.8,2.2,5.2,1.4,1.4,3.2,2.3,5.1,2.5Z"/>
  <path class="cls-2" d="M889,801.6h303.5l-16.8-192.4h-303.5l16.8,192.4Z"/>
  <path class="cls-4" d="M893.1,816.6h299.1c2,0,3.9-.3,5.7-1.1,1.8-.8,3.4-1.9,4.8-3.4,1.3-1.5,2.3-3.2,3-5,.6-1.9.8-3.8.6-5.8l-16.8-191.2c-.4-4.2-2.4-8-5.4-10.8-3.1-2.8-7.1-4.4-11.2-4.6h-299.1c-2,0-3.9.4-5.7,1.1-1.8.8-3.4,1.9-4.8,3.4-1.3,1.5-2.3,3.2-2.9,5-.6,1.9-.8,3.9-.6,5.8l16.7,191.2c.4,4.2,2.4,8,5.5,10.8,3.1,2.8,7.1,4.4,11.2,4.5Z"/>
  <path class="cls-2" d="M889,801.6h303.5l-16.8-192.4h-303.5l16.8,192.4Z"/>
  <path class="cls-21" d="M889,801.6h303.5l-16.8-192.4h-303.5l16.8,192.4Z"/>
  <path class="cls-2" d="M988.5,619.7l14.7,167.6h-111.5l-14.7-167.6h111.5ZM992.5,615.4h-120l.4,4.7,14.7,167.6.3,4h119.9l-.4-4.7-14.7-167.6-.3-3.9h0Z"/>
  <path class="cls-18" d="M1003,787.3h-111.3l-14.7-167.6h111.3l14.7,167.6Z"/>
  <g id="smallvideo4">
    <path class="cls-2" d="M924.5,670.9h-33.9l-3.7-42.5h33.8l3.7,42.5Z"/>
    <g class="cls-24">
      <path class="cls-11" d="M890.9,628.4h-4l2.9,33h1.1v-2.4h2.9v2.4h1.1l-2.9-33h-1.1ZM889.5,646.1l-.4-4.8h2.9l.4,4.8h-2.9ZM892.5,647.1l.4,4.8h-2.9l-.3-4.8h2.8ZM889,640.2l-.4-4.8h2.9l.4,4.8h-2.9ZM888.5,634.3l-.4-4.8h2.9l.4,4.8h-2.9ZM890.5,657.9l-.4-4.8h2.9l.4,4.8h-2.9Z"/>
    </g>
    <g class="cls-24">
      <path class="cls-11" d="M919.8,628.4h-4.3l2.9,33h1.4l-.2-2.4h2.9v2.4h1.1l-2.9-33h-.9ZM918.4,646.1l-.4-4.8h2.9l.4,4.8h-2.9ZM921.4,647.1l.4,4.8h-2.9l-.4-4.8h2.9ZM917.9,640.2l-.4-4.8h2.9l.4,4.8h-2.9ZM917.4,634.3l-.4-4.8h2.8l.4,4.8h-2.8ZM919.5,657.9l-.4-4.8h2.9l.4,4.8h-2.9Z"/>
    </g>
    <path class="cls-5" d="M918.5,661.3h-23.6s-2.9-33-2.9-33h23.6l2.9,33Z"/>
    <path class="cls-5" d="M915,645.3c.2,1.2,0,2.5-.3,3.7-.4,1.2-1,2.3-1.9,3.2-.8.9-1.9,1.7-3.1,2.1-1.2.5-2.4.7-3.7.6-2.7,0-5.2-1.1-7.2-2.9-2-1.8-3.2-4.3-3.5-6.9-.1-1.2,0-2.5.4-3.7.4-1.2,1-2.3,1.9-3.2.8-.9,1.9-1.7,3-2.1,1.2-.5,2.4-.7,3.6-.7,2.7,0,5.2,1.1,7.2,2.9,2,1.8,3.2,4.2,3.5,6.9Z"/>
    <path class="cls-18" d="M902.2,640.2l8.6,5.7-7.6,5.6-1-11.3Z"/>
  </g>
  <g id="smallvideo3">
    <path class="cls-2" d="M929.1,724.2h-33.8l-3.7-42.5h33.8l3.7,42.5Z"/>
    <g class="cls-24">
      <path class="cls-11" d="M895.6,681.7h-4l2.9,33h1.1l-.2-2.4h3v2.4h1.1l-2.9-33h-.9ZM894.2,699.4l-.4-4.8h2.9l.4,4.8h-2.9ZM897.2,700.5l.4,4.8h-2.9l-.4-4.8h2.9ZM893.7,693.5l-.4-4.8h2.9l.4,4.8h-2.9ZM893.2,687.6l-.4-4.8h2.9l.4,4.8h-2.9ZM895.2,711.2l-.4-4.8h2.9l.4,4.8h-2.9Z"/>
    </g>
    <g class="cls-24">
      <path class="cls-11" d="M924.3,681.7h-4l2.9,33h.9v-2.4h2.9l.2,2.4h1.2l-2.9-33h-1.2ZM922.9,699.4l-.4-4.8h2.9l.4,4.8h-2.9ZM925.9,700.5l.4,4.8h-2.9l-.4-4.8h2.9ZM922.4,693.5l-.4-4.8h2.9l.4,4.8h-2.9ZM921.9,687.6l-.4-4.8h2.9l.4,4.8h-2.9ZM923.9,711.2l-.4-4.8h2.9l.4,4.8h-2.9Z"/>
    </g>
    <path class="cls-5" d="M923.1,714.6h-23.6s-2.9-32.9-2.9-32.9h23.6l2.8,32.9Z"/>
    <path class="cls-5" d="M919.8,698.6c.1,1.2,0,2.5-.4,3.7-.4,1.2-1,2.3-1.9,3.2-.8.9-1.9,1.7-3,2.2-1.2.5-2.4.7-3.7.7-2.7,0-5.2-1.1-7.2-2.9-2-1.8-3.2-4.3-3.5-6.9-.2-1.2,0-2.5.3-3.7.4-1.2,1-2.3,1.9-3.2.8-.9,1.9-1.7,3.1-2.1,1.2-.5,2.4-.7,3.7-.6,2.7,0,5.2,1.1,7.2,2.9,2,1.8,3.2,4.2,3.5,6.9Z"/>
    <path class="cls-18" d="M906.9,693.5l8.6,5.6-7.6,5.7-1-11.3Z"/>
  </g>
  <g id="smallvideo1">
    <path class="cls-2" d="M968.8,670.9h-33.8l-3.7-42.5h33.9l3.7,42.5Z"/>
    <g class="cls-24">
      <path class="cls-11" d="M935.3,628.4h-4l2.9,33h1.1v-2.4h2.9l.2,2.4h1.1l-2.9-33h-1.3ZM933.9,646.1l-.4-4.8h2.9l.4,4.8h-2.9ZM936.9,647.2l.4,4.8h-2.9l-.4-4.8h2.9ZM933.4,640.2l-.4-4.8h2.9l.4,4.8h-2.9ZM932.9,634.3l-.4-4.8h2.9l.4,4.8h-2.9ZM934.9,657.9l-.4-4.8h2.9l.4,4.8h-2.9Z"/>
    </g>
    <g class="cls-24">
      <path class="cls-11" d="M964,628.4h-4l2.9,33h1.1v-2.4h2.9l.2,2.4h1.1l-2.9-33h-1.3ZM962.6,646.1l-.4-4.8h2.9l.4,4.8h-2.9ZM965.6,647.2l.4,4.8h-2.9l-.4-4.8h2.9ZM962.1,640.2l-.4-4.8h2.9l.4,4.8h-2.9ZM961.6,634.3l-.4-4.8h2.9l.4,4.8h-2.9ZM963.7,657.9l-.4-4.8h2.9l.4,4.8h-2.9Z"/>
    </g>
    <path class="cls-5" d="M962.9,661.3h-23.6s-2.9-33-2.9-33h23.6l2.9,33Z"/>
    <path class="cls-5" d="M959.4,645.3c.2,1.3,0,2.5-.3,3.7-.4,1.2-1,2.3-1.9,3.2-.9.9-1.9,1.7-3.1,2.1-1.2.5-2.4.7-3.7.6-2.7,0-5.2-1.1-7.2-2.9-2-1.8-3.2-4.2-3.5-6.9-.1-1.2,0-2.5.4-3.7.4-1.2,1-2.3,1.9-3.2.8-.9,1.9-1.7,3-2.1,1.2-.5,2.4-.7,3.6-.7,2.7,0,5.2,1.1,7.2,2.9,2,1.8,3.2,4.2,3.5,6.9Z"/>
    <path class="cls-18" d="M946.6,640.2l8.6,5.7-7.6,5.6-1-11.3Z"/>
  </g>
  <g id="smallvideo2">
    <path class="cls-2" d="M933.8,777.5h-33.9l-3.7-42.5h33.8l3.7,42.5Z"/>
    <g class="cls-24">
      <path class="cls-11" d="M900.2,735h-4l2.9,33h1.1v-2.4h2.9l.2,2.4h1.1l-2.9-33h-1.3ZM898.8,752.7l-.4-4.8h2.9l.4,4.8h-2.9ZM901.8,753.8l.4,4.8h-2.9l-.4-4.8h2.9ZM898.3,746.8l-.4-4.8h2.9l.4,4.8h-2.9ZM897.8,740.9l-.4-4.8h2.9l.4,4.8h-2.9ZM899.9,764.5l-.4-4.8h3.1l.4,4.8h-3.1Z"/>
    </g>
    <g class="cls-24">
      <path class="cls-11" d="M928.9,735h-4l2.9,33h1.1v-2.4h2.9l.2,2.4h1.1l-2.9-33h-1.3ZM927.6,752.7l-.4-4.8h2.9l.4,4.8h-2.9ZM930.6,753.8l.4,4.8h-2.9l-.4-4.8h2.9ZM927.1,746.8l-.4-4.8h2.9l.4,4.8h-2.9ZM926.6,740.9l-.4-4.8h2.9l.4,4.8h-2.9ZM928.6,764.5l-.4-4.8h2.9l.4,4.8h-2.9Z"/>
    </g>
    <path class="cls-5" d="M927.8,768h-23.6s-2.9-33-2.9-33h23.6l2.9,33Z"/>
    <path class="cls-5" d="M924.4,751.9c.2,1.3.1,2.6-.2,3.8-.4,1.2-1,2.4-1.8,3.3-.9,1-1.9,1.7-3.1,2.2-1.2.5-2.5.7-3.7.7-2.7,0-5.2-1.1-7.2-2.9-2-1.8-3.2-4.2-3.5-6.9-.1-1.2,0-2.5.4-3.7s1-2.3,1.9-3.2c.8-.9,1.9-1.7,3-2.1,1.2-.5,2.4-.7,3.6-.7,2.6,0,5.1,1,7.1,2.8,2,1.8,3.2,4.2,3.5,6.8Z"/>
    <path class="cls-18" d="M911.5,746.8l8.6,5.6-7.7,5.7-1-11.3Z"/>
  </g>
  <path class="cls-14" d="M976.3,594.8l-59.3,221.7h20l58.6-221.7h-19.3Z"/>
  <path class="cls-14" d="M1007.1,594.8l-59.3,221.7h39.5l58.6-221.7h-38.9Z"/>
  <path class="cls-4" d="M1185.1,760.1h-192.9l-10-113.9h192.9l10,113.9Z"/>
  <path class="cls-18" d="M1106.4,690.6c.4,3.1,0,6.2-.9,9.1-.9,2.9-2.5,5.6-4.6,7.9-2.1,2.3-4.6,4.1-7.4,5.3-2.8,1.2-5.9,1.8-9,1.7-6.5-.1-12.8-2.6-17.6-7-4.8-4.4-7.8-10.4-8.5-16.9-.4-3.1,0-6.2.9-9.1.9-2.9,2.5-5.6,4.6-7.9,2.1-2.3,4.6-4.1,7.5-5.3,2.8-1.2,5.9-1.8,9-1.7,6.5.1,12.8,2.6,17.6,7.1,4.8,4.4,7.8,10.5,8.5,17Z"/>
  <path class="cls-4" d="M1095.6,691.5l-21-11.5,2,23.1,19-11.6Z"/>
  <path class="cls-18" d="M1180.6,737.8h-187.7l-.3-3.7h187.7l.3,3.7Z"/>
  <path id="progressbar" class="cls-2" d="M1098.1,737.8h-105.2l-.3-3.7h105.3l.3,3.7Z"/>
  <path class="cls-18" d="M996.1,751.5h-1.8l-.6-7.1h1.8l.6,7.1Z"/>
  <path class="cls-18" d="M999.2,751.5h-1.8l-.6-7.1h1.8l.6,7.1Z"/>
  <path class="cls-18" d="M1015.5,751.5h-7.1l-.6-7.1h7.1l.6,7.1Z"/>
  <path class="cls-18" d="M1024.9,747.9l5.9-3.6.6,7.1-6.5-3.6Z"/>
  <path class="cls-18" d="M1025.2,751.5h-1.8l-.6-7.1h1.8l.6,7.1Z"/>
  <path class="cls-18" d="M1044.9,747.9l-6.5-3.6.6,7.1,5.8-3.6Z"/>
  <path class="cls-18" d="M1045.2,751.5h1.8l-.7-7.1h-1.8l.6,7.1Z"/>
  <path class="cls-18" d="M1058.1,744.2l-3.2,4.3h7.1l-4-4.3Z"/>
  <path class="cls-18" d="M1062.5,751.6v-1.8h-7.5l.2,1.8h7.3Z"/>
  <path class="cls-18" d="M1181.9,752.1h-13.8l-.7-8.6h13.7l.8,8.6ZM1169.3,750.9h11.4l-.5-6.1h-11.4l.5,6.1Z"/>
  <path class="cls-18" d="M1158.1,752.1h-2.8l-.2-2.5h1.2c0,0,.1,1.3.1,1.3h1.7v1.2Z"/>
  <path class="cls-18" d="M1164.2,752.1h-2.8v-1.2h1.5v-1.3c-.1,0,1,0,1,0l.2,2.5Z"/>
  <path class="cls-18" d="M1162.6,746.3l-.2-1.5h-1.6v-1.2h2.7l.2,2.6h-1.1Z"/>
  <path class="cls-18" d="M1154.8,746.3l-.3-2.7h2.9v1.2h-1.6v1.4c.1,0-1,0-1,0Z"/>
  <path class="cls-23" d="M1018.3,646.2h21.8l-25.8,113.9h-22l26.1-113.9Z"/>
  <path class="cls-23" d="M1126.7,760.1l26.1-113.9h21.8l-25.8,113.9h-22.1Z"/>
  <g class="cls-22">
    <path class="cls-18" d="M1176.3,660.1l-16.9,74-.9,3.7-1.5,6.4-1.4,5.9-2.3,10h5.7l3.6-15.9,1.5-6.4.8-3.7,12.8-56.6"/>
    <path class="cls-26" d="M1176.3,660.1l-16.9,74-.9,3.7-1.5,6.4-1.4,5.9-2.3,10h5.7l3.6-15.9,1.5-6.4.8-3.7,12.8-56.6"/>
  </g>
  <path class="cls-2" d="M1175.1,646.2h-192.9l-.9-10.3h192.8l.9,10.3Z"/>
  <path class="cls-18" d="M995.9,641.2c0,.4,0,.8-.1,1.2-.1.4-.3.7-.6,1-.3.3-.6.5-1,.7-.4.2-.8.2-1.2.2-.9,0-1.7-.3-2.3-.9-.6-.6-1-1.4-1.1-2.3,0-.4,0-.8.1-1.2.1-.4.3-.7.6-1,.3-.3.6-.5,1-.7.4-.2.8-.2,1.2-.2.9,0,1.7.3,2.3.9.6.6,1,1.4,1.1,2.2Z"/>
  <path class="cls-18" d="M1005.5,641.2c0,.4,0,.8-.1,1.2-.1.4-.3.7-.6,1-.3.3-.6.5-1,.7-.4.2-.8.2-1.2.2-.9,0-1.7-.3-2.3-.9-.6-.6-1-1.4-1.1-2.3,0-.4,0-.8.1-1.2.1-.4.3-.7.6-1,.3-.3.6-.5,1-.7.4-.2.8-.2,1.2-.2.9,0,1.7.3,2.3.9.6.6,1,1.4,1.1,2.2Z"/>
  <path class="cls-18" d="M1015,641.2c0,.4,0,.8-.1,1.2s-.3.7-.6,1c-.3.3-.6.5-1,.7-.4.2-.8.2-1.2.2-.9,0-1.7-.3-2.3-.9-.6-.6-1-1.4-1.1-2.2,0-.4,0-.8.1-1.2s.3-.7.6-1c.3-.3.6-.5,1-.7.4-.2.8-.2,1.2-.2.9,0,1.7.3,2.3.9.6.6,1,1.4,1.1,2.3Z"/>
  <path class="cls-2" d="M812.8,949.7h-110.2l-28.8-329.2h110.2l28.8,329.2Z"/>
  <path class="cls-15" d="M812.8,949.7h-110.2l-28.8-329.2h110.2l28.8,329.2Z"/>
  <path class="cls-2" d="M823.7,949.7h-110.2l-28.8-329.2h110.2l28.8,329.2Z"/>
  <g id="speakers">
    <path class="cls-12" d="M743.3,645.9c-5.4,0-10.7.9-15.6,3.1-4.9,2.1-9.4,5.3-13,9.2-3.6,4-6.4,8.7-8,13.8-1.7,5.1-2.2,10.5-1.6,15.9,1.2,11.4,6.5,21.9,14.9,29.6,8.4,7.7,19.4,12.1,30.8,12.3,5.4,0,10.7-1,15.6-3.1,4.9-2.1,9.4-5.3,13-9.2,3.6-4,6.4-8.7,8-13.8s2.2-10.5,1.6-15.8c-1.2-11.4-6.4-21.9-14.8-29.6-8.4-7.7-19.3-12.1-30.8-12.3Z"/>
    <path class="cls-2" d="M735.6,690.6c.3,3.2,1.8,6.2,4.2,8.4,2.4,2.2,5.5,3.5,8.7,3.5,1.5,0,3-.3,4.5-.9,1.4-.6,2.7-1.5,3.7-2.6,1-1.1,1.8-2.5,2.3-3.9.5-1.5.6-3,.5-4.5-.3-3.2-1.8-6.2-4.2-8.4-2.4-2.2-5.5-3.4-8.7-3.5-1.5,0-3,.3-4.4.9-1.4.6-2.7,1.5-3.7,2.6s-1.8,2.5-2.3,3.9c-.5,1.4-.6,3-.5,4.5Z"/>
    <path class="cls-12" d="M734,769.6c.6,5.5,3.1,10.7,7.2,14.5,4.1,3.8,9.4,5.9,15,6,2.6,0,5.2-.5,7.6-1.5,2.4-1,4.6-2.6,6.3-4.5,1.8-1.9,3.1-4.2,3.9-6.7.8-2.5,1.1-5.1.8-7.7-.6-5.5-3.1-10.7-7.2-14.5-4.1-3.8-9.4-5.9-15-6-2.6,0-5.2.5-7.6,1.5-2.4,1-4.6,2.6-6.3,4.5-1.8,1.9-3.1,4.2-3.9,6.7-.8,2.5-1.1,5.1-.8,7.7Z"/>
    <path class="cls-12" d="M741.2,822.1c.5,4.8,2.7,9.2,6.2,12.5,3.5,3.3,8.2,5.1,13,5.2,2.3,0,4.5-.4,6.6-1.3,2.1-.9,4-2.2,5.5-3.9,1.5-1.7,2.7-3.7,3.4-5.8.7-2.2.9-4.4.7-6.7-.5-4.8-2.7-9.2-6.3-12.5-3.5-3.3-8.2-5.1-13-5.2-2.3,0-4.5.4-6.6,1.3-2.1.9-3.9,2.2-5.5,3.9-1.5,1.7-2.7,3.7-3.4,5.8-.7,2.2-.9,4.4-.7,6.7Z"/>
    <path class="cls-12" d="M748.1,870.3c.4,4,2.3,7.8,5.3,10.5,3,2.7,6.9,4.3,11,4.4,1.9,0,3.8-.3,5.6-1.1,1.8-.8,3.3-1.9,4.6-3.3s2.3-3.1,2.8-4.9c.6-1.8.8-3.7.6-5.6-.4-4-2.3-7.8-5.3-10.5-3-2.8-6.9-4.3-10.9-4.4-1.9,0-3.8.3-5.6,1.1-1.8.8-3.3,1.9-4.6,3.3-1.3,1.4-2.3,3.1-2.9,4.9-.6,1.8-.8,3.7-.6,5.6Z"/>
    <path class="cls-12" d="M754.3,910.3c.3,3.3,1.9,6.3,4.3,8.6,2.4,2.2,5.6,3.5,8.9,3.6,1.6,0,3.1-.3,4.5-.9,1.4-.6,2.7-1.5,3.8-2.7,1-1.1,1.8-2.5,2.3-4s.6-3,.5-4.6c-.3-3.3-1.9-6.4-4.3-8.6-2.4-2.2-5.6-3.5-8.9-3.6-1.6,0-3.1.3-4.5.9-1.4.6-2.7,1.5-3.8,2.7-1,1.2-1.8,2.5-2.3,4-.5,1.5-.6,3-.5,4.6Z"/>
  </g>
  <path class="cls-2" d="M1373.9,949.3h-110.2l-28.8-329.2h110.2l28.8,329.2Z"/>
  <path class="cls-15" d="M1373.9,949.3h-110.2l-28.8-329.2h110.2l28.8,329.2Z"/>
  <path class="cls-2" d="M1384.8,949.3h-110.2l-28.8-329.2h110.2l28.8,329.2Z"/>
  <g id="speaker2">
    <path class="cls-12" d="M1304.4,645.4c-5.4,0-10.7.9-15.6,3.1-4.9,2.1-9.4,5.3-13,9.2-3.6,4-6.4,8.7-8,13.8-1.7,5.1-2.2,10.5-1.6,15.9,1.2,11.4,6.5,21.9,14.9,29.6,8.4,7.7,19.3,12.1,30.8,12.3,5.4,0,10.7-1,15.6-3.1,4.9-2.1,9.3-5.3,13-9.2,3.6-4,6.3-8.7,8-13.8,1.7-5.1,2.2-10.5,1.6-15.8-1.2-11.4-6.4-21.9-14.8-29.6-8.4-7.7-19.4-12.1-30.8-12.3Z"/>
    <path class="cls-2" d="M1296.7,690.3c.3,3.2,1.8,6.2,4.2,8.4,2.4,2.2,5.5,3.4,8.7,3.5,1.5,0,3-.3,4.4-.9,1.4-.6,2.7-1.5,3.7-2.6,1-1.1,1.8-2.5,2.3-3.9.5-1.5.6-3,.5-4.5-.3-3.2-1.8-6.2-4.2-8.4-2.4-2.2-5.5-3.5-8.7-3.5-1.5,0-3,.3-4.4.9-1.4.6-2.7,1.5-3.7,2.6-1,1.1-1.8,2.5-2.3,3.9-.5,1.5-.6,3-.5,4.5Z"/>
  </g>
  <path class="cls-12" d="M1295.1,769.2c.6,5.5,3.2,10.7,7.2,14.5,4.1,3.8,9.5,5.9,15,6,2.6,0,5.2-.5,7.6-1.5,2.4-1,4.6-2.6,6.3-4.5,1.8-1.9,3.1-4.2,3.9-6.7.8-2.5,1.1-5.1.8-7.7-.6-5.5-3.2-10.7-7.2-14.5-4.1-3.8-9.4-5.9-15-6-2.6,0-5.2.5-7.6,1.5-2.4,1-4.6,2.6-6.3,4.5-1.8,1.9-3.1,4.2-3.9,6.7-.8,2.5-1.1,5.1-.8,7.7Z"/>
  <path class="cls-12" d="M1302.3,821.6c.5,4.8,2.7,9.2,6.2,12.5,3.5,3.3,8.2,5.1,13,5.2,2.3,0,4.5-.4,6.6-1.3,2.1-.9,4-2.2,5.5-3.9,1.5-1.7,2.7-3.7,3.4-5.8.7-2.2.9-4.4.7-6.7-.5-4.8-2.7-9.2-6.3-12.5-3.6-3.3-8.2-5.1-13-5.2-2.3,0-4.5.4-6.6,1.3-2.1.9-3.9,2.2-5.5,3.9-1.5,1.7-2.7,3.6-3.4,5.8-.7,2.2-.9,4.4-.7,6.7Z"/>
  <path class="cls-12" d="M1309.2,869.9c.4,4,2.3,7.8,5.3,10.5,3,2.7,6.9,4.3,10.9,4.4,1.9,0,3.8-.3,5.6-1.1,1.8-.8,3.3-1.9,4.6-3.3,1.3-1.4,2.3-3.1,2.8-4.9.6-1.8.8-3.7.6-5.6-.4-4-2.3-7.8-5.3-10.5-3-2.8-6.9-4.3-10.9-4.4-1.9,0-3.8.3-5.6,1.1-1.8.8-3.3,1.9-4.6,3.3-1.3,1.4-2.3,3.1-2.8,4.9-.6,1.8-.8,3.7-.6,5.6Z"/>
  <path class="cls-12" d="M1315.2,909.8c.3,3.3,1.9,6.3,4.3,8.6,2.4,2.2,5.6,3.5,8.9,3.6,1.5,0,3.1-.3,4.5-.9,1.4-.6,2.7-1.5,3.8-2.7,1.1-1.2,1.8-2.5,2.3-4,.5-1.5.6-3,.5-4.6-.3-3.3-1.9-6.4-4.3-8.6-2.4-2.2-5.6-3.5-8.9-3.6-1.6,0-3.1.3-4.5.9-1.4.6-2.7,1.5-3.8,2.7-1.1,1.1-1.8,2.5-2.3,4-.5,1.5-.7,3-.5,4.6Z"/>
  <path class="cls-18" d="M495.5,522.5l-20.1-332.7v-1.3c0-4.2,1.8-8.3,4.8-11.2,3-3,7.1-4.6,11.3-4.6l886.2-2c4.6,0,9.1,1.9,12.5,5.1,3.4,3.2,5.4,7.5,5.7,12.1l20.1,332.7v1.3c0,2.1-.5,4.2-1.3,6.1-.8,1.9-2,3.7-3.5,5.1-1.5,1.5-3.3,2.6-5.2,3.4-1.9.8-4,1.2-6.1,1.1l-886.2,2c-4.6,0-9.1-1.9-12.4-5.1-3.4-3.2-5.4-7.5-5.7-12.1Z"/>
  <path class="cls-18" d="M824.5,174.4h-243.3l-.2-1.8,243.2-.6.2,2.4Z"/>
  <path class="cls-18" d="M1416,521.8c0,4.2-1.8,8.3-4.8,11.2-3,3-7.1,4.6-11.3,4.6l-886.2,2c-4.6,0-9.1-1.9-12.4-5.1-3.4-3.2-5.4-7.5-5.7-12.1l-20.1-332.7v-1.3c0-4.2,1.8-8.3,4.8-11.2,3-3,7.1-4.6,11.3-4.6h68.1l-1.4-15.9c-.4-3.3,0-6.7,1-9.9,1-3.2,2.7-6.1,5-8.6,2.3-2.5,5-4.4,8.1-5.8,3.1-1.3,6.4-2,9.7-1.9h191c7.1.1,13.9,2.8,19.2,7.7,5.2,4.8,8.5,11.4,9.2,18.5l1.4,15.3,574.9-1.3c4.6,0,9,1.9,12.4,5.1,3.4,3.2,5.4,7.5,5.7,12.1l20.1,332.6v1.3Z"/>
  <path class="cls-2" d="M773,130.5c7.1.1,13.9,2.9,19.2,7.7,5.2,4.8,8.5,11.4,9.2,18.5l1.4,15.3,574.9-1.3c4.6,0,9,1.9,12.4,5.1,3.3,3.2,5.4,7.5,5.7,12.1l20.1,332.6v1.4c0,4.2-1.7,8.2-4.7,11.2-3,3-7,4.6-11.2,4.6l-886.2,2c-4.6,0-9.1-1.9-12.4-5.1-3.4-3.2-5.4-7.5-5.7-12.1l-20.1-332.7v-1.3c0-4.2,1.8-8.2,4.8-11.2,3-3,7-4.6,11.3-4.6h68.1l-1.4-15.9c-.4-3.3,0-6.7,1-9.9,1-3.2,2.7-6.1,5-8.6,2.3-2.5,5-4.4,8.1-5.8,3.1-1.3,6.4-2,9.7-1.9h191M773.1,117.5h-191c-5.2,0-10.3,1-15,3-4.7,2.1-9,5.1-12.5,8.9-3.5,3.8-6.1,8.3-7.8,13.2-1.6,4.9-2.2,10.1-1.7,15.3v1.6h-53.8c-7.7,0-15.1,3-20.5,8.4-5.5,5.4-8.6,12.7-8.7,20.4v2.2l20.1,332.7c.5,7.9,4,15.4,9.8,20.8,5.8,5.5,13.4,8.5,21.3,8.6l886.5-2c7.7,0,15.1-3,20.5-8.4s8.6-12.7,8.7-20.4v-2.5l-20.1-332.5c-.5-7.9-4-15.4-9.8-20.8s-13.4-8.6-21.3-8.7h-.3l-563,1.2-.3-3.2c-.9-10.3-5.6-20-13.2-27.1-7.6-7.1-17.6-11.1-28-11.2v.3Z"/>
  <g id="video1">
    <path class="cls-2" d="M720,99h-196.8v247.5h196.8V99Z"/>
    <g class="cls-24">
      <path class="cls-11" d="M546.5,99h-23.4v192h6.4v-14h17.2v14h6.4V99h-6.6ZM529.3,202.2v-27.9h17.2v27.9h-17.2ZM546.5,208.5v27.9h-17.2v-27.9h17.2ZM529.3,167.8v-27.9h17.2v27.9h-17.2ZM529.3,133.5v-27.9h17.2v27.9h-17.2ZM529.3,271v-27.9h17.2v27.9h-17.2Z"/>
    </g>
    <g class="cls-24">
      <path class="cls-11" d="M713.5,99h-23.3v192h6.4v-14h16.9v14h6.4V99h-6.4ZM696.5,202.2v-27.9h16.9v27.9h-16.9ZM713.5,208.5v27.9h-16.8v-27.9h16.8ZM696.5,167.8v-27.9h16.9v27.9h-16.9ZM696.5,133.5v-27.9h16.9v27.9h-16.9ZM696.5,271v-27.9h16.9v27.9h-16.9Z"/>
    </g>
    <path class="cls-5" d="M690.3,290.8l-137.4.3V99h137.4v191.7Z"/>
    <path class="cls-5" d="M678.4,197.5c0,11.2-3.3,22.2-9.6,31.6-6.2,9.4-15.1,16.7-25.5,21-10.4,4.3-21.8,5.4-32.9,3.2-11-2.2-21.2-7.6-29.1-15.6-8-8-13.4-18.1-15.6-29.1-2.2-11-1.1-22.5,3.2-32.9,4.3-10.4,11.6-19.3,21-25.5,9.4-6.2,20.4-9.6,31.6-9.6,15.1,0,29.5,6,40.2,16.6,10.7,10.7,16.6,25.1,16.6,40.2Z"/>
    <path class="cls-18" d="M606.3,167.8l47.2,32.8-47.2,32.9v-65.7Z"/>
    <path class="cls-2" d="M653.5,200.7l-3.6,2.5-43.6-30.3v-5l47.2,32.9Z"/>
    <path class="cls-18" d="M598.5,335.8v-19.6l-9.6,16.2h-3.4l-9.5-15.8v19.2h-7.1v-32.8h6.2l12.3,20.4,12-20.4h6.2v32.8h-7.2Z"/>
    <path class="cls-18" d="M625.2,323l-4.3,4.6v8.3h-7.6v-32.8h7.5v15.3l14.5-15.3h8.6l-13.6,14.6,14.4,18.1h-8.9l-10.7-12.9Z"/>
    <path class="cls-18" d="M677.5,303.1l-14.2,32.8h-7.5l-14.1-32.8h8.2l10,23.4,10.1-23.4h7.6Z"/>
  </g>
  <g id="video2">
    <path class="cls-2" d="M934.6,154.2h-196.8v247.5h196.8v-247.5Z"/>
    <g class="cls-24">
      <path class="cls-11" d="M761.1,154.2h-23.4v192h6.4v-14.1h17.2v14h6.4v-191.9h-6.6ZM743.9,257.3v-27.9h17.2v27.9h-17.2ZM761.1,263.7v27.9h-17.2v-27.9h17.2ZM743.9,223v-27.9h17.2v27.9h-17.2ZM743.9,188.6v-27.9h17.2v27.9h-17.2ZM743.9,325.9v-28.2h17.2v27.9l-17.2.2Z"/>
    </g>
    <g class="cls-24">
      <path class="cls-11" d="M928.4,154.2h-23.3v192h6.1v-14.1h17.2v14h6.4v-191.9h-6.4ZM911.4,257.3v-27.9h16.9v27.9h-16.9ZM928.4,263.7v27.9h-17.2v-27.9h17.2ZM911.2,222.8v-27.9h17.2v27.9h-17.2ZM911.2,188.4v-27.9h17.2v27.9h-17.2ZM911.2,325.7v-28h17.2v27.9h-17.2Z"/>
    </g>
    <path class="cls-5" d="M904.9,345.9l-137.4.2v-192h137.4v191.8Z"/>
    <path class="cls-5" d="M893,252.7c0,11.2-3.3,22.2-9.6,31.6-6.2,9.4-15.1,16.6-25.5,20.9-10.4,4.3-21.8,5.4-32.9,3.2-11-2.2-21.2-7.6-29.1-15.6-8-8-13.4-18.1-15.6-29.1-2.2-11-1.1-22.5,3.3-32.9,4.3-10.4,11.6-19.3,21-25.5,9.4-6.2,20.4-9.6,31.6-9.6,7.5,0,14.9,1.5,21.8,4.3,6.9,2.9,13.2,7,18.4,12.3,5.3,5.3,9.5,11.5,12.3,18.4,2.9,6.9,4.3,14.3,4.3,21.8Z"/>
    <path class="cls-18" d="M820.9,223l47.2,32.9-47.2,32.8v-65.7Z"/>
    <path class="cls-2" d="M868.1,255.8l-3.6,2.5-43.6-30.3v-5l47.2,32.8Z"/>
    <path class="cls-18" d="M816.3,384h-15.2l-2.9,7h-7.8l14.6-32.8h7.5l14.7,32.8h-8l-2.9-7ZM814,378.2l-5.2-12.5-5,12.5h10.2Z"/>
    <path class="cls-18" d="M860.3,358.2l-14.2,32.8h-7.5l-14.1-32.8h8.2l9.9,23.4,10.1-23.4h7.5Z"/>
    <path class="cls-18" d="M863,358.2h7.6v32.8h-7.6v-32.8Z"/>
  </g>
  <g id="video3">
    <path class="cls-2" d="M1148.3,61h-196.9v247.5h196.9V61Z"/>
    <g class="cls-24">
      <path class="cls-11" d="M974.8,61h-23.3v192h6.4v-14h16.9v14h6.4V61h-6.4ZM957.9,164.1v-27.9h16.9v27.9h-16.9ZM974.8,170.5v27.9h-16.9v-27.9h16.9ZM957.9,129.8v-27.9h16.9v27.9h-16.9ZM957.9,95.4v-28.1h16.9v27.9h-16.9ZM957.9,232.7v-27.9h16.9v27.9h-16.9Z"/>
    </g>
    <g class="cls-24">
      <path class="cls-11" d="M1141.9,61h-23.3v192h6.4v-14h16.9v14h6.4V61h-6.4ZM1125,164.1v-27.9h16.9v27.9h-16.9ZM1141.9,170.5v27.9h-16.9v-27.9h16.9ZM1125,129.8v-27.9h16.9v27.9h-16.9ZM1125,95.4v-28.1h16.9v27.9h-16.9ZM1125,232.7v-27.9h16.9v27.9h-16.9Z"/>
    </g>
    <path class="cls-5" d="M1118.6,252.7l-137.4.3V61h137.4v191.7Z"/>
    <path class="cls-5" d="M1106.7,159.5c0,11.2-3.3,22.2-9.6,31.6-6.2,9.3-15.1,16.6-25.5,20.9-10.4,4.3-21.8,5.4-32.8,3.2s-21.2-7.6-29.1-15.6c-7.9-7.9-13.4-18.1-15.5-29.1-2.2-11-1.1-22.4,3.2-32.8,4.3-10.4,11.6-19.3,20.9-25.5,9.3-6.2,20.3-9.6,31.6-9.6s29.5,6,40.2,16.6c10.7,10.7,16.6,25.1,16.6,40.2Z"/>
    <path class="cls-18" d="M1034.6,129.8l47.2,32.8-47.2,32.9v-65.7Z"/>
    <path class="cls-2" d="M1081.8,162.6l-3.6,2.5-43.6-30.3v-5l47.2,32.8Z"/>
    <path class="cls-18" d="M1026.7,297.7v-19.7l-9.6,16.2h-3.4l-9.6-15.8v19.3h-6.9v-32.7h6.3l12.2,20.3,12.1-20.3h6.2v32.8h-7.3Z"/>
    <path class="cls-18" d="M1070.2,276.9c0,7.3-5.5,11.8-14.2,11.8h-6.8v9h-7.6v-32.7h14.2c8.7,0,14.4,4.5,14.4,11.9ZM1062.5,276.9c0-3.6-2.3-5.7-7-5.7h-6.4v11.4h6.2c4.6,0,7-2.1,7-5.7h.2Z"/>
    <path class="cls-18" d="M1102.3,290.9h-5.3v6.8h-7.4v-6.9h-17.6v-5.1l15.4-20.7h8l-14.3,19.8h8.6v-6.1h7.1v6.1h5.3l.2,6.1Z"/>
  </g>
  <g id="video4">
    <path class="cls-2" d="M1361.4,103.5h-196.8v247.5h196.8V103.5Z"/>
    <g class="cls-24">
      <path class="cls-11" d="M1188,103.5h-23.2v192h6.4v-13.9h17v13.9h6.4V103.5h-6.6ZM1171,206.6v-27.9h17v27.9h-17ZM1188,213.1v27.9h-17v-27.9h17ZM1171,172.3v-27.9h17v27.9h-17ZM1171,137.9v-28h17v27.9h-17ZM1171,275.5v-27.9h17v27.9h-17Z"/>
    </g>
    <g class="cls-24">
      <path class="cls-11" d="M1355.1,103.5h-23.3v192h6.4v-13.9h16.9v13.9h6.4V103.5h-6.4ZM1338.1,206.6v-27.9h16.9v27.9h-16.9ZM1355.1,213.1v27.9h-16.9v-27.9h16.9ZM1338.1,172.3v-27.9h16.9v27.9h-16.9ZM1338.1,137.9v-28h16.9v27.9h-16.9ZM1338.1,275.5v-27.9h16.9v27.9h-16.9Z"/>
    </g>
    <path class="cls-5" d="M1331.7,295.3l-137.4.2V103.5h137.4v191.8Z"/>
    <path class="cls-5" d="M1263.1,258.9c31.4,0,56.8-25.4,56.8-56.8s-25.4-56.8-56.8-56.8-56.8,25.4-56.8,56.8,25.4,56.8,56.8,56.8Z"/>
    <path class="cls-18" d="M1247.8,172.3l47.2,32.9-47.2,32.8v-65.7Z"/>
    <path class="cls-2" d="M1295,205.2l-3.6,2.5-43.6-30.3v-5l47.2,32.8Z"/>
    <path class="cls-18" d="M1239.9,340.3v-19.6l-9.6,16.2h-3.4l-9.6-15.8v19.2h-7.1v-32.8h6.2l12.2,20.4,12.1-20.4h6.2v32.8h-7Z"/>
    <path class="cls-18" d="M1252.7,323.9c-.2-3.6.7-7.1,2.5-10.2,1.8-3.1,4.6-5.5,7.8-7,3.2-1.5,6.9-2,10.4-1.4,3.6.6,6.8,2.2,9.4,4.7,2.6,2.5,4.4,5.7,5.2,9.2.8,3.5.5,7.2-.8,10.5-1.3,3.3-3.6,6.2-6.6,8.2-3,2-6.5,3.1-10.1,3.1-2.3.1-4.6-.2-6.8-1-2.2-.8-4.1-2-5.8-3.6-1.7-1.6-3-3.5-3.9-5.6-.9-2.1-1.4-4.4-1.4-6.7ZM1280.8,323.9c0-2-.7-4-1.8-5.6-1.2-1.7-2.8-2.9-4.7-3.7-1.9-.7-3.9-.9-5.9-.5-2,.4-3.8,1.4-5.2,2.9-1.4,1.4-2.4,3.3-2.8,5.3-.4,2-.2,4,.6,5.9.8,1.9,2.1,3.5,3.8,4.6,1.7,1.1,3.7,1.7,5.7,1.7,1.4,0,2.8-.2,4-.7,1.3-.5,2.4-1.3,3.4-2.3,1-1,1.7-2.2,2.2-3.4.5-1.3.7-2.7.6-4h0Z"/>
    <path class="cls-18" d="M1324.6,307.6l-14.2,32.8h-7.5l-14.1-32.8h8.2l10,23.4,10.1-23.4h7.5Z"/>
  </g>
  <path class="cls-2" d="M1003.2,513.8h-64c-6.1-.1-12-2.5-16.5-6.6-4.5-4.1-7.4-9.8-8-15.9l-.5-5.7c-.3-2.9,0-5.8.9-8.5.9-2.7,2.4-5.3,4.3-7.4,1.9-2.1,4.3-3.8,7-5,2.6-1.1,5.5-1.7,8.4-1.7h64l4.4,50.8Z"/>
  <path class="cls-2" d="M1042.1,509.7l-36.8-18.2-.9-10.3,33.6-18.2,4.1,46.7Z"/>
  <path class="cls-2" d="M1046.9,509.7h-4.9l-4.1-46.7h4.8l4.1,46.7Z"/>
  <path class="cls-2" d="M955.7,441.2c.2,2.3,0,4.5-.7,6.7-.7,2.2-1.9,4.1-3.4,5.8-1.5,1.7-3.4,3-5.5,3.9-2.1.9-4.3,1.3-6.6,1.3-4.8,0-9.4-1.9-13-5.2-3.5-3.3-5.8-7.7-6.2-12.5-.3-2.3,0-4.5.7-6.7.7-2.2,1.8-4.1,3.4-5.8,1.5-1.7,3.4-3,5.5-3.9,2.1-.9,4.3-1.3,6.6-1.3,4.8,0,9.4,1.9,13,5.2,3.5,3.3,5.8,7.7,6.3,12.5Z"/>
  <path class="cls-2" d="M991.1,441.2c.2,2.3,0,4.5-.7,6.7-.7,2.2-1.9,4.1-3.4,5.8-1.5,1.7-3.4,3-5.5,3.9-2.1.9-4.3,1.3-6.6,1.3-4.8,0-9.4-1.9-13-5.2-3.5-3.3-5.8-7.7-6.3-12.5-.3-2.3,0-4.5.7-6.7.7-2.2,1.9-4.1,3.4-5.8,1.5-1.7,3.4-3,5.5-3.9,2.1-.9,4.3-1.3,6.6-1.3,4.8,0,9.4,1.9,13,5.2,3.5,3.3,5.8,7.7,6.3,12.5Z"/>
  <path class="cls-17" d="M1296.9,622.5c-2.3,8.3-5.7,16.2-10.1,23.5,1.9,1,4,1.6,6.1,1.7,2.1.1,4.3-.2,6.3-1l-2.3-24.2Z"/>
  <path class="cls-8" d="M1391.9,647.4l-20.4,21.5-27.9,29.1c2.3,3.4,3.9,7.2,4.9,11.1,2.5,8.6,4.6,15.1-14.3,23.6-2,.8-3.8,2.2-5,4-1.3,1.8-2,3.9-2.1,6.1,0,5.4,4.3,11.2,22.9,11.6,18.1,0,35.7-5.9,50.2-16.7,7.1-5.1,6.4-9.7,2-17.2-13.2-20.8-12.8-49.9-10.2-73Z"/>
  <path class="cls-4" d="M1290.3,621.1c-.3,2.9.8,5.3,2.3,5.4,1.5,0,2.9-2.1,3.1-5,.2-2.9-.8-5.3-2.3-5.4-1.5-.1-2.9,2.1-3.1,5Z"/>
  <path class="cls-26" d="M1292.8,605c3.2-.4,6.4,0,9.4,1.2,3,1.2,5.7,3.1,7.7,5.5"/>
  <path class="cls-8" d="M1296.7,660c2.1,7.7,6,14.8,11.3,20.7,5.3,6,11.9,10.6,19.3,13.6,5,2.1,10.3,3.3,15.8,3.6,6.6.4,13.2-.7,19.3-3.2,6.1-2.5,11.6-6.3,16-11.1,17.8-18.9,16.6-40.1,17.8-76.3.3-8.5-1.4-16.9-5.2-24.4-3.8-7.6-9.4-14.1-16.3-18.9-6.9-4.8-15-7.8-23.4-8.7-8.4-.9-16.9.3-24.7,3.6-35,15-38.4,68.9-29.6,101.3Z"/>
  <path class="cls-20" d="M1327.2,694.6c5,2.1,10.3,3.3,15.8,3.6l.6-.3-3.4-6.7s-2.1,5.7-12.9,3.4Z"/>
  <path class="cls-4" d="M1410.4,630.9c-3.9,12.9-9.2,26.4-19,35.8-3.7,3.5-35.2,6.7-35.2,6.7-1.5-10.7-21.1-45-29.6-55.9-1.2,5.3-3.2,28.3-5,33.4-3.6,0-9.2-5.5-9.2-5.5,5.8-14.9,7.3-31.1,4.3-46.8l-1.2-6.5c0,1.4-20.8,11.2-31-7.8-37.9-70.9,59.3-58.3,86.2-30.6,4.4-2,9.4-2.7,14.2-2.1,4.8.6,9.4,2.5,13.2,5.6,7.6,6.2,12.9,14.8,15.1,24.3,3.5,16.4,2.6,33.5-2.8,49.4Z"/>
  <path class="cls-4" d="M1381.8,537.8c-2.5,0-5,.6-7.1,2-2.1,1.4-3.7,3.4-4.6,5.8-1.1,2.8-2.2,9.5,1,11,2.9-6.6,6.4-12.9,10.7-18.8Z"/>
  <path class="cls-8" d="M1350.8,626.8c-1.7,8-6.3,15.1-12.9,19.9-8.6,6.1-17.2-2.6-16.9-12.9,0-9.2,6.1-22,15.8-24s16,7.1,14.1,17Z"/>
  <path class="cls-8" d="M1180.4,1464.2l-35.1-10.5,10.7-82.9,43.2,15.4-18.7,78Z"/>
  <path class="cls-20" d="M1204,1363l-45.6-17-6.8,59.6,40.4,11.4,12-54Z"/>
  <path class="cls-4" d="M1142.3,1447.8l40,10.8c.7.2,1.3.7,1.7,1.4.4.7.5,1.4.3,2.2l-6.1,38.1c-.1.9-.4,1.8-.9,2.6-.5.8-1.1,1.5-1.8,2-.7.5-1.6.9-2.5,1.1-.9.2-1.8.2-2.7,0-13.8-4-20.3-6.8-37.9-11.6-10.8-2.9-35.6-10-50.7-12.9-15.1-2.9-12.1-20.5-5.4-20.9,30.1-1.9,47.3-5.5,59.2-12.1,2-1.1,4.4-1.4,6.7-.8Z"/>
  <path class="cls-2" d="M1123.6,1453.4c3.2.7,6.4,1,9.6,1,.2,0,.3,0,.4-.1.1,0,.2-.2.3-.4,0-.1.1-.3.1-.5s0-.3-.1-.5c-.9-1.1-9.4-10.3-14.2-9.7-.5,0-1.1.3-1.5.6-.4.3-.8.8-1,1.3-.4.7-.7,1.6-.7,2.4s.2,1.7.7,2.4c1.6,1.9,3.9,3.1,6.3,3.4ZM1131.5,1452.7c-6.7-.5-11.4-1.6-12.6-3.7-.3-.5-.4-1-.3-1.6,0-.5.2-1.1.5-1.5,0-.3.2-.5.5-.7.2-.2.4-.3.7-.3,2.5-.4,7.7,4.1,11.3,7.7Z"/>
  <path class="cls-2" d="M1133.3,1454.4h.4c.1,0,.3-.1.4-.2.1-.1.2-.2.2-.4,0-.4,3.4-10.5.6-14.8-.3-.6-.8-1-1.4-1.4-.6-.3-1.2-.6-1.8-.6-.7-.2-1.5,0-2.1.3-.7.3-1.2.9-1.5,1.5-1.8,3.7,1.8,12.4,4.8,15.4,0,0,.1.1.2.2,0,0,.2,0,.2,0ZM1131.9,1438.8c.7.2,1.2.6,1.6,1.2,1.2,3.9,1,8.1-.4,11.9-2.7-3.5-3.9-7.9-3.5-12.3,0-.5.6-1,1.8-.8h.4Z"/>
  <path class="cls-2" d="M1358.2,1014.6s-196.5-.7-202.8,107.8c-6.2,76.2-10.2,107.4-6.4,273.6l52.3,2.9s53.2-179.8,46-251.2c58.6,0,192.8,5.1,212.3-47.8,9.7-26.8,14.4-55.2,13.9-83.8l-115.3-1.6Z"/>
  <g class="cls-25">
    <path class="cls-11" d="M1358.2,1014.6s-196.5-.7-202.8,107.8c-6.2,76.2-10.2,107.4-6.4,273.6l52.3,2.9s53.2-179.8,46-251.2c58.6,0,192.8,5.1,212.3-47.8,9.7-26.8,14.4-55.2,13.9-83.8l-115.3-1.6Z"/>
  </g>
  <path class="cls-2" d="M1209.7,1409.1l-68.3-11.7,1.1-30.2,70.8,15.7-3.5,26.2Z"/>
  <path class="cls-8" d="M1044.8,1475l-33.1-15.7,23.2-80.3,40.4,21.8-30.4,74.3Z"/>
  <path class="cls-20" d="M1083.5,1378.7l-42.4-23.7-15.9,57.9,38.2,17.4,20.1-51.6Z"/>
  <path class="cls-4" d="M1009.7,1453l37.9,16.8c.7.3,1.2.9,1.5,1.6.3.7.3,1.5,0,2.2l-11.8,36.7c-.3.9-.7,1.7-1.3,2.4-.6.7-1.3,1.3-2.1,1.7-.8.4-1.7.7-2.6.8-.9,0-1.8,0-2.7-.3-12.9-6.2-19.1-9.8-35.7-17.2-10.3-4.6-33.6-15.3-48.2-20.3-14.6-5-8.8-22.1-2.1-21.5,29.9,2.8,47.3,1.8,60.2-2.9,1.1-.5,2.3-.7,3.4-.7,1.2,0,2.4.2,3.5.7Z"/>
  <path class="cls-2" d="M990.3,1455.8c3,1.1,6.1,1.9,9.3,2.4.2,0,.3,0,.5,0,.2,0,.3-.2.4-.3,0-.1.1-.3.1-.4s0-.3-.1-.5c-.7-1.2-7.7-11.6-12.5-11.7-.6,0-1.1,0-1.6.3-.5.2-.9.6-1.2,1.1-.5.7-.9,1.4-1,2.3-.1.8,0,1.7.2,2.5,1.3,2.1,3.4,3.7,5.9,4.3ZM998.2,1456.2c-6.5-1.5-11-3.3-11.9-5.6-.2-.5-.2-1.1,0-1.6.1-.5.4-1,.7-1.4.1-.2.3-.4.6-.6.2-.2.5-.2.8-.2,2.5,0,7,5.2,9.9,9.4Z"/>
  <path class="cls-2" d="M999.7,1458.2h.4c.2,0,.3,0,.4-.2.1,0,.2-.2.3-.3,0-.4,4.9-9.9,2.8-14.5-.3-.6-.6-1.2-1.1-1.6-.5-.4-1.1-.8-1.7-.9-.7-.3-1.4-.3-2.1,0-.7.2-1.3.7-1.7,1.3-2.3,3.4,0,12.6,2.4,15.9,0,.2.2.3.3.4ZM1000.7,1442.5c.3.1.6.3.9.6s.4.5.6.8c.5,4-.2,8.1-2.2,11.7-2.2-3.9-2.8-8.5-1.6-12.9,0-.5.7-.9,2-.5l.4.3Z"/>
  <path class="cls-2" d="M1296.4,1014.6c-1.4,0-218.8-21.2-233.4,102.5-23.1,151.4-37.6,279-37.6,279l45.8,22.7s79.8-161.6,78.6-262.9c63.7-18.3,228.7,12.4,248.2-40.4,15.9-43.2,7.3-100.9,7.3-100.9h-108.8Z"/>
  <path class="cls-15" d="M1296.4,1014.6c-1.4,0-218.8-21.2-233.4,102.5-23.1,151.4-37.6,279-37.6,279l45.8,22.7s79.8-161.6,78.6-262.9c63.7-18.3,228.7,12.4,248.2-40.4,15.9-43.2,7.3-100.9,7.3-100.9h-108.8Z"/>
  <path class="cls-2" d="M1078.5,1425.3l-61.4-27.6,4.9-25.1,64.8,22.3-8.3,30.4Z"/>
  <path class="cls-8" d="M1401.5,746c4.9,13.6,8.8,26.6,12.9,40.1,4.1,13.5,7.1,26.9,10,40.7,2.9,13.8,5.2,27.8,6.9,42.2,1.8,15,2,30.2.6,45.3-.8,8.9-2.9,17.5-6.2,25.8-2.1,5.1-4.8,9.8-8.2,14.1-2,2.4-4.2,4.7-6.6,6.7l-1.9,1.6c-1,.7-2.2,1.5-3.3,2.2-1.8,1-3.8,1.9-5.8,2.5-3,1-6,1.7-9.1,2.1-2.5.3-5,.5-7.4.4-4.2-.1-8.4-.5-12.6-1.1-7.4-1-14.8-2.4-22-4.3-27-7.4-53.2-17.5-78.2-30.1l8-22.2c25.8,5.5,52.4,11.2,77.6,14.5,6.3.6,12.4,1.4,18.1,1.6,2.6,0,5.1,0,7.7-.3,2.1,0,4-.8,3.4-.8l-1.2.5c-.4.2-.8.5-1.2.8l.4-.6c.6-1.1,1.2-2.3,1.5-3.6,1.3-4.5,2.1-9.1,2.3-13.7.5-11.9-.2-23.8-2.2-35.5-1.7-12.6-4.3-25-7.2-37.7-2.9-12.6-6.1-25.3-9.7-37.9-3.6-12.6-7.5-25.4-11.4-37.3l44.9-16Z"/>
  <path class="cls-8" d="M1289.4,919.1l-26.1-17.8-16.4,28.5s30.9,16.2,38.3,8.6l4.1-19.2Z"/>
  <path class="cls-8" d="M1240.5,904.9l-14.3,18.7,20.6,5.8,16.4-28.5-22.7,3.9Z"/>
  <path class="cls-8" d="M1128.9,894.1l-38.2-4.3-11,41.9s43.6.4,50.5-12.1l-1.4-25.5Z"/>
  <path class="cls-8" d="M1062.1,905.3l-6.5,16.1c-.5,1.1-.6,2.3-.5,3.5.1,1.2.5,2.3,1.2,3.3.7,1,1.6,1.8,2.6,2.4,1.1.6,2.2.9,3.4.9h17.4l11-41.9-24.9,11.6c-1.7.9-3,2.3-3.7,4.1Z"/>
  <path class="cls-2" d="M1460.6,737.4c-3.1-8.3-17.6-16.6-26.6-16.6h-5.9c-11.9.2-23.8,1-35.6,2.5-23.7,2.6-47.3,6.6-70.5,11.9-9.9,2.6-19.7,5.8-29.2,9.5h-.3c-4.6,1.8-8.5,5.2-11,9.5-2.5,4.3-3.5,9.3-2.8,14.3,3.7,26.7,10.7,81,14.9,135,3.3,42.2,1.9,84,3,112.8h177c6.1-34.6,5.1-64.8,5.6-127.2.4-37.6-5.7-117.4-18.5-151.5Z"/>
  <path class="cls-9" d="M1460.6,737.4c-3.1-8.3-17.6-16.6-26.6-16.6h-5.9c-11.9.2-23.8,1-35.6,2.5-23.7,2.6-47.3,6.6-70.5,11.9-9.9,2.6-19.7,5.8-29.2,9.5h-.3c-4.6,1.8-8.5,5.2-11,9.5-2.5,4.3-3.5,9.3-2.8,14.3,3.7,26.7,10.7,81,14.9,135,3.3,42.2,1.9,84,3,112.8h177c6.1-34.6,5.1-64.8,5.6-127.2.4-37.6-5.7-117.4-18.5-151.5Z"/>
  <path class="cls-2" d="M1307.7,746.6c3.4,1.3,6.6,3.3,9.3,5.8,2.7,2.5,4.8,5.5,6.3,8.9,1.5,3.4,2.3,7,2.4,10.6,0,3.7-.5,7.3-1.9,10.8-12.6,32.7-33.9,84.6-43.2,102.8-3.6,6.5-7.1,12.9-11.2,19.5-2.1,3.3-4.3,6.5-6.7,9.8-1.4,1.7-2.4,3.3-4,5l-2.3,2.6-1.3,1.5c-3.6,3.8-8,6.7-12.9,8.6-2.5,1-5.2,1.8-7.8,2.5-4.4.9-8.8,1.5-13.3,1.8-7.7.5-15.4.5-23.1,0-28.5-2.4-56.6-7.6-84-15.7l-2.9-29c27,.8,54.7,1.7,80.5.4,6.1-.3,12.1-1,18.1-1.9,2.4-.4,4.8-1,7.1-1.8.8-.3,1.5-.6,2.2-1,.2,0,0-.3-1.1.5-.4.3-.7.6-1.1.9l.4-.5,1-1.4c.7-.8,1.5-2.1,2.2-3.2,1.5-2.3,3.1-4.8,4.6-7.4,3-5.2,5.8-11,8.6-16.8,5.6-11.7,10.7-24,15.6-36.4,3.5-8.9,13.8-35.7,22.4-59.6,1.2-3.5,3.2-6.7,5.7-9.4s5.5-4.9,8.8-6.5c3.3-1.5,7-2.4,10.7-2.5,3.7-.1,7.4.5,10.8,1.8v-.3Z"/>
  <path class="cls-20" d="M1289.8,860.8c1.3,15.9.9,10.7,2.3,27.4,43.2-66.7,28.9-110.8,28.9-110.8l-31.2,83.4Z"/>
  <path class="cls-9" d="M1307.7,746.6c3.4,1.3,6.6,3.3,9.3,5.8,2.7,2.5,4.8,5.5,6.3,8.9,1.5,3.4,2.3,7,2.4,10.6,0,3.7-.5,7.3-1.9,10.8-12.6,32.7-33.9,84.6-43.2,102.8-3.6,6.5-7.1,12.9-11.2,19.5-2.1,3.3-4.3,6.5-6.7,9.8-1.4,1.7-2.4,3.3-4,5l-2.3,2.6-1.3,1.5c-3.6,3.8-8,6.7-12.9,8.6-2.5,1-5.2,1.8-7.8,2.5-4.4.9-8.8,1.5-13.3,1.8-7.7.5-15.4.5-23.1,0-28.5-2.4-56.6-7.6-84-15.7l-2.9-29c27,.8,54.7,1.7,80.5.4,6.1-.3,12.1-1,18.1-1.9,2.4-.4,4.8-1,7.1-1.8.8-.3,1.5-.6,2.2-1,.2,0,0-.3-1.1.5-.4.3-.7.6-1.1.9l.4-.5,1-1.4c.7-.8,1.5-2.1,2.2-3.2,1.5-2.3,3.1-4.8,4.6-7.4,3-5.2,5.8-11,8.6-16.8,5.6-11.7,10.7-24,15.6-36.4,3.5-8.9,13.8-35.7,22.4-59.6,1.2-3.5,3.2-6.7,5.7-9.4s5.5-4.9,8.8-6.5c3.3-1.5,7-2.4,10.7-2.5,3.7-.1,7.4.5,10.8,1.8v-.3Z"/>
  <path class="cls-4" d="M1249.6,1510.4c0,3.6-1.1,7.1-3,10-2,3-4.8,5.3-8.1,6.7-3.3,1.4-6.9,1.7-10.4,1-3.5-.7-6.7-2.4-9.2-4.9s-4.2-5.7-4.9-9.2c-.7-3.5-.3-7.1,1-10.4,1.4-3.3,3.7-6.1,6.7-8.1s6.5-3,10-3,9.4,1.9,12.8,5.3c3.4,3.4,5.3,8,5.3,12.8Z"/>
  <path class="cls-4" d="M1514.6,1510.4c0,3.6,1.1,7.1,3,10,2,3,4.8,5.3,8.1,6.7,3.3,1.4,6.9,1.7,10.4,1,3.5-.7,6.7-2.4,9.2-4.9s4.2-5.7,4.9-9.2c.7-3.5.3-7.1-1-10.4-1.4-3.3-3.7-6.1-6.7-8.1s-6.5-3-10-3-9.4,1.9-12.8,5.3-5.3,8-5.3,12.8Z"/>
  <path class="cls-4" d="M1358.2,1504.6c0,3.6,1.1,7.1,3,10s4.8,5.3,8.1,6.7c3.3,1.4,6.9,1.7,10.4,1,3.5-.7,6.7-2.4,9.2-4.9,2.5-2.5,4.2-5.7,4.9-9.2.7-3.5.3-7.1-1-10.4-1.4-3.3-3.7-6.1-6.7-8.1s-6.5-3-10-3-9.4,1.9-12.8,5.3-5.3,8-5.3,12.8Z"/>
  <path class="cls-4" d="M1571.9,1486.1c-.4,2-1.5,3.9-3.2,5.2-1.6,1.3-3.7,2-5.7,1.9l-188.2-2.6-176.2,4c-2.3.2-4.6-.4-6.4-1.8-1.8-1.4-3-3.5-3.2-5.8-.3-2.3.4-4.6,1.8-6.4,1.4-1.8,3.5-2.9,5.8-3.2l96.2-18.7c9.9-1.9,20-2.8,30.1-2.8h103.4c10.1,0,20.2,1,30.1,2.8l108.1,17.2c1.2.2,2.3.5,3.3,1.2,1,.6,1.9,1.4,2.6,2.4.7,1,1.1,2,1.4,3.2.2,1.2.2,2.3,0,3.5Z"/>
  <path class="cls-4" d="M1406.9,1298.7h-64v184.2h64v-184.2Z"/>
  <path class="cls-4" d="M1397.7,1182h-45.6v117.6h45.6v-117.6Z"/>
  <path class="cls-20" d="M1352.1,1203.8l45.6,11.5v-33.3h-45.6v21.8Z"/>
  <path class="cls-4" d="M1206.6,1013.9h-23.2v98.9h23.2v-98.9Z"/>
  <path class="cls-4" d="M1206.6,1013.9h-23.2v98.9h23.2v-98.9Z"/>
  <path class="cls-4" d="M1360.4,792c-.4,2.7-.7,5.4-.6,8.1v381.7h-36.8v-381.5c0-.3,0-.6,0-.9l37.5-7.4Z"/>
  <path class="cls-4" d="M1574.8,1181.6v.4h-6.1c2,0,4-.2,6.1-.4Z"/>
  <path class="cls-4" d="M1611.8,789.7l-2.7-45.3c-.8-12.8-6.1-24.9-15-34.2l-28.9-30.1-14.9-75.6c-1.1-5.7-4.2-10.9-8.7-14.6-4.5-3.7-10.1-5.7-15.9-5.7h-66.7c-5.3,0-10.4,1.7-14.6,4.8-4.2,3.1-7.4,7.4-9.1,12.4l-27.9,81.3-53.2,32.8c-6.7,4.1-12.4,9.7-16.8,16.3-4.3,6.6-7.2,14-8.4,21.8l-6.9,46.3h.8l37.4-7.2c-.4,2.7-.7,5.4-.6,8.1v381.7h209.1c2.1,0,4.2-.2,6.2-.4,10.2-1.5,19.6-6.6,26.3-14.5,6.8-7.8,10.5-17.8,10.4-28.2v-342.5c0-2.5-.2-4.9-.5-7.4h.4ZM1435.2,760.9l-64.5,6.1-2.8.3,6.9-29.5,43.2-20.8,14.4-6.9,2.8,6.9.5,1.2,2.6,6.4-3.1,36.4ZM1562.8,761.6l-8.1-2c-.3-2.5-.7-5.1-.9-7.7-1.8-14.1-3.4-27.5-3.4-27.5l.7-4.6,1.3-9.8,30.7,27.8.4,6.6,1.6,22.9-22.2-5.7Z"/>
  <path class="cls-4" d="M1359.7,1098.8v83.2h-242.8c-5.3,0-10.5-1.3-15.1-4-4.6-2.6-8.4-6.4-11-11-2.6-4.6-4-9.8-3.9-15.1,0-5.3,1.5-10.5,4.2-15,6.8-11.6,16.6-21.2,28.3-27.9,11.7-6.7,24.9-10.2,38.4-10.2h201.9Z"/>
  <path class="cls-4" d="M1273.8,1044.2c-51-17.8-106.6-17.8-157.7,0-5.1,1.9-10.8,1.9-15.9,0-5.1-1.9-9.3-5.7-11.8-10.5-4.7-10,1.6-22.9,14.5-27.5,59.6-20.8,124.5-20.8,184,0,12.9,4.3,19.2,17.5,14.5,27.5-2.5,4.8-6.7,8.5-11.8,10.5-5.1,2-10.7,2-15.8,0Z"/>
  <path class="cls-16" d="M1273.8,1044.2c-51-17.8-106.6-17.8-157.7,0-5.1,1.9-10.8,1.9-15.9,0-5.1-1.9-9.3-5.7-11.8-10.5-4.7-10,1.6-22.9,14.5-27.5,59.6-20.8,124.5-20.8,184,0,12.9,4.3,19.2,17.5,14.5,27.5-2.5,4.8-6.7,8.5-11.8,10.5-5.1,2-10.7,2-15.8,0Z"/>
</svg>