<?xml version="1.0" encoding="UTF-8"?>
<svg id="Layer_1" data-name="Layer 1" xmlns="http://www.w3.org/2000/svg" version="1.1" viewBox="0 0 43 43">
  <defs>
    <style>
      .cls-1 {
        stroke: #eef4fc;
        stroke-linecap: round;
        stroke-linejoin: round;
        stroke-width: 1.5px;
      }

      .cls-1, .cls-2 {
        fill: none;
      }

      .cls-3 {
        fill: #000;
        fill-opacity: .2;
      }

      .cls-3, .cls-4 {
        stroke-width: 0px;
      }

      .cls-2 {
        stroke: #4092ff;
      }

      .cls-4 {
        fill: #0e1c30;
      }
    </style>
  </defs>
  <path class="cls-4" d="M7,15c0-4.4,3.6-8,8-8h13c4.4,0,8,3.6,8,8v13c0,4.4-3.6,8-8,8h-13c-4.4,0-8-3.6-8-8v-13Z"/>
  <path class="cls-3" d="M7,15c0-4.4,3.6-8,8-8h13c4.4,0,8,3.6,8,8v13c0,4.4-3.6,8-8,8h-13c-4.4,0-8-3.6-8-8v-13Z"/>
  <path class="cls-2" d="M28,6.5h-13c-4.7,0-8.5,3.8-8.5,8.5v13c0,4.7,3.8,8.5,8.5,8.5h13c4.7,0,8.5-3.8,8.5-8.5v-13c0-4.7-3.8-8.5-8.5-8.5Z"/>
  <path class="cls-1" d="M24,16.5l-5,5,5,5"/>
</svg>