<?xml version="1.0" encoding="UTF-8"?>
<svg id="Layer_1" data-name="Layer 1" xmlns="http://www.w3.org/2000/svg" version="1.1" viewBox="0 0 43 43">
  <defs>
    <style>
      .cls-1 {
        stroke: #eef4fc;
        stroke-linecap: round;
        stroke-linejoin: round;
        stroke-width: 1.5px;
      }

      .cls-1, .cls-2 {
        fill: none;
      }

      .cls-3 {
        fill: #000;
        fill-opacity: .2;
      }

      .cls-3, .cls-4 {
        stroke-width: 0px;
      }

      .cls-2 {
        stroke: #4092ff;
      }

      .cls-4 {
        fill: #0e1c30;
      }
    </style>
  </defs>
  <path class="cls-4" d="M1.6,12.6C1.6,6.6,6.6,1.6,12.6,1.6h17.8c6,0,11,4.9,11,11v17.8c0,6-4.9,11-11,11H12.6c-6,0-11-4.9-11-11V12.6Z"/>
  <path class="cls-3" d="M1.6,12.6C1.6,6.6,6.6,1.6,12.6,1.6h17.8c6,0,11,4.9,11,11v17.8c0,6-4.9,11-11,11H12.6c-6,0-11-4.9-11-11V12.6Z"/>
  <path class="cls-2" d="M30.4.9H12.6C6.1.9.9,6.1.9,12.6v17.8c0,6.4,5.2,11.7,11.7,11.7h17.8c6.4,0,11.7-5.2,11.7-11.7V12.6c0-6.4-5.2-11.7-11.7-11.7Z"/>
  <path class="cls-1" d="M24.9,14.6l-6.9,6.9,6.9,6.9"/>
</svg>