<svg width="43" height="43" viewBox="0 0 43 43" fill="none" xmlns="http://www.w3.org/2000/svg">
<g filter="url(#filter0_dd_165_1401)">
<path d="M7 11C7 6.58172 10.5817 3 15 3H28C32.4183 3 36 6.58172 36 11V24C36 28.4183 32.4183 32 28 32H15C10.5817 32 7 28.4183 7 24V11Z" fill="#0E1C30"/>
<path d="M7 11C7 6.58172 10.5817 3 15 3H28C32.4183 3 36 6.58172 36 11V24C36 28.4183 32.4183 32 28 32H15C10.5817 32 7 28.4183 7 24V11Z" fill="black" fill-opacity="0.2"/>
<path d="M28 2.5H15C10.3056 2.5 6.5 6.30558 6.5 11V24C6.5 28.6944 10.3056 32.5 15 32.5H28C32.6944 32.5 36.5 28.6944 36.5 24V11C36.5 6.30558 32.6944 2.5 28 2.5Z" stroke="#4092FF"/>
<path d="M24 12.5L19 17.5L24 22.5" stroke="#EEF4FC" stroke-width="1.5" stroke-linecap="round" stroke-linejoin="round"/>
</g>
<defs>
<filter id="filter0_dd_165_1401" x="0" y="0" width="43" height="43" filterUnits="userSpaceOnUse" color-interpolation-filters="sRGB">
<feFlood flood-opacity="0" result="BackgroundImageFix"/>
<feColorMatrix in="SourceAlpha" type="matrix" values="0 0 0 0 0 0 0 0 0 0 0 0 0 0 0 0 0 0 127 0" result="hardAlpha"/>
<feOffset/>
<feGaussianBlur stdDeviation="0.5"/>
<feColorMatrix type="matrix" values="0 0 0 0 0.129412 0 0 0 0 0.145098 0 0 0 0 0.160784 0 0 0 0.32 0"/>
<feBlend mode="normal" in2="BackgroundImageFix" result="effect1_dropShadow_165_1401"/>
<feColorMatrix in="SourceAlpha" type="matrix" values="0 0 0 0 0 0 0 0 0 0 0 0 0 0 0 0 0 0 127 0" result="hardAlpha"/>
<feOffset dy="4"/>
<feGaussianBlur stdDeviation="3"/>
<feColorMatrix type="matrix" values="0 0 0 0 0.129412 0 0 0 0 0.145098 0 0 0 0 0.160784 0 0 0 0.2 0"/>
<feBlend mode="normal" in2="effect1_dropShadow_165_1401" result="effect2_dropShadow_165_1401"/>
<feBlend mode="normal" in="SourceGraphic" in2="effect2_dropShadow_165_1401" result="shape"/>
</filter>
</defs>
</svg>
