<?xml version="1.0" encoding="UTF-8"?>
<svg xmlns="http://www.w3.org/2000/svg" version="1.1" viewBox="0 0 2331 1737">
  <defs>
    <style>
      .cls-1 {
        fill: #e0e0e0;
      }

      .cls-2, .cls-3, .cls-4 {
        fill: #407bff;
      }

      .cls-5 {
        opacity: .2;
      }

      .cls-5, .cls-3, .cls-4, .cls-6, .cls-7, .cls-8, .cls-9 {
        isolation: isolate;
      }

      .cls-10 {
        fill: #e6e6e6;
      }

      .cls-11 {
        fill: #ffb573;
      }

      .cls-12, .cls-6 {
        fill: #ebebeb;
      }

      .cls-13 {
        fill: #ed893e;
      }

      .cls-14 {
        fill: #263238;
      }

      .cls-3 {
        opacity: .1;
      }

      .cls-4 {
        opacity: .7;
      }

      .cls-15, .cls-7, .cls-8, .cls-9 {
        fill: #fff;
      }

      .cls-16 {
        fill: #f0f0f0;
      }

      .cls-17 {
        fill: #fafafa;
      }

      .cls-6, .cls-9 {
        opacity: .6;
      }

      .cls-18 {
        fill: #f5f5f5;
      }

      .cls-7 {
        opacity: .9;
      }

      .cls-8 {
        opacity: .3;
      }

       /* Subtle bounce animation for percentage */
      #percentage {
        animation: bounce 2s ease-in-out infinite;
      }

      /* Fade-in animation for progress */
      #progress {
        opacity: 0;
        animation: fadeIn 2s ease-in forwards;
      }

      /* Keyframes for the subtle bounce animation */
      @keyframes bounce {
        0%, 20%, 50%, 80%, 100% {
          transform: translateY(0);
        }
        40% {
          transform: translateY(-10px);
        }
        60% {
          transform: translateY(-5px);
        }
      }

      /* Keyframes for the fade-in animation */
      @keyframes fadeIn {
        0% {
          opacity: 0;
        }
        100% {
          opacity: 1;
        }
      }
    </style>
  </defs>
  <!-- Generator: Adobe Illustrator 28.7.1, SVG Export Plug-In . SVG Version: 1.2.0 Build 142)  -->
  <g>
    <g id="Layer_1">
      <g id="background-complete">
        <path id="Vector" class="cls-12" d="M2330.5,1526H0v1.2h2330.5v-1.2Z"/>
        <path id="Vector_2" class="cls-12" d="M2097,1601h-154.4v1.2h154.4v-1.2Z"/>
        <path id="Vector_3" class="cls-12" d="M1883.9,1601h-330.1v1.2h330.1v-1.2Z"/>
        <path id="Vector_4" class="cls-12" d="M1371.8,1557.7h-89.4v1.2h89.4v-1.2Z"/>
        <path id="Vector_5" class="cls-12" d="M404.3,1565.6h-159.8v1.2h159.8v-1.2Z"/>
        <path id="Vector_6" class="cls-12" d="M736.4,1565.6h-290.6v1.2h290.6v-1.2Z"/>
        <path id="Vector_7" class="cls-12" d="M1049.4,1585.2h-171.6v1.2h171.6v-1.2Z"/>
        <path id="Vector_8" class="cls-12" d="M1104.6,1318.1H204.7c-7.1,0-13.8-2.8-18.8-7.8s-7.8-11.8-7.8-18.8V26.4c0-7,2.9-13.7,7.9-18.7,4.9-4.9,11.7-7.7,18.7-7.7h900c7.1,0,13.8,2.8,18.8,7.8,5,5,7.8,11.8,7.8,18.8v1264.9c0,3.5-.7,7-2,10.2s-3.3,6.2-5.8,8.6c-2.5,2.5-5.4,4.4-8.6,5.8-3.2,1.3-6.7,2-10.2,2h-.1ZM204.7.9c-6.7,0-13.2,2.7-18,7.5-4.8,4.8-7.4,11.2-7.4,18v1265.1c0,6.7,2.7,13.2,7.4,18,4.8,4.8,11.2,7.5,18,7.5h900c6.8,0,13.2-2.7,18-7.5s7.5-11.2,7.5-18V26.4c0-6.7-2.7-13.2-7.5-18s-11.2-7.5-18-7.5c0,0-900,0-900,0Z"/>
        <path id="Vector_9" class="cls-12" d="M2112.9,1318.1h-900c-7,0-13.8-2.8-18.8-7.8s-7.8-11.7-7.8-18.8V26.4c0-7,2.9-13.7,7.9-18.7C1199.2,2.8,1205.9,0,1212.9,0h900c7,0,13.7,2.8,18.7,7.7,5,4.9,7.8,11.6,7.8,18.6v1265.1c0,3.5-.7,6.9-2,10.2-1.3,3.2-3.3,6.2-5.8,8.6-2.5,2.5-5.4,4.4-8.6,5.8-3.2,1.3-6.7,2-10.2,2h.1ZM1212.8.9c-6.7,0-13.2,2.7-18,7.5-4.8,4.8-7.5,11.2-7.5,18v1265.1c0,6.7,2.7,13.2,7.5,18s11.2,7.5,18,7.5h900c6.7,0,13.2-2.7,18-7.5s7.5-11.2,7.5-18V26.4c0-6.7-2.7-13.2-7.5-18s-11.2-7.5-18-7.5c0,0-900,0-900,0Z"/>
        <path id="Vector_10" class="cls-10" d="M1507.5,92.2H299.8v730.7h1207.7V92.2Z"/>
        <path id="Vector_11" class="cls-18" d="M1499.3,92.2H281v730.7h1218.4V92.2h0Z"/>
        <path id="Vector_12" class="cls-17" d="M1465.4,128.7H314.8v657.7h1150.7V128.7h0Z"/>
        <path id="Vector_13" class="cls-15" d="M1374.4,786.3l-247.7-657.6h-104.3l247.7,657.6h104.3,0Z"/>
        <path id="Vector_14" class="cls-15" d="M1240.6,786.3l-247.8-657.6h-71.8l247.8,657.6h71.8,0Z"/>
        <path id="Vector_15" class="cls-15" d="M802.8,786.3l-247.8-657.6h-71.8l247.7,657.6h71.9,0Z"/>
        <path id="Vector_16" class="cls-10" d="M604.5,128.7h-40.4v657.7h40.4V128.7Z"/>
        <path id="Vector_17" class="cls-10" d="M1243.1,128.7h-40.4v657.7h40.4V128.7Z"/>
        <path id="Vector_18" class="cls-18" d="M597.2,101.6h-51v708h51V101.6Z"/>
        <path id="Vector_19" class="cls-18" d="M1235.8,101.5h-51v708h51V101.5Z"/>
        <path id="Vector_20" class="cls-10" d="M318.4,128.7h-3.6v657.7h3.6V128.7Z"/>
        <path id="Vector_21" class="cls-10" d="M1544.1,45.2H266.9c-2.5,0-4.5,2-4.5,4.5v.3c0,2.5,2,4.5,4.5,4.5h1277.2c2.5,0,4.5-2,4.5-4.5v-.3c0-2.5-2-4.5-4.5-4.5Z"/>
        <path id="Vector_22" class="cls-10" d="M1507.5,62.9c1.6,0,3-.7,4.1-1.7,1.1-1.1,1.7-2.6,1.8-4.1v-14.3c0-1.6-.6-3.1-1.7-4.2-1.1-1.1-2.6-1.7-4.2-1.8-.8,0-1.5,0-2.3.4-.7.3-1.4.7-1.9,1.3-.5.5-1,1.2-1.3,1.9s-.4,1.5-.4,2.3v14.3c0,.8,0,1.5.4,2.3.3.7.7,1.4,1.3,1.9.6.5,1.2,1,1.9,1.3.7.3,1.5.4,2.3.4h0Z"/>
        <path id="Vector_23" class="cls-10" d="M332.5,62.9c.8,0,1.5,0,2.3-.4.7-.3,1.4-.7,1.9-1.3.5-.5,1-1.2,1.3-1.9s.4-1.5.4-2.3v-14.3c0-.8-.1-1.5-.4-2.3-.3-.7-.7-1.4-1.3-1.9-.5-.6-1.2-1-1.9-1.3s-1.5-.5-2.3-.5c-1.6,0-3.1.6-4.2,1.8-1.1,1.1-1.7,2.6-1.7,4.2v14.3c0,1.5.6,3,1.7,4.1s2.6,1.7,4.1,1.8h.1Z"/>
        <path id="Vector_24" class="cls-6" d="M1485.9,49.8H268.1v521.4h1217.8V49.8Z"/>
        <path id="Vector_25" class="cls-1" d="M2027.8,241.5h-308.3v315.2h308.3V241.5Z"/>
        <path id="Vector_26" class="cls-18" d="M2019.7,241.5h-318.8v315.2h318.8V241.5Z"/>
        <path id="Vector_27" class="cls-15" d="M1993,277.2h-265.3v243.7h265.3v-243.7Z"/>
        <path id="Vector_28" class="cls-16" d="M2026,958.6h-86.3v541.2h86.3v-541.2h0Z"/>
        <path id="Vector_29" class="cls-16" d="M2009.4,1499.8h-950.4v26.1h950.4v-26.1Z"/>
        <path id="Vector_30" class="cls-18" d="M1939.7,958.6h-897.2v541.2h897.2v-541.2h0Z"/>
        <path id="Vector_31" class="cls-10" d="M2026,935.8h-86.3v22.8h86.3v-22.8Z"/>
        <path id="Vector_32" class="cls-16" d="M1939.7,935.8h-897.2v22.8h897.2v-22.8Z"/>
        <path id="Vector_33" class="cls-1" d="M1908.7,1147.8h-835.2v-141h835.2v141ZM1079.1,1141.9h823.8v-129.6h-823.6l-.2,129.6Z"/>
        <path id="Vector_34" class="cls-1" d="M1908.7,1451.9h-835.2v-269.5h835.2v269.5ZM1079.1,1446.1h823.8v-257.8h-823.6l-.2,257.8h0Z"/>
        <path id="Vector_35" class="cls-1" d="M1796.1,1009.5h-610.2v18.6h610.2v-18.6h0Z"/>
        <path id="Vector_36" class="cls-1" d="M1796.1,1185.3h-610.2v18.5h610.2v-18.5h0Z"/>
        <path id="Vector_37" class="cls-1" d="M1702.2,925.9h-331.6v9.9h331.6v-9.9Z"/>
        <path id="Vector_38" class="cls-1" d="M1702.2,925.9h-331.6l31.9-189.8h331.6l-31.9,189.8Z"/>
        <path id="Vector_39" class="cls-12" d="M1696.1,925.9h-331.6l31.9-189.8h331.6l-31.9,189.8Z"/>
        <path id="Vector_40" class="cls-17" d="M1377.1,911l27.1-161.4c.2-1,.7-1.9,1.4-2.6.8-.7,1.8-1,2.8-1h303c.6,0,1.1,0,1.6.3.5.2,1,.5,1.4.9s.7.8.9,1.4c.2.5.3,1.1.3,1.6v.8l-27.1,161.4c-.2,1-.7,1.9-1.4,2.6-.8.7-1.7,1-2.8,1h-303c-.6,0-1.1,0-1.6-.3s-1-.5-1.4-.9-.7-.8-.9-1.4c-.2-.5-.3-1.1-.3-1.6v-.8Z"/>
        <path id="Vector_41" class="cls-16" d="M1627.2,925.9h-331.6v9.9h331.6v-9.9Z"/>
        <path id="Vector_42" class="cls-10" d="M788,875.7h-177.4c-40,0-76.1,34.6-85.5,82.1l-29.7,149.2h-60.9c-29,0-54,24.8-59.5,59.2l-8.1,51.3c-12.3,2.1-22.8,13.4-25.8,28.3h366.4c39.9,0,76-34.6,85.4-82l42.6-214.4c7.5-38.6-15.1-73.7-47.4-73.7h0ZM428,1216.5h-45.1l7.6-46.8c4.1-25.3,22.5-43.7,43.9-43.7h57.2l-6.8,36.4c-6.5,31.4-30.3,54.2-56.8,54.2h0Z"/>
        <path id="Vector_43" class="cls-1" d="M699.8,1245.4h12.9l24.4,280.6h-12.9l-24.4-280.6Z"/>
        <path id="Vector_44" class="cls-1" d="M651.5,1245.4h12.9l24.4,280.6h-12.9l-24.4-280.6Z"/>
        <path id="Vector_45" class="cls-1" d="M397,1245.4h-12.9l-24.4,280.6h12.9l24.4-280.6Z"/>
        <path id="Vector_46" class="cls-1" d="M445.3,1245.4h-12.9l-24.4,280.6h12.9l24.4-280.6Z"/>
      </g>
      <g id="progress">
        <path id="Vector_47" class="cls-2" d="M1722.3,109.5H608.2c-34.7,0-62.9,28.2-62.9,62.9v426.3c0,34.7,28.2,62.9,62.9,62.9h1114.1c34.7,0,62.9-28.2,62.9-62.9V172.4c0-34.7-28.2-62.9-62.9-62.9Z"/>
        <path id="Vector_48" class="cls-9" d="M1722.3,109.5H608.2c-34.7,0-62.9,28.2-62.9,62.9v426.3c0,34.7,28.2,62.9,62.9,62.9h1114.1c34.7,0,62.9-28.2,62.9-62.9V172.4c0-34.7-28.2-62.9-62.9-62.9Z"/>
        <path id="Vector_49" class="cls-7" d="M1722.3,123.5H608.2c-27,0-48.9,21.9-48.9,48.9v426.3c0,27,21.9,48.9,48.9,48.9h1114.1c27,0,48.9-21.9,48.9-48.9V172.4c0-27-21.9-48.9-48.9-48.9Z"/>
        <path id="Vector_50" class="cls-14" d="M1054.5,344.9v-33.4h12.8c1.7,0,3.4,0,5.1.3,1.5.2,2.9.8,4.1,1.5,1.1.8,2.1,1.9,2.6,3.2.7,1.4,1.1,3,1,4.7,0,2.7-.9,5.3-2.7,7.2-1.4,1.1-2.9,2-4.6,2.5s-3.5.7-5.2.5h-8.6v13.5h-4.6,0ZM1058.9,327.4h8.4c2.2.2,4.3-.4,6.1-1.6.6-.6,1.1-1.3,1.4-2.1.3-.8.4-1.7.4-2.5,0-1.3-.3-2.5-1-3.6-.7-1-1.7-1.7-2.8-2-1.4-.3-2.8-.4-4.2-.3h-8.5l.2,12.1Z"/>
        <path id="Vector_51" class="cls-14" d="M1085,344.9v-24.2h3.7v3.7c.6-1.3,1.5-2.5,2.6-3.4.8-.5,1.7-.8,2.7-.8,1.5,0,3,.5,4.2,1.3l-1.4,3.8c-.9-.5-2-.8-3-.9-.9,0-1.7.3-2.4.8-.8.6-1.3,1.3-1.5,2.2-.5,1.5-.7,3.1-.7,4.7v12.8h-4.2Z"/>
        <path id="Vector_52" class="cls-14" d="M1099.1,332.9c-.2-1.8,0-3.7.7-5.4.6-1.7,1.7-3.3,3-4.6,2.1-1.8,4.8-2.7,7.6-2.7s3,.2,4.4.8c1.4.6,2.7,1.4,3.7,2.5,2.2,2.5,3.3,5.7,3.2,9,0,2.5-.4,5-1.4,7.4-.9,1.7-2.4,3.2-4.1,4.1-1.8,1-3.8,1.5-5.8,1.5s-3-.2-4.4-.8c-1.4-.6-2.7-1.4-3.8-2.5-2.2-2.6-3.4-6-3.1-9.4h0ZM1103.3,332.9c-.2,2.5.5,4.9,2,6.9.6.7,1.4,1.3,2.3,1.7.9.4,1.8.6,2.8.6s1.9-.2,2.8-.6,1.7-1,2.3-1.8c1.5-2,2.2-4.5,2-7,.2-2.4-.6-4.9-2.1-6.8-.6-.7-1.4-1.3-2.2-1.7-.9-.4-1.8-.6-2.8-.6s-1.9.2-2.8.6-1.7,1-2.3,1.7c-1.5,2-2.2,4.5-2,6.9h0Z"/>
        <path id="Vector_53" class="cls-14" d="M1125.8,347l4,.6c0,.5.2,1,.4,1.5.2.5.6.9,1,1.2,1.2.8,2.7,1.3,4.2,1.2,1.5,0,3.1-.3,4.4-1.2,1-.8,1.8-1.9,2.1-3.2.3-1.7.4-3.5.3-5.3-.8,1-1.8,1.8-3,2.3s-2.4.8-3.7.8-3-.2-4.3-.9c-1.3-.6-2.5-1.6-3.4-2.7-1.8-2.5-2.8-5.5-2.7-8.6,0-2.2.4-4.4,1.3-6.4.7-1.9,2-3.5,3.6-4.7,1.6-1.1,3.6-1.6,5.5-1.6s2.7.3,4,.9c1.2.6,2.3,1.5,3.1,2.6v-2.9h3.8v20.9c.2,2.7-.2,5.4-1.2,8-.8,1.6-2.1,2.9-3.6,3.7-1.9,1-4,1.4-6.1,1.4-2.5.1-4.9-.6-7-1.9-.9-.7-1.6-1.5-2-2.5s-.7-2.1-.6-3.2h-.1ZM1129.2,332.4c-.2,2.5.5,4.9,1.9,6.9.6.7,1.3,1.2,2.1,1.6.8.4,1.7.6,2.6.6s1.8-.2,2.6-.6c.8-.4,1.5-.9,2.1-1.6,1.4-2,2.1-4.4,1.9-6.8.2-2.4-.5-4.8-2-6.7-.6-.7-1.3-1.3-2.1-1.7-.8-.4-1.7-.6-2.6-.6s-1.8.2-2.6.6c-.8.4-1.5,1-2.1,1.7-1.4,1.9-2,4.2-1.9,6.5h0Z"/>
        <path id="Vector_54" class="cls-14" d="M1152.4,344.9v-24.2h3.5v3.7c.6-1.3,1.5-2.5,2.6-3.4.8-.5,1.7-.8,2.6-.8,1.5,0,3,.5,4.2,1.3l-1.4,3.8c-.9-.6-1.9-.9-3-.9s-1.7.3-2.4.8c-.7.6-1.3,1.4-1.5,2.2-.4,1.5-.7,3.1-.7,4.7v12.8h-3.9,0Z"/>
        <path id="Vector_55" class="cls-14" d="M1184.5,337.2l4.2.5c-.6,2.3-1.9,4.3-3.7,5.8-2.3,1.5-5.1,2.2-7.9,2s-5.4-1.4-7.5-3.3c-1.1-1.3-2-2.8-2.5-4.4s-.8-3.3-.6-5c-.2-3.4,1-6.7,3.2-9.3,1-1.1,2.3-2,3.7-2.6,1.4-.6,2.9-.9,4.4-.8,1.5,0,2.9.2,4.3.8,1.4.6,2.6,1.4,3.6,2.5,2.1,2.6,3.2,5.9,3,9.3v1.1h-18c0,2.2.8,4.4,2.3,6.1.6.7,1.4,1.2,2.3,1.6s1.8.5,2.8.5,2.7-.4,3.9-1.2c1.2-1,2.1-2.3,2.5-3.7h0ZM1171.1,330.7h13.5c0-1.7-.6-3.3-1.6-4.7-.6-.8-1.4-1.4-2.2-1.8-.9-.4-1.8-.6-2.8-.6s-1.7.1-2.5.5c-.8.3-1.5.8-2.1,1.4-1.4,1.4-2.2,3.2-2.2,5.2h-.1Z"/>
        <path id="Vector_56" class="cls-14" d="M1192.3,337.7l4-.7c0,1.4.8,2.8,1.9,3.7,1.3.8,2.8,1.2,4.3,1.2s3-.4,4.3-1.2c.4-.3.8-.7,1-1.2s.4-1,.4-1.5,0-.9-.3-1.2c-.2-.4-.5-.7-.9-.9-1.3-.6-2.7-1.1-4.2-1.4-2.1-.5-4.2-1.1-6.2-2-1.1-.5-2-1.3-2.6-2.3s-.9-2.1-.9-3.3.3-2.1.7-3c.5-.9,1.2-1.7,2-2.3.8-.5,1.7-1,2.6-1.2,1.2-.3,2.3-.5,3.5-.5,1.7,0,3.4.2,5,.8,1.2.4,2.3,1.2,3.2,2.2.7,1.1,1.2,2.4,1.4,3.7l-4,.6c-.2-1.1-.7-2.2-1.6-2.9-1.1-.8-2.4-1.1-3.7-1-1.4,0-2.8.2-4.1.9-.3.2-.7.6-.9,1s-.3.8-.3,1.2.2,1,.5,1.4c.4.5.9.9,1.6,1.1.4,0,1.6.5,3.6,1,2.1.5,4.1,1.2,6.1,1.9,1.1.5,2,1.2,2.6,2.1.7,1,1,2.3,1,3.5s-.4,2.7-1.2,3.9c-.8,1.3-2.1,2.2-3.5,2.8-1.6.7-3.4,1-5.1,1-2.5.2-5.1-.5-7.2-2-1.7-1.4-2.8-3.4-3.1-5.6v.2Z"/>
        <path id="Vector_57" class="cls-14" d="M1215.6,337.7l4.1-.7c0,1.4.8,2.8,1.9,3.7,1.3.8,2.8,1.2,4.3,1.2s3-.4,4.3-1.2c.4-.3.7-.7,1-1.2.2-.5.4-1,.4-1.5s0-.9-.3-1.2c-.2-.4-.5-.7-.9-.9-1.3-.6-2.7-1.1-4.2-1.4-2.1-.5-4.2-1.1-6.2-2-1.1-.5-2-1.3-2.6-2.3s-.9-2.1-.9-3.3.2-2.1.7-3,1.2-1.7,2-2.3c.8-.5,1.7-1,2.6-1.2,1.2-.3,2.3-.5,3.5-.5,1.7,0,3.4.2,5,.8,1.2.4,2.3,1.2,3.2,2.2.7,1.1,1.2,2.4,1.4,3.7l-4,.6c-.2-1.1-.7-2.2-1.6-2.9-1.1-.8-2.4-1.1-3.7-1-1.4,0-2.8.2-4,.9-.4.2-.7.6-.9,1-.2.4-.3.8-.3,1.2s.2,1,.5,1.4c.4.5,1,.9,1.6,1.1.4,0,1.6.5,3.6,1,2.1.5,4.1,1.2,6.1,1.9,1.1.5,2,1.2,2.7,2.1.7,1,1,2.3,1,3.5s-.4,2.7-1.2,3.9c-.8,1.3-2,2.2-3.4,2.8-1.6.7-3.4,1-5.1,1-2.5.2-5.1-.5-7.2-2-1.7-1.4-2.8-3.4-3.1-5.6l-.3.2Z"/>
        <path id="Vector_58" class="cls-14" d="M1241.7,344.9v-4.7h4.7v4.7h-4.7Z"/>
        <path id="Vector_59" class="cls-14" d="M1254.6,344.9v-4.7h4.7v4.7h-4.7Z"/>
        <path id="Vector_60" class="cls-14" d="M1267.8,344.9v-4.7h4.7v4.7h-4.7Z"/>
        <path id="Vector_61" class="cls-4" d="M1722.3,123.5H608.3c-13,0-25.4,5.2-34.6,14.3-9.2,9.2-14.4,21.6-14.4,34.6v52.4h1211.8v-52.4c0-13-5.2-25.4-14.3-34.6-9.2-9.2-21.6-14.3-34.6-14.4h0Z"/>
        <path id="Vector_62" class="cls-15" d="M656.4,174.2c0-3.5-1-6.9-3-9.8-1.9-2.9-4.7-5.2-7.9-6.5s-6.8-1.7-10.2-1-6.6,2.4-9.1,4.8c-2.5,2.5-4.2,5.6-4.8,9.1-.7,3.4-.3,7,1,10.2s3.6,6,6.5,7.9,6.3,3,9.8,3,9.2-1.9,12.5-5.2,5.2-7.8,5.2-12.5Z"/>
        <path id="Vector_63" class="cls-15" d="M726.3,174.2c0-3.5-1-6.9-3-9.8-1.9-2.9-4.7-5.2-7.9-6.5s-6.8-1.7-10.2-1-6.6,2.4-9.1,4.8c-2.5,2.5-4.2,5.6-4.8,9.1-.7,3.4-.3,7,1,10.2s3.6,6,6.5,7.9,6.3,3,9.8,3,9.2-1.9,12.5-5.2,5.2-7.8,5.2-12.5Z"/>
        <path id="Vector_64" class="cls-15" d="M796.2,174.2c0-3.5-1-6.9-3-9.8-1.9-2.9-4.7-5.2-7.9-6.5s-6.8-1.7-10.2-1-6.6,2.4-9.1,4.8c-2.5,2.5-4.2,5.6-4.8,9.1-.7,3.4-.3,7,1,10.2s3.6,6,6.5,7.9,6.3,3,9.8,3,9.2-1.9,12.5-5.2,5.2-7.8,5.2-12.5Z"/>
        <path id="Vector_65" class="cls-3" d="M1688.8,453.7H641.6c-4.1,0-8-1.6-11-4.5s-4.5-6.8-4.6-10.9c0-4.1,1.7-8.1,4.6-11,2.9-2.9,6.8-4.5,11-4.6h1047.2c4.1,0,8.1,1.7,11,4.6s4.5,6.8,4.6,11c0,4.1-1.7,8-4.6,10.9s-6.9,4.5-11,4.5h0Z"/>
        <path id="Vector_66" class="cls-2" d="M1419.3,453.7h-777.7c-4.1,0-8-1.6-11-4.5s-4.5-6.8-4.6-10.9c0-4.1,1.7-8.1,4.6-11,2.9-2.9,6.8-4.5,11-4.6h777.7c4.1,0,8,1.7,10.9,4.6s4.5,6.9,4.5,11-1.6,8-4.5,10.9-6.8,4.5-10.9,4.5Z"/>
      </g>
      <g id="percentage">
        <path id="Vector_67" class="cls-14" d="M1496.2,523.1h-39.7l-21.5-21.6-21.5,21.6h-39.8c-4.5,0-8.8,1.8-12,5s-5,7.5-5,12v49.3c0,4.5,1.8,8.8,5,12s7.5,5,12,5h122.6c4.5,0,8.8-1.8,12-5s5-7.5,5-12v-49.3c0-4.5-1.8-8.8-5-12s-7.5-5-12-5h0Z"/>
        <path id="Vector_68" class="cls-15" d="M1392.4,550.7h22v5.1c-1.8,1.7-3.3,3.5-4.7,5.6-1.6,2.6-2.8,5.3-3.7,8.2-.8,2.7-1.2,5.5-1.5,8.2h-7.5c.5-3.8,1.4-7.5,2.8-11.1,1.6-3.5,3.6-6.7,6-9.6h-13.4v-6.3h0Z"/>
        <path id="Vector_69" class="cls-15" d="M1420.6,550.7h17.8v6h-12.2l-.7,4.1c.8-.4,1.7-.7,2.5-.9s1.6-.3,2.4-.3c1.2,0,2.4,0,3.5.6,1.1.4,2.2,1.1,3,1.9.8.8,1.5,1.7,1.9,2.8s.7,2.2.6,3.3c0,1.8-.5,3.5-1.3,5.1s-2.1,2.9-3.7,3.7c-1.9.9-4,1.3-6.2,1.3s-3.1,0-4.7-.5c-1.2-.3-2.3-.8-3.3-1.5-.8-.6-1.6-1.4-2.2-2.3-.6-1-1.1-2.1-1.4-3.2l7.6-.8c0,1.1.6,2,1.3,2.8.7.6,1.5.9,2.4.9s1,0,1.4-.3c.4-.2.8-.5,1.1-.9.8-1,1.1-2.3,1-3.5,0-1.3-.2-2.5-1-3.5-.4-.4-.8-.7-1.3-.9s-1-.3-1.5-.3-1.4.2-2.1.5c-.6.4-1.2.8-1.7,1.4l-6.4-.9,2.5-14.6h.7Z"/>
        <path id="Vector_70" class="cls-15" d="M1443,557.4c0-1.2.3-2.5.8-3.6.6-1.1,1.4-2,2.5-2.6,1.2-.6,2.6-1,4-.9,1,0,2,0,2.9.4.9.3,1.8.9,2.5,1.5,1.2,1.4,2,3.3,2,5.2s-.7,3.7-2,5.2c-.7.7-1.6,1.2-2.5,1.5s-1.9.5-2.9.4c-1.4,0-2.8-.3-4-.9-1.1-.6-2-1.5-2.5-2.6s-.8-2.3-.8-3.6h0ZM1448.2,557.4c0,1.2.2,2.3.8,3.3,0,.2.3.3.5.5.2,0,.4.2.7.2h.7c.2,0,.4-.2.6-.3,0,0,.2-.2.3-.3.6-1,.8-2.2.8-3.3s-.2-2.3-.8-3.4c-.2-.2-.4-.3-.6-.4-.2,0-.5,0-.7,0s-.5,0-.7,0c-.2,0-.4.2-.6.4h-.2c-.6,1-.8,2.2-.8,3.4h0ZM1466,550.2h3.9l-15.7,29h-3.9l15.7-29ZM1462.6,572c0-1.2.4-2.3,1-3.4.6-1.1,1.4-2,2.5-2.6,1.2-.7,2.6-1,4-.9,1,0,2,0,2.9.4.9.3,1.8.9,2.5,1.5,1.3,1.4,1.9,3.3,1.9,5.2s-.7,3.7-1.9,5.2c-.7.7-1.6,1.2-2.5,1.5s-1.9.5-2.9.4c-1.4,0-2.8-.3-4-.9-1.1-.6-2-1.5-2.5-2.6-.6-1.2-.9-2.5-1-3.8h0ZM1467.7,572c0,1.2.2,2.3.8,3.3,0,.2.3.3.5.5.2,0,.4.2.6.2h.7c.2,0,.4-.2.6-.3.2,0,.3-.2.4-.4.6-1,.9-2.2.8-3.3,0-1.2-.2-2.3-.8-3.4-.2-.2-.4-.4-.6-.5s-.5-.2-.8-.2-.5,0-.8.2c-.2,0-.4.3-.6.5-.6,1-.8,2.2-.8,3.4h0Z"/>
      </g>
      <g id="character">
        <path id="Vector_71" class="cls-3" d="M1163.8,623.3l4.7-19.6c.2-.7.3-1.5.3-2.3s-.3-1.5-.6-2.2c-.3-.7-.8-1.3-1.4-1.8s-1.3-.9-2-1.1c-.7-.2-1.4-.3-2.1-.3h-70.9c-11.6-63.8-52.8-110.6-41-188.1,23.3-36.6-60.6-172.8-121.5-90.9-78.9,5.2-5.9,153.2-156,191.1-110.4,28-171,91.9-195.3,145.7,9.3,5.2,19.7,7.9,30.3,7.9h2.8c9.5-21.2,22.5-40.6,38.4-57.6-8.3,18.7-15.4,38-21.3,57.6h542.6l1.3-30.4c0-1,0-1.9-.3-2.9-.3-.9-.8-1.8-1.4-2.5s-1.4-1.4-2.2-1.8-1.8-.7-2.8-.8h-1.6Z"/>
        <path id="Vector_72" class="cls-14" d="M1000,650.8c-9.3,70.8-19.9,210.6-213.8,224.4-128.1,9.1-184.2-112.7-264.9-152.4,7.1-58.2,33.8-116.5,34.8-118.9-28.3,30.8-47.6,68.7-55.7,109.8-9.3-3.5-18.9-6.2-28.7-8.2,0-54.8,58-159.8,208.2-197.6,150.2-37.8,77.1-185.9,156-191.1,61-81.8,144.8,54.3,121.5,90.9-15,97.9,54.9,146.8,42.5,243h0Z"/>
        <path id="Vector_73" class="cls-11" d="M1073.3,653.5c-.4-2.5-1.4-4.8-3-6.8-1.6-1.9-3.7-3.4-6-4.3-2.4-.9-4.9-1.1-7.4-.6s-4.8,1.6-6.7,3.2l-23.3,19.8c-1.3,1.8-2.2,3.8-2.6,6s-.3,4.4.4,6.5l4.2,13.6c10.9.7,21.9-.9,32.2-4.7,4.7-1.6,8.7-4.8,11.3-9.1,2.6-4.3,3.5-9.3,2.7-14.2l-1.7-9.4h0Z"/>
        <path id="Vector_74" class="cls-11" d="M941.5,572c.9,5.1,2.2,11.4,3.4,17.2s2.6,11.8,4,17.7c2.8,11.8,6,23.3,9.3,35s7.5,22.6,11.8,33.5c4.4,10.5,9.4,20.7,15.1,30.5l-12-9.6c2.5,1.6,5.5,2.2,8.4,1.7,5.4-.8,10.7-2.7,15.4-5.4,6.1-3.3,11.9-7,17.4-11.3,5.7-4.3,11.7-9.3,16.9-14l1.1-.9c2.4-2.1,5.5-3.3,8.7-3.4,3.2,0,6.3.9,8.9,2.8,2.5,1.9,4.3,4.7,5.1,7.8.8,3.1.4,6.4-.9,9.3-3.9,8.2-8.6,16-14,23.3-5.5,7.5-11.7,14.4-18.7,20.6-8,7.2-17.3,12.7-27.4,16.4-6,2.1-12.3,3.3-18.6,3.5-6.9.2-13.8-.8-20.3-3-4.4-1.5-8.3-4.3-11-8.2l-1-1.4c-8.2-11.6-15.5-23.9-21.7-36.7-6-12.4-11.2-25.1-15.8-38.1-4.5-12.8-8.4-25.8-11.6-38.9-1.6-6.5-3.1-13.1-4.7-19.7-1.5-6.6-2.4-13-3.5-20.5-.9-7.2,1.1-14.4,5.4-20.2,4.3-5.8,10.8-9.7,17.9-10.8s14.5.5,20.4,4.6,10,10.4,11.5,17.5l.5.7h0Z"/>
        <path id="Vector_75" class="cls-2" d="M616.7,1549c-7.2-32.6-5.4-40.3-11.3-58.3-3.1-10.2-7.5-19.9-13.1-28.8-5.1-9.3,4.7-17.1,14.4-18.4,7.6-.9,15.6-1.3,24.9-2.8l20.1,37.6c-10.6,13.5-19.1,46.6-15.3,71.7,2.6,18.1-16.8,12.1-19.7-1h0Z"/>
        <path id="Vector_76" class="cls-14" d="M941.5,771.7s5.3,276.3,11,429.3c14.8,90.6-296.6,279.2-296.6,279.2-6.7,3.2-24.3-31.4-24.1-39.4,0,0,134-197.3,213.8-244.9-88.6-244.5-64.3-424.1-64.3-424.1h160.3-.1Z"/>
        <path id="Vector_77" class="cls-5" d="M781,771.7h101.1s-20.2,270.1-42.7,407.2c-81.2-235.7-58.4-407.2-58.4-407.2h0Z"/>
        <path id="Vector_78" class="cls-5" d="M718.5,1323.7c38.4-47.9,82.7-97.9,118.4-122.3-5.1,47.4-10.3,104.5-14.3,163.1-33.5,26.5-68.3,51.3-97.4,70.9-4.8-37-7.1-74.4-6.7-111.7Z"/>
        <path id="Vector_79" class="cls-2" d="M675.2,1473.4c-4.1,2.9-11.3,8.2-16.5,12.2-.4.3-.9.6-1.4.7s-1,.2-1.5,0c-.5,0-1-.2-1.5-.5s-.9-.6-1.2-1c-10-13.8-18.7-28.4-26.1-43.8-.4-.8-.5-1.6-.4-2.5,0-.8.6-1.6,1.2-2.2l13.1-13c.8-.8,1.8-1.2,2.8-1.2s2.1.4,2.8,1.2l.4.5,29.1,43.7c.3.4.5.9.7,1.4,0,.5,0,1.1,0,1.6,0,.5-.3,1-.6,1.5s-.7.8-1.1,1.1l.2.2Z"/>
        <path id="Vector_80" class="cls-8" d="M675.2,1473.4c-4.1,2.9-11.3,8.2-16.5,12.2-.4.3-.9.6-1.4.7s-1,.2-1.5,0c-.5,0-1-.2-1.5-.5s-.9-.6-1.2-1c-10-13.8-18.7-28.4-26.1-43.8-.4-.8-.5-1.6-.4-2.5,0-.8.6-1.6,1.2-2.2l13.1-13c.8-.8,1.8-1.2,2.8-1.2s2.1.4,2.8,1.2l.4.5,29.1,43.7c.3.4.5.9.7,1.4,0,.5,0,1.1,0,1.6,0,.5-.3,1-.6,1.5s-.7.8-1.1,1.1l.2.2Z"/>
        <path id="Vector_81" class="cls-2" d="M825.3,1707c-34,0-31.6-.5-50.9-1.2-16.4-.6-20.2,1.4-33.4,1.2-11-.2-11.6-10.8-9.3-22.9,1.2-6.1,3.1-13.5,4.7-23.3h51.7c4.7,7.2,11,13.3,18.3,17.8,7.4,4.5,15.6,7.3,24.2,8.2,18.5,2.4,8.2,20.1-5.4,20.1h.1Z"/>
        <path id="Vector_82" class="cls-14" d="M893.2,771.7s-53.5,294.6-73.1,428.1c-20.6,140.2-46,367.8-32,461-7.5,4.7-35.6,4.9-51.7,0,0,0-81.8-319.8-13.5-454.8-38.9-328.2,18.6-345.2,34.5-434.3h135.8Z"/>
        <path id="Vector_83" class="cls-2" d="M790.3,1641.3c.7,6.5,1.9,12.9,3.5,19.2.2.5.2,1,.2,1.4s-.2,1-.4,1.4-.5.8-.9,1.1-.8.5-1.3.7h-.5c-18.6,3-46.6-1.4-55.3-2.9-.8-.2-1.6-.6-2.2-1.2-.6-.6-1.1-1.3-1.3-2.1l-4.4-17.9c-.2-.5-.2-1-.2-1.4s.2-1,.4-1.4.5-.8.9-1.1c.4-.3.8-.6,1.3-.7h1.3l54.8,1c1.1,0,2,.5,2.8,1.2s1.3,1.7,1.4,2.7h0Z"/>
        <path id="Vector_84" class="cls-8" d="M790.3,1641.3c.7,6.5,1.9,12.9,3.5,19.2.2.5.2,1,.2,1.4s-.2,1-.4,1.4-.5.8-.9,1.1-.8.5-1.3.7h-.5c-18.6,3-46.6-1.4-55.3-2.9-.8-.2-1.6-.6-2.2-1.2-.6-.6-1.1-1.3-1.3-2.1l-4.4-17.9c-.2-.5-.2-1-.2-1.4s.2-1,.4-1.4.5-.8.9-1.1c.4-.3.8-.6,1.3-.7h1.3l54.8,1c1.1,0,2,.5,2.8,1.2s1.3,1.7,1.4,2.7h0Z"/>
        <path id="Vector_85" class="cls-15" d="M897.9,513.7c33.9,6.4,41.1,20.3,66.1,71.8-7.5,33.9-48.1,63.7-48.1,63.7,0,0-74-91.7-18-135.5Z"/>
        <path id="Vector_86" class="cls-2" d="M757.4,771.7c-31.8,43.4-66.5,112.8-66.8,262,165.5,74.6,244.2,74.6,283.5,55.9-28.4-115-32.6-317.9-32.6-317.9-26.4-29.1-184.1,0-184.1,0h0Z"/>
        <path id="Vector_87" class="cls-5" d="M869,902.7c-14.5,53.6.4,107.2,13.1,119.1-8.8-30.9-13.1-119.1-13.1-119.1Z"/>
        <path id="Vector_88" class="cls-15" d="M951.7,578c.6,18.1-1.2,39.9-5.3,83-2.8,36.4,6.3,105.8-5.1,110.8-29,8.1-105.1,4.4-183.9,0-3.7-52.2-2.3-88.2-35.3-204.7-3.5-10.8-2.6-22.6,2.5-32.7,5.1-10.1,14.1-17.8,24.9-21.3,3-1,6.2-1.6,9.3-1.9,7.3-.7,15.1-1.4,23-1.8,27.8-2,55.7-2,83.5,0,9.1.8,18.6,2,27.5,3.2,15.9,2.4,30.4,10.2,41.2,22.1,10.8,11.9,17,27.2,17.8,43.3h-.1Z"/>
        <path id="Vector_89" class="cls-11" d="M811.3,428.6c4.7,27.5-7.6,63.1-25.1,81,0,0,25.4-3.8,79.5,29.6,15.7-22.4,4.1-29.6,4.1-29.6-14.5-2.8-14.5-13.4-8.8-33.8l-49.6-47.2h-.1Z"/>
        <path id="Vector_90" class="cls-2" d="M854.4,532.4c-17.8,2.5-23.3,29.4-23.3,29.4,0,0-42.7-30.2-56.3-51.5,5.4-3,10.6-6.3,15.6-9.9,0,0,53.6,21.7,63.9,32.1h0Z"/>
        <path id="Vector_91" class="cls-2" d="M871.3,529.5s14,3.1,21.2,22.7c4.1-39.2-14.5-42.8-14.5-42.8-2.3-1.7-5-2.8-7.8-3.4s-5.7-.6-8.5,0c14.1,7.5,9.6,23.4,9.6,23.4h0Z"/>
        <path id="Vector_92" class="cls-5" d="M861,475.7l-29.1-27.7c.5,4.7,1.3,10.5,2.4,16.1,3.3,14.4,11.8,27.2,23.8,35.8-1.4-5.6,0-13.6,3-24.3h-.1Z"/>
        <path id="Vector_93" class="cls-11" d="M822.6,365.6c-11.4,42.6-17.2,60.6-3.8,89.9,20,44.3,73.4,51.3,96.9,13.8,21.2-34,36.3-97.9,2.2-130.2-7.1-7.2-16-12.3-25.7-14.9-9.8-2.6-20-2.5-29.7.2s-18.5,8-25.5,15.2c-7,7.3-11.9,16.3-14.3,26.1h-.1Z"/>
        <path id="Vector_94" class="cls-14" d="M839.8,324c6.6,51,73.7,21.3,114.5,80.3-3.9-50.3-53.3-121.8-114.5-80.3Z"/>
        <path id="Vector_95" class="cls-14" d="M844,322.1c57.3,38.3-5.4,69.4-47.8,67.1-14-42.3,47.8-67.1,47.8-67.1Z"/>
        <path id="Vector_96" class="cls-5" d="M872.9,397.6c-1.8-2.3-4-4.2-6.5-5.7-2.5-1.4-5.3-2.4-8.2-2.8,4.3,3.7,9.3,6.6,14.7,8.4h0Z"/>
        <path id="Vector_97" class="cls-5" d="M870.7,400.8c-2-1.7-4.4-3-7-3.7s-5.2-.8-7.9-.4c4.6,2.4,9.7,3.8,14.8,4.1h.1Z"/>
        <path id="Vector_98" class="cls-14" d="M881.4,401.8c-1.1,3.5-.2,7.1,2,8,2.2.8,4.9-1.3,6-4.7,1.1-3.4.2-7.1-2-8s-4.9,1.2-6,4.7Z"/>
        <path id="Vector_99" class="cls-14" d="M922.5,418.6c-1.1,3.5-.2,7.1,2,8s4.7-1.3,6-4.7c1.3-3.4.2-7.1-2-8-2.2-.8-4.9,1.1-6,4.7Z"/>
        <path id="Vector_100" class="cls-14" d="M927.5,413.6l8.8.7s-6.2,5.2-8.8-.7Z"/>
        <path id="Vector_101" class="cls-13" d="M909.2,419.9c.4,9.3,2,18.4,4.7,27.3-2.2.6-4.4.7-6.6.3-2.2-.4-4.3-1.3-6.1-2.6l8.1-24.9h-.1Z"/>
        <path id="Vector_102" class="cls-14" d="M877.9,450.3c1.7,1.1,3.6,2,5.5,2.7h.8c0,0,.2-.1.3-.2s.2-.2.2-.3v-.8c0-.3-.3-.5-.6-.6-4.3-1.7-8.2-4.3-11.3-7.7s-5.5-7.4-6.9-11.8c0-.3-.2-.5-.5-.7-.2-.2-.5-.2-.8-.2s-.5.3-.6.5-.2.5,0,.8c2.4,7.6,7.4,14,14.2,18.1l-.2.2Z"/>
        <path id="Vector_103" class="cls-11" d="M801.7,393.9c0,4.2.7,8.4,2.3,12.3s4,7.4,7,10.4c7.9,6.9,16.9-1.6,19-13.5,1.9-10.7,0-27.1-9.9-29.2s-18.4,8.7-18.4,20h0Z"/>
        <path id="Vector_104" class="cls-14" d="M880.2,378.7h.8c.3,0,.5-.2.8-.3,2.2-1.5,4.7-2.4,7.3-2.7,2.6-.3,5.2,0,7.7,1.1.2.1.5.2.8.2h.8c.3,0,.5-.2.7-.4.2-.2.4-.4.5-.6.2-.5.2-1.1,0-1.7-.2-.5-.6-1-1.1-1.2-3.1-1.3-6.4-1.8-9.7-1.5s-6.5,1.5-9.2,3.3c-.5.3-.8.8-.9,1.4,0,.6,0,1.1.3,1.6.3.4.8.7,1.3.8h0Z"/>
        <path id="Vector_105" class="cls-14" d="M942.3,404.2c.2.1.5.2.8.2s.5,0,.8-.2c.3-.1.5-.3.7-.5s.3-.4.4-.7c0-.3,0-.5,0-.8s0-.6-.2-.8c-1.2-3.3-3.2-6.2-5.8-8.5-2.6-2.4-5.6-4.1-9-5.1-.5-.1-1,0-1.5.3-.4.3-.7.7-.9,1.2,0,.6,0,1.2.4,1.6.3.5.8.8,1.4,1,2.6.8,5,2.3,7,4.2s3.5,4.2,4.5,6.8c0,.3.2.6.4.8.2.2.5.5.7.6h.2Z"/>
        <path id="Vector_106" class="cls-14" d="M886.4,396.7l8.9.7s-6.2,5-8.9-.7Z"/>
        <path id="Vector_107" class="cls-11" d="M749.5,580.9l-14,28.9c-4.7,9.7-9.3,19.5-13.6,29.3-4.2,9.7-8.4,19.6-12,29.2-3.5,9.1-6.4,18.5-8.8,28l-.9-11.5c.4,2,1.2,3.9,2.4,5.5,1.9,3.1,4.2,6,6.7,8.7,5.8,6.5,12,12.6,18.6,18.3,6.8,6.1,14,12,21.4,17.9,7.5,5.9,15.1,11.7,22.4,17.4l.5.3c2.7,2,4.6,4.9,5.3,8.2s.3,6.7-1.3,9.6c-1.6,3-4.2,5.2-7.3,6.4s-6.6,1.3-9.7,0c-9.7-3.3-19.2-7.1-28.5-11.4-9.4-4.3-18.5-9.1-27.4-14.3-9.4-5.5-18.3-11.7-26.6-18.6-4.6-3.9-9-8.2-13-12.9-5.1-5.9-9.1-12.6-11.7-19.9-1.1-3.1-1.5-6.4-1.1-9.6v-2c1.6-12.5,4.3-24.9,8-36.9,3.3-11.7,7.3-22.7,11.5-33.7s8.9-21.6,13.7-32.1,9.9-20.7,15.8-31.3c3.5-6.4,9.4-11.1,16.4-13.2,7-2.1,14.5-1.4,21,2s11.4,9.1,13.6,16c2.3,6.9,1.8,14.5-1.4,21v.6h0Z"/>
        <path id="Vector_108" class="cls-15" d="M757,511.4c-30.3,0-43.6,7.1-77,62.7,7.5,23.9,55.5,53.2,55.5,53.2,0,0,51.8-66.7,21.6-115.9h0Z"/>
        <path id="Vector_109" class="cls-11" d="M807.6,789.8l-1.5-13.6c-.3-2.5-1.2-5-2.6-7.1-1.4-2.1-3.3-3.9-5.5-5.1l-21.1-11.7c-4.2-2.3-8.8-3.6-13.5-3.7s-9.5.9-13.7,3l-5.4,2.6c1.1,22.8,19,46.6,19,46.6l4.4,7.4c1.7,3.1,4.6,5.4,8,6.3,3.4,1,7,.6,10.1-1.2l14.7-8.4c2.6-1.5,4.6-3.8,5.9-6.4,1.3-2.7,1.8-5.7,1.4-8.6h-.2Z"/>
        <path id="Vector_110" class="cls-2" d="M1043.2,705.6h-159.8c-.8,0-1.5,0-2.3-.4-.7-.3-1.4-.7-2-1.2s-1-1.2-1.3-1.9-.5-1.5-.5-2.2,0-1.4.3-2l22.6-94.3c.6-2.1,1.8-4,3.4-5.3,1.7-1.4,3.7-2.2,5.9-2.4h159.8c.8,0,1.5,0,2.3.4.7.3,1.4.7,2,1.2s1,1.2,1.3,1.9.5,1.5.5,2.2,0,1.4-.3,2.1l-22.6,94.3c-.6,2.1-1.7,4-3.4,5.3-1.7,1.4-3.7,2.2-5.9,2.3h0Z"/>
        <path id="Vector_111" class="cls-15" d="M884,698c0,0-.3,0-.4-.2,0,0-.2-.2-.3-.3,0,0,0-.3-.2-.4v-.5l21.1-88c.6-2.4,2-4.5,3.9-6s4.3-2.4,6.7-2.5h152.1c.3,0,.6,0,.8.3.2.2.3.5.3.8s0,.6-.3.8-.5.3-.8.3h-152.3c-1.9,0-3.8.8-5.3,2s-2.6,2.9-3.1,4.7l-21,88c0,.3-.2.5-.4.6-.2.2-.5.2-.7.2v.2Z"/>
        <path id="Vector_112" class="cls-11" d="M1068,623.9l-2.1,1c-3.2,1.5-6,3.7-8.1,6.6-2.1,2.9-3.3,6.3-3.7,9.8l-1.3,19.9c-.2,1.8,0,3.7.6,5.4.6,1.8,1.5,3.4,2.7,4.8,1.2,1.4,2.6,2.6,4.3,3.4,1.6.8,3.4,1.4,5.2,1.5h2.8c2.3,0,4.4-1.1,6-2.7,1.6-1.6,2.6-3.8,2.7-6l1.6-36.4c.2-2-.5-3.9-1.7-5.4-1.3-1.5-3.1-2.5-5.1-2.6-1.4,0-2.8.2-4,.8h0Z"/>
      </g>
      <g id="Plant">
        <path id="Vector_113" class="cls-14" d="M1557.1,1480.5c-15.3-68.3,15.2-232.2,28-269.3,12.7-37.1,101-81.5,154.6-105.5s151.8,41.3,151.8,41.3c0,0-101.9-10.7-131.2,3.9-29.3,14.6-91.7,59.3-111.9,97.6-20.2,38.3-88.1,151.8-91.4,232h0Z"/>
        <path id="Vector_114" class="cls-14" d="M1371,1217c70.2,7.4,127.7,55.3,145.9,69.9,18.3,14.6,25.5,73.3,28.2,108.3s-53.7,77.4-53.7,77.4c0,0,26.6-55.2,24.2-74.6-2.3-19.4-15-63.5-32.6-82.7-17.7-19.2-55.9-69.8-112.1-98.3h0Z"/>
        <path id="Vector_115" class="cls-2" d="M1537.6,1436.2c6.6-95.7-39.2-158.8-32.6-234.6,6.6-75.8,92-244.9,99.4-292.7,14,42.3-47.6,245.9-44.9,301,2.7,55.2,31.7,166.5-21.9,226.2h0Z"/>
        <path id="Vector_116" class="cls-9" d="M1537.6,1436.2c6.6-95.7-39.2-158.8-32.6-234.6,6.6-75.8,92-244.9,99.4-292.7,14,42.3-47.6,245.9-44.9,301,2.7,55.2,31.7,166.5-21.9,226.2h0Z"/>
        <path id="Vector_117" class="cls-2" d="M1467.7,1065c11.5,1.9,22.2,7,30.9,14.7s15.1,17.7,18.4,28.8c-7.6,9.1-17.5,16-28.6,19.9-11.1,4-23.1,4.9-34.8,2.6-31.1-5.8-41.9-23.3-38.2-41.3,3.8-18,21.1-30.4,52.2-24.7h0Z"/>
        <path id="Vector_118" class="cls-2" d="M1564.9,1112.5c-3.3,6.9-8.6,12.8-15,16.9-6.5,4.1-14,6.3-21.7,6.4-4.4-6.5-7-14-7.5-21.9-.5-7.8,1.1-15.6,4.6-22.6,9.3-18.6,22.5-22.6,33.4-16.8,10.9,5.8,15.6,19.2,6.2,38Z"/>
        <path id="Vector_119" class="cls-2" d="M1543.8,1274.2c5.6,5.4,9.5,12.2,11.4,19.6s1.6,15.3-.8,22.7c-7.6,2.1-15.6,2.1-23.1,0-7.6-2-14.5-6.1-20-11.7-14.8-14.9-14.3-28.5-5.3-37s23-8.7,37.8,6.2v.2Z"/>
        <path id="Vector_120" class="cls-2" d="M1581.3,1361.7c-3.7,3-8.2,4.9-12.9,5.5-4.7.6-9.5,0-13.9-2.1-.7-4.8-.2-9.7,1.6-14.2,1.8-4.5,4.8-8.4,8.6-11.4,10.2-8,18.6-6.7,23.1-.6,4.4,6.2,3.6,14.7-6.6,22.8h.1Z"/>
        <path id="Vector_121" class="cls-2" d="M1610.3,1228.7c-7,8.2-16.2,14.3-26.5,17.5s-21.3,3.5-31.8.7c-3.5-10.4-4.2-21.5-2-32.2s7.2-20.7,14.6-28.8c19.5-21.9,38.5-22.2,51.3-10.4,12.8,11.8,13.9,31.4-5.6,53.2h0Z"/>
        <path id="Vector_122" class="cls-14" d="M1541.6,1439.3h-.5c-.6,0-1.1-.5-1.5-1-.3-.5-.5-1.1-.4-1.7,33.1-172.8,2.4-322.9-91.3-446-.4-.4-.7-1-.7-1.7s.2-1.2.7-1.7c.2-.2.5-.4.7-.5.3,0,.6-.2.9-.2s.6,0,.9.2c.3,0,.5.3.8.5v.2c94.5,124.3,125.6,275.6,92.2,449.8,0,.5-.3,1-.6,1.3-.3.4-.8.6-1.3.7h.1Z"/>
        <path id="Vector_123" class="cls-2" d="M1458.9,936.9c8.4,10.6,13.7,23.3,15.3,36.8,1.5,13.4-.7,27-6.6,39.3-13.6,1.9-27.5.2-40.2-5.1s-23.8-13.9-32.1-24.8c-22.4-29.3-18.2-52.8-.7-65.5s41.9-9.9,64.3,19.5v-.2Z"/>
        <path id="Vector_124" class="cls-2" d="M1440.4,1439.6l-5.1,73.3,4.7.3,5.1-73.3-4.7-.3Z"/>
        <path id="Vector_125" class="cls-2" d="M1433.1,1538.5l-2.2,31.2,4.7.3,2.2-31.2-4.7-.3Z"/>
        <path id="Vector_126" class="cls-2" d="M1660.9,1388.2h-203.8l-21.1,295.7h246l-21.1-295.7Z"/>
        <path id="Vector_127" class="cls-2" d="M1711.9,1648.7c-22.6,0-44.8-6.7-63.6-19.3-18.8-12.6-33.5-30.5-42.2-51.4s-10.9-43.9-6.5-66.1,15.3-42.6,31.3-58.6,36.4-26.9,58.6-31.3,45.2-2.2,66.1,6.5,38.8,23.3,51.4,42.2c12.6,18.8,19.3,41,19.3,63.6s-12.1,59.4-33.6,80.9-50.6,33.5-80.9,33.6h0ZM1711.9,1429.1c-20.8,0-41.1,6.2-58.4,17.7s-30.8,28-38.7,47.2c-8,19.2-10,40.4-6,60.8,4.1,20.4,14.1,39.1,28.8,53.8s33.4,24.7,53.8,28.8c20.4,4.1,41.5,2,60.8-6,19.2-7.9,35.6-21.4,47.2-38.7,11.5-17.3,17.7-37.6,17.7-58.4s-11.1-54.6-30.8-74.3-46.4-30.8-74.3-30.8h0Z"/>
      </g>
    </g>
  </g>
</svg>