<?xml version="1.0" encoding="UTF-8"?>
<svg xmlns="http://www.w3.org/2000/svg" version="1.1" viewBox="0 0 2599 1936">
  <defs>
    <style>
      .cls-1 {
        fill: #e0e0e0;
      }

      .cls-2 {
        opacity: .3;
      }

      .cls-2, .cls-3, .cls-4, .cls-5, .cls-6, .cls-7, .cls-8 {
        isolation: isolate;
      }

      .cls-3, .cls-6, .cls-9, .cls-7 {
        opacity: .2;
      }

      .cls-10 {
        fill: #e6e6e6;
      }

      .cls-11 {
        fill: #ed847e;
      }

      .cls-12 {
        fill: #ebebeb;
      }

      .cls-13 {
        fill: #263238;
      }

      .cls-4 {
        opacity: .6;
      }

      .cls-4, .cls-5, .cls-6, .cls-14 {
        fill: #fafafa;
      }

      .cls-5, .cls-15, .cls-8 {
        opacity: .4;
      }

      .cls-16, .cls-7, .cls-8 {
        fill: #fff;
      }

      .cls-17 {
        fill: #f0f0f0;
      }

      .cls-18 {
        fill: #ffc3bd;
      }

      .cls-19 {
        fill: #f5f5f5;
      }

      .cls-20 {
        fill: #0045b6;
      }

      /* Head movement: left to right slowly */
      #head {
        animation: moveHead 2s infinite alternate;
      }
      
      @keyframes moveHead {
        0% {
          transform: translateY(0);
        }
        100% {
          transform: translateY(10px);
        }
      }

      /* Reel and Reel2 spinning with glowing effect */
      #reel, #reel2 {
        animation: spinReel 5s linear infinite, glow 1s ease-in-out infinite alternate;
        transform-origin: 50% 50%; 
        filter: drop-shadow(0 0 5px #407bff);
      }

      /* Keyframes for spinning */
      @keyframes spinReel {
        0% {
          transform: rotate(0deg);
        }
        50% {
          transform: rotate(5deg); 
        }
        100% {
          transform: rotate(0deg); 
        }
      }

      /* Keyframes for glowing effect */
      @keyframes glow {
        from {
          filter: drop-shadow(0 0 5px #407bff);
        }
        to {
          filter: drop-shadow(0 0 35px #407bff);
        }
      }

      /* Right arm movement: up and down slightly */
      #rightarm {
        animation: moveArm 2s infinite alternate;
      }

      @keyframes moveArm {
        0% {
          transform: translateY(0);
        }
        100% {
          transform: translateY(20px);
        }
      }
    </style>
  </defs>
  <!-- Generator: Adobe Illustrator 28.7.0, SVG Export Plug-In . SVG Version: 1.2.0 Build 136)  -->
  <g>
    <g id="Layer_1">
      <path class="cls-12" d="M2598.2,1701.3H0v1.3h2598.2v-1.3Z"/>
      <path class="cls-12" d="M2337.9,1784.9h-172.1v1.3h172.1v-1.3Z"/>
      <path class="cls-12" d="M1721.2,1799.1h-45.2v1.3h45.2v-1.3Z"/>
      <path class="cls-12" d="M2160.6,1736.7h-99.7v1.3h99.7v-1.3Z"/>
      <path class="cls-12" d="M497,1745.4h-224.4v1.3h224.4v-1.3Z"/>
      <path class="cls-12" d="M576.2,1745.4h-32.9v1.3h32.9v-1.3Z"/>
      <path class="cls-12" d="M1170,1767.4h-486.8v1.3h486.8v-1.3Z"/>
      <path class="cls-12" d="M1231.6,1469.6H228.2c-7.9,0-15.4-3.1-20.9-8.7-5.6-5.6-8.7-13.1-8.7-21V29.4c0-7.8,3.2-15.3,8.8-20.8C212.9,3.1,220.4,0,228.2,0h1003.4c7.9,0,15.4,3.1,21,8.7,5.6,5.6,8.7,13.1,8.7,21v1410.2c0,7.9-3.1,15.4-8.7,21-5.6,5.6-13.1,8.7-21,8.7ZM228.2,1c-7.5,0-14.7,3-20,8.3-5.3,5.3-8.3,12.5-8.3,20v1410.5c0,7.5,3,14.7,8.3,20,5.3,5.3,12.5,8.3,20,8.3h1003.4c7.5,0,14.7-3,20-8.3,5.3-5.3,8.3-12.5,8.3-20V29.4c0-7.5-3-14.7-8.3-20-5.3-5.3-12.5-8.3-20-8.3H228.2Z"/>
      <path class="cls-12" d="M2355.6,1469.6h-1003.4c-7.9,0-15.4-3.1-21-8.7s-8.7-13.1-8.7-21V29.4c0-7.8,3.2-15.3,8.8-20.8,5.6-5.5,13.1-8.6,20.9-8.6h1003.4c7.8,0,15.3,3.1,20.8,8.6,5.5,5.5,8.7,13,8.7,20.8v1410.5c0,7.8-3.1,15.4-8.6,20.9-5.5,5.6-13.1,8.7-20.9,8.7ZM1352.2,1c-7.5,0-14.7,3-20.1,8.3-5.3,5.3-8.3,12.5-8.3,20v1410.5c0,7.5,3,14.7,8.3,20,5.3,5.3,12.5,8.3,20.1,8.3h1003.4c7.5,0,14.7-3,20-8.3,5.3-5.3,8.3-12.5,8.3-20V29.4c0-7.5-3-14.7-8.3-20-5.3-5.3-12.5-8.3-20-8.3h-1003.4Z"/>
      <path class="cls-19" d="M2158.7,355.4h-503.8v630.5h503.8V355.4Z"/>
      <path class="cls-12" d="M1826.2,422.5v277.2l116.5-6.2,13.4-271h-129.9Z"/>
      <path class="cls-1" d="M1920.5,476.2h179.2l-1.6,242.7-92.8,1.4-84.9-244Z"/>
      <path class="cls-10" d="M1746,440.4h47.1l-16.5,216.5-59,13.8,28.3-230.3Z"/>
      <path class="cls-19" d="M933.4,355.4h-503.9v630.5h503.9V355.4Z"/>
      <path class="cls-1" d="M662.5,433.4l191.3,346.3-341,50.1,149.8-396.4Z"/>
      <path class="cls-12" d="M883.2,407.8l-374.2,531.3h240l-267.7-475.4v281.2l390.3-121.2,11.6-216Z"/>
      <path class="cls-10" d="M1042.2,985.9h503.9V355.4h-503.9v630.5Z"/>
      <path class="cls-1" d="M1157.5,829.8l264.8-267.6-286.4-48.6,21.7,316.3Z"/>
      <path class="cls-17" d="M1415.8,766.3l13.2-205.2-199.4,50.4-14.4,157,200.7-2.2Z"/>
      <path class="cls-14" d="M1155.1,560.3c44.5,0,80.5-37.1,80.5-82.8s-36-82.8-80.5-82.8-80.5,37.1-80.5,82.8,36,82.8,80.5,82.8Z"/>
      <path class="cls-1" d="M1389.8,839.5c.2-7.7,2.7-15.1,7.1-21.4,4.4-6.3,10.6-11.1,17.7-13.9,7.2-2.8,15-3.4,22.4-1.8,7.5,1.6,14.4,5.4,19.7,10.9s9,12.5,10.4,20c1.4,7.5.6,15.3-2.4,22.4-3,7.1-8,13.1-14.4,17.3s-13.9,6.5-21.6,6.5c-10.5-.2-20.5-4.5-27.8-12-7.3-7.5-11.3-17.6-11.2-28.1Z"/>
      <path class="cls-19" d="M1419.6,910.1l-112.7-70.5,94.7-80.3,18,150.8Z"/>
      <path class="cls-1" d="M1286.4,435.6h-22.1v503.5h22.1v-503.5Z"/>
      <path class="cls-12" d="M1498.8,435.6h-28.7v481.2h28.7v-481.2Z"/>
      <path class="cls-12" d="M1239.2,768.5h-146.4v150.6h146.4v-150.6Z"/>
      <path class="cls-12" d="M428.2,1373.8h310.3c4.7,0,9.2,1.9,12.5,5.2,3.3,3.3,5.2,7.8,5.2,12.5v60.8h-345.7v-60.7c0-2.3.4-4.6,1.3-6.8.9-2.2,2.2-4.1,3.8-5.8,1.6-1.7,3.6-2.9,5.8-3.8,2.2-.9,4.5-1.3,6.8-1.3Z"/>
      <path class="cls-12" d="M783.6,1373.8h310.3c4.7,0,9.2,1.9,12.5,5.2,3.3,3.3,5.2,7.8,5.2,12.5v60.8h-345.7v-60.7c0-2.3.4-4.6,1.3-6.8s2.2-4.1,3.8-5.8c1.6-1.7,3.6-3,5.7-3.8,2.1-.9,4.4-1.3,6.8-1.3Z"/>
      <path class="cls-12" d="M1139,1373.8h310.3c4.7,0,9.2,1.9,12.5,5.2,3.3,3.3,5.2,7.8,5.2,12.5v60.8h-345.7v-60.7c0-2.3.4-4.6,1.3-6.8.9-2.2,2.2-4.1,3.8-5.8,1.6-1.7,3.6-3,5.7-3.8,2.2-.9,4.5-1.3,6.8-1.3Z"/>
      <path class="cls-12" d="M1494.3,1373.8h310.3c4.7,0,9.2,1.9,12.5,5.2,3.3,3.3,5.2,7.8,5.2,12.5v60.8h-345.7v-60.7c0-2.3.4-4.6,1.3-6.8.9-2.2,2.2-4.1,3.8-5.8,1.6-1.7,3.6-3,5.7-3.8,2.1-.9,4.4-1.3,6.8-1.3Z"/>
      <path class="cls-12" d="M1849.7,1373.8h310.3c4.7,0,9.2,1.9,12.5,5.2,3.3,3.3,5.2,7.8,5.2,12.5v60.8h-345.7v-60.7c0-2.3.4-4.6,1.3-6.8.9-2.2,2.2-4.1,3.8-5.8,1.6-1.7,3.6-3,5.7-3.8,2.2-.9,4.4-1.3,6.8-1.3Z"/>
      <path class="cls-1" d="M2214,1416.6H374.2v64.2h1839.8v-64.2Z"/>
      <path class="cls-1" d="M2258.1,1705.5h-26v-194.8c0-7.8-3.1-15.3-8.7-20.8-5.5-5.5-13-8.7-20.9-8.7H385.6c-7.8,0-15.3,3.1-20.9,8.7-5.5,5.5-8.6,13-8.7,20.8v194.8h-26v-194.8c0-14.7,5.9-28.8,16.3-39.2,10.4-10.4,24.5-16.2,39.2-16.3h1817.1c14.7,0,28.8,5.9,39.2,16.3,10.4,10.4,16.3,24.5,16.3,39.2v194.8Z"/>
      <path class="cls-1" d="M1307.1,1448.7h-26v256.8h26v-256.8Z"/>
      <path class="cls-19" d="M1299.1,1936c556.4,0,1007.5-26.3,1007.5-58.8s-451.1-58.8-1007.5-58.8-1007.5,26.3-1007.5,58.8,451.1,58.8,1007.5,58.8Z"/>
      <g id="reel2">
        <path class="cls-20" d="M1880.3,1009.6c-17.9-250.2-184.1-442.3-371.2-428.9-6.3.4-12.5,1.1-18.7,2h-.4c-187.1,13.4-324.3,227.1-306.6,477.3,17.7,250.3,184.1,442.3,371.2,428.9,6.3-.5,12.5-1.1,18.7-2.1h.4c187.3-13.4,324.5-227.1,306.6-477.4ZM1821.1,1015.7c3.7,53.8-22.8,100.3-60.9,110.7-41.6-2-76.7-45.9-80.5-102-3.8-53.8,22.8-100.3,60.8-110.7,41.3,2,76.7,45.8,80.6,101.9ZM1650.1,681.5c40.3,27.5,57.6,92.4,38.6,145-10.8,29.9-31.2,49.3-53.7,55.5-12.4-.8-24.3-5-34.5-12.2-40.3-27.5-57.5-92.4-38.6-145,10.8-29.9,30.9-49.4,53.7-55.6,12.4.8,24.3,5,34.4,12.1ZM1503.6,1107.6c-1.3-4.8-1.1-9.8.5-14.4.5-1.4,1.2-2.8,2.1-4.1,2.8,3.2,4.7,7.1,5.5,11.2.8,4.2.5,8.5-1,12.5-.5,1.5-1.2,2.8-2,4.1-2.5-2.6-4.2-5.8-5.1-9.2ZM1519.1,1035.4c-.6-5.1,0-10.2,1.9-15,1.8-4.8,4.7-9.1,8.5-12.5,4.5,2.8,8.3,6.6,11,11.2,2.7,4.6,4.1,9.8,4.3,15.1.6,5.1,0,10.2-1.9,15-1.8,4.8-4.7,9.1-8.5,12.5-4.6-2.8-8.3-6.6-11-11.2-2.7-4.6-4.1-9.8-4.2-15.1h0ZM1560.3,962c1.3,4.8,1.1,9.8-.5,14.4-.5,1.5-1.2,2.8-2,4.1-2.8-3.2-4.7-7-5.6-11.2-.8-4.2-.5-8.5.9-12.5.5-1.4,1.2-2.8,2.1-4.1,2.5,2.6,4.3,5.8,5.2,9.2h0ZM1242.8,1054c-3.7-53.8,22.8-100.3,60.8-110.7,41.6,2,76.7,45.9,80.6,102,3.7,53.8-22.8,100.3-60.9,110.7-41.3-2.1-76.6-45.9-80.5-102h0ZM1413.8,1388.1c-40.3-27.5-57.6-92.5-38.6-145,10.8-29.9,31.2-49.3,53.7-55.5,12.4.8,24.3,5,34.4,12.2,40.3,27.5,57.6,92.4,38.6,145-10.8,29.9-31.2,49.3-53.7,55.5-12.4-.8-24.3-5-34.4-12.1h0ZM1500.2,961.3c2.3,4.4,3.1,9.3,2.5,14.2-.4,3.2-1.5,6.3-3.2,9-1.3-1.3-2.4-2.8-3.3-4.4-2.2-4.4-3.1-9.4-2.5-14.3.4-3.2,1.5-6.3,3.2-9,1.3,1.3,2.4,2.8,3.3,4.5ZM1479.1,1038.9c.4,4.8-.7,9.7-3.3,13.8-3.6-3.8-5.7-8.7-5.9-13.9-.4-4.8.7-9.6,3.3-13.7,3.6,3.7,5.7,8.6,5.9,13.8h0ZM1459.6,732.7c26,49.5,17.8,116.2-18.3,148.8-7.9,7.3-17.4,12.7-27.7,15.6-25.1-1.3-49.9-18.1-65.7-48.2-26-49.6-17.8-116.2,18.3-148.9,7.9-7.3,17.4-12.7,27.7-15.6,25.1,1.5,49.9,18.1,65.7,48.2ZM1563.5,1108.5c-1.9-3.6-2.8-7.7-2.6-11.7.1-4.1,1.3-8,3.4-11.5,1.3,1.3,2.4,2.8,3.2,4.5,2.3,4.4,3.1,9.4,2.5,14.2-.4,3.2-1.5,6.3-3.2,9-1.2-1.4-2.3-2.9-3.1-4.5h-.2ZM1584.9,1030.9c-.4-4.8.8-9.7,3.3-13.8,3.6,3.8,5.6,8.7,5.9,13.9.4,4.8-.8,9.7-3.3,13.8-3.5-3.8-5.6-8.7-5.9-13.9ZM1604.5,1337c-26-49.5-17.9-116.2,18.2-148.8,7.9-7.3,17.4-12.7,27.7-15.6,25.2,1.2,49.9,18,65.7,48.1,26,49.6,17.9,116.2-18.2,148.9-7.9,7.3-17.4,12.7-27.7,15.6-25.3-1.3-50.1-18-65.9-48.2h.2Z"/>
        <path class="cls-3" d="M1509.1,580.7c-187.1,13.4-324.3,227.1-306.6,477.3,17.7,250.2,184.1,442.3,371.2,428.9,187.1-13.4,324.3-227.1,306.6-477.4-17.7-250.3-184.1-442.3-371.2-428.9ZM1561.9,725c19-52.6,67-72.8,107.2-45.5,40.3,27.3,57.6,92.4,38.6,145-19,52.6-66.9,72.8-107.2,45.5-40.3-27.3-57.6-92.4-38.7-145ZM1613.1,1028.9c.7,10.4-5.2,19.3-12.8,19.9-7.8.5-14.8-7.5-15.6-18-.8-10.5,5.2-19.3,12.8-19.9,7.6-.6,14.8,7.5,15.5,17.9h0ZM1553.2,956.9c.7-2.7,2.1-5.1,4.2-6.9,2.1-1.8,4.6-3.1,7.3-3.5,2.6-.1,5.2.6,7.4,2.2,3.7,2.7,6.3,6.6,7.3,11.1,1.3,4.8,1.1,9.8-.5,14.4-.7,2.6-2.2,5-4.3,6.8-2,1.8-4.6,3-7.3,3.3-2.7.2-5.3-.6-7.4-2.1-3.6-3-6.2-7.1-7.4-11.6-1.2-4.5-1-9.3.6-13.8ZM1519.3,959.2c2.3,4.4,3.1,9.3,2.5,14.2-.4,4.6-2.4,8.8-5.8,12-1.9,1.8-4.3,2.9-6.9,3.1-2.7,0-5.4-.8-7.7-2.3-2.3-1.5-4.1-3.6-5.2-6.2-2.2-4.4-3.1-9.4-2.5-14.3.4-4.5,2.5-8.8,5.7-12,1.9-1.8,4.4-2.9,7-3.1,2.7,0,5.4.8,7.7,2.3s4.1,3.7,5.2,6.2ZM1366.2,700c36.4-32.6,86.5-19,112.5,30.6,26,49.6,17.9,116.5-18.5,148.9-36.4,32.4-86.5,18.9-112.6-30.6-26-49.5-17.3-116.1,18.5-148.9ZM1498.2,1036.8c.7,10.4-5.2,19.3-12.8,19.8-7.8.6-14.8-7.5-15.6-18-.8-10.4,5.2-19.3,12.8-19.8,7.6-.5,14.9,7.5,15.6,18ZM1242.9,1054c-4.1-59.2,28.5-109.7,72.8-112.8,44.3-3,83.6,42.7,87.7,101.9,4.1,59.2-28.5,109.8-72.8,112.8-44.3,3-83.5-42.6-87.7-101.9ZM1521.1,1342.7c-19,52.6-67,72.8-107.2,45.5-40.3-27.3-57.6-92.5-38.6-145s66.9-72.8,107.2-45.5c40.3,27.3,57.6,92.4,38.7,145ZM1529.8,1110.8c-.7,2.6-2.2,5-4.3,6.8-2,1.8-4.6,3-7.3,3.4-2.6.2-5.2-.6-7.4-2.1-3.7-2.7-6.3-6.7-7.4-11.1-1.3-4.8-1.1-9.8.5-14.4.7-2.7,2.2-5.1,4.2-6.9,2.1-1.8,4.6-3.1,7.3-3.5,2.7-.1,5.3.6,7.4,2.1,3.7,3.1,6.3,7.2,7.5,11.8,1.2,4.6,1,9.5-.7,14ZM1519.4,1035.4c-1.2-16.5,7.9-30.6,20.2-31.4,12.3-.9,23.3,11.7,24.5,28.3,1.2,16.5-7.8,30.6-20.2,31.4-12.3.9-23.6-11.8-24.7-28.3h.3ZM1563.9,1108.5c-2.2-4.2-3.1-8.9-2.6-13.7.6-4.7,2.6-9.1,5.8-12.6,1.9-1.8,4.4-2.9,7-3.1,2.8,0,5.4.8,7.7,2.3,2.3,1.5,4.1,3.7,5.2,6.2,2.2,4.4,3.1,9.4,2.5,14.2-.4,4.5-2.4,8.8-5.7,12-1.9,1.8-4.3,2.9-7,3.1-2.8,0-5.5-.7-7.9-2.2-2.3-1.5-4.2-3.7-5.3-6.2h.3ZM1717.1,1367.6c-36.1,32.7-86.5,19-112.5-30.6-26-49.6-17.9-116.2,18.2-148.8,36.1-32.6,86.5-19,112.5,30.6,26,49.6,17.6,116.2-18.5,148.8h.3ZM1767.6,1126.3c-44.3,3-83.6-42.6-87.7-101.9-4.1-59.3,28.5-109.7,72.8-112.7,44.3-3,83.6,42.6,87.7,101.8,4.1,59.2-28.7,109.7-73,112.8h.3Z"/>
      </g>
      <path class="cls-6" d="M1645.3,510.1c310.7,28.4,332.6,417.3,312.1,566.4l-161.1-50.2s-31.2-467.2-341.8-495.6c0,0-30.7-3.8-88.7,6.1,86.2-19.2,174.4-28.4,262.8-27.5"/>
      <path class="cls-13" d="M1645.3,510.1c310.7,28.4,332.6,417.3,312.1,566.4l-161.1-50.2s-31.2-467.2-341.8-495.6c0,0-30.7-3.8-88.7,6.1,86.2-19.2,174.4-28.4,262.8-27.5"/>
      <path class="cls-13" d="M1628.5,509.3c-33.4-.7-66.2.6-96.7,3-8.5,3-16.9,6.4-25,10.4-11.5.7-22.8,1.5-33.7,2.3,5.9-3.3,11.9-6.2,18.1-9-42.2,4.6-84.1,11.5-125.6,20.8h.3c-261.9,64.4-285.8,536.5-436.5,501.5l2.4.8s93.5,36.4,192.9,26.7l-3.1-.8c157.1,15.6,181.6-566.4,507.1-556l-.4.4ZM1329.5,550.8c7.4-1.2,15.2-2.5,23.3-3.7-9.5,5.7-18.7,11.9-27.5,18.6-8.5,1.5-16.6,3-23.9,4.5,9-7,18.4-13.4,28.1-19.4ZM1292.2,577.5c7.1-1.3,14.8-2.5,22.8-3.8-6.7,5.5-13.2,11.3-19.4,17.3-8.5,1.5-16.4,3-23.6,4.4,6.4-6.1,13.2-12.2,20.3-17.9h0ZM1264.8,602.4c7.2-1.2,14.8-2.5,22.9-3.7-5.2,5.2-10.4,10.9-15.6,16.7-8.5,1.4-16.4,2.9-23.5,4.2,5.2-5.9,10.6-11.6,16.2-17.1h0ZM1242.6,626.3l23-3.6c-4.5,5.2-8.9,10.4-13.2,16.1-8.5,1.4-16.4,2.7-23.6,4,4.6-5.6,9.1-11.1,13.8-16.5h0ZM1223.5,649.8c7.2-1.1,14.9-2.2,23.1-3.4-3.9,5.1-7.7,10.3-11.5,15.6-8.4,1.2-16.3,2.4-23.5,3.6,3.8-5.2,7.8-10.5,11.9-15.8h0ZM1206.4,672.9c7.3-1,15.1-2.1,23.2-3-3.5,5.2-6.9,10.1-10.4,15.3-8.4,1.1-16.4,2.3-23.6,3.4,3.6-5.3,7.2-10.5,10.8-15.6h0ZM1190.8,695.9c7.3-.9,15.1-1.8,23.3-2.6-3.2,4.9-6.3,10-9.4,15.1-8.4.9-16.3,1.9-23.6,2.9,3.3-5.1,6.5-10.2,9.8-15.3h-.1ZM1176.3,719c7.4-.8,15.2-1.6,23.4-2.3-3,4.9-5.8,9.8-8.6,14.8-8.4.8-16.2,1.7-23.6,2.5l8.8-15ZM1162.9,742.2c7.4-.7,15.2-1.4,23.3-1.9-2.8,4.8-5.2,9.7-8,14.6-8.3.6-16.2,1.4-23.7,2.1,2.9-4.9,5.6-9.8,8.5-14.8h0ZM1019.5,1031.7l-23.3-2.3c4.7-3.9,9.1-8.2,13.2-12.7,7.3.8,15,1.5,23.1,2.2-4,4.5-8.3,8.9-12.8,12.9h-.1ZM1044.2,1004.7l-23.1-1.8c3.2-4.2,6.5-8.6,9.7-13.3l23,1.8c-3.1,4.7-6.2,9.2-9.4,13.4h-.3ZM1063.2,976.9c-8.1-.5-15.6-1-23.2-1.4,2.7-4.4,5.5-8.9,8.3-13.6l23.1,1.4c-2.6,4.7-5.4,9.2-8.1,13.5h-.1ZM1079.6,949l-23.2-1c2.5-4.4,5.2-9,7.5-13.7l23.1,1c-2.3,4.7-4.8,9.2-7.3,13.7h0ZM1094.6,921.1l-23.3-.6c2.3-4.5,4.7-9.1,7.1-13.8l23.3.6c-2.3,4.7-4.6,9.3-6.9,13.8h0ZM1108.7,893.2h-23.4c2.3-4.6,4.6-9.2,6.9-13.9h23.3c-2.2,4.7-4.5,9.4-6.8,14h0ZM1122.4,865.4c-8.3,0-16.1,0-23.5.3,2.3-4.6,4.6-9.4,7-14,7.4,0,15.2,0,23.4-.3l-6.8,14.1ZM1135.9,837.6l-23.5.7c2.3-4.7,4.7-9.5,7.1-14.2l23.3-.7-7,14.2ZM1149.6,809.9l-23.5,1.2,7.3-14.4c7.4-.4,15.2-.8,23.4-1.1-2.3,4.6-4.7,9.8-7.1,14.3h-.1ZM1139.9,783.9c2.6-4.9,5.2-9.8,7.8-14.7,7.4-.5,15.2-1,23.4-1.5-2.6,4.8-5.2,9.6-7.6,14.4-8.2.7-16.1,1.2-23.5,1.9v-.2ZM1157.4,1041.9l-25.5-1.5c5.8-3.8,11.2-8.1,16.2-13l24.8,1.3c-4.7,4.9-9.9,9.4-15.4,13.3v-.2ZM1186.4,1013.5l-24.5-1.4c3.3-4.2,6.7-8.7,10-13.5,7.9.5,16.1.9,24.4,1.3-3.2,5-6.3,9.5-9.8,13.7v-.2ZM1206.2,984.6l-24.2-1.2c2.6-4.4,5.3-8.9,8-13.6l24.2,1.2c-2.5,4.9-5.1,9.4-7.8,13.8v-.2ZM1222.5,955.5l-24.2-1.2c2.4-4.5,4.7-9,7.1-13.6l24.1,1.2c-2.2,4.8-4.5,9.4-6.9,13.8v-.2ZM1237,926.3l-24.1-1.1c2.2-4.5,4.4-9.1,6.5-13.7,7.8.4,15.9.7,24.1,1.2-2.1,4.8-4.2,9.4-6.4,13.9v-.2ZM1250.5,897.1l-24-1,6.2-13.7,24,1.1c-2,4.8-4.1,9.4-6.1,13.9v-.2ZM1263.8,867.8l-24.1-.9,6.1-13.8c7.8.3,15.6.6,24,1l-6,13.7ZM1276.7,838.6l-24.1-.8c2-4.6,4.1-9.1,6.1-13.8l24.1.9-6.1,13.7ZM1289.7,809.4c-8.2,0-16.3-.6-24.2-.7,2.1-4.6,4.2-9.2,6.3-13.8l24.2.8c-2,4.6-4.2,9.4-6.2,13.9v-.2ZM1303.1,780.2l-24.3-.6c2.1-4.6,4.3-9.2,6.5-13.8,7.9,0,16,.4,24.2.7-2.2,4.8-4.4,9.4-6.5,14v-.2ZM1316.9,751.1c-8.3-.3-16.4-.4-24.4-.5,2.3-4.7,4.6-9.3,6.9-13.9,8,0,16.1.3,24.4.6-2.3,4.8-4.6,9.4-6.9,14v-.2ZM1329.8,725.5h-24.6c2.4-4.7,4.8-9.4,7.3-14h24.6c-2.4,4.9-4.9,9.6-7.3,14.2v-.2ZM1343.3,700.2c-8.5,0-16.9,0-25,.3,2.6-4.7,5.2-9.5,8-14.1h24.9c-2.7,4.7-5.3,9.4-7.9,14v-.2ZM1357.8,675.5c-8.7,0-17.2.4-25.4.7,2.9-4.8,5.7-9.6,8.7-14.3,8.3-.3,16.7-.4,25.4-.5-3,4.5-5.9,8.9-8.7,14.1ZM1373.4,650.4c-8.8.3-17.5.6-26,1,3.1-4.9,6.3-9.7,9.6-14.4,8.5-.3,17.1-.6,26-.8-3.1,4.5-6.3,9.2-9.5,14v.2ZM1390.9,625.5c-9,.4-17.8.8-26.5,1.4,3.6-5.2,7.3-9.9,11-14.6,8.6-.5,17.5-.9,26.6-1.1-3.6,4.5-7.3,9.2-11,14.2l-.2.2ZM1410.7,600.4c-9.3.5-18.3,1.1-27.2,1.7,4.2-5.2,8.5-10,12.9-14.9,8.9-.6,18.1-1,27.4-1.5-4.3,4.6-8.7,9.4-13,14.4l-.2.2ZM1434.3,575.1c-9.7.6-19.2,1.2-28.3,2,5.2-5.2,10.4-10.4,15.6-15.1,9.3-.7,18.9-1.2,28.7-1.8-5.2,4.6-10.6,9.6-16.1,14.7v.2ZM1463.9,549.4c-10.4.6-20.3,1.4-30,2.2,6.8-5.6,13.9-10.8,21.2-15.6,10-.7,20.3-1.3,30.9-1.8-7.6,4.6-14.9,9.6-21.9,15l-.2.2Z"/>
      <path class="cls-5" d="M1618.1,508.9h10.4c-3.4.3-6.9,0-10.4,0ZM1507,522.6c-11.5.7-22.8,1.5-33.7,2.3,5.9-3.3,12-6.2,18.1-9-6.7.7-13.2,1.6-19.6,2.3-41.6,5.2-74.5,11.7-92,15.6-8,1.7-12.9,2.9-13.8,3.1-261.9,64.4-285.8,536.5-436.5,501.4l2.4.8s93.5,36.4,192.9,26.7l-3.1-.7c155.4,15.6,181-553.7,496.6-556-29.8-.3-59,1-86.3,3.1-8.6,3-16.9,6.5-25.1,10.4ZM1329.5,550.8c7.4-1.2,15.2-2.5,23.3-3.7-9.5,5.7-18.7,11.9-27.5,18.6-8.5,1.5-16.6,3-23.9,4.5,9-7,18.4-13.4,28.1-19.4ZM1292.2,577.5c7.1-1.3,14.8-2.5,22.8-3.8-6.7,5.5-13.2,11.3-19.4,17.3-8.5,1.5-16.4,3-23.6,4.4,6.4-6.1,13.2-12.2,20.3-17.9h0ZM1264.8,602.4c7.2-1.2,14.8-2.5,22.9-3.7-5.2,5.2-10.4,10.9-15.6,16.7-8.5,1.4-16.4,2.9-23.5,4.2,5.2-5.9,10.6-11.6,16.2-17.1h0ZM1242.6,626.3l23-3.6c-4.5,5.2-8.9,10.4-13.2,16.1-8.5,1.4-16.4,2.7-23.6,4,4.6-5.6,9.1-11.1,13.8-16.5h0ZM1223.5,649.8c7.2-1.1,14.9-2.2,23.1-3.4-3.9,5.1-7.7,10.3-11.5,15.6-8.4,1.2-16.3,2.4-23.5,3.6,3.8-5.2,7.8-10.5,11.9-15.8h0ZM1206.4,672.9c7.3-1,15.1-2.1,23.2-3-3.5,5.2-6.9,10.1-10.4,15.3-8.4,1.1-16.4,2.3-23.6,3.4,3.6-5.3,7.2-10.5,10.8-15.6h0ZM1190.8,695.9c7.3-.9,15.1-1.8,23.3-2.6-3.2,4.9-6.3,10-9.4,15.1-8.4.9-16.3,1.9-23.6,2.9,3.3-5.1,6.5-10.2,9.8-15.3h-.1ZM1176.3,719c7.4-.8,15.2-1.6,23.4-2.3-3,4.9-5.8,9.8-8.6,14.8-8.4.8-16.2,1.7-23.6,2.5l8.8-15ZM1162.9,742.2c7.4-.7,15.2-1.4,23.3-1.9-2.8,4.8-5.2,9.7-8,14.6-8.3.6-16.2,1.4-23.7,2.1,2.9-4.9,5.6-9.8,8.5-14.8h0ZM1147.8,769.4c7.4-.5,15.2-1,23.4-1.5-2.6,4.8-5.2,9.6-7.6,14.4-8.3.5-16.2,1-23.6,1.7,2.6-4.9,5.3-9.7,7.9-14.6h0ZM1133.3,796.8c7.4-.4,15.2-.8,23.4-1.1-2.4,4.7-4.8,9.5-7.2,14.2l-23.5,1.2,7.3-14.4ZM1119.5,824.1l23.3-.7-7,14.2-23.5.7c2.4-4.7,4.8-9.4,7.2-14.2h0ZM1105.8,851.6c7.4,0,15.2,0,23.4-.3l-6.8,14.1c-8.3,0-16.1,0-23.5.3,2.4-4.6,4.7-9.4,7-14h0ZM1092.2,879.1h23.3c-2.3,4.7-4.6,9.4-6.9,13.9h-23.4c2.4-4.4,4.7-9.1,7-13.9h-.1ZM1078.3,906.7l23.3.6c-2.4,4.7-4.7,9.2-7,13.8l-23.3-.6c2.4-4.5,4.8-9,7.2-13.8h-.1ZM1063.9,934.4l23.1,1c-2.4,4.6-5.2,9.2-7.4,13.7l-23.2-1c2.6-4.4,5.1-8.9,7.6-13.6h0ZM1048.3,962l23.1,1.4c-2.8,4.6-5.5,9.1-8.2,13.5-8.1-.5-15.6-1-23.2-1.4,3-4.3,5.7-8.8,8.4-13.5h0ZM1030.9,989.6l23,1.8c-3.2,4.7-6.3,9.1-9.6,13.4l-23.1-1.8c3.3-4.2,6.6-8.6,9.8-13.3h0ZM1009.4,1016.7c7.3.8,15,1.5,23.1,2.2-4.1,4.5-8.4,8.8-12.9,12.8l-23.3-2.3c4.7-3.9,9.1-8.2,13.3-12.7h-.1ZM1157.4,1042.1l-25.5-1.5c5.8-3.8,11.2-8.1,16.2-13l24.8,1.3c-4.7,4.9-9.9,9.3-15.4,13.2h-.1ZM1186.4,1013.7l-24.5-1.3c3.3-4.2,6.7-8.7,10-13.5,7.9.5,16.1.9,24.4,1.4-3.2,4.8-6.3,9.3-9.8,13.5h0ZM1206.2,984.7l-24.2-1.2c2.6-4.4,5.3-8.9,8-13.6l24.2,1.2c-2.5,4.7-5.1,9.2-7.8,13.6h-.1ZM1222.5,955.6l-24.2-1.2c2.4-4.5,4.7-9,7.1-13.6l24.1,1.2c-2.2,4.7-4.5,9.2-6.9,13.7h-.1ZM1237,926.5l-24.1-1.1c2.2-4.5,4.4-9.1,6.5-13.7,7.8.4,15.9.7,24.1,1.2-2.1,4.7-4.2,9.2-6.4,13.7h0ZM1250.5,897.2l-24-1,6.2-13.7,24,1.1c-2,4.7-4.1,9.2-6.1,13.7h-.1ZM1263.8,867.8l-24.1-.9,6.1-13.8c7.8.3,15.6.6,24,1l-6,13.7ZM1276.7,838.6l-24.1-.8c2-4.6,4.1-9.1,6.1-13.8l24.1.9-6.1,13.7ZM1289.7,809.4c-8.2,0-16.3-.6-24.2-.7,2.1-4.6,4.2-9.2,6.3-13.8l24.2.8c-2,4.6-4.2,9.4-6.2,13.9v-.2ZM1303.1,780.2l-24.3-.6c2.1-4.6,4.3-9.2,6.5-13.8,7.9,0,16,.4,24.2.7-2.2,4.8-4.4,9.4-6.5,14v-.2ZM1316.9,751.1c-8.3-.3-16.4-.4-24.4-.5,2.3-4.7,4.6-9.3,6.9-13.9,8,0,16.1.3,24.4.6-2.3,4.8-4.6,9.4-6.9,14v-.2ZM1329.8,725.5h-24.6c2.4-4.7,4.8-9.4,7.3-14h24.6c-2.4,4.9-4.9,9.6-7.3,14.2v-.2ZM1343.3,700.2c-8.5,0-16.9,0-25,.3,2.6-4.7,5.2-9.5,8-14.1h24.9c-2.7,4.7-5.3,9.4-7.9,14v-.2ZM1357.8,675.5c-8.7,0-17.2.4-25.4.7,2.9-4.8,5.7-9.6,8.7-14.3,8.3-.3,16.7-.4,25.4-.5-3,4.5-5.9,8.9-8.7,14.1ZM1373.4,650.4c-8.8.3-17.5.6-26,1,3.1-4.9,6.3-9.7,9.6-14.4,8.5-.3,17.1-.6,26-.8-3.1,4.5-6.3,9.2-9.5,14v.2ZM1390.9,625.5c-9,.4-17.8.8-26.5,1.4,3.6-5.2,7.3-9.9,11-14.6,8.6-.5,17.5-.9,26.6-1.1-3.6,4.5-7.3,9.2-11,14.2l-.2.2ZM1410.7,600.4c-9.3.5-18.3,1.1-27.2,1.7,4.2-5.2,8.5-10,12.9-14.9,8.9-.6,18.1-1,27.4-1.5-4.3,4.6-8.7,9.4-13,14.4l-.2.2ZM1434.3,575.1c-9.7.6-19.2,1.2-28.3,2,5.2-5.2,10.4-10.4,15.6-15.1,9.3-.7,18.9-1.2,28.7-1.8-5.2,4.6-10.6,9.6-16.1,14.7v.2ZM1463.9,549.4c-10.4.6-20.3,1.4-30,2.2,6.8-5.6,13.9-10.8,21.2-15.6,10-.7,20.3-1.3,30.9-1.8-7.6,4.6-14.9,9.6-21.9,15l-.2.2Z"/>
      <g class="cls-15">
        <path d="M1119.9,887.9c-6,12.5-11.9,24.1-17.6,34.9,34.6,2.1,68.2,3.2,99,3.7,5.2-10.4,10.4-20.8,15.8-31.5,7.3-14.5,15-31.7,23.4-50.7-35.9-.6-69.5-.8-99.3-.8-7.5,15.3-14.7,30.1-21.5,44.4Z"/>
        <path d="M1200.4,732c28.4-1.6,59.7-2.6,93.5-2.5,12.9-25.3,27.3-51.1,43.4-76.3-31.6,1-61.7,2.6-89.2,4.6-16.6,23.5-32.6,48.6-47.8,74.3Z"/>
        <path d="M1033.4,1025.9c31.8,3.3,63.8,4.8,95.8,4.5,24.6-20.3,43.8-50.3,62.4-85.5-31.2-.6-64.8-1.9-99.3-4.1-16.4,30.5-36.1,59.1-58.9,85.1Z"/>
        <path d="M1150.6,824.9c29.8,0,62.9,0,98.2.9,10.7-24.1,22.5-50.4,35.9-77.7-34.6,0-66.6,1.4-95.1,3.2-13.8,24.6-26.8,49.4-38.9,73.6Z"/>
        <path d="M1015.8,1043c-3.7,3.3-7.7,6.2-12.1,8.7,39.1,9.5,69.5,7.5,94.7-2.8-30.9-.7-58.6-3-82.6-5.9Z"/>
        <path d="M1471.6,518.2c-16.8,8.8-32.8,19.2-47.5,31.2-28.8,1.1-55.3,3.1-79.6,5.7,11.1-8.2,22.8-15.4,35.1-21.5,17.5-3.6,50.4-10,92-15.4Z"/>
        <path d="M1262.7,638.1c27.1-1.8,56.5-3.2,87.1-4,8.3-12.1,16.9-24,26-35.6,8.1-10.3,16.7-20,26-29.3-31.2,1.9-59.5,4.8-84.7,8.3-19.8,18.6-38,38.9-54.4,60.5Z"/>
      </g>
      <path class="cls-13" d="M1124.7,1065.3c-8.2-.5-16.3-2.3-23.9-5.5-112.8-45.7-169.7-242.7-94.6-534.8,47.2-183.7,135.1-244.2,135.1-244.2-112.6-41.9-184.5-25.5-184.5-25.5,0,0-88,60.7-135.1,244.5-75,292.1-18.2,489.1,94.6,534.8l5.2,2s15.6,5.9,40.5,12.5c39.3,10.4,101.8,22.9,162.6,17v-.7ZM965,884.2c-6.1-.3-12.2-.7-18.1-1.1-1-4.7-2-9.5-2.8-14.2l18.2,1.2c.8,4.7,1.8,9.5,2.8,14h0ZM957.6,837.5c.5,4.8,1.1,9.5,1.8,14.1l-18.3-1.5c-.7-4.7-1.3-9.4-1.8-14.2,6.1.8,12.2,1.2,18.3,1.7h0ZM956.2,706.7c-.4,4.7-.7,9.3-1,13.9l-18.4-2.4c.3-4.6.6-9.2,1-13.9l18.4,2.4ZM939.4,685.5c.4-4.6.9-9.2,1.5-13.9l18.4,2.5c-.6,4.7-1,9.3-1.5,13.9l-18.4-2.5ZM954.3,739.4c0,4.7-.3,9.4-.4,14.1-5.9-.7-12.2-1.5-18.4-2.3,0-4.6,0-9.3.4-14,6.2.8,12.4,1.6,18.4,2.2h0ZM953.8,772.1c0,4.8,0,9.5.3,14.1-6.1-.6-12.2-1.4-18.4-2.1,0-4.6,0-9.3-.3-14.1,6.1.7,12.3,1.5,18.4,2.1h0ZM954.9,804.8c0,4.8.6,9.5.9,14.1-6.1-.6-12.2-1.1-18.4-1.8-.4-4.7-.7-9.4-1-14.2l18.4,1.9ZM1098.3,280c5.2,1.5,10.4,3,16,4.7-3.2,2.8-7.1,6.4-11.6,11.1-5.6-1.7-11-3.2-16.4-4.7,5-4.6,8.9-8.4,12-10.9v-.2ZM1077,300.8c5.2,1.5,11,3,16.6,4.7-3.2,3.5-6.5,7.4-9.9,11.7-5.7-1.7-11.4-3.1-16.8-4.6,3.6-4,6.9-8,10.1-11.5v-.3ZM1058.7,322.8c5.6,1.4,11.3,2.9,17,4.5-2.8,3.8-5.8,7.8-8.8,12.2-5.8-1.6-11.5-3-17.2-4.4,3-4.1,6-8.1,8.8-12v-.3ZM1042.8,345.5c5.6,1.4,11.4,2.8,17.2,4.4-2.6,3.9-5.2,8.1-7.8,12.4-5.9-1.5-11.8-3-17.4-4.3,2.6-4.1,5.2-8.3,7.9-12.2v-.3ZM1028.5,369c5.7,1.3,11.5,2.7,17.5,4.3-2.3,4.1-4.6,8.3-6.9,12.7-6-1.6-11.8-2.9-17.6-4.3,2.2-4.2,4.7-8.4,7-12.7ZM1015.9,392.6c5.8,1.2,11.6,2.6,17.7,4.1-2.1,4.2-4.1,8.5-6.2,12.9-6-1.5-11.9-2.9-17.7-4.2,2.1-4.3,4.2-8.6,6.2-12.7v-.2ZM1004.6,416.5c5.8,1.3,11.8,2.7,17.7,4.2-1.8,4.2-3.7,8.6-5.5,13-6-1.5-11.9-2.9-17.8-4.2,1.9-4.3,3.9-8.7,5.6-12.9v-.2ZM992.1,446.8c6,1.2,12,2.5,18,3.9-1.7,4.3-3.2,8.7-4.8,13.3-6-1.4-12-2.7-18-3.8,1.6-4.4,3.2-8.8,4.8-13.3h0ZM981.4,478c6.1,1.1,12.2,2.3,18.1,3.5-1.4,4.4-2.8,8.8-4.2,13.4-6-1.2-12.1-2.3-18.1-3.5,1.4-4.6,2.7-9,4.2-13.4h0ZM969.3,519.6c.9-3.5,1.8-6.9,2.7-10.4,6.2,1.1,12.3,2.1,18.3,3.3-.9,3.2-1.8,6.3-2.5,9.6-.4,1.3-.7,2.6-1,3.9-6-1.1-12.1-2.2-18.2-3.2.2-.8.5-1.9.8-3.2h0ZM964.1,541.4l18.3,3c-1.1,4.6-2.2,9.1-3.2,13.7l-18.4-3c.8-4.2,1.9-8.9,3.1-13.5l.2-.2ZM956.8,573.6c6.3.9,12.5,1.9,18.4,2.8-1,4.6-1.9,9.2-2.8,13.7l-18.4-2.7c.7-4.4,1.7-9,2.7-13.6l.2-.2ZM950.5,606.1l18.4,2.7c-.9,4.6-1.7,9.2-2.4,13.8l-18.4-2.7c.6-4.4,1.4-9,2.2-13.6l.2-.2ZM945.3,638.9l18.4,2.5c-.7,4.6-1.3,9.2-2,13.8l-18.4-2.5c.3-4.4,1-9,1.7-13.5l.3-.3ZM964.9,257c3.3,0,6.7,0,10.4.5-5.5,4.2-10.7,8.7-15.6,13.6h-10.4c4.8-4.9,9.9-9.5,15.3-13.8l.3-.2ZM940.6,280l10.1.4c-3.8,4-7.8,8.6-12.1,13.8h-10.4c4.2-5.4,8.3-10,12.3-14.1ZM921.4,302.8l9.9.4c-3.3,4.3-6.7,8.8-10.1,13.8h-10c3.4-5.2,6.7-9.8,10-14.2h.2ZM905.3,325.6l9.8.5c-2.9,4.3-5.8,8.9-8.7,13.7l-9.8-.3c2.7-4.9,5.7-9.5,8.5-13.9h.2ZM891.2,348.5c3,0,6.2.4,9.6.7-2.5,4.3-5.2,8.8-7.5,13.5l-9.6-.6c2.3-4.7,4.9-9.2,7.3-13.6h.2ZM878.9,371.3l9.5.8c-2.2,4.3-4.5,8.8-6.6,13.5l-9.5-.8c2-4.6,4.2-9.1,6.4-13.5h.2ZM867.8,394.3l9.4,1c-1.9,4.3-3.9,8.8-5.8,13.4-3.3-.4-6.4-.6-9.4-.9,1.7-4.6,3.7-9.1,5.8-13.5ZM854.4,426.1l9.4,1c-1.7,4.4-3.3,8.9-4.9,13.5l-9.4-1c1.6-4.5,3.3-9,4.9-13.5ZM843.2,458.1l9.3,1c-1.5,4.4-2.9,8.9-4.2,13.6l-9.3-1c1.4-4.6,2.8-9.2,4.2-13.5h0ZM830.9,500.6c.9-3.5,1.8-7,2.8-10.4l9.2,1.1c-.9,3.5-1.9,7.1-2.9,10.4,0,1-.5,2-.7,3l-9.3-1.1c.3-.7.5-1.8.8-2.9h0ZM825.7,522.4l9.2,1.1c-1.1,4.6-2.2,9.2-3.2,13.7l-9.2-1.1c.8-4.4,1.9-9,3.1-13.6h.2ZM818.4,554.7l9.3,1.2c-1,4.6-1.9,9.1-2.9,13.7l-9.2-1.1c.7-4.5,1.7-9,2.7-13.7h.2ZM811.9,587.2l9.2,1.2c-.8,4.6-1.7,9.2-2.4,13.8l-9.2-1.3c.7-4.4,1.6-9,2.3-13.8ZM806.7,619.8l9.2,1.3c-.7,4.6-1.4,9.2-2,13.8l-9.2-1.3c.7-4.4,1.1-9,1.9-13.7h.1ZM802.5,652l9.2,1.3c-.6,4.7-1.1,9.3-1.5,13.9l-9.2-1.4c.4-4.5.8-9.1,1.4-13.8h.1ZM799.4,684.3c2.9.5,6,.9,9.2,1.4-.4,4.7-.7,9.4-1,14l-9.3-1.4c.2-4.5.5-9.1,1-13.9h.1ZM797.5,716.8l9.2,1.5c0,4.7-.4,9.5-.5,14.1-3.2-.6-6.2-1-9.2-1.5,0-4.6.1-9.3.3-13.8v-.4ZM797,749.4l9.2,1.6v14.2l-9.2-1.6c0-4.6,0-9.4,0-14.1h.1ZM798,782.3l9.2,1.6c.3,4.9.6,9.7.9,14.4l-9.2-1.7c-.5-4.6-.8-9.4-1.1-14.2h.1ZM800.8,815.6l9.2,1.7c.6,5.2,1.2,9.8,1.9,14.6l-9.3-1.8c-.8-4.7-1.4-9.5-1.9-14.3v-.2ZM805.7,849.5l9.4,1.9c.9,5.2,1.9,9.9,3,14.8l-9.4-1.8c-1.1-4.7-2.1-9.7-3.2-14.8h.3ZM810.9,873.9l9.5,2.2c1.2,5.2,2.6,10.4,4,15.2l-9.5-2.1c-1.6-4.9-2.9-10-4.3-15.2h.3ZM817.6,898.2c2.9.8,6.1,1.7,9.6,2.5,1.7,5.2,3.5,10.7,5.2,15.6l-9.7-2.4c-1.7-4.9-3.6-10.1-5.2-15.5h.2ZM826.2,922.9l9.8,2.8c2.3,5.7,4.7,11.2,7.3,16.5l-9.9-2.8c-2.7-5.4-5-10.8-7.2-16.5ZM847.6,965.8c-3.5-5.6-6.9-11.5-10-17.7l10.4,3.2c3.2,6.1,6.6,12.1,10.4,17.7-4.3-1.1-7.7-2.1-11-3.1h.2ZM853.5,974.8c3.2,1.1,6.9,2.2,10.8,3.4,4.8,6.9,10,13.4,15.6,19.6l-11.1-3.4c-5.5-6.2-10.7-12.8-15.4-19.6h.2ZM914.6,1030.5c-13.2-6.8-25.4-15.6-36-26,3.7,1.2,7.7,2.6,11.9,3.8,11.7,10.7,25,19.5,39.4,26l-15.3-3.9ZM950,896.7c6,.6,12,1,18.2,1.4,1.2,4.9,2.4,9.7,3.8,14.3-6.1-.4-12.2-.8-18.1-1.3-1.3-4.7-2.6-9.5-3.8-14.4h0ZM958.1,924.6c6,.6,12.1,1.2,18.2,1.7,1.6,4.9,3.3,9.7,5.2,14.4-6.1-.4-12.1-.9-18-1.5-2.1-4.7-3.6-9.6-5.3-14.5h0ZM968.9,952.6c6,.7,12.1,1.3,18.1,1.9,2.2,5.2,4.5,9.9,6.8,14.5-6-.5-12-1-18-1.7-2.3-4.7-4.7-9.7-6.9-14.8h0ZM983.4,981c6,.8,12.1,1.5,18.1,2,3.1,5.2,6.2,10.4,9.6,14.9-6-.4-11.9-.9-17.9-1.6-3.4-4.8-6.7-10-9.8-15.3h0ZM1019.2,1025.9c-5.4-4.9-10.5-10.2-15.2-15.8,6,.8,12,1.5,18,2,4.4,5.3,9.2,10.4,14.3,15.2-5.6-.3-11.4-.7-17-1.3h0ZM1069.8,1056.4c-2-.5-4-1.1-5.9-1.9-9.1-3.6-17.8-8.3-26-13.8,5.6.5,11.1.9,16.5,1.2,8.1,5.6,16.8,10.4,26,14.2-3.5.1-7,.2-10.6.1h0Z"/>
      <path class="cls-6" d="M1124.7,1065.3c-8.2-.5-16.3-2.3-23.9-5.5-112.8-45.7-169.7-242.7-94.6-534.8,47.2-183.7,135.1-244.2,135.1-244.2-112.6-41.9-184.5-25.5-184.5-25.5,0,0-88,60.7-135.1,244.5-75,292.1-18.2,489.1,94.6,534.8l5.2,2s15.6,5.9,40.5,12.5c39.3,10.4,101.8,22.9,162.6,17v-.7ZM965,884.2c-6.1-.3-12.2-.7-18.1-1.1-1-4.7-2-9.5-2.8-14.2l18.2,1.2c.8,4.7,1.8,9.5,2.8,14h0ZM957.6,837.5c.5,4.8,1.1,9.5,1.8,14.1l-18.3-1.5c-.7-4.7-1.3-9.4-1.8-14.2,6.1.8,12.2,1.2,18.3,1.7h0ZM956.2,706.7c-.4,4.7-.7,9.3-1,13.9l-18.4-2.4c.3-4.6.6-9.2,1-13.9l18.4,2.4ZM939.4,685.5c.4-4.6.9-9.2,1.5-13.9l18.4,2.5c-.6,4.7-1,9.3-1.5,13.9l-18.4-2.5ZM954.3,739.4c0,4.7-.3,9.4-.4,14.1-5.9-.7-12.2-1.5-18.4-2.3,0-4.6,0-9.3.4-14,6.2.8,12.4,1.6,18.4,2.2h0ZM953.8,772.1c0,4.8,0,9.5.3,14.1-6.1-.6-12.2-1.4-18.4-2.1,0-4.6,0-9.3-.3-14.1,6.1.7,12.3,1.5,18.4,2.1h0ZM954.9,804.8c0,4.8.6,9.5.9,14.1-6.1-.6-12.2-1.1-18.4-1.8-.4-4.7-.7-9.4-1-14.2l18.4,1.9ZM1098.3,280c5.2,1.5,10.4,3,16,4.7-3.2,2.8-7.1,6.4-11.6,11.1-5.6-1.7-11-3.2-16.4-4.7,5-4.6,8.9-8.4,12-10.9v-.2ZM1077,300.8c5.2,1.5,11,3,16.6,4.7-3.2,3.5-6.5,7.4-9.9,11.7-5.7-1.7-11.4-3.1-16.8-4.6,3.6-4,6.9-8,10.1-11.5v-.3ZM1058.7,322.8c5.6,1.4,11.3,2.9,17,4.5-2.8,3.8-5.8,7.8-8.8,12.2-5.8-1.6-11.5-3-17.2-4.4,3-4.1,6-8.1,8.8-12v-.3ZM1042.8,345.5c5.6,1.4,11.4,2.8,17.2,4.4-2.6,3.9-5.2,8.1-7.8,12.4-5.9-1.5-11.8-3-17.4-4.3,2.6-4.1,5.2-8.3,7.9-12.2v-.3ZM1028.5,369c5.7,1.3,11.5,2.7,17.5,4.3-2.3,4.1-4.6,8.3-6.9,12.7-6-1.6-11.8-2.9-17.6-4.3,2.2-4.2,4.7-8.4,7-12.7ZM1015.9,392.6c5.8,1.2,11.6,2.6,17.7,4.1-2.1,4.2-4.1,8.5-6.2,12.9-6-1.5-11.9-2.9-17.7-4.2,2.1-4.3,4.2-8.6,6.2-12.7v-.2ZM1004.6,416.5c5.8,1.3,11.8,2.7,17.7,4.2-1.8,4.2-3.7,8.6-5.5,13-6-1.5-11.9-2.9-17.8-4.2,1.9-4.3,3.9-8.7,5.6-12.9v-.2ZM992.1,446.8c6,1.2,12,2.5,18,3.9-1.7,4.3-3.2,8.7-4.8,13.3-6-1.4-12-2.7-18-3.8,1.6-4.4,3.2-8.8,4.8-13.3h0ZM981.4,478c6.1,1.1,12.2,2.3,18.1,3.5-1.4,4.4-2.8,8.8-4.2,13.4-6-1.2-12.1-2.3-18.1-3.5,1.4-4.6,2.7-9,4.2-13.4h0ZM969.3,519.6c.9-3.5,1.8-6.9,2.7-10.4,6.2,1.1,12.3,2.1,18.3,3.3-.9,3.2-1.8,6.3-2.5,9.6-.4,1.3-.7,2.6-1,3.9-6-1.1-12.1-2.2-18.2-3.2.2-.8.5-1.9.8-3.2h0ZM964.1,541.4l18.3,3c-1.1,4.6-2.2,9.1-3.2,13.7l-18.4-3c.8-4.2,1.9-8.9,3.1-13.5l.2-.2ZM956.8,573.6c6.3.9,12.5,1.9,18.4,2.8-1,4.6-1.9,9.2-2.8,13.7l-18.4-2.7c.7-4.4,1.7-9,2.7-13.6l.2-.2ZM950.5,606.1l18.4,2.7c-.9,4.6-1.7,9.2-2.4,13.8l-18.4-2.7c.6-4.4,1.4-9,2.2-13.6l.2-.2ZM945.3,638.9l18.4,2.5c-.7,4.6-1.3,9.2-2,13.8l-18.4-2.5c.3-4.4,1-9,1.7-13.5l.3-.3ZM964.9,257c3.3,0,6.7,0,10.4.5-5.5,4.2-10.7,8.7-15.6,13.6h-10.4c4.8-4.9,9.9-9.5,15.3-13.8l.3-.2ZM940.6,280l10.1.4c-3.8,4-7.8,8.6-12.1,13.8h-10.4c4.2-5.4,8.3-10,12.3-14.1ZM921.4,302.8l9.9.4c-3.3,4.3-6.7,8.8-10.1,13.8h-10c3.4-5.2,6.7-9.8,10-14.2h.2ZM905.3,325.6l9.8.5c-2.9,4.3-5.8,8.9-8.7,13.7l-9.8-.3c2.7-4.9,5.7-9.5,8.5-13.9h.2ZM891.2,348.5c3,0,6.2.4,9.6.7-2.5,4.3-5.2,8.8-7.5,13.5l-9.6-.6c2.3-4.7,4.9-9.2,7.3-13.6h.2ZM878.9,371.3l9.5.8c-2.2,4.3-4.5,8.8-6.6,13.5l-9.5-.8c2-4.6,4.2-9.1,6.4-13.5h.2ZM867.8,394.3l9.4,1c-1.9,4.3-3.9,8.8-5.8,13.4-3.3-.4-6.4-.6-9.4-.9,1.7-4.6,3.7-9.1,5.8-13.5ZM854.4,426.1l9.4,1c-1.7,4.4-3.3,8.9-4.9,13.5l-9.4-1c1.6-4.5,3.3-9,4.9-13.5ZM843.2,458.1l9.3,1c-1.5,4.4-2.9,8.9-4.2,13.6l-9.3-1c1.4-4.6,2.8-9.2,4.2-13.5h0ZM830.9,500.6c.9-3.5,1.8-7,2.8-10.4l9.2,1.1c-.9,3.5-1.9,7.1-2.9,10.4,0,1-.5,2-.7,3l-9.3-1.1c.3-.7.5-1.8.8-2.9h0ZM825.7,522.4l9.2,1.1c-1.1,4.6-2.2,9.2-3.2,13.7l-9.2-1.1c.8-4.4,1.9-9,3.1-13.6h.2ZM818.4,554.7l9.3,1.2c-1,4.6-1.9,9.1-2.9,13.7l-9.2-1.1c.7-4.5,1.7-9,2.7-13.7h.2ZM811.9,587.2l9.2,1.2c-.8,4.6-1.7,9.2-2.4,13.8l-9.2-1.3c.7-4.4,1.6-9,2.3-13.8ZM806.7,619.8l9.2,1.3c-.7,4.6-1.4,9.2-2,13.8l-9.2-1.3c.7-4.4,1.1-9,1.9-13.7h.1ZM802.5,652l9.2,1.3c-.6,4.7-1.1,9.3-1.5,13.9l-9.2-1.4c.4-4.5.8-9.1,1.4-13.8h.1ZM799.4,684.3c2.9.5,6,.9,9.2,1.4-.4,4.7-.7,9.4-1,14l-9.3-1.4c.2-4.5.5-9.1,1-13.9h.1ZM797.5,716.8l9.2,1.5c0,4.7-.4,9.5-.5,14.1-3.2-.6-6.2-1-9.2-1.5,0-4.6.1-9.3.3-13.8v-.4ZM797,749.4l9.2,1.6v14.2l-9.2-1.6c0-4.6,0-9.4,0-14.1h.1ZM798,782.3l9.2,1.6c.3,4.9.6,9.7.9,14.4l-9.2-1.7c-.5-4.6-.8-9.4-1.1-14.2h.1ZM800.8,815.6l9.2,1.7c.6,5.2,1.2,9.8,1.9,14.6l-9.3-1.8c-.8-4.7-1.4-9.5-1.9-14.3v-.2ZM805.7,849.5l9.4,1.9c.9,5.2,1.9,9.9,3,14.8l-9.4-1.8c-1.1-4.7-2.1-9.7-3.2-14.8h.3ZM810.9,873.9l9.5,2.2c1.2,5.2,2.6,10.4,4,15.2l-9.5-2.1c-1.6-4.9-2.9-10-4.3-15.2h.3ZM817.6,898.2c2.9.8,6.1,1.7,9.6,2.5,1.7,5.2,3.5,10.7,5.2,15.6l-9.7-2.4c-1.7-4.9-3.6-10.1-5.2-15.5h.2ZM826.2,922.9l9.8,2.8c2.3,5.7,4.7,11.2,7.3,16.5l-9.9-2.8c-2.7-5.4-5-10.8-7.2-16.5ZM847.6,965.8c-3.5-5.6-6.9-11.5-10-17.7l10.4,3.2c3.2,6.1,6.6,12.1,10.4,17.7-4.3-1.1-7.7-2.1-11-3.1h.2ZM853.5,974.8c3.2,1.1,6.9,2.2,10.8,3.4,4.8,6.9,10,13.4,15.6,19.6l-11.1-3.4c-5.5-6.2-10.7-12.8-15.4-19.6h.2ZM914.6,1030.5c-13.2-6.8-25.4-15.6-36-26,3.7,1.2,7.7,2.6,11.9,3.8,11.7,10.7,25,19.5,39.4,26l-15.3-3.9ZM950,896.7c6,.6,12,1,18.2,1.4,1.2,4.9,2.4,9.7,3.8,14.3-6.1-.4-12.2-.8-18.1-1.3-1.3-4.7-2.6-9.5-3.8-14.4h0ZM958.1,924.6c6,.6,12.1,1.2,18.2,1.7,1.6,4.9,3.3,9.7,5.2,14.4-6.1-.4-12.1-.9-18-1.5-2.1-4.7-3.6-9.6-5.3-14.5h0ZM968.9,952.6c6,.7,12.1,1.3,18.1,1.9,2.2,5.2,4.5,9.9,6.8,14.5-6-.5-12-1-18-1.7-2.3-4.7-4.7-9.7-6.9-14.8h0ZM983.4,981c6,.8,12.1,1.5,18.1,2,3.1,5.2,6.2,10.4,9.6,14.9-6-.4-11.9-.9-17.9-1.6-3.4-4.8-6.7-10-9.8-15.3h0ZM1019.2,1025.9c-5.4-4.9-10.5-10.2-15.2-15.8,6,.8,12,1.5,18,2,4.4,5.3,9.2,10.4,14.3,15.2-5.6-.3-11.4-.7-17-1.3h0ZM1069.8,1056.4c-2-.5-4-1.1-5.9-1.9-9.1-3.6-17.8-8.3-26-13.8,5.6.5,11.1.9,16.5,1.2,8.1,5.6,16.8,10.4,26,14.2-3.5.1-7,.2-10.6.1h0Z"/>
      <path class="cls-13" d="M974.1,469.8c10.1-29.5,22.3-58.3,36.4-86.2-35.2-7.6-70.9-13.1-106.7-16.7-14.6,26.7-27.2,54.5-37.6,83.1,28.9,3.8,64.5,9.8,108,19.7Z"/>
      <path class="cls-13" d="M859.9,468.4c-10.1,29.9-18.4,60.3-24.9,91.1,31.2,4.7,67.9,11.2,109.5,20.1,6.3-31.1,14.2-61.8,23.8-92-35.8-8.2-72-14.7-108.4-19.3Z"/>
      <path class="cls-13" d="M930.8,662.9c2.8-22.8,6.1-44.4,10-65-41.6-8.9-78.4-15.6-109.7-20-4.6,23.3-8.5,48-11.7,74.3-.9,7.4-1.7,14.5-2.3,21.7,39,8.2,77.3,14.5,110.5,19.3.9-9.9,1.9-19.9,3.2-30.2Z"/>
      <path class="cls-13" d="M1019.8,366.5c16-29.2,35-56.5,56.8-81.7-33.3-7.2-67-12.6-100.9-16.3-23.7,24.3-44.4,51.4-61.6,80.6,35.5,3.9,70.8,9.7,105.7,17.3Z"/>
      <path class="cls-13" d="M954.4,935.4c-36-5.7-76-13-115.7-22.3,14.8,40.9,40.3,77.1,73.8,104.8,37,7.5,72.8,13.4,104.2,17.8-27-29.1-48.2-63.2-62.4-100.2Z"/>
      <path class="cls-13" d="M947.3,915.5c-9.8-30.4-16.3-61.8-19.5-93.5-35.1-5.5-74.1-12.6-112.9-21.5,2.2,31.2,7.7,62,16.6,91.9,39.4,9.6,79.4,17,115.9,23.1Z"/>
      <path class="cls-13" d="M926.1,802.6c-2.1-30.2-2.1-60.6,0-90.8-33.2-4.8-71.5-11.1-110.7-19.2-2.4,29.4-3,58.9-1.8,88.3,38.6,9,77.3,16.1,112.5,21.7Z"/>
      <path class="cls-13" d="M1957.8,1002.9c-14.5-203.5-149.7-359.6-301.9-348.8-28.5,2-114.3,18.6-131.5,19.7-152.2,10.9-263.8,184.7-249.4,388.2,14.3,203.5,149.7,359.7,301.9,348.8,28.5-2,114.3-18.6,131.5-19.8,152.4-11,264-184.8,249.4-388.2Z"/>
      <path class="cls-6" d="M1708.7,1390.9c152.2-10.9,263.7-184.7,249.2-388.2-14.6-203.5-149.7-359.7-301.9-348.8-152.2,10.9-263.7,184.7-249.2,388.2,14.6,203.5,149.7,359.7,301.9,348.8Z"/>
      <path class="cls-13" d="M1686.5,1356.3l-7.4-.9c-21.8-3.2-42.8-10-62.4-20.1-.2,0-.3-.2-.4-.3-.1-.1-.2-.3-.3-.5,0-.2,0-.3,0-.5,0-.2,0-.3.2-.5,0-.2.2-.3.3-.4.1-.1.3-.2.5-.3.2,0,.3,0,.5,0,.2,0,.4,0,.5.1,19.2,10.1,40,16.8,61.5,19.9,2.4.3,4.8.6,7.3.8.4,0,.7.2.9.5s.3.6.3,1c0,.2,0,.4-.1.5,0,.2-.2.3-.4.4-.1.1-.3.2-.5.2-.2,0-.4,0-.5,0ZM1791.6,1333.9c-.2,0-.5,0-.7-.2-.2-.1-.4-.3-.5-.5,0-.2-.2-.3-.2-.5s0-.4,0-.5c0-.2.1-.3.2-.5.1-.2.3-.3.4-.3,3.2-1.7,6.3-3.6,9.4-5.5.2,0,.3-.2.5-.2.2,0,.4,0,.5,0,.2,0,.3.1.5.2.2.1.3.2.4.4,0,.2.2.3.2.5,0,.2,0,.4,0,.5,0,.2-.1.3-.2.5-.1.2-.2.3-.4.4-3.1,1.9-6.3,3.8-9.4,5.6-.2,0-.5,0-.7,0v.2ZM1593.8,1321.5c-.2,0-.5,0-.8,0-3-2-6-4.2-8.9-6.4-.1-.1-.2-.3-.3-.4,0-.2-.1-.3-.1-.5s0-.3.1-.5c0-.2.2-.3.3-.4.2-.3.5-.5.9-.5.3,0,.7,0,1,.2,2.9,2.2,5.9,4.3,8.8,6.3.3.2.5.5.6.9s0,.7-.2,1c-.2.2-.4.3-.6.3-.2,0-.5,0-.7,0v.2ZM1823.1,1312.5c-.2,0-.4,0-.6-.1-.2,0-.4-.2-.5-.4-.2-.3-.4-.6-.4-1s.1-.7.4-1c16.8-13.8,31.7-29.7,44.4-47.3.2-.2.5-.3.9-.4.3,0,.6,0,.9.3.3.2.5.5.5.8,0,.3,0,.7,0,.9-12.9,17.8-28,33.9-44.9,47.9-.2.1-.4.2-.6.2v.2ZM1882.8,1242c-.2,0-.5,0-.7,0-.2,0-.3-.2-.4-.4,0-.1-.2-.3-.2-.5,0-.2,0-.3,0-.5,0-.2,0-.3.2-.5,27.6-47.2,44.8-99.7,50.5-154,0-.2,0-.4.2-.5,0-.2.2-.3.3-.4s.3-.2.5-.2c.2,0,.3,0,.5,0,.2,0,.4,0,.5.1.2,0,.3.2.4.3.1.1.2.3.2.5,0,.2,0,.4,0,.5-5.7,54.6-23,107.4-50.8,154.8-.1.2-.3.4-.5.5-.2.1-.5.2-.7.2ZM1512.2,1234.7c-.2,0-.5,0-.7-.2-.2-.1-.4-.3-.5-.5-29-46.6-48.6-98.5-57.6-152.6,0-.2,0-.4,0-.5,0-.2.1-.3.2-.5,0-.1.2-.3.4-.4.2,0,.3-.2.5-.2.4,0,.7,0,1,.2.3.2.5.5.6.9,8.9,53.8,28.3,105.3,57.2,151.6.1.2.2.3.2.5,0,.2,0,.4,0,.5,0,.2-.1.3-.2.5-.1.1-.2.3-.4.4-.2.1-.4.2-.6.2ZM1450.9,1055.6c-.3,0-.7-.1-.9-.4-.2-.2-.4-.5-.5-.8-.6-5.9-1.2-11.8-1.6-17.8-.8-11.1-1.2-22.4-1.2-33.5v-14.3c0-.4.2-.7.4-.9.3-.2.6-.4,1-.4.4,0,.7.2,1,.4.3.3.4.6.4,1,0,4.7-.3,9.5-.3,14.2,0,11,.4,22.2,1.2,33.3.5,5.9,1,11.8,1.6,17.7,0,.2,0,.4,0,.5,0,.2-.1.3-.2.5-.1.1-.3.3-.4.3-.2,0-.3.1-.5.2h0ZM1933.1,978.9c-.3,0-.7-.1-.9-.3-.2-.2-.4-.5-.4-.9-.5-3.6-.9-7.2-1.5-10.8,0-.4,0-.7.2-1,.2-.3.5-.5.9-.5.3,0,.7,0,1,.2.3.2.5.5.5.9.5,3.6,1,7.2,1.5,10.9,0,.4,0,.7-.3,1-.2.3-.5.5-.9.5h-.2ZM1449.8,963c-.4,0-.7-.2-.9-.5-.2-.3-.4-.6-.3-1,.4-3.7.7-7.3,1.1-10.9,0-.4.2-.7.5-.9s.6-.3,1-.3c.2,0,.3,0,.5.2.2,0,.3.2.4.3.1.1.2.3.2.5,0,.2,0,.4,0,.5-.4,3.6-.8,7.2-1.1,10.8,0,.4-.2.7-.5.9-.3.2-.6.3-1,.3ZM1926.5,941.3c-.3,0-.6-.1-.9-.3-.2-.2-.4-.5-.5-.8-4.5-21.2-10.6-42.1-18.2-62.4,0-.2,0-.3,0-.5,0-.2,0-.4.1-.5,0-.2.2-.3.3-.4.1-.1.3-.2.5-.3.2,0,.3,0,.5,0,.2,0,.4,0,.5.1.2,0,.3.2.4.3.1.1.2.3.3.4,7.7,20.4,13.9,41.4,18.4,62.8,0,.2,0,.4,0,.5,0,.2,0,.3-.2.5,0,.1-.2.3-.4.4-.2.1-.3.2-.5.2h-.4ZM1897.7,853.3c-.2,0-.5,0-.7-.2-.2-.1-.4-.3-.5-.6-24.4-53.6-58.5-97.7-98.7-127.5-.1-.1-.3-.2-.3-.4,0-.2-.2-.3-.2-.5,0-.2,0-.4,0-.5,0-.2.1-.3.2-.5,0-.1.2-.3.4-.4.2,0,.3-.2.5-.2.2,0,.3,0,.5,0,.2,0,.3.1.5.2,40.6,30,75.1,74.5,99.6,128.5.1.3.2.7,0,1-.1.3-.4.6-.7.8h-.6ZM1477.5,846.7h-.5c-.3-.1-.6-.4-.8-.7-.2-.3-.2-.7,0-1.1,22.7-55.9,56.5-100.6,98-129.2.3-.2.7-.3,1-.2.3,0,.7.3.9.6.2.3.3.7.2,1s-.3.7-.6.9c-41,28.3-74.5,72.8-97,127.9-.1.2-.3.4-.5.6-.2.1-.5.2-.7.2ZM1598.3,704.1c-.2,0-.5,0-.7-.2-.2-.1-.4-.3-.5-.5,0-.2-.1-.3-.1-.5,0-.2,0-.4,0-.5,0-.2.2-.3.3-.5.1-.1.3-.2.4-.3,19.6-10.1,40.8-16.5,62.7-19.1.2,0,.4,0,.5,0,.2,0,.3.1.5.2.1.1.3.2.3.4,0,.2.2.3.2.5,0,.2,0,.4,0,.5,0,.2-.1.3-.2.5s-.2.3-.4.3c-.2,0-.3.1-.5.2-21.5,2.5-42.4,8.9-61.7,18.8-.2,0-.4.2-.6.2ZM1698.7,684.9c-3.6-.4-7.2-.6-10.8-.7-.3,0-.6-.2-.8-.5-.2-.3-.3-.6-.3-.9s.1-.6.3-.9c.2-.3.5-.4.8-.5,3.6,0,7.4.4,11,.8.2,0,.4,0,.5.1.2,0,.3.2.4.3s.2.3.2.5c0,.2,0,.4,0,.5,0,.3-.2.6-.5.9-.3.2-.6.3-.9.3Z"/>
      <path class="cls-13" d="M1699.2,1324.3c-5.4-.1-10.7-.6-16-1.3-21.8-3.2-42.8-10.7-61.7-21.9-.3-.2-.5-.5-.6-.8,0-.3,0-.7.1-1,0-.2.2-.3.3-.4.1-.1.3-.2.5-.2.2,0,.4,0,.5,0,.2,0,.3,0,.5.2,18.7,11.1,39.3,18.5,60.8,21.6,5.2.7,10.4,1.2,15.6,1.3.2,0,.4,0,.5.1.2,0,.3.2.4.3.1.1.2.3.3.5,0,.2,0,.4,0,.5,0,.3-.2.7-.4.9s-.6.4-.9.4ZM1726.4,1322.4c-.4,0-.7-.1-1-.4-.2-.3-.4-.6-.4-1s.2-.7.4-1c.2-.2.6-.4,1-.4,47.1-7.6,90.9-39.6,123.2-89.9l2.8-4.5c0-.2.2-.3.4-.4.1-.1.3-.2.5-.2.2,0,.4,0,.5,0,.2,0,.3,0,.5.2.2,0,.3.2.4.4.1.1.2.3.2.5,0,.2,0,.4,0,.5,0,.2,0,.3-.2.5-.9,1.6-1.9,3.1-2.9,4.6-32.7,51-77.2,83.1-125.1,91.1h-.4ZM1599.6,1286.1c-.3,0-.6-.1-.8-.3-2.9-2.2-5.7-4.6-8.5-7-.3-.2-.4-.6-.5-.9s0-.7.3-1c.2-.3.6-.5.9-.5.4,0,.7,0,1,.3,2.8,2.4,5.6,4.7,8.4,6.9.2.1.3.2.4.4.1.2.2.3.2.5,0,.2,0,.4,0,.5,0,.2-.1.3-.2.5-.2.2-.6.3-.9.3l-.2.2ZM1525.1,1193.1c-.2,0-.5,0-.7-.2-.2-.1-.4-.3-.5-.5-25-48.9-39.8-102.3-43.6-157.1,0-.3.1-.7.3-1s.5-.4.9-.5c.4,0,.7,0,1,.3s.4.6.5.9c3.8,54.4,18.5,107.4,43.3,155.9.2.3.2.7,0,1-.1.3-.3.6-.6.8-.2.2-.4.3-.7.4ZM1894.1,1126.6h-.3c-.2,0-.3-.1-.5-.2-.1,0-.3-.2-.4-.4,0-.2-.2-.3-.2-.5,0-.2,0-.4,0-.5.8-3.5,1.5-7.1,2.2-10.4,0-.2,0-.4.2-.5.1-.2.2-.3.4-.4.2,0,.3-.2.5-.2.2,0,.4,0,.5,0,.2,0,.3.1.5.2s.3.2.4.4.2.3.2.5c0,.2,0,.4,0,.5-.7,3.6-1.5,7.2-2.3,10.7-.1.3-.3.5-.6.7-.3.2-.6.2-.9.2h.1ZM1900.7,1089c-.4,0-.7-.2-.9-.5-.2-.3-.3-.7-.3-1,2.2-17.2,3.2-34.6,3.2-52v-13.1c0-.4.1-.7.4-1s.6-.4,1-.4c.4,0,.7.2,1,.4s.4.6.4.9v13.1c0,17.5-1.1,35-3.3,52.4,0,.2,0,.4-.2.5,0,.2-.2.3-.4.4s-.3.2-.5.2c-.2,0-.4,0-.5,0h0ZM1480.6,1009.3c-.2,0-.4,0-.5,0-.2,0-.3-.2-.4-.3s-.2-.3-.3-.5c0-.2,0-.3,0-.5v-5.2c0-20.2,1.4-40.4,4.3-60.4,0-.2,0-.3.2-.5,0-.2.2-.3.4-.4.1-.1.3-.2.5-.2.2,0,.4,0,.5,0,.2,0,.3,0,.5.2.2,0,.3.2.4.4,0,.1.2.3.2.5,0,.2,0,.4,0,.5-2.9,19.9-4.3,39.9-4.3,60v5.2c0,.4-.1.7-.4,1s-.6.4-1,.4ZM1901.9,996.4c-.3,0-.7-.1-.9-.4s-.4-.5-.4-.9c-4.7-54.3-20.5-107.1-46.4-155.1,0-.2-.2-.3-.2-.5,0-.2,0-.4,0-.5,0-.2.1-.3.2-.5.1-.1.3-.3.4-.3.3-.2.7-.2,1.1,0,.3.1.6.3.8.7,26.1,48.3,42,101.5,46.8,156.2,0,.4,0,.7-.3,1-.2.3-.6.5-.9.5h-.2ZM1489.7,917.2h-.3c-.3,0-.7-.3-.8-.6-.2-.3-.3-.7-.2-1,.8-3.6,1.6-7.1,2.5-10.7,0-.2.1-.3.2-.5.1-.1.2-.3.4-.4.2,0,.3-.2.5-.2.2,0,.4,0,.5,0,.3,0,.6.3.8.6.2.3.2.7.2,1-.9,3.5-1.7,7-2.5,10.4,0,.3-.2.7-.4.9-.2.2-.6.4-.9.4ZM1534.8,806.7c-.2,0-.5,0-.7,0-.2,0-.3-.2-.4-.4-.1-.1-.2-.3-.2-.5,0-.2,0-.4,0-.5,0-.2.1-.4.2-.5,34.4-52.5,81.2-84.4,131.7-89.8.3,0,.6.2.8.5.2.3.3.6.3.9s-.1.6-.3.9c-.2.3-.5.4-.8.5-49.7,5.2-95.7,36.7-129.7,88.6-.2.2-.5.4-.9.4ZM1786.7,756.9c-.3,0-.6-.1-.9-.3-2.9-2.2-5.7-4.5-8.6-6.5-.3-.2-.5-.5-.5-.9,0-.3,0-.7.2-1,.1-.1.2-.3.4-.4.2,0,.3-.2.5-.2.2,0,.4,0,.5,0,.2,0,.3.1.5.2,2.9,2.1,5.8,4.3,8.7,6.6.2.3.4.6.4,1s-.1.7-.4,1c-.2.3-.5.5-.8.5ZM1754.9,736.1c-.2,0-.5,0-.7,0-16.7-9-34.9-15-53.7-17.7-2.7-.4-5.2-.6-8-.9-.2,0-.4,0-.5-.1-.2,0-.3-.2-.4-.3-.1-.1-.2-.3-.3-.5,0-.2,0-.3,0-.5,0-.4.2-.7.5-.9.3-.2.6-.3,1-.3,2.6,0,5.2.5,8.1.9,19.1,2.8,37.6,8.9,54.7,18,.2.2.4.4.6.7.1.3.1.6,0,.9,0,.3-.2.5-.5.7-.2.2-.5.3-.8.3v-.2Z"/>
      <path class="cls-13" d="M1689.6,1290.9h-1.6c-21.9-3.3-42.6-11.8-60.5-24.8-.3-.2-.5-.5-.6-.9,0-.3,0-.7.2-1,0-.1.2-.3.4-.4.1,0,.3-.2.5-.2.2,0,.4,0,.5,0,.2,0,.3.1.5.2,17.6,12.7,37.9,21,59.4,24.3h1.5c.2,0,.4,0,.5.2.2,0,.3.2.4.4.1.1.2.3.2.5,0,.2,0,.4,0,.6,0,.3-.2.7-.5.9s-.6.3-1,.3ZM1789.1,1255.6c-.2,0-.4,0-.5-.1-.2,0-.3-.2-.4-.3-.1-.1-.2-.3-.3-.4,0-.2-.1-.3-.1-.5s0-.3.1-.5c0-.2.2-.3.3-.4,2.6-2.3,5.2-4.9,7.7-7.5.3-.2.6-.4,1-.4s.7.1,1,.4c.2.3.4.6.4,1s-.1.7-.4,1c-2.6,2.7-5.2,5.2-7.9,7.6-.2.2-.5.3-.8.3ZM1607.2,1248.9c-.2,0-.3,0-.5-.1-.2,0-.3-.2-.4-.3-2.6-2.4-5.2-5.2-7.8-7.7-.2-.3-.4-.6-.4-1,0-.4.2-.7.4-.9s.6-.4,1-.4.7.2,1,.4c2.5,2.7,5.2,5.2,7.7,7.6.2.3.4.6.4,1s-.1.7-.4,1c-.1.2-.3.3-.5.4-.2,0-.4.1-.6,0h.2ZM1814.7,1227.2c-.3,0-.5,0-.8,0-.2-.3-.4-.6-.4-1s.1-.7.4-1c3-4.1,5.9-8.4,8.8-12.7,8.9-14,16.5-28.7,22.8-44,0-.2.2-.3.3-.4s.3-.2.4-.3c.2,0,.3-.1.5-.1.2,0,.4,0,.5,0,.3.2.6.4.7.8.1.3.1.7,0,1.1-6.3,15.5-14,30.3-23,44.4-2.9,4.5-5.9,8.8-8.9,12.9-.2.2-.4.3-.7.4-.3,0-.6,0-.8,0h.2ZM1541.4,1149.6c-.3,0-.6,0-.8-.2-.2-.1-.4-.4-.5-.6-15.1-37.3-24.3-76.7-27.1-116.8-.7-9.7-1-19.6-1-29.3v-14.5c0-.8.5-1.5,1.4-1.4.4,0,.7.2,1,.4.2.3.4.6.4,1,0,4.8-.3,9.7-.3,14.4,0,9.6.3,19.4,1,29,2.8,39.8,11.9,79,26.9,116,.1.3.1.7,0,1-.1.3-.4.6-.7.7-.2,0-.3.1-.5.1h.2ZM1855.7,1144.4h-.6c-.2,0-.3-.1-.5-.2-.1-.1-.2-.3-.3-.4,0-.2-.1-.3-.2-.5,0-.2,0-.4,0-.5,10.6-34.7,15.8-70.9,15.6-107.2,0-9.6-.4-19.3-1-29-.6-8.4-1.5-16.9-2.7-25.2,0-.4,0-.7.3-1,.2-.3.5-.5.9-.5.4,0,.7,0,1,.3.3.2.5.5.5.9,1.2,8.4,2.1,16.9,2.7,25.4.7,9.7,1,19.5,1,29.2.2,36.6-5,72.9-15.6,107.9,0,.3-.3.6-.6.7-.3.2-.6.2-.9.2h.2ZM1515.5,962.5c-.2,0-.3,0-.5-.2-.2,0-.3-.2-.4-.3-.1-.1-.2-.3-.2-.5,0-.2,0-.4,0-.5,2.3-21.8,6.6-43.3,12.9-64.3,0-.2.1-.3.2-.5.1-.1.2-.3.4-.3.2,0,.3-.1.5-.1.2,0,.4,0,.5,0,.3,0,.6.3.8.6.2.3.2.7.1,1-6.4,20.8-10.8,42.2-13.2,63.9,0,.3-.2.6-.5.8-.2.2-.6.3-.9.3l.2.2ZM1837.7,878.2c-.3,0-.5,0-.7-.2-.2-.1-.4-.3-.5-.6-1.6-3.3-3.1-6.6-4.7-9.8,0-.2-.1-.3-.1-.5,0-.2,0-.4,0-.5,0-.2.2-.3.3-.5.1-.1.3-.2.4-.3.2,0,.3-.1.5-.1.2,0,.4,0,.5,0,.2,0,.3.1.5.3.1.1.2.3.3.4,1.6,3.2,3.2,6.5,4.7,9.9,0,.2.1.3.1.5,0,.2,0,.4,0,.5,0,.2-.1.3-.3.5-.1.1-.3.2-.4.3h-.6ZM1537.5,872.7h-.5c-.3-.1-.6-.4-.7-.7-.1-.3-.2-.7,0-1,1.4-3.4,2.8-6.8,4.3-10.1,0-.2.2-.3.3-.4.1-.1.3-.2.5-.3.2,0,.3,0,.5,0,.2,0,.3,0,.5.1.3.2.6.4.7.8.1.3.1.7,0,1-1.5,3.3-2.9,6.6-4.2,10-.2.3-.4.5-.7.6-.3.1-.6.1-.9,0l.3.2ZM1819.7,844.5c-.2,0-.5,0-.7-.2-.2-.1-.4-.3-.5-.5-11.3-18.6-24.9-35.6-40.5-50.8-.1-.1-.2-.3-.3-.4,0-.2-.1-.3-.1-.5,0-.2,0-.4,0-.5,0-.2.2-.3.3-.4.1-.1.3-.2.4-.3.2,0,.3-.1.5-.1.2,0,.3,0,.5,0,.2,0,.3.2.5.3,15.8,15.3,29.6,32.5,40.9,51.3,0,.2.2.3.2.5,0,.2,0,.4,0,.5,0,.2-.1.3-.2.5-.1.1-.2.3-.4.4-.2,0-.3.1-.5.1-.2,0-.3,0-.5,0l.3.2ZM1606.4,776.1c-.2,0-.4,0-.6-.1-.2,0-.4-.2-.5-.4-.1-.1-.2-.3-.2-.5,0-.2,0-.4,0-.5,0-.2,0-.4.2-.5,0-.2.2-.3.4-.4,19.4-15.4,42.9-24.7,67.5-26.8,7.9-.5,15.8-.2,23.7.8,22.5,3.5,43.8,12.4,62.1,26,.3.2.5.5.5.9,0,.4,0,.7-.2,1-.2.3-.5.5-.9.5-.4,0-.7,0-1-.2-17.9-13.3-38.8-22.1-60.9-25.5-7.7-1-15.4-1.3-23.1-.7-24.1,2-47,11-66,26-.2.1-.4.2-.6.3-.2,0-.4,0-.7,0l.3.2Z"/>
      <path class="cls-13" d="M1702.1,1259.2c-3.2,0-6.5-.3-9.7-.8-21.9-3.7-42.3-13.6-58.7-28.6-.1-.1-.2-.3-.3-.4,0-.2-.1-.4-.1-.5s0-.4.1-.5c0-.2.2-.3.3-.4.3-.2.6-.4,1-.4s.7.1,1,.4c15.9,14.7,35.8,24.4,57.2,28,3.1.4,6.3.7,9.4.7.2,0,.4,0,.5.1.2,0,.3.2.4.3.1.1.2.3.3.5,0,.2,0,.3,0,.5,0,.3-.2.7-.5.9-.3.2-.6.3-.9.3ZM1728.9,1254.9c-.3,0-.6,0-.8-.3-.2-.2-.4-.4-.5-.7,0-.2,0-.3,0-.5,0-.2,0-.3.1-.5,0-.2.2-.3.3-.4.1-.1.3-.2.5-.2,24.4-8.2,47.3-28.2,66.3-57.7,13-20.6,23-42.8,29.7-66.2,0-.4.3-.6.6-.8.3-.2.7-.2,1-.1.3.1.6.3.8.7.2.3.2.7.1,1-6.8,23.6-16.9,46.1-30,66.9-19.3,30.1-42.7,50.4-67.6,58.8h-.6ZM1615.3,1210.8c-.2,0-.4,0-.5-.1-.2,0-.3-.2-.4-.3-2.4-2.8-4.7-5.6-7-8.5-.2-.2-.4-.6-.4-.9s.1-.7.4-.9c.3-.2.6-.4,1-.4s.7.1,1,.4c2.2,2.9,4.6,5.7,6.9,8.4.1.1.2.3.3.4,0,.2.1.3.1.5s0,.3-.1.5c0,.2-.2.3-.3.4,0,.2-.2.3-.4.4-.1.1-.3.2-.5.2ZM1560.1,1105.2c-.3,0-.6,0-.8-.3-.2-.2-.4-.4-.5-.7-7.2-24.3-11.7-49.3-13.5-74.6-.6-9-1-18.1-1-27,0-20.5,1.7-40.9,5.2-61,0-.3.3-.6.6-.8.3-.2.7-.3,1-.3.3,0,.7.3.9.6.2.3.3.7.2,1-3.5,20-5.2,40.2-5.2,60.5,0,8.8.3,17.9.9,26.8,1.8,25.1,6.3,49.9,13.5,74,0,.3,0,.7-.1,1-.2.3-.5.5-.8.6h-.4ZM1838.4,1022c-.4,0-.7-.1-1-.4s-.4-.6-.5-1c0-3.6-.3-7.2-.6-10.9,0-.4.1-.7.3-1,.2-.3.6-.4.9-.5.2,0,.4,0,.5,0,.2,0,.3.2.5.3.1.1.2.3.3.4,0,.2.1.3.1.5.2,3.6.5,7.3.6,10.9,0,.4-.1.7-.4,1-.2.3-.6.4-.9.5h0ZM1834.8,984c-.3,0-.6-.1-.9-.3-.2-.2-.4-.5-.5-.8-3.2-21.5-8.4-42.7-15.6-63.3,0-.2-.1-.4-.1-.5s0-.4.1-.5c0-.2.2-.3.3-.4.1-.1.3-.2.5-.3.2,0,.4,0,.5,0,.2,0,.4,0,.5.2.2,0,.3.2.4.4.1.1.2.3.2.5,7.2,20.7,12.4,42.1,15.6,63.8,0,.4,0,.7-.3,1-.2.3-.5.5-.9.6h0ZM1556.8,916.5h-.4c-.3,0-.6-.3-.8-.6-.2-.3-.2-.7-.1-1,5.6-21.2,13.8-41.7,24.4-60.9.2-.3.5-.6.8-.7s.7,0,1,0c.2,0,.3.2.4.3.1.1.2.3.2.5,0,.2,0,.4,0,.5,0,.2,0,.4-.2.5-10.5,19.1-18.6,39.3-24.2,60.3,0,.3-.2.6-.5.8-.2.2-.5.3-.8.3v-.2ZM1809.4,895.2c-.3,0-.5,0-.8-.2-.2-.1-.4-.4-.5-.6-26.9-60.6-68.3-102.1-110.7-111-.2,0-.3-.1-.5-.2-.1-.1-.3-.2-.4-.4,0-.1-.2-.3-.2-.5,0-.2,0-.4,0-.5,0-.2.1-.3.2-.5,0-.1.2-.3.4-.4.1,0,.3-.2.5-.2.2,0,.4,0,.5,0,43.2,9,85.4,51.1,112.7,112.6,0,.2.1.3.1.5,0,.2,0,.4,0,.5,0,.2-.2.3-.3.4s-.3.2-.4.3l-.6.2ZM1595.8,832.9c-.3,0-.6,0-.8-.3-.3-.2-.5-.5-.6-.9,0-.4,0-.7.2-1,2.2-3,4.5-5.9,6.8-8.6.3-.2.6-.4,1-.4s.7.1,1,.4c.1.1.2.3.3.4,0,.2.1.3.1.5s0,.4-.1.5c0,.2-.2.3-.3.4-2.2,2.7-4.5,5.6-6.7,8.5-.1.1-.2.3-.4.4-.2,0-.3.1-.5.2v-.2Z"/>
      <path class="cls-13" d="M1697,1226.4c-17.8-2.4-37.4-14.7-55.2-34.5-.2-.3-.4-.6-.3-1,0-.4.2-.7.4-.9.3-.2.6-.4,1-.3.4,0,.7.2.9.5,17.5,19.3,36.4,31.2,53.6,33.6.3,0,.7.2.9.5.2.3.3.6.3,1,0,.4-.2.7-.5.9-.3.2-.6.3-1,.3ZM1625.9,1170.8c-.2,0-.4,0-.7-.2-.2-.1-.4-.3-.5-.5-2-3-4-6.1-5.9-9.2-.1-.1-.2-.3-.2-.5,0-.2,0-.3,0-.5,0-.2.1-.3.2-.5.1-.1.2-.3.4-.4.2,0,.3-.1.5-.2.2,0,.3,0,.5,0,.2,0,.3.1.5.2.1,0,.3.2.4.4,1.9,3.1,3.8,6.2,5.9,9.1.2.3.3.7.2,1,0,.4-.3.7-.6.9-.2,0-.5,0-.8,0v.3ZM1775.7,1167.1h-.6c-.3-.2-.6-.5-.7-.8-.1-.3,0-.7.1-1.1,1.7-3.1,3.4-6.3,4.9-9.6.2-.3.4-.6.8-.7.3-.1.7-.1,1,0,.3.2.6.4.7.8.1.3.1.7,0,1.1-1.6,3.3-3.3,6.6-5.2,9.7-.1.1-.3.2-.5.3-.2,0-.4,0-.6,0v.3ZM1791.1,1132.2h-.5c-.2,0-.3-.2-.5-.3-.1-.1-.2-.3-.3-.4,0-.2-.1-.3-.1-.5,0-.2,0-.4,0-.5,6.9-20.7,11.4-42.1,13.4-63.9,0-.2,0-.3.1-.5,0-.2.2-.3.3-.4.1-.1.3-.2.5-.3.2,0,.3,0,.5,0,.4,0,.7.2.9.5.2.3.3.6.3,1-2,21.8-6.6,43.4-13.6,64.2,0,.3-.3.5-.5.7-.2.2-.5.3-.8.3v.3ZM1582.8,1059.5c-.3,0-.6-.1-.9-.3-.2-.2-.4-.5-.5-.8-1.7-10.4-3-20.8-3.7-31.2-.6-8.3-.9-16.6-.9-24.8-.3-36.2,6.1-72.2,18.9-106,.1-.3.4-.6.7-.7.3-.1.7-.2,1,0,.2,0,.3.2.5.3.1.1.2.3.3.4,0,.2.1.3.1.5s0,.4-.1.5c-12.7,33.5-19,69.2-18.7,105,0,8.1.3,16.4.9,24.6.7,10.4,2,20.8,3.7,30.7,0,.2,0,.4,0,.5,0,.2-.1.3-.2.5,0,.1-.2.3-.4.4-.2,0-.3.2-.5.2l-.3.2ZM1806,1040.8c-.4,0-.7-.2-1-.4s-.4-.6-.4-1v-3.7c0-8.1-.3-16.3-.9-24.6-3-44.9-16.1-88.5-38.1-127.7,0-.2-.2-.3-.2-.5,0-.2,0-.4,0-.5,0-.2.1-.3.2-.5.1-.1.2-.3.4-.3.1,0,.3-.1.5-.2.2,0,.3,0,.5,0,.2,0,.3.1.5.2.1.1.2.3.3.4,22.3,39.6,35.5,83.8,38.5,129.1.6,8.3.9,16.6.9,24.7v3.4c0,.2,0,.4,0,.6,0,.2-.1.3-.3.5-.1.2-.3.3-.5.3-.2,0-.4.1-.5.1ZM1608.6,873.6h-.6c-.3-.2-.6-.4-.7-.8,0-.3,0-.7,0-1,1.8-3.3,3.8-6.6,5.7-9.8,9.3-15.8,21.8-29.5,36.8-40.1.3-.2.7-.3,1.1-.2.4,0,.7.3.9.6,0,.2.2.3.2.5,0,.2,0,.4,0,.5,0,.2-.1.3-.2.5s-.2.3-.4.4c-14.7,10.3-27,23.7-36,39.2-1.9,3.1-3.8,6.3-5.6,9.6-.1.2-.3.3-.5.4s-.4.1-.7,0ZM1686.8,814.8c-3-.4-6-.5-9.1-.3h-1.5c-.2,0-.4,0-.6,0-.2,0-.4-.1-.5-.3-.2-.1-.3-.3-.4-.5,0-.2-.1-.4-.1-.6s0-.4.1-.6c0-.2.2-.4.4-.5.2-.1.3-.2.5-.3.2,0,.4,0,.6,0h1.6c3.2-.3,6.4-.2,9.6.3.4,0,.7.1,1,.4.2.3.4.6.4,1s-.1.7-.4,1c-.3.3-.6.4-1,.4h-.6Z"/>
      <g id="reel">
        <path class="cls-20" d="M2064.5,992.5c-17.9-250.3-184.1-442.3-371.2-428.9-6.3.4-12.5,1.1-18.7,2h-.4c-187.1,13.4-324.3,227.1-306.6,477.4,17.7,250.3,184.1,442.3,371.2,428.9,6.3-.5,12.5-1.1,18.7-2.1h.4c187.3-13.5,324.5-227.2,306.6-477.4ZM2005.2,998.6c3.7,53.8-22.8,100.3-60.8,110.7-41.3-2-76.7-45.9-80.6-101.9-3.7-53.8,22.8-100.3,60.9-110.7,41.3,1.9,76.6,45.7,80.5,101.8h0ZM1834.4,664.4c40.3,27.5,57.6,92.4,38.7,145-10.8,29.9-30.9,49.3-53.7,55.5-12.4-.8-24.3-5-34.5-12.2-40.3-27.5-57.6-92.4-38.6-145,10.8-29.9,31.2-49.4,53.7-55.6,12.4.8,24.3,5,34.5,12.1ZM1687.9,1090.5c-1.3-4.8-1.1-9.8.5-14.4.5-1.4,1.2-2.8,2-4.1,2.8,3.2,4.8,7,5.6,11.2.8,4.2.5,8.5-.9,12.5-.5,1.4-1.2,2.8-2,4.1-2.5-2.6-4.3-5.8-5.2-9.2h.1ZM1703.5,1018.2c-.6-5.1,0-10.2,1.9-15,1.8-4.8,4.7-9.1,8.5-12.5,4.6,2.8,8.3,6.6,11,11.2,2.7,4.6,4.1,9.8,4.2,15.1.6,5.1,0,10.2-1.9,15-1.8,4.8-4.7,9.1-8.5,12.5-4.5-2.7-8.3-6.5-11-11.1-2.7-4.6-4.2-9.7-4.3-15v-.3ZM1744.7,944.9c1.3,4.8,1.1,9.8-.5,14.4-.5,1.4-1.2,2.8-2,4.1-2.8-3.2-4.8-7-5.6-11.2-.8-4.2-.5-8.5.9-12.5.5-1.4,1.2-2.8,2-4.1,2.4,2.6,4.2,5.8,5,9.2h.1ZM1427.2,1036.8c-3.7-53.8,22.8-100.3,60.9-110.7,41.6,2,76.6,45.9,80.5,102,3.7,53.8-22.8,100.3-60.8,110.7-41.4-2-76.8-45.8-80.7-101.9h0ZM1598.1,1371c-40.3-27.5-57.6-92.4-38.6-145,10.8-29.9,31.2-49.3,53.7-55.5,12.4.8,24.3,5,34.4,12.2,40.3,27.5,57.6,92.4,38.6,145-10.8,29.9-30.9,49.4-53.7,55.5-12.4-.8-24.4-4.9-34.6-12.1h0ZM1684.5,944.1c2.2,4.4,3.1,9.3,2.5,14.2-.4,3.2-1.5,6.3-3.2,9-1.3-1.3-2.4-2.8-3.3-4.5-2.3-4.4-3.1-9.3-2.5-14.2.4-3.2,1.5-6.3,3.2-9,1.3,1.3,2.3,2.8,3.2,4.5h.1ZM1663.4,1021.6c.4,4.8-.7,9.7-3.3,13.8-3.3-3.7-5.4-8.4-5.9-13.4-.5-5,.7-10,3.3-14.3,3.5,3.8,5.6,8.7,5.8,13.9h0ZM1643.8,715.5c26,49.5,17.9,116.2-18.2,148.8-7.9,7.3-17.3,12.7-27.7,15.6-25.2-1.2-49.9-18-65.7-48.1-26-49.6-17.9-116.2,18.2-148.9,7.9-7.3,17.4-12.6,27.7-15.6,25.1,1.3,49.8,18,65.6,48.2h0ZM1747.8,1091.3c-1.9-3.6-2.8-7.7-2.7-11.7.1-4.1,1.3-8,3.4-11.5,1.3,1.3,2.4,2.8,3.3,4.5,2.3,4.4,3.1,9.3,2.5,14.2-.4,3.2-1.5,6.3-3.2,9-1.3-1.3-2.3-2.8-3.2-4.5h-.1ZM1768.9,1013.7c-.4-4.8.7-9.6,3.3-13.8,3.6,3.8,5.7,8.7,5.9,13.9.4,4.8-.8,9.7-3.3,13.8-3.6-3.8-5.6-8.7-5.8-13.9h0ZM1788.5,1319.9c-26-49.5-17.8-116.2,18.3-148.8,7.9-7.3,17.4-12.7,27.7-15.6,25.1,1.2,49.9,18,65.7,48.1,26,49.6,17.8,116.2-18.3,148.9-7.9,7.3-17.4,12.7-27.7,15.6-25.1-1.4-49.9-18.1-65.7-48.2Z"/>
        <path class="cls-6" d="M1693.3,563.6c-187.1,13.4-324.4,227.1-306.6,477.3,17.8,250.2,184.1,442.3,371.2,428.9,187.1-13.3,324.4-227.1,306.6-477.3-17.8-250.3-184.1-442.3-371.2-428.9ZM1746,707.8c18.9-52.6,66.9-72.8,107.2-45.5,40.3,27.3,57.6,92.4,38.6,145-19,52.6-67,72.8-107.2,45.5-40.3-27.3-57.5-92.4-38.6-145ZM1797.2,1011.8c.7,10.4-5.2,19.3-12.8,19.9-7.8.5-14.7-7.5-15.6-18-.9-10.4,5.2-19.3,12.8-19.9,7.6-.6,15,7.5,15.8,18h-.1ZM1737.3,939.7c.7-2.7,2.1-5.1,4.2-6.9,2.1-1.8,4.6-3.1,7.3-3.5,2.6-.1,5.2.6,7.4,2.1,3.7,2.8,6.3,6.7,7.3,11.2,1.3,4.8,1.1,9.8-.5,14.4-.7,2.6-2.2,5-4.3,6.8-2.1,1.8-4.6,3-7.3,3.3-2.6.2-5.2-.6-7.4-2.1-3.6-3-6.2-7.1-7.3-11.6-1.2-4.5-1-9.3.7-13.7h0ZM1703.4,942c2.3,4.4,3.1,9.3,2.5,14.2-.4,4.6-2.4,8.8-5.7,12-1.9,1.8-4.4,2.9-7,3.1-2.7,0-5.4-.8-7.7-2.3s-4.1-3.7-5.2-6.2c-2.3-4.4-3.1-9.3-2.5-14.2.4-4.6,2.4-8.8,5.7-12,1.9-1.8,4.3-2.9,6.9-3.1,2.8,0,5.5.8,7.8,2.3,2.3,1.5,4.1,3.7,5.2,6.2h0ZM1550.3,682.8c36.4-32.6,86.5-19,112.6,30.6,26,49.6,17.8,116.2-18.3,148.8-36.1,32.6-86.5,19-112.5-30.6-26-49.5-17.9-116.2,18.2-148.9ZM1682.4,1019.6c.7,10.4-5.2,19.3-12.8,19.8-7.8.6-14.8-7.5-15.6-18-.8-10.4,5.2-19.3,12.8-19.8s14.8,7.5,15.5,18ZM1427.1,1036.8c-4.2-59.3,28.5-109.7,72.8-112.8,44.3-3,83.6,42.6,87.7,101.9,4.2,59.3-28.5,109.8-72.8,112.8-44.2,3-83.6-42.6-87.7-101.9ZM1705.3,1325.5c-18.9,52.6-66.9,72.8-107.3,45.5-40.3-27.3-57.6-92.4-38.6-145,19-52.6,67-72.8,107.3-45.5,40.3,27.3,57.6,92.7,38.6,145ZM1714,1093.6c-.8,2.6-2.2,5-4.3,6.8-2,1.8-4.6,3-7.3,3.4-2.6.2-5.2-.6-7.4-2.1-3.7-2.7-6.3-6.7-7.3-11.1-1.3-4.8-1.1-9.8.5-14.4.7-2.7,2.2-5.1,4.2-6.9,2.1-1.8,4.6-3,7.3-3.5,2.6-.1,5.2.6,7.4,2.1,3.7,3,6.3,7.2,7.6,11.8s1,9.5-.7,14ZM1703.6,1018.2c-1.1-16.5,7.9-30.6,20.2-31.2,12.3-.6,23.3,11.7,24.5,28.3,1.2,16.5-7.9,30.5-20.2,31.2-12.3.6-23.7-11.8-24.7-28l.3-.3ZM1747.9,1091.3c-2.2-4.2-3-8.9-2.4-13.5.6-4.7,2.6-9,5.7-12.5,1.9-1.8,4.4-2.9,7-3.1,2.7,0,5.3.8,7.6,2.3,2.3,1.5,4.1,3.6,5.2,6,2.3,4.4,3.1,9.3,2.5,14.2-.4,4.6-2.4,8.8-5.7,12-1.9,1.8-4.3,2.9-6.9,3.1-2.8,0-5.4-.8-7.8-2.4-2.3-1.5-4.1-3.7-5.2-6.2ZM1901.1,1350.4c-36.1,32.7-86.5,19-112.6-30.6-26-49.6-17.8-116.2,18.3-148.8,36.1-32.6,86.5-19,112.5,30.6,26,49.6,17.9,116.2-18.2,148.9h0ZM1951.5,1109.1c-44.3,3-83.6-42.6-87.7-101.9-4.2-59.3,28.5-109.7,72.8-112.7s83.6,42.6,87.7,101.9c4.1,59.2-28.4,109.8-72.7,112.8h0Z"/>
      </g>
      <path class="cls-20" d="M2125.4,1736.7s-6.7-72.8-42.5-98c-25.3-17.8-8.8,31.2-8.8,31.2,0,0-37.1-49.6-57.8-36.6-20.8,13,36.4,62.8,36.4,62.8,0,0-21.6-16.9-22.6,5.2-1,22.1,70.7,48.7,95.4,35.4Z"/>
      <path class="cls-7" d="M2125.4,1736.7s-6.7-72.8-42.5-98c-25.3-17.8-8.8,31.2-8.8,31.2,0,0-37.1-49.6-57.8-36.6-20.8,13,36.4,62.8,36.4,62.8,0,0-21.6-16.9-22.6,5.2-1,22.1,70.7,48.7,95.4,35.4Z"/>
      <path class="cls-20" d="M2124.3,1774.7c-.4-.7-44.9-69.5-6.5-162,38.5-92.6,70.7-192,43.7-284.6l5.2-1.5c27.4,94.1-4.9,194-43.9,288-37.3,89.9,5.6,156.5,6.1,157.2l-4.6,2.9Z"/>
      <path class="cls-20" d="M2116.3,1736.7s-9.6-41.1,12-72.8c21.6-31.6,16.5,7.2,16.5,7.2,0,0,26.7-41.6,52.4-50.6,25.7-9-5.2,38.3-5.2,38.3,1.5-1.1,3.2-1.9,5-2.3,1.8-.3,3.7-.3,5.5.2,1.8.5,3.5,1.4,4.8,2.7,1.4,1.3,2.5,2.8,3.1,4.6,7.2,13.1-28,63.3-94.2,72.7Z"/>
      <path class="cls-8" d="M2116.3,1736.7s-9.6-41.1,12-72.8c21.6-31.6,16.5,7.2,16.5,7.2,0,0,26.7-41.6,52.4-50.6,25.7-9-5.2,38.3-5.2,38.3,1.5-1.1,3.2-1.9,5-2.3,1.8-.3,3.7-.3,5.5.2,1.8.5,3.5,1.4,4.8,2.7,1.4,1.3,2.5,2.8,3.1,4.6,7.2,13.1-28,63.3-94.2,72.7Z"/>
      <path class="cls-13" d="M2011.9,1785c0,54-23.8,97.8,97.8,97.8s97.8-43.8,97.8-97.8-43.8-69.3-97.8-69.3-97.8,15.3-97.8,69.3Z"/>
      <path class="cls-13" d="M2001.3,1768.3h216.5v-53.6h-216.5v53.6Z"/>
      <path class="cls-7" d="M2001.3,1768.3h216.5v-53.6h-216.5v53.6Z"/>
      <path class="cls-20" d="M2124.3,1603.8l-1-2.5c-13.8-33.2-13-77.1-12.9-78.9h5.2c0,.5-.8,42.4,11.5,74.3,12.2-5.7,66.3-31.8,81.2-52l4.2,3.1c-17.5,23.7-82.9,53.4-85.6,54.6l-2.4,1.4Z"/>
      <path class="cls-20" d="M2167.5,1463.8l-1.1-3.6c-7-21.2-20.2-39.7-37.8-53.4l3.1-4.3c17.6,13.5,31,31.7,38.6,52.5,11.5-9.3,53.6-44.2,61.5-64.3l4.8,1.9c-9.7,24.5-63.8,67-66.1,68.9l-3,2.3Z"/>
      <path class="cls-20" d="M2171.8,1364.7s2.1-17.1-22.6-34.9c-24.8-17.8-30.4-43.1-15.6-53.7,14.8-10.7-12.1-32.1,6.1-36.4,18.2-4.3,9.5,29.1,25.2,27.3,15.6-1.8,31.2,41.1,7,97.6Z"/>
      <path class="cls-20" d="M2211,1422c4.3-13.5,5.6-27.9,3.6-41.9-3.5-21.8,17.1-35.8,25.3-17.2,8.2,18.5,26-7.2,33.9,16.4,7.9,23.6-33.4,25.7-28.8,37.3,4.5,11.5-34,5.5-34,5.5Z"/>
      <path class="cls-20" d="M2151.3,1425.7s-13.3-52.7-20.8-58.6c-7.5-5.9-6.9,10-19.3.9-12.4-9.1-32.8-14.8-30.3,4.9,2.5,19.7,37.7,25.2,24.9,35.8-12.8,10.5,37.5,5.8,45.5,17Z"/>
      <path class="cls-20" d="M2115,1555.3s31.5-29.6,20.8-36.4c-10.7-6.8-11,7.7-13.7-7.4-2.8-15.2.7-32.4-14.6-29.9-15.2,2.5-2.8,40.2-12.3,39.5-9.5-.6-21.5-12.1-19.6,3.2,1.8,15.2,39.4,31,39.4,31Z"/>
      <path class="cls-20" d="M2175.7,1575.9s17.1-30.4,16.7-48c-.3-17.6,21.3-25.1,19.6-3.2-1.7,21.8,23.4-23.5,33.7-11.7,10.3,11.8,5.2,38.6-12.7,43.6-17.9,5,4.7,12.2-3.1,23.7-7.8,11.5-54.2-4.4-54.2-4.4Z"/>
      <g class="cls-9">
        <path class="cls-16" d="M2171.8,1364.7s2.1-17.1-22.6-34.9c-24.8-17.8-30.4-43.1-15.6-53.7,14.8-10.7-12.1-32.1,6.1-36.4,18.2-4.3,9.5,29.1,25.2,27.3,15.6-1.8,31.2,41.1,7,97.6Z"/>
        <path class="cls-16" d="M2211,1422c4.3-13.5,5.6-27.9,3.6-41.9-3.5-21.8,17.1-35.8,25.3-17.2,8.2,18.5,26-7.2,33.9,16.4,7.9,23.6-33.4,25.7-28.8,37.3,4.5,11.5-34,5.5-34,5.5Z"/>
        <path class="cls-16" d="M2151.3,1425.7s-13.3-52.7-20.8-58.6c-7.5-5.9-6.9,10-19.3.9-12.4-9.1-32.8-14.8-30.3,4.9,2.5,19.7,37.7,25.2,24.9,35.8-12.8,10.5,37.5,5.8,45.5,17Z"/>
        <path class="cls-16" d="M2115,1555.3s31.5-29.6,20.8-36.4c-10.7-6.8-11,7.7-13.7-7.4-2.8-15.2.7-32.4-14.6-29.9-15.2,2.5-2.8,40.2-12.3,39.5-9.5-.6-21.5-12.1-19.6,3.2,1.8,15.2,39.4,31,39.4,31Z"/>
        <path class="cls-16" d="M2175.7,1575.9s17.1-30.4,16.7-48c-.3-17.6,21.3-25.1,19.6-3.2-1.7,21.8,23.4-23.5,33.7-11.7,10.3,11.8,5.2,38.6-12.7,43.6-17.9,5,4.7,12.2-3.1,23.7-7.8,11.5-54.2-4.4-54.2-4.4Z"/>
      </g>
      <g id="leftarm">
        <path class="cls-18" d="M546.8,767.5l-9.9,8.2c-3.4,2.8-6.8,5.7-10.1,8.6-6.5,5.8-12.9,11.7-18.5,17.7-5,5-9.3,10.6-13,16.7-.6.9-1.1,1.9-1.6,2.9-.3.5,0,.6-.4.9v-.3c0-.3,0-.6,0-.8,0-.4,0-.7,0-1.1-.6-2,0,.8,1.1,3.5,3.7,7,8.2,13.7,13.4,19.8,5.5,6.9,11.7,13.8,17.9,20.8,12.6,13.7,26,27.3,39.5,40.7l-16.4,22.1c-17.6-9.9-34.4-21-50.3-33.3-8.2-6.2-16-12.9-23.5-20-8.5-7.7-16-16.5-22.4-26-2-3-3.7-6.2-5.2-9.5-2-4.4-3.3-9.2-3.8-14-.2-1.6-.3-3.1-.3-4.7v-4.7c.3-2.1.6-4.3,1-6.2.8-3.7,1.9-7.3,3.3-10.8,4.7-11.4,11.1-22,19-31.5,7-8.3,14.6-16.1,22.7-23.3,3.9-3.6,7.8-7.1,11.9-10.4,4.1-3.3,8-6.4,12.9-9.8l32.6,44.6Z"/>
        <path class="cls-18" d="M565.1,905s20.4,28.9,17.3,40.7c-3.5,10.7-8,21-13.5,30.8l-33.1,4,11-28.9,1.9-28.3,16.4-18.3Z"/>
      </g>
      <path class="cls-20" d="M616.1,707.8c1.6,32.9-70,80.6-70,80.6l-64.9-48.7c12.6-20.9,30.4-38.2,51.7-50.1,38.4-22.3,81.6-15.5,83.2,18.2Z"/>
      <path class="cls-4" d="M616.1,707.8c.7,13.8-11.6,30.3-26,44.7-10.9,10.6-22.5,20.4-34.7,29.4-5.6,4.1-9.2,6.5-9.2,6.5l-48.8-36.7-16-12.1s.5-.9,1.4-2.4c12.7-19.7,29.9-36,50.2-47.7,38.3-22.3,81.5-15.4,83.1,18.2Z"/>
      <path class="cls-20" d="M481.2,731.8l73.6,56.6-12.2,13.2-68.3-58.3,6.9-11.5Z"/>
      <path class="cls-3" d="M590.1,752.5c-10.9,10.6-22.5,20.4-34.7,29.4-2.1-23.1,11.5-50.1,11.5-50.1,8.7,5.7,16.6,12.7,23.2,20.7Z"/>
      <path class="cls-18" d="M407.9,1832l33.5,7.2,33.6-73.9-33.5-7.2-33.6,73.9Z"/>
      <path class="cls-18" d="M659.3,1847.9h34.2l3.4-79.3h-34.2l-3.4,79.3Z"/>
      <path class="cls-3" d="M697,1768.6l-1.8,40.8h-34.3l1.8-40.8h34.3Z"/>
      <path class="cls-3" d="M441.5,1758.1l33.5,7.3-17.4,38.1-33.5-7.3,17.4-38.1Z"/>
      <path class="cls-13" d="M683.9,976.5s0,1.5-.6,4.3c-.6,2.8-1.2,7.7-2,13.7-6.5,43.1-23.8,155.9-39.6,247-6.5,37.3-12.7,71-18,94.9-23.4,107.5-148.7,462.5-148.7,462.5l-61.3-13.2s87.7-289.3,107.3-439.7c12.7-96.9,35.6-291.9,42.7-351.7.7-6,1.2-10.4,1.6-13.7s.5-4.3.5-4.3l118.3.2Z"/>
      <path class="cls-6" d="M683.9,976.5s0,1.5-.6,4.3c-.6,2.8-1.2,7.7-2,13.7-6.5,43.1-23.8,155.9-39.6,247-6.5,37.3-12.7,71-18,94.9-23.4,107.5-148.7,462.5-148.7,462.5l-61.3-13.2s87.7-289.3,107.3-439.7c12.7-96.9,35.6-291.9,42.7-351.7.7-6,1.2-10.4,1.6-13.7s.5-4.3.5-4.3l118.3.2Z"/>
      <path class="cls-2" d="M659.3,1069.8c-44.9,8.8-40.2,176.7-34.8,262.7,13-61,32-178.2,45-261.5-3.1-1.5-6.7-1.9-10.1-1.2Z"/>
      <path class="cls-13" d="M749.9,1337.1c-3.9,108.7-41.8,464.5-41.8,464.5h-58s-2.1-349.5-4.7-456.2c-.6-28.3-2-64.9-3.6-103.9-4.1-95.1-9.9-204.8-12.3-247,0-6-.5-10.4-.7-13.7s0-4.3,0-4.3h120.5v17.9c1,59.9,3.8,254.9.7,342.7Z"/>
      <path class="cls-6" d="M749.9,1337.1c-3.9,108.7-41.8,464.5-41.8,464.5h-58s-2.1-349.5-4.7-456.2c-.6-28.3-2-64.9-3.6-103.9-4.1-95.1-9.9-204.8-12.3-247,0-6-.5-10.4-.7-13.7s0-4.3,0-4.3h120.5v17.9c1,59.9,3.8,254.9.7,342.7Z"/>
      <path class="cls-18" d="M623.9,583.1c5.2,25,9.8,71-7.7,87.7,0,0,6.8,25.4,53.4,25.4s24.4-25.4,24.4-25.4c-27.9-6.7-27.2-27.4-22.3-46.8l-47.8-40.9Z"/>
      <path class="cls-20" d="M606.1,675.5c-3.7-7-7.8-14.9.7-17.4,9.4-2.8,69.6-7.8,87.4-2.7-5.5,9.7,3.7,21.6,3.7,21.6l-91.8-1.5Z"/>
      <path class="cls-20" d="M454.4,1843.9c1.4.5,2.8.7,4.3.6,1.5,0,2.9-.4,4.2-1.1.5-.5.9-1.1,1-1.8.1-.7,0-1.4-.2-2-.1-.5-.4-1-.8-1.4-.4-.4-.8-.7-1.3-1-4.6-2.2-15.3,2.1-15.6,2.3-.2,0-.3.1-.4.3,0,.1-.1.3-.1.5,0,.2,0,.3.1.5s.2.2.4.3c2.7,1.2,5.5,2.2,8.4,2.8ZM460,1838.4c.3,0,.6.2.9.3.3.1.6.3.8.5.2.2.4.5.5.8.4,1.5,0,1.9,0,2.1-1.9,1.6-8.7,0-13.5-1.8,3.6-1.5,7.5-2.2,11.3-2Z"/>
      <path class="cls-20" d="M446.1,1841.1h.4c3.8-1.1,12.2-7,12.3-10.9,0-.6-.2-1.2-.6-1.7-.4-.5-.9-.8-1.5-1-.6-.2-1.2-.3-1.8-.2s-1.2.2-1.8.5c-4.6,2.3-7.5,11.8-7.6,12.2,0,.1-.1.3-.1.4s0,.3.1.4c.2.1.4.2.6.2ZM455.8,1829.2h.4c1,.3,1,.8,1,1,0,2.3-5.6,6.9-9.6,8.8,1-3.8,3.2-7.2,6.2-9.7.6-.3,1.3-.3,2-.2Z"/>
      <path class="cls-20" d="M707.3,1849.6c4.4,0,8.6-.6,10.1-2.6.4-.5.6-1.1.6-1.8s-.2-1.2-.6-1.8c-.3-.5-.6-.9-1.1-1.2-.4-.3-.9-.6-1.5-.7-5.7-1.6-17.7,5.2-18.2,5.6-.1,0-.3.2-.3.3,0,.2-.1.3,0,.5,0,.2.1.3.2.5.1.1.3.2.4.2,3.4.7,6.9,1,10.4,1ZM712.5,1843c.5,0,1,0,1.6,0,.3,0,.6.2.9.4.3.2.5.4.7.7.6,1,.4,1.5,0,1.8-1.6,2.2-10.4,2.2-16.6,1.4,4.3-2.3,8.9-3.8,13.8-4.3h-.3Z"/>
      <path class="cls-20" d="M697,1848.7h.3c4.2-1.9,12.3-9.2,11.7-13.2,0-.9-.8-2-3-2.2-.8-.1-1.6,0-2.4.2-.8.2-1.5.6-2.1,1.2-3.1,3.8-4.9,8.4-5.2,13.2,0,.2,0,.3,0,.4,0,.1.2.2.3.3h.3ZM705.4,1834.8h.5c1.5,0,1.6.7,1.6.9.4,2.3-5.2,8.2-9.4,10.7.4-3.8,2-7.5,4.5-10.4.8-.7,1.8-1.2,2.8-1.2Z"/>
      <path class="cls-13" d="M444.6,1835.9l-37.6-8.1c-.7-.2-1.4,0-2,.2-.6.3-1.1.8-1.4,1.4l-13,28.3c-.3.7-.4,1.4-.4,2.2,0,.8.2,1.5.6,2.2.3.7.8,1.2,1.4,1.7.6.5,1.3.8,2,1,13.1,2.6,19.7,3.2,36.4,6.8,10.4,2.2,33.2,7.8,47.2,10.9,14,3.1,18.9-10.4,13.4-13-24.6-11.2-34.8-21.1-41.6-30.3-1.2-1.7-3-2.8-5-3.3Z"/>
      <path class="cls-13" d="M693.4,1843.9h-37.4c-.7,0-1.3.2-1.9.6-.5.4-.9,1-1,1.7l-6.8,30.4c-.1.7,0,1.5,0,2.2.2.7.5,1.4,1,2,.5.6,1,1.1,1.7,1.4.7.3,1.4.5,2.1.6,13.5-.3,33-1,50-1s36.9,1.1,60.2,1.1,17.9-14.2,12.1-15.6c-26.8-5.9-48.7-6.5-71.8-20.8-2.5-1.6-5.3-2.5-8.3-2.5Z"/>
      <path class="cls-20" d="M746.8,680.4s36.4,41.2,2.1,296.2h-183.3c-1.2-28.1,16.4-165.4-10.7-297.9,20.3-3.9,40.8-6.5,61.4-7.7,26-1.5,52-1.5,77.9,0,17.7,1.8,35.3,4.9,52.6,9.4Z"/>
      <path class="cls-4" d="M763.6,801.6c-1.4,58.5-6.3,117-14.7,174.9h-183.3c-1.2-28.1,16.5-165.3-10.7-297.9,20.3-3.9,40.8-6.5,61.4-7.7,26-1.5,52-1.5,77.9,0,17.8,1.8,35.4,5,52.7,9.5,0,0,6.9,7.7,11.8,37.5,4,27.7,5.6,55.7,4.8,83.7Z"/>
      <path class="cls-3" d="M763.6,801.6c-15.3-16.1-42-48.3-39.7-75.3l34.8-8.3c4,27.7,5.7,55.7,4.9,83.7Z"/>
      <path class="cls-20" d="M489.6,1778.7l-11.4,22.1-69-14.9,5.8-20.8,74.6,13.6Z"/>
      <path class="cls-20" d="M719.2,1778.4l-3.3,24.1h-70.6l-1.9-21.5,75.8-2.6Z"/>
      <g id="rightarm">
        <path class="cls-18" d="M944.5,570.7l21.4-37.1,29,23.6s-11.3,28.1-36.4,27.7l-14.1-14.3Z"/>
        <path class="cls-18" d="M734,698.1c9.7-3.1,20.5-6.4,30.7-10,10.1-3.6,20.8-7.2,30.7-11.1,19.9-7.4,39.4-16,58.1-26,17.8-10.1,34.2-22.5,48.8-36.9,15.7-15.1,30.6-30.9,44.6-47.6l23.6,14.1c-9.9,21.8-22.2,42.5-36.7,61.5-7.4,9.8-15.5,19-24.2,27.6-4.4,4.5-9.2,8.7-14.1,12.8-4.9,4.2-10.4,8.2-15.6,11.4-10.1,6.8-20.6,13.1-31.5,18.7-10.7,5.7-21.5,10.7-32.4,15.6-10.9,4.9-21.9,9-33,12.9-11.1,3.9-22.1,7.5-34.2,10.4l-14.7-53.5Z"/>
        <path class="cls-18" d="M981.4,525.5l27.6,14.8-14.3,17.6-28.8-24.2,15.5-8.1Z"/>
      </g>
      <path class="cls-20" d="M731.7,756.8c32.9,33.8,115.4-12.3,115.4-12.3l-24.5-79.4c-28.9.8-57.6,4.5-85.8,10.9-50.9,12.4-30.1,55-5.1,80.8Z"/>
      <path class="cls-4" d="M731.7,756.8c32.9,33.8,115.4-12.3,115.4-12.3l-24.5-79.4c-28.9.8-57.6,4.5-85.8,10.9-50.9,12.4-30.1,55-5.1,80.8Z"/>
      <path class="cls-4" d="M489.6,1778.7l-11.4,22.1-69-14.9,5.8-20.8,74.6,13.6Z"/>
      <path class="cls-4" d="M719.2,1778.4l-3.3,24.1h-70.6l-1.9-21.5,75.8-2.6Z"/>
      <path class="cls-20" d="M814.3,663.1l23.3,96.7,15.6-13-27.1-86.5-11.7,2.9Z"/>
      <path class="cls-13" d="M651.7,980.7h-64v13.7h64v-13.7Z"/>
      <path class="cls-13" d="M719.6,980.7h-59.4v13.7h59.4v-13.7Z"/>
      <path class="cls-13" d="M582,980.7v13.7h-18.6c.7-6,1.2-10.4,1.6-13.7h17Z"/>
      <path class="cls-13" d="M749.2,994.4h-23.9v-13.7h23.6c.1,3.1.2,7.7.3,13.7Z"/>
      <g id="head">
        <path class="cls-13" d="M701.1,545.1c.6,2.7,2.4,4.6,4.2,4.3,1.8-.4,2.8-2.9,2.2-5.6-.5-2.7-2.4-4.6-4.2-4.3-1.8.4-2.8,2.9-2.2,5.6Z"/>
        <path class="cls-13" d="M688.1,532.1c-.2,0-.4,0-.6-.1-.2,0-.4-.2-.5-.3-.2-.1-.3-.3-.4-.5,0-.2-.1-.4-.1-.6s0-.4.1-.6c0-.2.2-.4.4-.5,1.7-1.9,3.9-3.4,6.3-4.3,2.4-.9,5-1.2,7.5-.9.4,0,.8.3,1,.7.2.3.3.8.3,1.2,0,.4-.3.8-.7,1s-.8.3-1.2.3c-2-.2-4.1.1-6,.9-1.9.8-3.6,2-4.9,3.5-.4.3-.8.4-1.3.4Z"/>
        <path class="cls-11" d="M703.2,549.7c4.9,7.7,10.9,14.7,17.7,20.8-1.5,1.7-3.5,3.1-5.6,4-2.1.9-4.5,1.3-6.8,1.2l-5.2-26Z"/>
        <path class="cls-18" d="M609.6,557.7c8.8,32.8,12.3,52.5,32.5,66.2,30.5,20.8,68.4-3,69.6-37.8,1.1-31.2-13.5-79.8-48.7-86.4-7.8-1.5-15.8-1-23.3,1.5-7.5,2.5-14.3,6.8-19.6,12.6-5.4,5.8-9.1,12.9-11,20.6-1.8,7.7-1.7,15.7.5,23.3Z"/>
        <path class="cls-13" d="M624.7,611.3c14,8,64.9-18.8,54.4-59.2,0,0,19.4-23.3,17.2-49.1-2.2-25.8-19.8-35.5-38.6-30-16.6,4.8-16.1,13.9-16.1,13.9,0,0-78.3,9.2-61.6,41.1-31.9,34.7,27.3,73.3,44.7,83.3Z"/>
        <path class="cls-18" d="M665.5,559.1c2.3,8.1,7.1,15.3,13.8,20.4,8.9,6.7,15.6,0,15-10-.6-9.1-5.9-23.5-15.6-26-9.7-2.5-15.7,5.7-13.2,15.5Z"/>
        <path class="cls-13" d="M694.3,476.7c-29.4-29.8-57.6,10.9-57.6,10.9l49.8-4.8c23,11.6,12.3,39.8,12.3,39.8,0,0,19.5-21.5-4.5-45.8Z"/>
      </g>
      <path class="cls-12" d="M274.8,1564.9H123.6v.9h151.2v-.9Z"/>
      <path class="cls-12" d="M320.4,331.7c5.5,0,10.8,2.2,14.7,6.1,3.9,3.9,6.1,9.2,6.2,14.7v997.8c0,2.8-.5,5.5-1.6,8-1,2.5-2.6,4.9-4.5,6.8-1.9,2-4.2,3.5-6.8,4.6-2.5,1.1-5.3,1.6-8,1.6M320.4,1370.3c5.3,0,10.4-2.1,14.2-5.9,3.8-3.8,5.9-8.8,5.9-14.2V352.5c0-5.3-2.1-10.4-5.9-14.2-3.8-3.8-8.9-5.9-14.2-5.9"/>
      <path class="cls-19" d="M285.7,1659.6"/>
      <path class="cls-16" d="M74.3,1177.9c.4.5.5,1.1.5,1.7,0,.6-.3,1.2-.8,1.6-.5.4-1,.7-1.7.7-.6,0-1.2-.2-1.7-.6-.4-.4-.6-1-.6-1.5,0-.6.1-1.1.4-1.6.5-.5,1.2-.8,1.9-.9.7,0,1.4.2,2,.6Z"/>
    </g>
  </g>
</svg>