<?xml version="1.0" encoding="UTF-8"?>
<svg id="Layer_1" data-name="Layer 1" xmlns="http://www.w3.org/2000/svg" version="1.1" viewBox="0 0 21.8 19.8">
  <defs>
    <style>
      .cls-1 {
        fill: #fff;
        stroke-width: 0px;
      }
    </style>
  </defs>
  <path class="cls-1" d="M1.4,9.9c0-.6.4-1,1-1h9.6l-2-2,1.4-1.4,3.7,3.7c.4.4.4,1,0,1.4l-3.7,3.7-1.4-1.4,2-2H2.4c-.6,0-1-.4-1-1ZM4.4,4.9c0-2.2,1.8-4,4-4h8c2.2,0,4,1.8,4,4v10c0,2.2-1.8,4-4,4h-8c-2.2,0-4-1.8-4-4s.4-1,1-1,1,.4,1,1c0,1.1.9,2,2,2h8c1.1,0,2-.9,2-2V4.9c0-1.1-.9-2-2-2h-8c-1.1,0-2,.9-2,2s-.4,1-1,1-1-.4-1-1Z"/>
</svg>