<svg xmlns="http://www.w3.org/2000/svg" xmlns:xlink="http://www.w3.org/1999/xlink" version="1.1" viewBox="0 0 472 351">
  <defs>
    <style>
      .cls-1 {
        stroke: url(#linear-gradient);
      }

      .cls-1, .cls-2 {
        fill: none;
      }

      .cls-3 {
        fill: #f5f5f5;
      }

      .cls-3, .cls-4, .cls-2, .cls-5, .cls-6, .cls-7, .cls-8, .cls-9, .cls-10, .cls-11, .cls-12, .cls-13, .cls-14, .cls-15, .cls-16, .cls-17, .cls-18, .cls-19, .cls-20, .cls-21, .cls-22, .cls-23, .cls-24 {
        stroke-width: 0px;
      }

      .cls-4 {
        fill: #cf6f64;
      }

      .cls-25 {
        mask: url(#mask);
      }

      .cls-5 {
        fill: #e8ecf1;
      }

      .cls-6 {
        opacity: .6;
      }

      .cls-6, .cls-10, .cls-13, .cls-15, .cls-16, .cls-26, .cls-20, .cls-22, .cls-23, .cls-24 {
        isolation: isolate;
      }

      .cls-6, .cls-11, .cls-16, .cls-23 {
        fill: #000;
      }

      .cls-7, .cls-22 {
        fill: #fafafa;
      }

      .cls-8 {
        fill: #e0e0e0;
      }

      .cls-27 {
        mix-blend-mode: multiply;
      }

      .cls-9 {
        fill: #e58a7b;
      }

      .cls-10 {
        opacity: 0;
      }

      .cls-10, .cls-14, .cls-15 {
        fill: #012e71;
      }

      .cls-12 {
        fill: #f0f0f0;
      }

      .cls-13 {
        opacity: .1;
      }

      .cls-13, .cls-19, .cls-20, .cls-24 {
        fill: #fff;
      }

      .cls-15 {
        opacity: .5;
      }

      .cls-16, .cls-24 {
        opacity: .4;
      }

      .cls-17 {
        fill: #df5753;
      }

      .cls-18 {
        fill: #d9d9d9;
      }

      .cls-20 {
        opacity: .3;
      }

      .cls-21 {
        fill: #e6e6e6;
      }

      .cls-22 {
        opacity: .6;
      }

      .cls-23 {
        opacity: .2;
      }

/* Stroke Animation */
.cls-1, .cls-21, .cls-8, .cls-7, .cls-4, .cls-9 {
  stroke-dasharray: 1000;
  stroke-dashoffset: 1000;
  animation: dash 5s linear forwards;
}

@keyframes dash {
  to {
    stroke-dashoffset: 0;
  }
}

/* Fill Animation */
.cls-3, .cls-4, .cls-7, .cls-8, .cls-9 {
  animation: fillAnimation 15s ease-in-out infinite;
}

@keyframes fillAnimation {
  0%, 100% {
    fill: #f5f5f5;
  }
  50% {
    fill: #BBD9FF;
  }
}

/* Background Animation */
.cls-12 {
  animation: backgroundMove 40s linear infinite, colorChange 40s linear infinite;
}

@keyframes backgroundMove {
  0% {
    transform: translateX(0%);
  }
  45% {
    transform: translateX(100%);
  }
  55% {
    transform: translateX(100%);
  }
  100% {
    transform: translateX(0%);
  }
}

@keyframes colorChange {
  0% {
    fill: #BBD9FF; /* Light blue */
  }
  50% {
    fill: #0045b6; /* Darker blue */
  }
  100% {
    fill: #BBD9FF; /* Light blue */
  }
}

    </style>
    <mask id="mask" x="-957" y="-1502.8" width="4096" height="2569.6" maskUnits="userSpaceOnUse">
      <g id="mask0_9_6529" data-name="mask0 9 6529">
        <rect class="cls-18" x="-146" y="-497" width="768" height="989"/>
      </g>
    </mask>
    <linearGradient id="linear-gradient" x1="238" y1="417" x2="238" y2="-63" gradientTransform="translate(0 352) scale(1 -1)" gradientUnits="userSpaceOnUse">
      <stop offset="0" stop-color="#0045b6"/>
      <stop offset="1" stop-color="#00c9ff"/>
    </linearGradient>
  </defs>
  <g class="cls-26">
    <g id="Layer_1" data-name="Layer 1">
      <g>
        <g class="cls-25">
          <rect class="cls-2" x="-957" y="-1502.8" width="4096" height="2569.6"/>
        </g>
        <g>
          <path class="cls-12" d="M-2-50c0-8.3,6.7-15,15-15h450c8.3,0,15,6.7,15,15v450c0,8.3-6.7,15-15,15H13c-8.3,0-15-6.7-15-15V-50Z"/>
          <path class="cls-1" d="M13-64.5h450c8,0,14.5,6.5,14.5,14.5v450c0,8-6.5,14.5-14.5,14.5H13c-8,0-14.5-6.5-14.5-14.5V-50c0-8,6.5-14.5,14.5-14.5Z"/>
        </g>
        <path class="cls-21" d="M471.1,308.5H0v.2h471.1v-.2Z"/>
        <path class="cls-21" d="M117.6,322.7h-31.2v.2h31.2v-.2Z"/>
        <path class="cls-21" d="M76.5,322.7h-18.1v.2h18.1v-.2Z"/>
        <path class="cls-21" d="M198.4,326.2h-18.1v.2h18.1v-.2Z"/>
        <path class="cls-21" d="M292.6,331.4h-40.7v.2h40.7v-.2Z"/>
        <path class="cls-21" d="M243.6,331.4h-6v.2h6v-.2Z"/>
        <path class="cls-21" d="M427.1,326.2h-88.3v.2h88.3v-.2Z"/>
        <path class="cls-21" d="M223.3,266.4H41.4c-1.4,0-2.8-.6-3.8-1.6-1-1-1.6-2.4-1.6-3.8V5.3c0-1.4.6-2.8,1.6-3.8,1-1,2.4-1.6,3.8-1.6h181.9c1.4,0,2.8.6,3.8,1.6,1,1,1.6,2.4,1.6,3.8v255.7c0,1.4-.6,2.8-1.6,3.8s-2.4,1.6-3.8,1.6ZM41.4.2c-1.4,0-2.7.5-3.6,1.5-1,1-1.5,2.3-1.5,3.6v255.7c0,1.4.5,2.7,1.5,3.6,1,1,2.3,1.5,3.6,1.5h181.9c1.4,0,2.7-.5,3.6-1.5,1-1,1.5-2.3,1.5-3.6V5.3c0-1.4-.5-2.7-1.5-3.6-1-1-2.3-1.5-3.6-1.5H41.4Z"/>
        <path class="cls-21" d="M427.1,266.4h-181.9c-1.4,0-2.8-.6-3.8-1.6-1-1-1.6-2.4-1.6-3.8V5.3c0-1.4.6-2.8,1.6-3.8,1-1,2.4-1.6,3.8-1.6h181.9c1.4,0,2.8.6,3.8,1.6,1,1,1.6,2.4,1.6,3.8v255.7c0,1.4-.6,2.8-1.6,3.8-1,1-2.4,1.6-3.8,1.6ZM245.2.2c-1.4,0-2.7.5-3.6,1.5-1,1-1.5,2.3-1.5,3.6v255.7c0,1.4.5,2.7,1.5,3.6,1,1,2.3,1.5,3.6,1.5h181.9c1.4,0,2.7-.5,3.6-1.5,1-1,1.5-2.3,1.5-3.6V5.3c0-1.4-.5-2.7-1.5-3.6-1-1-2.3-1.5-3.6-1.5h-181.9Z"/>
        <path class="cls-8" d="M251.9,228h-20.7v82.2h20.7v-82.2Z"/>
        <path class="cls-7" d="M248,310.2h3.9v-11.2h-8.1l4.1,11.2Z"/>
        <path class="cls-8" d="M161.1,228h-20.7v82.2h20.7v-82.2Z"/>
        <path class="cls-7" d="M251.9,228h-94.2v75.3h94.2v-75.3Z"/>
        <path class="cls-8" d="M248.5,231.7v19.9h-87.4v-19.9h87.4M248.8,231.3h-88.1v20.7h88.1v-20.7h0Z"/>
        <path class="cls-7" d="M161.6,310.2h-3.9v-11.2h8.1l-4.1,11.2Z"/>
        <path class="cls-21" d="M202.7,241.6c0,.4.1.8.4,1.2.2.3.6.6.9.8.4.2.8.2,1.2.1.4,0,.8-.3,1.1-.6s.5-.7.6-1.1c0-.4,0-.8-.1-1.2-.2-.4-.4-.7-.8-.9-.3-.2-.7-.4-1.2-.4s-1.1.2-1.5.6-.6.9-.6,1.5Z"/>
        <path class="cls-8" d="M248.5,255.7v19.9h-87.4v-19.9h87.4M248.8,255.3h-88.1v20.7h88.1v-20.6h0Z"/>
        <path class="cls-21" d="M202.7,265.7c0,.4.1.8.4,1.2.2.3.6.6.9.8.4.2.8.2,1.2.1.4,0,.8-.3,1.1-.6.3-.3.5-.7.6-1.1,0-.4,0-.8-.1-1.2-.2-.4-.4-.7-.8-.9-.3-.2-.7-.4-1.2-.4s-1.1.2-1.5.6c-.4.4-.6.9-.6,1.5Z"/>
        <path class="cls-8" d="M248.5,279.7v19.9h-87.4v-19.9h87.4M248.8,279.3h-88.1v20.7h88.1v-20.7h0Z"/>
        <path class="cls-21" d="M202.7,289.6c0,.4.1.8.4,1.2.2.3.6.6.9.8.4.2.8.2,1.2.1.4,0,.8-.3,1.1-.6.3-.3.5-.7.6-1.1,0-.4,0-.8-.1-1.2-.2-.4-.4-.7-.8-.9-.3-.2-.7-.4-1.2-.4s-.5,0-.8.2c-.3.1-.5.3-.7.5-.2.2-.3.4-.4.7-.1.3-.2.5-.2.8Z"/>
        <path class="cls-8" d="M148.5,180.2h-20.7v129.9h20.7v-129.9Z"/>
        <path class="cls-7" d="M144.6,310.2h3.9v-11.2h-8.1l4.1,11.2Z"/>
        <path class="cls-8" d="M71.1,180.2h-20.7v129.9h20.7v-129.9Z"/>
        <path class="cls-7" d="M148.5,180.2h-80.9v123.1h80.9v-123.1Z"/>
        <path class="cls-8" d="M145,183.7v27.9h-73.9v-27.9h73.9ZM145.4,183.3h-74.8v28.7h74.8v-28.7h0Z"/>
        <path class="cls-8" d="M145,215v73.9h-35.2v-73.9h35.2ZM145.4,214.5h-36.1v74.8h36.1v-74.8Z"/>
        <path class="cls-8" d="M106.3,215v73.9h-35.2v-73.9h35.2ZM106.7,214.5h-36.1v74.8h36.1v-74.8h0Z"/>
        <path class="cls-7" d="M71.6,310.2h-3.9v-11.2h8.1l-4.1,11.2Z"/>
        <path class="cls-21" d="M106,197.7c0,.4.1.8.3,1.2.2.3.6.6.9.8.4.2.8.2,1.2.1.4,0,.8-.3,1.1-.6.3-.3.5-.7.6-1.1,0-.4,0-.8-.1-1.2-.2-.4-.4-.7-.8-.9-.3-.2-.7-.4-1.2-.4s-1.1.2-1.5.6-.6.9-.6,1.5Z"/>
        <path class="cls-21" d="M113.4,250.2c0,.4.1.8.4,1.2.2.3.6.6.9.8.4.2.8.2,1.2.1.4,0,.8-.3,1.1-.6.3-.3.5-.7.6-1.1,0-.4,0-.8-.1-1.2-.2-.4-.4-.7-.8-.9s-.8-.3-1.2-.3c-.3,0-.5,0-.8.2-.3.1-.5.3-.7.5-.2.2-.3.4-.5.7-.1.3-.2.5-.2.8Z"/>
        <path class="cls-21" d="M98.5,250.2c0,.4.1.8.4,1.2.2.3.6.6.9.8.4.2.8.2,1.2.1.4,0,.8-.3,1.1-.6.3-.3.5-.7.6-1.1,0-.4,0-.8-.1-1.2-.2-.4-.4-.7-.8-.9-.3-.2-.7-.4-1.2-.4s-.5,0-.8.2c-.3.1-.5.3-.7.5-.2.2-.3.4-.5.7-.1.3-.2.5-.2.8Z"/>
        <path class="cls-8" d="M96.2,144h-8.7c.8,4.2,1.3,8.5,1.5,12.8,0,4.7-6.7,23.4,2.8,23.4s2.8-18.6,2.8-23.4c.2-4.3.7-8.6,1.6-12.8Z"/>
        <path class="cls-3" d="M62.9,163.1v5.7c0,3,1.2,5.9,3.4,8.1,2.1,2.1,5,3.4,8.1,3.4h5.7c3,0,5.9-1.2,8.1-3.4,2.1-2.1,3.4-5,3.4-8.1v-5.7h-28.5Z"/>
        <path class="cls-8" d="M184.3,216c0,6.6,7.4,12,16.4,12h8.1c9,0,16.4-5.4,16.4-12h-40.9Z"/>
        <path class="cls-8" d="M400,206.3c-4.9,4-11.8,11.4-18,21.8-4.2,6.9-6.7,14.1-7.8,23.7,0-10.8,0-22.5.1-33.5,1.3-2.8,4.1-9.3,6.2-14.5,6.8-17.2,9.4-21.4,15.6-36.2,8.2-19.8,16.6-43.2,14.2-41.3-4.9,3.8-23.8,39.1-25.8,44.1-5.5,13.5-9,27.7-10.2,42.3,0-10.4,0-19.8.1-27.1.1-23.8.5-31.5.7-33.9.8-1.2,1.7-2.6,2.2-3.4,4.4-6.4,6.1-11.9,10.3-21.4,5.9-13.5,11-37.5,9.5-36.3-6.2,5-11.1,15.9-17.5,29.7-6.4,13.8-4.6,21.8-5.9,33.6-.3,2.3-.5,11.1-.6,23.2-1.7-12.9-4.8-21.4-10.5-29.1-7-9.5-13.8-15.9-18.8-19.3-5-3.4,8.6,20,15.1,30.1,5.8,9.1,11.1,17.1,14.1,25-.2,16.4-.2,37.2-.2,56.5-1.5-8.8-3.9-18.3-7.2-25.6-3.9-8.8-9.9-22.3-14.7-26.9-1.1-1.1,5,25.2,8.9,32.2,3.9,7,6.8,13.6,9.3,17.6.6.9,2.5,4.5,3.6,6.5,0,23.6.1,44.5.3,51.6h1c0-1.8,0-13.8,0-29.8,2.5-8.6,8.1-18.5,12.7-27.5,5-9.7,18-36.1,13.1-32.1Z"/>
        <path class="cls-12" d="M388.6,310.2h-29.5l-2.2-28.9h34l-2.2,28.9Z"/>
        <path class="cls-3" d="M393,284.6h-38.4l-1.1-9.8h40.6l-1.1,9.8Z"/>
        <path class="cls-8" d="M117.1,19.3h-52.8v58h52.8V19.3Z"/>
        <path class="cls-3" d="M122.8,19.3h-54.5v58h54.5V19.3Z"/>
        <path class="cls-19" d="M118.2,72.7V23.9h-45.4v48.8h45.4Z"/>
        <path class="cls-3" d="M107.2,60.9v-25.2h-23.4v25.2h23.4Z"/>
        <path class="cls-8" d="M386.3,26.1h-49.1v53.9h49.1V26.1Z"/>
        <path class="cls-3" d="M391.6,26.1h-50.7v53.9h50.7V26.1Z"/>
        <path class="cls-19" d="M387.4,75.7V30.3h-42.2v45.4h42.2Z"/>
        <path class="cls-3" d="M366.3,66.2c7.3,0,13.2-5.9,13.2-13.2s-5.9-13.2-13.2-13.2-13.2,5.9-13.2,13.2,5.9,13.2,13.2,13.2Z"/>
        <path class="cls-8" d="M171.9,53.9h-39.2v43h39.2v-43Z"/>
        <path class="cls-3" d="M176.2,53.9h-40.5v43h40.5v-43Z"/>
        <path class="cls-19" d="M172.8,93.5v-36.2h-33.7v36.2h33.7Z"/>
        <path class="cls-3" d="M155.9,66.2l-9.2,16h18.4l-9.2-16Z"/>
        <path class="cls-3" d="M235.5,351c100.9,0,182.7-4.8,182.7-10.7s-81.8-10.7-182.7-10.7-182.7,4.8-182.7,10.7,81.8,10.7,182.7,10.7Z"/>
        <path class="cls-9" d="M329,102.2l-9.3-3.8s-12.3,22.5-15.9,23.6c-4.8,1.5-14.8,5.8-20.7,6.6-.8.9-2.1,3.9-2,4.9,7.9,2.6,25.3-.9,29.1-3.6,8.5-6.3,18.8-27.8,18.8-27.8Z"/>
        <path class="cls-14" d="M331.9,97c1.7,6.4-7.7,19.4-7.7,19.4l-12.4-6.9s2.3-5.3,5.1-10.7c4.5-8.8,12.9-9,14.9-1.7Z"/>
        <path class="cls-23" d="M331.9,97c1.7,6.4-7.7,19.4-7.7,19.4l-12.4-6.9s2.3-5.3,5.1-10.7c4.5-8.8,12.9-9,14.9-1.7Z"/>
        <path class="cls-23" d="M316.8,112.3l4.9,2.7.9-15c-2.8,2.2-4.8,8.7-5.7,12.2Z"/>
        <path class="cls-14" d="M323.8,92.2s-9.6,21.4-4,61.3h37.9c.6-5.8-1.4-34.2,5.8-61.7-4.2-.8-8.4-1.4-12.6-1.6-5.4-.3-10.8-.3-16.1,0-3.7.4-7.4,1-11,2Z"/>
        <path class="cls-23" d="M323.8,92.2s-9.6,21.4-4,61.3h37.9c.6-5.8-1.4-34.2,5.8-61.7-4.2-.8-8.4-1.4-12.6-1.6-5.4-.3-10.8-.3-16.1,0-3.7.4-7.4,1-11,2Z"/>
        <g class="cls-27">
          <path class="cls-5" d="M315,341.2c0,1,14.3,1.8,32.1,1.8s32.3-.8,32.3-1.8c0-1-14.3-1.8-32.1-1.8s-32.3.8-32.3,1.8Z"/>
        </g>
        <path class="cls-9" d="M340.3,314.4l-6.7,2.6,5.8,15,6.7-2.6-5.8-15Z"/>
        <path class="cls-9" d="M370.3,333.9h-7.1l-2.6-16.4h7.1l2.6,16.4Z"/>
        <path class="cls-11" d="M362.7,333.1h8c.1,0,.3,0,.4.1.1,0,.2.2.2.4l1,6.3c0,.2,0,.3,0,.5,0,.2-.1.3-.2.4-.1.1-.2.2-.4.3-.1,0-.3,0-.5,0-2.8,0-4.1-.2-7.6-.2s-6.6.2-9.6.2-3.2-2.9-2-3.2c5.5-1.2,7.7-2.8,9.5-4.4.3-.3.7-.4 1.2-.4Z"/>
        <path class="cls-11" d="M339.2,330.7l7.5-2.2c.1,0,.3,0,.4,0,.1,0,.2.2.3.3l2.8,5.7c0,.1,0,.3,0,.5,0,.2,0,.3-.1.5,0,.1-.2.3-.3.4-.1.1-.3.2-.4.2-2.7.8-4.6,1.2-8,2.2-2.4.7-4.8,1.8-7.1,2.6-1.6.5-5.4.5-7.4.5-2.9,0-3.6-3.1-2.3-3.2,3.2-.3,3.6-.2,5.3-1.1,2.9-1.2,5.4-3,7.6-5.3.4-.5.9-.8,1.5-1Z"/>
        <path class="cls-9" d="M284.4,128.6l-7.8-3.3-3.2,8.6c3.2.5,6.4.5,9.6,0l1.4-5.4Z"/>
        <path class="cls-9" d="M270.8,125.1l-.2,5.7,2.8,3.1,3.2-8.6-5.8-.2Z"/>
        <path class="cls-4" d="M341.2,315.7l-6.8,2.6,3,7.7,6.8-2.6-3-7.7Z"/>
        <path class="cls-4" d="M367.7,317.5h-7.1l1.3,8.5h7.1l-1.3-8.5Z"/>
        <path class="cls-23" d="M318.6,142.7c.1,1.7.3,3.4.5,5.2l28.2-9.2c4.4-1.3,8.2-4.1,10.9-7.8.1-2.5.3-5.2.5-7.9,0-1.3.2-2.7.3-4.1.1-1.4.3-2.9.5-4.4l-40.8,28.2Z"/>
        <path class="cls-19" d="M327.8,111.8h-.9c.6-4.8,4.1-8.5,7.8-8.4v.9c-3.2,0-6.3,3.3-6.8,7.5Z"/>
        <path class="cls-19" d="M332.8,120.5h-.2v-.9c3.2.1,6.3-3.3,6.8-7.5h.9c-.5,4.7-3.9,8.4-7.6,8.4Z"/>
        <path class="cls-9" d="M350.4,72.1c-1.3,5.2-2.9,14.7.5,18.2,0,0-2.4,5.3-12,5.3s-4.1-5.3-4.1-5.3c5.9-1.4,6-5.7,5.2-9.7l10.4-8.5Z"/>
        <path class="cls-4" d="M346.2,75.5l-6.2,5c.2.9.3,1.9.3,2.8,1.8,1.8,5.4-2.7,5.8-5.1.2-.9.2-1.9,0-2.8Z"/>
        <path class="cls-4" d="M329.4,72c.4.7,1,1.4,1.7,1.9.7.5,1.5.9,2.3,1.1,2.3.5,3.4-1.6,2.8-3.7-.6-1.9-2.4-4.4-4.7-4-.5.1-1,.3-1.3.6-.4.3-.7.7-.9,1.2-.2.5-.3,1-.3,1.5,0,.5.2,1,.4,1.4Z"/>
        <path class="cls-11" d="M333.2,55.4c-3.5,1.6-4.8,15.6-.3,17.7,4.4,2.1,7-20.7.3-17.7Z"/>
        <path class="cls-9" d="M351.5,64.3c-.8,7-.9,11.2-4.7,14.8-1.2,1.2-2.6,2-4.3,2.5-1.6.4-3.3.4-4.9-.1s-3-1.4-4.1-2.7c-1.1-1.3-1.8-2.8-2.1-4.4-1.1-6.3.4-16.7,7.5-19.5,1.5-.7,3.1-.9,4.7-.7,1.6.2,3.1.8,4.4,1.8,1.3,1,2.3,2.3,2.9,3.8.6,1.5.8,3.1.6,4.7Z"/>
        <path class="cls-11" d="M339.9,59c5.2-1.3,9.1-2.2,7.7,2.1-1.8,5.8-4,11.4-1.1,11.7,1.8.2,9.7-3.2,8.7-6.6-.9-3,2.8-3.8,3.5-5.3,2.4-5.4-4.5-4.7-3.3-8,1.2-3.3-5.7-8.6-9.4-6-6.1,4.3-16.7,4.2-11.1-2.8,4-5-3.1-4-3.1-4,0,0,4.3,2.5-2.9,6.5-7.6,4.2-.6,15.4,11.1,12.4Z"/>
        <path class="cls-9" d="M354.2,72c-1,1.5-2.6,2.5-4.3,3-2.3.5-3.2-1.6-2.3-3.7.8-1.9,2.9-4.4,5.2-4,2.2.4,2.7,2.9,1.5,4.7Z"/>
        <path class="cls-14" d="M319.8,153.5s-6.4,57-6.9,78.6c-.5,22.5,21.6,92.7,21.6,92.7l11.3-4.7s-13.2-64.1-11.3-86.2c2-24.1,10.3-80.3,10.3-80.3h-25Z"/>
        <path class="cls-23" d="M335.6,169.2c-5.1,10.5-1.7,31.4,1.1,43.7,1-8.7,2.3-18.2,3.5-26.9-.1-13.5-1.2-23.8-4.6-16.8Z"/>
        <path class="cls-14" d="M345.3,316.4c0,0,1.3,3.6,1.3,3.6l-13,5.5-2.1-3.8,13.8-5.3Z"/>
        <path class="cls-14" d="M333.2,153.5s4.9,54.2,8.1,74.5c3.5,22.2,17.4,96.3,17.4,96.3h13s-7.8-72.3-9.3-94.3c-1.6-23.9-4.8-76.5-4.8-76.5h-24.5Z"/>
        <path class="cls-14" d="M371.9,321c0,0,.4,3.6.4,3.6h-14.3l-1-4.2,14.9.5Z"/>
        <path class="cls-23" d="M367,316.7s0,0,0,0c0,0,0,0,0,0,0-.7-7.1-65.9-8.4-85.7-1.4-21.5-4.3-69.1-4.3-69.5,0,0,0,0,0,0,0,0,0,0,0,0,0,0,0,0,0,0,0,0,0,0,0,0,0,0,0,0,0,0,0,0,0,0,0,0,0,.5,2.9,48,4.3,69.5,1.3,19.8,8.3,85,8.4,85.7,0,0,0,0,0,0,0,0,0,0,0,0,0,0,0,0,0,0,0,0,0,0,0,0h0Z"/>
        <path class="cls-11" d="M340.7,66.2c0,.6-.4,1-.7,1s-.6-.5-.6-1,.4-1,.7-1,.6.5.6,1Z"/>
        <path class="cls-11" d="M334.2,66.2c0,.6-.4,1-.7,1s-.6-.5-.6-1c0-.6.4-1,.7-1s.6.5.6,1Z"/>
        <path class="cls-17" d="M336.3,66.5c-.8,1.8-1.8,3.4-3,4.9.9.9,2.7.5,2.7.5l.3-5.4Z"/>
        <path class="cls-11" d="M336.4,74.3s0,0,0,0,0,0,0,0c0,0,0,0,0,0,0,0,0,0,0,0,0,0,0,0,0-.1,0,0,0,0,.1,0,.7,0,1.4-.2,2.1-.5.7-.3,1.2-.8,1.7-1.3,0,0,0,0,.1,0s0,0,.1,0c0,0,0,0,0,.1s0,0,0,.1c-.5.6-1.1,1.1-1.8,1.4-.7.3-1.5.5-2.2.5Z"/>
        <path class="cls-11" d="M341.8,64.5s0,0-.1,0-.1,0-.1,0c-.4-.2-.8-.4-1.2-.4-.4,0-.8,0-1.2.2,0,0,0,0-.1,0,0,0,0,0-.1,0,0,0,0,0-.1,0,0,0,0,0,0-.1,0,0,0-.2,0-.3,0,0,0-.2.2-.2.5-.2,1-.3,1.6-.2.5,0,1,.2,1.5.5,0,0,0,0,0,0,0,0,0,0,0,.1,0,0,0,0,0,.1,0,0,0,0,0,.1,0,0-.1,0-.2.1Z"/>
        <path class="cls-11" d="M331.7,62.6c0,0,0,0-.1,0,0,0,0,0,0-.1,0,0,0,0,0-.1s0,0,0-.1c0,0,0,0,0-.1.4-.4.8-.7,1.3-.9.5-.2,1-.3,1.6-.2,0,0,0,0,.1,0s0,0,0,0c0,0,0,0,0,.1,0,0,0,0,0,.1,0,0,0,.2-.1.2,0,0-.2,0-.3,0-.4,0-.9,0-1.3.2-.4.2-.8.4-1,.7,0,0,0,0-.2.1,0,0-.1,0-.2,0Z"/>
        <path class="cls-9" d="M367.2,101.1l-9.8-2.6s-9.6,23.7-13,25.2c-4.6,2.1-16.3,9.4-21.3,12.9-.3,1.2,0,4.3.6,5.2,8.5-1.5,24.7-7.8,28.1-11,7.7-7.2,15.4-29.6,15.4-29.6Z"/>
        <path class="cls-14" d="M360.3,334.4c-.5,0-1,0-1.3-.4-.1-.1-.2-.2-.3-.4,0-.2,0-.3,0-.5,0-.1,0-.2,0-.3,0,0,.1-.1.2-.2.8-.4,3,1,3.3,1.2,0,0,0,0,0,0,0,0,0,0,0,0,0,0,0,0,0,0,0,0,0,0,0,0-.6.2-1.2.2-1.9.3ZM359.4,332.9c0,0-.1,0-.2,0,0,0,0,0,0,0,0,0,0,0,0,.1,0,.1,0,.2,0,.3,0,.1,0,.2.2.3.4.3,1.3.4,2.5.1-.7-.5-1.5-.8-2.4-.9h0Z"/>
        <path class="cls-14" d="M362.2,334.1s0,0,0,0c-.7-.4-2-2-1.8-2.7,0-.1,0-.2.2-.3.1,0,.2-.1.4-.1.1,0,.3,0,.4,0,.1,0,.2.1.3.2.8.7.8,2.7.8,2.8,0,0,0,0,0,0,0,0,0,0,0,0,0,0,0,0,0,0ZM360.9,331.2h0c-.2,0-.2.1-.3.2-.1.5.7,1.6,1.4,2.2,0-.8-.2-1.6-.7-2.2-.1,0-.3-.1-.4-.1Z"/>
        <path class="cls-14" d="M335.3,333.2c-.6.2-1.2.2-1.8,0-.1,0-.2-.2-.3-.3s-.1-.3-.1-.4c0,0,0-.2,0-.3,0,0,0-.2.2-.2.8-.7,3.8,0,4.2.1,0,0,0,0,0,0,0,0,0,0,0,0,0,0,0,0,0,0,0,0,0,0,0,0-.7.3-1.4.6-2.1.8ZM333.8,332.1c-.1,0-.2,0-.3.1,0,0,0,0,0,0s0,0,0,.1c0,0,0,.2,0,.3,0,0,.1.2.2.2.5.3,1.7,0,3.2-.6-1-.3-2.1-.3-3.1-.2Z"/>
        <path class="cls-14" d="M337.4,332.4h0c-.9-.2-2.8-1.3-2.9-2.1,0-.2,0-.5.5-.6.2,0,.3,0,.5,0,.2,0,.3,0,.5.1,1,.5,1.6,2.3,1.6,2.4,0,0,0,0,0,0,0,0,0,0,0,0,0,0,0,0,0,0ZM335.2,330h0c-.3.1-.3.2-.3.3,0,.5,1.4,1.4,2.3,1.7-.2-.8-.7-1.4-1.3-1.9-.2,0-.4-.1-.6,0Z"/>
        <path class="cls-9" d="M323.9,136l-9.8,4.5-1.1,2.8,3.6,2.4s6.8-.7,8.7-5.1l-1.4-4.7Z"/>
        <path class="cls-11" d="M324.3,141.9c-.2-1.9-.8-3.7-1.8-5.3l1.6-1.2c1.2,1.9,1.9,4,2.2,6.2l-1.9.3Z"/>
        <path class="cls-11" d="M326,137.4c.2.3.3.7.3,1.1,0,.4-.2.8-.4,1.1-.2.3-.6.5-.9.6-.4.1-.8.1-1.1,0-.4-.1-.7-.3-.9-.7-.2-.3-.4-.7-.4-1.1,0-.4,0-.8.3-1.1.2-.3.5-.6.9-.7.4-.2.9-.2,1.3-.1.4.1.8.4,1,.8Z"/>
        <path class="cls-9" d="M307.4,144.2l1.3,1.3,8.8-3.8-3.5-1.2-6.6,3.7Z"/>
        <path class="cls-23" d="M345.3,316.4c0,0,1.3,3.6,1.3,3.6l-13,5.5-2.1-3.8,13.8-5.3Z"/>
        <path class="cls-23" d="M371.9,321c0,0,.4,3.6.4,3.6h-14.3l-1-4.2,14.9.5Z"/>
        <path class="cls-14" d="M369.7,98.4c2.6,8.4-7.5,19.8-7.5,19.8l-14-5.7c1.7-4.8,3.6-9.6,5.7-14.2,4.3-9.3,13.2-8.3,15.8.1Z"/>
        <path class="cls-23" d="M369.7,98.4c2.6,8.4-7.5,19.8-7.5,19.8l-14-5.7c1.7-4.8,3.6-9.6,5.7-14.2,4.3-9.3,13.2-8.3,15.8.1Z"/>
        <path class="cls-14" d="M230.7,14.7h-6v1h6v-1Z"/>
        <path class="cls-14" d="M308.6,53.1l-.7,16.2h1s.7-16.1.7-16.1h-1Z"/>
        <path class="cls-14" d="M306.8,19h-111.2l-10.3,231.5h111.2l10.3-231.5Z"/>
        <path class="cls-22" d="M303.5,22.2h-111.2l-10.3,231.5h111.2l10.3-231.5Z"/>
        <path class="cls-10" d="M300.1,25.4h-111.2l-10.4,231.5h111.2l10.4-231.5Z"/>
        <path class="cls-19" d="M287.5,126.3h-94.9l-.8,17.7h94.9l.8-17.7Z"/>
        <path class="cls-14" d="M244.8,113.4h-51.6l-.3,7.9h51.6l.3-7.9Z"/>
        <path class="cls-19" d="M285.3,174.2h-94.9l-.8,17.7h94.9l.8-17.7Z"/>
        <path class="cls-15" d="M267.9,215.8h-63.8l-1,21.2h63.8l1-21.2Z"/>
        <path class="cls-19" d="M263.7,240.3h-63.8s0,0,0,0c0,0,0,0,0,0l.9-21.2s0,0,0,0c0,0,0,0,0,0,0,0,0,0,0,0,0,0,0,0,0,0h63.8s0,0,0,0,0,0,0,0c0,0,0,0,0,0s0,0,0,0l-.9,21.3s0,0,0,0c0,0,0,0,0,0ZM200,240.1h63.6l.9-21h-63.6l-.9,21Z"/>
        <path class="cls-14" d="M233.6,161.2h-42.6l-.3,7.9h42.6l.4-7.9Z"/>
        <path class="cls-19" d="M266.7,69.1c-.2,5.2-2.1,10.1-5.2,14.2-2.3,3.1-5.4,5.6-8.8,7.3-3.5,1.7-7.3,2.6-11.1,2.7-3.1,0-6.2-.6-9.1-1.8-2.9-1.2-5.5-3-7.6-5.3-2.2-2.3-3.8-4.9-4.9-7.9-1.1-2.9-1.6-6.1-1.4-9.2.3-6.5,3.1-12.6,7.8-17.1,4.7-4.5,10.9-7,17.4-7.1,3.1,0,6.2.6,9.1,1.8,2.9,1.2,5.5,3,7.6,5.3,2.2,2.3,3.8,4.9,4.9,7.9,1.1,2.9,1.6,6.1,1.4,9.2Z"/>
        <path class="cls-14" d="M269,50c0,1.4-.5,2.7-1.4,3.8-.6.8-1.4,1.5-2.4,1.9-.9.5-1.9.7-3,.7-1,0-2-.2-2.9-.7-.9-.5-1.6-1.1-2.2-2-.7-1.1-1.1-2.4-1.1-3.8,0-1.7.8-3.3,2.1-4.5,1.2-1.2,2.9-1.9,4.6-1.9.8,0,1.7.2,2.4.5.8.3,1.5.8,2,1.4.6.6,1,1.3,1.3,2.1s.4,1.6.4,2.4Z"/>
        <path class="cls-11" d="M202.8,135.2c0,.8-.4,1.5-.9,2-.6.5-1.3.8-2,.8-.4,0-.7,0-1.1-.2-.3-.1-.6-.4-.9-.6-.3-.3-.5-.6-.6-.9-.1-.3-.2-.7-.2-1.1,0-.8.4-1.5.9-2,.6-.5,1.3-.8,2-.8.4,0,.7,0,1.1.2.3.1.6.4.9.6s.5.6.6.9c.1.3.2.7.2,1.1Z"/>
        <path class="cls-11" d="M215.5,135.2c0,.8-.4,1.5-.9,2-.6.5-1.3.8-2,.8-.4,0-.7,0-1.1-.2-.3-.1-.6-.4-.9-.6-.3-.3-.4-.6-.6-.9-.1-.3-.2-.7-.2-1.1,0-.8.4-1.5.9-2,.5-.5,1.3-.8,2-.8.4,0,.7,0,1.1.2.3.1.6.4.9.6s.5.6.6.9c.1.3.2.7.2,1.1Z"/>
        <path class="cls-11" d="M228.2,135.2c0,.8-.4,1.5-.9,2-.6.5-1.3.8-2,.8-.4,0-.7,0-1.1-.2-.3-.1-.6-.4-.9-.6-.3-.3-.5-.6-.6-.9-.1-.3-.2-.7-.2-1.1,0-.8.4-1.5.9-2,.6-.5,1.3-.8,2-.8.4,0,.7,0,1.1.2.3.1.6.4.9.6.3.3.5.6.6.9.1.3.2.7.2,1.1Z"/>
        <path class="cls-11" d="M200.7,183c0,.8-.4,1.5-.9,2-.6.5-1.3.8-2,.8-.4,0-.7,0-1.1-.2-.3-.1-.6-.4-.9-.6-.3-.3-.5-.6-.6-.9-.1-.3-.2-.7-.2-1.1,0-.8.4-1.5.9-2,.6-.5,1.3-.8,2-.8.4,0,.7,0,1.1.2.3.1.6.4.9.6.3.3.5.6.6.9.1.3.2.7.2,1.1Z"/>
        <path class="cls-11" d="M213.4,183c0,.8-.4,1.5-.9,2-.5.5-1.3.8-2,.8-.4,0-.7,0-1.1-.2-.3-.1-.6-.4-.9-.6-.3-.3-.5-.6-.6-.9-.1-.3-.2-.7-.2-1.1,0-.8.4-1.5.9-2,.6-.5,1.3-.8,2-.8.4,0,.7,0,1.1.2.3.1.6.4.9.6.3.3.4.6.6.9.1.3.2.7.2,1.1Z"/>
        <path class="cls-11" d="M226.1,183c0,.8-.4,1.5-.9,2-.6.5-1.3.8-2,.8-.4,0-.7,0-1.1-.2-.3-.1-.6-.4-.9-.6-.3-.3-.5-.6-.6-.9s-.2-.7-.2-1.1c0-.8.4-1.5.9-2,.6-.5,1.3-.8,2-.8.4,0,.7,0,1.1.2.3.1.6.4.9.6s.5.6.6.9c.1.3.2.7.2,1.1Z"/>
        <path class="cls-11" d="M238.8,183c0,.8-.4,1.5-.9,2-.6.5-1.3.8-2,.8-.4,0-.7,0-1.1-.2-.3-.1-.6-.4-.9-.6-.3-.3-.5-.6-.6-.9-.1-.3-.2-.7-.2-1.1,0-.8.4-1.5.9-2,.6-.5,1.3-.8,2-.8.4,0,.7,0,1.1.2.3.1.6.4.9.6.3.3.5.6.6.9.1.3.2.7.2,1.1Z"/>
        <path class="cls-11" d="M251.5,183c0,.8-.4,1.5-.9,2-.6.5-1.3.8-2,.8-.4,0-.7,0-1.1-.2s-.6-.4-.9-.6-.5-.6-.6-.9c-.1-.3-.2-.7-.2-1.1,0-.8.4-1.5.9-2,.6-.5,1.3-.8,2-.8.4,0,.7,0,1.1.2.3.1.6.4.9.6.3.3.5.6.6.9.1.3.2.7.2,1.1Z"/>
        <path class="cls-14" d="M249.6,67.9c3.9-3.9,4.2-10,.5-13.8-3.7-3.8-9.9-3.7-13.8.2-3.9,3.9-4.2,10-.5,13.8,3.7,3.8,9.9,3.7,13.8-.2Z"/>
        <path class="cls-14" d="M261.5,83.3c-2.3,3.1-5.4,5.6-8.8,7.3-3.5,1.7-7.3,2.6-11.1,2.7-3.8,0-7.5-.9-10.8-2.6-3.3-1.7-6.2-4.3-8.3-7.4,4.6-4.6,11.8-7.5,19.9-7.5s15,3,19.2,7.5Z"/>
        <path class="cls-13" d="M249.6,67.9c3.9-3.9,4.2-10,.5-13.8-3.7-3.8-9.9-3.7-13.8.2-3.9,3.9-4.2,10-.5,13.8,3.7,3.8,9.9,3.7,13.8-.2Z"/>
        <path class="cls-13" d="M261.5,83.3c-2.3,3.1-5.4,5.6-8.8,7.3-3.5,1.7-7.3,2.6-11.1,2.7-3.8,0-7.5-.9-10.8-2.6-3.3-1.7-6.2-4.3-8.3-7.4,4.6-4.6,11.8-7.5,19.9-7.5s15,3,19.2,7.5Z"/>
        <path class="cls-9" d="M122.9,148.3c-.9,2-1.8,4.1-2.7,6.2-.8,2.1-1.7,4.2-2.4,6.4-1.5,4.2-2.6,8.6-3.4,13l-.2,1.4c0,.2,0,.5,0,.7.2.8.6,1.5,1,2.2,1.2,1.7,2.6,3.3,4.2,4.7,1.7,1.5,3.4,3,5.2,4.3,1.8,1.4,3.7,2.8,5.6,4l-1.8,3.3c-4.5-1.9-8.7-4.4-12.7-7.3-2.1-1.5-4-3.3-5.7-5.4-1-1.2-1.7-2.6-2.3-4-.3-.9-.5-1.9-.5-2.8v-2.1c.6-4.9,1.7-9.8,3.2-14.5.7-2.3,1.5-4.6,2.4-6.9.9-2.3,1.8-4.5,3-6.7l6.8,3.4Z"/>
        <path class="cls-9" d="M129,190.7l6.7-3.4-1.7,7.3s-4.6,1.3-6.7-.9l1.8-3Z"/>
        <path class="cls-9" d="M141.7,188.5l-1.8,6h-6c0,0,1.7-7.2,1.7-7.2l6.1,1.2Z"/>
        <path class="cls-17" d="M151.1,113.1c.4,1.3.9,2.6,1.5,3.8-.2.2-.4.4-.7.4-.3,0-.5,0-.8,0v-4.2Z"/>
        <path class="cls-11" d="M150.9,113.1c.4,0,.7-.5.7-1.1s-.3-1.1-.7-1.1-.7.5-.7,1.1.3,1.1.7,1.1Z"/>
        <path class="cls-11" d="M150.7,111l1.4-.4s-.7,1.1-1.4.4Z"/>
        <path class="cls-9" d="M132.7,120c.9,4.4,1.7,12.4-1.4,15.3,0,0,1.2,4.4,9.4,4.4s4.3-4.4,4.3-4.4c-4.9-1.2-4.8-4.8-3.9-8.2l-8.4-7.1Z"/>
        <path class="cls-9" d="M130.4,110c.5,7.3.5,10.4,4.2,14.2,5.6,5.7,14.5,3.5,16.2-3.8,1.6-6.6.6-17.4-6.6-20.4-1.6-.6-3.3-.9-5-.7-1.7.2-3.3.8-4.7,1.8-1.4,1-2.5,2.3-3.2,3.9-.7,1.5-1,3.2-.9,4.9Z"/>
        <path class="cls-11" d="M131.1,101.8c-3.7,1.3-8.6.3-6.7,11.7,2,12-1.1,16-1.1,16,0,0,13.9,3,28.2-.2,0,0-4.3-7.6-3.1-13.2,1.6-7.1.3-9.7.3-9.7,0,0-12.5-6.5-17.6-4.6Z"/>
        <path class="cls-9" d="M146.6,113.8c0,1.4.4,2.8,1.1,3.9,1,1.5,2.2.9,2.5-.7.3-1.4,0-3.9-1.2-4.9-1.3-1-2.4,0-2.4,1.7Z"/>
        <path class="cls-11" d="M127.9,103c-1.1-3,4-7.5,14.6-5.7,10.6,1.9,11.1,10.7,11.1,10.7l-2.1-2.6v2.7c0,0-10.8,2.1-10.8,2.1l-12.7-7.3Z"/>
        <path class="cls-14" d="M128.8,135.8c0-.4,0-.9.3-1.2.3-.4.6-.6,1.1-.7,3.3-.5,10.9-1.7,14.6-1.1,2.8.4,3.6,2,3.7,3.4,0,.2,0,.5,0,.7,0,.2-.2.4-.4.6-.2.2-.4.3-.6.4-.2,0-.5.1-.7.1l-16.4-.7c-.4,0-.8-.2-1-.4-.3-.3-.5-.6-.5-1Z"/>
        <path class="cls-6" d="M128.8,135.8c0-.4,0-.9.3-1.2.3-.4.6-.6,1.1-.7,3.3-.5,10.9-1.7,14.6-1.1,2.8.4,3.6,2,3.7,3.4,0,.2,0,.5,0,.7,0,.2-.2.4-.4.6-.2.2-.4.3-.6.4-.2,0-.5.1-.7.1l-16.4-.7c-.4,0-.8-.2-1-.4-.3-.3-.5-.6-.5-1Z"/>
        <path class="cls-9" d="M138.3,300.4l6.1,4.2,10.2-13.8-6.1-4.2-10.2,13.8Z"/>
        <path class="cls-9" d="M124.1,300.1l6.4,3.7,9-14.6-6.4-3.7-9,14.6Z"/>
        <path class="cls-4" d="M154.5,290.8l-5.2,7.1-6.1-4.2,5.2-7.1,6.1,4.2Z"/>
        <path class="cls-4" d="M133.1,285.6l6.4,3.7-4.6,7.5-6.4-3.7,4.6-7.5Z"/>
        <path class="cls-14" d="M143.4,181.8s23.7,29.9,19.3,58.5c-3.6,23.1-24.4,54.4-24.4,54.4l-9.8-4.9c6.9-13.8,12.8-28.1,17.6-42.8,1.5-4.6,1.9-9.4,1.3-14.1-.7-4.7-2.4-9.3-5-13.3-12-17.6-31.3-7.1-18.3-37.8h19.4Z"/>
        <path class="cls-6" d="M143.4,181.8s23.7,29.9,19.3,58.5c-3.6,23.1-24.4,54.4-24.4,54.4l-9.8-4.9c6.9-13.8,12.8-28.1,17.6-42.8,1.5-4.6,1.9-9.4,1.3-14.1-.7-4.7-2.4-9.3-5-13.3-12-17.6-31.3-7.1-18.3-37.8h19.4Z"/>
        <path class="cls-16" d="M155,201l-3.4-3.4c0,.3,6.7,41.5,8.6,53.1,1.1-3.4,2-6.9,2.5-10.4,2.2-14-2.4-28.4-7.6-39.3Z"/>
        <path class="cls-14" d="M154,181.8s28.6,37.6,29.4,60.1c.7,18.8-31.1,55.4-31.1,55.4l-9.2-6s18.6-25.9,23.3-47.1c-1.8-21-40.1-62.4-40.1-62.4h27.7Z"/>
        <path class="cls-6" d="M154,181.8s28.6,37.6,29.4,60.1c.7,18.8-31.1,55.4-31.1,55.4l-9.2-6s18.6-25.9,23.3-47.1c-1.8-21-40.1-62.4-40.1-62.4h27.7Z"/>
        <path class="cls-14" d="M118.6,137c-3.1.7-6,11.8-6,11.8l11.9,8s4-8.8,2.6-12.6c-1.4-4-4.7-8.1-8.5-7.2Z"/>
        <path class="cls-23" d="M121,144.1l-.8,9.7,4.4,3c1.2-2.8,2.1-5.6,2.7-8.6l-6.3-4Z"/>
        <path class="cls-14" d="M157.5,137.2s3.5,1.2-3.5,44.6h-30c.5-12.2.5-19.8-5.3-44.8,4.2-.9,8.5-1.4,12.7-1.7,4.5-.3,9.1-.3,13.6,0,5.9.5,12.5,1.9,12.5,1.9Z"/>
        <path class="cls-9" d="M160.6,144.1c.7,1.9,1.4,3.9,2.1,5.9.8,1.9,1.5,4,2.2,5.9l2.3,5.9.6,1.5.3.7v.4q.1,0,.1,0c-.2-.2-.4-.4-.7-.6-.4-.2-.8-.3-1.2-.4-.4,0-.7,0-1,.2-.4.2-.4.3-.4.3,0,0,.1-.1.2-.2.5-.7,1-1.4,1.3-2.2.4-.9.9-1.8,1.3-2.7.8-1.9,1.6-3.8,2.4-5.8.8-2,1.5-4,2.2-6l2.1-6,3.6.9c-.7,4.3-1.6,8.5-2.8,12.7-.5,2.1-1.2,4.2-1.9,6.3-.4,1.1-.8,2.1-1.2,3.2-.5,1.2-1.1,2.3-1.7,3.4-.3.4-.5.7-.8,1-.5.5-1.1.9-1.7,1.2-.6.2-1.2.4-1.8.3-.7,0-1.4-.2-2-.6-.7-.4-1.3-1.1-1.7-1.8-.1-.2-.3-.5-.3-.7l-.2-.4-.4-.7-.7-1.5c-.9-2-1.9-3.9-2.7-5.9-.8-2-1.7-4-2.5-6-.8-2-1.5-4.1-2.2-6.2l7.1-2.3Z"/>
        <path class="cls-14" d="M157.5,137.2c3.6.9,7.7,11.5,7.7,11.5l-10.7,9.1s-6.9-11.6-5.5-15.5c1.5-4,3.9-6.3,8.6-5.2Z"/>
        <path class="cls-9" d="M176.2,137.7l3.8-3.1,2.6,4.1-1.9,3.4s-3.1,2.8-5.8,1.4c-.4-1-.5-2.1-.3-3.1.2-1,.8-2,1.6-2.6Z"/>
        <path class="cls-9" d="M186.7,134.6l-.3,1-6,1-.6-2h6.8Z"/>
        <path class="cls-14" d="M153,297.8l-10.8-7,1.9-3.4,12.1,7.4-3.3,2.9Z"/>
        <path class="cls-11" d="M134.7,303.3c-.9-.1-1.9-.4-2.7-.9,0,0,0,0,0,0,0,0,0,0,0,0s0,0,0,0c0,0,0,0,0,0,.3,0,2.8-.9,3.6-.3,0,0,.1.2.2.3,0,.1,0,.2,0,.3,0,.2,0,.3-.2.5,0,.1-.2.3-.4.3-.2,0-.4.1-.6.2ZM132.6,302.3c1.2.6,2.1.8,2.6.6,0,0,.2-.1.2-.2,0,0,0-.2,0-.3,0-.2,0-.2,0-.3-.4-.3-1.8,0-2.8.2h0Z"/>
        <path class="cls-11" d="M132.1,302.4c0,0,0,0-.1,0,0,0,0,0,0,0s0,0,0,0c0,0,.6-2.1,1.6-2.6.1,0,.3,0,.4,0s.3,0,.4,0c.1,0,.2.1.3.2,0,.1.1.3.1.4,0,.8-1.8,2-2.6,2.2h0ZM134,299.9c0,0-.2,0-.3,0-.6.3-1.1,1.4-1.3,2.1.8-.3,2-1.3,2-1.8,0,0,0-.2-.2-.3,0,0-.1,0-.2,0h0Z"/>
        <path class="cls-11" d="M148.2,307.4c-1.1,0-2.5-1.4-3.4-2.2,0,0,0,0,0,0s0,0,0,0c0,0,0,0,0,0,0,0,0,0,.1,0,.4,0,3.6.5,4.1,1.4,0,0,0,.2,0,.3s0,.2,0,.3c0,.1-.2.3-.3.4-.1,0-.3.1-.4.2h-.2ZM145.4,305.3c1.2,1.1,2.2,1.8,2.8,1.7.1,0,.2,0,.3-.1,0,0,.2-.1.2-.2,0,0,0,0,0-.1s0,0,0-.1c-.2-.5-2-.9-3.3-1.1Z"/>
        <path class="cls-11" d="M145.5,305.2c-.2,0-.4,0-.6,0,0,0,0,0,0,0,0,0,0,0,0,0,0,0,0,0,0,0s0,0,0,0c0,0,1.3-1.6,2.5-1.7.3,0,.7,0,.9.3.4.3.3.6.3.8-.2.6-1.9,1-3,1ZM145.3,304.9c1.1,0,2.7-.3,3-.8,0,0,0-.2-.2-.4,0,0-.2-.1-.3-.2-.1,0-.3,0-.4,0-.8.2-1.5.7-2.1,1.3h0Z"/>
        <path class="cls-14" d="M132.4,301.4l-8-2.3c-.1,0-.3,0-.4,0-.1,0-.2.2-.3.3l-2.7,6.1c0,.2,0,.3,0,.5,0,.2,0,.3.1.5,0,.2.2.3.3.4.1.1.3.2.4.2,2.8.7,4.2.9,7.7,2,2.2.6,5.3,1.7,8.2,2.6,3,.8,4-2.1,2.8-2.7-5.2-2.8-5.7-4.7-7.1-6.8-.3-.4-.6-.6-1.1-.8Z"/>
        <path class="cls-14" d="M145,304.1l-6.8-4.7c-.1,0-.3-.1-.4-.1-.1,0-.3,0-.4.2l-4.5,4.9c-.1.1-.2.3-.2.4,0,.2,0,.3,0,.5,0,.2,0,.3.2.5,0,.1.2.3.3.4,2.4,1.6,3.6,2.3,6.7,4.3,1.9,1.3,5.5,4.1,8.1,5.9,2.5,1.8,4.4-.7,3.5-1.6-4.1-4.3-4.9-7-5.6-9.5-.1-.4-.4-.8-.8-1.1Z"/>
        <path class="cls-14" d="M139.5,295.3l-12.3-6.1,1.3-3.3,13.1,6.4-2.1,3Z"/>
        <path class="cls-14" d="M123.5,180.1l-1,2.7c-.1.2.1.4.5.4h31.2c.3,0,.5-.1.5-.3l.3-2.7c0-.2-.2-.3-.5-.3h-30.4c0,0-.2,0-.3,0,0,0-.2,0-.2.2Z"/>
        <path class="cls-24" d="M123.5,180.1l-1,2.7c-.1.2.1.4.5.4h31.2c.3,0,.5-.1.5-.3l.3-2.7c0-.2-.2-.3-.5-.3h-30.4c0,0-.2,0-.3,0,0,0-.2,0-.2.2Z"/>
        <path class="cls-14" d="M128.4,183.5h-.8c-.2,0-.3,0-.3-.2l.4-3.5c0,0,.2-.2.3-.2h.8c.2,0,.3,0,.3.2l-.4,3.5c0,.1-.2.2-.3.2Z"/>
        <path class="cls-14" d="M147.6,183.5h-.8c-.2,0-.3,0-.3-.2l.4-3.5c0,0,.2-.2.3-.2h.8c.2,0,.3,0,.3.2l-.4,3.5c0,.1-.1.2-.3.2Z"/>
        <g class="cls-27">
          <path class="cls-3" d="M127.7,343c13.9,0,25.2-.8,25.2-1.8s-11.3-1.8-25.2-1.8-25.2.8-25.2,1.8,11.3,1.8,25.2,1.8Z"/>
        </g>
        <path class="cls-8" d="M143.1,338.6c-4.5-1.3-9.4-3-12.4-4.7,0,0-.2,0-.3-.1v-20.2h9c.7,0,1.3-.3,1.8-.8s.7-1.2.7-1.8-.3-1.3-.7-1.8-1.1-.8-1.8-.8h-9v-92.2h-5.4v92.2h-9c-.4,0-.7,0-1.1.2-.3.1-.7.3-.9.6-.3.3-.5.6-.6.9-.1.3-.2.7-.2,1.1s0,.7.2,1.1c.1.3.4.6.6.9.3.3.6.4.9.6s.7.2,1.1.2h9v20.2c0,0-.2,0-.3.1-3,1.8-8,3.4-12.4,4.7-.3,0-.6.3-.7.6-.2.3-.2.6-.2.9,0,.3.2.6.4.8.2.2.5.3.9.3h30c.3,0,.6-.1.8-.3.2-.2.4-.5.4-.8,0-.3,0-.6-.2-.9-.2-.3-.4-.5-.7-.6Z"/>
        <path class="cls-14" d="M144.5,206.6h-33.5c-2.7,0-4.9,2.2-4.9,4.9v10c0,2.7,2.2,4.9,4.9,4.9h33.5c2.7,0,4.9-2.2,4.9-4.9v-10c0-2.7-2.2-4.9-4.9-4.9Z"/>
        <path class="cls-14" d="M110.7,226.3v1.7c0,1.4,1.5,2.6,3.4,2.6h27.3c1.9,0,3.4-1.1,3.4-2.6v-1.7h-34.2Z"/>
        <path class="cls-20" d="M110.7,226.3v1.7c0,1.4,1.5,2.6,3.4,2.6h27.3c1.9,0,3.4-1.1,3.4-2.6v-1.7h-34.2Z"/>
      </g>
    </g>
  </g>
</svg>
