<?xml version="1.0" encoding="UTF-8"?>
<svg id="Layer_1" data-name="Layer 1" xmlns="http://www.w3.org/2000/svg" version="1.1" viewBox="0 0 2460 1833">
  <defs>
    <style>
      .cls-1 {
        fill: #f5f5f5;
      }

      .cls-1, .cls-2, .cls-3, .cls-4, .cls-5, .cls-6, .cls-7, .cls-8, .cls-9, .cls-10, .cls-11, .cls-12, .cls-13, .cls-14, .cls-15, .cls-16, .cls-17, .cls-18, .cls-19 {
        stroke-width: 0px;
      }

      .cls-2 {
        fill: #407bff;
      }

      .cls-3 {
        fill: #ebebeb;
      }

      .cls-4, .cls-6, .cls-8, .cls-9, .cls-10, .cls-12, .cls-16, .cls-17, .cls-18 {
        isolation: isolate;
      }

      .cls-4, .cls-9, .cls-20 {
        opacity: .6;
      }

      .cls-4, .cls-11, .cls-12, .cls-17 {
        fill: #000;
      }

      .cls-5 {
        fill: #263238;
      }

      .cls-6, .cls-8, .cls-9, .cls-10, .cls-15, .cls-16, .cls-18 {
        fill: #fff;
      }

      .cls-6, .cls-21, .cls-17 {
        opacity: .2;
      }

      .cls-7 {
        fill: #e0e0e0;
      }

      .cls-8, .cls-12, .cls-22 {
        opacity: .5;
      }

      .cls-10 {
        opacity: .7;
      }

      .cls-13 {
        fill: #f0f0f0;
      }

      .cls-23, .cls-16 {
        opacity: .3;
      }

      .cls-24, .cls-18 {
        opacity: .4;
      }

      .cls-14 {
        fill: #a02724;
      }

      .cls-19 {
        fill: #b55b52;
      }
    </style>
  </defs>
  <path class="cls-3" d="M2460,1610.8H0v1.2h2460v-1.2Z"/>
  <path class="cls-3" d="M2213.5,1690h-162.9v1.2h162.9v-1.2Z"/>
  <path class="cls-3" d="M1629.6,1703.3h-42.8v1.2h42.8v-1.2Z"/>
  <path class="cls-3" d="M2045.6,1644.3h-94.4v1.2h94.4v-1.2Z"/>
  <path class="cls-3" d="M470.6,1652.6h-212.5v1.2h212.5v-1.2Z"/>
  <path class="cls-3" d="M545.6,1652.6h-31.1v1.2h31.1v-1.2Z"/>
  <path class="cls-3" d="M1107.7,1673.3h-460.9v1.2h460.9v-1.2Z"/>
  <path class="cls-3" d="M1166,1391.4H216c-7.4,0-14.6-3-19.8-8.2-5.3-5.3-8.2-12.4-8.2-19.8V27.8c0-7.4,3-14.5,8.3-19.7C201.5,2.9,208.6,0,216,0h950c7.4,0,14.6,3,19.9,8.2,5.3,5.3,8.2,12.4,8.2,19.9v1335.2c0,7.4-3,14.6-8.2,19.9-5.3,5.3-12.4,8.2-19.9,8.2ZM216,1c-7.1,0-13.9,2.8-19,7.9-5,5-7.9,11.9-7.9,19v1335.4c0,7.1,2.8,13.9,7.9,19,5,5,11.8,7.9,19,7.9h950c7.1,0,13.9-2.8,19-7.9,5-5,7.9-11.9,7.9-19V27.8c0-7.1-2.8-13.9-7.9-19-5-5-11.9-7.9-19-7.9H216Z"/>
  <path class="cls-3" d="M2230.3,1391.4h-950.1c-7.4,0-14.6-3-19.8-8.2s-8.2-12.4-8.2-19.8V27.8c0-7.4,3.1-14.5,8.3-19.7,5.3-5.2,12.4-8.1,19.8-8.2h950.1c7.4,0,14.5,3,19.7,8.2,5.2,5.2,8.2,12.3,8.3,19.7v1335.4c0,7.4-2.9,14.6-8.2,19.8-5.2,5.3-12.4,8.2-19.8,8.3ZM1280.2,1c-7.1,0-13.9,2.8-19,7.9-5,5-7.9,11.9-7.9,19v1335.4c0,7.1,2.8,13.9,7.9,19s11.9,7.9,19,7.9h950.1c7.1,0,13.9-2.8,19-7.9s7.9-11.9,7.9-19V27.8c0-7.1-2.8-13.9-7.9-19-5-5-11.9-7.9-19-7.9h-950.1Z"/>
  <path class="cls-7" d="M1245.8,505.9c-7.7-36.7-22.2-71.7-42.9-103.1l36.9-44.6-78.7-78.7-44.6,36.9c-31.3-20.7-66.3-35.3-103-43l-5.4-57.4h-111.8l-5.4,57.4c-36.7,7.7-71.7,22.2-103,42.9l-44.6-36.9-78.7,78.7,36.9,44.6c-20.6,31.4-35.2,66.3-42.9,103.1l-57.5,5.4v111.5l57.5,5.4c7.7,36.7,22.2,71.7,42.9,103.1l-37.3,44.8,78.7,78.7,44.6-36.9c31.3,20.7,66.3,35.2,103,42.9l5.4,57.5h111.6l5.4-57.5c36.8-7.7,71.7-22.2,103.1-42.9l44.6,36.9,78.7-78.7-36.9-44.6c20.6-31.4,35.2-66.3,42.8-103.1l57.5-5.4v-111.5l-56.9-5.4ZM1103.1,567c0,29.9-8.9,59.1-25.4,83.9-16.6,24.8-40.2,44.2-67.8,55.6-27.6,11.4-58,14.4-87.3,8.6-29.3-5.8-56.2-20.2-77.3-41.3s-35.5-48-41.3-77.3c-5.8-29.3-2.8-59.7,8.6-87.3,11.4-27.6,30.8-51.2,55.6-67.8,24.8-16.6,54-25.5,83.9-25.5,19.8,0,39.5,3.9,57.8,11.5,18.3,7.6,35,18.7,49,32.7,14,14,25.2,30.7,32.8,49,7.6,18.3,11.5,38,11.5,57.8h0Z"/>
  <path class="cls-7" d="M1565.8,1041.3l3.7,41.1h80.2l3.9-41.3c26.4-5.5,51.5-15.9,74.1-30.8l32,26.5,56.7-56.7-26.5-32c14.8-22.5,25.3-47.6,30.8-74l41.3-3.9v-80l-41.3-3.9c-5.5-26.4-15.9-51.5-30.8-74l26.5-32-56.7-56.7-32,26.5c-22.5-14.9-47.6-25.3-74.1-30.8l-3.9-41.3h-80.2l-3.9,41.3c-26.4,5.5-51.5,16-74,30.8l-32-26.5-56.7,56.7,26.5,32c-14.8,22.5-25.3,47.6-30.8,74l-41.3,3.9v80.1l41.3,3.9c5.5,26.4,16,51.5,30.8,74l-26.5,32,56.7,56.7,32-26.5c22.6,14.8,47.8,25.3,74.2,30.7ZM1609.8,938.8c-21.5,0-42.5-6.4-60.3-18.3-17.9-11.9-31.8-28.9-40-48.7-8.2-19.8-10.3-41.7-6.1-62.8,4.2-21.1,14.6-40.4,29.8-55.6,15.2-15.2,34.6-25.5,55.6-29.6,21.1-4.2,42.9-2,62.7,6.3,19.8,8.3,36.8,22.2,48.7,40.1s18.2,38.9,18.2,60.4c0,28.7-11.5,56.2-31.9,76.5-20.3,20.3-47.9,31.7-76.6,31.7Z"/>
  <path class="cls-13" d="M543.7,1436.2l2,21.1h40.9l2-21c13.5-2.8,26.3-8.2,37.7-15.8l16.3,13.5,28.9-28.9-13.5-16.3c7.6-11.5,12.9-24.3,15.7-37.8l21.1-2v-40.9l-21.1-2c-2.8-13.5-8.1-26.3-15.7-37.8l13.5-16.3-28.9-28.9-16.3,13.5c-11.5-7.6-24.3-12.9-37.7-15.7l-2-21.1h-40.9l-2,21.1c-13.5,2.8-26.3,8.1-37.7,15.7l-16.3-13.5-28.9,28.9,13.5,16.3c-7.6,11.5-12.9,24.3-15.7,37.8l-21.1,2v40.9l21.1,2c2.8,13.5,8.1,26.3,15.7,37.8l-13.5,16.3,28.9,28.9,16.3-13.5c11.5,7.6,24.3,12.9,37.7,15.7ZM566.1,1384c-10.9,0-21.6-3.2-30.8-9.3-9.1-6.1-16.2-14.7-20.4-24.8-4.2-10.1-5.3-21.2-3.1-32,2.1-10.7,7.4-20.6,15.1-28.3,7.7-7.7,17.6-13,28.3-15.2s21.9-1,32,3.2c10.1,4.2,18.8,11.3,24.8,20.4,6.1,9.1,9.3,19.8,9.3,30.8s-1.4,14.5-4.2,21.2c-2.8,6.7-6.9,12.8-12,18-5.1,5.1-11.2,9.2-18,12-6.7,2.8-13.9,4.2-21.2,4.2Z"/>
  <path class="cls-13" d="M2013.5,1334.1l1.6,17.3h33.7l1.6-17.3c11.1-2.3,21.6-6.7,31.1-12.9l13.4,11.2,23.8-23.8-11.2-13.4c6.2-9.4,10.6-20,12.9-31.1l17.3-1.6v-33.7l-17.3-1.6c-2.3-11.1-6.7-21.6-12.9-31.1l11.2-13.4-23.8-23.8-13.4,11.2c-9.4-6.2-20-10.6-31.1-12.9l-1.6-17.3h-33.7l-1.6,17.3c-11.1,2.3-21.6,6.7-31.1,12.9l-13.4-11.2-23.8,23.8,11.2,13.4c-6.2,9.5-10.6,20-12.9,31.1l-17.3,1.6v33.7l17.3,1.6c2.3,11.1,6.7,21.6,12.9,31.1l-11.2,13.6,23.8,23.8,13.4-11.2c9.5,6.2,20,10.5,31.1,12.7ZM2032,1291.1c-9,0-17.8-2.7-25.3-7.7-7.5-5-13.3-12.1-16.8-20.5-3.4-8.3-4.3-17.5-2.6-26.3,1.8-8.8,6.1-17,12.5-23.3,6.4-6.4,14.5-10.7,23.3-12.5,8.8-1.8,18-.8,26.3,2.6,8.3,3.5,15.4,9.3,20.5,16.8,5,7.5,7.7,16.3,7.7,25.3,0,12.1-4.8,23.7-13.4,32.2-8.5,8.5-20.1,13.3-32.2,13.4Z"/>
  <path class="cls-7" d="M1140.1,1602.7h95.5l4.6-49.2c31.5-6.5,61.4-18.9,88.2-36.6l38.1,31.6,67.4-67.5-31.7-38.1c17.7-26.8,30.1-56.7,36.6-88.2l49.2-4.6v-95.5l-49.2-4.6c-6.5-31.4-19-61.3-36.6-88.1l31.5-38.1-67.5-67.5-37.8,31.5c-26.8-17.6-56.7-30.1-88.1-36.7l-4.6-49.2h-95.5l-4.6,49.2c-31.4,6.6-61.3,19-88.2,36.7l-38.1-31.5-67.6,67.5,31.6,38.1c-17.7,26.8-30.1,56.7-36.7,88.1l-49.2,4.6v95.5l49.2,4.6c6.5,31.4,19,61.4,36.7,88.2l-31.6,38.1,67.5,67.5,38.1-31.6c26.8,17.7,56.7,30.1,88.2,36.7l4.6,49.2ZM1187.8,1431.5c-25.6,0-50.5-7.6-71.8-21.8-21.2-14.2-37.8-34.4-47.6-58s-12.3-49.6-7.3-74.7c5-25.1,17.3-48.1,35.4-66.2,18.1-18.1,41.1-30.4,66.2-35.4,25.1-5,51-2.4,74.7,7.3,23.6,9.8,43.8,26.3,58,47.6,14.2,21.2,21.8,46.2,21.8,71.8,0,17-3.3,33.8-9.8,49.5-6.5,15.7-16,30-28,42-12,12-26.2,21.5-41.9,28.1-15.7,6.5-32.5,9.8-49.5,9.8v-.2Z"/>
  <path class="cls-13" d="M1673.6,1428.1l-4.9-9.8c-7.9-15.1-21.5-26.4-37.8-31.4-16.2-5.1-33.8-3.5-48.9,4.4l-23,12.1c-15.1,7.9-26.4,21.5-31.4,37.8-5.1,16.3-3.5,33.9,4.4,49l4.9,9.6-16,8.5,57.8,110.1,168.8-88.6-57.8-110.2-16,8.6ZM1638.4,1512.3l10.1,19.2-12.2,6.4-10.1-19.2c-2.3,0-4.6-.8-6.6-2-2-1.2-3.6-3-4.7-5-.9-1.6-1.5-3.4-1.8-5.2-.2-1.8,0-3.7.4-5.5.5-1.8,1.4-3.4,2.5-4.9,1.2-1.4,2.6-2.6,4.2-3.5,1.6-.9,3.4-1.4,5.3-1.5,1.8-.1,3.7,0,5.4.7s3.4,1.5,4.7,2.8c1.4,1.2,2.5,2.7,3.3,4.4,1.1,2.1,1.6,4.4,1.5,6.7-.1,2.3-.8,4.6-2.1,6.5ZM1648.2,1441.6l-86,45.2-4.9-9.8c-4.4-8.4-5.2-18.1-2.4-27.1,2.8-9,9.1-16.5,17.4-20.9l23-12.1c8.3-4.4,18.1-5.3,27.1-2.5,9,2.8,16.5,9,21,17.3l4.9,10Z"/>
  <path class="cls-13" d="M493.5,843l3.6-10.2c5.6-16.1,4.5-33.7-2.9-49.1s-20.6-27.1-36.7-32.7l-24.6-8.5c-16.1-5.6-33.8-4.5-49.1,3-15.3,7.5-27.1,20.7-32.6,36.8l-3.6,10.3-17.1-6-40.8,117.5,180.1,62.4,40.8-117.5-17.1-6ZM408,875.1l-7.1,20.4-13-4.5,7.1-20.5c-1.5-1.8-2.6-3.9-3-6.1-.5-2.3-.3-4.6.4-6.8,1.2-3.4,3.7-6.2,7-7.8,3.3-1.6,7-1.8,10.5-.6,3.4,1.2,6.2,3.7,7.8,7,1.6,3.3,1.8,7,.6,10.5-.8,2.2-2.2,4.2-3.9,5.7-1.8,1.5-3.9,2.5-6.2,3ZM466.5,833.7l-91.8-31.7,3.5-10.3c3.1-8.9,9.6-16.2,18.1-20.3,8.5-4.1,18.3-4.7,27.2-1.6l24.6,8.5c8.9,3.1,16.2,9.6,20.3,18.1,4.1,8.5,4.7,18.3,1.6,27.2l-3.6,10.1Z"/>
  <path class="cls-13" d="M2105.4,785.6l-10.5-3.3c14.4-2.6,27.6-9.9,37.3-20.8s15.6-24.8,16.6-39.4c1-14.6-3-29.1-11.2-41.2-8.2-12.1-20.3-21.1-34.3-25.5-14-4.4-29-4.1-42.7,1-13.7,5.1-25.3,14.7-33,27.2-7.7,12.5-10.9,27.2-9.2,41.7,1.7,14.5,8.2,28.1,18.5,38.5l-10.5-3.3c-15.4-4.9-32-3.5-46.4,3.9-14.3,7.4-25.2,20.1-30.1,35.5l-10.5,33.2,195,61.9,10.7-32.9c2.4-7.6,3.3-15.7,2.6-23.6-.7-8-2.9-15.7-6.6-22.8-3.7-7.1-8.7-13.4-14.9-18.5-6.1-5.1-13.2-9-20.8-11.4Z"/>
  <path class="cls-13" d="M1398.2,191.4l-6.5,2.8c6-7.3,9.4-16.4,9.6-25.8s-2.7-18.7-8.3-26.2c-5.6-7.6-13.6-13-22.7-15.5-9.1-2.5-18.8-1.8-27.4,1.8-8.7,3.7-15.9,10.1-20.5,18.4-4.6,8.2-6.3,17.8-4.8,27.1,1.5,9.3,6,17.9,12.9,24.3s15.8,10.3,25.2,11.1l-6.6,2.8c-9.5,4.1-17.1,11.7-21,21.3-3.9,9.6-3.9,20.4,0,29.9l8.6,20.7,121.5-51.1-8.7-20.6c-4.1-9.5-11.7-17.1-21.3-21-9.6-3.9-20.4-3.9-30,0Z"/>
  <path class="cls-13" d="M519.1,329.6l-6.9-1.4c9.1-2.6,17.1-8.1,22.6-15.8,5.6-7.6,8.4-16.9,8.1-26.4-.3-9.4-3.8-18.5-9.9-25.7-6.1-7.2-14.4-12.2-23.7-14.1-9.3-1.9-18.9-.7-27.4,3.5-8.5,4.2-15.3,11.1-19.4,19.6-4.1,8.5-5.2,18.2-3.2,27.4,2,9.2,7.1,17.5,14.4,23.5l-6.9-1.4c-10.2-2.1-20.8,0-29.5,5.7-8.7,5.7-14.7,14.7-16.9,24.8l-4.6,21.9,129,26.9,4.6-21.9c2.1-10.2.1-20.8-5.6-29.5-5.7-8.7-14.6-14.8-24.8-17Z"/>
  <path class="cls-1" d="M1230,1833c526.8,0,953.9-24.9,953.9-55.7s-427.1-55.7-953.9-55.7-953.9,24.9-953.9,55.7,427.1,55.7,953.9,55.7Z"/>
  <path class="cls-2" d="M1816.4,385.8h-880.2c-19.9,0-36,16.1-36,36v1080.8c0,19.9,16.1,36,36,36h880.2c19.9,0,36-16.1,36-36V421.8c0-19.9-16.1-36-36-36Z"/>
  <path class="cls-9" d="M1816.4,385.8h-880.2c-19.9,0-36,16.1-36,36v1080.8c0,19.9,16.1,36,36,36h880.2c19.9,0,36-16.1,36-36V421.8c0-19.9-16.1-36-36-36Z"/>
  <path class="cls-15" d="M1698.1,1096h-643.7v110.2h643.7v-110.2Z"/>
  <g class="cls-24">
    <path class="cls-5" d="M1086.8,1149c0-2.2.4-4.3,1.2-6.3.8-2,2-3.8,3.6-5.3,1.5-1.5,3.4-2.7,5.4-3.4,2-.8,4.2-1.1,6.3-1,2.1,0,4.3.3,6.3,1.1,2,.8,3.8,2,5.3,3.5l-2.1,2.1c-1.2-1.2-2.7-2.2-4.3-2.8-1.6-.7-3.3-1-5.1-.9-3.5,0-6.8,1.4-9.3,3.8-2.4,2.5-3.8,5.8-3.8,9.3s1.4,6.8,3.8,9.2,5.8,3.8,9.3,3.8c1.7,0,3.5-.3,5.1-.9s3.1-1.6,4.3-2.9l2.1,2.1c-1.5,1.5-3.3,2.8-5.3,3.6-2,.8-4.2,1.2-6.3,1.1-2.2,0-4.3-.3-6.3-1-2-.8-3.8-1.9-5.4-3.4-1.5-1.5-2.8-3.3-3.6-5.3-.8-2-1.2-4.1-1.2-6.3Z"/>
    <path class="cls-5" d="M1117.9,1152.9c0-2.4.7-4.7,2-6.7,1.3-2,3.2-3.6,5.4-4.5,2.2-.9,4.7-1.2,7-.7s4.5,1.6,6.2,3.3c1.7,1.7,2.9,3.8,3.3,6.2.5,2.3.2,4.8-.7,7-.9,2.2-2.5,4.1-4.4,5.4-2,1.3-4.3,2-6.7,2-1.6,0-3.2-.2-4.7-.8-1.5-.6-2.8-1.5-4-2.6-1.1-1.1-2-2.5-2.6-4-.6-1.5-.9-3.1-.8-4.7ZM1138.8,1152.9c0-1.7-.7-3.4-1.7-4.8-1-1.4-2.4-2.5-4.1-3.1-1.6-.6-3.4-.7-5.1-.3s-3.2,1.3-4.4,2.5c-1.2,1.3-2,2.8-2.3,4.6-.3,1.7,0,3.5.6,5.1.7,1.6,1.8,2.9,3.3,3.9,1.4,1,3.2,1.5,4.9,1.4,1.2,0,2.4-.2,3.5-.7s2.1-1.2,2.9-2c.8-.9,1.5-1.9,1.9-3,.4-1.1.6-2.3.5-3.5Z"/>
    <path class="cls-5" d="M1170.5,1151v13.8h-3.2v-13.5c.1-1,0-2-.2-3-.3-1-.8-1.8-1.5-2.6-.7-.7-1.5-1.3-2.5-1.7-.9-.4-1.9-.5-2.9-.4-1.1,0-2.3.1-3.3.5-1.1.4-2,1-2.8,1.9-.8.8-1.4,1.8-1.8,2.9-.4,1.1-.5,2.2-.4,3.4v12.4h-3.2v-23.8h3.1v4.4c1-1.5,2.3-2.7,3.9-3.5,1.6-.8,3.4-1.2,5.2-1,1.3,0,2.7,0,3.9.6,1.2.5,2.4,1.2,3.3,2.2.9,1,1.6,2.1,2.1,3.4.4,1.3.6,2.6.4,4Z"/>
    <path class="cls-5" d="M1186.9,1131.1c1.8,0,3.5.4,4.9,1.5l-1.1,2.4c-1-.8-2.3-1.2-3.5-1.2-2.7,0-4.2,1.5-4.2,4.5v2.8h7.3v2.7h-7.2v21.1h-3.2v-21.1h-4.2v-2.7h4.2v-2.9c0-.9,0-1.9.4-2.8.3-.9.8-1.7,1.5-2.3.7-.7,1.5-1.2,2.3-1.5.9-.3,1.8-.5,2.8-.4ZM1202.1,1133.5c0,.3,0,.6-.2.9-.1.3-.3.6-.5.8-.2.2-.5.4-.8.5-.3.1-.6.2-.9.2-.3,0-.7,0-1,0-.3,0-.6-.2-.9-.5-.3-.2-.5-.5-.6-.8-.1-.3-.2-.6-.2-1s0-.7.2-1c.1-.3.3-.6.6-.8.2-.2.5-.4.9-.5.3,0,.7-.1,1,0,.3,0,.6,0,.9.1.3.1.5.3.8.5.2.2.4.4.5.7.1.3.2.6.2.9ZM1198.1,1141h3.2v23.8h-3.2v-23.8Z"/>
    <path class="cls-5" d="M1222.2,1140.8v3.1h-.8c-1.1,0-2.3.1-3.3.6-1,.4-2,1.1-2.8,1.9-.8.8-1.3,1.8-1.7,2.9-.3,1.1-.4,2.2-.3,3.3v12.1h-3.1v-23.8h3.1v4.7c.8-1.6,2.1-2.9,3.7-3.8,1.6-.9,3.4-1.2,5.2-1.1Z"/>
    <path class="cls-5" d="M1267.1,1151v13.8h-3.2v-13.5c0-4.9-2.5-7.6-6.8-7.6-1.1,0-2.2.1-3.3.6-1,.4-2,1.1-2.7,1.9-.8.8-1.3,1.8-1.7,2.9-.3,1.1-.4,2.2-.3,3.3v12.4h-3.2v-13.5c0-4.9-2.5-7.6-6.8-7.6-1.1,0-2.2.2-3.2.6-1,.4-2,1.1-2.7,1.9-.8.8-1.3,1.8-1.7,2.8-.3,1.1-.5,2.2-.3,3.3v12.4h-3.2v-23.8h3.1v4.3c.9-1.4,2.2-2.6,3.8-3.4,1.5-.8,3.2-1.2,4.9-1.1,1.7-.1,3.5.3,5,1.1,1.5.9,2.7,2.2,3.4,3.8,1-1.6,2.4-2.9,4-3.8,1.7-.9,3.5-1.3,5.4-1.2,1.3,0,2.7,0,3.9.6,1.2.5,2.4,1.2,3.3,2.2.9,1,1.6,2.1,2,3.4.4,1.3.5,2.6.3,3.9Z"/>
    <path class="cls-5" d="M1314.7,1133.2v31.6h-2.8l-20.3-25.6v25.6h-3.3v-31.6h2.8l20.4,25.6v-25.6h3.3Z"/>
    <path class="cls-5" d="M1345,1153.9h-19.7c0,1.2.4,2.3.9,3.3.5,1,1.2,2,2.1,2.8s1.9,1.4,3,1.7,2.3.5,3.4.4c1.4,0,2.7-.2,4-.8,1.2-.5,2.4-1.4,3.3-2.4l1.8,2.1c-1.7,1.8-3.9,3-6.3,3.6-2.4.5-4.9.4-7.2-.5-2.3-.9-4.3-2.4-5.7-4.4-1.4-2-2.2-4.4-2.3-6.8,0-1.6.2-3.1.7-4.6.5-1.5,1.4-2.8,2.5-3.9,1.1-1.1,2.4-2,3.8-2.6,1.4-.6,3-.9,4.6-.9,1.6,0,3.1.3,4.6.9,1.5.6,2.8,1.5,3.8,2.6,1.1,1.1,1.9,2.5,2.5,4,.5,1.5.8,3,.7,4.6-.2.2-.2.6-.2,1ZM1325.3,1151.5h16.8c0-2.2-.9-4.4-2.5-5.9-1.6-1.6-3.7-2.5-6-2.5s-4.4.9-5.9,2.5c-1.6,1.6-2.5,3.7-2.5,5.9Z"/>
    <path class="cls-5" d="M1386,1141l-9,23.8h-3l-7.5-19.4-7.5,19.4h-3.1l-8.9-23.8h3l7.4,20.2,7.6-20.2h2.6l7.6,20.2,7.5-20.2h3.1Z"/>
    <path class="cls-5" d="M1428,1144c0,6.7-4.9,10.8-12.9,10.8h-8.5v9.8h-3.3v-31.6h11.8c8.1.1,12.9,4.2,12.9,11ZM1424.7,1144c0-4.9-3.3-7.9-9.8-7.9h-8.2v15.8h8.4c6.3,0,9.6-2.9,9.6-7.9Z"/>
    <path class="cls-5" d="M1452.2,1150.1v14.8h-3.1v-3.7c-.9,1.3-2.1,2.4-3.6,3.1-1.4.7-3,1-4.6.8-5.4,0-8.7-2.8-8.7-6.9s2.3-6.8,9.2-6.8h7.5v-1.4c0-4-2.3-6.2-6.7-6.2-2.9,0-5.7.9-7.9,2.8l-1.4-2.4c2.8-2.2,6.3-3.3,9.8-3.2,1.2-.2,2.5,0,3.7.4,1.2.4,2.3,1.1,3.2,2,.9.9,1.6,2,2,3.1.4,1.2.6,2.5.4,3.7ZM1449,1157.6v-3.9h-7.5c-4.6,0-6.1,1.8-6.1,4.2s2.2,4.5,6,4.5c1.6.1,3.2-.3,4.6-1.2,1.4-.9,2.4-2.1,3-3.6Z"/>
    <path class="cls-5" d="M1457.7,1162.1l1.5-2.6c2.4,1.8,5.4,2.7,8.4,2.7,4.5,0,6.3-1.5,6.3-3.8,0-6.2-15.4-1.3-15.4-10.7s3.3-6.7,9.3-6.7c3,0,5.9.7,8.4,2.2l-1.4,2.6c-2.1-1.4-4.5-2.1-7-2-4.3,0-6.2,1.7-6.2,3.9,0,6.4,15.4,1.6,15.4,10.7s-3.6,6.7-9.8,6.7c-3.4.1-6.8-.9-9.6-2.9Z"/>
    <path class="cls-5" d="M1479.7,1162.1l1.4-2.6c2.5,1.8,5.4,2.7,8.5,2.7,4.5,0,6.3-1.5,6.3-3.8,0-6.2-15.4-1.3-15.4-10.7s3.3-6.7,9.4-6.7c2.9,0,5.8.7,8.4,2.2l-1.4,2.6c-2.1-1.4-4.5-2.1-7-2-4.3,0-6.2,1.7-6.2,3.9,0,6.4,15.4,1.6,15.4,10.7s-3.6,6.7-9.8,6.7c-3.4.1-6.8-.9-9.6-2.9Z"/>
    <path class="cls-5" d="M1539.5,1141l-9,23.8h-3l-7.5-19.4-7.5,19.4h-3.1l-8.9-23.8h3.1l7.4,20.2,7.6-20.2h2.8l7.6,20.2,7.5-20.2h2.9Z"/>
    <path class="cls-5" d="M1541.2,1152.9c0-2.4.7-4.7,2-6.7,1.3-2,3.2-3.5,5.4-4.4,2.2-.9,4.6-1.2,7-.7,2.3.5,4.5,1.6,6.2,3.3,1.7,1.7,2.8,3.8,3.3,6.2.5,2.3.2,4.8-.7,7-.9,2.2-2.4,4.1-4.4,5.4-2,1.3-4.3,2-6.7,2.1-1.6,0-3.2-.2-4.7-.8-1.5-.6-2.8-1.5-4-2.6-1.1-1.1-2-2.5-2.6-4-.6-1.5-.9-3.1-.8-4.7ZM1562.1,1152.9c0-1.7-.7-3.4-1.7-4.8s-2.4-2.4-4-3c-1.6-.6-3.4-.7-5.1-.3-1.7.4-3.2,1.3-4.4,2.5-1.2,1.3-2,2.8-2.3,4.5-.3,1.7,0,3.4.6,5,.7,1.6,1.8,2.9,3.3,3.9,1.4.9,3.1,1.4,4.8,1.4,1.2,0,2.4-.2,3.5-.7,1.1-.5,2.1-1.2,2.9-2s1.5-1.9,1.9-3c.4-1.1.6-2.3.5-3.5Z"/>
    <path class="cls-5" d="M1583.8,1140.8v3.1h-.7c-1.1,0-2.3.1-3.3.6-1,.4-2,1.1-2.7,1.9-.8.8-1.3,1.8-1.7,2.9-.3,1.1-.4,2.2-.3,3.3v12.1h-3.2v-23.8h3.1v4.7c.8-1.6,2.1-2.9,3.7-3.8,1.6-.9,3.4-1.2,5.2-1.1Z"/>
    <path class="cls-5" d="M1611.1,1131.3v33.5h-3.1v-4.9c-.9,1.6-2.3,2.8-3.9,3.7s-3.4,1.3-5.2,1.2c-3.2,0-6.3-1.3-8.5-3.5s-3.5-5.3-3.5-8.5,1.3-6.3,3.5-8.5c2.3-2.3,5.3-3.5,8.5-3.5,1.8,0,3.5.3,5.1,1.2,1.6.8,2.9,2,3.9,3.5v-14.3l3.2.2ZM1607.9,1152.9c0-1.7-.7-3.4-1.7-4.8s-2.4-2.5-4-3.1c-1.6-.6-3.4-.7-5-.3-1.7.4-3.2,1.3-4.4,2.5-1.2,1.2-2,2.8-2.3,4.5-.3,1.7,0,3.4.6,5,.7,1.6,1.8,2.9,3.2,3.9,1.4,1,3.1,1.5,4.8,1.5,1.2,0,2.4-.2,3.5-.7s2.1-1.2,2.9-2c.8-.9,1.5-1.9,1.9-3,.4-1.1.6-2.3.5-3.5Z"/>
  </g>
  <path class="cls-17" d="M1698.1,1311.7h-643.7v110.2h643.7v-110.2Z"/>
  <g class="cls-22">
    <path class="cls-11" d="M1058.3,835.4v7.4h9.8v1.7h-9.8v8h-2v-18.8h12.9v1.7h-10.9Z"/>
    <path class="cls-11" d="M1071.1,845.5c0-1.4.4-2.8,1.2-4,.8-1.2,1.9-2.1,3.2-2.7,1.3-.5,2.8-.7,4.2-.4,1.4.3,2.7,1,3.7,2,1,1,1.7,2.3,2,3.7.3,1.4.1,2.9-.4,4.2-.6,1.3-1.5,2.5-2.7,3.2-1.2.8-2.6,1.2-4,1.2-1,0-1.9-.1-2.8-.5s-1.7-.9-2.4-1.6c-.7-.7-1.2-1.5-1.6-2.4-.4-.9-.5-1.8-.5-2.8ZM1083.6,845.5c0-1-.4-2.1-1-2.9-.6-.8-1.5-1.5-2.4-1.9-1-.4-2-.4-3.1-.2-1,.2-1.9.8-2.7,1.5-.7.8-1.2,1.7-1.4,2.7-.2,1,0,2.1.3,3,.4,1,1.1,1.8,2,2.3.9.6,1.9.9,2.9.9.7,0,1.4-.1,2.1-.4.7-.3,1.3-.7,1.8-1.2.5-.5.9-1.1,1.1-1.8.2-.7.3-1.4.3-2.1Z"/>
    <path class="cls-11" d="M1096.6,838.3v1.9h-.4c-.7,0-1.4,0-2,.3-.6.2-1.2.6-1.7,1.1-.5.5-.8,1.1-1,1.8s-.3,1.4-.2,2v7.2h-1.9v-14.2h1.8v3c.5-1,1.3-1.9,2.2-2.4s2.1-.8,3.2-.6Z"/>
    <path class="cls-11" d="M1113,838.4v12.4c.2,1,0,2-.2,2.9-.3.9-.8,1.8-1.5,2.5-.7.7-1.5,1.2-2.5,1.5-.9.3-1.9.4-2.9.2-2.4.1-4.7-.7-6.6-2.2l1-1.5c1.5,1.3,3.5,2,5.6,2,3.6,0,5.2-1.7,5.2-5.2v-1.8c-.6.9-1.4,1.6-2.4,2.1-1,.5-2,.7-3.1.7-.9,0-1.9,0-2.8-.3-.9-.3-1.7-.8-2.4-1.4-.7-.6-1.3-1.4-1.6-2.3-.4-.9-.6-1.8-.6-2.8s.2-1.9.6-2.8c.4-.9.9-1.7,1.6-2.3.7-.6,1.5-1.1,2.4-1.4.9-.3,1.9-.4,2.8-.3,1.1,0,2.2.2,3.2.7s1.8,1.2,2.4,2.1v-2.7h1.8ZM1111.1,845.1c0-1.1-.3-2.1-.8-3-.6-.9-1.4-1.6-2.4-2-1-.4-2.1-.6-3.1-.4-1,.2-2,.7-2.8,1.4-.8.7-1.3,1.7-1.5,2.7s-.1,2.1.3,3.1c.4,1,1.1,1.8,2,2.4.9.6,1.9.9,3,.9.7,0,1.4,0,2.1-.3.7-.2,1.3-.6,1.8-1.1.5-.5.9-1.1,1.2-1.8.3-.7.4-1.4.3-2.1Z"/>
    <path class="cls-11" d="M1116.8,845.5c0-1.4.4-2.8,1.2-4,.8-1.2,1.9-2.1,3.2-2.7,1.3-.5,2.8-.7,4.2-.4,1.4.3,2.7,1,3.7,2,1,1,1.7,2.3,2,3.7.3,1.4.1,2.9-.4,4.2-.5,1.3-1.5,2.5-2.7,3.2-1.2.8-2.6,1.2-4,1.2-1,0-1.9-.1-2.8-.5-.9-.4-1.7-.9-2.4-1.6-.7-.7-1.2-1.5-1.6-2.4-.3-.9-.5-1.8-.5-2.8ZM1129.3,845.5c0-1-.4-2-1-2.9-.6-.8-1.4-1.5-2.4-1.8-1-.4-2-.4-3-.2-1,.2-1.9.7-2.6,1.5-.7.7-1.2,1.7-1.4,2.7-.2,1,0,2.1.3,3,.4.9,1.1,1.8,1.9,2.3.9.6,1.9.9,2.9.9.7,0,1.5,0,2.1-.4.7-.3,1.3-.7,1.8-1.2.5-.5.9-1.1,1.2-1.8.2-.7.3-1.4.3-2.1h0Z"/>
    <path class="cls-11" d="M1142.8,851.7c-.9.6-1.9,1-3,1-.6,0-1.1,0-1.7-.2-.5-.2-1-.5-1.4-.9-.4-.4-.7-.9-.9-1.4-.2-.5-.2-1.1-.2-1.7v-8.6h-2.6v-1.6h2.6v-3.1h1.9v3.1h4.3v1.6h-4.3v8.5c0,1.7.8,2.6,2.4,2.6.8,0,1.5-.2,2.1-.7l.7,1.4Z"/>
    <path class="cls-11" d="M1168.5,840.1c0,4-2.9,6.4-7.7,6.4h-4.9v6h-2v-18.8h7.1c4.6,0,7.6,2.4,7.6,6.4ZM1166.5,840.1c0-3-2-4.9-5.8-4.9h-4.9v9.4h4.9c3.8.2,5.8-1.5,5.8-4.5Z"/>
    <path class="cls-11" d="M1183,843.8v8.8h-1.8v-2.2c-.5.8-1.3,1.4-2.1,1.9-.9.4-1.8.6-2.8.5-3.2,0-5.2-1.7-5.2-4.1s1.4-4,5.5-4h4.5v-.8c0-.5,0-1-.2-1.5-.2-.5-.5-.9-.9-1.3-.4-.4-.8-.6-1.3-.8-.5-.2-1-.2-1.6-.1-1.8,0-3.6.5-4.9,1.7l-.9-1.4c1.6-1.3,3.7-2,5.8-1.9.8-.2,1.6-.2,2.4,0,.8.2,1.5.6,2.1,1.1.6.5,1,1.2,1.3,2,.3.8.3,1.6.2,2.4ZM1181.1,848.3v-2.4h-4.4c-2.8,0-3.6,1.1-3.6,2.6s1.3,2.7,3.6,2.7c1,0,1.9-.2,2.7-.7.8-.5,1.4-1.3,1.8-2.2Z"/>
    <path class="cls-11" d="M1186.2,851.2l.9-1.5c1.4,1,3.2,1.6,4.9,1.6,2.7,0,3.8-.9,3.8-2.3,0-3.7-9.2-.8-9.2-6.4s2-4,5.6-4c1.7,0,3.4.4,4.9,1.3l-.8,1.5c-1.2-.8-2.7-1.3-4.2-1.2-2.6,0-3.7,1-3.7,2.4,0,3.8,9.2.9,9.2,6.4s-2.2,4-5.9,4c-2,0-3.9-.6-5.6-1.8Z"/>
    <path class="cls-11" d="M1199.4,851.2l.9-1.5c1.4,1,3.2,1.6,4.9,1.6,2.7,0,3.8-.9,3.8-2.3,0-3.7-9.2-.8-9.2-6.4s2-4,5.6-4c1.7,0,3.4.4,4.9,1.3l-.8,1.5c-1.2-.8-2.7-1.3-4.2-1.2-2.6,0-3.7,1-3.7,2.4,0,3.8,9.2.9,9.2,6.4s-2.2,4-5.9,4c-2,0-3.9-.6-5.6-1.8Z"/>
    <path class="cls-11" d="M1234.9,838.4l-4.9,14.2h-1.8l-4.5-11.6-4.5,11.6h-1.8l-5.3-14.2h1.8l4.4,12.1,4.6-12.1h1.6l4.5,12.1,4.5-12.1h1.3Z"/>
    <path class="cls-11" d="M1236.2,845.5c0-1.4.4-2.8,1.2-4,.8-1.2,1.9-2.1,3.2-2.7,1.3-.5,2.8-.7,4.2-.4,1.4.3,2.7,1,3.7,2,1,1,1.7,2.3,2,3.7.3,1.4.1,2.9-.4,4.2-.5,1.3-1.5,2.5-2.7,3.2-1.2.8-2.6,1.2-4,1.2-1,0-1.9-.1-2.8-.5-.9-.4-1.7-.9-2.4-1.6-.7-.7-1.2-1.5-1.6-2.4s-.5-1.8-.5-2.8ZM1248.7,845.5c0-1-.4-2-1-2.9-.6-.8-1.4-1.5-2.4-1.8-1-.4-2-.4-3-.2-1,.2-1.9.7-2.6,1.5-.7.7-1.2,1.7-1.4,2.7-.2,1,0,2.1.3,3,.4.9,1.1,1.8,1.9,2.3.9.6,1.9.9,2.9.9.7,0,1.4-.1,2.1-.4.7-.3,1.3-.7,1.8-1.2.5-.5.9-1.1,1.1-1.8.2-.7.3-1.4.3-2.1Z"/>
    <path class="cls-11" d="M1261.6,838.3v1.9h-.5c-.7,0-1.4,0-2,.3-.6.2-1.2.6-1.7,1.1-.5.5-.8,1.1-1,1.8-.2.7-.3,1.4-.2,2v7.2h-1.7v-14.2h1.8v3c.5-1,1.2-1.8,2.1-2.3.9-.5,2-.8,3.1-.7Z"/>
    <path class="cls-11" d="M1277.9,832.6v20h-1.9v-2.8c-.6.9-1.4,1.7-2.3,2.2-1,.5-2,.8-3.1.7-1.8-.1-3.5-1-4.7-2.3-1.2-1.3-1.9-3.1-1.9-4.9s.7-3.6,1.9-4.9c1.2-1.3,2.9-2.2,4.7-2.3,1.1,0,2.1.2,3.1.7.9.5,1.8,1.2,2.3,2.1v-8.5h1.9ZM1276,845.5c0-1-.4-2-1-2.9s-1.4-1.5-2.4-1.8c-1-.4-2-.4-3-.2-1,.2-1.9.8-2.6,1.5-.7.7-1.2,1.7-1.4,2.7-.2,1,0,2.1.3,3,.4.9,1.1,1.8,1.9,2.3.9.6,1.9.9,2.9.9.7,0,1.4-.1,2.1-.4.7-.3,1.3-.7,1.8-1.2.5-.5.9-1.1,1.1-1.8.2-.7.4-1.4.3-2.1Z"/>
    <path class="cls-11" d="M1291.8,838.5c0-2-1.6-3.3-4.3-3.3-1,0-2,0-2.8.5-.9.4-1.7,1-2.3,1.7l-1.4-1.1c.8-1,1.9-1.7,3-2.2,1.2-.5,2.4-.7,3.7-.6,3.7,0,6.2,1.8,6.2,4.9,0,4.6-4.9,4.9-4.9,8.7h-2c0-4.6,4.9-5.1,4.9-8.6ZM1286.5,851.2c0-.3.2-.6.5-.8.3-.2.6-.3.9-.3s.7.1.9.3c.3.2.4.5.5.8,0,.2,0,.4,0,.6,0,.2-.1.4-.3.6-.1.2-.3.3-.5.4-.2,0-.4.1-.6.1s-.4,0-.6-.1c-.2,0-.4-.2-.5-.4-.1-.2-.2-.4-.3-.6,0-.2,0-.4,0-.6Z"/>
  </g>
  <path class="cls-2" d="M1698.1,1304.9h-643.7v110.2h643.7v-110.2Z"/>
  <path class="cls-15" d="M1194.7,1372.7l2-4.2c3.5,2.9,7.9,4.4,12.4,4.4,6.5,0,9.3-2.5,9.3-5.8,0-9.2-22.8-3.4-22.8-17.4s4.5-10.8,14.4-10.8c4.3,0,8.5,1.1,12.2,3.4l-1.8,4.3c-3.1-2-6.7-3-10.4-3-6.4,0-9.1,2.7-9.1,6,0,9.2,22.9,3.4,22.9,17.3s-4.9,10.7-14.8,10.7c-5.2.1-10.2-1.5-14.3-4.7Z"/>
  <path class="cls-15" d="M1256.6,1364.6h-23.2c.4,2.4,1.6,4.7,3.6,6.2,1.9,1.6,4.4,2.3,6.8,2.2,1.5,0,3.1-.2,4.5-.8,1.4-.6,2.7-1.5,3.7-2.6l2.9,3.3c-2.1,2.1-4.8,3.6-7.7,4.3-2.9.6-6,.4-8.8-.6-2.8-1-5.3-2.9-7.1-5.3-1.8-2.4-2.9-5.3-3.1-8.3,0-1.9.2-3.9.9-5.7.7-1.8,1.7-3.4,3.1-4.8,1.3-1.4,3-2.5,4.7-3.2,1.8-.7,3.7-1.1,5.6-1,1.9,0,3.8.3,5.6,1,1.8.7,3.4,1.8,4.7,3.2,1.3,1.4,2.3,3,3,4.9.7,1.8.9,3.7.8,5.7,0,.4,0,1.1,0,1.6ZM1233.4,1360.9h18.4c-.3-2.2-1.4-4.3-3.1-5.8-1.7-1.5-3.9-2.3-6.1-2.3s-4.4.8-6.1,2.3c-1.7,1.5-2.8,3.5-3.1,5.8Z"/>
  <path class="cls-15" d="M1280,1375.5c-1.8,1.3-4,2-6.2,2-1.2.1-2.4,0-3.6-.4-1.2-.4-2.2-1.1-3.1-1.9-.9-.9-1.5-1.9-1.9-3s-.6-2.4-.4-3.6v-15.6h-4.9v-4.2h4.9v-6.2h5.2v6.2h8.2v4.2h-8.2v15.5c-.1.6,0,1.3,0,1.9.2.6.5,1.2.9,1.7.4.5,1,.8,1.6,1.1.6.2,1.2.3,1.9.3,1.5,0,2.9-.4,4-1.3l1.6,3.4Z"/>
  <path class="cls-15" d="M1332,1352.6c0,8.2-5.9,13.1-15.7,13.1h-9.3v11.5h-5.4v-37.7h14.8c9.7,0,15.7,4.9,15.7,13.1ZM1326.6,1352.6c0-5.4-3.6-8.5-10.5-8.5h-9.2v16.9h9.2c6.9,0,10.5-3.1,10.5-8.5Z"/>
  <path class="cls-15" d="M1361.6,1359.9v17.3h-4.9v-3.8c-1.1,1.4-2.5,2.5-4.2,3.2-1.6.7-3.4,1-5.2.8-6.4,0-10.5-3.4-10.5-8.4s3-8.4,11.5-8.4h8.2v-1c0-4.4-2.6-6.9-7.7-6.9s-6.5,1.1-9,3.1l-2.2-3.9c3.4-2.5,7.6-3.8,11.8-3.7,7.8,0,12.2,3.8,12.2,11.6ZM1356.4,1368.4v-4h-8c-4.9,0-6.6,2-6.6,4.4s2.4,4.6,6.3,4.6c1.7.1,3.5-.3,4.9-1.2,1.5-.9,2.6-2.3,3.3-3.9Z"/>
  <path class="cls-15" d="M1367.8,1374.2l2.2-4.1c2.9,1.9,6.3,2.9,9.8,3,4.9,0,6.8-1.4,6.8-3.9,0-6.4-18.1-.8-18.1-12.2s4.6-8.6,11.9-8.6c3.7,0,7.2.8,10.4,2.6l-2.2,4.1c-2.5-1.6-5.3-2.3-8.3-2.3-4.5,0-6.7,1.7-6.7,3.9,0,6.7,18.2,1.2,18.2,12.4s-4.9,8.5-12.3,8.5c-4.1,0-8.2-1.1-11.7-3.3Z"/>
  <path class="cls-15" d="M1394.6,1374.2l2.2-4.1c2.9,1.9,6.3,2.9,9.8,3,4.9,0,6.8-1.4,6.8-3.9,0-6.4-18.1-.8-18.1-12.2s4.6-8.6,11.9-8.6c3.6,0,7.2.9,10.4,2.6l-2.2,4.1c-2.5-1.6-5.3-2.3-8.2-2.3-4.5,0-6.7,1.7-6.7,3.9,0,6.7,18.1,1.2,18.1,12.4s-4.9,8.5-12.3,8.5c-4.1,0-8.2-1.1-11.6-3.3Z"/>
  <path class="cls-15" d="M1467.9,1348.6l-10.7,28.6h-4.9l-8.3-21.7-8.4,21.7h-4.9l-10.6-28.6h4.9l8.3,22.7,8.6-22.7h4.5l8.5,22.8,8.5-22.8h4.4Z"/>
  <path class="cls-15" d="M1469.7,1362.8c0-2.9.9-5.8,2.5-8.2,1.6-2.4,3.9-4.3,6.6-5.4,2.7-1.1,5.7-1.4,8.5-.8,2.9.6,5.5,2,7.6,4,2.1,2.1,3.5,4.7,4,7.6.6,2.9.3,5.8-.8,8.5s-3,5-5.4,6.6c-2.4,1.6-5.3,2.5-8.2,2.5-2,0-3.9-.2-5.7-1-1.8-.7-3.5-1.8-4.9-3.2-1.4-1.4-2.5-3-3.2-4.9-.7-1.8-1-3.8-1-5.7ZM1494.3,1362.8c0-1.9-.7-3.8-1.8-5.4-1.1-1.6-2.7-2.8-4.5-3.5-1.8-.7-3.8-.8-5.7-.4-1.9.4-3.6,1.4-5,2.8-1.3,1.4-2.2,3.2-2.6,5.1-.3,1.9,0,3.9.7,5.7.8,1.8,2.1,3.3,3.7,4.3,1.7,1,3.6,1.6,5.5,1.5,1.3,0,2.6-.2,3.8-.8,1.2-.5,2.3-1.3,3.2-2.2.9-.9,1.6-2.1,2-3.3.4-1.2.6-2.5.5-3.8h.1Z"/>
  <path class="cls-15" d="M1521.9,1348.3v4.9h-1.2c-1.3,0-2.6.1-3.8.6-1.2.5-2.3,1.2-3.1,2.2-.9.9-1.5,2.1-1.9,3.3-.4,1.2-.5,2.5-.2,3.8v14.3h-4.9v-28.6h4.9v4.9c1-1.8,2.5-3.2,4.3-4.1,1.8-1,3.8-1.4,5.8-1.2Z"/>
  <path class="cls-15" d="M1555,1337.2v40h-4.9v-4.5c-1.2,1.6-2.7,2.9-4.5,3.7-1.8.9-3.7,1.3-5.7,1.2-3.5-.5-6.7-2.3-9-5-2.3-2.7-3.6-6.1-3.6-9.6s1.3-6.9,3.6-9.6c2.3-2.7,5.5-4.4,9-5,1.9,0,3.8.3,5.5,1.2,1.7.8,3.2,2,4.4,3.5v-15.7h5.3ZM1549.8,1362.8c0-1.9-.7-3.8-1.8-5.4-1.1-1.6-2.7-2.8-4.5-3.5-1.8-.7-3.8-.8-5.7-.4-1.9.4-3.6,1.4-5,2.8-1.3,1.4-2.2,3.2-2.6,5.1-.3,1.9,0,3.9.7,5.7.8,1.8,2.1,3.3,3.7,4.3,1.7,1,3.6,1.6,5.5,1.5,1.3,0,2.6-.2,3.8-.7,1.2-.5,2.3-1.2,3.2-2.2.9-.9,1.6-2.1,2-3.3.4-1.2.6-2.5.5-3.9Z"/>
  <g class="cls-20">
    <path class="cls-5" d="M1173,556.8l-8.9-12.7h-12.8v12.5h-5.9v-41.3h16.1c10.7,0,17.2,5.5,17.2,14.4.1,2.9-.7,5.7-2.3,8.1-1.6,2.4-4,4.1-6.7,5l9.8,13.9h-6.5ZM1173,529.9c0-5.9-3.9-9.2-11.5-9.2h-9.8v18.6h9.8c7.4,0,11.3-3.4,11.3-9.3h.2Z"/>
    <path class="cls-5" d="M1215.6,543.1h-25.3c.3,2.7,1.7,5.1,3.8,6.8,2.1,1.7,4.8,2.5,7.5,2.3,1.7,0,3.4-.2,4.9-.9,1.6-.6,3-1.6,4.1-2.9l3.2,3.6c-2.3,2.3-5.2,4-8.5,4.7-3.2.7-6.6.5-9.7-.7-3.1-1.2-5.8-3.2-7.7-5.8-2-2.6-3.1-5.8-3.3-9.1,0-2.1.2-4.2,1-6.1.8-2,1.9-3.7,3.4-5.2s3.2-2.7,5.2-3.5c1.9-.8,4-1.2,6.1-1.1,2.1,0,4.2.3,6.1,1.1,1.9.8,3.7,2,5.1,3.5,1.4,1.5,2.6,3.3,3.3,5.3.7,2,1,4,.9,6.1,0,.6,0,1.3-.2,1.9ZM1190.2,539h20.1c0-2.7-1-5.2-2.9-7.1-1.9-1.9-4.4-2.9-7.1-2.9s-5.2,1.1-7.1,2.9c-1.9,1.9-2.9,4.4-2.9,7.1h0Z"/>
    <path class="cls-5" d="M1219.6,553.5l2.4-4.5c3.3,2.1,7.1,3.2,11,3.2,5.3,0,7.4-1.6,7.4-4.3,0-7-19.7-.9-19.7-13.4s4.9-9.4,13-9.4c4,0,7.9.9,11.4,2.9l-2.4,4.5c-2.7-1.7-5.8-2.5-9-2.5-4.9,0-7.4,1.8-7.4,4.3,0,7.4,19.7,1.4,19.7,13.5s-5.2,9.2-13.5,9.2c-4.5.1-9-1.2-12.8-3.6Z"/>
    <path class="cls-5" d="M1281.3,543.1h-25.4c.4,2.7,1.8,5.1,3.9,6.8,2.1,1.7,4.8,2.5,7.4,2.3,1.7,0,3.4-.2,4.9-.9,1.6-.6,3-1.6,4.1-2.9l3.1,3.6c-1.6,1.7-3.5,3-5.6,3.8-2.1.8-4.4,1.2-6.7,1.1-2.2.2-4.4-.1-6.4-.9-2.1-.7-3.9-1.9-5.5-3.4-1.6-1.5-2.8-3.3-3.7-5.3-.8-2-1.2-4.2-1.2-6.4,0-2.1.3-4.2,1-6.1.8-2,1.9-3.7,3.4-5.2,1.5-1.5,3.2-2.7,5.2-3.5,2-.8,4-1.2,6.1-1.1,2.1,0,4.2.3,6.1,1.1,2,.8,3.7,2,5.2,3.5,1.5,1.5,2.6,3.3,3.3,5.3.7,2,1,4.1.8,6.2,0,.6,0,1.3,0,1.9ZM1255.9,539h20.1c-.2-2.5-1.4-4.8-3.3-6.5-1.9-1.7-4.3-2.6-6.8-2.6s-4.9.9-6.8,2.6c-1.8,1.7-3,4-3.3,6.5Z"/>
    <path class="cls-5" d="M1306.9,555c-2,1.5-4.4,2.2-6.8,2.2-1.3.1-2.7,0-3.9-.5-1.3-.4-2.4-1.2-3.3-2.1-1-.9-1.7-2.1-2.1-3.3-.4-1.3-.6-2.6-.5-3.9v-17.2h-5.3v-4.7h5.3v-6.8h5.7v6.8h8.9v4.7h-8.9v16.9c0,.7,0,1.4.2,2,.2.7.6,1.3,1,1.8.5.5,1.1.9,1.7,1.1.7.3,1.3.4,2,.3,1.6,0,3.1-.5,4.4-1.5l1.7,4.1Z"/>
    <path class="cls-5" d="M1363.8,529.9c0,9-6.5,14.4-17.2,14.4h-10.2v12.5h-5.9v-41.3h16.1c10.7,0,17.2,5.5,17.2,14.4ZM1357.9,529.9c0-5.9-3.9-9.2-11.5-9.2h-9.8v18.5h9.8c7.6,0,11.6-3.3,11.6-9.2h0Z"/>
    <path class="cls-5" d="M1396.2,537.9v18.9h-5.4v-4.1c-1.2,1.6-2.8,2.8-4.6,3.6-1.8.8-3.8,1.1-5.7.9-7.1,0-11.6-3.8-11.6-9.2s3.2-9.2,12.6-9.2h9v-1.1c0-4.9-2.8-7.5-8.4-7.5-3.6,0-7,1.1-9.8,3.3l-2.4-4.2c3.7-2.8,8.3-4.2,12.9-4,8.5,0,13.3,4.1,13.3,12.7ZM1390.5,547.3v-4.4h-8.8c-5.6,0-7.2,2.2-7.2,4.9s2.6,4.9,6.9,4.9c1.9.2,3.8-.3,5.4-1.3,1.6-1,2.9-2.4,3.7-4.2Z"/>
    <path class="cls-5" d="M1402.7,553.5l2.4-4.5c3.3,2.1,7.1,3.2,11,3.2,5.3,0,7.5-1.6,7.5-4.3,0-7-19.7-.9-19.7-13.4s4.9-9.4,13-9.4c4,0,7.9.9,11.4,2.9l-2.4,4.5c-2.7-1.7-5.8-2.5-9-2.5-4.9,0-7.4,1.8-7.4,4.3,0,7.4,19.7,1.4,19.7,13.5s-5.2,9.2-13.5,9.2c-4.6.1-9-1.2-12.9-3.6Z"/>
    <path class="cls-5" d="M1432.3,553.5l2.4-4.5c3.3,2.1,7.1,3.2,11,3.2,5.2,0,7.4-1.6,7.4-4.3,0-7-19.7-.9-19.7-13.4s4.9-9.4,13-9.4c4,0,7.9.9,11.4,2.9l-2.5,4.5c-2.7-1.7-5.8-2.5-9-2.5-4.9,0-7.4,1.8-7.4,4.3,0,7.4,19.7,1.4,19.7,13.5s-5.2,9.2-13.5,9.2c-4.6.1-9-1.2-12.8-3.6Z"/>
    <path class="cls-5" d="M1512.6,525.5l-11.7,31.3h-5.2l-9-23.7-9.2,23.7h-5.5l-11.6-31.3h5.4l9.1,24.9,9.4-24.9h4.9l9.2,25,9.3-25h4.7Z"/>
    <path class="cls-5" d="M1514.5,541.2c0-3.2.8-6.4,2.6-9.1,1.8-2.7,4.3-4.9,7.2-6.1,3-1.3,6.2-1.6,9.4-1,3.2.6,6.1,2.1,8.4,4.4,2.3,2.3,3.9,5.2,4.5,8.3.7,3.2.3,6.5-.9,9.4s-3.3,5.6-6,7.4c-2.7,1.8-5.8,2.8-9.1,2.8-2.1,0-4.3-.2-6.3-1-2-.8-3.8-1.9-5.4-3.4-1.5-1.5-2.7-3.3-3.5-5.3-.8-2-1.2-4.1-1.1-6.3ZM1541.3,541.2c0-2.1-.8-4-2-5.7-1.2-1.7-2.9-2.9-4.8-3.7-1.9-.7-4-.9-6-.4-2,.5-3.8,1.5-5.3,3-1.4,1.5-2.4,3.4-2.8,5.4-.4,2-.1,4.1.7,6,.8,1.9,2.2,3.5,3.9,4.6,1.7,1.1,3.7,1.7,5.8,1.7,1.4,0,2.9-.2,4.2-.8s2.5-1.4,3.5-2.4c1-1,1.8-2.3,2.2-3.6.5-1.4.7-2.8.6-4.2Z"/>
    <path class="cls-5" d="M1571.7,525.2v5.5h-1.3c-1.4,0-2.8.1-4,.6-1.3.5-2.4,1.3-3.4,2.3-.9,1-1.7,2.2-2.1,3.5-.4,1.3-.5,2.7-.4,4.1v15.6h-5.9v-31.3h5.4v5.3c1.2-1.9,2.9-3.5,5-4.5,2.1-1,4.3-1.4,6.6-1.1Z"/>
    <path class="cls-5" d="M1607.9,513v43.8h-5.4v-4.9c-1.3,1.7-3,3.1-4.9,4-1.9.9-4.1,1.4-6.2,1.3-4.1-.2-7.9-2-10.7-5-2.8-3-4.4-6.9-4.4-11s1.6-8,4.4-11c2.8-3,6.6-4.8,10.7-5,2.1,0,4.1.3,6,1.2,1.9.9,3.6,2.1,4.9,3.8v-17.2h5.7ZM1602.3,541.2c-.1-2.1-.8-4-2-5.7-1.2-1.7-2.9-2.9-4.8-3.7-1.9-.7-4-.9-6-.4s-3.8,1.5-5.3,3c-1.4,1.5-2.4,3.4-2.7,5.4-.4,2-.1,4.1.7,6,.8,1.9,2.2,3.5,3.9,4.6,1.7,1.1,3.7,1.7,5.8,1.7,1.4,0,2.9-.2,4.2-.8,1.3-.6,2.5-1.4,3.5-2.4,1-1,1.8-2.3,2.2-3.6.5-1.3.7-2.8.6-4.2Z"/>
  </g>
  <path class="cls-15" d="M1698.1,930.7h-643.7v110.2h643.7v-110.2Z"/>
  <g class="cls-24">
    <path class="cls-5" d="M1116,967.8v31.6h-2.8l-20.3-25.6v25.6h-3.4v-31.6h2.7l20.4,25.6v-25.6h3.4Z"/>
    <path class="cls-5" d="M1146.4,988.5h-19.7c0,1.2.4,2.3.9,3.3.5,1,1.2,2,2.1,2.7.9.8,1.9,1.4,3,1.7,1.1.4,2.3.5,3.4.4,1.4,0,2.7-.2,4-.7,1.2-.5,2.4-1.3,3.3-2.4l1.8,2.1c-1.7,1.8-3.9,3-6.3,3.6-2.4.5-4.9.4-7.2-.5-2.3-.9-4.3-2.4-5.7-4.4-1.4-2-2.2-4.4-2.3-6.8,0-1.6.2-3.1.7-4.6.5-1.5,1.4-2.8,2.5-3.9,1.1-1.1,2.4-2,3.8-2.6,1.4-.6,3-.9,4.6-.9,1.6,0,3.1.3,4.6.9,1.5.6,2.8,1.5,3.8,2.6,1.1,1.1,1.9,2.5,2.5,4,.5,1.5.8,3,.7,4.6-.2.3-.2.6-.2,1ZM1126.7,986.2h16.8c0-2.2-.9-4.4-2.5-5.9-1.6-1.6-3.7-2.5-6-2.5s-4.4.9-5.9,2.5c-1.6,1.6-2.5,3.7-2.5,5.9Z"/>
    <path class="cls-5" d="M1187.2,975.7l-9,23.7h-3.1l-7.5-19.4-7.5,19.4h-3.1l-8.9-23.7h3l7.4,20.2,7.6-20.2h2.8l7.6,20.2,7.5-20.2h3.1Z"/>
    <path class="cls-5" d="M1229.3,978.6c0,6.7-4.9,10.8-12.9,10.8h-8.5v9.8h-3.3v-31.6h11.9c8,0,12.9,4.2,12.9,10.9ZM1226,978.6c0-4.9-3.3-7.9-9.8-7.9h-8.4v15.8h8.4c6.5,0,9.8-2.9,9.8-7.9Z"/>
    <path class="cls-5" d="M1253.5,984.7v14.8h-3.1v-3.7c-.9,1.3-2.1,2.4-3.5,3.1-1.4.7-3,1-4.6.8-5.4,0-8.7-2.8-8.7-6.9s2.4-6.7,9.2-6.7h7.5v-1.4c0-.9,0-1.8-.3-2.6-.3-.8-.8-1.6-1.5-2.2-.7-.6-1.4-1.1-2.3-1.3s-1.8-.3-2.6-.2c-2.9,0-5.7.9-7.9,2.8l-1.4-2.4c2.8-2.2,6.3-3.3,9.8-3.2,1.2-.2,2.5,0,3.7.4,1.2.4,2.3,1.1,3.2,1.9.9.9,1.6,1.9,2,3.1.4,1.2.6,2.4.5,3.7ZM1250.3,992.3v-3.9h-7.4c-4.6,0-6.1,1.8-6.1,4.3s2.2,4.5,6,4.5c1.6,0,3.2-.3,4.6-1.2,1.4-.9,2.4-2.2,3-3.7Z"/>
    <path class="cls-5" d="M1258.9,996.7l1.5-2.5c2.4,1.8,5.4,2.7,8.4,2.7,4.5,0,6.4-1.5,6.4-3.9,0-6.2-15.4-1.3-15.4-10.7s3.3-6.8,9.4-6.8c2.9,0,5.8.7,8.4,2.2l-1.4,2.6c-2.1-1.4-4.5-2.1-7-2-4.3,0-6.2,1.7-6.2,3.9,0,6.4,15.4,1.6,15.4,10.7s-3.6,6.8-9.8,6.8c-3.4,0-6.8-1-9.6-3Z"/>
    <path class="cls-5" d="M1281,996.7l1.4-2.5c2.5,1.7,5.4,2.7,8.5,2.7,4.5,0,6.3-1.5,6.3-3.9,0-6.2-15.4-1.3-15.4-10.7s3.3-6.8,9.4-6.8c3,0,5.9.7,8.4,2.2l-1.4,2.6c-2.1-1.4-4.5-2.1-7-2-4.3,0-6.2,1.7-6.2,3.9,0,6.4,15.4,1.6,15.4,10.7s-3.6,6.8-9.8,6.8c-3.4,0-6.8-.9-9.6-3Z"/>
    <path class="cls-5" d="M1340.8,975.7l-9,23.7h-3.1l-7.5-19.4-7.6,19.4h-3.1l-8.9-23.7h3l7.4,20.2,7.6-20.2h2.8l7.6,20.2,7.5-20.2h3.1Z"/>
    <path class="cls-5" d="M1342.5,987.5c0-2.4.7-4.7,2-6.7,1.3-2,3.2-3.5,5.4-4.4,2.2-.9,4.6-1.1,7-.7,2.3.5,4.5,1.6,6.2,3.3,1.7,1.7,2.8,3.8,3.3,6.2.5,2.3.2,4.8-.7,7-.9,2.2-2.4,4.1-4.4,5.4-2,1.3-4.3,2-6.7,2.1-1.6,0-3.2-.2-4.7-.8-1.5-.6-2.9-1.5-4-2.6-1.1-1.1-2-2.5-2.6-4-.6-1.5-.9-3.1-.8-4.7ZM1363.4,987.5c0-1.7-.7-3.4-1.7-4.8-1-1.4-2.4-2.5-4-3-1.6-.6-3.4-.7-5.1-.3-1.7.4-3.2,1.3-4.4,2.5-1.2,1.3-2,2.8-2.3,4.5-.3,1.7,0,3.4.6,5,.7,1.6,1.8,2.9,3.3,3.9,1.4.9,3.1,1.4,4.8,1.4,1.2,0,2.4-.2,3.5-.7,1.1-.5,2.1-1.2,2.9-2,.8-.9,1.5-1.9,1.9-3,.4-1.1.6-2.3.5-3.5Z"/>
    <path class="cls-5" d="M1385.2,975.5v3.1h-.8c-1.1,0-2.3.1-3.3.6-1,.4-2,1.1-2.8,1.9-.8.8-1.3,1.8-1.7,2.9-.3,1.1-.4,2.2-.3,3.3v12.1h-3.2v-23.7h3.1v4.6c.8-1.6,2.1-3,3.7-3.8,1.6-.9,3.4-1.2,5.2-1.1Z"/>
    <path class="cls-5" d="M1412.3,965.9v33.5h-3v-4.7c-1,1.6-2.3,2.8-3.9,3.7s-3.4,1.3-5.2,1.2c-3.1-.2-5.9-1.6-8.1-3.8-2.1-2.2-3.3-5.2-3.3-8.3s1.2-6,3.3-8.3c2.1-2.2,5-3.6,8.1-3.8,1.8,0,3.6.4,5.2,1.3,1.6.9,2.9,2.1,3.8,3.7v-14.3l3.2-.2ZM1409.2,987.5c0-1.7-.7-3.4-1.7-4.8s-2.4-2.4-4-3c-1.6-.6-3.4-.7-5-.3-1.7.4-3.2,1.3-4.4,2.5-1.2,1.2-2,2.8-2.3,4.5-.3,1.7,0,3.4.6,5,.7,1.6,1.8,2.9,3.2,3.9,1.4.9,3.1,1.5,4.8,1.5,1.2,0,2.4-.2,3.5-.7,1.1-.5,2.1-1.2,2.9-2,.8-.9,1.5-1.9,1.9-3,.4-1.1.6-2.3.5-3.5Z"/>
  </g>
  <path class="cls-15" d="M1698.1,681.7h-643.7v110.2h643.7v-110.2Z"/>
  <g class="cls-24">
    <path class="cls-5" d="M1086.8,734.6c-.1-3.3.8-6.6,2.5-9.4,1.8-2.8,4.3-5,7.3-6.3,3-1.3,6.4-1.7,9.6-1.2,3.2.6,6.2,2.1,8.6,4.4,2.4,2.3,4,5.2,4.7,8.5.7,3.2.4,6.6-.8,9.7-1.2,3.1-3.4,5.7-6.1,7.5-2.7,1.8-6,2.8-9.3,2.8-2.2,0-4.3-.3-6.3-1-2-.8-3.9-1.9-5.4-3.4-1.6-1.5-2.8-3.3-3.6-5.3-.8-2-1.2-4.1-1.2-6.3ZM1116.6,734.6c0-2.6-.7-5.2-2.1-7.4-1.4-2.2-3.5-3.9-5.9-5-2.4-1-5.1-1.3-7.7-.8s-5,1.7-6.8,3.6c-1.9,1.9-3.2,4.2-3.7,6.8-.5,2.6-.3,5.3.7,7.7,1,2.4,2.7,4.5,4.9,6,2.2,1.5,4.8,2.2,7.4,2.2,1.8,0,3.5-.2,5.2-.8,1.7-.6,3.2-1.6,4.4-2.8,1.3-1.2,2.2-2.7,2.9-4.3.7-1.6,1-3.4.9-5.1h-.2Z"/>
    <path class="cls-5" d="M1126.7,716.9h3.2v33.5h-3.2v-33.5Z"/>
    <path class="cls-5" d="M1160.6,716.9v33.5h-3v-4.9c-1,1.6-2.3,2.8-3.9,3.7-1.6.9-3.4,1.3-5.2,1.2-3.2,0-6.3-1.3-8.5-3.5-2.3-2.3-3.5-5.3-3.5-8.5s1.3-6.3,3.5-8.5c2.3-2.3,5.3-3.5,8.5-3.5,1.8,0,3.6.4,5.2,1.3,1.6.9,2.9,2.1,3.8,3.7v-14.3h3.2ZM1157.4,738.5c0-1.7-.7-3.4-1.7-4.8-1-1.4-2.4-2.5-4.1-3.1-1.6-.6-3.4-.7-5.1-.3-1.7.4-3.2,1.3-4.4,2.5-1.2,1.3-2,2.8-2.3,4.5-.3,1.7-.1,3.5.6,5.1.7,1.6,1.8,3,3.3,3.9,1.5,1,3.2,1.5,4.9,1.4,1.2,0,2.4-.2,3.5-.7,1.1-.5,2.1-1.2,2.9-2,.8-.9,1.5-1.9,1.9-3,.4-1.1.6-2.3.5-3.5Z"/>
    <path class="cls-5" d="M1206.7,729.6c0,6.7-4.9,10.8-12.9,10.8h-8.5v9.8h-3.3v-31.4h11.8c8,0,12.9,4,12.9,10.8ZM1203.4,729.6c0-4.9-3.3-8-9.8-8h-8.4v15.8h8.4c6.5,0,9.8-2.9,9.8-7.8Z"/>
    <path class="cls-5" d="M1231,735.7v14.8h-3.1v-3.7c-.9,1.3-2.1,2.4-3.5,3.1-1.4.7-3,1-4.6.8-5.4,0-8.7-2.8-8.7-6.9s2.4-6.7,9.1-6.7h7.6v-1.4c0-4.1-2.3-6.3-6.7-6.3-2.9,0-5.7,1-7.9,2.8l-1.4-2.4c2.8-2.2,6.3-3.4,9.8-3.2,1.2-.2,2.5,0,3.7.4,1.2.4,2.3,1.1,3.2,1.9.9.9,1.6,1.9,2.1,3.1.4,1.2.6,2.4.5,3.7ZM1227.8,743.3v-3.9h-7.6c-4.6,0-6.1,1.8-6.1,4.2s2.2,4.5,6,4.5c1.6.1,3.3-.3,4.7-1.1,1.4-.9,2.5-2.2,3.1-3.7Z"/>
    <path class="cls-5" d="M1236.4,747.8l1.4-2.6c2.5,1.8,5.4,2.7,8.5,2.7,4.5,0,6.3-1.5,6.3-3.8,0-6.2-15.4-1.3-15.4-10.7s3.3-6.7,9.4-6.7c2.9,0,5.9.7,8.4,2.2l-1.4,2.6c-2.1-1.4-4.5-2.1-7-2-4.3,0-6.2,1.6-6.2,3.9,0,6.4,15.4,1.6,15.4,10.7s-3.6,6.7-9.8,6.7c-3.4.1-6.8-.9-9.6-2.9Z"/>
    <path class="cls-5" d="M1258.4,747.8l1.5-2.6c2.4,1.8,5.4,2.7,8.4,2.7,4.5,0,6.3-1.5,6.3-3.8,0-6.2-15.4-1.3-15.4-10.7s3.4-6.7,9.4-6.7c3,0,5.9.7,8.4,2.2l-1.4,2.6c-2.1-1.4-4.5-2.1-7-2-4.3,0-6.2,1.6-6.2,3.9,0,6.4,15.4,1.6,15.4,10.7s-3.6,6.7-9.8,6.7c-3.4,0-6.8-.9-9.6-2.9Z"/>
    <path class="cls-5" d="M1318.2,726.6l-9,23.8h-3l-7.5-19.7-7.5,19.7h-3l-9-23.8h3.1l7.5,20.2,7.6-20.2h2.8l7.6,20.2,7.5-20.2h3Z"/>
    <path class="cls-5" d="M1319.9,738.5c0-2.4.7-4.7,2-6.7,1.3-2,3.2-3.5,5.4-4.5,2.2-.9,4.6-1.2,7-.7,2.3.5,4.5,1.6,6.2,3.3,1.7,1.7,2.8,3.8,3.3,6.2.5,2.3.2,4.8-.7,7-.9,2.2-2.5,4.1-4.4,5.4-2,1.3-4.3,2-6.7,2-1.6,0-3.2-.2-4.7-.8-1.5-.6-2.9-1.5-4-2.6-1.1-1.1-2-2.5-2.6-4-.6-1.5-.8-3.1-.8-4.7ZM1340.8,738.5c0-1.7-.7-3.4-1.7-4.8-1-1.4-2.4-2.5-4.1-3.1-1.6-.6-3.4-.7-5.1-.3-1.7.4-3.2,1.3-4.4,2.5-1.2,1.3-2,2.8-2.3,4.5-.3,1.7,0,3.5.6,5.1.7,1.6,1.8,3,3.3,3.9,1.4,1,3.2,1.5,4.9,1.4,1.2,0,2.4-.2,3.5-.7,1.1-.5,2.1-1.2,2.9-2,.8-.9,1.5-1.9,1.9-3,.4-1.1.6-2.3.5-3.5Z"/>
    <path class="cls-5" d="M1362.8,726.5v3.1h-.8c-1.1,0-2.3.1-3.3.6-1.1.4-2,1.1-2.8,1.9-.8.8-1.3,1.8-1.7,2.9-.3,1.1-.4,2.2-.3,3.3v12.1h-3.2v-23.8h3.1v4.7c.8-1.6,2.1-2.9,3.7-3.8,1.6-.9,3.4-1.2,5.2-1.1Z"/>
    <path class="cls-5" d="M1389.8,716.9v33.5h-3.1v-4.9c-1,1.6-2.3,2.8-3.9,3.7-1.6.9-3.4,1.3-5.3,1.2-3.2,0-6.3-1.3-8.5-3.5-2.3-2.3-3.5-5.3-3.5-8.5s1.3-6.3,3.5-8.5c2.3-2.3,5.3-3.5,8.5-3.5,1.8,0,3.6.4,5.2,1.3,1.6.9,2.9,2.1,3.9,3.6v-14.3h3.2ZM1386.7,738.5c0-1.7-.7-3.4-1.7-4.8-1-1.4-2.4-2.5-4.1-3.1s-3.4-.7-5.1-.3c-1.7.4-3.2,1.3-4.4,2.5-1.2,1.3-2,2.8-2.3,4.5-.3,1.7,0,3.5.6,5.1.7,1.6,1.8,3,3.3,3.9,1.5,1,3.2,1.5,4.9,1.4,1.2,0,2.4-.2,3.5-.7,1.1-.5,2.1-1.2,2.9-2,.8-.9,1.5-1.9,1.9-3,.4-1.1.6-2.3.5-3.5Z"/>
  </g>
  <path class="cls-2" d="M1960.9,1580.2s-30.4,4-43.4,0c-13-4-8.1-63-21.3-64.2-30.6-2.8-25.3,75.5-12.4,91.9,13,16.5,79.9,9.5,79.9,9.5l-2.8-37.2Z"/>
  <path class="cls-6" d="M1960.9,1580.2s-30.4,4-43.4,0c-13-4-8.1-63-21.3-64.2-30.6-2.8-25.3,75.5-12.4,91.9,13,16.5,79.9,9.5,79.9,9.5l-2.8-37.2Z"/>
  <path class="cls-2" d="M1963.4,1719.1s-45-399.7,8.7-404.3c53.7-4.6,66.7,136.3,46,399.2l-54.7,5.1Z"/>
  <path class="cls-16" d="M1963.4,1719.1s-45-399.7,8.7-404.3c53.7-4.6,66.7,136.3,46,399.2l-54.7,5.1Z"/>
  <path class="cls-5" d="M1900.3,1670.7h176.8l-14.8,113.1h-147.3l-14.8-113.1Z"/>
  <path class="cls-2" d="M2016.8,1445.8s49.2,2.6,50.4,0,1.5-59,22.2-55.8c20.8,3.2,11.7,71.4,0,79.4-11.7,7.9-72.7,12.2-72.7,12.2,0,0-8.2-25.2,0-35.7Z"/>
  <path class="cls-18" d="M2016.8,1445.8s49.2,2.6,50.4,0,1.5-59,22.2-55.8c20.8,3.2,11.7,71.4,0,79.4-11.7,7.9-72.7,12.2-72.7,12.2,0,0-8.2-25.2,0-35.7Z"/>
  <path class="cls-2" d="M1985.8,1682.6c-10.9-106.6-22.7-213.8-20-321.1.8-8.2,1.3-48.5,15-42.3,1.8,1.5,3.1,3.4,3.9,5.5,4.2,12.9,6.8,26.3,7.9,39.9,10.3,106.9,9.5,214.4,9,321.6-2-107.1-2.2-214.6-12.6-321.2-1.4-13-9.2-70.3-17.3-26-2.6,22.7-3.6,45.6-2.9,68.5,1.8,91.9,9.2,183.5,17,275.1Z"/>
  <path class="cls-2" d="M2023,1459.2c14.4-1.4,39.9-2.3,52.2-5.5,0-16.9,5.9-39.8,12-57.8-1.7,8-3.4,19.7-4.9,28.1-1.9,10.1-3.1,20.4-3.5,30.7-.8,2.4-3.8,2.9-5.7,3.3-16.7,2.2-33.5,2.6-50.2,1.1h.1Z"/>
  <path class="cls-2" d="M2023,1472.3c20.5-3.8,43.4-5.3,63.5-10.1,5.2-8.3,4.9-19.9,6.4-29.5,1.2-10.7,2.1-21.5,3.1-32.3.6,10.8.6,21.7,0,32.5-.2,9.7-1.7,19.3-4.4,28.5-.6,1.8-1.7,3.2-3.3,4.2-21.5,4.2-43.3,6.4-65.1,6.6h-.1Z"/>
  <path class="cls-2" d="M1945.8,1591.2c-14.2.3-28.8,1-42.6-3.7-3.4-3-5.5-7.1-6-11.6-1.8-8.9-2.6-18-2.7-27.2-.2-9.1.1-18.1.9-27.1.7,9,1.2,18,2,27,.6,8.9,1.7,17.7,3.4,26.5,1,4,2,9.1,5.3,9.8,12.9,3.2,26.1,5.4,39.4,6.4h.2Z"/>
  <path class="cls-2" d="M1886.4,1528.7l3.2,31.4c2,13.7,1.6,28.7,7.1,41.4.9.6,1.8,1.2,2.8,1.6,14.8,4.9,30.8,5.3,46.2,7.1-10.6.5-21.2.3-31.7-.6-7.3-1.2-19.7-1-22.2-9.8-6.1-23.2-5.8-47.4-5.5-71.2v.2Z"/>
  <path class="cls-5" d="M1776.1,416.1c15.3-26.7,40.7-46.3,70.4-54.4,29.8-8.1,61.5-4,88.2,11.3l-4.9,8.3,33-9-8.9-33-4.9,8.3c-29.9-17.1-64.8-23.1-98.7-16.8-33.8,6.2-64.4,24.3-86.2,50.9-21.8,26.6-33.4,60.2-32.8,94.6.6,34.4,13.4,67.5,36.1,93.4l21.9-19.2c-15.9-18.2-25.8-41-28.1-65.1-2.4-24.1,2.9-48.3,15-69.3Z"/>
  <path class="cls-5" d="M1987.7,379.8l-22.1,18.7c17.7,20.9,27.5,47.3,27.6,74.7s-9.4,53.9-26.9,74.9c-17.5,21-41.8,35.2-68.8,40.1-26.9,4.8-54.7,0-78.4-13.6l4.9-8.3-33.1,9.3,8.9,33,4.9-8.3c29.7,16.9,64.4,22.8,98.1,16.7,33.6-6.1,64-23.9,85.8-50.2,21.8-26.3,33.7-59.5,33.5-93.7-.2-34.2-12.4-67.2-34.5-93.3Z"/>
  <g class="cls-20">
    <path class="cls-15" d="M1776.1,416.1c15.3-26.7,40.7-46.3,70.4-54.4,29.8-8.1,61.5-4,88.2,11.3l-4.9,8.3,33-9-8.9-33-4.9,8.3c-29.9-17.1-64.8-23.1-98.7-16.8-33.8,6.2-64.4,24.3-86.2,50.9-21.8,26.6-33.4,60.2-32.8,94.6.6,34.4,13.4,67.5,36.1,93.4l21.9-19.2c-15.9-18.2-25.8-41-28.1-65.1-2.4-24.1,2.9-48.3,15-69.3Z"/>
    <path class="cls-15" d="M1987.7,379.8l-22.1,18.7c17.7,20.9,27.5,47.3,27.6,74.7.1,27.4-9.4,53.9-26.9,74.9-17.5,21-41.8,35.2-68.8,40.1-26.9,4.8-54.7,0-78.4-13.6l4.9-8.3-33.1,9.3,8.9,33,4.9-8.3c29.7,16.9,64.4,22.8,98.1,16.7,33.6-6.1,64-23.9,85.8-50.2,21.8-26.3,33.7-59.5,33.5-93.7-.2-34.2-12.4-67.2-34.5-93.3Z"/>
  </g>
  <path class="cls-5" d="M1855.9,336h-32.1v-98.4c0-18.1-7.2-35.5-20-48.3-12.8-12.8-30.2-20-48.3-20s-35.4,7.2-48.2,20c-12.8,12.8-20,30.2-20,48.3v98.4h-32.1v-98.4c0-26.6,10.6-52.1,29.4-70.9,18.8-18.8,44.3-29.4,70.9-29.4s52.1,10.6,70.9,29.4c18.8,18.8,29.4,44.3,29.4,70.9v98.4Z"/>
  <g class="cls-23">
    <path class="cls-15" d="M1855.9,336h-32.1v-98.4c0-18.1-7.2-35.5-20-48.3-12.8-12.8-30.2-20-48.3-20s-35.4,7.2-48.2,20c-12.8,12.8-20,30.2-20,48.3v98.4h-32.1v-98.4c0-26.6,10.6-52.1,29.4-70.9,18.8-18.8,44.3-29.4,70.9-29.4s52.1,10.6,70.9,29.4c18.8,18.8,29.4,44.3,29.4,70.9v98.4Z"/>
  </g>
  <path class="cls-2" d="M1892.7,310.9v161c0,2.5-.5,4.9-1.4,7.2-.9,2.3-2.3,4.3-4.1,6.1-1.7,1.7-3.8,3.1-6.1,4.1-2.3.9-4.7,1.4-7.2,1.4h-236.8c-2.4,0-4.9-.5-7.1-1.4-2.3-.9-4.3-2.3-6-4.1s-3.1-3.8-4-6.1c-.9-2.3-1.4-4.7-1.4-7.1v-161c0-2.4.5-4.9,1.4-7.1.9-2.3,2.3-4.3,4-6.1s3.8-3.1,6-4.1c2.3-.9,4.7-1.4,7.1-1.4h236.8c3.1,0,6.2.8,8.8,2.3,3,1.6,5.5,4,7.2,6.8,1.7,2.9,2.6,6.2,2.6,9.6Z"/>
  <path class="cls-6" d="M1882.8,294.5v157.8c0,2.5-.5,4.9-1.4,7.1-.9,2.3-2.3,4.3-4.1,6.1-1.7,1.7-3.8,3.1-6.1,4-2.3.9-4.7,1.4-7.2,1.4h-236.8c-3.1,0-6.1-.8-8.8-2.2v-157.8c0-2.4.5-4.9,1.4-7.1.9-2.3,2.3-4.3,4-6.1s3.8-3.1,6-4.1c2.3-.9,4.7-1.4,7.1-1.4h236.8c3.1,0,6.2.8,8.8,2.3Z"/>
  <path class="cls-12" d="M1790.9,371.3c0-6.4-1.9-12.7-5.3-18.1-3.4-5.5-8.2-9.9-13.9-12.8-5.7-2.9-12.1-4.2-18.5-3.8-6.4.5-12.6,2.7-17.8,6.4-5.2,3.7-9.4,8.8-12,14.6-2.6,5.9-3.5,12.4-2.7,18.7.8,6.4,3.4,12.4,7.4,17.4,4,5,9.3,8.9,15.3,11.1l-1.6,42.9h28.2l-4.2-42.1c7.3-2.3,13.7-6.8,18.3-13,4.5-6.2,7-13.7,6.9-21.4Z"/>
  <path class="cls-2" d="M626.7,416.1l16.3,52.5,16.3-52.5h-32.6Z"/>
  <path class="cls-2" d="M776.5,290.7h-267.1c-23.3,0-42.3,18.9-42.3,42.3v56.9c0,23.3,18.9,42.3,42.3,42.3h267.1c23.3,0,42.3-18.9,42.3-42.3v-56.9c0-23.3-18.9-42.3-42.3-42.3Z"/>
  <path class="cls-15" d="M549.8,361.3l9.2,5.2-2.4,4.2-9.4-5.5v10.6h-4.9v-10.6l-9.4,5.5-2.4-4.2,9.3-5.2-9.3-4.9,2.4-4.3,9.4,5.5v-10.7h4.9v10.5l9.4-5.5,2.4,4.3-9.2,5.2Z"/>
  <path class="cls-15" d="M582.5,361.3l9.2,5.2-2.4,4.2-9.4-5.5v10.6h-4.6v-10.6l-9.5,5.5-2.4-4.2,9.3-5.2-9.3-4.9,2.4-4.3,9.4,5.5v-10.7h4.6v10.5l9.4-5.5,2.4,4.3-9.2,5.2Z"/>
  <path class="cls-15" d="M615,361.3l9.2,5.2-2.4,4.2-9.4-5.5v10.6h-4.9v-10.6l-9.4,5.5-2.4-4.2,9.3-5.2-9.3-4.9,2.4-4.3,9.4,5.5v-10.5h4.9v10.5l9.4-5.5,2.4,4.3-9.2,4.9Z"/>
  <path class="cls-15" d="M647.8,361.3l9.2,5.2-2.4,4.2-9.4-5.5v10.6h-4.7v-10.6l-9.4,5.5-2.4-4.2,9.3-5.2-9.3-4.9,2.4-4.3,9.4,5.5v-10.5h4.7v10.5l9.4-5.5,2.4,4.3-9.2,4.9Z"/>
  <path class="cls-15" d="M680.5,361.3l9.2,5.2-2.4,4.2-9.4-5.5v10.6h-4.9v-10.6l-8.8,5.5-2.5-4.2,9.3-5.2-9.3-4.9,2.5-4.3,9.4,5.5v-10.5h4.9v10.5l9.4-5.5,2.4,4.3-9.9,4.9Z"/>
  <path class="cls-15" d="M713.1,361.3l9.3,5.2-2.4,4.2-9.4-5.5v10.6h-4.7v-10.6l-9.4,5.5-2.4-4.2,9.3-5.2-9.3-4.9,2.4-4.3,9.4,5.5v-10.5h4.7v10.5l9.4-5.5,2.4,4.3-9.3,4.9Z"/>
  <path class="cls-15" d="M745.8,361.3l9.2,5.2-2.4,4.2-9.4-5.5v10.6h-4.9v-10.6l-9.4,5.5-2.4-4.2,9.3-5.2-9.3-4.9,2.4-4.3,9.4,5.5v-10.7h4.9v10.5l9.4-5.5,2.4,4.3-9.2,5.2Z"/>
  <path class="cls-19" d="M856.4,782.6l30-19.4-33.8-20.8s-25.7,18.9-15.4,31.8l19.2,8.4Z"/>
  <path class="cls-19" d="M901.8,731.3l-35.1-8-14.1,19.1,33.8,20.8,15.4-31.9Z"/>
  <path class="cls-19" d="M733.1,719.5c19,28.7,38,63.7,64,86.1.5.4.3,0-1.6,0-1,.2-.5.7,1.5,0,5.9-3.4,11.1-7.8,15.3-13.2,9.6-11.7,18.2-24.2,25.6-37.3.3-.5,0,0,0,.6-.1.9-.1,1.8,0,2.7.4.4-1.1-.8,1.9,5.9,1.4,2.2,3.5,3.8,5.9,4.8,2.4,1,5,1.2,7.6.7,1.6-.3,3.2-1,4.5-2,1.3-1,2.5-2.2,3.3-3.7-.8.9-1.5,1.9-2.1,2.9l-22-9.4c.5-3.1,1.8-6.1,3.7-8.6,1.8-2,4.1-3.4,6.7-4,2.6-.5,5.2-.2,7.6.8,2.4,1,4.5,2.7,5.9,4.8,3.1,6.8,1.5,5.5,2,6,0,1.6,0,3.1-.4,4.7-7.7,32.8-27.9,86.9-69.7,87.2-29.5-2.7-51.9-35.1-68.5-55.6-11.8-15.8-22.6-32.2-32.5-49.2l41.1-24.1h.2Z"/>
  <path class="cls-2" d="M717.9,698c19.7,6.5,59.6,97.2,59.6,97.2l-67.8,32.2s-13.8-71.2-11.1-94.2c1.7-13.7,8.6-26.3,19.3-35.1Z"/>
  <path class="cls-10" d="M717.9,698c19.7,6.5,59.6,97.2,59.6,97.2l-67.8,32.2s-13.8-71.2-11.1-94.2c1.7-13.7,8.6-26.3,19.3-35.1Z"/>
  <path class="cls-19" d="M797.6,1749.2l-34.5,9.8-8.2-53.8-4.4-28.7,34.5-9.8,5.9,38.5,6.7,44Z"/>
  <path class="cls-19" d="M599.1,1752l-35.6,4.7-.3-51.5-.2-32,35.7-4.6.2,36.7.3,46.8Z"/>
  <path class="cls-17" d="M598.5,1668.6l.2,36.7h-35.7l-.2-32,35.7-4.6Z"/>
  <path class="cls-17" d="M790.9,1705.2h-36l-4.4-28.7,34.5-9.8,5.9,38.5Z"/>
  <path class="cls-5" d="M797,1743.8l-39.4-1c-.7,0-1.4.2-2,.6-.6.4-1,1-1.2,1.7l-8.2,31.6c-.3.8-.3,1.6-.2,2.4.1.8.5,1.5.9,2.2.5.6,1.1,1.2,1.8,1.5s1.5.5,2.3.4c14.2,0,34.4,0,52.4.4,20.8.6,34-.4,58.5,0,14.8.4,19.3-14.3,13.2-15.8-27.9-6.9-46.1-5.5-69.9-21.1-2.5-1.7-5.4-2.7-8.4-2.9Z"/>
  <path class="cls-2" d="M800,1748.2c0-.2,0-.4,0-.5,0-.2.2-.3.4-.4,1.7-.8,16.4-7.7,20.7-5.2.4.2.7.6,1,1,.2.4.4.9.4,1.3,0,.8,0,1.5-.4,2.3-.3.7-.8,1.3-1.4,1.8-4,3.3-14.3,1.7-20,.3-.2,0-.3-.1-.4-.2-.1-.1-.2-.3-.2-.4ZM803.5,1747.8c7.9,1.5,13.8,1.3,16.1-.6.4-.3.7-.7.9-1.2.2-.5.3-1,.2-1.5,0-.2,0-.4-.1-.5,0-.2-.2-.3-.4-.4h-.3c-2.7-1.1-10.6,1.6-16.4,4.2Z"/>
  <path class="cls-2" d="M800.3,1748.7c-.1,0-.2-.2-.3-.3,0-.1,0-.3,0-.4.5-5.1,2.6-9.8,6.1-13.6.7-.6,1.5-1,2.3-1.2.8-.2,1.7-.3,2.6-.1,2.3.3,3,1.5,3.1,2.5.5,4-8.4,11.6-12.8,13.4-.2,0-.4,0-.6,0l-.4-.2ZM810.6,1734.7c-.6,0-1.2,0-1.8.1-.6.2-1.2.5-1.6.9-2.7,3-4.4,6.8-4.9,10.9,4.5-2.5,10.6-8.4,10.2-10.9,0,0,0-.6-.7-.8l-1.1-.2Z"/>
  <path class="cls-5" d="M597.6,1743.8l-39.4-1c-.7,0-1.4.2-2,.6-.6.4-1,1-1.2,1.7l-8.3,31.6c-.2.8-.2,1.6,0,2.3.2.8.5,1.5,1,2.1.5.6,1.1,1.1,1.8,1.5.7.3,1.5.5,2.3.5,14.1,0,34.4,0,52.4.4,20.8.6,34-.4,58.4,0,14.8.4,19.4-14.3,13.2-15.8-27.8-6.9-46.1-5.5-69.8-21.1-2.5-1.7-5.4-2.7-8.4-2.9Z"/>
  <path class="cls-2" d="M600.2,1748.2c0-.2,0-.4,0-.5,0-.2.2-.3.4-.4,1.7-.8,16.3-7.7,20.6-5.2.4.2.7.6,1,1,.2.4.4.9.4,1.3,0,.8,0,1.5-.4,2.2-.3.7-.8,1.3-1.3,1.8-4.1,3.3-14.3,1.7-20.1.3-.2,0-.3-.1-.4-.2s-.2-.3-.2-.4ZM603.8,1747.8c7.9,1.5,13.8,1.3,16.1-.6.4-.3.7-.7.9-1.2.2-.5.3-1,.2-1.5,0-.2,0-.4-.1-.5,0-.2-.2-.3-.4-.4h-.3c-2.5-1.1-10.4,1.6-16.2,4.2h-.2Z"/>
  <path class="cls-2" d="M600.8,1748.7c-.1,0-.2-.2-.3-.3,0-.1,0-.3,0-.4.5-5.1,2.7-9.8,6.1-13.6.7-.6,1.5-1,2.3-1.2.8-.2,1.7-.3,2.6-.1,2.3.3,3,1.5,3,2.5.5,4-8.4,11.6-12.7,13.4-.2,0-.4,0-.6,0l-.3-.2ZM611.1,1734.7c-.6,0-1.2,0-1.8.1-.6.2-1.2.5-1.6.9-2.7,3-4.4,6.8-4.9,10.9,4.5-2.5,10.6-8.4,10.3-10.9,0-.2-.1-.4-.3-.5-.1-.1-.3-.2-.5-.3-.3-.1-.7-.2-1.1-.2Z"/>
  <path class="cls-5" d="M525.6,969.2c-18.9,81.8,13.5,725.2,13.5,725.2h62.6l26.8-536.3,98.4,536.3,66.9-4.9c-43.7-415.3-82.4-663.3-82.4-663.3v-31.3l-185.8-25.6Z"/>
  <path class="cls-6" d="M793.8,1689.4l-66.9,4.9-77.5-422.1-21-114.1-26.8,536.3h-62.6s-32.4-643.5-13.5-725.1l186,25.6v31.3s38.5,248.1,82.3,663.2Z"/>
  <path class="cls-2" d="M521.5,692.7c6.6,38.6,10.2,77.6,11,116.8.6,27.3,0,53.3-.9,76.8-2.5,55.2-7.8,96.9-7.5,111.2l187.7,3.4c44.8-196.3,6.3-302.9,6.3-302.9-14.6-4-29.3-7.2-44.3-9.4-3.3-.4-6.6-.8-9.8-1.2-26.5-2-53.2-2.5-79.8-1.5-4.9,0-10.2.4-15.2.8-25.1,2.1-47.5,6-47.5,6Z"/>
  <path class="cls-19" d="M670.1,693.7s-11.2,16.2-20.1,17.3c-12.7,1.7-59-26.7-59-26.7,10.7-7.9,16-25.2,18.3-43.4,1.7-14.8,2-29.8.9-44.6l43.3,47.1c-5.7,14.8-9.1,30.5,2.1,41.6,4.1,3.9,9.1,6.9,14.5,8.7Z"/>
  <path class="cls-17" d="M655.5,684.9c-19.1-10.4-35.1-25.7-46.4-44.3,1.7-14.8,2-29.8.9-44.6l43.3,47.1c-5.7,14.9-8.9,30.9,2.1,41.8Z"/>
  <path class="cls-5" d="M703.6,553.8c3.7,13.6,0,41.3-18.3,31.4-18.3-9.8,12.2-55,18.3-31.4Z"/>
  <path class="cls-19" d="M605.8,567.8c-3.6,34.4-7.4,54.6,7,74.9,21.7,30.5,66.8,21.4,80.6-11.5,12.5-29.5,16.2-81.2-15.1-100.1-7-4.2-14.9-6.5-23-6.8-8.1-.3-16.2,1.5-23.4,5.1-7.2,3.7-13.4,9.1-18,15.8-4.6,6.7-7.4,14.5-8.1,22.5Z"/>
  <path class="cls-5" d="M630.8,550l1.7-38.7s-41.1-4.9-40.2,16.3c-23.3,10.3-14.1,46.3,15.8,65,17.4-12.7,16.9-45.2,16.9-45.2,1.8.9,3.7,1.7,5.8,2.6Z"/>
  <path class="cls-19" d="M587.8,594.1c.6,4.3,2.1,8.4,4.3,12.1,2.2,3.7,5.2,6.9,8.7,9.5,9.3,6.8,18.2-.7,18.9-11.6.7-9.8-3.2-25.2-14.3-27.7-2.4-.5-4.9-.3-7.3.4-2.4.7-4.5,2-6.3,3.8-1.7,1.8-3,3.9-3.7,6.3-.7,2.4-.8,4.9-.3,7.3Z"/>
  <path class="cls-5" d="M656.3,585.5c-.5,2.8.6,5.3,2.5,5.6,1.8.3,3.7-1.7,4.1-4.5.4-2.8-.6-5.3-2.5-5.6-1.8-.3-3.7,1.7-4.1,4.5Z"/>
  <path class="cls-5" d="M687.9,590.4c-.4,2.8.7,5.3,2.5,5.6,1.8.2,3.7-1.7,4.1-4.5.4-2.8-.6-5.3-2.5-5.6-1.8-.3-3.7,1.8-4.2,4.5Z"/>
  <path class="cls-14" d="M677.6,590.4c2.1,8.8,5.4,17.2,9.8,25.1-2.2,1-4.5,1.5-6.8,1.5s-4.7-.5-6.8-1.5l3.8-25.1Z"/>
  <path class="cls-5" d="M657,623.9c1.2.4,2.4.6,3.6.8.2,0,.4,0,.6-.2.2-.1.3-.3.3-.5,0-.1,0-.2,0-.3,0-.1,0-.2-.1-.3,0,0-.1-.2-.2-.2,0,0-.2,0-.3-.1-3.5-.5-6.8-1.7-9.7-3.7-2.9-2-5.3-4.6-7-7.7,0-.1,0-.2-.2-.3,0,0-.2-.1-.3-.2-.1,0-.2,0-.3,0-.1,0-.2,0-.3,0-.2,0-.4.2-.4.5,0,.2,0,.4,0,.6,1.5,2.8,3.5,5.3,6,7.3,2.5,2,5.3,3.5,8.4,4.3Z"/>
  <path class="cls-5" d="M648.2,573.8c.3,0,.6.1.9,0,.3,0,.5-.2.8-.4,1.5-1.5,3.3-2.6,5.3-3.3,2-.7,4.1-.9,6.2-.6.2,0,.4,0,.6,0,.2,0,.4-.1.6-.2.2-.1.3-.3.5-.4.1-.2.2-.4.3-.6,0-.2,0-.4,0-.6,0-.2-.1-.4-.2-.6-.1-.2-.3-.3-.4-.5-.2-.1-.4-.2-.6-.3-2.6-.4-5.3-.2-7.8.6-2.5.8-4.8,2.2-6.7,4.1-.3.3-.5.7-.5,1.2s.2.9.5,1.2c.2.2.4.3.6.4Z"/>
  <path class="cls-5" d="M703.6,581.7c.3,0,.6,0,.9,0,.4-.1.8-.4,1-.8.2-.4.3-.8.1-1.3-.7-2.5-2-4.9-3.8-6.8-1.8-1.9-4-3.4-6.5-4.3-.4-.1-.9,0-1.3.2-.4.2-.7.6-.8,1-.1.4,0,.9.1,1.3.2.4.6.7,1,.8,2,.7,3.7,1.9,5.1,3.4,1.4,1.5,2.4,3.4,2.9,5.4,0,.3.2.5.4.7.2.2.4.3.7.4Z"/>
  <path class="cls-5" d="M592.4,527.6s-21.3-21.1,50.9-19.2c72.1,1.9,84.1,42.4,51.1,51.8l-1.5-6.6c-5.7,2.9-11.9,4.6-18.3,4.9-6.4.3-12.8-.7-18.7-3.1l5.2-3.2s-49.2,5-68.7-24.6Z"/>
  <path class="cls-2" d="M649.9,710.9s-9.2,10.6-19.7,21.1c-15.3-7.7-51.1-28.4-49.2-47.6,2.1-5.6,16.7-9.1,16.7-9.1,0,0,15.4,20.6,52.2,35.6Z"/>
  <path class="cls-2" d="M649.9,710.9c7.5,6.1,14.2,13.2,19.7,21.1,11.3-7.3,5.6-42.9,1.5-46.8-6-3.3-12.6-4.9-19.4-4.9,2.2,4.9,3.2,10.2,2.9,15.5-.3,5.3-1.9,10.5-4.7,15.1Z"/>
  <g class="cls-22">
    <path class="cls-15" d="M649.9,710.9s-9.2,10.6-19.7,21.1c-15.3-7.7-51.1-28.4-49.2-47.6,2.1-5.6,16.7-9.1,16.7-9.1,0,0,15.4,20.6,52.2,35.6Z"/>
    <path class="cls-15" d="M649.9,710.9c7.5,6.1,14.2,13.2,19.7,21.1,11.3-7.3,5.6-42.9,1.5-46.8-6-3.3-12.6-4.9-19.4-4.9,2.2,4.9,3.2,10.2,2.9,15.5-.3,5.3-1.9,10.5-4.7,15.1Z"/>
  </g>
  <path class="cls-17" d="M649.4,1272.2l-21-114.1,4-60.4s28.7,104.7,16.9,174.5Z"/>
  <path class="cls-19" d="M541.2,744.8c-18.2,30.4-46.4,73.8-61.8,104.6-8.2,17.5-10.8,36.2-15.3,55-4.3,20.1-8.6,40.6-13.3,60.9l-23.5-2.1c-.8-21.3-.6-42.4.6-63.7,1.6-22.2,2.8-46.1,11.2-67.2,16.6-40.5,38.5-76.7,62-113.2l40.1,25.7h0Z"/>
  <path class="cls-2" d="M521.5,692.7c-26.4,6.8-73.8,101.8-73.8,101.8l56.1,36.4,50.6-49.2c2.9-17.8,1.8-36-3.2-53.4-8.2-29.6-29.8-35.6-29.8-35.6Z"/>
  <path class="cls-10" d="M521.5,692.7c-26.4,6.8-73.8,101.8-73.8,101.8l56.1,36.4,50.6-49.2c2.9-17.8,1.8-36-3.2-53.4-8.2-29.6-29.8-35.6-29.8-35.6Z"/>
  <path class="cls-5" d="M541.4,985.4l390-413.6c2.1-2.2,4.6-4,7.4-5.3,2.8-1.3,5.8-1.9,8.9-2,3.1,0,6.1.4,9,1.5,2.9,1.1,5.5,2.7,7.7,4.8l9.4,8.9c4.5,4.2,7.1,10.1,7.3,16.3.2,6.2-2.1,12.2-6.3,16.7l-390,413.6-43.3-40.9Z"/>
  <path class="cls-9" d="M541.4,985.4l390-413.6c2.1-2.2,4.6-4,7.4-5.3,2.8-1.3,5.8-1.9,8.9-2,3.1,0,6.1.4,9,1.5,2.9,1.1,5.5,2.7,7.7,4.8l9.4,8.9c4.5,4.2,7.1,10.1,7.3,16.3.2,6.2-2.1,12.2-6.3,16.7l-390,413.6-43.3-40.9Z"/>
  <path class="cls-17" d="M967.3,573.6l6.5,6.2c2.2,2.1,4,4.6,5.3,7.4,1.3,2.8,1.9,5.8,2,8.9,0,3.1-.4,6.1-1.5,9s-2.7,5.5-4.8,7.7l-390,413.6-6.5-6.2,390-413.6c2.1-2.2,3.7-4.8,4.8-7.7,1.1-2.9,1.6-5.9,1.5-9,0-3.1-.8-6.1-2.1-8.9-1.3-2.8-3.1-5.3-5.3-7.4Z"/>
  <path class="cls-5" d="M842.8,733.8l72.3,68.2,9.4-10-9.3-8.8,14.9-15.8-5.5-5.2,22.3-23.7,5.5,5.2,14-14.8,9.3,8.9,9.7-10.3-5.5-5.2,14-14.9-11-10.3,9.2-9.7,16.5,15.5,16.7-17.7-72.3-68.2-110.2,116.8Z"/>
  <path class="cls-9" d="M842.8,733.8l72.3,68.2,9.4-10-9.3-8.8,14.9-15.8-5.5-5.2,22.3-23.7,5.5,5.2,14-14.8,9.3,8.9,9.7-10.3-5.5-5.2,14-14.9-11-10.3,9.2-9.7,16.5,15.5,16.7-17.7-72.3-68.2-110.2,116.8Z"/>
  <g class="cls-21">
    <path class="cls-4" d="M918,785.9l-9.4,10,6.5,6.1,9.4-10-6.5-6.1Z"/>
    <path class="cls-4" d="M952.4,743.7l-5.5-5.2-22.3,23.7,5.5,5.2-14.9,15.8-6.5-6.2,14.9-15.8-5.5-5.2,22.3-23.7,5.5,5.2,13.9-14.8,6.5,6.2-14,14.8Z"/>
    <path class="cls-4" d="M973.4,716.1l14-14.8,6.5,6.2-14,14.9,5.5,5.2-9.7,10.3-6.5-6.2,9.7-10.3-5.5-5.2Z"/>
    <path class="cls-4" d="M985.5,681.2l-9.1,9.7,6.5,6.1,9.1-9.7-6.5-6.1Z"/>
    <path class="cls-4" d="M1018.8,679l-16.7,17.8,6.5,6.1,16.7-17.8-6.5-6.1Z"/>
  </g>
  <path class="cls-5" d="M921.1,575.2l-119.6,126.8c-2,2.1-1.9,5.4.2,7.4l43.4,40.9c2.1,2,5.4,1.9,7.4-.2l119.6-126.8c2-2.1,1.9-5.4-.2-7.4l-43.4-40.9c-2.1-2-5.4-1.9-7.4.2Z"/>
  <path class="cls-5" d="M587.1,1160c-9.1,9.6-20,17.4-32,22.8-12.1,5.4-25.1,8.4-38.3,8.8-13.2.4-26.4-1.8-38.8-6.5-12.4-4.7-23.7-11.8-33.3-20.9l-32.7-30.8c-9.6-9.1-17.4-19.9-22.8-32-5.4-12.1-8.4-25.1-8.8-38.3-.4-13.2,1.8-26.4,6.5-38.8,4.7-12.4,11.8-23.7,20.9-33.3,9.1-9.7,20-17.4,32.1-22.9,12.1-5.4,25.1-8.4,38.4-8.8,13.3-.4,26.5,1.8,38.8,6.6,12.4,4.7,23.7,11.8,33.4,21l32.6,30.8c9.6,9.1,17.3,20,22.7,32.1,5.4,12.1,8.4,25.1,8.7,38.3.4,13.2-1.9,26.4-6.6,38.7-4.7,12.4-11.8,23.7-20.9,33.3Z"/>
  <path class="cls-15" d="M549.5,1124.6c-4.5,4.8-9.9,8.7-15.9,11.4-6,2.7-12.5,4.2-19.1,4.4-6.6.2-13.1-.9-19.3-3.2-6.2-2.3-11.8-5.9-16.6-10.4l-30.9-29.5c-4.8-4.5-8.6-9.9-11.3-16-2.7-6-4.2-12.5-4.4-19.1-.2-6.6.9-13.1,3.3-19.3,2.3-6.2,5.9-11.8,10.4-16.6,4.5-4.8,9.9-8.7,15.9-11.4,6-2.7,12.5-4.2,19.1-4.4s13.1.9,19.3,3.3c6.2,2.3,11.8,5.9,16.6,10.4l31.2,29.5c9.6,9.2,15.2,21.8,15.6,35,.3,13.3-4.6,26.2-13.8,35.8Z"/>
  <path class="cls-8" d="M921.1,575.2l-119.6,126.8c-2,2.1-1.9,5.4.2,7.4l43.4,40.9c2.1,2,5.4,1.9,7.4-.2l119.6-126.8c2-2.1,1.9-5.4-.2-7.4l-43.4-40.9c-2.1-2-5.4-1.9-7.4.2Z"/>
  <g class="cls-22">
    <path class="cls-15" d="M587.1,1160c-9.1,9.6-20,17.4-32,22.8-12.1,5.4-25.1,8.4-38.3,8.8-13.2.4-26.4-1.8-38.8-6.5-12.4-4.7-23.7-11.8-33.3-20.9l-32.7-30.8c-9.6-9.1-17.4-19.9-22.8-32-5.4-12.1-8.4-25.1-8.8-38.3-.4-13.2,1.8-26.4,6.5-38.8,4.7-12.4,11.8-23.7,20.9-33.3,9.1-9.7,20-17.4,32.1-22.9,12.1-5.4,25.1-8.4,38.4-8.8,13.3-.4,26.5,1.8,38.8,6.6,12.4,4.7,23.7,11.8,33.4,21l32.6,30.8c9.6,9.1,17.3,20,22.7,32.1,5.4,12.1,8.4,25.1,8.7,38.3.4,13.2-1.9,26.4-6.6,38.7-4.7,12.4-11.8,23.7-20.9,33.3Z"/>
    <path class="cls-15" d="M549.5,1124.6c-4.5,4.8-9.9,8.7-15.9,11.4-6,2.7-12.5,4.2-19.1,4.4-6.6.2-13.1-.9-19.3-3.2-6.2-2.3-11.8-5.9-16.6-10.4l-30.9-29.5c-4.8-4.5-8.6-9.9-11.3-15.9-2.7-6-4.2-12.5-4.4-19.1-.2-6.6.9-13.1,3.3-19.3,2.3-6.2,5.9-11.8,10.4-16.6,4.5-4.8,9.9-8.7,15.9-11.4,6-2.7,12.5-4.2,19.1-4.4,6.6-.2,13.1.9,19.3,3.3,6.2,2.3,11.8,5.9,16.6,10.4l31.2,29.5c9.6,9.2,15.2,21.8,15.6,35,.3,13.3-4.6,26.2-13.8,35.8Z"/>
  </g>
  <path class="cls-17" d="M958.8,603.6l13.1,12.3c.5.5.9,1.1,1.1,1.7.3.6.4,1.3.4,2s-.1,1.4-.4,2c-.3.6-.7,1.2-1.1,1.7l-119.6,126.7c-.5.5-1.1.9-1.7,1.1-.6.3-1.3.4-2,.4s-1.4-.1-2-.4c-.6-.3-1.2-.7-1.7-1.1l-13-12.3c1,1,2.3,1.5,3.7,1.5s2.7-.5,3.7-1.5l119.6-126.8c.5-.5.9-1.1,1.1-1.7.3-.6.4-1.3.4-2s-.1-1.4-.4-2c-.3-.6-.7-1.2-1.1-1.7Z"/>
  <g class="cls-21">
    <path class="cls-11" d="M506.8,1015.1l9.8,9.2c-9.8-8.5-22.4-12.8-35.3-12.2-12.9.6-25.1,6.2-33.9,15.6-8.9,9.4-13.8,21.8-13.7,34.8,0,12.9,5.1,25.3,14.1,34.6l-9.8-9.2c-9.7-9.1-15.3-21.7-15.7-35s4.5-26.2,13.7-35.9c9.1-9.7,21.7-15.3,35-15.7,13.3-.4,26.2,4.5,35.9,13.7v.2Z"/>
    <path class="cls-11" d="M573.1,1008.6l9.8,9.2c18.8,18.5,29.6,43.6,30.2,70,.5,26.4-9.3,51.9-27.4,71.1-18.1,19.2-43,30.5-69.4,31.5-26.4,1-52.1-8.3-71.6-26l-9.8-9.2c19.5,18.1,45.3,27.8,71.9,27,26.6-.9,51.8-12.2,70-31.6,18.3-19.4,28.1-45.1,27.4-71.8-.7-26.6-11.9-51.8-31.1-70.2Z"/>
  </g>
  <g class="cls-21">
    <path class="cls-11" d="M506.8,1015.1l9.8,9.2c-9.8-8.5-22.4-12.8-35.3-12.2-12.9.6-25.1,6.2-33.9,15.6-8.9,9.4-13.8,21.8-13.7,34.8,0,12.9,5.1,25.3,14.1,34.6l-9.8-9.2c-9.7-9.1-15.3-21.7-15.7-35s4.5-26.2,13.7-35.9c9.1-9.7,21.7-15.3,35-15.7,13.3-.4,26.2,4.5,35.9,13.7v.2Z"/>
    <path class="cls-11" d="M506.8,1015.1l9.8,9.2c-9.8-8.5-22.4-12.8-35.3-12.2-12.9.6-25.1,6.2-33.9,15.6-8.9,9.4-13.8,21.8-13.7,34.8,0,12.9,5.1,25.3,14.1,34.6l-9.8-9.2c-9.7-9.1-15.3-21.7-15.7-35s4.5-26.2,13.7-35.9c9.1-9.7,21.7-15.3,35-15.7,13.3-.4,26.2,4.5,35.9,13.7v.2Z"/>
  </g>
  <path class="cls-19" d="M431.9,1019.5l36.2-9-4-26.4-44.1,8.9,12,26.6Z"/>
  <path class="cls-19" d="M428.3,958.3l-8.4,34.4,44.3-8.9s.6-30.9-15.8-33l-20,7.4Z"/>
</svg>