<?xml version="1.0" encoding="UTF-8"?>
<svg xmlns="http://www.w3.org/2000/svg" version="1.1" viewBox="0 0 1831 1369">
  <defs>
    <style>
      .cls-1 {
        fill: #e0e0e0;
      }

      .cls-2, .cls-3, .cls-4, .cls-5, .cls-6, .cls-7, .cls-8, .cls-9, .cls-10, .cls-11, .cls-12, .cls-13, .cls-14 {
        isolation: isolate;
      }

      .cls-2, .cls-10, .cls-13 {
        opacity: .3;
      }

      .cls-3, .cls-12, .cls-15 {
        opacity: .1;
      }

      .cls-4, .cls-9, .cls-16, .cls-14 {
        opacity: .4;
      }

      .cls-17 {
        fill: #e6e6e6;
      }

      .cls-18 {
        fill: #000000;
      }

      .cls-19 {
        fill: #263238;
      }

      .cls-20 {
        mix-blend-mode: multiply;
      }

      .cls-6 {
        opacity: .9;
      }

      .cls-6, .cls-7, .cls-8, .cls-9, .cls-10, .cls-11, .cls-12, .cls-21 {
        fill: #fafafa;
      }

      .cls-7 {
        opacity: .8;
      }

      .cls-8 {
        opacity: 1;
      }

      .cls-22 {
        opacity: 1;
        fill: #E4897B;
      }

      .cls-11 {
        opacity: .2;
      }

      .cls-23 {
        fill: #007bff;
      }

      .cls-24 {
        fill: #f0f0f0;
      }

      .cls-25 {
        opacity: .5;
      }

      .cls-26 {
        fill: #E4897B;
      }

      .cls-27 {
        fill: #012E71;
      }

      .cls-28 {
        fill: #0045B6;
      }

      .cls-29 {
        fill: #0045b6;
      }

      .cls-13, .cls-14 {
        fill: #fff;
      }

      /* Animation for arrow to fly in */
      @keyframes flyIn {
        0% {
          transform: translateX(100%);
        }
        100% {
          transform: translateX(0);
        }
      }

      /* Animation for hair to move left to right */
      @keyframes moveLeftRight {
        0% {
          transform: translateX(-5px);
        }
        50% {
          transform: translateX(5px);
        }
        100% {
          transform: translateX(-5px);
        }
      }

      /* Animation for search to wiggle */
      @keyframes wiggle {
        0%, 100% {
          transform: rotate(0deg);
        }
        25% {
          transform: rotate(-.5deg);
        }
        50% {
          transform: rotate(.5deg);
        }
        75% {
          transform: rotate(-.5deg);
        }
      }

      /* Animation for message to fade in and out */
      @keyframes fadeInOut {
        0% {
          opacity: 0;
        }
        50% {
          opacity: 1;
        }
        100% {
          opacity: 1;
        }
      }

      /* Applying animations to the respective IDs */
      #arrow {
        animation: flyIn 8s ease-in-out infinite;
      }

      #hair {
        animation: moveLeftRight 5s ease-in-out infinite;
      }

      #search {
        animation: wiggle 5s ease-in-out infinite;
      }

      #message {
        animation: fadeInOut 10s ease-in-out infinite;
      }
    </style>
  </defs>
  <!-- Generator: Adobe Illustrator 28.6.0, SVG Export Plug-In . SVG Version: 1.2.0 Build 709)  -->
  <g>
    <g id="Layer_1">
      <g class="cls-5">
        <g id="Layer_1-2" data-name="Layer_1">
          <g>
            <path class="cls-1" d="M1830.4,1202.9H0v.9h1830.4v-.9Z"/>
            <path class="cls-1" d="M1439.4,1230.8h-61.7v.9h61.7v-.9Z"/>
            <path class="cls-1" d="M1642.1,1230.4h-163.1v.9h163.1v-.9Z"/>
            <path class="cls-1" d="M1174.2,1236.6h-203.1v.9h203.1v-.9Z"/>
            <path class="cls-1" d="M950,1236.6h-75.9v.9h75.9v-.9Z"/>
            <path class="cls-1" d="M554.8,1229.5h-33.3v.9h33.3v-.9Z"/>
            <path class="cls-1" d="M630.2,1229.5h-55.1v.9h55.1v-.9Z"/>
            <path class="cls-1" d="M488.5,1246.1h-243.7v.9h243.7v-.9Z"/>
            <path class="cls-1" d="M867.6,1039.1H160.7c-5.5,0-10.8-2.2-14.8-6.2-3.9-3.9-6.1-9.3-6.1-14.8V20.8c0-5.5,2.3-10.8,6.2-14.7s9.2-6.1,14.7-6.1h706.9c5.5,0,10.9,2.2,14.8,6.1,3.9,3.9,6.1,9.3,6.1,14.8v997.1c0,5.6-2.2,10.9-6.1,14.8-3.9,3.9-9.2,6.1-14.8,6.1v.2ZM160.7.7c-5.3,0-10.4,2.1-14.1,5.9-3.7,3.8-5.8,8.9-5.8,14.2v997.3c0,5.3,2.1,10.4,5.8,14.2,3.7,3.8,8.8,5.9,14.1,5.9h706.9c5.3,0,10.4-2.1,14.1-5.9,3.7-3.8,5.9-8.9,5.9-14.2V20.8c0-5.3-2.1-10.4-5.9-14.2-3.7-3.8-8.8-5.9-14.1-5.9,0,0-706.9,0-706.9,0Z"/>
            <path class="cls-1" d="M1659.5,1039.1h-706.9c-5.5,0-10.9-2.2-14.8-6.2-3.9-3.9-6.1-9.3-6.1-14.8V20.8c0-5.5,2.3-10.8,6.2-14.7,3.9-3.9,9.2-6.1,14.7-6.1h706.9c5.5,0,10.8,2.2,14.7,6.1,3.9,3.9,6.1,9.2,6.2,14.7v997.3c0,5.5-2.2,10.9-6.1,14.8s-9.2,6.2-14.7,6.2h0ZM952.6.7c-5.3,0-10.4,2.1-14.1,5.9-3.7,3.8-5.9,8.9-5.9,14.2v997.3c0,5.3,2.1,10.4,5.9,14.2,3.7,3.8,8.8,5.9,14.1,5.9h706.9c5.3,0,10.4-2.1,14.1-5.9s5.8-8.9,5.9-14.2V20.8c0-5.3-2.1-10.4-5.9-14.2-3.8-3.8-8.8-5.9-14.1-5.9,0,0-706.9,0-706.9,0Z"/>
            <path class="cls-1" d="M1163.4,755.2h-173.4v447.7h173.4v-447.7Z"/>
            <path class="cls-23" d="M1130.4,1202.9h33v-94h-67.5l34.5,94Z"/>
            <path class="cls-1" d="M515.4,755.2h-173.4v447.7h173.4v-447.7Z"/>
            <path class="cls-23" d="M1163.4,755.2H486.7v390h676.7v-390h0Z"/>
            <path class="cls-1" d="M836.1,783.5v244.2h301.8v-244.2h-301.8,0Z"/>
            <path class="cls-1" d="M512.2,783.5v244.2h301.8v-244.2h-301.8Z"/>
            <path class="cls-1" d="M1137.8,1108.9v-18h-301.8v18h301.8Z"/>
            <path class="cls-1" d="M814,1108.9v-18h-301.8v18h301.8Z"/>
            <path class="cls-1" d="M1137.8,1074.2v-18h-301.8v18h301.8Z"/>
            <path class="cls-1" d="M814,1074.2v-18h-301.8v18h301.8Z"/>
            <path class="cls-23" d="M693,809.8h-59.6c-12.8,0-25.5-2.6-37.3-7.7-11.8-5.1-22.4-12.5-31.3-21.9h196.7c-8.8,9.3-19.4,16.8-31.2,21.9-11.8,5.1-24.5,7.7-37.3,7.7h0Z"/>
            <path class="cls-23" d="M1019.8,809.8h-59.7c-12.8,0-25.5-2.6-37.3-7.7-11.8-5.1-22.4-12.5-31.2-21.9h196.8c-8.8,9.3-19.5,16.8-31.2,21.9-11.8,5.1-24.5,7.7-37.3,7.7h-.1Z"/>
            <path class="cls-23" d="M519.6,1202.9h-32.9v-94h67.5l-34.5,94h0Z"/>
            <path class="cls-1" d="M1159.7,69.8H250.2v521.4h909.4V69.8h0Z"/>
            <path class="cls-1" d="M1210,53.7H219.7c-1.2,0-2.4.5-3.3,1.4-.9.9-1.4,2.1-1.4,3.3s.1,1.2.3,1.8.6,1.1,1,1.5.9.8,1.5,1,1.2.4,1.8.4h990.3c.6,0,1.2,0,1.8-.4.6-.2,1.1-.6,1.5-1s.8-1,1-1.5c.2-.6.3-1.2.3-1.8,0-1.2-.5-2.4-1.4-3.3-.9-.9-2.1-1.4-3.3-1.4h.2Z"/>
            <path class="cls-16" d="M1179.6,69.8H259.5v521.4h920V69.8h0Z"/>
            <path class="cls-1" d="M1159.7,591.1H250.2v37.1h909.4v-37.1h0Z"/>
            <path class="cls-16" d="M1212.7,591.1H292.7v37.1h920.1v-37.1h-.1Z"/>
            <path class="cls-25" d="M1151.6,563.1V97.8H287.4v465.4h864.3,0Z"/>
            <path class="cls-20" d="M715.1,563.1l163.7-465.4h77.2l-163.7,465.4h-77.2Z"/>
            <path class="cls-20" d="M809,563.1l163.7-465.4h30.1l-163.6,465.4h-30.2Z"/>
            <path class="cls-1" d="M1151.6,563.1V97.8h-3.6v465.4h3.6Z"/>
            <path class="cls-17" d="M287.7,45.3h-48v449.1h48V45.3Z"/>
            <path class="cls-1" d="M306.4,45.3h-37.4v449.1h37.4V45.3Z"/>
            <path class="cls-17" d="M335.7,45.3h-48v449.1h48V45.3Z"/>
            <path class="cls-1" d="M354.4,45.3h-37.4v449.1h37.4V45.3Z"/>
            <path class="cls-17" d="M383.7,45.3h-48v449.1h48V45.3Z"/>
            <path class="cls-17" d="M1133.8,45.3h-27.6v449.1h27.6V45.3Z"/>
            <path class="cls-1" d="M1144.6,45.3h-21.6v449.1h21.6V45.3Z"/>
            <path class="cls-17" d="M1161.4,45.3h-27.6v449.1h27.6V45.3Z"/>
            <path class="cls-1" d="M1172.2,45.3h-21.6v449.1h21.6V45.3Z"/>
            <path class="cls-17" d="M1189.1,45.3h-27.6v449.1h27.6V45.3Z"/>
            <path class="cls-16" d="M1440.7,240.1h-61.4v168h61.4v-168Z"/>
            <path class="cls-23" d="M1356,436.2l-14.2,38.8h14.2l86.9-38.8h-86.9Z"/>
            <path class="cls-1" d="M1341.8,436.2v38.8l86.9-38.8h-86.9Z"/>
            <path class="cls-23" d="M1504.6,436.2l-14.2,38.8h14.2l86.9-38.8h-86.9Z"/>
            <path class="cls-1" d="M1490.4,436.2v38.8l86.9-38.8h-86.9Z"/>
            <path class="cls-1" d="M1278.1,438h94.5v-29.6h-94.5v29.6Z"/>
            <path class="cls-23" d="M1642.1,408.4h-269.6v29.6h269.6v-29.6Z"/>
            <path class="cls-1" d="M1542.9,408.1h-149.3l-18.5-203.6h149.3l18.5,203.6Z"/>
            <path class="cls-23" d="M1550.6,408.1h-149.3l-18.5-203.6h149.3l18.4,203.6h0Z"/>
            <path class="cls-20" d="M1421.7,385.6l-14.4-158.5h104.4l14.4,158.5h-104.4Z"/>
            <path class="cls-1" d="M576.3,689.8s-64.4-111.4,24.9-200c0,0,23.3,15.2,23,35.8-.4,20.5-25,25.7-19.7,42.8,5.3,17,28.5,33.9,13.3,48.1-15.3,14.1,2.5,26.7,1.4,44.1-1,17.4-42.9,29.4-42.9,29.4v-.2Z"/>
            <path class="cls-1" d="M581.1,700s26.1-126.1-86.5-181.9c0,0-17.3,21.9-10.5,41.2s31.7,16.5,32.1,34.4-16.4,41.2,2.5,49.8c18.9,8.6,6.1,26.2,12.5,42.3s49.9,14.3,49.9,14.3h0Z"/>
            <path class="cls-23" d="M482.5,672.1s2.1,83.1,84.2,83.1,84.2-83.1,84.2-83.1h-168.4Z"/>
            <path class="cls-17" d="M1451,1202.9h8.4l23.9-118.2,4.2-20.7,26-128.6h99.9l54.1,267.4h8.4l-55.2-272.6c-.2-.9-.7-1.8-1.4-2.4-.7-.6-1.7-.9-2.6-.9h-106.6c-.9,0-1.8.3-2.6.9-.7.6-1.2,1.4-1.4,2.4l-22.9,113.1-4.3,20.7-28,138.8h0Z"/>
            <path class="cls-17" d="M1290.6,1202.9h8.4l54.2-267.6h99.9l26,128.8,4.2,20.6,23.9,118.2h8.5l-28.1-138.9-4.2-20.6-22.9-113.1c-.2-.9-.7-1.8-1.4-2.4-.7-.6-1.7-.9-2.6-.9h-106.6c-.9,0-1.9.3-2.6.9-.7.6-1.2,1.4-1.4,2.4l-55.2,272.6h-.1Z"/>
            <path class="cls-16" d="M1536.9,931.2h-183.6c-16.8,0-33-6.6-45-18.5-12-11.8-19-27.9-19.3-44.8l-6.8-280c0-6.2,1.1-12.4,3.4-18.2s5.7-11,10.1-15.5c4.4-4.4,9.5-8,15.3-10.4,5.7-2.4,11.9-3.7,18.1-3.7h115.1c11.5,0,22.6,4.3,31.2,11.9,8.6,7.7,14.1,18.3,15.4,29.8l46.3,349.4h-.2Z"/>
            <path class="cls-16" d="M1436.8,895.9h179.6c6.7,0,13.1,2.7,17.8,7.4,4.7,4.7,7.4,11.2,7.4,17.8v.9c0,2.4-1,4.8-2.7,6.5s-4,2.7-6.5,2.7h-195.6v-35.3h0Z"/>
            <path class="cls-25" d="M915.2,1368.8c392,0,709.8-18.6,709.8-41.6s-317.8-41.6-709.8-41.6-709.8,18.6-709.8,41.6,317.8,41.6,709.8,41.6Z"/>
            <path class="cls-28" d="M682.9,269.2c0-6.8-.5-13.7-1.6-20.4-4.9-29.8-20.1-57-43-76.7s-51.9-30.7-82.1-31h-1.1c-20.2,0-40.1,4.9-58.1,14.1-18,9.3-33.5,22.7-45.3,39.2-1.9,2.7-3.7,5.4-5.4,8.2-.1.2-.3.4-.4.6-12,19.9-18.3,42.8-18.3,66.1v.3c0,27.1,8.7,53.5,24.6,75.3,15.9,21.9,38.4,38.1,64.1,46.4,25.7,8.3,53.4,8.1,79-.4s47.9-24.9,63.7-46.9c1.9-2.7,3.7-5.4,5.4-8.2,0-.2.3-.4.4-.6,12-19.9,18.3-42.7,18.2-66h-.1ZM433,266.3c.4-21,6.3-41.5,17-59.5h39.9c-6.1,19.3-9.3,39.3-9.5,59.5h-47.4ZM495.5,206.8h57v59.5h-66.6c.1-20.2,3.4-40.3,9.6-59.5h0ZM558,201.3v-54.8c7.9.7,15.5,3.5,22,8.2,13.6,9.3,25,25.7,32.9,46.6h-54.9ZM614.8,206.8c4.5,13.8,7.5,28,8.8,42.4.5,5.7.8,11.4.9,17.1h-66.6v-59.5h56.9,0ZM544.4,148c2.6-.8,5.3-1.2,8.1-1.4v54.8h-54.9c10.2-27.7,26.9-47.8,46.9-53.5h0ZM552.5,272v59.5h-56.9c-4.5-13.8-7.5-28.1-8.7-42.5-.5-5.7-.8-11.4-.9-17.1h66.5ZM552.5,337v54.8c-7.9-.7-15.5-3.6-22-8.2-13.5-9.3-24.9-25.7-32.9-46.6h54.9ZM566,390.4c-2.6.8-5.3,1.2-8.1,1.4v-54.9h54.9c-10.3,27.6-26.9,47.8-46.9,53.4h0ZM558,331.6v-59.7h66.6c0,20.2-3.3,40.3-9.6,59.5l-57,.2ZM630,271.9h47.6c-.4,21-6.3,41.5-17,59.5h-40.1c6.1-19.3,9.3-39.3,9.5-59.5ZM677.6,266.4h-47.6c0-5.8-.4-11.7-.9-17.6-1.2-14.2-4.1-28.3-8.4-41.9h39.9c7.7,13.1,12.9,27.6,15.3,42.6.9,5.6,1.4,11.2,1.5,16.9h.2ZM626.8,169.6c12,8.6,22.3,19.4,30.5,31.7h-38.6c-8.2-22.7-20.5-40.7-35.7-51.2l-1.2-.8c16.1,3.6,31.4,10.5,44.8,20.2h.2ZM528.4,149.5c-15.4,10.2-28.1,28.7-36.6,51.9h-38.4l2.7-3.9c17.4-24.4,43.1-41.4,72.2-48h0ZM433.3,271.9h47.4c0,5.8.4,11.7.9,17.6,1.3,14.2,4.1,28.3,8.4,41.9h-40.1c-7.7-13.1-12.9-27.6-15.3-42.6-.9-5.6-1.4-11.2-1.5-16.9h.3,0ZM453.5,336.9h38.3c8.2,22.7,20.5,40.7,35.7,51.2l1.2.8c-30.8-7-57.7-25.6-75.2-52ZM582.1,388.8c15.4-10.1,28-28.7,36.6-51.9h38.4c-.9,1.3-1.8,2.6-2.7,3.9-17.4,24.4-43.1,41.4-72.3,47.9h0Z"/>
            <path class="cls-7" d="M682.9,269.2c0-6.8-.5-13.7-1.6-20.4-4.9-29.8-20.1-57-43-76.7s-51.9-30.7-82.1-31h-1.1c-20.2,0-40.1,4.9-58.1,14.1-18,9.3-33.5,22.7-45.3,39.2-1.9,2.7-3.7,5.4-5.4,8.2-.1.2-.3.4-.4.6-12,19.9-18.3,42.8-18.3,66.1v.3c0,27.1,8.7,53.5,24.6,75.3,15.9,21.9,38.4,38.1,64.1,46.4,25.7,8.3,53.4,8.1,79-.4s47.9-24.9,63.7-46.9c1.9-2.7,3.7-5.4,5.4-8.2,0-.2.3-.4.4-.6,12-19.9,18.3-42.7,18.2-66h-.1ZM433,266.3c.4-21,6.3-41.5,17-59.5h39.9c-6.1,19.3-9.3,39.3-9.5,59.5h-47.4ZM495.5,206.8h57v59.5h-66.6c.1-20.2,3.4-40.3,9.6-59.5h0ZM558,201.3v-54.8c7.9.7,15.5,3.5,22,8.2,13.6,9.3,25,25.7,32.9,46.6h-54.9ZM614.8,206.8c4.5,13.8,7.5,28,8.8,42.4.5,5.7.8,11.4.9,17.1h-66.6v-59.5h56.9,0ZM544.4,148c2.6-.8,5.3-1.2,8.1-1.4v54.8h-54.9c10.2-27.7,26.9-47.8,46.9-53.5h0ZM552.5,272v59.5h-56.9c-4.5-13.8-7.5-28.1-8.7-42.5-.5-5.7-.8-11.4-.9-17.1h66.5ZM552.5,337v54.8c-7.9-.7-15.5-3.6-22-8.2-13.5-9.3-24.9-25.7-32.9-46.6h54.9ZM566,390.4c-2.6.8-5.3,1.2-8.1,1.4v-54.9h54.9c-10.3,27.6-26.9,47.8-46.9,53.4h0ZM558,331.6v-59.7h66.6c0,20.2-3.3,40.3-9.6,59.5l-57,.2ZM630,271.9h47.6c-.4,21-6.3,41.5-17,59.5h-40.1c6.1-19.3,9.3-39.3,9.5-59.5ZM677.6,266.4h-47.6c0-5.8-.4-11.7-.9-17.6-1.2-14.2-4.1-28.3-8.4-41.9h39.9c7.7,13.1,12.9,27.6,15.3,42.6.9,5.6,1.4,11.2,1.5,16.9h.2ZM626.8,169.6c12,8.6,22.3,19.4,30.5,31.7h-38.6c-8.2-22.7-20.5-40.7-35.7-51.2l-1.2-.8c16.1,3.6,31.4,10.5,44.8,20.2h.2ZM528.4,149.5c-15.4,10.2-28.1,28.7-36.6,51.9h-38.4l2.7-3.9c17.4-24.4,43.1-41.4,72.2-48h0ZM433.3,271.9h47.4c0,5.8.4,11.7.9,17.6,1.3,14.2,4.1,28.3,8.4,41.9h-40.1c-7.7-13.1-12.9-27.6-15.3-42.6-.9-5.6-1.4-11.2-1.5-16.9h.3,0ZM453.5,336.9h38.3c8.2,22.7,20.5,40.7,35.7,51.2l1.2.8c-30.8-7-57.7-25.6-75.2-52ZM582.1,388.8c15.4-10.1,28-28.7,36.6-51.9h38.4c-.9,1.3-1.8,2.6-2.7,3.9-17.4,24.4-43.1,41.4-72.3,47.9h0Z"/>
            <path class="cls-28" d="M1516.7,330.3H365.7v279.9h1151v-279.9h0Z"/>
            <path class="cls-8" d="M1516.7,330.3H365.7v279.9h1151v-279.9h0Z"/>
            <path class="cls-28" d="M1490.7,356.4H339.7v279.9h1151v-279.9Z"/>
            <path class="cls-2" d="M1490.7,356.4H339.7v279.9h1151v-279.9Z"/>
            <path class="cls-28" d="M1464.8,382.4H313.8v279.9h1151v-279.9Z"/>
            <path class="cls-12" d="M1464.8,382.4H313.8v279.9h1151v-279.9Z"/>
            <path class="cls-28" d="M1409.8,607.2v-169.7H368.7v169.7h1041.2,0Z"/>
            <path class="cls-6" d="M1409.8,607.2v-169.7H368.7v169.7h1041.2,0Z"/>
            <path class="cls-28" d="M1234.7,437.5v169.7h6.1v-169.7h-6.1Z"/>
            <path class="cls-8" d="M1234.7,437.5v169.7h6.1v-169.7h-6.1Z"/>
            <path class="cls-28" d="M394.6,460.9v122.9h6.1v-122.9h-6.1Z"/>
            <path class="cls-8" d="M394.6,460.9v122.9h6.1v-122.9h-6.1Z"/>
            <path class="cls-28" d="M1319.5,543.8c-4.4,0-8.8-1.1-12.7-3.2-3.9-2.1-7.3-5.1-9.7-8.8-2.5-3.7-4-8-4.4-12.4s.2-8.9,1.9-13c1.7-4.1,4.4-7.8,7.8-10.6,3.4-2.8,7.5-4.8,11.9-5.6s8.9-.6,13.1.6c4.2,1.3,8.1,3.6,11.3,6.8,3.8,3.8,6.4,8.6,7.4,13.9,1.1,5.3.5,10.7-1.5,15.7s-5.5,9.2-9.9,12.2-9.7,4.6-15,4.6l-.2-.2ZM1319.5,496.9c-4.6,0-9,1.6-12.5,4.5s-5.9,6.9-6.8,11.4-.2,9.1,2,13.2c2.2,4,5.6,7.2,9.8,8.9,4.2,1.7,8.9,2,13.3.6,4.4-1.3,8.1-4.1,10.7-7.9,2.5-3.8,3.7-8.4,3.2-12.9-.5-4.6-2.5-8.8-5.7-12-1.8-1.9-4-3.4-6.3-4.4-2.4-1-5-1.6-7.6-1.6v.2h0Z"/>
            <path class="cls-28" d="M1354.5,555.3c-.5,0-1,0-1.4-.3s-.8-.5-1.2-.8l-18.5-18.6c-.4-.3-.7-.7-.9-1.2-.2-.5-.3-1-.4-1.5,0-.5,0-1,.2-1.5s.5-.9.8-1.3c.4-.4.8-.6,1.3-.8s1-.3,1.5-.3,1,0,1.5.4c.4.2.8.5,1.2.9l18.5,18.6c.7.7,1.1,1.6,1.1,2.6s-.4,1.9-1.1,2.6c-.7.7-1.6,1.1-2.6,1.1h0Z"/>
            <g class="cls-21">
              <path class="cls-20" d="M1319.5,543.8c-4.4,0-8.8-1.1-12.7-3.2-3.9-2.1-7.3-5.1-9.7-8.8-2.5-3.7-4-8-4.4-12.4s.2-8.9,1.9-13c1.7-4.1,4.4-7.8,7.8-10.6,3.4-2.8,7.5-4.8,11.9-5.6s8.9-.6,13.1.6c4.2,1.3,8.1,3.6,11.3,6.8,3.8,3.8,6.4,8.6,7.4,13.9,1.1,5.3.5,10.7-1.5,15.7s-5.5,9.2-9.9,12.2-9.7,4.6-15,4.6l-.2-.2ZM1319.5,496.9c-4.6,0-9,1.6-12.5,4.5s-5.9,6.9-6.8,11.4-.2,9.1,2,13.2c2.2,4,5.6,7.2,9.8,8.9,4.2,1.7,8.9,2,13.3.6,4.4-1.3,8.1-4.1,10.7-7.9,2.5-3.8,3.7-8.4,3.2-12.9-.5-4.6-2.5-8.8-5.7-12-1.8-1.9-4-3.4-6.3-4.4-2.4-1-5-1.6-7.6-1.6v.2h0Z"/>
              <path class="cls-20" d="M1354.5,555.3c-.5,0-1,0-1.4-.3s-.8-.5-1.2-.8l-18.5-18.6c-.4-.3-.7-.7-.9-1.2-.2-.5-.3-1-.4-1.5,0-.5,0-1,.2-1.5s.5-.9.8-1.3c.4-.4.8-.6,1.3-.8s1-.3,1.5-.2c.5,0,1,0,1.5.4.4.2.8.5,1.2.9l18.5,18.6c.7.7,1.1,1.6,1.1,2.6s-.4,1.9-1.1,2.6c-.7.7-1.6,1.1-2.6,1.1Z"/>
            </g>
            <path class="cls-28" d="M1071.1,161.1h-115.1v2.9h115.1v-2.9Z"/>
            <path class="cls-28" d="M1071.1,173.3h-115.1v2.9h115.1v-2.9Z"/>
            <path class="cls-28" d="M1071.1,185.5h-115.1v2.9h115.1v-2.9Z"/>
            <path class="cls-28" d="M1071.1,197.6h-115.1v2.9h115.1v-2.9Z"/>
            <path class="cls-28" d="M1071.1,209.8h-115.1v2.9h115.1v-2.9Z"/>
            <path class="cls-28" d="M1031.1,222h-75v2.9h75v-2.9Z"/>
            <g class="cls-24">
              <path class="cls-20" d="M1071.1,161.1h-115.1v2.9h115.1v-2.9Z"/>
              <path class="cls-20" d="M1071.1,173.3h-115.1v2.9h115.1v-2.9Z"/>
              <path class="cls-20" d="M1071.1,185.5h-115.1v2.9h115.1v-2.9Z"/>
              <path class="cls-20" d="M1071.1,197.6h-115.1v2.9h115.1v-2.9Z"/>
              <path class="cls-20" d="M1071.1,209.8h-115.1v2.9h115.1v-2.9Z"/>
              <path class="cls-20" d="M1031.1,222h-75v2.9h75v-2.9Z"/>
            </g>
            <path class="cls-28" d="M378.4,686.5h-122.6v1.8h122.6v-1.8Z"/>
            <path class="cls-28" d="M378.4,694.3h-122.6v1.8h122.6v-1.8Z"/>
            <path class="cls-28" d="M378.4,702.1h-122.6v1.8h122.6v-1.8Z"/>
            <path class="cls-28" d="M378.4,709.8h-122.6v1.8h122.6v-1.8Z"/>
            <path class="cls-28" d="M378.4,717.6h-122.6v1.8h122.6v-1.8Z"/>
            <path class="cls-28" d="M332.8,725.5h-77.1v1.8h77.1v-1.8Z"/>
            <g class="cls-15">
              <path class="cls-20" d="M378.4,686.5h-122.6v1.8h122.6v-1.8Z"/>
              <path class="cls-20" d="M378.4,694.3h-122.6v1.8h122.6v-1.8Z"/>
              <path class="cls-20" d="M378.4,702.1h-122.6v1.8h122.6v-1.8Z"/>
              <path class="cls-20" d="M378.4,709.8h-122.6v1.8h122.6v-1.8Z"/>
              <path class="cls-20" d="M378.4,717.6h-122.6v1.8h122.6v-1.8Z"/>
              <path class="cls-20" d="M332.8,725.5h-77.1v1.8h77.1v-1.8Z"/>
            </g>
            <path class="cls-28" d="M781.4,179.2c-6.1,0-12,2.4-16.4,6.8-4.3,4.4-6.8,10.3-6.8,16.4v76.6c0,6.2,2.4,12.1,6.8,16.4,4.3,4.4,10.2,6.8,16.4,6.8s12-2.4,16.4-6.8c4.3-4.4,6.8-10.3,6.8-16.4v-76.6c0-6.2-2.4-12.1-6.8-16.4s-10.2-6.8-16.4-6.8Z"/>
            <path class="cls-11" d="M781.4,179.2c-6.1,0-12,2.4-16.4,6.8-4.3,4.4-6.8,10.3-6.8,16.4v76.6c0,6.2,2.4,12.1,6.8,16.4,4.3,4.4,10.2,6.8,16.4,6.8s12-2.4,16.4-6.8c4.3-4.4,6.8-10.3,6.8-16.4v-76.6c0-6.2-2.4-12.1-6.8-16.4s-10.2-6.8-16.4-6.8Z"/>
            <path class="cls-28" d="M839.4,133.5c-6.1,0-12,2.5-16.3,6.8-4.3,4.4-6.7,10.2-6.7,16.4v122.3c0,6.2,2.4,12.1,6.8,16.4,4.3,4.4,10.2,6.8,16.4,6.8s12-2.4,16.4-6.8c4.3-4.4,6.8-10.3,6.8-16.4v-122.3c0-3.1-.6-6.1-1.8-8.9-1.2-2.8-2.9-5.4-5-7.5-2.2-2.2-4.7-3.9-7.5-5s-5.8-1.8-8.9-1.7h-.2Z"/>
            <path class="cls-2" d="M839.4,133.5c-6.1,0-12,2.5-16.3,6.8-4.3,4.4-6.7,10.2-6.7,16.4v122.3c0,6.2,2.4,12.1,6.8,16.4,4.3,4.4,10.2,6.8,16.4,6.8s12-2.4,16.4-6.8c4.3-4.4,6.8-10.3,6.8-16.4v-122.3c0-3.1-.6-6.1-1.8-8.9-1.2-2.8-2.9-5.4-5-7.5-2.2-2.2-4.7-3.9-7.5-5s-5.8-1.8-8.9-1.7h-.2Z"/>
            <path class="cls-28" d="M897.4,224.8c-6.1,0-12,2.4-16.4,6.8-4.3,4.4-6.8,10.3-6.8,16.4v30.9c0,6.2,2.4,12.1,6.8,16.4,4.3,4.4,10.2,6.8,16.4,6.8s6.1-.6,8.9-1.8c2.8-1.2,5.4-2.9,7.5-5,2.2-2.2,3.9-4.7,5-7.5,1.2-2.8,1.8-5.8,1.8-8.9v-30.9c0-3.1-.6-6.1-1.8-8.9-1.2-2.8-2.9-5.4-5-7.5-2.2-2.2-4.7-3.9-7.5-5-2.8-1.2-5.8-1.8-8.9-1.8Z"/>
            <path class="cls-8" d="M897.4,224.8c-6.1,0-12,2.4-16.4,6.8-4.3,4.4-6.8,10.3-6.8,16.4v30.9c0,6.2,2.4,12.1,6.8,16.4,4.3,4.4,10.2,6.8,16.4,6.8s6.1-.6,8.9-1.8c2.8-1.2,5.4-2.9,7.5-5,2.2-2.2,3.9-4.7,5-7.5,1.2-2.8,1.8-5.8,1.8-8.9v-30.9c0-3.1-.6-6.1-1.8-8.9-1.2-2.8-2.9-5.4-5-7.5-2.2-2.2-4.7-3.9-7.5-5-2.8-1.2-5.8-1.8-8.9-1.8Z"/>
            <g id="arrow">
              <g class="cls-19">
                <path class="cls-28" d="M1296.1,662.3l23.8-78.5,13.5,78.5h-37.3Z"/>
              </g>
              <path class="cls-28" d="M1386.1,750h93.5l-159.7-166.2,66.2,166.2Z"/>
              <g class="cls-14">
                <path d="M1386.1,750h93.5l-159.7-166.2,66.2,166.2Z"/>
              </g>
              <path class="cls-28" d="M1319.9,583.8v232.6l16.5-16.6,49.6-49.8-66.2-166.2h0Z"/>
              <path class="cls-10" d="M1319.9,583.8v232.6l16.5-16.6,49.6-49.8-66.2-166.2h0Z"/>
            </g>
            <path id="message" class="cls-28" d="M1485.3,84.9h-205c-10.4,0-20.3,4.2-27.7,11.6-7.3,7.4-11.5,17.4-11.5,27.8v106.3c0,10.4,4.2,20.4,11.5,27.8s17.3,11.5,27.7,11.6h150.4l-1.1,37.1,38-37.1h17.7c10.4,0,20.3-4.2,27.7-11.6,7.3-7.4,11.5-17.4,11.5-27.8v-106.3c0-10.4-4.2-20.4-11.5-27.8s-17.3-11.5-27.6-11.6h0ZM1275.7,130.2c0-2.9,1.2-5.7,3.2-7.8,2.1-2.1,4.8-3.2,7.8-3.2h47.2c2.9,0,5.7,1.2,7.8,3.2,2.1,2.1,3.2,4.9,3.2,7.8s-1.2,5.7-3.2,7.8c-2.1,2.1-4.8,3.2-7.8,3.2h-47.2c-2.9,0-5.7-1.2-7.7-3.2-2.1-2.1-3.2-4.9-3.2-7.8h-.1ZM1473.7,233.1h-81.6c-1.6.3-3.2.2-4.8-.2-1.5-.4-3-1.2-4.2-2.2s-2.2-2.3-2.9-3.8c-.7-1.5-1-3-1-4.7s.4-3.2,1-4.7c.7-1.5,1.7-2.8,2.9-3.8,1.2-1,2.7-1.8,4.2-2.2,1.6-.4,3.2-.5,4.8-.2h81.6c1.6-.3,3.2-.2,4.8.2,1.5.4,3,1.2,4.2,2.2s2.2,2.3,2.9,3.8c.7,1.5,1,3,1,4.7s-.3,3.2-1,4.7-1.7,2.8-2.9,3.8c-1.2,1-2.7,1.8-4.2,2.2-1.6.4-3.2.5-4.8.2ZM1473.7,187.1h-176.1c-1.6.3-3.2.2-4.8-.2-1.5-.4-3-1.2-4.2-2.2s-2.2-2.3-2.9-3.8c-.7-1.5-1-3-1-4.7s.3-3.2,1-4.7,1.7-2.7,2.9-3.8,2.7-1.8,4.2-2.2c1.6-.4,3.2-.5,4.8-.2h176.1c1.6-.3,3.2-.2,4.8.2,1.5.4,3,1.2,4.2,2.2s2.2,2.3,2.9,3.8c.7,1.5,1,3,1,4.7s-.3,3.2-1,4.7-1.7,2.8-2.9,3.8c-1.2,1-2.7,1.8-4.2,2.2-1.6.4-3.2.5-4.8.2ZM1473.7,141.1h-104.2c-2.9,0-5.7-1.2-7.8-3.2-2.1-2.1-3.2-4.9-3.2-7.8s1.2-5.7,3.2-7.8c2.1-2.1,4.8-3.2,7.8-3.2h104.2c2.9,0,5.7,1.2,7.8,3.2,2.1,2.1,3.2,4.9,3.2,7.8s-1.2,5.7-3.2,7.8c-2.1,2.1-4.9,3.2-7.8,3.2Z"/>
            <path class="cls-28" d="M482.8,1308c-2.5,0-4.9-.4-7.3-1-.1,0-.2,0-.3-.2,0,0-.2-.2-.2-.3v-.4c0,0,.1-.2.2-.3,1-.7,9.6-6.2,13-4.7.4.2.7.4.9.8.2.3.4.7.4,1.1.2.6.2,1.3,0,2-.2.6-.6,1.2-1.1,1.7-1.6,1.1-3.7,1.6-5.6,1.4h0ZM477.2,1306c5,1,8.7.8,10.1-.5.3-.3.5-.7.7-1.1.1-.4.1-.9,0-1.3,0-.2,0-.4-.2-.5-.1-.2-.2-.3-.4-.4-1.7-.8-6.7,1.7-10.2,3.8Z"/>
            <path class="cls-28" d="M475.5,1307h-.3c-.1,0-.2,0-.2-.2v-.3c0-.3,0-8.6,3.1-11.3.4-.3.8-.6,1.3-.8.5-.2,1-.2,1.5-.2s1.1.2,1.5.5.7.8.8,1.4c.7,3.2-4.5,9.4-7.3,11,0,0-.2,0-.3,0h-.1ZM480.3,1295.4c-.6,0-1.1.2-1.5.6-1.8,2.7-2.7,5.8-2.6,9,2.7-2.2,5.9-6.8,5.5-8.8,0-.3-.3-.7-1.1-.8h-.3Z"/>
            <path class="cls-28" d="M612.5,1308c-3,0-6-.4-9-1,0,0-.3,0-.4-.2,0,0-.2-.2-.2-.4v-.4c0,0,.2-.2.3-.3,1.3-.7,12.6-6.5,16.1-4.5.3.2.6.4.8.7.2.3.3.7.3,1.1,0,.6,0,1.2-.2,1.8-.2.6-.6,1.1-1,1.5-2,1.4-4.5,2-6.9,1.8h.2ZM605.8,1306c6.3,1.1,11,.8,12.7-.8.3-.3.5-.6.6-1s.2-.8,0-1.2c0,0,0-.3,0-.4,0,0-.2-.2-.3-.3-1.9-1-8.4,1.4-13.1,3.7h0Z"/>
            <path class="cls-28" d="M603.6,1307h-.4c0,0-.2,0-.2-.2v-.3c0-.3.7-8.1,4.2-11,1-.9,2.3-1.3,3.7-1.2,1.9.2,2.4,1.1,2.5,1.9.5,3.2-6.2,9.4-9.6,11h-.2v-.2ZM610.5,1295.4c-.9,0-1.7.3-2.3.9-2.1,2.5-3.4,5.6-3.7,8.8,3.4-2.1,8-6.9,7.7-8.9,0,0,0-.7-1.3-.8h-.4Z"/>
            <path class="cls-22" d="M541.8,439c2.2,17.2,7.3,52-5.1,62.5,0,0,3.7,17.5,34.9,19.5,34.5,2.2,17.6-16.1,17.6-16.1-18.5-5.7-17.1-19.7-13-32.7l-34.4-33.2h0Z"/>
            <path class="cls-18" d="M605.8,404.2c-.2,0-.4,0-.6-.2-.2,0-.3-.2-.4-.3,0-.1-.2-.3-.3-.5v-.5c0-.2,0-.4.2-.5,1-1.9,2.4-3.6,4.1-4.9,1.7-1.3,3.8-2.1,5.9-2.4.3,0,.6.1.9.4.2.2.4.5.4.9s0,.7-.2.9c-.2.3-.5.5-.8.5-1.7.3-3.2,1-4.6,2-1.4,1-2.5,2.3-3.3,3.8,0,.2-.3.5-.5.6-.2.2-.5.2-.7.3h-.1Z"/>
            <path class="cls-26" d="M615.6,419.2c2.5,5,5.7,9.7,9.5,13.9-1.1.9-2.4,1.6-3.8,2-1.4.4-2.8.5-4.3.3l-1.5-16.2h0Z"/>
            <path class="cls-18" d="M613.2,415.5c.2,2.3,1.6,4,3.1,3.9s2.6-2.1,2.3-4.4c-.2-2.3-1.6-4-3.1-3.9s-2.5,2.1-2.3,4.4Z"/>
            <path class="cls-18" d="M615,411.2l5.3-2.1s-2.6,4.6-5.3,2.1Z"/>
            <path class="cls-22" d="M572.3,1306.3h28.5l1.9-66.2h-28.5l-1.9,66.2Z"/>
            <path class="cls-22" d="M442.8,1306.3h28.5l9.2-66.2h-28.5l-9.2,66.2Z"/>
            <path class="cls-18" d="M473.1,1303h-32c-.5,0-1.1.2-1.5.6s-.7.8-.8,1.4l-3.7,25.4c0,.6,0,1.3.2,1.9s.5,1.2.9,1.7,1,.9,1.5,1.1c.6.3,1.2.4,1.9.4,11-.2,16.5-.8,30.6-.8s21.3.9,33.3.9,12.6-11.9,7.6-12.9c-22.3-4.8-25.8-11.5-33.4-17.8-1.3-1.1-3-1.8-4.7-1.8h.1Z"/>
            <path class="cls-18" d="M601.8,1303h-32c-.6,0-1.1.2-1.5.5s-.7.9-.8,1.4l-3.7,25.4c0,.6,0,1.3.2,1.9s.5,1.2,1,1.7c.4.5,1,.9,1.5,1.1.6.3,1.2.4,1.9.4,11-.2,16.5-.8,30.6-.8s26.6.9,38.5.9,12.6-11.9,7.6-12.9c-22.3-4.8-31.1-11.5-38.7-17.8-1.3-1.1-3-1.8-4.8-1.8h.2Z"/>
            <path class="cls-27" d="M602.7,1240.1l-1,34.1h-28.5l1-34.1h28.5Z"/>
            <path class="cls-27" d="M452,1240.1h28.5l-4.7,34.1h-28.5l4.7-34.1Z"/>
            <g id="search">
              <path class="cls-13" d="M1090.7,326.1l-282.8,258.9c-1.4-2.6-2.8-5.3-4.2-7.9-8.6-17.4-14.7-36-17.8-55.1l244.3-223.6c21.6,5.7,42.1,15.1,60.6,27.8h0Z"/>
              <path class="cls-13" d="M1166.3,426.5l-265.7,243.4c-27.6-12.2-52-30.6-71.3-53.8l290.4-265.8c21.2,21.5,37.1,47.6,46.7,76.2h0Z"/>
              <path class="cls-28" d="M1176.2,375.3c-22.4-39-55.9-70.5-96.2-90.5-40.3-19.9-85.5-27.5-130.1-21.6-44.5,5.9-86.3,24.9-120.1,54.6s-58,68.8-69.6,112.3-10.1,89.5,4.4,132.2,41.2,80.1,76.8,107.5,78.6,43.6,123.4,46.5c44.8,2.9,89.5-7.6,128.3-30.1,52.1-30.2,90-80,105.6-138.3s7.4-120.4-22.6-172.7h0ZM824.8,579c-17.7-30.8-25.9-66.1-23.6-101.6,2.3-35.5,15-69.4,36.6-97.6,21.5-28.2,50.9-49.3,84.5-60.7,33.5-11.4,69.7-12.6,103.9-3.4s64.9,28.4,88.2,55.1c23.3,26.7,38.3,59.8,42.9,95s-1.3,71-16.9,102.9c-15.7,31.9-40.4,58.4-71,76.1-20.3,11.8-42.8,19.5-66.1,22.5-23.3,3.1-47,1.5-69.7-4.6s-44-16.6-62.6-31-34.3-32.3-46-52.7h-.2Z"/>
              <path class="cls-3" d="M1176.2,375.3c-22.4-39-55.9-70.5-96.2-90.5-40.3-19.9-85.5-27.5-130.1-21.6-44.5,5.9-86.3,24.9-120.1,54.6s-58,68.8-69.6,112.3-10.1,89.5,4.4,132.2,41.2,80.1,76.8,107.5,78.6,43.6,123.4,46.5c44.8,2.9,89.5-7.6,128.3-30.1,52.1-30.2,90-80,105.6-138.3s7.4-120.4-22.6-172.7h0ZM824.8,579c-17.7-30.8-25.9-66.1-23.6-101.6,2.3-35.5,15-69.4,36.6-97.6,21.5-28.2,50.9-49.3,84.5-60.7,33.5-11.4,69.7-12.6,103.9-3.4s64.9,28.4,88.2,55.1c23.3,26.7,38.3,59.8,42.9,95s-1.3,71-16.9,102.9c-15.7,31.9-40.4,58.4-71,76.1-20.3,11.8-42.8,19.5-66.1,22.5-23.3,3.1-47,1.5-69.7-4.6s-44-16.6-62.6-31-34.3-32.3-46-52.7h-.2Z"/>
              <path class="cls-22" d="M457.8,723.4l28,6.5-23.2,17.4s-16.7-7.6-17.4-19.4l12.6-4.5Z"/>
              <path class="cls-22" d="M500.9,748.7l-20.2,13.5-18-14.8,23.2-17.4,15,18.7Z"/>
              <path class="cls-28" d="M818.1,609.1c-29.8,22-60.4,43-91.1,63.5-30.7,20.5-61.8,40.4-93.1,60s-62.8,38.8-94.5,57.4c-15.8,9.5-31.8,18.7-47.6,28-7.9,5-16.4,8.8-25.4,11.3-4.8,1.3-9.7,2.1-14.6,2.5-5.5.5-11,.2-16.4-.8-3.9-.8-7.6-2.3-10.8-4.5-3.3-2.2-6.1-5-8.3-8.3-2.2-3.3-3.7-7-4.5-10.9s-.8-7.9,0-11.8c.2-1.2.6-2.5,1-3.7,1.8-5.2,4.2-10.2,7.3-14.7,2.8-4.1,5.9-7.9,9.4-11.4,6.6-6.6,14.2-12.1,22.4-16.5,16-9.1,31.9-18.4,48-27.4,32.1-18.2,64.4-35.9,96.9-53.4,32.4-17.5,65.3-34.4,98.3-51,33-16.5,66.3-32.6,100.3-47.5,5.1-2.3,10.9-2.6,16.2-.8,5.3,1.7,9.8,5.4,12.6,10.3,2.8,4.9,3.7,10.6,2.6,16.1-1.2,5.5-4.3,10.4-8.8,13.7h0Z"/>
              <path class="cls-3" d="M818.1,609.1c-29.8,22-60.4,43-91.1,63.5-30.7,20.5-61.8,40.4-93.1,60s-62.8,38.8-94.5,57.4c-15.8,9.5-31.8,18.7-47.6,28-7.9,5-16.4,8.8-25.4,11.3-4.8,1.3-9.7,2.1-14.6,2.5-5.5.5-11,.2-16.4-.8-3.9-.8-7.6-2.3-10.8-4.5-3.3-2.2-6.1-5-8.3-8.3-2.2-3.3-3.7-7-4.5-10.9s-.8-7.9,0-11.8c.2-1.2.6-2.5,1-3.7,1.8-5.2,4.2-10.2,7.3-14.7,2.8-4.1,5.9-7.9,9.4-11.4,6.6-6.6,14.2-12.1,22.4-16.5,16-9.1,31.9-18.4,48-27.4,32.1-18.2,64.4-35.9,96.9-53.4,32.4-17.5,65.3-34.4,98.3-51,33-16.5,66.3-32.6,100.3-47.5,5.1-2.3,10.9-2.6,16.2-.8,5.3,1.7,9.8,5.4,12.6,10.3,2.8,4.9,3.7,10.6,2.6,16.1-1.2,5.5-4.3,10.4-8.8,13.7h0Z"/>
              <path class="cls-22" d="M498.5,549.4c-1.8,3-3.9,6.6-5.9,10s-3.9,6.9-5.7,10.5c-3.7,7-7.3,14.1-11,21.4-3.7,7.2-6.6,14.7-9.6,22-1.5,3.7-3,7.3-4.4,11l-2,5.6c-.4,1.1-.5,1.5-.7,2.3-.3.8-.4,1.5-.6,2.2-1.4,7.3-2.2,14.6-2.2,22-.2,7.9,0,15.9.4,24.1.4,8.1.9,16.3,1.6,24.4.7,8.2,1.5,16.5,2.2,24.5l-14.1,2.9c-2.5-8.2-4.4-16.3-6.4-24.6-1.9-8.3-3.4-16.6-4.8-25-1.4-8.5-2.4-16.9-3-25.7-.8-9.2-.5-18.4.7-27.6.2-1.3.4-2.5.7-3.7.3-1.2.7-2.8,1-3.7l1.8-6.2c1.2-4.2,2.5-8.3,3.9-12.3,2.8-8.2,5.9-16.2,9.3-24.2,3.4-7.9,7.1-15.7,11-23.3,2-3.7,4.1-7.6,6.3-11.4,2.2-3.8,4.3-7.3,7-11.4l24.5,16.1h0Z"/>
              <g>
                <path class="cls-22" d="M747,666.1l-6.4,21.9-11.4,3.2,3.3-25.1h14.5Z"/>
                <path class="cls-22" d="M643.1,544.9c4.4,14.7,8.6,29.6,12.6,44.4l12.3,44.4,1.5,5.5.4,1.4.2.7v.4c0,.5.3,1,.5,1.4.9,2.2,2.1,4.3,3.7,6.2,4.4,4.6,9.4,8.5,15,11.6,12.8,6.9,26.3,12.4,40.3,16.3l-2.1,14.3c-16.4-.8-32.6-4.4-47.9-10.4-8.5-3.3-16.3-8.2-23-14.3-3.9-3.6-7.1-7.9-9.5-12.6-.7-1.3-1.2-2.6-1.7-3.9l-.4-1-.3-.7-.5-1.4-1.9-5.5c-5.1-14.7-9.9-29.4-14.4-44.3-4.5-14.9-8.9-29.6-13-44.6l28.3-8h0Z"/>
                <path class="cls-22" d="M711.6,673.3l20.8-7.1-3.3,25.1s-8.2,3.7-18.8-5.6l-10.1-6.5,8-4.4c1.1-.6,2.2-1.1,3.4-1.5h0Z"/>
              </g>
              <path class="cls-28" d="M510.6,553.8c-5.4,8.5-11.7,16.4-18.7,23.6l-3.3-2.2-36.1-24.1s19.7-44.1,34.5-46.3c14.2-2.3,24.5,12.4,29.3,28.1,1.8,5.7-1.2,13.4-5.7,20.8h0Z"/>
              <path class="cls-8" d="M510.6,553.8c-5.4,8.5-11.7,16.4-18.7,23.6l-3.3-2.2-36.1-24.1s19.7-44.1,34.5-46.3c14.2-2.3,24.5,12.4,29.3,28.1,1.8,5.7-1.2,13.4-5.7,20.8h0Z"/>
              <path class="cls-28" d="M510.6,553.8c-5.4,8.5-11.7,16.4-18.7,23.6l-3.3-2.2c1.6-13.2,6.7-26.3,12.6-30.5,3.6.4,6.8,4.2,9.4,9.1h0Z"/>
              <path class="cls-9" d="M510.6,553.8c-5.4,8.5-11.7,16.4-18.7,23.6l-3.3-2.2c1.6-13.2,6.7-26.3,12.6-30.5,3.6.4,6.8,4.2,9.4,9.1h0Z"/>
            </g>
            <path class="cls-28" d="M634.1,575.8c-1.7,11-4,24-7,39.4-3.7,19.7-8.8,43.3-15.3,71.6l-115.5-7.3c5-47.1,6.9-76.2-9.3-174.4,16.4-2.3,32.9-3.4,49.5-3.3,17.5-.1,35.1,1,52.4,3.4,22.4,3.7,47.6,10.4,47.6,10.4,0,0,6.4,2.5-2.5,60.3h0Z"/>
            <path class="cls-8" d="M634.1,575.8c-1.7,11-4,24-7,39.4-3.7,19.7-8.8,43.3-15.3,71.6l-115.5-7.3c5-47.1,6.9-76.2-9.3-174.4,16.4-2.3,32.9-3.4,49.5-3.3,17.5-.1,35.1,1,52.4,3.4,22.4,3.7,47.6,10.4,47.6,10.4,0,0,6.4,2.5-2.5,60.3h0Z"/>
            <path class="cls-28" d="M634.1,575.8c-1.7,11-4,24-7,39.4-6.4-13.6-11.6-27.6-15.8-42h21.5l1.3,2.6Z"/>
            <path class="cls-9" d="M634.1,575.8c-1.7,11-4,24-7,39.4-6.4-13.6-11.6-27.6-15.8-42h21.5l1.3,2.6Z"/>
            <path class="cls-6" d="M1176.3,498.3c-2.1,46.4-20.4,90.6-51.8,124.7h-289.2c-24.4-26.6-41.1-59.5-48.2-94.9-7.1-35.5-4.4-72.2,7.9-106.3h369.7c8.9,24.5,12.8,50.5,11.6,76.5h0Z"/>
            <path class="cls-12" d="M1164.7,421.7c-8.8-24.1-22.1-46.3-39.4-65.3h-291.1c-17.2,19-30.6,41.2-39.4,65.3l40.3,201.2c30.8,33.5,72.2,55.3,117.2,61.6s90.8-3.1,129.6-26.8c38.8-23.7,68.3-60.2,83.3-103.2,15.1-43,14.8-89.9-.7-132.8h.2Z"/>
            <path class="cls-22" d="M535.5,414.9c4.4,28,5.6,40,21.2,53.1,23.4,19.8,56.7,8.2,60.8-20.6,3.7-25.9-4.1-67.4-32.7-76-6.3-1.9-13-2.2-19.4-.8-6.4,1.4-12.4,4.4-17.3,8.8-4.9,4.4-8.7,9.9-10.9,16.1s-2.8,12.9-1.7,19.4h0Z"/>
            <path class="cls-28" d="M581.3,684.8s-1.8,51-6.2,115.4c-3.7,54-9.2,117.4-16.9,167.8l-.2,1.4c-13.9,89.4-75.3,298.2-75.3,298.2h-38.9s32-201.7,39.1-290.3c17.8-223.6-26.8-249,13.5-298.3l85,5.7h0Z"/>
            <path class="cls-2" d="M581.3,684.8s-1.8,51-6.2,115.4c-3.7,54-9.2,117.4-16.9,167.8l-.2,1.4c-13.9,89.4-75.3,298.2-75.3,298.2h-38.9s32-201.7,39.1-290.3c17.8-223.6-26.8-249,13.5-298.3l85,5.7h0Z"/>
            <path class="cls-28" d="M575.1,800.2c-3.7,54-9.2,117.4-16.9,167.8-13.1-65.6-34.7-161.4-5.7-224.1,6.9,17.8,15,38,22.7,56.3h0Z"/>
            <path class="cls-4" d="M575.1,800.2c-3.7,54-9.2,117.4-16.9,167.8-13.1-65.6-34.7-161.4-5.7-224.1,6.9,17.8,15,38,22.7,56.3h0Z"/>
            <path class="cls-28" d="M611.9,686.8s32.9,196,31,283.2c-1.9,90.8-35.1,297.6-35.1,297.6h-38.5s6.1-201.6,2.7-290.7c-3.7-97.1-44.7-295.7-44.7-295.7l84.6,5.5h0Z"/>
            <path class="cls-2" d="M611.9,686.8s32.9,196,31,283.2c-1.9,90.8-35.1,297.6-35.1,297.6h-38.5s6.1-201.6,2.7-290.7c-3.7-97.1-44.7-295.7-44.7-295.7l84.6,5.5h0Z"/>
            <path class="cls-18" d="M562.7,1269.4h51.7l4-17.4-57.5.4,1.8,17Z"/>
            <path class="cls-18" d="M438.1,1269.4h51.7l4-17.4-55.3.4-.4,17h0Z"/>
            <path class="cls-18" d="M495.1,672.4l-5.9,10.1c-.5.8.4,1.7,1.8,1.7l121.1,7.9c1,0,1.9-.4,2.1-1l1.7-10.3c0-.7-.8-1.4-1.9-1.4l-117.1-7.6c-.3,0-.7,0-1,.2-.3,0-.6.3-.8.6v-.2Z"/>
            <path class="cls-28" d="M509.9,686.5l-3.1-.2c-.6,0-1.1-.4-1-.8l2.3-13.4c0-.4.6-.7,1.2-.6l3.1.2c.6,0,1.1.4,1,.8l-2.3,13.4c0,.4-.7.7-1.3.7h.1Z"/>
            <path class="cls-2" d="M509.9,686.5l-3.1-.2c-.6,0-1.1-.4-1-.8l2.3-13.4c0-.4.6-.7,1.2-.6l3.1.2c.6,0,1.1.4,1,.8l-2.3,13.4c0,.4-.7.7-1.3.7h.1Z"/>
            <path class="cls-28" d="M585.7,691.4l-3.1-.2c-.6,0-1.1-.4-1-.8l2.3-13.4c0-.4.6-.7,1.3-.6l3.1.2c.6,0,1.1.4,1,.8l-2.3,13.4c0,.4-.5.7-1.3.6Z"/>
            <path class="cls-2" d="M585.7,691.4l-3.1-.2c-.6,0-1.1-.4-1-.8l2.3-13.4c0-.4.6-.7,1.3-.6l3.1.2c.6,0,1.1.4,1,.8l-2.3,13.4c0,.4-.5.7-1.3.6Z"/>
            <path class="cls-28" d="M636.6,515.4c14.6,4.8,30,52.9,30,52.9l-52.9,22.9s-22-53.9-12.2-66.1c9.7-12.2,18.3-15.1,35.1-9.6h0Z"/>
            <path class="cls-8" d="M636.6,515.4c14.6,4.8,30,52.9,30,52.9l-52.9,22.9s-22-53.9-12.2-66.1c9.7-12.2,18.3-15.1,35.1-9.6h0Z"/>
            <g id="hair">
              <path class="cls-18" d="M608.3,369.8c-9.3-11.6-81.5-19.8-85.3,11.7-25.6,18-1.3,64.5,2.3,76.3-17.7,4.9-74.6,24.5-32.9,62.5,41.7,38,104.2,31.5,116.5-7.8,8.6-27.5-18.6-73.5-18-89.6s33.5-33.5,17.5-53.1h-.1Z"/>
              <path class="cls-18" d="M530.4,463.6h-.4c0,0-.2-.1-.3-.2-6.6-8.1-29.7-50.6-21.6-70.8,1.3-3.1,3.4-5.8,6.1-7.8s6-3.1,9.4-3.2h.4c0,0,.2,0,.3.2,0,0,.2.2.2.3v.3c0,.2,0,.5-.2.7,0,.2-.4.3-.6.4-3,.1-6,1.1-8.4,2.8-2.5,1.7-4.4,4.1-5.6,6.9-7.8,19.5,14.8,61,21.3,69,0,.1.2.3.2.5v.5c0,.2-.2.3-.3.4,0,0-.3.1-.5.1h0Z"/>
            </g>
            <path class="cls-22" d="M585.1,421.2c.8,5.4,3.4,10.3,7.3,14,5.2,5,10.1,1.6,10.6-4.8.4-5.7-1.8-15.1-7.9-17.8-6.1-2.6-10.8,2.2-10,8.5h0Z"/>
          </g>
        </g>
      </g>
    </g>
  </g>
</svg>