<?xml version="1.0" encoding="UTF-8"?>
<svg id="Layer_1" data-name="Layer 1" xmlns="http://www.w3.org/2000/svg" version="1.1" viewBox="0 0 2293 1709">
  <defs>
    <style>
      .cls-1 {
        fill: #0045B6;
      }

      .cls-1, .cls-2, .cls-3, .cls-4, .cls-5, .cls-6, .cls-7, .cls-8, .cls-9, .cls-10, .cls-11, .cls-12, .cls-13, .cls-14, .cls-15, .cls-16, .cls-17, .cls-18, .cls-19, .cls-20, .cls-21 {
        stroke-width: 0px;
      }

      .cls-2 {
        fill: #f5f5f5;
      }

      .cls-3 {
        fill: #ebebeb;
      }

      .cls-4, .cls-6, .cls-8, .cls-10, .cls-12, .cls-13, .cls-16, .cls-18, .cls-20, .cls-21 {
        isolation: isolate;
      }

      .cls-4, .cls-10 {
        opacity: .6;
      }

      .cls-22 {
         opacity: 0;
      }

      .cls-4, .cls-12, .cls-13, .cls-16, .cls-20 {
        fill: #000;
      }

      .cls-5 {
        fill: #263238;
      }

      .cls-6, .cls-8, .cls-10, .cls-17, .cls-18, .cls-21 {
        fill: #fff;
      }

      .cls-6, .cls-20 {
        opacity: .2;
      }

      .cls-7 {
        fill: #e0e0e0;
      }

      .cls-8, .cls-13 {
        opacity: .5;
      }

      .cls-9 {
        fill: #0045b6;
      }

      .cls-11 {
        fill: #4092FF;
      }

      .cls-12 {
        opacity: .1;
      }

      .cls-14 {
        fill: #f0f0f0;
      }

      .cls-15 {
        fill: #BBD9FF;
      }

      .cls-16, .cls-18 {
        opacity: .3;
      }

      .cls-19 {
        fill: #012E71;
      }

      .cls-21 {
        opacity: .4;
      }

      @keyframes moveUpDown {
        0%, 100% { transform: translateY(0); }
        50% { transform: translateY(-20px); }
      }

      @keyframes moveLeftRight {
        0%, 100% { transform: translateX(0); }
        50% { transform: translateX(20px); }
      }

      @keyframes moveLeftRight2 {
        0%, 100% { transform: translateX(0); }
        50% { transform: translateX(20px); }
        100%  { transform: translateX(555px); }
      }

      @keyframes fadeInOut {
        0%, 100% { opacity: 1; }
        50% { opacity: 0; }
      }

      #arrowdown, #arrowup, #movie {
        animation: moveUpDown 3s infinite;
      }

      #movie2, #movie3 {
        animation: moveUpDown 5s infinite;
      }

      #path {
        animation: moveLeftRight 2.5s infinite;
      }

      #duration {
        animation: moveLeftRight2 15s infinite;
      }

      #status, #percentage {
        animation: fadeInOut 15s infinite;
      }

    </style>
  </defs>
  <path class="cls-3" d="M2293,1501.5H0v1.1h2293v-1.1Z"/>
  <path class="cls-3" d="M2063.2,1575.2h-151.9v1.1h151.9v-1.1Z"/>
  <path class="cls-3" d="M1519,1587.7h-39.9v1.2h39.9v-1.2Z"/>
  <path class="cls-3" d="M1906.8,1532.7h-88v1.1h88v-1.1Z"/>
  <path class="cls-3" d="M438.7,1540.4h-198.1v1.2h198.1v-1.2Z"/>
  <path class="cls-3" d="M508.5,1540.4h-29v1.2h29v-1.2Z"/>
  <path class="cls-3" d="M1032.5,1559.7h-429.6v1.2h429.6v-1.2Z"/>
  <path class="cls-3" d="M1086.9,1296.9H201.4c-6.9,0-13.6-2.8-18.5-7.7-4.9-4.9-7.7-11.6-7.7-18.5V26c0-6.9,2.8-13.5,7.7-18.4C187.9,2.7,194.5,0,201.4,0h885.5c6.9,0,13.6,2.8,18.5,7.7,4.9,4.9,7.7,11.6,7.7,18.5v1244.5c0,7-2.8,13.6-7.7,18.5s-11.6,7.7-18.5,7.7ZM201.4.9c-6.6,0-13,2.7-17.7,7.4-4.7,4.7-7.3,11.1-7.3,17.7v1244.8c0,6.6,2.6,13,7.3,17.7,4.7,4.7,11,7.3,17.7,7.3h885.5c6.6,0,13-2.7,17.7-7.3s7.3-11.1,7.4-17.7V26c0-6.6-2.7-13-7.4-17.7-4.7-4.7-11-7.3-17.7-7.3H201.4Z"/>
  <path class="cls-3" d="M2078.9,1296.9h-885.6c-6.9,0-13.6-2.8-18.5-7.7-4.9-4.9-7.7-11.6-7.7-18.5V26c0-6.9,2.9-13.5,7.8-18.4,4.9-4.9,11.5-7.6,18.4-7.6h885.6c6.9,0,13.5,2.8,18.4,7.6,4.9,4.9,7.6,11.4,7.7,18.3v1244.8c0,6.9-2.7,13.6-7.6,18.5-4.9,4.9-11.5,7.7-18.5,7.7ZM1193.3.9c-6.6,0-13,2.7-17.7,7.3-4.7,4.7-7.3,11.1-7.3,17.7v1244.8c0,6.6,2.7,13,7.3,17.7,4.7,4.7,11.1,7.3,17.7,7.3h885.6c6.6,0,13-2.7,17.7-7.3,4.7-4.7,7.3-11.1,7.3-17.7V26c0-6.6-2.6-13-7.3-17.7-4.7-4.7-11.1-7.3-17.7-7.3h-885.6Z"/>
  <path class="cls-7" d="M1372,979.8h541.2V289.7h-541.2v690.1Z"/>
  <path class="cls-14" d="M1354.7,979.8h561.3V289.7h-561.3v690.1Z"/>
  <path class="cls-17" d="M1378.5,952.3h514.7V308.8h-514.7v643.6Z"/>
  <path class="cls-7" d="M1378.4,952.3h14.9V308.8h-14.9v643.6Z"/>
  <path class="cls-7" d="M1391.7,753.8v14.9h502.7v-14.9h-502.7Z"/>
  <path class="cls-14" d="M1378.5,753.8h522.7v-25h-522.7v25Z"/>
  <path class="cls-14" d="M1013.2,626H318.5v879.7h694.7v-879.7Z"/>
  <path class="cls-7" d="M988.7,658.1H343.1v188.1h645.6v-188.1Z"/>
  <path class="cls-3" d="M379.8,688.5h-36.7v157.7h36.7v-157.7Z"/>
  <path class="cls-3" d="M557.1,688.5h-36.7v157.7h36.7v-157.7Z"/>
  <path class="cls-3" d="M758.5,684.6l-36.2,6.2,26.8,155.4,36.2-6.2-26.8-155.4Z"/>
  <path class="cls-3" d="M425.2,709.3h-36.7v136.9h36.7v-136.9Z"/>
  <path class="cls-3" d="M509.5,709.3h-36.7v136.9h36.7v-136.9Z"/>
  <path class="cls-3" d="M722.3,709.3h-36.7v136.9h36.7v-136.9Z"/>
  <path class="cls-3" d="M605.3,704.6l-35.8,8,29.7,133.6,35.8-8-29.7-133.6Z"/>
  <path class="cls-3" d="M456.9,680.7h-18.3v165.5h18.3v-165.5Z"/>
  <path class="cls-3" d="M675.1,680.7h-18.3v165.5h18.3v-165.5Z"/>
  <path class="cls-7" d="M343.1,1064.1h645.6v-188.1H343.1v188.1Z"/>
  <path class="cls-3" d="M952,1064.1h36.7v-157.7h-36.7v157.7Z"/>
  <path class="cls-3" d="M774.7,1064.1h36.7v-157.7h-36.7v157.7Z"/>
  <path class="cls-3" d="M546.6,1057.8l36.2,6.2,26.8-155.4-36.2-6.2-26.8,155.4Z"/>
  <path class="cls-3" d="M906.6,1064.1h36.7v-136.9h-36.7v136.9Z"/>
  <path class="cls-3" d="M822.3,1064.1h36.7v-136.9h-36.7v136.9Z"/>
  <path class="cls-3" d="M609.5,1064.1h36.7v-136.9h-36.7v136.9Z"/>
  <path class="cls-3" d="M696.8,1056.2l35.8,8,29.7-133.6-35.8-8-29.7,133.6Z"/>
  <path class="cls-3" d="M874.9,1064.1h18.3v-165.5h-18.3v165.5Z"/>
  <path class="cls-3" d="M656.7,1064.1h18.3v-165.5h-18.3v165.5Z"/>
  <path class="cls-3" d="M379.8,906.5h-36.7v157.7h36.7v-157.7Z"/>
  <path class="cls-3" d="M425.2,927.2h-36.7v136.9h36.7v-136.9Z"/>
  <path class="cls-3" d="M509.5,927.2h-36.7v136.9h36.7v-136.9Z"/>
  <path class="cls-3" d="M456.9,898.6h-18.3v165.5h18.3v-165.5Z"/>
  <path class="cls-7" d="M988.7,1093.9H343.1v188.1h645.6v-188.1Z"/>
  <path class="cls-3" d="M750.3,1124.3h-36.7v157.7h36.7v-157.7Z"/>
  <path class="cls-3" d="M951.7,1120.3l-36.2,6.2,26.8,155.4,36.2-6.2-26.8-155.4Z"/>
  <path class="cls-3" d="M618.5,1145.1h-36.7v136.9h36.7v-136.9Z"/>
  <path class="cls-3" d="M702.8,1145.1h-36.7v136.9h36.7v-136.9Z"/>
  <path class="cls-3" d="M915.5,1145.1h-36.7v136.9h36.7v-136.9Z"/>
  <path class="cls-3" d="M798.5,1140.4l-35.8,8,29.7,133.6,35.8-8-29.7-133.6Z"/>
  <path class="cls-3" d="M650.2,1116.5h-18.3v165.5h18.3v-165.5Z"/>
  <path class="cls-3" d="M868.3,1116.5h-18.3v165.5h18.3v-165.5Z"/>
  <path class="cls-3" d="M529.8,1120.4l-36.2,6.2,26.8,155.4,36.2-6.2-26.8-155.4Z"/>
  <path class="cls-3" d="M493.6,1145.1h-36.7v136.9h36.7v-136.9Z"/>
  <path class="cls-3" d="M376.6,1140.4l-35.8,8,29.7,133.6,35.8-8-29.7-133.6Z"/>
  <path class="cls-3" d="M446.4,1116.5h-18.3v165.5h18.3v-165.5Z"/>
  <path class="cls-7" d="M425.2,626v-13.1h21.1c-13-39.9-15.7-82.6-7.8-123.8,0,0-.3,54.1,20.6,54.5,32.1.6,34.4-54.5,34.4-54.5,0,0,7.7,78.8-21,123.8h21.9v13.1h-69.3Z"/>
  <path class="cls-7" d="M484.6,525.1c0,3.6-1.1,7.2-3.1,10.2-2,3-4.9,5.4-8.2,6.8-3.4,1.4-7,1.8-10.6,1-3.6-.7-6.8-2.5-9.4-5-2.6-2.6-4.3-5.8-5-9.4-.7-3.6-.3-7.2,1-10.6,1.4-3.4,3.7-6.2,6.8-8.2,3-2,6.6-3.1,10.2-3.1s9.5,1.9,13,5.4c3.4,3.4,5.4,8.1,5.4,13Z"/>
  <path class="cls-7" d="M567.1,626v-7.6l22.4-10.4-11.2-10.9,27.8-98.2v61.3s-3.8,0-3.8,8.8,12.7,6.8,12.7-.5-4.2-8.3-4.2-8.3v-63.9l25.5,97.2-11.4,14.5,22.9,10.4v7.6h-80.6Z"/>
  <path class="cls-7" d="M704,626v-6.1l20.6-4.7v-90.2l17.7-24.7,15.1,19.3v41.4l7.8-10.9,10.9-4.1,7.8,17.1-16.6,52.1,16.6,4.7v6.1h-79.8Z"/>
  <path class="cls-7" d="M840.6,628.8l25.3-128.3h77.4l-18.3,72.8,27.1,52.8-111.4,2.8Z"/>
  <path class="cls-3" d="M1862.5,1357.5c.7-4.6,16.7-115.4-15.4-153.7-3.2-4-7.3-7.3-11.9-9.6-4.6-2.3-9.7-3.5-14.8-3.6-64.9-1.5-73.7,50.4-73.8,51.1l7.7,1.2c.3-1.9,8-45.9,66-44.6,4,0,8,1,11.7,2.8,3.6,1.8,6.8,4.4,9.3,7.6,29.9,35.6,13.8,146.4,13.8,147.6l7.6,1.1Z"/>
  <path class="cls-3" d="M1866.5,1352.3l7.8-.3c0-1-2.6-102,47.2-122.9,48.8-20.4,70.7,21.6,71.6,23.4l6.9-3.5c-.2-.5-26-50.4-81.5-27-54.8,22.9-52.2,125.9-52,130.3Z"/>
  <path class="cls-3" d="M1866.1,1360.2c0-1.6.4-161.4,31.6-208.1,29.9-44.9,78-23.8,80.2-22.9l3.2-7.1c-.6,0-56.2-24.8-89.8,25.6-32.4,48.7-32.9,205.7-32.9,212.4h7.8Z"/>
  <path class="cls-7" d="M1811.1,1194.4s28.3,10.4,19.9,35.1c-8.4,24.6-98,65.3-98,65.3,0,0-37.5-34.4-3-90.3,34.5-55.9,80.4-27.7,81.2-10Z"/>
  <path class="cls-7" d="M1899.2,1143.7s-20.1-2.1-18.3-14.4c1.7-12.2,78.2-43.8,123.4,7.2,0,0-28.9,49.7-70.8,50.4-41.8.7-34.3-43.2-34.3-43.2Z"/>
  <path class="cls-7" d="M1919.8,1225.6s-13.8-11.2,1.1-16.6c14.9-5.5,88.5-4,89.2,68.8,0,0-85.6,14.3-96.3-13.5-10.7-27.7,6-38.7,6-38.7Z"/>
  <path class="cls-3" d="M1795.8,1505.7h132.9l14.3-145.5h-161.6l14.3,145.5Z"/>
  <path class="cls-7" d="M1774.4,1376.3h175.7v-32.1h-175.7v32.1Z"/>
  <path class="cls-2" d="M1146.5,1708.6c491.1,0,889.2-23.2,889.2-51.9s-398.1-51.9-889.2-51.9-889.2,23.2-889.2,51.9,398.1,51.9,889.2,51.9Z"/>
  <path class="cls-5" d="M1076.8,403.3H472.7c-26.3,0-47.7,21.4-47.7,47.7v1162.7c0,26.3,21.4,47.7,47.7,47.7h604.1c26.3,0,47.7-21.3,47.7-47.7V451c0-26.3-21.4-47.7-47.7-47.7Z"/>
  <path class="cls-9" d="M1101.1,445.4v1171.5c0,2.3-.4,4.5-1.3,6.6-.9,2.1-2.2,4-3.8,5.6-1.6,1.6-3.5,2.8-5.6,3.7s-4.4,1.3-6.6,1.2H464.6c-2.1,0-4.1-.4-6-1.1-1.9-.8-3.6-1.9-5.1-3.4-1.4-1.5-2.6-3.2-3.3-5.1-.8-1.9-1.1-4-1.1-6V444c0-1.8.2-3.6.8-5.3.6-1.7,1.6-3.3,2.8-4.6s2.7-2.4,4.4-3.2c1.7-.8,3.4-1.2,5.3-1.2h154.8c2.2,0,4.3.7,6,2s3.1,3,3.9,5l6.4,15.8c.8,2,2.2,3.7,3.9,5,1.8,1.2,3.9,1.9,6,1.9h263.6c2.2,0,4.3-.7,6-1.9,1.8-1.2,3.2-2.9,4-4.9l6.4-15.9c.8-2,2.1-3.8,3.9-5,1.8-1.2,3.9-1.9,6-2h152.6c4,.2,7.9,1.9,10.7,4.9,2.8,2.9,4.3,6.9,4.3,10.9Z"/>
  <path class="cls-18" d="M1101.1,502.9H448.9v1053.4h652.3V502.9Z"/>
  <path class="cls-10" d="M769.2,431.1c0,1.8-.5,3.6-1.6,5.1-1,1.5-2.5,2.7-4.2,3.4-1.7.7-3.5.9-5.3.5-1.8-.4-3.4-1.3-4.7-2.6s-2.1-3-2.5-4.8-.1-3.6.6-5.3c.7-1.7,1.9-3.1,3.5-4.1,1.5-1,3.3-1.5,5.2-1.4,2.4,0,4.7,1.1,6.3,2.8,1.7,1.7,2.6,4,2.6,6.4Z"/>
  <path class="cls-10" d="M787.3,431.1c0,1.1-.3,2.2-1,3.2-.6.9-1.5,1.7-2.6,2.1-1,.4-2.2.5-3.3.3-1.1-.2-2.1-.8-2.9-1.6-.8-.8-1.3-1.8-1.6-2.9-.2-1.1-.1-2.3.3-3.3.4-1,1.2-1.9,2.1-2.6s2.1-1,3.2-1,3,.6,4.1,1.7c1.1,1.1,1.7,2.5,1.7,4.1Z"/>
  <path class="cls-4" d="M1070.3,547.7H472.6v357.7h597.7v-357.7Z"/>
  <path class="cls-13" d="M1070.3,895.8H472.6v9.6h597.7v-9.6Z"/>
  <g id="duration">
    <path id="durationpath" class="cls-22" d="M494.3,895.8h-21.8v9.6h21.8v-9.6Z"/>
    <path id="durationcircle" class="cls-17" d="M505.6,900.9c0,2.2-.7,4.4-1.9,6.3-1.2,1.9-3,3.3-5.1,4.2-2.1.9-4.4,1.1-6.6.6-2.2-.4-4.2-1.5-5.8-3.1-1.6-1.6-2.7-3.6-3.1-5.8-.4-2.2-.2-4.5.6-6.6s2.3-3.9,4.2-5.1c1.9-1.2,4.1-1.9,6.3-1.9s5.9,1.2,8,3.3,3.3,5,3.3,8Z"/>
  </g>
  <path class="cls-16" d="M934,572.9h-21.2c-2.1,0-3.9,1.7-3.9,3.9v21.2c0,2.1,1.7,3.9,3.9,3.9h21.2c2.1,0,3.9-1.7,3.9-3.9v-21.2c0-2.1-1.7-3.9-3.9-3.9Z"/>
  <path class="cls-9" d="M944.5,565.2h-21.2c-2.1,0-3.9,1.7-3.9,3.9v21.2c0,2.1,1.7,3.9,3.9,3.9h21.2c2.1,0,3.9-1.7,3.9-3.9v-21.2c0-2.1-1.7-3.9-3.9-3.9Z"/>
  <path class="cls-9" d="M965.6,599.3c.8-5.9,3.3-11.5,7.2-16,3.9-4.5,9-7.9,14.7-9.6v-5.9l12.5,9.2-11.4,10.1v-5.9s-18.7,4.5-23.1,18.1Z"/>
  <path class="cls-9" d="M1038.1,570.3c0,.8-.2,1.5-.7,2.1-.4.6-1,1.1-1.7,1.4-.7.3-1.5.4-2.2.2-.8-.1-1.4-.5-2-1.1-.5-.5-.9-1.2-1.1-2-.2-.7,0-1.5.2-2.2.3-.7.8-1.3,1.4-1.7.6-.4,1.4-.6,2.1-.6,1,0,2,.4,2.7,1.1.7.7,1.1,1.7,1.1,2.7Z"/>
  <path class="cls-9" d="M1034.3,587.4c2.1,0,3.8-1.7,3.8-3.9s-1.7-3.9-3.8-3.9-3.8,1.7-3.8,3.9,1.7,3.9,3.8,3.9Z"/>
  <path class="cls-9" d="M1034.3,600.5c2.1,0,3.8-1.7,3.8-3.9s-1.7-3.9-3.8-3.9-3.8,1.7-3.8,3.9,1.7,3.9,3.8,3.9Z"/>
  <path class="cls-10" d="M767.6,983h-286c-2.4,0-4.8-1-6.5-2.7s-2.7-4.1-2.7-6.5c0-2.4,1.1-4.7,2.8-6.3,1.7-1.7,4-2.6,6.4-2.6h286c2.4,0,4.7.9,6.4,2.6,1.7,1.7,2.7,3.9,2.8,6.3,0,2.4-1,4.8-2.7,6.5-1.7,1.7-4.1,2.7-6.5,2.7Z"/>
  <path class="cls-10" d="M856.5,948h-375c-2.4,0-4.8-1-6.5-2.7-1.7-1.7-2.7-4.1-2.7-6.5s1-4.8,2.7-6.5c1.7-1.7,4.1-2.7,6.5-2.7h375c2.4,0,4.8,1,6.5,2.7,1.7,1.7,2.7,4.1,2.7,6.5s-1,4.8-2.7,6.5c-1.7,1.7-4.1,2.7-6.5,2.7Z"/>
  <path class="cls-21" d="M1024.2,930l18.7,18.7,18.7-18.7h-37.3Z"/>
  <path class="cls-21" d="M1070.3,1025.2H472.6v222h597.7v-222Z"/>
  <path class="cls-8" d="M915.5,1060.6h-110.8c-2.2,0-4.2-.9-5.7-2.4-1.5-1.5-2.4-3.6-2.4-5.7s.9-4.2,2.4-5.7c1.5-1.5,3.6-2.4,5.7-2.4h110.8c2.2,0,4.2.9,5.7,2.4,1.5,1.5,2.4,3.6,2.4,5.7s-.9,4.2-2.4,5.7c-1.5,1.5-3.6,2.4-5.7,2.4Z"/>
  <path class="cls-8" d="M1019.3,1093.9h-214.6c-2.2,0-4.2-.9-5.7-2.4-1.5-1.5-2.4-3.6-2.4-5.7s.9-4.2,2.4-5.7c1.5-1.5,3.6-2.4,5.7-2.4h214.6c2.2,0,4.2.9,5.7,2.4,1.5,1.5,2.4,3.6,2.4,5.7s-.2,2.1-.6,3.1c-.4,1-1,1.9-1.8,2.6-.8.8-1.6,1.3-2.6,1.8-1,.4-2,.6-3.1.6Z"/>
  <path class="cls-21" d="M1070.3,1273.4H472.6v222h597.7v-222Z"/>
  <path class="cls-8" d="M915.5,1308.8h-110.8c-2.2,0-4.2-.8-5.7-2.4-1.5-1.5-2.4-3.6-2.4-5.7s.9-4.2,2.4-5.7c1.5-1.5,3.6-2.4,5.7-2.4h110.8c2.2,0,4.2.8,5.7,2.4,1.5,1.5,2.4,3.6,2.4,5.7s-.9,4.2-2.4,5.7c-1.5,1.5-3.6,2.4-5.7,2.4Z"/>
  <path class="cls-8" d="M1019.3,1342.2h-214.6c-2.2,0-4.2-.9-5.7-2.4-1.5-1.5-2.4-3.6-2.4-5.7s.9-4.2,2.4-5.7c1.5-1.5,3.6-2.4,5.7-2.4h214.6c2.1,0,4.2.9,5.7,2.4,1.5,1.5,2.3,3.6,2.3,5.7s-.8,4.2-2.3,5.7c-1.5,1.5-3.5,2.4-5.7,2.4Z"/>
  <path class="cls-10" d="M522.4,476.9h8.1v-10.7h-8.1v10.7Z"/>
  <path class="cls-10" d="M509.3,476.9h8.1v-14.3h-8.1v14.3Z"/>
  <path class="cls-10" d="M496.2,476.9h8.1v-17.9h-8.1v17.9Z"/>
  <path class="cls-10" d="M483,476.9h8.1v-21.5h-8.1v21.5Z"/>
  <path class="cls-10" d="M1029,462.2h-4.8v10.7h4.8v-10.7Z"/>
  <path class="cls-10" d="M1032.2,476.9h38.1v-18.6h-38.1v18.6Z"/>
  <path class="cls-5" d="M649.3,760.6c0-6.8,2.7-13.4,7.6-18.2,4.8-4.8,11.4-7.5,18.2-7.5,2.5,0,5,.4,7.4,1.1-.4-2.6-.6-5.3-.6-7.9,0-14.5,5.8-28.3,16-38.5,10.2-10.2,24.1-16,38.5-16,3.4,0,6.7.3,10,.9,5.4-8.8,13.5-15.6,23.1-19.4,9.6-3.8,20.1-4.4,30.1-1.7,9.9,2.7,18.7,8.6,25.1,16.7,6.3,8.1,9.9,18.1,10,28.4h.8c11.7,0,22.8,4.6,31.1,12.9,8.2,8.2,12.9,19.4,12.9,31.1s-4.6,22.8-12.9,31.1-19.4,12.9-31.1,12.9h-161.3c-6.7-.2-13-3.1-17.7-7.9-4.6-4.8-7.2-11.2-7.2-17.9Z"/>
  <g id="movie2">
    <path class="cls-4" d="M762.9,1044.3h-268.3v183.6h268.3v-183.6Z"/>
    <path class="cls-17" d="M592.3,1098.5v73.7l70.9-36.8-70.9-36.8Z"/>
  </g>
  <g id="movie3">
    <path class="cls-4" d="M762.9,1292.6h-268.3v183.6h268.3v-183.6Z"/>
    <path class="cls-17" d="M592.3,1344.6v73.7l70.9-36.8-70.9-36.8Z"/>
  </g>
  <g id="status">
    <path class="cls-6" d="M764.4,684.3c-8.7,0-17.1,2.6-24.4,7.4-7.2,4.8-12.8,11.7-16.1,19.7-3.3,8-4.2,16.8-2.5,25.3,1.7,8.5,5.9,16.3,12,22.4,6.1,6.1,13.9,10.3,22.4,12,8.5,1.7,17.3.8,25.3-2.5,8-3.3,14.9-8.9,19.7-16.1,4.8-7.2,7.4-15.7,7.4-24.4s-4.6-22.8-12.8-31c-8.2-8.2-19.4-12.8-31-12.8ZM764.4,765.5c-7.4,0-14.6-2.2-20.8-6.3s-11-10-13.8-16.8c-2.8-6.8-3.6-14.4-2.1-21.6,1.4-7.3,5-13.9,10.2-19.2,5.2-5.2,11.9-8.8,19.2-10.2,7.3-1.4,14.8-.7,21.6,2.1,6.8,2.8,12.7,7.6,16.8,13.8s6.3,13.4,6.3,20.8-3.9,19.4-11,26.5c-7,7-16.5,11-26.5,11Z"/>
    <path class="cls-6" d="M733.8,697.1c-7.1,7-11.6,16.3-12.7,26.2-1.1,9.9,1.2,19.9,6.6,28.4,5.4,8.4,13.4,14.8,22.9,18,9.5,3.2,19.7,3.1,29.1-.4,9.4-3.4,17.3-10,22.5-18.5,5.2-8.6,7.2-18.6,5.9-28.5-1.4-9.9-6.1-19-13.3-25.9-7.3-6.9-16.7-11-26.6-11.8-.4,0-.9,0-1.3.2-.4.1-.8.4-1.1.7s-.6.7-.8,1.1c-.2.4-.3.8-.3,1.3,0,.8.3,1.6.8,2.2.5.6,1.3,1,2.1,1,8.5.6,16.6,4.2,22.8,10,6.2,5.8,10.3,13.7,11.5,22.1,1.2,8.5-.6,17.1-5,24.4s-11.2,13-19.2,15.9c-8,3-16.8,3.1-24.9.3-8.1-2.7-15-8.2-19.6-15.4-4.6-7.2-6.6-15.8-5.6-24.3,1-8.5,4.8-16.4,10.9-22.4.5-.6.8-1.4.8-2.2s-.3-1.6-.8-2.2c-.3-.3-.6-.6-1-.8-.4-.2-.8-.3-1.2-.3s-.9,0-1.3.2c-.4.1-.8.4-1.1.7Z"/>
  </g>
  <g id="percentage">
    <path class="cls-17" d="M753.7,731.8c0,2.9-2.5,4.6-6.5,4.6s-6.4-1.8-6.4-4.6c0-.9.3-1.9.9-2.6.6-.8,1.4-1.3,2.3-1.5-.8-.2-1.5-.7-1.9-1.4-.5-.7-.7-1.5-.7-2.3,0-2.7,2.3-4.6,5.8-4.6s5.9,1.7,5.9,4.6c0,.8-.2,1.6-.7,2.3-.5.7-1.2,1.2-1.9,1.4.9.2,1.7.8,2.3,1.5.6.7.9,1.7.9,2.6ZM751.9,731.8c0-2-1.7-3.3-4.6-3.3s-4.6,1.3-4.6,3.3,1.7,3.4,4.6,3.4,4.8-1.5,4.8-3.4h-.2ZM747.3,727.2c2.6,0,4.2-1.2,4.2-3s-1.7-3-4.2-3-4.1,1.1-4.1,3,1.4,2.9,4,2.9h.1Z"/>
    <path class="cls-17" d="M768.1,728c0,5.7-3.1,8.6-7.6,8.6-1.4,0-2.8-.3-4-.9l.7-1.4c1,.6,2.1.9,3.2.8,3.6,0,5.9-2.3,5.9-6.8,0-.4,0-.9,0-1.3-.5.9-1.2,1.7-2.1,2.2-.9.5-1.9.7-3,.7-.7,0-1.4,0-2.1-.2s-1.3-.6-1.8-1c-.5-.5-1-1-1.2-1.7-.3-.6-.4-1.3-.4-2.1,0-.7.2-1.4.5-2.1.3-.7.7-1.2,1.3-1.7.5-.5,1.2-.8,1.8-1.1.7-.2,1.4-.3,2.1-.2,4.5,0,6.7,3.1,6.7,8.3ZM765.9,724.6c0-1.8-1.6-3.6-4.6-3.6-.5,0-1,0-1.5.1-.5.2-.9.4-1.3.8-.4.3-.7.8-.9,1.2-.2.5-.3,1-.3,1.5,0,2.2,1.6,3.6,4.2,3.6.5,0,1.1,0,1.6,0,.5-.1,1-.4,1.4-.7.4-.3.8-.8,1-1.3.2-.5.4-1,.4-1.6Z"/>
    <path class="cls-17" d="M770.4,724.2c0-2.7,1.5-4.6,3.8-4.6s3.8,1.8,3.8,4.6-1.6,4.6-3.8,4.6-3.8-1.8-3.8-4.6ZM776.8,724.2c0-2.2-1-3.4-2.6-3.4s-2.6,1.3-2.6,3.4,1,3.5,2.6,3.5,2.4-1.3,2.4-3.5h.1ZM784.3,719.6h1.4l-11.4,16.7h-1.4l11.4-16.7ZM780.7,731.9c0-2.7,1.5-4.6,3.8-4.6s3.8,1.8,3.8,4.6-1.5,4.6-3.8,4.6-3.9-1.7-3.9-4.4v-.2ZM787,731.9c0-2.2-1-3.4-2.6-3.4s-2.6,1.3-2.6,3.4,1,3.4,2.6,3.4,2.4-1.1,2.4-3.3v-.2Z"/>
  </g>
  <g id="path">
    <path class="cls-9" d="M1434.2,237.5h-33.6v19.2h33.6v-19.2Z"/>
    <path class="cls-9" d="M1378.1,237.5h-33.6v19.2h33.6v-19.2Z"/>
    <path class="cls-9" d="M1321.9,237.5h-33.6v19.2h33.6v-19.2Z"/>
    <path class="cls-9" d="M1265.7,237.5h-33.6v19.2h33.6v-19.2Z"/>
    <path class="cls-9" d="M1209.6,237.5h-33.6v19.2h33.6v-19.2Z"/>
    <path class="cls-9" d="M1153.4,237.5h-33.6v19.2h33.6v-19.2Z"/>
    <path class="cls-9" d="M1097.3,237.5h-33.6v19.2h33.6v-19.2Z"/>
    <path class="cls-9" d="M1041.1,237.5h-33.6v19.2h33.6v-19.2Z"/>
    <path class="cls-9" d="M984.9,237.5h-33.6v19.2h33.6v-19.2Z"/>
    <path class="cls-9" d="M928.8,237.5h-33.6v19.2h33.6v-19.2Z"/>
  </g>
  <path class="cls-9" d="M632.9,270.2c0-4.7,1.1-9.3,3.2-13.6,2.1-4.2,5.2-7.9,9-10.7,3.8-2.8,8.2-4.7,12.8-5.5,4.6-.8,9.4-.5,13.9.8-.4-3-.6-6.1-.6-9.2,0-17,6.7-33.2,18.7-45.2s28.2-18.7,45.2-18.7c4,0,7.9.4,11.8,1.1,6.3-10.4,15.8-18.4,27.1-22.9,11.3-4.5,23.7-5.2,35.4-2,11.7,3.2,22.1,10.1,29.5,19.7s11.5,21.3,11.7,33.5h.9c13.4.4,26.1,6,35.5,15.6s14.6,22.5,14.6,35.9-5.2,26.3-14.6,35.9-22.1,15.2-35.5,15.6h-189c-7.9-.2-15.5-3.5-21-9.1-5.5-5.7-8.6-13.3-8.5-21.3Z"/>
  <path class="cls-10" d="M632.9,270.2c0-4.7,1.1-9.3,3.2-13.6,2.1-4.2,5.2-7.9,9-10.7,3.8-2.8,8.2-4.7,12.8-5.5,4.6-.8,9.4-.5,13.9.8-.4-3-.6-6.1-.6-9.2,0-17,6.7-33.2,18.7-45.2s28.2-18.7,45.2-18.7c4,0,7.9.4,11.8,1.1,6.3-10.4,15.8-18.4,27.1-22.9,11.3-4.5,23.7-5.2,35.4-2,11.7,3.2,22.1,10.1,29.5,19.7s11.5,21.3,11.7,33.5h.9c13.4.4,26.1,6,35.5,15.6s14.6,22.5,14.6,35.9-5.2,26.3-14.6,35.9-22.1,15.2-35.5,15.6h-189c-7.9-.2-15.5-3.5-21-9.1-5.5-5.7-8.6-13.3-8.5-21.3Z"/>
  <path id="arrowdown" class="cls-9" d="M792.9,315.7v-83.6h-38.4v83.6h-31.2l50.4,63.3,50.4-63.3h-31.2Z"/>
  <path class="cls-9" d="M1358.7,270.2c0-4.7,1.1-9.3,3.2-13.6,2.1-4.2,5.2-7.9,8.9-10.7,3.8-2.8,8.2-4.7,12.8-5.5,4.6-.8,9.4-.5,13.9.8-.4-3-.7-6.1-.7-9.2,0-17,6.9-33.2,18.9-45.2,12-12,28.3-18.7,45.3-18.7,4,0,7.9.4,11.8,1.1,6.3-10.4,15.8-18.4,27.1-22.9,11.3-4.5,23.7-5.2,35.4-2,11.7,3.2,22,10.1,29.5,19.7,7.4,9.6,11.5,21.3,11.7,33.4h1c13.4.4,26.1,6,35.5,15.6,9.3,9.6,14.6,22.5,14.6,35.9s-5.2,26.3-14.6,35.9c-9.3,9.6-22.1,15.2-35.5,15.6h-189.4c-7.9-.2-15.4-3.5-20.9-9.2-5.5-5.7-8.5-13.3-8.5-21.2Z"/>
  <path class="cls-10" d="M1358.7,270.2c0-4.7,1.1-9.3,3.2-13.6,2.1-4.2,5.2-7.9,8.9-10.7,3.8-2.8,8.2-4.7,12.8-5.5,4.6-.8,9.4-.5,13.9.8-.4-3-.7-6.1-.7-9.2,0-17,6.9-33.2,18.9-45.2,12-12,28.3-18.7,45.3-18.7,4,0,7.9.4,11.8,1.1,6.3-10.4,15.8-18.4,27.1-22.9,11.3-4.5,23.7-5.2,35.4-2,11.7,3.2,22,10.1,29.5,19.7,7.4,9.6,11.5,21.3,11.7,33.4h1c13.4.4,26.1,6,35.5,15.6,9.3,9.6,14.6,22.5,14.6,35.9s-5.2,26.3-14.6,35.9c-9.3,9.6-22.1,15.2-35.5,15.6h-189.4c-7.9-.2-15.4-3.5-20.9-9.2-5.5-5.7-8.5-13.3-8.5-21.2Z"/>
  <path id="arrowup" class="cls-9" d="M1480.1,270.9v358.8h38.4v-358.8h31.2l-50.4-63.3-50.5,63.3h31.3Z"/>
  <g id="movie">
    <path class="cls-5" d="M1417.1,582v112.7h164.6v-112.7h-164.6ZM1429.5,687.1h-8.6v-8.4h8.6v8.4ZM1429.5,669.3h-8.6v-8.6h8.6v8.6ZM1429.5,651.5h-8.6v-8.6h8.6v8.6ZM1429.5,633.7h-8.6v-8.6h8.6v8.6ZM1429.5,615.9h-8.6v-8.6h8.6v8.6ZM1429.5,598.2h-8.6v-8.6h8.6v8.6ZM1577.9,687.1h-8.6v-8.4h8.6v8.4ZM1577.9,669.3h-8.6v-8.6h8.6v8.6ZM1577.9,651.5h-8.6v-8.6h8.6v8.6ZM1577.9,633.7h-8.6v-8.6h8.6v8.6ZM1577.9,615.9h-8.6v-8.6h8.6v8.6ZM1577.9,598.2h-8.6v-8.6h8.6v8.6Z"/>
    <path class="cls-17" d="M1477.6,615.8v45.2l43.5-22.6-43.5-22.6Z"/>
  </g>
  <path class="cls-9" d="M1877.5,1363.5h-491.9v-56.6c0-5.1,2-10,5.6-13.6s8.5-5.6,13.6-5.6h453.4c5.1,0,10,2,13.6,5.6,3.6,3.6,5.6,8.5,5.6,13.6v56.6h0Z"/>
  <path class="cls-10" d="M1877.5,1363.5h-491.9v-56.6c0-5.1,2-10,5.6-13.6s8.5-5.6,13.6-5.6h453.4c5.1,0,10,2,13.6,5.6,3.6,3.6,5.6,8.5,5.6,13.6v56.6h0Z"/>
  <path class="cls-10" d="M1877.5,1363.5h-178.3v-56.6c0-5.1,2-10,5.6-13.6s8.5-5.6,13.6-5.6h139.7c5.1,0,10,2,13.6,5.6,3.6,3.6,5.6,8.5,5.6,13.6v56.6h0Z"/>
  <path class="cls-19" d="M1538.5,1661.4h14.6l9.8-302.1h-24.4v302.1Z"/>
  <path class="cls-19" d="M1863.8,1661.4h14.6v-302.1h-24.4l9.8,302.1Z"/>
  <path class="cls-19" d="M1715.5,1661.4h14.6v-302.1h-24.4l9.8,302.1Z"/>
  <path class="cls-19" d="M1390.2,1661.4h14.6l9.8-302.1h-24.4v302.1Z"/>
  <path class="cls-9" d="M1883.4,1359.3h-509.5c-3.7,0-6.7,3-6.7,6.6v25.4c0,3.7,3,6.7,6.7,6.7h509.5c3.7,0,6.7-3,6.7-6.7v-25.4c0-3.7-3-6.6-6.7-6.6Z"/>
  <path class="cls-18" d="M1883.4,1359.3h-509.5c-3.7,0-6.7,3-6.7,6.6v25.4c0,3.7,3,6.7,6.7,6.7h509.5c3.7,0,6.7-3,6.7-6.7v-25.4c0-3.7-3-6.6-6.7-6.6Z"/>
  <path class="cls-15" d="M1630.4,908c-28.8,4.6-56.6,93-68.8,100.3-12.2,7.3-1.7-82.9-1.7-82.9l-22.9-3.1s-27.2,136.3,12.5,135.3c30.3-.8,66.3-51.4,75.2-77.1l5.7-72.5Z"/>
  <path class="cls-12" d="M1630.4,908c-28.8,4.6-56.6,93-68.8,100.3-12.2,7.3-1.7-82.9-1.7-82.9l-22.9-3.1s-27.2,136.3,12.5,135.3c30.3-.8,66.3-51.4,75.2-77.1l5.7-72.5Z"/>
  <path class="cls-15" d="M1438.9,1620.3l26.1-2.6.6-36.7.5-33.7-31.4-1.9,2.2,39.7,2,35.3Z"/>
  <path class="cls-19" d="M1472.1,1617.5c.3-2.9-35.1-5.5-35.1-5.5,0,0-24.7,19-46.4,21-21.7,2-11.7,16.2,11.7,19.5l58.1,8.1c16.3,2.3,8-13.3,11.7-43.1Z"/>
  <path class="cls-20" d="M1436.9,1585.8l28.7-4.2.5-34-31.5-2.1,2.3,40.3Z"/>
  <path class="cls-19" d="M1388.2,1267.2c6.9-39.1,37.1-78.9,243.1-112.5l95.9,144.1s-117.3-6.6-245.1-6.6c0,0-4.9,156.9-12.3,273.7l-37.8.7s-50.6-260.4-43.7-299.5Z"/>
  <path class="cls-16" d="M1388.2,1267.2c6.9-39.1,37.1-78.9,243.1-112.5l95.9,144.1s-117.3-6.6-245.1-6.6c0,0-4.9,156.9-12.3,273.7l-37.8.7s-50.6-260.4-43.7-299.5Z"/>
  <path class="cls-15" d="M1581.5,1624l25.4-6.5-4.9-36.4-4.5-33.4-31.4,2.8,8.1,38.9,7.3,34.6Z"/>
  <path class="cls-19" d="M1613.8,1616.3c0-2.9-35.6,0-35.6,0,0,0-21.6,22.5-42.7,27.5-21.1,5-9.2,17.8,14.6,17.6l58.6-.7c16.8-.2,6.1-14.3,5.1-44.3Z"/>
  <path class="cls-20" d="M1574.5,1590.2l27.7-8.4-4.6-33.7-31.4,2.6,8.3,39.5Z"/>
  <path class="cls-19" d="M1602.2,1174.7s7.6-11.2,25.2-68.8l139.8,9.2s63.9,117.7,14.4,167.9c-11,11.1-32.4,16.1-54.4,16,0,0-27.5,0-152.1-5.6,0,0,18.6,155.9,28.8,272.6l-37.3,6.3s-95.8-265.6-94.6-305.3c1.2-39.7-13.4-60.3,130.1-92.3Z"/>
  <path class="cls-9" d="M1609.4,1554.4l-51.2,5.8,9.9,20.1,41.5-5.3v-20.6Z"/>
  <path class="cls-9" d="M1476.8,1555.6l-51.5-1.9,6.7,21.3,41.8,1,2.9-20.4Z"/>
  <path class="cls-15" d="M1627.4,1105.7l139.8,9.2s1-37.5,5.8-72c1.5-12,3.9-23.9,7.2-35.6,3.6-11.9,8.2-25.4,13.8-40.9.7-1.9,1.5-3.8,2.2-5.8,1.8-4.9,3.8-9.9,5.8-15.2v-.2c1.1-2.8,1.5-5.8,1.3-8.7-.2-3-1.1-5.9-2.5-8.5-1.4-2.6-3.4-4.9-5.8-6.7-2.4-1.8-5.1-3-8-3.6-11.5-2.5-23-4.6-34.7-6.2-20.9-3.1-42.1-5-63.2-5.6-11,0-22.6.3-32.7.8-14.9.7-26.2,1.7-26.2,1.7,0,0-4.6.9-7.3,25.5,0,1.2-.3,2.6-.4,4-.4,5-.7,11.5-.8,19.2-.3,31.7,1.4,84.6,5.7,148.8Z"/>
  <path class="cls-9" d="M1627.4,1105.7l139.8,9.2s1.9-70.8,13-107.6c3.6-11.9,8.2-25.4,13.8-40.9-57.2-6-114.7-9.2-172.2-9.4-.4,31.7,1.3,84.7,5.6,148.8Z"/>
  <path class="cls-10" d="M1682.6,1121.9c0,1.4-.4,2.8-1.2,3.9-.8,1.2-1.9,2.1-3.2,2.6-1.3.5-2.7.7-4.1.4-1.4-.3-2.6-.9-3.6-1.9-1-1-1.7-2.2-1.9-3.6-.3-1.4-.1-2.8.4-4.1.5-1.3,1.4-2.4,2.6-3.2,1.2-.8,2.5-1.2,3.9-1.2s3.7.7,5,2.1c1.3,1.3,2.1,3.1,2.1,5Z"/>
  <path class="cls-13" d="M1767.2,1114.9l5.9,14.5-148.7-7.5,3.1-17.9,139.7,10.8Z"/>
  <path class="cls-17" d="M1688.6,1109.4l-1.7,16.3c0,.9-.5,1.7-1.2,2.2-.7.6-1.5.8-2.4.8l-21.8-1.7c-.4,0-.9-.2-1.3-.4-.4-.2-.7-.5-1-.8-.3-.3-.5-.7-.6-1.2-.1-.4-.2-.9-.2-1.3l1.6-16.1c0-.9.5-1.7,1.1-2.2.7-.6,1.5-.9,2.4-.8l22,1.5c.4,0,.9.1,1.3.3.4.2.8.5,1,.8.3.3.5.7.6,1.2s.2.9.1,1.3Z"/>
  <path class="cls-5" d="M1725.1,1111.4l1.7,19.2h5.4l-.9-19.2h-6.3Z"/>
  <path class="cls-5" d="M1646.7,1105.6l-2.2,20.1h-5l1.7-20.9,5.4.8Z"/>
  <path class="cls-5" d="M1626.6,889.9c-.2,0-.5,0-.7-.2-.2-.1-.3-.3-.4-.6,0-.3,0-.6,0-.9.1-.3.4-.5.7-.6,35.7-11.7,27.8-51.6,27.5-53.3,0-.1,0-.3,0-.4,0-.2,0-.3.2-.4s.2-.2.3-.3c.1,0,.3-.1.4-.2.3,0,.6,0,.9.2s.4.4.5.7c0,.4,8.6,43.6-29,55.9h-.4Z"/>
  <path class="cls-5" d="M1735.1,737.1c-19.1-10.7-40.8-15.8-62.6-14.7-38,1.3-56.3,41.3-46.7,71.6,9.6,30.4,29.3,46.2,33.5,55.4,4.1,9.2-.4,38-9.6,50.2,0,0,103.1,1.9,123.6-15.6,20.5-17.5,0-40,0-73.4s-8.2-71-38.1-73.6Z"/>
  <path class="cls-15" d="M1696.8,893.8c1.6,10.3,1.1,20.8-1.3,30.9l47-6.9c-8.7-5.7-11.5-39.5-13.1-53.3-.7-5.6-1-11.3-1.1-17v-5.9l-17.2,7.8-28.1,12.6c6.5,9.6,11.2,20.3,13.8,31.6Z"/>
  <path class="cls-20" d="M1683.1,862.2c6.5,9.5,11.2,20.2,13.8,31.5,14-5.6,25.5-15.9,32.6-29.3-.7-5.6-1-11.3-1.1-17-6.1.6-11.8,1.2-17.2,2l-28,12.8Z"/>
  <path class="cls-15" d="M1686.9,748.6c-37.4,4.1-47.2,25.5-45.9,64.2,1.9,48.6,16.4,81.6,62.1,66.1,62.1-20.8,45.9-137.2-16.2-130.3Z"/>
  <path class="cls-11" d="M1665.1,808.2c-2.4,5.9-5.4,11.5-9.2,16.7,1.3,1.4,2.9,2.5,4.7,3.1,1.8.6,3.8.6,5.6.1l-1.2-19.9Z"/>
  <path class="cls-5" d="M1687.7,802.5c.3,3.1,2.2,5.5,4.2,5.3,2.1-.2,3.5-2.8,3.2-5.9-.3-3.1-2.2-5.4-4.2-5.2-2.1.2-3.2,2.8-3.2,5.9Z"/>
  <path class="cls-5" d="M1691.8,796.7l-6.9-2s3.8,5.3,6.9,2Z"/>
  <path class="cls-5" d="M1649.3,805.3c.3,3.1,2.1,5.4,4.2,5.2,2.1-.2,3.5-2.8,3.2-5.9-.2-3.1-2.2-5.4-4.2-5.2-2.1.2-3.5,2.8-3.3,5.9Z"/>
  <path class="cls-5" d="M1653.4,799.4l-6.9-2s3.8,5.1,6.9,2Z"/>
  <path class="cls-5" d="M1702.1,782.2c-.2,0-.4,0-.6-.1-.2,0-.4-.2-.5-.3-2.1-1.7-4.6-2.8-7.3-3.4-2.7-.6-5.4-.6-8.1,0-.4.1-.9,0-1.2-.2-.4-.2-.7-.6-.8-1,0-.4,0-.9.2-1.2.2-.4.6-.6,1-.7,3.2-.8,6.5-.8,9.7,0,3.2.7,6.2,2.2,8.7,4.3.2.2.3.3.4.5,0,.2.1.4.1.6s0,.4-.1.6c0,.2-.2.4-.4.5-.1.2-.3.3-.5.4-.2,0-.4.1-.6.1Z"/>
  <path class="cls-5" d="M1643.3,784.5c-.3,0-.7,0-1-.3-.3-.2-.5-.5-.6-.8-.1-.3-.1-.7,0-1,0-.3.3-.6.5-.8,2.1-2,4.6-3.5,7.4-4.4,2.8-.9,5.7-1.1,8.6-.7.2,0,.4.1.6.3.2.1.3.3.4.5.1.2.2.4.2.6,0,.2,0,.4,0,.7,0,.4-.4.8-.8,1-.4.2-.8.3-1.3.2-2.4-.3-4.8,0-7.1.8-2.3.8-4.3,2.1-6,3.8-.3.2-.7.2-1.1.2Z"/>
  <path class="cls-5" d="M1734.8,807.1s-20.9-28.8-20.9-52.8c0,0-77.5-22.1-72.8,53.6,0,0-14.7-66,49.5-74.7,64.2-8.7,74.3,85.5,44.2,117.2,0,0,12.9-25.4,0-43.3Z"/>
  <path class="cls-15" d="M1729.5,815.7c-.1-4.4,1.5-8.6,4.5-11.8,3-3.2,7.1-5,11.5-5.2,11.7,0,19.9,23.2-8.3,32.1-4,1.2-6.8-2.5-7.7-15.1Z"/>
  <path class="cls-5" d="M1673.4,838c2.7,3.3,5.2,6.8,7.4,10.5.7-.3,1.4-.5,2.1-.8,9.6-3.9,12.8-8.8,13.3-13.1.2-2.1,0-4.2-.8-6.2-.4-1.2-.9-2.2-1.6-3.3-4.8,5-10.7,8.9-17.2,11.5-2,1.1-3.2,1.5-3.2,1.5Z"/>
  <path class="cls-17" d="M1676.6,836.6l2.2,3.1c9.2-3.7,14.9-7.4,16.5-11.3-.4-1.1-.9-2.2-1.6-3.3-4.8,5-10.7,8.9-17.2,11.5Z"/>
  <path class="cls-1" d="M1683.1,847.7c9.6-3.9,12.8-8.8,13.3-13.1-3.6,1.5-6.9,3.7-9.8,6.4-1.9,1.8-3.1,4.2-3.6,6.7Z"/>
  <path class="cls-5" d="M1635.3,803.2c-.1,0-.3,0-.4-.1-.1,0-.2-.2-.3-.3,0-.1-.2-.3-.2-.4,0-.1,0-.3,0-.5,6.9-56,79.1-48.9,79.8-48.8.2,0,.3,0,.4.1.1,0,.2.2.3.3,0,.1.2.2.2.4,0,.1,0,.3,0,.4,0,.2,0,.3-.1.4s-.2.3-.3.4c-.1,0-.2.2-.4.2-.1,0-.3,0-.4,0-.7,0-70.7-7-77.3,46.8,0,.3-.2.6-.4.8-.2.2-.5.3-.8.2Z"/>
  <path class="cls-5" d="M1626.9,765.9c-.3,0-.5-.1-.8-.3-.2-.2-.3-.4-.4-.7,0-.4-5.3-36.7,35.2-46.9,38.8-9.6,64.8,12,74.6,20.1l1.2,1c.2.2.4.5.4.8,0,.3,0,.6-.3.8-.2.2-.5.4-.8.4-.3,0-.6,0-.8-.3l-1.2-1c-9.5-7.9-34.9-28.9-72.6-19.7-38.4,9.5-33.7,42.9-33.5,44.3,0,.3,0,.6-.2.8-.2.2-.5.4-.7.4h-.2Z"/>
  <path class="cls-5" d="M1780.1,889c-.2,0-.4,0-.6-.2-.2-.1-.3-.3-.4-.5,0-.1-.1-.3-.1-.4s0-.3,0-.4c0-.1.1-.3.2-.4.1-.1.2-.2.4-.3,2.4-.9,4.6-2.4,6.4-4.2,1.8-1.9,3.2-4.1,4.1-6.5,3-8.2.8-19.5-6.4-33.4-8.1-15.5-14.2-31.9-18.1-49,0-.2,0-.3,0-.5,0-.2,0-.3.2-.4,0-.1.2-.2.3-.3.1,0,.3-.1.4-.2.2,0,.3,0,.5,0,.2,0,.3.1.4.2.1,0,.2.2.3.4,0,.1.1.3.1.5,3.8,16.8,9.8,33,17.8,48.3,7.5,14.6,9.7,26.5,6.5,35.3-1,2.7-2.5,5.2-4.6,7.3-2,2.1-4.5,3.7-7.2,4.8-.1,0-.2,0-.3,0Z"/>
  <path class="cls-5" d="M1683.7,973.1c-.2,0-.3,0-.5,0-.2,0-.3-.2-.4-.3-.1-.1-.2-.3-.2-.5,0-.4-6.9-38.5,11.8-67.2.2-.3.4-.4.7-.5.3,0,.6,0,.8.1.3.2.4.4.5.7,0,.3,0,.6-.1.9-16,24.5-12.8,56.2-11.7,63.8,45.6-29.3,59.6-61,59.6-61.3.1-.3.3-.5.6-.6.3-.1.6-.1.9,0,.3.1.5.3.6.6.1.3.1.6,0,.9,0,.3-14.5,33.2-62,63.2-.2.1-.4.1-.6,0Z"/>
  <path class="cls-5" d="M1683.6,971.5s-10.1,13-3.1,13.8c7,.8,3.1-13.8,3.1-13.8Z"/>
  <path class="cls-15" d="M1544.7,870.4s-20.7-.4-21.5,3.3.6,34,3.4,38.2c3,3.9,6.5,7.3,10.3,10.4l-2,53.8,12.3,4.4,11.2-49.3s12.7-12.4,9.2-28.2c-3.5-15.7-23-32.7-23-32.7Z"/>
  <path class="cls-12" d="M1544.7,870.4s-20.7-.4-21.5,3.3.6,34,3.4,38.2c3,3.9,6.5,7.3,10.3,10.4l-2,53.8,12.3,4.4,11.2-49.3s12.7-12.4,9.2-28.2c-3.5-15.7-23-32.7-23-32.7Z"/>
  <path class="cls-5" d="M1579.9,896.9c0,.5,0,.9-.2,1.3-.2.4-.4.8-.8,1.1-.3.3-.7.6-1.2.7-.4.1-.9.2-1.4.1l-35.3-2.8c-1,0-1.9-.5-2.6-1.2-.7-.7-1.1-1.6-1.1-2.6l-2.5-70.3c0-.5,0-1,.2-1.4.2-.5.4-.9.7-1.2.3-.4.7-.6,1.2-.8.4-.2.9-.3,1.4-.3l35.3,2.8c1,.2,1.9.7,2.6,1.5.7.8,1.1,1.8,1.1,2.8l2.5,70.3Z"/>
  <path class="cls-8" d="M1573.6,825.9l2.6,70.9c0,2-1.1,3.3-3.1,3.1l-29.9-2.3c-2,0-5.6-1.6-5.7-3.6l-2.5-71.2c0-2,3.4-3.3,5.5-3.2l29.9,2.3c.9.1,1.8.6,2.4,1.3s.9,1.6.8,2.6Z"/>
  <path class="cls-15" d="M1615.8,950.3l-13.4-31.3s-4.4-42-6.5-46.5c-2.1-4.5-36.3-2.8-39.9-3.1-3.7-.3-3,41.6.6,45.9,3.6,4.2,17.5,8,17.5,8l21.4,41.6,20.4-14.6Z"/>
  <path class="cls-15" d="M1802,923.7c-2.8-2.3-6.1-4-9.7-5-3.5-1-7.2-1.2-10.8-.7-3.6.5-7.1,1.8-10.2,3.7-3.1,1.9-5.8,4.5-7.9,7.5-22,31.6-59.1,84.2-63.5,86.7-6.4,3.7-54.6-40.7-97.5-96.9l-26.2,9.9s67.9,139.6,116.1,140.2c36.1.5,90.2-72.8,115.1-109.7,3.8-5.5,5.3-12.3,4.3-18.9-1-6.6-4.4-12.6-9.6-16.8h0Z"/>
</svg>