<?xml version="1.0" encoding="UTF-8"?>
<svg id="Layer_1" data-name="Layer 1" xmlns="http://www.w3.org/2000/svg" version="1.1" viewBox="0 0 16.9 16.9">
  <defs>
    <style>
      .cls-1 {
        stroke-miterlimit: 10;
      }

      .cls-1, .cls-2 {
        fill: none;
        stroke: #fff;
        stroke-width: 1.25px;
      }

      .cls-2 {
        stroke-linecap: round;
        stroke-linejoin: round;
      }
    </style>
  </defs>
  <path class="cls-1" d="M8.5,16c4.1,0,7.5-3.4,7.5-7.5S12.6,1,8.5,1,1,4.3,1,8.5s3.4,7.5,7.5,7.5Z"/>
  <path class="cls-1" d="M8.5,11c1.7,0,3.1-1.4,3.1-3.1s-1.4-3.1-3.1-3.1-3.1,1.4-3.1,3.1,1.4,3.1,3.1,3.1Z"/>
  <path class="cls-2" d="M3.4,14c.5-.9,1.2-1.7,2.1-2.2.9-.5,1.9-.8,2.9-.8s2.1.3,2.9.8c.9.5,1.6,1.3,2.1,2.2"/>
</svg>