<?xml version="1.0" encoding="UTF-8"?>
<svg xmlns="http://www.w3.org/2000/svg" version="1.1" viewBox="0 0 2233 1670">
  <defs>
    <style>
      .cls-1 {
        fill: #e0e0e0;
      }

      .cls-2 {
        opacity: .3;
      }

      .cls-2, .cls-3, .cls-4, .cls-5, .cls-6, .cls-7, .cls-8, .cls-9 {
        isolation: isolate;
      }

      .cls-3 {
        opacity: .1;
      }

      .cls-4, .cls-9 {
        opacity: .5;
      }

      .cls-5, .cls-7 {
        opacity: .2;
      }

      .cls-10 {
        fill: #e6e6e6;
      }

      .cls-11 {
        fill: #ed847e;
      }

      .cls-12 {
        fill: #ebebeb;
      }

      .cls-6 {
        opacity: .8;
      }

      .cls-6, .cls-7, .cls-13 {
        fill: #0045b6;
      }

      .cls-14 {
        fill: #263238;
      }

      .cls-15, .cls-8, .cls-9 {
        fill: #fff;
      }

      .cls-16 {
        fill: #f0f0f0;
      }

      .cls-17 {
        fill: #fafafa;
      }

      .cls-18 {
        fill: #ffc3bd;
      }

      .cls-19 {
        fill: #f5f5f5;
      }

      .cls-8 {
        opacity: .7;
      }

      /* Sway Animation for Character */
      @keyframes sway {
        0%, 100% {
          transform: rotate(0deg);
        }
        50% {
          transform: rotate(.25deg);
        }
      }

      #character {
        animation: sway 3s ease-in-out infinite;
      }

      /* Fade Animation for Windows */
      @keyframes fadeInOut {
        0%, 100% {
          opacity: 0;
        }
        50% {
          opacity: 1;
        }
      }

      #windows {
        animation: fadeInOut 6s ease-in-out infinite;
      }

      #windows {
        animation: fadeInOut 6s ease-in-out infinite;
      }

    </style>
  </defs>
  <!-- Generator: Adobe Illustrator 28.7.0, SVG Export Plug-In . SVG Version: 1.2.0 Build 136)  -->
  <g>
    <g id="Layer_1">
      <g id="shadow">
        <path id="path" class="cls-19" d="M1116.2,1669.2c478,0,865.6-22.7,865.6-50.7s-387.5-50.7-865.6-50.7-865.6,22.7-865.6,50.7,387.5,50.7,865.6,50.7Z"/>
      </g>
      <g id="windows-grey">
        <g id="background-complete">
          <path id="Vector" class="cls-12" d="M2232.2,1466.9H.1v1.1h2232.1v-1.1h0Z"/>
          <path id="Vector_2" class="cls-12" d="M1435.5,1529.3h-147.8v1.1h147.8v-1.1Z"/>
          <path id="Vector_3" class="cls-12" d="M1856.2,1517.2h-38.8v1.1h38.8v-1.1Z"/>
          <path id="Vector_4" class="cls-12" d="M1770.6,1497.4h-307.7v1.1h307.7v-1.1h0Z"/>
          <path id="Vector_5" class="cls-12" d="M1005.2,1523.8h-135.3v1.1h135.3v-1.1Z"/>
          <path id="Vector_6" class="cls-12" d="M830.2,1523.8h-85.8v1.1h85.8v-1.1Z"/>
          <path id="Vector_7" class="cls-12" d="M443.4,1504.9h-209.1v1.1h209.1v-1.1Z"/>
          <path id="Vector_8" class="cls-12" d="M1058.2,1267H196.2c-6.8,0-13.2-2.7-18-7.5s-7.4-11.3-7.4-18.1V25.4c0-6.7,2.8-13.2,7.5-17.9,4.7-4.8,11.1-7.5,17.9-7.5h862c6.8,0,13.2,2.7,18,7.5,4.8,4.8,7.5,11.3,7.5,18.1v1215.9c0,6.8-2.7,13.3-7.5,18.1-4.8,4.8-11.3,7.5-18,7.5h0ZM196.2.9c-6.5,0-12.6,2.6-17.2,7.2-4.6,4.6-7.1,10.8-7.1,17.3v1216.1c0,6.5,2.6,12.7,7.1,17.3,4.6,4.6,10.7,7.2,17.2,7.2h862c6.5,0,12.7-2.6,17.2-7.2,4.6-4.6,7.1-10.8,7.2-17.3V25.4c0-6.5-2.6-12.7-7.2-17.3-4.6-4.6-10.8-7.2-17.2-7.2,0,0-862,0-862,0Z"/>
          <path id="Vector_9" class="cls-12" d="M2023.8,1267h-862c-6.8,0-13.2-2.7-18-7.5s-7.5-11.3-7.5-18.1V25.4c0-6.7,2.8-13.2,7.6-17.9,4.8-4.7,11.2-7.4,17.9-7.4h862c6.7,0,13.1,2.7,17.9,7.4,4.8,4.7,7.5,11.2,7.5,17.9v1216.1c0,6.8-2.7,13.3-7.4,18.1-4.8,4.8-11.2,7.5-18,7.5h0ZM1161.8.9c-6.5,0-12.7,2.6-17.2,7.2-4.6,4.6-7.1,10.8-7.2,17.3v1216.1c0,6.5,2.6,12.7,7.2,17.3,4.6,4.6,10.8,7.2,17.2,7.2h862c6.5,0,12.7-2.6,17.2-7.2,4.6-4.6,7.1-10.8,7.1-17.3V25.4c0-6.5-2.6-12.7-7.1-17.3-4.6-4.6-10.8-7.2-17.2-7.2h-862Z"/>
          <path id="Vector_10" class="cls-10" d="M1958.5,511.3c0-4.9-1.9-9.6-5.4-13-3.4-3.5-8.1-5.4-13-5.4h-572.9c-4.9,0-9.6,2-13,5.4-3.5,3.5-5.4,8.1-5.4,13v59.4h609.7v-59.4h0Z"/>
          <path id="Vector_11" class="cls-15" d="M1823.7,531.7c0,2.8-.8,5.5-2.3,7.8s-3.7,4.1-6.2,5.2c-2.5,1.1-5.3,1.3-8.1.8-2.7-.5-5.2-1.9-7.1-3.8-2-2-3.3-4.5-3.8-7.2s-.2-5.5.8-8.1c1.1-2.6,2.8-4.7,5.2-6.3,2.3-1.5,5-2.3,7.8-2.3s7.2,1.5,9.8,4.1c2.6,2.6,4.1,6.1,4.1,9.8h-.2Z"/>
          <path id="Vector_12" class="cls-15" d="M1872.9,531.7c0,2.8-.8,5.5-2.3,7.8s-3.7,4.1-6.2,5.2c-2.5,1.1-5.3,1.3-8.1.8-2.7-.5-5.2-1.9-7.1-3.8-1.9-2-3.3-4.4-3.8-7.2-.5-2.7-.3-5.5.8-8.1,1-2.6,2.8-4.7,5.1-6.3,2.3-1.5,5-2.4,7.7-2.4s7.2,1.5,9.8,4.1,4.1,6.2,4.1,9.9Z"/>
          <path id="Vector_13" class="cls-15" d="M1908.3,545.7c7.7,0,13.9-6.3,13.9-14s-6.2-14-13.9-14-13.9,6.3-13.9,14,6.2,14,13.9,14Z"/>
          <path id="Vector_14" class="cls-16" d="M1367.2,970.8h572.9c4.9,0,9.6-2,13-5.4s5.4-8.1,5.4-13v-381.7h-609.7v381.7c0,4.9,1.9,9.6,5.4,13,3.4,3.5,8.1,5.4,13,5.4h0Z"/>
          <path id="Vector_15" class="cls-16" d="M2005,651c0-4.9-1.9-9.6-5.4-13-3.4-3.5-8.1-5.4-13-5.4h-572.9c-4.9,0-9.5,2-13,5.4-3.4,3.5-5.4,8.1-5.4,13v59.4h609.7v-59.4Z"/>
          <path id="Vector_16" class="cls-10" d="M1870.2,671.5c0,2.8-.8,5.5-2.3,7.8s-3.7,4.1-6.2,5.1c-2.6,1.1-5.3,1.3-8.1.8-2.7-.5-5.2-1.9-7.1-3.8-1.9-2-3.3-4.4-3.8-7.2-.5-2.7-.3-5.5.8-8.1,1-2.6,2.8-4.7,5.1-6.3,2.3-1.5,5-2.4,7.7-2.4s7.2,1.5,9.8,4.1c2.6,2.6,4.1,6.2,4.1,9.9h0Z"/>
          <path id="Vector_17" class="cls-10" d="M1919.5,671.5c0,2.8-.8,5.5-2.4,7.8-1.5,2.3-3.7,4.1-6.2,5.1-2.5,1.1-5.3,1.3-8.1.8-2.7-.5-5.2-1.9-7.1-3.8-1.9-2-3.3-4.5-3.8-7.2s-.2-5.5.8-8.1c1.1-2.6,2.9-4.7,5.1-6.3,2.3-1.5,5-2.3,7.8-2.3s7.2,1.5,9.8,4.1c2.6,2.6,4.1,6.2,4.1,9.9h0Z"/>
          <path id="Vector_18" class="cls-10" d="M1968.8,671.5c0,2.8-.8,5.5-2.3,7.8s-3.7,4.1-6.3,5.1c-2.5,1.1-5.3,1.3-8,.8s-5.2-1.9-7.1-3.8c-2-2-3.3-4.5-3.8-7.2s-.2-5.5.8-8.1c1.1-2.6,2.8-4.7,5.1-6.3,2.3-1.5,5-2.3,7.8-2.3s7.2,1.5,9.8,4.1c2.6,2.6,4.1,6.2,4.1,9.9h0Z"/>
          <path id="Vector_19" class="cls-17" d="M1413.7,1110.6h573c4.9,0,9.5-2,13-5.4,3.5-3.5,5.4-8.2,5.4-13v-381.7h-609.8v381.7c0,4.9,2,9.6,5.4,13,3.4,3.5,8.1,5.4,13,5.4h0Z"/>
          <path id="Vector_20" class="cls-1" d="M221.8,82.5c0-4.6,1.9-9.1,5.1-12.3,3.3-3.3,7.7-5.1,12.3-5.1h751.9c4.6,0,9,1.9,12.3,5.1,3.3,3.3,5.1,7.7,5.1,12.3v56.4H221.8s0-56.4,0-56.4Z"/>
          <path id="Vector_21" class="cls-15" d="M362.9,116.5c-2.8,0-5.6-.8-8-2.4s-4.2-3.8-5.3-6.5c-1.1-2.6-1.4-5.5-.8-8.3s1.9-5.4,3.9-7.4,4.6-3.4,7.3-3.9c2.8-.6,5.7-.3,8.3.8,2.6,1.1,4.9,2.9,6.4,5.3,1.6,2.4,2.4,5.1,2.4,8s-1.5,7.5-4.2,10.2-6.3,4.2-10.1,4.2h.1ZM362.9,90c-2.4,0-4.7.7-6.7,2s-3.5,3.2-4.4,5.4c-.9,2.2-1.2,4.6-.7,7,.5,2.3,1.6,4.5,3.3,6.2,1.7,1.7,3.8,2.8,6.2,3.3,2.3.5,4.8.2,7-.7,2.2-.9,4.1-2.5,5.4-4.5s2-4.3,2-6.7-.3-3.2-.9-4.7-1.5-2.8-2.6-4c-1.1-1.1-2.5-2-3.9-2.7s-3.1-.9-4.7-.9v.2h0Z"/>
          <path id="Vector_22" class="cls-15" d="M316.2,116.5c-2.8,0-5.6-.8-7.9-2.4-2.4-1.6-4.2-3.8-5.3-6.4-1.1-2.6-1.4-5.5-.8-8.3.5-2.8,1.9-5.3,3.9-7.4,2-2,4.5-3.4,7.3-4s5.6-.3,8.3.7c2.6,1.1,4.9,2.9,6.5,5.2,1.6,2.3,2.5,5.1,2.5,7.9s-.3,3.8-1,5.6c-.7,1.8-1.8,3.4-3.1,4.7-1.3,1.4-2.9,2.4-4.7,3.2-1.8.7-3.6,1.1-5.5,1.1h-.2ZM316.2,90c-2.4,0-4.7.7-6.7,2s-3.5,3.2-4.4,5.4c-.9,2.2-1.2,4.6-.7,7,.5,2.3,1.6,4.5,3.3,6.2,1.7,1.7,3.8,2.8,6.2,3.3,2.3.5,4.8.2,7-.7,2.2-.9,4.1-2.5,5.4-4.5s2-4.3,2-6.7-.3-3.2-.9-4.7-1.5-2.8-2.6-4c-1.1-1.1-2.5-2-3.9-2.7s-3.1-.9-4.7-.9v.2h0Z"/>
          <path id="Vector_23" class="cls-15" d="M269.4,116.5c-2.8,0-5.6-.8-8-2.4s-4.2-3.8-5.3-6.5c-1.1-2.6-1.4-5.5-.8-8.3.6-2.8,1.9-5.4,3.9-7.4s4.6-3.4,7.3-3.9c2.8-.6,5.7-.3,8.3.8,2.6,1.1,4.9,2.9,6.4,5.3,1.6,2.4,2.4,5.1,2.4,8s-1.5,7.5-4.2,10.2-6.3,4.2-10.1,4.2h.1ZM269.4,90c-2.4,0-4.7.7-6.7,2s-3.5,3.2-4.4,5.4c-.9,2.2-1.2,4.6-.7,7,.5,2.3,1.6,4.5,3.3,6.2,1.7,1.7,3.8,2.8,6.2,3.3,2.3.5,4.8.2,7-.7,2.2-.9,4.1-2.5,5.4-4.5s2-4.3,2-6.7-.3-3.2-.9-4.7-1.5-2.8-2.6-4c-1.1-1.1-2.5-2-3.9-2.7-1.5-.6-3.1-.9-4.7-.9v.2h0Z"/>
          <path id="Vector_24" class="cls-12" d="M239.3,607.4h751.9c4.6,0,9.1-1.9,12.3-5.1,3.3-3.3,5.1-7.7,5.1-12.4V138.9H221.8v450.9c0,4.6,1.9,9.1,5.1,12.4,3.3,3.3,7.7,5.1,12.3,5.1h0Z"/>
          <path id="Vector_25" class="cls-17" d="M410.4,200.8c0-4.6,1.9-9.1,5.1-12.3,3.3-3.3,7.7-5.1,12.3-5.1h751.8c4.6,0,9,1.9,12.3,5.1s5.1,7.7,5.1,12.3v56.4H410.4v-56.4h0Z"/>
          <path id="Vector_26" class="cls-10" d="M551.5,234.6c-2.8,0-5.6-.8-8-2.4-2.4-1.6-4.2-3.8-5.3-6.5-1.1-2.6-1.4-5.5-.8-8.3.6-2.8,1.9-5.4,3.9-7.4s4.6-3.4,7.3-3.9c2.8-.6,5.7-.3,8.3.8s4.9,2.9,6.4,5.3c1.6,2.4,2.4,5.1,2.4,8s-1.5,7.5-4.2,10.2-6.3,4.2-10.1,4.2h0ZM551.5,208.1c-2.4,0-4.7.7-6.7,2s-3.5,3.2-4.4,5.4-1.2,4.6-.7,7c.5,2.3,1.6,4.5,3.3,6.2s3.8,2.8,6.2,3.3c2.3.5,4.8.2,7-.7s4.1-2.5,5.4-4.5c1.3-2,2-4.3,2-6.7s-1.3-6.3-3.5-8.6c-2.3-2.3-5.3-3.5-8.5-3.5h0Z"/>
          <path id="Vector_27" class="cls-10" d="M504.6,234.6c-2.8,0-5.6-.8-8-2.4-2.4-1.6-4.2-3.8-5.3-6.5-1.1-2.6-1.4-5.5-.8-8.3s1.9-5.4,3.9-7.4,4.6-3.4,7.3-3.9c2.8-.6,5.7-.3,8.3.8s4.9,2.9,6.4,5.3c1.6,2.4,2.4,5.1,2.4,8s-1.5,7.5-4.2,10.2-6.3,4.2-10.1,4.2h0ZM504.6,208.1c-2.4,0-4.7.7-6.7,2s-3.5,3.2-4.4,5.4-1.2,4.6-.7,7c.5,2.3,1.6,4.5,3.3,6.2,1.7,1.7,3.8,2.8,6.2,3.3,2.3.5,4.8.2,7-.7s4.1-2.5,5.4-4.5c1.3-2,2-4.3,2-6.7s-1.3-6.3-3.5-8.6c-2.3-2.3-5.3-3.5-8.5-3.5h-.1Z"/>
          <path id="Vector_28" class="cls-10" d="M458,234.6c-2.8,0-5.6-.8-8-2.4-2.4-1.6-4.2-3.8-5.3-6.5-1.1-2.6-1.4-5.5-.8-8.3s1.9-5.4,3.9-7.4,4.6-3.4,7.3-3.9c2.8-.6,5.7-.3,8.3.8,2.6,1.1,4.9,2.9,6.4,5.3,1.6,2.4,2.4,5.1,2.4,8s-1.5,7.5-4.2,10.2-6.3,4.2-10.1,4.2h.1ZM458,208.1c-2.4,0-4.7.7-6.7,2s-3.5,3.2-4.4,5.4-1.2,4.6-.7,7c.5,2.3,1.6,4.5,3.3,6.2,1.7,1.7,3.8,2.8,6.2,3.3,2.3.5,4.8.2,7-.7s4.1-2.5,5.4-4.5,2-4.3,2-6.7-1.3-6.3-3.5-8.6c-2.3-2.3-5.3-3.5-8.5-3.5h0Z"/>
          <path id="Vector_29" class="cls-19" d="M427.9,814.6h751.8c4.6,0,9.1-1.9,12.3-5.1s5.1-7.7,5.1-12.4V257.1H410.4v539.9c0,4.6,1.9,9.1,5.1,12.4s7.7,5.1,12.3,5.1h.1Z"/>
          <path id="Vector_30" class="cls-10" d="M1558.6,297h-265.2c-3.2,0-5.8,2.6-5.8,5.8v43.7c0,3.2,2.6,5.8,5.8,5.8h265.2c3.2,0,5.8-2.6,5.8-5.8v-43.7c0-3.2-2.6-5.8-5.8-5.8h0Z"/>
          <path id="Vector_31" class="cls-16" d="M1755.6,203.2l-462.2,2.9c-1.5,0-3,.6-4.1,1.7-1.1,1.1-1.7,2.6-1.7,4.1v43.7c0,1.5.7,3,1.7,4.1,1.1,1.1,2.6,1.7,4.1,1.7l462.2-2.9c1.5,0,3-.6,4.1-1.7s1.7-2.6,1.7-4.1v-43.7c0-.8-.2-1.5-.4-2.2-.3-.7-.7-1.3-1.3-1.9-.5-.5-1.2-1-1.9-1.2-.7-.3-1.5-.4-2.2-.4h0Z"/>
          <path id="Vector_32" class="cls-16" d="M1654.3,112.2h-360.9c-3.2,0-5.8,2.6-5.8,5.8v43.7c0,3.2,2.6,5.8,5.8,5.8h360.9c3.2,0,5.8-2.6,5.8-5.8v-43.7c0-3.2-2.6-5.8-5.8-5.8Z"/>
          <path id="Vector_33" class="cls-10" d="M366.3,1008.6h-91.9c-1.6,0-2.8,1.3-2.8,2.8v31.1c0,1.6,1.3,2.8,2.8,2.8h91.9c1.6,0,2.8-1.3,2.8-2.8v-31.1c0-1.6-1.3-2.8-2.8-2.8h0Z"/>
          <path id="Vector_34" class="cls-16" d="M436.5,947.9l-162.9,1.9c-1.2,0-2.1,1.7-2.1,3.9v29c0,2.1.9,3.9,2.1,3.9l162.9-2c1.1,0,2.1-1.7,2.1-3.9v-29c0-1.9-1-3.8-2.1-3.8h0Z"/>
          <path id="Vector_35" class="cls-16" d="M400,889.2h-125.7c-1.6,0-2.8,1.3-2.8,2.8v31.1c0,1.6,1.3,2.8,2.8,2.8h125.7c1.6,0,2.8-1.3,2.8-2.8v-31.1c0-1.6-1.3-2.8-2.8-2.8Z"/>
          <path id="Vector_36" class="cls-16" d="M436.5,1127l-162.9,2.1c-1.2,0-2.1,1.8-2.1,3.8v29c0,2.1.9,3.9,2.1,3.9l162.9-2c1.1,0,2.1-1.8,2.1-3.9v-29c0-2.2-1-3.9-2.1-3.9Z"/>
          <path id="Vector_37" class="cls-16" d="M400,1068.3h-125.7c-1.6,0-2.8,1.3-2.8,2.8v31.1c0,1.6,1.3,2.8,2.8,2.8h125.7c1.6,0,2.8-1.3,2.8-2.8v-31.1c0-1.6-1.3-2.8-2.8-2.8Z"/>
        </g>
      </g>
      <g id="windows">
        <path id="Vector_38" class="cls-13" d="M1961.7,125.9h-843.1v841.9h843.1V125.9Z"/>
        <path id="Vector_39" class="cls-3" d="M1393.8,167.8h-275.2v158.5h275.2v-158.5h0Z"/>
        <path id="Vector_40" class="cls-5" d="M1393.8,484.8h-275.2v158.5h275.2v-158.5Z"/>
        <path id="Vector_41" class="cls-3" d="M1393.8,643.2h-275.2v158.5h275.2v-158.5Z"/>
        <path id="Vector_42" class="cls-15" d="M1393.8,167.8h553.9v768.6c0,5.4-2.2,10.7-6,14.5s-9,6-14.5,6h-513c-5.4,0-10.6-2.2-14.4-6s-6-9.1-6-14.5V167.8Z"/>
        <path id="Vector_43" class="cls-2" d="M1961.7,125.9h-843.1v41.9h843.1v-41.9Z"/>
        <path id="Vector_44" class="cls-6" d="M1151.4,155.4c4.7,0,8.5-3.8,8.5-8.5s-3.8-8.5-8.5-8.5-8.5,3.8-8.5,8.5,3.8,8.5,8.5,8.5Z"/>
        <path id="Vector_45" class="cls-6" d="M1190.2,155.4c4.7,0,8.5-3.8,8.5-8.5s-3.8-8.5-8.5-8.5-8.5,3.8-8.5,8.5,3.8,8.5,8.5,8.5Z"/>
        <path id="Vector_46" class="cls-6" d="M1228.8,155.4c4.7,0,8.5-3.8,8.5-8.5s-3.8-8.5-8.5-8.5-8.5,3.8-8.5,8.5,3.8,8.5,8.5,8.5Z"/>
        <path id="Vector_47" class="cls-7" d="M1772.1,246.8h-322.8c-7,0-12.7,5.7-12.7,12.8v254.7c0,7.1,5.7,12.8,12.7,12.8h322.8c7,0,12.7-5.7,12.7-12.8v-254.7c0-7.1-5.7-12.8-12.7-12.8h0Z"/>
        <path id="Vector_48" class="cls-7" d="M1904.7,224.6h-247.9c-5.4,0-9.8,4.4-9.8,9.8v195.6c0,5.4,4.4,9.8,9.8,9.8h247.9c5.4,0,9.8-4.4,9.8-9.8v-195.6c0-5.4-4.4-9.8-9.8-9.8h0Z"/>
        <path id="Vector_49" class="cls-7" d="M1766,617.4h-247.9c-5.4,0-9.8,4.4-9.8,9.8v195.6c0,5.4,4.4,9.8,9.8,9.8h247.9c5.4,0,9.8-4.4,9.8-9.8v-195.6c0-5.4-4.4-9.8-9.8-9.8h0Z"/>
        <path id="Vector_50" class="cls-8" d="M1961.7,125.9h-843.1v841.9h843.1V125.9Z"/>
        <path id="Vector_51" class="cls-13" d="M1884.3,203.6h-843.1v841.9h843.1V203.6Z"/>
        <path id="Vector_52" class="cls-3" d="M1316.4,245.5h-275.2v158.5h275.2v-158.5h0Z"/>
        <path id="Vector_53" class="cls-5" d="M1316.4,562.4h-275.2v158.5h275.2v-158.5h0Z"/>
        <path id="Vector_54" class="cls-3" d="M1316.4,720.9h-275.2v158.5h275.2v-158.5h0Z"/>
        <path id="Vector_55" class="cls-15" d="M1316.4,245.5h553.9v768.5c0,5.4-2.2,10.7-6,14.5s-9,6-14.5,6h-513c-5.4,0-10.6-2.2-14.5-6-3.8-3.9-6-9.1-6-14.5V245.5h0Z"/>
        <path id="Vector_56" class="cls-2" d="M1884.3,203.6h-843.1v41.9h843.1v-41.9Z"/>
        <path id="Vector_57" class="cls-6" d="M1074,233.1c4.7,0,8.5-3.8,8.5-8.5s-3.8-8.5-8.5-8.5-8.5,3.8-8.5,8.5,3.8,8.5,8.5,8.5Z"/>
        <path id="Vector_58" class="cls-6" d="M1112.7,233.1c4.7,0,8.5-3.8,8.5-8.5s-3.8-8.5-8.5-8.5-8.5,3.8-8.5,8.5,3.8,8.5,8.5,8.5Z"/>
        <path id="Vector_59" class="cls-6" d="M1151.4,233.1c4.7,0,8.5-3.8,8.5-8.5s-3.8-8.5-8.5-8.5-8.5,3.8-8.5,8.5,3.8,8.5,8.5,8.5Z"/>
        <path id="Vector_60" class="cls-7" d="M1694.7,324.5h-322.8c-7,0-12.7,5.7-12.7,12.8v254.7c0,7.1,5.7,12.8,12.7,12.8h322.8c7,0,12.7-5.7,12.7-12.8v-254.7c0-7.1-5.7-12.8-12.7-12.8Z"/>
        <path id="Vector_61" class="cls-7" d="M1831.4,545.9h-247.9c-5.4,0-9.8,4.4-9.8,9.8v195.6c0,5.4,4.4,9.8,9.8,9.8h247.9c5.4,0,9.8-4.4,9.8-9.8v-195.6c0-5.4-4.4-9.8-9.8-9.8h0Z"/>
        <path id="Vector_62" class="cls-7" d="M1688.6,695.1h-247.9c-5.4,0-9.8,4.4-9.8,9.8v195.6c0,5.4,4.4,9.8,9.8,9.8h247.9c5.4,0,9.8-4.4,9.8-9.8v-195.6c0-5.4-4.4-9.8-9.8-9.8h0Z"/>
        <path id="Vector_63" class="cls-9" d="M1884.3,203.6h-843.1v841.9h843.1V203.6Z"/>
        <path id="Vector_64" class="cls-13" d="M1806.9,281.3h-843.1v842h843.1V281.3Z"/>
        <path id="Vector_65" class="cls-3" d="M1239,323.2h-275.2v158.5h275.2v-158.5Z"/>
        <path id="Vector_66" class="cls-5" d="M1239,640.1h-275.2v158.5h275.2v-158.5Z"/>
        <path id="Vector_67" class="cls-3" d="M1239,798.6h-275.2v158.5h275.2v-158.5Z"/>
        <path id="Vector_68" class="cls-15" d="M1239,323.2h553.9v768.6c0,5.4-2.1,10.7-6,14.5-3.8,3.8-9,6-14.5,6h-513c-5.4,0-10.6-2.2-14.5-6-3.8-3.8-6-9.1-6-14.5V323.2h0Z"/>
        <path id="Vector_69" class="cls-2" d="M1806.9,281.3h-843.1v41.9h843.1v-41.9Z"/>
        <path id="Vector_70" class="cls-6" d="M996.7,310.8c4.7,0,8.5-3.8,8.5-8.5s-3.8-8.5-8.5-8.5-8.5,3.8-8.5,8.5,3.8,8.5,8.5,8.5Z"/>
        <path id="Vector_71" class="cls-6" d="M1043.9,302.2c0,1.7-.5,3.4-1.4,4.8s-2.3,2.5-3.8,3.2c-1.6.7-3.3.8-4.9.5-1.7-.3-3.2-1.1-4.4-2.3-1.2-1.2-2-2.7-2.3-4.4-.3-1.7-.2-3.4.5-5s1.7-2.9,3.1-3.8,3.1-1.4,4.8-1.4,2.2.2,3.3.6c1,.4,2,1.1,2.8,1.8.8.8,1.4,1.7,1.8,2.8.4,1,.7,2.1.7,3.3h-.2Z"/>
        <path id="Vector_72" class="cls-6" d="M1074,310.8c4.7,0,8.5-3.8,8.5-8.5s-3.8-8.5-8.5-8.5-8.5,3.8-8.5,8.5,3.8,8.5,8.5,8.5Z"/>
        <path id="Vector_73" class="cls-7" d="M1421.3,260.6h-485c-10.6,0-19.1,8.6-19.1,19.2v382.7c0,10.6,8.6,19.2,19.1,19.2h485c10.5,0,19.1-8.6,19.1-19.2v-382.7c0-10.6-8.6-19.2-19.1-19.2h0Z"/>
        <path id="Vector_74" class="cls-7" d="M1683.7,466.3h-372.5c-8.1,0-14.7,6.6-14.7,14.7v293.9c0,8.1,6.6,14.7,14.7,14.7h372.5c8.1,0,14.7-6.6,14.7-14.7v-293.9c0-8.1-6.6-14.7-14.7-14.7h0Z"/>
        <path id="Vector_75" class="cls-7" d="M1818.1,865.7h-372.5c-8.1,0-14.7,6.6-14.7,14.7v293.9c0,8.1,6.6,14.7,14.7,14.7h372.5c8.1,0,14.7-6.6,14.7-14.7v-293.9c0-8.1-6.6-14.7-14.7-14.7Z"/>
      </g>
      <g id="character">
        <path id="Vector_76" class="cls-18" d="M716,507l-32.4,68.2c-10.7,22.8-21.2,45.7-30.5,68.3l-3.3,8.5c-.5,1.3-.6,1.6-1,2.7-.4,1.1-.6,2-.9,3.3-1.2,5.4-2.1,10.8-2.6,16.2-1.2,11.7-2,24.1-2.4,36.5-.9,24.9-1.1,50.4-1.4,75.6l-24.5,2.7c-5.6-25.5-9.7-51.2-12.1-77.2-1.3-13.4-2-26.9-1.9-40.3,0-7.3.5-14.6,1.5-21.8.2-1.9.7-4,1.1-6.1.4-2.1,1.2-4.8,1.7-6.5l3.1-9.5c8.3-25.2,18.1-49.3,28.3-73s21.2-47,32.9-70.1l44.5,22.5h0Z"/>
        <path id="Vector_77" class="cls-18" d="M641,778.6l11.4,21.5-36.5,10.2s-7-17.2,1.3-30.8l23.8-.9Z"/>
        <path id="Vector_78" class="cls-18" d="M666.4,831l-33.6,2.6-16.9-23.4,36.5-10.2,14,31h0Z"/>
        <path id="Vector_79" class="cls-14" d="M825.2,329.8c.5,2.6,2.3,4.5,4,4.1s2.6-2.7,2.1-5.3c-.5-2.6-2.3-4.5-4-4.1s-2.7,2.6-2.1,5.3Z"/>
        <path id="Vector_80" class="cls-11" d="M827.3,334.3c4.7,7.3,10.4,13.9,16.9,19.7-1.5,1.6-3.3,2.9-5.4,3.8-2.1.8-4.3,1.2-6.5,1.1l-5-24.6Z"/>
        <path id="Vector_81" class="cls-14" d="M812.6,317.3c.4,0,.9-.2,1.2-.5,1.3-1.5,2.9-2.6,4.7-3.4,1.8-.7,3.8-1,5.7-.8.4,0,.8,0,1.2-.3.3-.2.6-.6.6-1s0-.8-.3-1.2c-.2-.3-.6-.6-1-.6-2.5-.3-5,0-7.3.9s-4.4,2.4-6.1,4.2c-.2.2-.3.5-.4.8v.9c0,.3.3.5.6.7s.5.3.9.3h.2,0Z"/>
        <path id="Vector_82" class="cls-18" d="M751.4,366.4c4.7,24.1,9.4,68.2-7.4,84.2,0,0,6.6,24.5,51.1,24.5s23.4-24.4,23.4-24.4c-26.8-6.5-26.1-26.3-21.4-45.1l-45.8-39.2h.1Z"/>
        <path id="Vector_83" class="cls-14" d="M732.8,459.2c-3.9-7-8.2-15,.7-17.4,9.8-2.8,63.5-5.6,82-.4s13.4,19.3,13.4,19.3l-96.1-1.4h0Z"/>
        <path id="Vector_84" class="cls-13" d="M594.4,1551.9c2.8.7,5.7.2,8.1-1.3.4-.5.7-1.1.8-1.8,0-.7,0-1.3-.4-1.9-.2-.5-.5-.9-.9-1.3-.4-.3-.8-.6-1.3-.8-4.5-1.7-14.3,3.6-14.7,3.8,0,0-.2.2-.3.3,0,0,0,.3,0,.4,0,.2,0,.3.2.4,0,0,.2.2.4.2,2.7.9,5.5,1.5,8.4,1.9h-.3ZM599.1,1546.1l.9.2c.3,0,.6.2.8.4s.4.5.5.8c.6,1.3,0,1.8,0,2-1.6,1.7-8.3,1-13-.4,3.3-1.8,7-2.8,10.8-3.1h0Z"/>
        <path id="Vector_85" class="cls-13" d="M586.2,1550.2h.4c3.6-1.5,10.9-7.9,10.6-11.6,0-.6-.3-1.1-.7-1.5s-.9-.7-1.5-.7c-.6-.2-1.2-.2-1.8,0-.6,0-1.1.4-1.6.7-4.1,2.7-5.9,12-6,12.4v.4c0,0,0,.2.2.3,0,0,0,0,.2,0h.2,0ZM593.6,1538.7h.3c1,.3,1,.8,1,1,0,2.2-5.1,6.8-8.9,8.7.9-3.6,2.9-6.9,5.7-9.4.3-.2.6-.3.9-.4h1Z"/>
        <path id="Vector_86" class="cls-13" d="M831.2,1583.3c4.2,0,8.3-.6,9.6-2.5.4-.5.6-1.1.6-1.7s-.2-1.2-.6-1.7c-.5-.9-1.4-1.6-2.5-1.8-5.4-1.5-16.9,5.1-17.4,5.4,0,0-.3.2-.4.3,0,0,0,.3,0,.4s0,.3,0,.4c0,0,.2.2.4.3,3.4.6,6.8.9,10.3.9h0ZM836.4,1576.9h1.5c.3,0,.6.2.9.4.3.2.5.4.6.7.5,1,.4,1.5,0,1.7-1.5,2.1-9.8,2.2-15.9,1.3,4-2.1,8.4-3.4,12.9-3.9v-.2Z"/>
        <path id="Vector_87" class="cls-13" d="M821.5,1582.3c3.9-1.8,11.8-9,11.2-12.6,0-.8-.8-2-2.9-2.2-.8,0-1.6,0-2.4.2-.8.2-1.5.6-2.1,1.1-4.2,3.5-5,12.3-5.1,12.7v.4c0,0,0,.2.2.3,0,0,.3,0,.5.2h.6ZM829.5,1568.9h.4c1.4,0,1.5.7,1.5.9.4,2.2-5,7.8-8.9,10.3.4-3.8,2-7.3,4.5-10.2.7-.5,1.5-.8,2.3-.9h.2Z"/>
        <path id="Vector_88" class="cls-18" d="M785.3,1581.6h32.8l3.3-76.2h-32.8l-3.3,76.2Z"/>
        <path id="Vector_89" class="cls-18" d="M548.9,1545.2l32.6,3.5,24.6-74-32.6-3.5-24.6,74Z"/>
        <path id="Vector_90" class="cls-14" d="M584.2,1545.2l-36.6-4c-.6,0-1.3,0-1.9.4-.6.3-1,.9-1.2,1.5l-9.6,28.4c-.2.7-.3,1.4-.2,2.1,0,.7.3,1.4.7,2s.9,1.1,1.5,1.5,1.3.6,2,.7c12.8,1.2,19.1,1.1,35.2,2.9,9.9,1.1,30.2,4.5,43.9,5.8,13.7,1.4,16.9-11.9,11.5-13.7-24.6-8.2-33.2-16.9-40.4-25-1.3-1.5-3.1-2.4-5.1-2.6h.2Z"/>
        <path id="Vector_91" class="cls-14" d="M817.8,1577.8h-35.7c-.6,0-1.3.2-1.8.6s-.9,1-1,1.6l-6.5,29.3c-.2.7-.2,1.4,0,2.1s.5,1.4.9,1.9c.5.6,1,1,1.7,1.3s1.4.5,2.1.5c12.9-.2,31.6-1,47.9-1s35.4,1,57.6,1,17.2-13.7,11.6-14.9c-25.7-5.6-46.6-6.2-68.7-19.9-2.4-1.6-5.2-2.5-8-2.6h0Z"/>
        <path id="Vector_92" class="cls-18" d="M866.7,467.5c9.3,2.9,19.7,6.1,29.6,9,10,2.9,20.2,5.3,30.3,7.5,19.7,4.7,39.8,7.6,60,8.8,4.8,0,9.6.3,14.2,0h2.8c.6,0,1.6,0,2.4-.2,1.8-.3,3.8-.7,6-1.3,9.5-2.6,18.8-5.9,27.9-9.7,19.2-7.9,38.9-17.1,58.3-26l13.6,20.6c-16.9,15-35.1,28.5-54.4,40.3-10.2,6.4-20.9,11.8-32,16.3-3.2,1.3-6.4,2.3-9.7,3.2-1.9.4-3.6.9-5.7,1.3l-3,.5-2.3.3c-6.3.8-12.4,1.1-18.4,1.3-23.4.2-46.8-2.1-69.7-6.7-11.2-2.2-22.3-4.5-33.3-7.7-10.9-3.2-21.6-6-32.9-10.2l16.2-47.2h.1Z"/>
        <path id="Vector_93" class="cls-13" d="M685.3,458.2c-30.7,7-61.8,97.3-61.8,97.3l63.3,45.5s17.9-42,35-78.7c18.2-38.4-5.1-71.3-36.5-64.1h0Z"/>
        <path id="Vector_94" class="cls-2" d="M685.3,458.2c-30.7,7-61.8,97.3-61.8,97.3l63.3,45.5s17.9-42,35-78.7c18.2-38.4-5.1-71.3-36.5-64.1h0Z"/>
        <path id="Vector_95" class="cls-13" d="M869,459.8s34.9,39.6,1.9,284.5h-175.4c-1.2-26.9,15.7-158.8-10.3-286.2,19.4-3.8,39-6.3,58.7-7.5,24.8-1.5,49.7-1.5,74.6,0,17,1.7,33.9,4.8,50.4,9.1h0Z"/>
        <path id="Vector_96" class="cls-2" d="M869,459.8s34.9,39.6,1.9,284.5h-175.4c-1.2-26.9,15.7-158.8-10.3-286.2,19.4-3.8,39-6.3,58.7-7.5,24.8-1.5,49.7-1.5,74.6,0,17,1.7,33.9,4.8,50.4,9.1h0Z"/>
        <path id="Vector_97" class="cls-2" d="M869,459.8s-3.9-1.1-10.3-2.6c-19.3,2-28.7,24.3-23.5,47.4,3.8,17.2,28.7,40.7,49.9,58.2-.5-85.3-16.1-103.1-16.1-103.1h0Z"/>
        <path id="Vector_98" class="cls-13" d="M826,510.4c15.7,27.2,101.3,53.8,101.3,53.8l28.8-77.3s-49.1-13.4-87.2-26.9c-47.1-17-60,20.5-42.9,50.4h0Z"/>
        <path id="Vector_99" class="cls-2" d="M826,510.4c15.7,27.2,101.3,53.8,101.3,53.8l28.8-77.3s-49.1-13.4-87.2-26.9c-47.1-17-60,20.5-42.9,50.4h0Z"/>
        <path id="Vector_100" class="cls-18" d="M1092.7,463.1l5.4-34.3,30.3,8.7s4.5,30.5-17.6,39.5l-18.1-13.9h0Z"/>
        <path id="Vector_101" class="cls-18" d="M1111.2,398.6l25.5,21.5-8.3,17.4-30.3-8.7,13-30.2h.1Z"/>
        <path id="Vector_102" class="cls-5" d="M821.3,1505.4l-1.7,39.3h-32.8l1.7-39.3h32.8Z"/>
        <path id="Vector_103" class="cls-5" d="M573.5,1471.3l32.6,3.6-12.7,38.1-32.6-3.6,12.7-38.1Z"/>
        <path id="Vector_104" class="cls-18" d="M737.6,341.9c8.4,31.6,11.8,50.5,31.2,63.6,29.2,19.8,65.5-2.9,66.6-36.3,1-30.1-12.9-76.7-46.6-83-7.4-1.4-15.1-.9-22.2,1.5-7.2,2.4-13.6,6.6-18.7,12.1-5.1,5.6-8.7,12.4-10.5,19.7-1.8,7.4-1.7,15.1.3,22.4h0Z"/>
        <path id="Vector_105" class="cls-14" d="M811.6,247c-.2,2.1-.9,4.2-2,6s-2.6,3.4-4.4,4.6c-1.5-16.6-8-32.5-22.7-40.3,2.4,7-4.5,18.2-14.6,29.6-1.1-4.2-3.1-8.1-5.8-11.4-2.7-3.4-6-6.1-9.8-8.2-6.7,26-28.1,30.3-45.1,46.4-3.7,3.6-6.2,8.3-7.2,13.4s-.5,10.4,1.5,15.1c-4.5-2-9.8-1.5-13.6,8.5,3.7-2.3,7.9-3.7,12.3-3.8-3,2.9-5.4,7.8-3.7,19,3,19,41.8,75.3,66.3,72.4,26.8-3.1,31.7-34.2,32.3-62.3l1-.5c18.6-9.9,41.5-62.9,15.4-88.4h0Z"/>
        <path id="Vector_106" class="cls-18" d="M782.5,342.5c3.4,7.4,9,13.5,16.2,17.3,9.5,4.9,14.7-2.3,12.6-11.7-1.9-8.6-8.9-21.4-18.9-22.4s-13.8,7.9-9.9,16.8h0Z"/>
        <path id="Vector_107" class="cls-13" d="M808.7,744.3s-37.2,251.5-57.7,345.8c-22.3,103-140,419.1-140,419.1l-59.1-10.9s87.9-296.7,100.7-398.8c13.9-110.9,42.9-355.1,42.9-355.1l113.2-.2h0Z"/>
        <path id="Vector_108" class="cls-5" d="M785.2,833.9c-43,8.5-38.5,169.5-33.3,252.4,12.4-58.6,30.6-171.2,43-251.2-3-1.5-6.4-1.9-9.7-1.2Z"/>
        <path id="Vector_109" class="cls-13" d="M870.9,744.3s4.5,246.1,1,346.5c-3.7,104.4-40.2,446.2-40.2,446.2h-55.4s-2.1-335.8-4.5-438.3c-2.7-111.8-16.2-354.4-16.2-354.4h115.3Z"/>
        <path id="Vector_110" class="cls-5" d="M822.5,1496.7l-2.4-.3c9.8-94.6,32.9-323.4,35.7-405.5,3-84.1.3-271.9-.6-327.4l2.4-.3c.9,55.6,3.6,243.5.6,327.7-2.8,82.2-25.9,311.2-35.7,405.8Z"/>
        <path id="Vector_111" class="cls-13" d="M624.5,1489.2c.3,0-10.3,21.6-10.3,21.6l-66.5-12.3,5-20.1,71.8,10.8Z"/>
        <path id="Vector_112" class="cls-4" d="M624.5,1489.2c.3,0-10.3,21.6-10.3,21.6l-66.5-12.3,5-20.1,71.8,10.8Z"/>
        <path id="Vector_113" class="cls-13" d="M842.5,1514.8c.3,0-3.1,23.2-3.1,23.2h-67.6l-1.8-20.7,72.5-2.5h0Z"/>
        <path id="Vector_114" class="cls-4" d="M842.5,1514.8c.3,0-3.1,23.2-3.1,23.2h-67.6l-1.8-20.7,72.5-2.5h0Z"/>
      </g>
    </g>
  </g>
</svg>